<?xml version="1.0" encoding="UTF-8" standalone="no"?>
<svg
   xmlns:dc="http://purl.org/dc/elements/1.1/"
   xmlns:cc="http://creativecommons.org/ns#"
   xmlns:rdf="http://www.w3.org/1999/02/22-rdf-syntax-ns#"
   xmlns:svg="http://www.w3.org/2000/svg"
   xmlns="http://www.w3.org/2000/svg"
   xmlns:xlink="http://www.w3.org/1999/xlink"
   xmlns:sodipodi="http://sodipodi.sourceforge.net/DTD/sodipodi-0.dtd"
   xmlns:inkscape="http://www.inkscape.org/namespaces/inkscape"
   width="360pt"
   height="288pt"
   viewBox="0 0 360 288"
   version="1.1"
   id="svg288"
   sodipodi:docname="US131_fieldline_umbilicedge.svg"
   inkscape:version="0.92.5 (2060ec1f9f, 2020-04-08)">
  <sodipodi:namedview
     pagecolor="#ffffff"
     bordercolor="#666666"
     borderopacity="1"
     objecttolerance="10"
     gridtolerance="10"
     guidetolerance="10"
     inkscape:pageopacity="0"
     inkscape:pageshadow="2"
     inkscape:window-width="6880"
     inkscape:window-height="2806"
     id="namedview290"
     showgrid="true"
     inkscape:zoom="4.9166667"
     inkscape:cx="240"
     inkscape:cy="178.98305"
     inkscape:window-x="0"
     inkscape:window-y="0"
     inkscape:window-maximized="1"
     inkscape:current-layer="legend_1">
    <inkscape:grid
       type="xygrid"
       id="grid1097" />
  </sodipodi:namedview>
  <metadata
     id="metadata2">
    <rdf:RDF>
      <cc:Work>
        <dc:type
           rdf:resource="http://purl.org/dc/dcmitype/StillImage" />
        <dc:date>2025-03-31T04:57:44.835757</dc:date>
        <dc:format>image/svg+xml</dc:format>
        <dc:creator>
          <cc:Agent>
            <dc:title>Matplotlib v3.9.2, https://matplotlib.org/</dc:title>
          </cc:Agent>
        </dc:creator>
        <dc:title></dc:title>
      </cc:Work>
    </rdf:RDF>
  </metadata>
  <defs
     id="defs6">
    <style
       type="text/css"
       id="style4">*{stroke-linejoin: round; stroke-linecap: butt}</style>
  </defs>
  <g
     id="figure_1">
    <g
       id="patch_1">
      <path
         d="M 0 288  L 360 288  L 360 0  L 0 0  z "
         style="fill: #ffffff"
         id="path8" />
    </g>
    <g
       id="axes_1">
      <g
         id="patch_2">
        <path
           d="M 86.701051 224.868834  L 334.769834 224.868834  L 334.769834 19.46627  L 86.701051 19.46627  z "
           style="fill: #ffffff"
           id="path11" />
      </g>
      <g
         id="matplotlib.axis_1">
        <g
           id="xtick_1">
          <g
             id="line2d_1">
            <path
               d="M 86.701051 224.868834  L 86.701051 19.46627  "
               clip-path="url(#p62ebfcf31c)"
               style="fill: none; stroke: #b0b0b0; stroke-width: 0.8; stroke-linecap: round"
               id="path14" />
          </g>
          <g
             id="line2d_2">
            <defs
               id="defs18">
              <path
                 id="m18eb80e4b2"
                 d="M 0 0  L 0 3.5  "
                 style="stroke: #000000; stroke-width: 0.8" />
            </defs>
            <g
               id="g22">
              <use
                 xlink:href="#m18eb80e4b2"
                 x="86.701051"
                 y="224.868834"
                 style="stroke: #000000; stroke-width: 0.8"
                 id="use20" />
            </g>
          </g>
          <g
             id="text_1">
            <!-- 0 -->
            <g
               transform="translate(79.702301 248.585396) scale(0.22 -0.22)"
               id="g30">
              <defs
                 id="defs26">
                <path
                   id="DejaVuSans-30"
                   d="M 2034 4250  Q 1547 4250 1301 3770  Q 1056 3291 1056 2328  Q 1056 1369 1301 889  Q 1547 409 2034 409  Q 2525 409 2770 889  Q 3016 1369 3016 2328  Q 3016 3291 2770 3770  Q 2525 4250 2034 4250  z M 2034 4750  Q 2819 4750 3233 4129  Q 3647 3509 3647 2328  Q 3647 1150 3233 529  Q 2819 -91 2034 -91  Q 1250 -91 836 529  Q 422 1150 422 2328  Q 422 3509 836 4129  Q 1250 4750 2034 4750  z "
                   transform="scale(0.015625)" />
              </defs>
              <use
                 xlink:href="#DejaVuSans-30"
                 id="use28" />
            </g>
          </g>
        </g>
        <g
           id="xtick_2">
          <g
             id="line2d_3">
            <path
               d="M 169.390645 224.868834  L 169.390645 19.46627  "
               clip-path="url(#p62ebfcf31c)"
               style="fill: none; stroke: #b0b0b0; stroke-width: 0.8; stroke-linecap: round"
               id="path34" />
          </g>
          <g
             id="line2d_4">
            <g
               id="g39">
              <use
                 xlink:href="#m18eb80e4b2"
                 x="169.390645"
                 y="224.868834"
                 style="stroke: #000000; stroke-width: 0.8"
                 id="use37" />
            </g>
          </g>
          <g
             id="text_2">
            <!-- $2\pi$ -->
            <g
               transform="translate(155.750645 248.585396) scale(0.22 -0.22)"
               id="g50">
              <defs
                 id="defs44">
                <path
                   id="DejaVuSans-32"
                   d="M 1228 531  L 3431 531  L 3431 0  L 469 0  L 469 531  Q 828 903 1448 1529  Q 2069 2156 2228 2338  Q 2531 2678 2651 2914  Q 2772 3150 2772 3378  Q 2772 3750 2511 3984  Q 2250 4219 1831 4219  Q 1534 4219 1204 4116  Q 875 4013 500 3803  L 500 4441  Q 881 4594 1212 4672  Q 1544 4750 1819 4750  Q 2544 4750 2975 4387  Q 3406 4025 3406 3419  Q 3406 3131 3298 2873  Q 3191 2616 2906 2266  Q 2828 2175 2409 1742  Q 1991 1309 1228 531  z "
                   transform="scale(0.015625)" />
                <path
                   id="DejaVuSans-Oblique-3c0"
                   d="M 584 3500  L 3938 3500  L 3825 2925  L 3384 2925  L 2966 775  Q 2922 550 2981 450  Q 3038 353 3209 353  Q 3256 353 3325 363  Q 3397 369 3419 372  L 3338 -44  Q 3222 -84 3103 -103  Q 2981 -122 2866 -122  Q 2491 -122 2388 81  Q 2284 288 2391 838  L 2797 2925  L 1506 2925  L 938 0  L 350 0  L 919 2925  L 472 2925  L 584 3500  z "
                   transform="scale(0.015625)" />
              </defs>
              <use
                 xlink:href="#DejaVuSans-32"
                 transform="translate(0 0.78125)"
                 id="use46" />
              <use
                 xlink:href="#DejaVuSans-Oblique-3c0"
                 transform="translate(63.623047 0.78125)"
                 id="use48" />
            </g>
          </g>
        </g>
        <g
           id="xtick_3">
          <g
             id="line2d_5">
            <path
               d="M 252.08024 224.868834  L 252.08024 19.46627  "
               clip-path="url(#p62ebfcf31c)"
               style="fill: none; stroke: #b0b0b0; stroke-width: 0.8; stroke-linecap: round"
               id="path54" />
          </g>
          <g
             id="line2d_6">
            <g
               id="g59">
              <use
                 xlink:href="#m18eb80e4b2"
                 x="252.08024"
                 y="224.868834"
                 style="stroke: #000000; stroke-width: 0.8"
                 id="use57" />
            </g>
          </g>
          <g
             id="text_3">
            <!-- $4\pi$ -->
            <g
               transform="translate(238.44024 248.585396) scale(0.22 -0.22)"
               id="g69">
              <defs
                 id="defs63">
                <path
                   id="DejaVuSans-34"
                   d="M 2419 4116  L 825 1625  L 2419 1625  L 2419 4116  z M 2253 4666  L 3047 4666  L 3047 1625  L 3713 1625  L 3713 1100  L 3047 1100  L 3047 0  L 2419 0  L 2419 1100  L 313 1100  L 313 1709  L 2253 4666  z "
                   transform="scale(0.015625)" />
              </defs>
              <use
                 xlink:href="#DejaVuSans-34"
                 transform="translate(0 0.09375)"
                 id="use65" />
              <use
                 xlink:href="#DejaVuSans-Oblique-3c0"
                 transform="translate(63.623047 0.09375)"
                 id="use67" />
            </g>
          </g>
        </g>
        <g
           id="xtick_4">
          <g
             id="line2d_7">
            <path
               d="M 334.769834 224.868834  L 334.769834 19.46627  "
               clip-path="url(#p62ebfcf31c)"
               style="fill: none; stroke: #b0b0b0; stroke-width: 0.8; stroke-linecap: round"
               id="path73" />
          </g>
          <g
             id="line2d_8">
            <g
               id="g78">
              <use
                 xlink:href="#m18eb80e4b2"
                 x="334.769834"
                 y="224.868834"
                 style="stroke: #000000; stroke-width: 0.8"
                 id="use76" />
            </g>
          </g>
          <g
             id="text_4">
            <!-- $6\pi$ -->
            <g
               transform="translate(321.129834 248.585396) scale(0.22 -0.22)"
               id="g88">
              <defs
                 id="defs82">
                <path
                   id="DejaVuSans-36"
                   d="M 2113 2584  Q 1688 2584 1439 2293  Q 1191 2003 1191 1497  Q 1191 994 1439 701  Q 1688 409 2113 409  Q 2538 409 2786 701  Q 3034 994 3034 1497  Q 3034 2003 2786 2293  Q 2538 2584 2113 2584  z M 3366 4563  L 3366 3988  Q 3128 4100 2886 4159  Q 2644 4219 2406 4219  Q 1781 4219 1451 3797  Q 1122 3375 1075 2522  Q 1259 2794 1537 2939  Q 1816 3084 2150 3084  Q 2853 3084 3261 2657  Q 3669 2231 3669 1497  Q 3669 778 3244 343  Q 2819 -91 2113 -91  Q 1303 -91 875 529  Q 447 1150 447 2328  Q 447 3434 972 4092  Q 1497 4750 2381 4750  Q 2619 4750 2861 4703  Q 3103 4656 3366 4563  z "
                   transform="scale(0.015625)" />
              </defs>
              <use
                 xlink:href="#DejaVuSans-36"
                 transform="translate(0 0.78125)"
                 id="use84" />
              <use
                 xlink:href="#DejaVuSans-Oblique-3c0"
                 transform="translate(63.623047 0.78125)"
                 id="use86" />
            </g>
          </g>
        </g>
        <g
           id="text_5"
           transform="translate(0,-9)"
           style="stroke-linecap:butt;stroke-linejoin:round">
          <!-- $\zeta$ -->
          <g
             transform="matrix(0.24,0,0,-0.24,204.13544,269.40071)"
             id="g97"
             style="stroke-linecap:butt;stroke-linejoin:round">
            <defs
               id="defs93">
              <path
                 id="DejaVuSans-Oblique-3b6"
                 d="m 1966,397 q 412,-3 612,-238 216,-247 144,-622 -72,-359 -350,-609 -303,-272 -813,-272 47,235 91,472 213,-16 372,122 122,109 144,225 31,166 -41,303 -75,131 -253,131 Q -22,-91 316,1669 616,3206 2609,4284 H 947 l 112,579 H 3778 L 3666,4284 Q 1181,3147 894,1669 647,397 1966,397 Z"
                 transform="scale(0.015625)"
                 inkscape:connector-curvature="0"
                 style="stroke-linecap:butt;stroke-linejoin:round" />
            </defs>
            <use
               xlink:href="#DejaVuSans-Oblique-3b6"
               transform="translate(0,0.015625)"
               id="use95"
               style="stroke-linecap:butt;stroke-linejoin:round"
               x="0"
               y="0"
               width="100%"
               height="100%" />
          </g>
        </g>
      </g>
      <g
         id="matplotlib.axis_2">
        <g
           id="ytick_1">
          <g
             id="line2d_9">
            <path
               d="M 86.701051 224.868834  L 334.769834 224.868834  "
               clip-path="url(#p62ebfcf31c)"
               style="fill: none; stroke: #b0b0b0; stroke-width: 0.8; stroke-linecap: round"
               id="path101" />
          </g>
          <g
             id="line2d_10">
            <defs
               id="defs105">
              <path
                 id="mfb3b90ef0e"
                 d="M 0 0  L -3.5 0  "
                 style="stroke: #000000; stroke-width: 0.8" />
            </defs>
            <g
               id="g109">
              <use
                 xlink:href="#mfb3b90ef0e"
                 x="86.701051"
                 y="224.868834"
                 style="stroke: #000000; stroke-width: 0.8"
                 id="use107" />
            </g>
          </g>
          <g
             id="text_6">
            <!-- 0 -->
            <g
               transform="translate(65.703551 233.227115) scale(0.22 -0.22)"
               id="g114">
              <use
                 xlink:href="#DejaVuSans-30"
                 id="use112" />
            </g>
          </g>
        </g>
        <g
           id="ytick_2">
          <g
             id="line2d_11">
            <path
               d="M 86.701051 156.401312  L 334.769834 156.401312  "
               clip-path="url(#p62ebfcf31c)"
               style="fill: none; stroke: #b0b0b0; stroke-width: 0.8; stroke-linecap: round"
               id="path118" />
          </g>
          <g
             id="line2d_12">
            <g
               id="g123">
              <use
                 xlink:href="#mfb3b90ef0e"
                 x="86.701051"
                 y="156.401312"
                 style="stroke: #000000; stroke-width: 0.8"
                 id="use121" />
            </g>
          </g>
          <g
             id="text_7">
            <!-- $2\pi/3$ -->
            <g
               transform="translate(30.861051 164.759594) scale(0.22 -0.22)"
               id="g138">
              <defs
                 id="defs128">
                <path
                   id="DejaVuSans-2f"
                   d="M 1625 4666  L 2156 4666  L 531 -594  L 0 -594  L 1625 4666  z "
                   transform="scale(0.015625)" />
                <path
                   id="DejaVuSans-33"
                   d="M 2597 2516  Q 3050 2419 3304 2112  Q 3559 1806 3559 1356  Q 3559 666 3084 287  Q 2609 -91 1734 -91  Q 1441 -91 1130 -33  Q 819 25 488 141  L 488 750  Q 750 597 1062 519  Q 1375 441 1716 441  Q 2309 441 2620 675  Q 2931 909 2931 1356  Q 2931 1769 2642 2001  Q 2353 2234 1838 2234  L 1294 2234  L 1294 2753  L 1863 2753  Q 2328 2753 2575 2939  Q 2822 3125 2822 3475  Q 2822 3834 2567 4026  Q 2313 4219 1838 4219  Q 1578 4219 1281 4162  Q 984 4106 628 3988  L 628 4550  Q 988 4650 1302 4700  Q 1616 4750 1894 4750  Q 2613 4750 3031 4423  Q 3450 4097 3450 3541  Q 3450 3153 3228 2886  Q 3006 2619 2597 2516  z "
                   transform="scale(0.015625)" />
              </defs>
              <use
                 xlink:href="#DejaVuSans-32"
                 transform="translate(0 0.78125)"
                 id="use130" />
              <use
                 xlink:href="#DejaVuSans-Oblique-3c0"
                 transform="translate(63.623047 0.78125)"
                 id="use132" />
              <use
                 xlink:href="#DejaVuSans-2f"
                 transform="translate(123.828125 0.78125)"
                 id="use134" />
              <use
                 xlink:href="#DejaVuSans-33"
                 transform="translate(157.519531 0.78125)"
                 id="use136" />
            </g>
          </g>
        </g>
        <g
           id="ytick_3">
          <g
             id="line2d_13">
            <path
               d="M 86.701051 87.933791  L 334.769834 87.933791  "
               clip-path="url(#p62ebfcf31c)"
               style="fill: none; stroke: #b0b0b0; stroke-width: 0.8; stroke-linecap: round"
               id="path142" />
          </g>
          <g
             id="line2d_14">
            <g
               id="g147">
              <use
                 xlink:href="#mfb3b90ef0e"
                 x="86.701051"
                 y="87.933791"
                 style="stroke: #000000; stroke-width: 0.8"
                 id="use145" />
            </g>
          </g>
          <g
             id="text_8">
            <!-- $4\pi/3$ -->
            <g
               transform="translate(30.861051 96.292072) scale(0.22 -0.22)"
               id="g158">
              <use
                 xlink:href="#DejaVuSans-34"
                 transform="translate(0 0.78125)"
                 id="use150" />
              <use
                 xlink:href="#DejaVuSans-Oblique-3c0"
                 transform="translate(63.623047 0.78125)"
                 id="use152" />
              <use
                 xlink:href="#DejaVuSans-2f"
                 transform="translate(123.828125 0.78125)"
                 id="use154" />
              <use
                 xlink:href="#DejaVuSans-33"
                 transform="translate(157.519531 0.78125)"
                 id="use156" />
            </g>
          </g>
        </g>
        <g
           id="ytick_4">
          <g
             id="line2d_15">
            <path
               d="M 86.701051 19.46627  L 334.769834 19.46627  "
               clip-path="url(#p62ebfcf31c)"
               style="fill: none; stroke: #b0b0b0; stroke-width: 0.8; stroke-linecap: round"
               id="path162" />
          </g>
          <g
             id="line2d_16">
            <g
               id="g167">
              <use
                 xlink:href="#mfb3b90ef0e"
                 x="86.701051"
                 y="19.46627"
                 style="stroke: #000000; stroke-width: 0.8"
                 id="use165" />
            </g>
          </g>
          <g
             id="text_9">
            <!-- $2\pi$ -->
            <g
               transform="translate(52.421051 27.824551) scale(0.22 -0.22)"
               id="g174">
              <use
                 xlink:href="#DejaVuSans-32"
                 transform="translate(0 0.78125)"
                 id="use170" />
              <use
                 xlink:href="#DejaVuSans-Oblique-3c0"
                 transform="translate(63.623047 0.78125)"
                 id="use172" />
            </g>
          </g>
        </g>
        <g
           id="text_10"
           transform="translate(12)"
           style="stroke-linecap:butt;stroke-linejoin:round">
          <!-- $\theta$ -->
          <g
             transform="matrix(0,-0.24,-0.24,0,27.869801,129.60755)"
             id="g183"
             style="stroke-linecap:butt;stroke-linejoin:round">
            <defs
               id="defs179">
              <path
                 id="DejaVuSans-Oblique-3b8"
                 d="M 2913,2219 H 925 q -134,-935 3,-1331 172,-488 638,-488 468,0 825,491 312,431 522,1328 z m 96,531 q 85,888 -25,1200 -171,494 -631,494 -478,0 -828,-488 -275,-393 -491,-1206 z m -565,2163 q 750,0 1050,-663 300,-659 72,-1828 Q 3341,1256 2781,594 2225,-72 1475,-72 722,-72 425,594 q -297,662 -72,1828 228,1169 781,1828 557,663 1310,663 z"
                 transform="scale(0.015625)"
                 inkscape:connector-curvature="0"
                 style="stroke-linecap:butt;stroke-linejoin:round" />
            </defs>
            <use
               xlink:href="#DejaVuSans-Oblique-3b8"
               transform="translate(0,0.234375)"
               id="use181"
               style="stroke-linecap:butt;stroke-linejoin:round"
               x="0"
               y="0"
               width="100%"
               height="100%" />
          </g>
        </g>
      </g>
      <g
         id="line2d_17">
        <path
           d="M 86.701051 224.868834  L 87.253235 224.868834  L 87.391281 224.525924  L 87.805419 224.525924  L 87.943466 224.183015  L 88.357604 224.183015  L 88.49565 223.840106  L 89.047834 223.840106  L 89.18588 223.497197  L 89.600018 223.497197  L 89.738064 223.154288  L 90.152203 223.154288  L 90.290249 222.811379  L 90.704387 222.811379  L 90.842433 222.46847  L 91.256571 222.46847  L 91.394617 222.125561  L 91.808755 222.125561  L 91.946801 221.782651  L 92.222894 221.782651  L 92.36094 221.439742  L 92.775078 221.439742  L 92.913124 221.096833  L 93.189216 221.096833  L 93.327262 220.753924  L 93.603354 220.753924  L 93.7414 220.411015  L 94.155539 220.411015  L 94.293585 220.068106  L 94.569677 220.068106  L 94.707723 219.725197  L 94.983815 219.725197  L 95.121861 219.382288  L 95.259907 219.382288  L 95.397953 219.039378  L 95.674045 219.039378  L 95.812091 218.696469  L 96.088184 218.696469  L 96.22623 218.35356  L 96.502322 218.35356  L 96.640368 218.010651  L 96.778414 218.010651  L 96.91646 217.667742  L 97.192552 217.667742  L 97.330598 217.324833  L 97.468644 217.324833  L 97.60669 216.981924  L 97.882782 216.981924  L 98.020828 216.639015  L 98.296921 216.639015  L 98.434967 216.296106  L 98.573013 216.296106  L 98.711059 215.953196  L 98.987151 215.953196  L 99.125197 215.610287  L 99.263243 215.610287  L 99.401289 215.267378  L 99.677381 215.267378  L 99.815427 214.924469  L 99.953473 214.924469  L 100.091519 214.58156  L 100.229566 214.58156  L 100.367612 214.238651  L 100.643704 214.238651  L 100.78175 213.895742  L 101.057842 213.895742  L 101.195888 213.552833  L 101.47198 213.552833  L 101.610026 213.209923  L 101.748072 213.209923  L 101.886118 212.867014  L 102.16221 212.867014  L 102.300257 212.524105  L 102.714395 212.524105  L 102.852441 212.181196  L 102.990487 212.181196  L 103.128533 211.838287  L 103.542671 211.838287  L 103.680717 211.495378  L 103.956809 211.495378  L 104.094855 211.152469  L 104.508994 211.152469  L 104.64704 210.80956  L 104.923132 210.80956  L 105.061178 210.46665  L 105.475316 210.46665  L 105.613362 210.123741  L 105.889454 210.123741  L 106.0275 209.780832  L 106.579685 209.780832  L 106.717731 209.437923  L 106.993823 209.437923  L 107.131869 209.095014  L 107.822099 209.095014  L 107.960145 208.752105  L 108.51233 208.752105  L 108.650376 208.409196  L 108.926468 208.409196  L 109.064514 208.066287  L 109.478652 208.066287  L 109.616698 207.723377  L 110.030836 207.723377  L 110.168882 207.380468  L 110.721067 207.380468  L 110.859113 207.037559  L 111.135205 207.037559  L 111.273251 206.69465  L 111.549343 206.69465  L 111.687389 206.351741  L 111.963481 206.351741  L 112.101527 206.008832  L 112.377619 206.008832  L 112.515666 205.665923  L 113.06785 205.665923  L 113.205896 205.323014  L 113.620034 205.323014  L 113.75808 204.980105  L 114.034172 204.980105  L 114.172218 204.637195  L 114.310264 204.637195  L 114.44831 204.294286  L 114.724403 204.294286  L 114.862449 203.951377  L 115.138541 203.951377  L 115.276587 203.608468  L 115.690725 203.608468  L 115.828771 203.265559  L 116.104863 203.265559  L 116.242909 202.92265  L 116.657048 202.92265  L 116.795094 202.579741  L 116.93314 202.579741  L 117.071186 202.236832  L 117.347278 202.236832  L 117.485324 201.893922  L 117.761416 201.893922  L 117.899462 201.551013  L 118.037508 201.551013  L 118.175554 201.208104  L 118.451646 201.208104  L 118.589692 200.865195  L 118.865785 200.865195  L 119.003831 200.522286  L 119.279923 200.522286  L 119.417969 200.179377  L 119.694061 200.179377  L 119.832107 199.836468  L 120.108199 199.836468  L 120.246245 199.493559  L 120.384291 199.493559  L 120.522337 199.150649  L 120.79843 199.150649  L 120.936476 198.80774  L 121.212568 198.80774  L 121.350614 198.464831  L 121.626706 198.464831  L 121.764752 198.121922  L 121.902798 198.121922  L 122.040844 197.779013  L 122.316936 197.779013  L 122.454982 197.436104  L 122.593028 197.436104  L 122.731074 197.093195  L 122.869121 197.093195  L 123.007167 196.750286  L 123.145213 196.750286  L 123.283259 196.407376  L 123.559351 196.407376  L 123.835443 195.721558  L 124.111535 195.721558  L 124.249581 195.378649  L 124.387627 195.378649  L 124.525673 195.03574  L 124.663719 195.03574  L 124.801766 194.692831  L 124.939812 194.692831  L 125.077858 194.349922  L 125.215904 194.349922  L 125.35395 194.007013  L 125.491996 194.007013  L 125.630042 193.664104  L 125.768088 193.664104  L 125.906134 193.321194  L 126.04418 193.321194  L 126.182226 192.978285  L 126.458318 192.978285  L 126.596364 192.635376  L 126.73441 192.635376  L 126.872457 192.292467  L 127.148549 192.292467  L 127.286595 191.949558  L 127.424641 191.949558  L 127.562687 191.606649  L 127.700733 191.606649  L 127.838779 191.26374  L 128.114871 191.26374  L 128.252917 190.920831  L 128.390963 190.920831  L 128.529009 190.577921  L 128.805101 190.577921  L 128.943148 190.235012  L 129.081194 190.235012  L 129.21924 189.892103  L 129.357286 189.892103  L 129.495332 189.549194  L 129.633378 189.549194  L 129.771424 189.206285  L 129.90947 189.206285  L 130.047516 188.863376  L 130.185562 188.863376  L 130.323608 188.520467  L 130.5997 188.520467  L 130.737746 188.177558  L 130.875792 188.177558  L 131.013839 187.834648  L 131.289931 187.834648  L 131.427977 187.491739  L 131.566023 187.491739  L 131.704069 187.14883  L 131.980161 187.14883  L 132.118207 186.805921  L 132.256253 186.805921  L 132.394299 186.463012  L 132.670391 186.463012  L 132.808437 186.120103  L 133.08453 186.120103  L 133.222576 185.777194  L 133.498668 185.777194  L 133.636714 185.434285  L 133.77476 185.434285  L 133.912806 185.091375  L 134.188898 185.091375  L 134.326944 184.748466  L 134.603036 184.748466  L 134.741082 184.405557  L 134.879128 184.405557  L 135.017174 184.062648  L 135.293267 184.062648  L 135.431313 183.719739  L 135.707405 183.719739  L 135.845451 183.37683  L 135.983497 183.37683  L 136.121543 183.033921  L 136.535681 183.033921  L 136.673727 182.691012  L 136.949819 182.691012  L 137.087865 182.348103  L 137.502004 182.348103  L 137.64005 182.005193  L 137.916142 182.005193  L 138.054188 181.662284  L 138.468326 181.662284  L 138.606372 181.319375  L 138.882464 181.319375  L 139.02051 180.976466  L 139.296603 180.976466  L 139.434649 180.633557  L 139.848787 180.633557  L 139.986833 180.290648  L 140.262925 180.290648  L 140.400971 179.947739  L 140.677063 179.947739  L 140.815109 179.60483  L 141.091201 179.60483  L 141.229248 179.26192  L 141.50534 179.26192  L 141.643386 178.919011  L 141.919478 178.919011  L 142.057524 178.576102  L 142.333616 178.576102  L 142.471662 178.233193  L 142.8858 178.233193  L 143.023846 177.890284  L 143.299939 177.890284  L 143.437985 177.547375  L 143.714077 177.547375  L 143.852123 177.204466  L 144.128215 177.204466  L 144.266261 176.861557  L 144.542353 176.861557  L 144.680399 176.518647  L 145.094537 176.518647  L 145.232583 176.175738  L 145.37063 176.175738  L 145.508676 175.832829  L 145.646722 175.832829  L 145.784768 175.48992  L 146.06086 175.48992  L 146.198906 175.147011  L 146.613044 175.147011  L 146.75109 174.804102  L 147.027182 174.804102  L 147.165228 174.461193  L 147.303274 174.461193  L 147.441321 174.118284  L 147.579367 174.118284  L 147.717413 173.775374  L 147.855459 173.775374  L 147.993505 173.432465  L 148.269597 173.432465  L 148.407643 173.089556  L 148.683735 173.089556  L 148.821781 172.746647  L 149.097873 172.746647  L 149.235919 172.403738  L 149.373965 172.403738  L 149.512012 172.060829  L 149.788104 172.060829  L 149.92615 171.71792  L 150.064196 171.71792  L 150.202242 171.375011  L 150.340288 171.375011  L 150.478334 171.032102  L 150.754426 171.032102  L 150.892472 170.689192  L 151.030518 170.689192  L 151.168564 170.346283  L 151.30661 170.346283  L 151.444656 170.003374  L 151.720749 170.003374  L 151.858795 169.660465  L 151.996841 169.660465  L 152.134887 169.317556  L 152.410979 169.317556  L 152.549025 168.974647  L 152.687071 168.974647  L 152.825117 168.631738  L 153.101209 168.631738  L 153.239255 168.288829  L 153.377301 168.288829  L 153.515347 167.945919  L 153.79144 167.945919  L 153.929486 167.60301  L 154.067532 167.60301  L 154.205578 167.260101  L 154.343624 167.260101  L 154.48167 166.917192  L 154.895808 166.917192  L 155.033854 166.574283  L 155.309946 166.574283  L 155.447992 166.231374  L 155.586039 166.231374  L 155.724085 165.888465  L 156.138223 165.888465  L 156.276269 165.545556  L 156.552361 165.545556  L 156.690407 165.202646  L 156.966499 165.202646  L 157.104545 164.859737  L 157.65673 164.859737  L 157.794776 164.516828  L 158.070868 164.516828  L 158.208914 164.173919  L 158.485006 164.173919  L 158.623052 163.83101  L 159.03719 163.83101  L 159.175236 163.488101  L 159.589374 163.488101  L 159.727421 163.145192  L 160.141559 163.145192  L 160.279605 162.802283  L 160.693743 162.802283  L 160.831789 162.459373  L 161.107881 162.459373  L 161.245927 162.116464  L 161.798112 162.116464  L 161.936158 161.773555  L 162.488342 161.773555  L 162.626388 161.430646  L 163.040526 161.430646  L 163.178572 161.087737  L 163.454664 161.087737  L 163.59271 160.744828  L 163.868803 160.744828  L 164.006849 160.401919  L 164.559033 160.401919  L 164.697079 160.05901  L 165.111217 160.05901  L 165.249263 159.716101  L 165.525355 159.716101  L 165.663401 159.373191  L 165.939494 159.373191  L 166.07754 159.030282  L 166.491678 159.030282  L 166.629724 158.687373  L 167.043862 158.687373  L 167.181908 158.344464  L 167.596046 158.344464  L 167.734092 158.001555  L 168.010185 158.001555  L 168.148231 157.658646  L 168.424323 157.658646  L 168.562369 157.315737  L 168.838461 157.315737  L 168.976507 156.972828  L 169.390645 156.972828  L 169.390645 156.972828  "
           clip-path="url(#p62ebfcf31c)"
           style="fill: none; stroke: #000000; stroke-width: 3; stroke-linecap: round"
           id="path187" />
      </g>
      <g
         id="line2d_18">
        <path
           d="M 169.390645 156.629918  L 169.804783 156.629918  L 169.942829 156.287009  L 170.356968 156.287009  L 170.495014 155.9441  L 170.771106 155.9441  L 170.909152 155.601191  L 171.185244 155.601191  L 171.32329 155.258282  L 171.599382 155.258282  L 171.737428 154.915373  L 172.013521 154.915373  L 172.151567 154.572464  L 172.427659 154.572464  L 172.565705 154.229555  L 172.841797 154.229555  L 172.979843 153.886645  L 173.255935 153.886645  L 173.393981 153.543736  L 173.670073 153.543736  L 173.808119 153.200827  L 174.084212 153.200827  L 174.222258 152.857918  L 174.49835 152.857918  L 174.636396 152.515009  L 174.912488 152.515009  L 175.050534 152.1721  L 175.18858 152.1721  L 175.326626 151.829191  L 175.602718 151.829191  L 175.740764 151.486282  L 176.016856 151.486282  L 176.154903 151.143372  L 176.292949 151.143372  L 176.430995 150.800463  L 176.707087 150.800463  L 176.845133 150.457554  L 177.121225 150.457554  L 177.259271 150.114645  L 177.535363 150.114645  L 177.673409 149.771736  L 177.811455 149.771736  L 177.949501 149.428827  L 178.225594 149.428827  L 178.36364 149.085918  L 178.777778 149.085918  L 178.915824 148.743009  L 179.191916 148.743009  L 179.329962 148.4001  L 179.468008 148.4001  L 179.606054 148.05719  L 179.882146 148.05719  L 180.020192 147.714281  L 180.158238 147.714281  L 180.296285 147.371372  L 180.572377 147.371372  L 180.710423 147.028463  L 181.124561 147.028463  L 181.262607 146.685554  L 181.676745 146.685554  L 181.814791 146.342645  L 182.090883 146.342645  L 182.228929 145.999736  L 182.366976 145.999736  L 182.505022 145.656827  L 183.195252 145.656827  L 183.333298 145.313917  L 183.747436 145.313917  L 183.885482 144.971008  L 184.713759 144.971008  L 184.851805 144.628099  L 185.127897 144.628099  L 185.265943 144.28519  L 185.956173 144.28519  L 186.094219 143.942281  L 186.508358 143.942281  L 186.646404 143.599372  L 187.060542 143.599372  L 187.198588 143.256463  L 187.47468 143.256463  L 187.612726 142.913554  L 188.026864 142.913554  L 188.16491 142.570644  L 188.441003 142.570644  L 188.579049 142.227735  L 188.855141 142.227735  L 188.993187 141.884826  L 189.131233 141.884826  L 189.269279 141.541917  L 189.683417 141.541917  L 189.821463 141.199008  L 190.097555 141.199008  L 190.235601 140.856099  L 190.373647 140.856099  L 190.511694 140.51319  L 190.787786 140.51319  L 190.925832 140.170281  L 191.201924 140.170281  L 191.33997 139.827371  L 191.478016 139.827371  L 191.616062 139.484462  L 191.892154 139.484462  L 192.0302 139.141553  L 192.444338 139.141553  L 192.582385 138.798644  L 192.858477 138.798644  L 192.996523 138.455735  L 193.134569 138.455735  L 193.272615 138.112826  L 193.548707 138.112826  L 193.686753 137.769917  L 193.824799 137.769917  L 193.962845 137.427008  L 194.376983 137.427008  L 194.515029 137.084099  L 194.791122 137.084099  L 194.929168 136.741189  L 195.20526 136.741189  L 195.343306 136.39828  L 195.619398 136.39828  L 195.757444 136.055371  L 196.033536 136.055371  L 196.171582 135.712462  L 196.447674 135.712462  L 196.58572 135.369553  L 196.861813 135.369553  L 196.999859 135.026644  L 197.275951 135.026644  L 197.413997 134.683735  L 197.690089 134.683735  L 197.828135 134.340826  L 198.104227 134.340826  L 198.242273 133.997916  L 198.518365 133.997916  L 198.656411 133.655007  L 198.932504 133.655007  L 199.07055 133.312098  L 199.208596 133.312098  L 199.346642 132.969189  L 199.622734 132.969189  L 199.76078 132.62628  L 200.174918 132.62628  L 200.312964 132.283371  L 200.589056 132.283371  L 200.727102 131.940462  L 201.003195 131.940462  L 201.141241 131.597553  L 201.417333 131.597553  L 201.555379 131.254643  L 201.831471 131.254643  L 201.969517 130.911734  L 202.245609 130.911734  L 202.383655 130.568825  L 202.521701 130.568825  L 202.659747 130.225916  L 202.93584 130.225916  L 203.073886 129.883007  L 203.211932 129.883007  L 203.349978 129.540098  L 203.62607 129.540098  L 203.764116 129.197189  L 204.040208 129.197189  L 204.178254 128.85428  L 204.454346 128.85428  L 204.592392 128.51137  L 204.730438 128.51137  L 204.868485 128.168461  L 205.144577 128.168461  L 205.282623 127.825552  L 205.558715 127.825552  L 205.696761 127.482643  L 205.834807 127.482643  L 205.972853 127.139734  L 206.248945 127.139734  L 206.386991 126.796825  L 206.525037 126.796825  L 206.663083 126.453916  L 206.939176 126.453916  L 207.077222 126.111007  L 207.215268 126.111007  L 207.353314 125.768098  L 207.49136 125.768098  L 207.629406 125.425188  L 207.905498 125.425188  L 208.043544 125.082279  L 208.18159 125.082279  L 208.319636 124.73937  L 208.457682 124.73937  L 208.595728 124.396461  L 208.87182 124.396461  L 209.009867 124.053552  L 209.147913 124.053552  L 209.285959 123.710643  L 209.424005 123.710643  L 209.562051 123.367734  L 209.700097 123.367734  L 209.838143 123.024825  L 210.114235 123.024825  L 210.252281 122.681915  L 210.390327 122.681915  L 210.528373 122.339006  L 210.804465 122.339006  L 210.942511 121.996097  L 211.080558 121.996097  L 211.218604 121.653188  L 211.494696 121.653188  L 211.632742 121.310279  L 211.770788 121.310279  L 211.908834 120.96737  L 212.04688 120.96737  L 212.184926 120.624461  L 212.461018 120.624461  L 212.599064 120.281552  L 212.73711 120.281552  L 212.875156 119.938642  L 213.013202 119.938642  L 213.151249 119.595733  L 213.427341 119.595733  L 213.565387 119.252824  L 213.703433 119.252824  L 213.841479 118.909915  L 213.979525 118.909915  L 214.117571 118.567006  L 214.393663 118.567006  L 214.531709 118.224097  L 214.669755 118.224097  L 214.807801 117.881188  L 214.945847 117.881188  L 215.083893 117.538279  L 215.359986 117.538279  L 215.498032 117.195369  L 215.636078 117.195369  L 215.774124 116.85246  L 216.050216 116.85246  L 216.188262 116.509551  L 216.326308 116.509551  L 216.464354 116.166642  L 216.740446 116.166642  L 216.878492 115.823733  L 217.016538 115.823733  L 217.154584 115.480824  L 217.430677 115.480824  L 217.568723 115.137915  L 217.706769 115.137915  L 217.844815 114.795006  L 218.120907 114.795006  L 218.258953 114.452097  L 218.535045 114.452097  L 218.673091 114.109187  L 218.949183 114.109187  L 219.087229 113.766278  L 219.363322 113.766278  L 219.501368 113.423369  L 219.77746 113.423369  L 219.915506 113.08046  L 220.191598 113.08046  L 220.329644 112.737551  L 220.605736 112.737551  L 220.743782 112.394642  L 221.019874 112.394642  L 221.15792 112.051733  L 221.295967 112.051733  L 221.434013 111.708824  L 221.710105 111.708824  L 221.848151 111.365914  L 222.124243 111.365914  L 222.262289 111.023005  L 222.676427 111.023005  L 222.814473 110.680096  L 223.090565 110.680096  L 223.228611 110.337187  L 223.504704 110.337187  L 223.64275 109.994278  L 223.918842 109.994278  L 224.056888 109.651369  L 224.471026 109.651369  L 224.609072 109.30846  L 224.885164 109.30846  L 225.02321 108.965551  L 225.299302 108.965551  L 225.437349 108.622641  L 225.713441 108.622641  L 225.851487 108.279732  L 225.989533 108.279732  L 226.127579 107.936823  L 226.403671 107.936823  L 226.541717 107.593914  L 226.817809 107.593914  L 226.955855 107.251005  L 227.093901 107.251005  L 227.231947 106.908096  L 227.50804 106.908096  L 227.646086 106.565187  L 227.922178 106.565187  L 228.060224 106.222278  L 228.474362 106.222278  L 228.612408 105.879368  L 228.8885 105.879368  L 229.026546 105.536459  L 229.164592 105.536459  L 229.302638 105.19355  L 229.440684 105.19355  L 229.578731 104.850641  L 229.992869 104.850641  L 230.130915 104.507732  L 230.407007 104.507732  L 230.545053 104.164823  L 230.683099 104.164823  L 230.821145 103.821914  L 231.097237 103.821914  L 231.235283 103.479005  L 231.649422 103.479005  L 231.787468 103.136096  L 231.925514 103.136096  L 232.06356 102.793186  L 232.201606 102.793186  L 232.339652 102.450277  L 232.75379 102.450277  L 232.891836 102.107368  L 233.167928 102.107368  L 233.305974 101.764459  L 233.44402 101.764459  L 233.582067 101.42155  L 233.858159 101.42155  L 233.996205 101.078641  L 234.410343 101.078641  L 234.548389 100.735732  L 235.100573 100.735732  L 235.238619 100.392823  L 235.652758 100.392823  L 235.790804 100.049913  L 236.481034 100.049913  L 236.61908 99.707004  L 237.171264 99.707004  L 237.30931 99.364095  L 237.861495 99.364095  L 237.999541 99.021186  L 238.551725 99.021186  L 238.689771 98.678277  L 238.965863 98.678277  L 239.103909 98.335368  L 239.656093 98.335368  L 239.79414 97.992459  L 240.070232 97.992459  L 240.208278 97.64955  L 240.48437 97.64955  L 240.622416 97.30664  L 240.760462 97.30664  L 240.898508 96.963731  L 241.312646 96.963731  L 241.450692 96.620822  L 241.726784 96.620822  L 241.864831 96.277913  L 242.140923 96.277913  L 242.278969 95.935004  L 242.555061 95.935004  L 242.693107 95.592095  L 242.831153 95.592095  L 242.969199 95.249186  L 243.245291 95.249186  L 243.383337 94.906277  L 243.521383 94.906277  L 243.659429 94.563367  L 243.935522 94.563367  L 244.073568 94.220458  L 244.211614 94.220458  L 244.34966 93.877549  L 244.625752 93.877549  L 244.763798 93.53464  L 245.03989 93.53464  L 245.177936 93.191731  L 245.454028 93.191731  L 245.592074 92.848822  L 245.868166 92.848822  L 246.006213 92.505913  L 246.144259 92.505913  L 246.282305 92.163004  L 246.558397 92.163004  L 246.696443 91.820094  L 246.972535 91.820094  L 247.110581 91.477185  L 247.386673 91.477185  L 247.524719 91.134276  L 247.800811 91.134276  L 247.938857 90.791367  L 248.076904 90.791367  L 248.21495 90.448458  L 248.629088 90.448458  L 248.767134 90.105549  L 249.043226 90.105549  L 249.181272 89.76264  L 249.457364 89.76264  L 249.59541 89.419731  L 250.009549 89.419731  L 250.147595 89.076822  L 250.423687 89.076822  L 250.561733 88.733912  L 250.975871 88.733912  L 251.113917 88.391003  L 251.390009 88.391003  L 251.528055 88.048094  L 251.804147 88.048094  L 251.942193 87.705185  L 252.08024 87.705185  L 252.08024 87.705185  "
           clip-path="url(#p62ebfcf31c)"
           style="fill: none; stroke: #000000; stroke-width: 3; stroke-linecap: round"
           id="path190" />
      </g>
      <g
         id="line2d_19">
        <path
           d="M 252.08024 87.705185  L 252.218286 87.362276  L 252.494378 87.362276  L 252.632424 87.019367  L 253.046562 87.019367  L 253.184608 86.676458  L 253.598746 86.676458  L 253.736792 86.333549  L 254.150931 86.333549  L 254.288977 85.990639  L 254.565069 85.990639  L 254.703115 85.64773  L 254.979207 85.64773  L 255.117253 85.304821  L 255.531391 85.304821  L 255.669437 84.961912  L 256.221622 84.961912  L 256.359668 84.619003  L 256.63576 84.619003  L 256.773806 84.276094  L 257.049898 84.276094  L 257.187944 83.933185  L 257.464036 83.933185  L 257.602082 83.590276  L 258.154266 83.590276  L 258.292313 83.247366  L 258.844497 83.247366  L 258.982543 82.904457  L 259.258635 82.904457  L 259.396681 82.561548  L 259.672773 82.561548  L 259.810819 82.218639  L 260.224957 82.218639  L 260.363004 81.87573  L 260.777142 81.87573  L 260.915188 81.532821  L 261.467372 81.532821  L 261.605418 81.189912  L 261.88151 81.189912  L 262.019556 80.847003  L 262.433695 80.847003  L 262.571741 80.504093  L 262.985879 80.504093  L 263.123925 80.161184  L 263.676109 80.161184  L 263.814155 79.818275  L 264.090247 79.818275  L 264.228293 79.475366  L 264.36634 79.475366  L 264.504386 79.132457  L 265.05657 79.132457  L 265.194616 78.789548  L 265.470708 78.789548  L 265.608754 78.446639  L 265.7468 78.446639  L 265.884846 78.10373  L 266.437031 78.10373  L 266.575077 77.760821  L 266.713123 77.760821  L 266.851169 77.417911  L 266.989215 77.417911  L 267.127261 77.075002  L 267.403353 77.075002  L 267.541399 76.732093  L 267.817491 76.732093  L 267.955537 76.389184  L 268.231629 76.389184  L 268.369675 76.046275  L 268.507722 76.046275  L 268.645768 75.703366  L 268.783814 75.703366  L 268.92186 75.360457  L 269.197952 75.360457  L 269.335998 75.017548  L 269.474044 75.017548  L 269.61209 74.674638  L 269.750136 74.674638  L 269.888182 74.331729  L 270.164274 74.331729  L 270.30232 73.98882  L 270.440366 73.98882  L 270.578413 73.645911  L 270.854505 73.645911  L 270.992551 73.303002  L 271.130597 73.303002  L 271.268643 72.960093  L 271.544735 72.960093  L 271.682781 72.617184  L 271.820827 72.617184  L 271.958873 72.274275  L 272.234965 72.274275  L 272.373011 71.931365  L 272.511057 71.931365  L 272.649104 71.588456  L 272.78715 71.588456  L 272.925196 71.245547  L 273.063242 71.245547  L 273.201288 70.902638  L 273.47738 70.902638  L 273.615426 70.559729  L 273.891518 70.559729  L 274.029564 70.21682  L 274.305656 70.21682  L 274.443702 69.873911  L 274.719795 69.873911  L 274.857841 69.531002  L 274.995887 69.531002  L 275.133933 69.188092  L 275.271979 69.188092  L 275.410025 68.845183  L 275.686117 68.845183  L 275.824163 68.502274  L 276.238301 68.502274  L 276.376347 68.159365  L 276.652439 68.159365  L 276.790486 67.816456  L 276.928532 67.816456  L 277.066578 67.473547  L 277.34267 67.473547  L 277.480716 67.130638  L 277.894854 67.130638  L 278.0329 66.787729  L 278.308992 66.787729  L 278.447038 66.44482  L 278.72313 66.44482  L 278.861177 66.10191  L 279.137269 66.10191  L 279.275315 65.759001  L 279.413361 65.759001  L 279.551407 65.416092  L 279.965545 65.416092  L 280.103591 65.073183  L 280.517729 65.073183  L 280.655775 64.730274  L 280.931868 64.730274  L 281.069914 64.387365  L 281.484052 64.387365  L 281.622098 64.044456  L 281.89819 64.044456  L 282.036236 63.701547  L 282.450374 63.701547  L 282.58842 63.358637  L 282.864513 63.358637  L 283.002559 63.015728  L 283.278651 63.015728  L 283.416697 62.672819  L 283.692789 62.672819  L 283.830835 62.32991  L 284.106927 62.32991  L 284.244973 61.987001  L 284.521065 61.987001  L 284.659111 61.644092  L 284.935204 61.644092  L 285.07325 61.301183  L 285.349342 61.301183  L 285.487388 60.958274  L 285.76348 60.958274  L 285.901526 60.615364  L 286.177618 60.615364  L 286.315664 60.272455  L 286.591756 60.272455  L 286.729802 59.929546  L 287.005895 59.929546  L 287.143941 59.586637  L 287.420033 59.586637  L 287.558079 59.243728  L 287.834171 59.243728  L 287.972217 58.900819  L 288.248309 58.900819  L 288.386355 58.55791  L 288.524401 58.55791  L 288.662447 58.215001  L 288.800493 58.215001  L 288.938539 57.872091  L 289.214632 57.872091  L 289.352678 57.529182  L 289.490724 57.529182  L 289.62877 57.186273  L 289.904862 57.186273  L 290.042908 56.843364  L 290.180954 56.843364  L 290.319 56.500455  L 290.595092 56.500455  L 290.733138 56.157546  L 290.871184 56.157546  L 291.00923 55.814637  L 291.147277 55.814637  L 291.285323 55.471728  L 291.561415 55.471728  L 291.699461 55.128819  L 291.837507 55.128819  L 291.975553 54.785909  L 292.113599 54.785909  L 292.251645 54.443  L 292.527737 54.443  L 292.665783 54.100091  L 292.803829 54.100091  L 292.941875 53.757182  L 293.079921 53.757182  L 293.217968 53.414273  L 293.632106 53.414273  L 293.770152 53.071364  L 293.908198 53.071364  L 294.046244 52.728455  L 294.18429 52.728455  L 294.322336 52.385546  L 294.460382 52.385546  L 294.598428 52.042636  L 294.736474 52.042636  L 294.87452 51.699727  L 295.012566 51.699727  L 295.150613 51.356818  L 295.288659 51.356818  L 295.426705 51.013909  L 295.564751 51.013909  L 295.702797 50.671  L 295.840843 50.671  L 295.978889 50.328091  L 296.254981 50.328091  L 296.393027 49.985182  L 296.531073 49.985182  L 296.669119 49.642273  L 296.945211 49.642273  L 297.083257 49.299363  L 297.221304 49.299363  L 297.35935 48.956454  L 297.497396 48.956454  L 297.773488 48.270636  L 297.911534 48.270636  L 298.04958 47.927727  L 298.325672 47.927727  L 298.463718 47.584818  L 298.601764 47.584818  L 298.73981 47.241909  L 299.015902 47.241909  L 299.153948 46.899  L 299.430041 46.899  L 299.568087 46.55609  L 299.706133 46.55609  L 299.844179 46.213181  L 299.982225 46.213181  L 300.120271 45.870272  L 300.396363 45.870272  L 300.534409 45.527363  L 300.672455 45.527363  L 300.810501 45.184454  L 301.086593 45.184454  L 301.224639 44.841545  L 301.362686 44.841545  L 301.500732 44.498636  L 301.776824 44.498636  L 301.91487 44.155727  L 302.190962 44.155727  L 302.329008 43.812818  L 302.467054 43.812818  L 302.6051 43.469908  L 302.881192 43.469908  L 303.019238 43.126999  L 303.29533 43.126999  L 303.433377 42.78409  L 303.847515 42.78409  L 303.985561 42.441181  L 304.261653 42.441181  L 304.399699 42.098272  L 304.675791 42.098272  L 304.813837 41.755363  L 305.089929 41.755363  L 305.227975 41.412454  L 305.504068 41.412454  L 305.642114 41.069545  L 305.78016 41.069545  L 305.918206 40.726635  L 306.194298 40.726635  L 306.332344 40.383726  L 306.746482 40.383726  L 306.884528 40.040817  L 307.16062 40.040817  L 307.298666 39.697908  L 307.712805 39.697908  L 307.850851 39.354999  L 308.126943 39.354999  L 308.264989 39.01209  L 308.541081 39.01209  L 308.679127 38.669181  L 308.955219 38.669181  L 309.093265 38.326272  L 309.507403 38.326272  L 309.64545 37.983362  L 310.059588 37.983362  L 310.197634 37.640453  L 310.611772 37.640453  L 310.749818 37.297544  L 311.163956 37.297544  L 311.302002 36.954635  L 311.578095 36.954635  L 311.716141 36.611726  L 312.130279 36.611726  L 312.268325 36.268817  L 312.820509 36.268817  L 312.958555 35.925908  L 313.372693 35.925908  L 313.510739 35.582999  L 313.786832 35.582999  L 313.924878 35.240089  L 314.339016 35.240089  L 314.477062 34.89718  L 315.029246 34.89718  L 315.167292 34.554271  L 315.58143 34.554271  L 315.719477 34.211362  L 316.133615 34.211362  L 316.271661 33.868453  L 316.823845 33.868453  L 316.961891 33.525544  L 317.099937 33.525544  L 317.237983 33.182635  L 317.790168 33.182635  L 317.928214 32.839726  L 318.06626 32.839726  L 318.204306 32.496817  L 318.618444 32.496817  L 318.75649 32.153907  L 318.894536 32.153907  L 319.032582 31.810998  L 319.308674 31.810998  L 319.44672 31.468089  L 319.860859 31.468089  L 319.998905 31.12518  L 320.136951 31.12518  L 320.274997 30.782271  L 320.413043 30.782271  L 320.551089 30.439362  L 320.827181 30.439362  L 320.965227 30.096453  L 321.241319 30.096453  L 321.379365 29.753544  L 321.655457 29.753544  L 321.793503 29.410634  L 321.93155 29.410634  L 322.069596 29.067725  L 322.345688 29.067725  L 322.483734 28.724816  L 322.62178 28.724816  L 322.759826 28.381907  L 323.035918 28.381907  L 323.173964 28.038998  L 323.31201 28.038998  L 323.450056 27.696089  L 323.726148 27.696089  L 323.864194 27.35318  L 324.002241 27.35318  L 324.140287 27.010271  L 324.416379 27.010271  L 324.554425 26.667361  L 324.830517 26.667361  L 324.968563 26.324452  L 325.106609 26.324452  L 325.244655 25.981543  L 325.520747 25.981543  L 325.658793 25.638634  L 325.934886 25.638634  L 326.072932 25.295725  L 326.349024 25.295725  L 326.48707 24.952816  L 326.763162 24.952816  L 326.901208 24.609907  L 327.1773 24.609907  L 327.315346 24.266998  L 327.591438 24.266998  L 327.729484 23.924088  L 328.005577 23.924088  L 328.143623 23.581179  L 328.557761 23.581179  L 328.695807 23.23827  L 328.971899 23.23827  L 329.109945 22.895361  L 329.386037 22.895361  L 329.524083 22.552452  L 329.938221 22.552452  L 330.076268 22.209543  L 330.35236 22.209543  L 330.490406 21.866634  L 330.904544 21.866634  L 331.04259 21.523725  L 331.456728 21.523725  L 331.594774 21.180816  L 332.008912 21.180816  L 332.146959 20.837906  L 332.561097 20.837906  L 332.699143 20.494997  L 333.113281 20.494997  L 333.251327 20.152088  L 333.665465 20.152088  L 333.803511 19.809179  L 334.21765 19.809179  L 334.355696 19.46627  L 334.769834 19.46627  L 334.769834 19.46627  "
           clip-path="url(#p62ebfcf31c)"
           style="fill: none; stroke: #000000; stroke-width: 3; stroke-linecap: round"
           id="path193" />
      </g>
      <g
         id="line2d_20">
        <path
           d="M 86.701051 224.868834  L 91.256571 220.300557  L 93.7414 218.132148  L 95.812091 216.635393  L 97.882782 215.454932  L 99.953473 214.558527  L 102.438303 213.761693  L 107.822099 212.235164  L 109.478652 211.481859  L 111.135205 210.481406  L 113.205896 208.907434  L 115.276587 207.022869  L 117.761416 204.405542  L 125.215904 195.893517  L 130.5997 189.587381  L 135.569359 183.4033  L 139.710741 178.289691  L 141.367294 176.560015  L 142.609708 175.500835  L 143.852123 174.67392  L 145.094537 174.063014  L 146.75109 173.501312  L 153.377301 171.634222  L 155.447992 170.657589  L 157.518683 169.434091  L 160.003513 167.664291  L 162.488342 165.598979  L 164.973171 163.259599  L 168.286277 159.791347  L 174.49835 153.131792  L 176.983179 150.885646  L 179.05387 149.30639  L 181.124561 147.982038  L 183.60939 146.659716  L 187.336634 144.981601  L 192.720431 142.559976  L 194.791122 141.408904  L 196.447674 140.252469  L 198.104227 138.809463  L 200.174918 136.628539  L 202.659747 133.653031  L 213.427341 120.358598  L 220.053552 112.54315  L 222.538381 109.923892  L 224.609072 108.047572  L 226.679763 106.511374  L 229.164592 104.984978  L 233.720113 102.515484  L 239.518047 99.39561  L 242.002877 97.803406  L 244.073568 96.231197  L 246.144259 94.393057  L 248.629088 91.875366  L 257.32599 82.697983  L 260.224957 80.133858  L 262.709787 78.202864  L 264.780478 76.823201  L 266.851169 75.698197  L 268.92186 74.861334  L 270.992551 74.317207  L 273.47738 73.953908  L 275.962209 73.55429  L 277.204624 73.143779  L 278.447038 72.474411  L 279.689453 71.488858  L 280.931868 70.189616  L 282.58842 68.096275  L 290.042908 58.161907  L 293.770152 53.743338  L 298.73981 48.243087  L 305.366021 41.189377  L 307.850851 38.902728  L 309.921542 37.263835  L 311.992233 35.921015  L 314.062924 34.90126  L 316.547753 33.994691  L 321.93155 32.170247  L 324.002241 31.201953  L 325.658793 30.218972  L 327.315346 29.019774  L 329.386037 27.232937  L 332.285005 24.36439  L 334.769834 21.776382  L 334.769834 21.776382  "
           clip-path="url(#p62ebfcf31c)"
           style="fill:none;stroke-dasharray:9,9;stroke-dashoffset:0;stroke:#ea42ea;stroke-width:3;stroke-linecap:round;stroke-opacity:1;stroke-miterlimit:4"
           id="path196" />
      </g>
      <g
         id="patch_3">
        <path
           d="M 86.701051 224.868834  L 86.701051 19.46627  "
           style="fill: none; stroke: #000000; stroke-width: 0.8; stroke-linejoin: miter; stroke-linecap: square"
           id="path199" />
      </g>
      <g
         id="patch_4">
        <path
           d="M 86.701051 224.868834  L 334.769834 224.868834  "
           style="fill: none; stroke: #000000; stroke-width: 0.8; stroke-linejoin: miter; stroke-linecap: square"
           id="path202" />
      </g>
      <g
         id="legend_1">
        <g
           id="patch_5"
           transform="matrix(1,0,0,0.77776688,0,0.5483811)"
           style="stroke-linecap:butt;stroke-linejoin:round">
          <path
             d="M 100.70105,94.17877 H 293.5823 q 4,0 4,-4 v -56.7125 q 0,-4 -4,-4 H 100.70105 q -3.999999,0 -3.999999,4 v 56.7125 q 0,4 3.999999,4 z"
             style="opacity:0.5;fill:#ffffff;stroke:#cccccc;stroke-linecap:butt;stroke-linejoin:miter"
             id="path205"
             inkscape:connector-curvature="0" />
        </g>
        <g
           id="line2d_21"
           transform="translate(-1.5,-9)"
           style="stroke-linecap:butt;stroke-linejoin:round">
          <path
             d="m 104.70105,45.663145 h 20 20"
             style="fill:none;stroke:#000000;stroke-width:3;stroke-linecap:round;stroke-linejoin:round"
             id="path208"
             inkscape:connector-curvature="0" />
        </g>
        <g
           id="text_11"
           transform="translate(0,-4.5)"
           style="stroke-linecap:butt;stroke-linejoin:round">
          <!-- field line -->
          <g
             transform="matrix(0.2,0,0,-0.2,151.70105,46.663145)"
             id="g240"
             style="stroke-linecap:butt;stroke-linejoin:round">
            <defs
               id="defs218">
              <path
                 id="DejaVuSans-66"
                 d="m 2375,4863 v -479 h -550 q -309,0 -430,-125 -120,-125 -120,-450 v -309 h 947 V 3053 H 1275 V 0 H 697 V 3053 H 147 v 447 h 550 v 244 q 0,584 272,851 272,268 862,268 z"
                 transform="scale(0.015625)"
                 inkscape:connector-curvature="0"
                 style="stroke-linecap:butt;stroke-linejoin:round" />
              <path
                 id="DejaVuSans-69"
                 d="m 603,3500 h 575 V 0 H 603 Z m 0,1363 h 575 V 4134 H 603 Z"
                 transform="scale(0.015625)"
                 inkscape:connector-curvature="0"
                 style="stroke-linecap:butt;stroke-linejoin:round" />
              <path
                 id="DejaVuSans-65"
                 d="M 3597,1894 V 1613 H 953 q 38,-594 358,-905 320,-311 892,-311 331,0 642,81 311,81 618,244 V 178 Q 3153,47 2828,-22 2503,-91 2169,-91 1331,-91 842,396 353,884 353,1716 q 0,859 464,1363 464,505 1252,505 706,0 1117,-455 411,-454 411,-1235 z m -575,169 q -6,471 -264,752 -258,282 -683,282 -481,0 -770,-272 -289,-272 -333,-766 z"
                 transform="scale(0.015625)"
                 inkscape:connector-curvature="0"
                 style="stroke-linecap:butt;stroke-linejoin:round" />
              <path
                 id="DejaVuSans-6c"
                 d="m 603,4863 h 575 V 0 H 603 Z"
                 transform="scale(0.015625)"
                 inkscape:connector-curvature="0"
                 style="stroke-linecap:butt;stroke-linejoin:round" />
              <path
                 id="DejaVuSans-64"
                 d="m 2906,2969 v 1894 h 575 V 0 H 2906 V 525 Q 2725,213 2448,61 2172,-91 1784,-91 1150,-91 751,415 353,922 353,1747 q 0,825 398,1331 399,506 1033,506 388,0 664,-152 277,-151 458,-463 z M 947,1747 q 0,-634 261,-995 261,-361 717,-361 456,0 718,361 263,361 263,995 0,634 -263,995 -262,361 -718,361 -456,0 -717,-361 -261,-361 -261,-995 z"
                 transform="scale(0.015625)"
                 inkscape:connector-curvature="0"
                 style="stroke-linecap:butt;stroke-linejoin:round" />
              <path
                 id="DejaVuSans-20"
                 transform="scale(0.015625)"
                 d=""
                 inkscape:connector-curvature="0"
                 style="stroke-linecap:butt;stroke-linejoin:round" />
              <path
                 id="DejaVuSans-6e"
                 d="M 3513,2113 V 0 h -575 v 2094 q 0,497 -194,743 -194,247 -581,247 -466,0 -735,-297 -269,-296 -269,-809 V 0 H 581 v 3500 h 578 v -544 q 207,316 486,472 280,156 646,156 603,0 912,-373 310,-373 310,-1098 z"
                 transform="scale(0.015625)"
                 inkscape:connector-curvature="0"
                 style="stroke-linecap:butt;stroke-linejoin:round" />
            </defs>
            <use
               xlink:href="#DejaVuSans-66"
               id="use220"
               style="stroke-linecap:butt;stroke-linejoin:round"
               x="0"
               y="0"
               width="100%"
               height="100%" />
            <use
               xlink:href="#DejaVuSans-69"
               x="35.205078"
               id="use222"
               style="stroke-linecap:butt;stroke-linejoin:round"
               y="0"
               width="100%"
               height="100%" />
            <use
               xlink:href="#DejaVuSans-65"
               x="62.988281"
               id="use224"
               style="stroke-linecap:butt;stroke-linejoin:round"
               y="0"
               width="100%"
               height="100%" />
            <use
               xlink:href="#DejaVuSans-6c"
               x="124.51172"
               id="use226"
               style="stroke-linecap:butt;stroke-linejoin:round"
               y="0"
               width="100%"
               height="100%" />
            <use
               xlink:href="#DejaVuSans-64"
               x="152.29492"
               id="use228"
               style="stroke-linecap:butt;stroke-linejoin:round"
               y="0"
               width="100%"
               height="100%" />
            <use
               xlink:href="#DejaVuSans-20"
               x="215.77148"
               id="use230"
               style="stroke-linecap:butt;stroke-linejoin:round"
               y="0"
               width="100%"
               height="100%" />
            <use
               xlink:href="#DejaVuSans-6c"
               x="247.55859"
               id="use232"
               style="stroke-linecap:butt;stroke-linejoin:round"
               y="0"
               width="100%"
               height="100%" />
            <use
               xlink:href="#DejaVuSans-69"
               x="275.3418"
               id="use234"
               style="stroke-linecap:butt;stroke-linejoin:round"
               y="0"
               width="100%"
               height="100%" />
            <use
               xlink:href="#DejaVuSans-6e"
               x="303.125"
               id="use236"
               style="stroke-linecap:butt;stroke-linejoin:round"
               y="0"
               width="100%"
               height="100%" />
            <use
               xlink:href="#DejaVuSans-65"
               x="366.50391"
               id="use238"
               style="stroke-linecap:butt;stroke-linejoin:round"
               y="0"
               width="100%"
               height="100%" />
          </g>
        </g>
        <g
           id="line2d_22"
           style="stroke:#ff24e4;stroke-linecap:butt;stroke-linejoin:round;stroke-opacity:1"
           transform="translate(0,-15)">
          <path
             d="m 104.70105,75.019395 h 20 20"
             style="fill:none;stroke:#ff24e4;stroke-width:3;stroke-linecap:round;stroke-linejoin:round;stroke-miterlimit:4;stroke-dasharray:12, 12;stroke-dashoffset:0;stroke-opacity:1"
             id="path243"
             inkscape:connector-curvature="0" />
        </g>
        <g
           id="text_12"
           transform="translate(-13.5,-15)"
           style="stroke-linecap:butt;stroke-linejoin:round">
          <!-- umbilic edge -->
          <g
             transform="matrix(0.2,0,0,-0.2,160.70105,82.019395)"
             id="g277"
             style="stroke-linecap:butt;stroke-linejoin:round">
            <defs
               id="defs251">
              <path
                 id="DejaVuSans-75"
                 d="m 544,1381 v 2119 h 575 V 1403 q 0,-497 193,-746 194,-248 582,-248 465,0 735,297 271,297 271,810 v 1984 h 575 V 0 H 2900 V 538 Q 2691,219 2414,64 2138,-91 1772,-91 1169,-91 856,284 544,659 544,1381 Z m 1447,2203 z"
                 transform="scale(0.015625)"
                 inkscape:connector-curvature="0"
                 style="stroke-linecap:butt;stroke-linejoin:round" />
              <path
                 id="DejaVuSans-6d"
                 d="m 3328,2828 q 216,388 516,572 300,184 706,184 547,0 844,-383 297,-382 297,-1088 V 0 h -578 v 2094 q 0,503 -179,746 -178,244 -543,244 -447,0 -707,-297 -259,-296 -259,-809 V 0 h -578 v 2094 q 0,506 -178,748 -178,242 -550,242 -441,0 -701,-298 -259,-298 -259,-808 V 0 H 581 v 3500 h 578 v -544 q 197,322 472,475 275,153 653,153 382,0 649,-194 267,-193 395,-562 z"
                 transform="scale(0.015625)"
                 inkscape:connector-curvature="0"
                 style="stroke-linecap:butt;stroke-linejoin:round" />
              <path
                 id="DejaVuSans-62"
                 d="m 3116,1747 q 0,634 -261,995 -261,361 -717,361 -457,0 -718,-361 -261,-361 -261,-995 0,-634 261,-995 261,-361 718,-361 456,0 717,361 261,361 261,995 z M 1159,2969 q 182,312 458,463 277,152 661,152 638,0 1036,-506 399,-506 399,-1331 Q 3713,922 3314,415 2916,-91 2278,-91 1894,-91 1617,61 1341,213 1159,525 V 0 H 581 v 4863 h 578 z"
                 transform="scale(0.015625)"
                 inkscape:connector-curvature="0"
                 style="stroke-linecap:butt;stroke-linejoin:round" />
              <path
                 id="DejaVuSans-63"
                 d="m 3122,3366 v -538 q -244,135 -489,202 -245,67 -495,67 -560,0 -870,-355 -309,-354 -309,-995 0,-641 309,-996 310,-354 870,-354 250,0 495,67 245,67 489,202 V 134 Q 2881,22 2623,-34 2366,-91 2075,-91 1284,-91 818,406 353,903 353,1747 q 0,856 470,1346 471,491 1290,491 265,0 518,-55 253,-54 491,-163 z"
                 transform="scale(0.015625)"
                 inkscape:connector-curvature="0"
                 style="stroke-linecap:butt;stroke-linejoin:round" />
              <path
                 id="DejaVuSans-67"
                 d="m 2906,1791 q 0,625 -258,968 -257,344 -723,344 -462,0 -720,-344 -258,-343 -258,-968 0,-622 258,-966 258,-344 720,-344 466,0 723,344 258,344 258,966 z M 3481,434 q 0,-893 -397,-1329 -396,-436 -1215,-436 -303,0 -572,45 -269,45 -522,139 v 559 q 253,-137 500,-202 247,-66 503,-66 566,0 847,295 281,295 281,892 V 616 Q 2728,306 2450,153 2172,0 1784,0 1141,0 747,490 353,981 353,1791 q 0,812 394,1302 394,491 1037,491 388,0 666,-153 278,-153 456,-462 v 531 h 575 z"
                 transform="scale(0.015625)"
                 inkscape:connector-curvature="0"
                 style="stroke-linecap:butt;stroke-linejoin:round" />
            </defs>
            <use
               xlink:href="#DejaVuSans-75"
               id="use253"
               style="stroke-linecap:butt;stroke-linejoin:round"
               x="0"
               y="0"
               width="100%"
               height="100%" />
            <use
               xlink:href="#DejaVuSans-6d"
               x="63.378906"
               id="use255"
               style="stroke-linecap:butt;stroke-linejoin:round"
               y="0"
               width="100%"
               height="100%" />
            <use
               xlink:href="#DejaVuSans-62"
               x="160.79102"
               id="use257"
               style="stroke-linecap:butt;stroke-linejoin:round"
               y="0"
               width="100%"
               height="100%" />
            <use
               xlink:href="#DejaVuSans-69"
               x="224.26758"
               id="use259"
               style="stroke-linecap:butt;stroke-linejoin:round"
               y="0"
               width="100%"
               height="100%" />
            <use
               xlink:href="#DejaVuSans-6c"
               x="252.05078"
               id="use261"
               style="stroke-linecap:butt;stroke-linejoin:round"
               y="0"
               width="100%"
               height="100%" />
            <use
               xlink:href="#DejaVuSans-69"
               x="279.83398"
               id="use263"
               style="stroke-linecap:butt;stroke-linejoin:round"
               y="0"
               width="100%"
               height="100%" />
            <use
               xlink:href="#DejaVuSans-63"
               x="307.61719"
               id="use265"
               style="stroke-linecap:butt;stroke-linejoin:round"
               y="0"
               width="100%"
               height="100%" />
            <use
               xlink:href="#DejaVuSans-20"
               x="362.59766"
               id="use267"
               style="stroke-linecap:butt;stroke-linejoin:round"
               y="0"
               width="100%"
               height="100%" />
            <use
               xlink:href="#DejaVuSans-65"
               x="394.38477"
               id="use269"
               style="stroke-linecap:butt;stroke-linejoin:round"
               y="0"
               width="100%"
               height="100%" />
            <use
               xlink:href="#DejaVuSans-64"
               x="455.9082"
               id="use271"
               style="stroke-linecap:butt;stroke-linejoin:round"
               y="0"
               width="100%"
               height="100%" />
            <use
               xlink:href="#DejaVuSans-67"
               x="519.38477"
               id="use273"
               style="stroke-linecap:butt;stroke-linejoin:round"
               y="0"
               width="100%"
               height="100%" />
            <use
               xlink:href="#DejaVuSans-65"
               x="582.86133"
               id="use275"
               style="stroke-linecap:butt;stroke-linejoin:round"
               y="0"
               width="100%"
               height="100%" />
          </g>
        </g>
      </g>
    </g>
  </g>
  <defs
     id="defs286">
    <clipPath
       id="p62ebfcf31c">
      <rect
         x="86.701051"
         y="19.46627"
         width="248.068783"
         height="205.402564"
         id="rect283" />
    </clipPath>
  </defs>
</svg>
