<?xml version="1.0" encoding="UTF-8" standalone="no"?>
<svg
   xmlns:dc="http://purl.org/dc/elements/1.1/"
   xmlns:cc="http://creativecommons.org/ns#"
   xmlns:rdf="http://www.w3.org/1999/02/22-rdf-syntax-ns#"
   xmlns:svg="http://www.w3.org/2000/svg"
   xmlns="http://www.w3.org/2000/svg"
   xmlns:xlink="http://www.w3.org/1999/xlink"
   xmlns:sodipodi="http://sodipodi.sourceforge.net/DTD/sodipodi-0.dtd"
   xmlns:inkscape="http://www.inkscape.org/namespaces/inkscape"
   width="432pt"
   height="288pt"
   viewBox="0 0 432 288"
   version="1.1"
   id="svg281"
   sodipodi:docname="poincare-cross-section_4100.svg"
   inkscape:version="0.92.5 (2060ec1f9f, 2020-04-08)">
  <sodipodi:namedview
     pagecolor="#ffffff"
     bordercolor="#666666"
     borderopacity="1"
     objecttolerance="10"
     gridtolerance="10"
     guidetolerance="10"
     inkscape:pageopacity="0"
     inkscape:pageshadow="2"
     inkscape:window-width="2972"
     inkscape:window-height="2160"
     id="namedview283"
     showgrid="false"
     inkscape:zoom="1.7383041"
     inkscape:cx="174.24932"
     inkscape:cy="192"
     inkscape:window-x="0"
     inkscape:window-y="0"
     inkscape:window-maximized="0"
     inkscape:current-layer="axes_1" />
  <metadata
     id="metadata2">
    <rdf:RDF>
      <cc:Work>
        <dc:type
           rdf:resource="http://purl.org/dc/dcmitype/StillImage" />
        <dc:date>2025-05-04T23:41:39.249671</dc:date>
        <dc:format>image/svg+xml</dc:format>
        <dc:creator>
          <cc:Agent>
            <dc:title>Matplotlib v3.9.2, https://matplotlib.org/</dc:title>
          </cc:Agent>
        </dc:creator>
        <dc:title></dc:title>
      </cc:Work>
    </rdf:RDF>
  </metadata>
  <defs
     id="defs6">
    <style
       type="text/css"
       id="style4">*{stroke-linejoin: round; stroke-linecap: butt}</style>
  </defs>
  <g
     id="figure_1">
    <g
       id="patch_1">
      <path
         d="M 0 288  L 432 288  L 432 0  L 0 0  z "
         style="fill: #ffffff"
         id="path8" />
    </g>
    <g
       id="axes_1">
      <g
         id="patch_2">
        <path
           d="M 96.774375 223.61625  L 398.934375 223.61625  L 398.934375 18.398437  L 96.774375 18.398437  z "
           style="fill: #ffffff"
           id="path11" />
      </g>
      <g
         id="matplotlib.axis_1">
        <g
           id="xtick_1">
          <g
             id="line2d_1">
            <defs
               id="defs15">
              <path
                 id="m8ab4095ffd"
                 d="M 0 0  L 0 3.5  "
                 style="stroke: #000000; stroke-width: 0.8" />
            </defs>
            <g
               id="g19">
              <use
                 xlink:href="#m8ab4095ffd"
                 x="96.774375"
                 y="223.61625"
                 style="stroke: #000000; stroke-width: 0.8"
                 id="use17" />
            </g>
          </g>
          <g
             id="text_1">
            <!-- 0.75 -->
            <g
               transform="translate(74.50875 245.813125) scale(0.2 -0.2)"
               id="g36">
              <defs
                 id="defs26">
                <path
                   id="DejaVuSans-30"
                   d="M 2034 4250  Q 1547 4250 1301 3770  Q 1056 3291 1056 2328  Q 1056 1369 1301 889  Q 1547 409 2034 409  Q 2525 409 2770 889  Q 3016 1369 3016 2328  Q 3016 3291 2770 3770  Q 2525 4250 2034 4250  z M 2034 4750  Q 2819 4750 3233 4129  Q 3647 3509 3647 2328  Q 3647 1150 3233 529  Q 2819 -91 2034 -91  Q 1250 -91 836 529  Q 422 1150 422 2328  Q 422 3509 836 4129  Q 1250 4750 2034 4750  z "
                   transform="scale(0.015625)" />
                <path
                   id="DejaVuSans-2e"
                   d="M 684 794  L 1344 794  L 1344 0  L 684 0  L 684 794  z "
                   transform="scale(0.015625)" />
                <path
                   id="DejaVuSans-37"
                   d="M 525 4666  L 3525 4666  L 3525 4397  L 1831 0  L 1172 0  L 2766 4134  L 525 4134  L 525 4666  z "
                   transform="scale(0.015625)" />
                <path
                   id="DejaVuSans-35"
                   d="M 691 4666  L 3169 4666  L 3169 4134  L 1269 4134  L 1269 2991  Q 1406 3038 1543 3061  Q 1681 3084 1819 3084  Q 2600 3084 3056 2656  Q 3513 2228 3513 1497  Q 3513 744 3044 326  Q 2575 -91 1722 -91  Q 1428 -91 1123 -41  Q 819 9 494 109  L 494 744  Q 775 591 1075 516  Q 1375 441 1709 441  Q 2250 441 2565 725  Q 2881 1009 2881 1497  Q 2881 1984 2565 2268  Q 2250 2553 1709 2553  Q 1456 2553 1204 2497  Q 953 2441 691 2322  L 691 4666  z "
                   transform="scale(0.015625)" />
              </defs>
              <use
                 xlink:href="#DejaVuSans-30"
                 id="use28" />
              <use
                 xlink:href="#DejaVuSans-2e"
                 x="63.623047"
                 id="use30" />
              <use
                 xlink:href="#DejaVuSans-37"
                 x="95.410156"
                 id="use32" />
              <use
                 xlink:href="#DejaVuSans-35"
                 x="159.033203"
                 id="use34" />
            </g>
          </g>
        </g>
        <g
           id="xtick_2">
          <g
             id="line2d_2">
            <g
               id="g42">
              <use
                 xlink:href="#m8ab4095ffd"
                 x="172.314375"
                 y="223.61625"
                 style="stroke: #000000; stroke-width: 0.8"
                 id="use40" />
            </g>
          </g>
          <g
             id="text_2">
            <!-- 0.88 -->
            <g
               transform="translate(150.04875 245.813125) scale(0.2 -0.2)"
               id="g56">
              <defs
                 id="defs46">
                <path
                   id="DejaVuSans-38"
                   d="M 2034 2216  Q 1584 2216 1326 1975  Q 1069 1734 1069 1313  Q 1069 891 1326 650  Q 1584 409 2034 409  Q 2484 409 2743 651  Q 3003 894 3003 1313  Q 3003 1734 2745 1975  Q 2488 2216 2034 2216  z M 1403 2484  Q 997 2584 770 2862  Q 544 3141 544 3541  Q 544 4100 942 4425  Q 1341 4750 2034 4750  Q 2731 4750 3128 4425  Q 3525 4100 3525 3541  Q 3525 3141 3298 2862  Q 3072 2584 2669 2484  Q 3125 2378 3379 2068  Q 3634 1759 3634 1313  Q 3634 634 3220 271  Q 2806 -91 2034 -91  Q 1263 -91 848 271  Q 434 634 434 1313  Q 434 1759 690 2068  Q 947 2378 1403 2484  z M 1172 3481  Q 1172 3119 1398 2916  Q 1625 2713 2034 2713  Q 2441 2713 2670 2916  Q 2900 3119 2900 3481  Q 2900 3844 2670 4047  Q 2441 4250 2034 4250  Q 1625 4250 1398 4047  Q 1172 3844 1172 3481  z "
                   transform="scale(0.015625)" />
              </defs>
              <use
                 xlink:href="#DejaVuSans-30"
                 id="use48" />
              <use
                 xlink:href="#DejaVuSans-2e"
                 x="63.623047"
                 id="use50" />
              <use
                 xlink:href="#DejaVuSans-38"
                 x="95.410156"
                 id="use52" />
              <use
                 xlink:href="#DejaVuSans-38"
                 x="159.033203"
                 id="use54" />
            </g>
          </g>
        </g>
        <g
           id="xtick_3">
          <g
             id="line2d_3">
            <g
               id="g62">
              <use
                 xlink:href="#m8ab4095ffd"
                 x="247.854375"
                 y="223.61625"
                 style="stroke: #000000; stroke-width: 0.8"
                 id="use60" />
            </g>
          </g>
          <g
             id="text_3">
            <!-- 1.00 -->
            <g
               transform="translate(225.58875 245.813125) scale(0.2 -0.2)"
               id="g76">
              <defs
                 id="defs66">
                <path
                   id="DejaVuSans-31"
                   d="M 794 531  L 1825 531  L 1825 4091  L 703 3866  L 703 4441  L 1819 4666  L 2450 4666  L 2450 531  L 3481 531  L 3481 0  L 794 0  L 794 531  z "
                   transform="scale(0.015625)" />
              </defs>
              <use
                 xlink:href="#DejaVuSans-31"
                 id="use68" />
              <use
                 xlink:href="#DejaVuSans-2e"
                 x="63.623047"
                 id="use70" />
              <use
                 xlink:href="#DejaVuSans-30"
                 x="95.410156"
                 id="use72" />
              <use
                 xlink:href="#DejaVuSans-30"
                 x="159.033203"
                 id="use74" />
            </g>
          </g>
        </g>
        <g
           id="xtick_4">
          <g
             id="line2d_4">
            <g
               id="g82">
              <use
                 xlink:href="#m8ab4095ffd"
                 x="323.394375"
                 y="223.61625"
                 style="stroke: #000000; stroke-width: 0.8"
                 id="use80" />
            </g>
          </g>
          <g
             id="text_4">
            <!-- 1.12 -->
            <g
               transform="translate(301.12875 245.813125) scale(0.2 -0.2)"
               id="g96">
              <defs
                 id="defs86">
                <path
                   id="DejaVuSans-32"
                   d="M 1228 531  L 3431 531  L 3431 0  L 469 0  L 469 531  Q 828 903 1448 1529  Q 2069 2156 2228 2338  Q 2531 2678 2651 2914  Q 2772 3150 2772 3378  Q 2772 3750 2511 3984  Q 2250 4219 1831 4219  Q 1534 4219 1204 4116  Q 875 4013 500 3803  L 500 4441  Q 881 4594 1212 4672  Q 1544 4750 1819 4750  Q 2544 4750 2975 4387  Q 3406 4025 3406 3419  Q 3406 3131 3298 2873  Q 3191 2616 2906 2266  Q 2828 2175 2409 1742  Q 1991 1309 1228 531  z "
                   transform="scale(0.015625)" />
              </defs>
              <use
                 xlink:href="#DejaVuSans-31"
                 id="use88" />
              <use
                 xlink:href="#DejaVuSans-2e"
                 x="63.623047"
                 id="use90" />
              <use
                 xlink:href="#DejaVuSans-31"
                 x="95.410156"
                 id="use92" />
              <use
                 xlink:href="#DejaVuSans-32"
                 x="159.033203"
                 id="use94" />
            </g>
          </g>
        </g>
        <g
           id="xtick_5">
          <g
             id="line2d_5">
            <g
               id="g102">
              <use
                 xlink:href="#m8ab4095ffd"
                 x="398.934375"
                 y="223.61625"
                 style="stroke: #000000; stroke-width: 0.8"
                 id="use100" />
            </g>
          </g>
          <g
             id="text_5">
            <!-- 1.25 -->
            <g
               transform="translate(376.66875 245.813125) scale(0.2 -0.2)"
               id="g113">
              <use
                 xlink:href="#DejaVuSans-31"
                 id="use105" />
              <use
                 xlink:href="#DejaVuSans-2e"
                 x="63.623047"
                 id="use107" />
              <use
                 xlink:href="#DejaVuSans-32"
                 x="95.410156"
                 id="use109" />
              <use
                 xlink:href="#DejaVuSans-35"
                 x="159.033203"
                 id="use111" />
            </g>
          </g>
        </g>
        <g
           id="text_6">
          <!-- R -->
          <g
             transform="translate(239.51625 272.20875) scale(0.24 -0.24)"
             id="g122">
            <defs
               id="defs118">
              <path
                 id="DejaVuSans-52"
                 d="M 2841 2188  Q 3044 2119 3236 1894  Q 3428 1669 3622 1275  L 4263 0  L 3584 0  L 2988 1197  Q 2756 1666 2539 1819  Q 2322 1972 1947 1972  L 1259 1972  L 1259 0  L 628 0  L 628 4666  L 2053 4666  Q 2853 4666 3247 4331  Q 3641 3997 3641 3322  Q 3641 2881 3436 2590  Q 3231 2300 2841 2188  z M 1259 4147  L 1259 2491  L 2053 2491  Q 2509 2491 2742 2702  Q 2975 2913 2975 3322  Q 2975 3731 2742 3939  Q 2509 4147 2053 4147  L 1259 4147  z "
                 transform="scale(0.015625)" />
            </defs>
            <use
               xlink:href="#DejaVuSans-52"
               id="use120" />
          </g>
        </g>
      </g>
      <g
         id="matplotlib.axis_2">
        <g
           id="ytick_1">
          <g
             id="line2d_6">
            <defs
               id="defs127">
              <path
                 id="m431ef8808f"
                 d="M 0 0  L -3.5 0  "
                 style="stroke: #000000; stroke-width: 0.8" />
            </defs>
            <g
               id="g131">
              <use
                 xlink:href="#m431ef8808f"
                 x="96.774375"
                 y="223.61625"
                 style="stroke: #000000; stroke-width: 0.8"
                 id="use129" />
            </g>
          </g>
          <g
             id="text_7">
            <!-- -0.20 -->
            <g
               transform="translate(38.0275 231.214688) scale(0.2 -0.2)"
               id="g147">
              <defs
                 id="defs135">
                <path
                   id="DejaVuSans-2d"
                   d="M 313 2009  L 1997 2009  L 1997 1497  L 313 1497  L 313 2009  z "
                   transform="scale(0.015625)" />
              </defs>
              <use
                 xlink:href="#DejaVuSans-2d"
                 id="use137" />
              <use
                 xlink:href="#DejaVuSans-30"
                 x="36.083984"
                 id="use139" />
              <use
                 xlink:href="#DejaVuSans-2e"
                 x="99.707031"
                 id="use141" />
              <use
                 xlink:href="#DejaVuSans-32"
                 x="131.494141"
                 id="use143" />
              <use
                 xlink:href="#DejaVuSans-30"
                 x="195.117188"
                 id="use145" />
            </g>
          </g>
        </g>
        <g
           id="ytick_2">
          <g
             id="line2d_7">
            <g
               id="g153">
              <use
                 xlink:href="#m431ef8808f"
                 x="96.774375"
                 y="172.311797"
                 style="stroke: #000000; stroke-width: 0.8"
                 id="use151" />
            </g>
          </g>
          <g
             id="text_8">
            <!-- -0.10 -->
            <g
               transform="translate(38.0275 179.910234) scale(0.2 -0.2)"
               id="g166">
              <use
                 xlink:href="#DejaVuSans-2d"
                 id="use156" />
              <use
                 xlink:href="#DejaVuSans-30"
                 x="36.083984"
                 id="use158" />
              <use
                 xlink:href="#DejaVuSans-2e"
                 x="99.707031"
                 id="use160" />
              <use
                 xlink:href="#DejaVuSans-31"
                 x="131.494141"
                 id="use162" />
              <use
                 xlink:href="#DejaVuSans-30"
                 x="195.117188"
                 id="use164" />
            </g>
          </g>
        </g>
        <g
           id="ytick_3">
          <g
             id="line2d_8">
            <g
               id="g172">
              <use
                 xlink:href="#m431ef8808f"
                 x="96.774375"
                 y="121.007344"
                 style="stroke: #000000; stroke-width: 0.8"
                 id="use170" />
            </g>
          </g>
          <g
             id="text_9">
            <!-- 0.00 -->
            <g
               transform="translate(45.243125 128.605781) scale(0.2 -0.2)"
               id="g183">
              <use
                 xlink:href="#DejaVuSans-30"
                 id="use175" />
              <use
                 xlink:href="#DejaVuSans-2e"
                 x="63.623047"
                 id="use177" />
              <use
                 xlink:href="#DejaVuSans-30"
                 x="95.410156"
                 id="use179" />
              <use
                 xlink:href="#DejaVuSans-30"
                 x="159.033203"
                 id="use181" />
            </g>
          </g>
        </g>
        <g
           id="ytick_4">
          <g
             id="line2d_9">
            <g
               id="g189">
              <use
                 xlink:href="#m431ef8808f"
                 x="96.774375"
                 y="69.702891"
                 style="stroke: #000000; stroke-width: 0.8"
                 id="use187" />
            </g>
          </g>
          <g
             id="text_10">
            <!-- 0.10 -->
            <g
               transform="translate(45.243125 77.301328) scale(0.2 -0.2)"
               id="g200">
              <use
                 xlink:href="#DejaVuSans-30"
                 id="use192" />
              <use
                 xlink:href="#DejaVuSans-2e"
                 x="63.623047"
                 id="use194" />
              <use
                 xlink:href="#DejaVuSans-31"
                 x="95.410156"
                 id="use196" />
              <use
                 xlink:href="#DejaVuSans-30"
                 x="159.033203"
                 id="use198" />
            </g>
          </g>
        </g>
        <g
           id="ytick_5">
          <g
             id="line2d_10">
            <g
               id="g206">
              <use
                 xlink:href="#m431ef8808f"
                 x="96.774375"
                 y="18.398437"
                 style="stroke: #000000; stroke-width: 0.8"
                 id="use204" />
            </g>
          </g>
          <g
             id="text_11">
            <!-- 0.20 -->
            <g
               transform="translate(45.243125 25.996875) scale(0.2 -0.2)"
               id="g217">
              <use
                 xlink:href="#DejaVuSans-30"
                 id="use209" />
              <use
                 xlink:href="#DejaVuSans-2e"
                 x="63.623047"
                 id="use211" />
              <use
                 xlink:href="#DejaVuSans-32"
                 x="95.410156"
                 id="use213" />
              <use
                 xlink:href="#DejaVuSans-30"
                 x="159.033203"
                 id="use215" />
            </g>
          </g>
        </g>
        <g
           id="text_12">
          <!-- Z -->
          <g
             transform="translate(29.03625 129.227344) rotate(-90) scale(0.24 -0.24)"
             id="g226">
            <defs
               id="defs222">
              <path
                 id="DejaVuSans-5a"
                 d="M 359 4666  L 4025 4666  L 4025 4184  L 1075 531  L 4097 531  L 4097 0  L 288 0  L 288 481  L 3238 4134  L 359 4134  L 359 4666  z "
                 transform="scale(0.015625)" />
            </defs>
            <use
               xlink:href="#DejaVuSans-5a"
               id="use224" />
          </g>
        </g>
      </g>
      <g
         id="line2d_11">
        <path
           d="M 240.811337 121.007344  L 240.693726 122.393659  L 240.343898 123.751812  L 239.770678 125.054785  L 238.988182 126.277708  L 238.015003 127.398647  L 236.873245 128.399095  L 235.5875 129.26418  L 234.183872 129.982633  L 232.304349 130.662779  L 230.334535 131.092942  L 228.324982 131.270723  L 226.323796 131.199081  L 224.376176 130.885505  L 222.524237 130.341458  L 220.806952 129.582065  L 219.260083 128.62598  L 217.915981 127.495363  L 216.803207 126.215832  L 215.945954 124.816314  L 215.457157 123.631644  L 215.151363 122.407977  L 215.033089 121.163455  L 215.104097 119.916606  L 215.36333 118.686003  L 215.806945 117.489917  L 216.428451 116.345989  L 217.218903 115.270954  L 218.427371 114.047697  L 219.856231 112.98401  L 221.475345 112.104139  L 223.250966 111.428842  L 225.146031 110.97537  L 227.120305 110.757404  L 229.130432 110.784871  L 231.130013 111.063529  L 233.069888 111.594305  L 234.898755 112.372383  L 236.246764 113.165343  L 237.463706 114.09974  L 238.524117 115.162521  L 239.404522 116.336988  L 240.084445 117.602876  L 240.547419 118.936703  L 240.781887 120.312412  L 240.811337 121.007344  L 240.811337 121.007344  "
           clip-path="url(#p577ee8ca20)"
           style="fill: none; stroke: #ff0000; stroke-linecap: round"
           id="path230" />
      </g>
      <g
         id="line2d_12">
        <path
           d="M 248.311539 121.007344  L 248.19211 122.783672  L 247.836264 124.53499  L 247.251159 126.237296  L 246.448238 127.868493  L 245.442553 129.409065  L 244.251963 130.842498  L 242.896277 132.155436  L 241.396434 133.337592  L 239.773785 134.381505  L 238.049512 135.282184  L 235.627842 136.255497  L 233.108219 136.966813  L 230.533479 137.417723  L 227.942935 137.612657  L 225.372587 137.558068  L 222.855496 137.261887  L 220.422243 136.733237  L 218.101388 135.982366  L 215.919894 135.020758  L 213.903447 133.861394  L 212.076638 132.519087  L 210.462948 131.010858  L 209.084514 129.356261  L 207.961637 127.577579  L 207.112063 125.699817  L 206.550082 123.75044  L 206.323487 122.259043  L 206.266675 120.756761  L 206.380234 119.256661  L 206.66299 117.77177  L 207.112063 116.31487  L 207.961637 114.437109  L 209.084514 112.658426  L 210.462948 111.003829  L 212.076638 109.495601  L 213.903447 108.153294  L 215.919894 106.993929  L 218.101388 106.032322  L 220.422243 105.28145  L 222.855496 104.752801  L 225.372587 104.45662  L 227.942935 104.40203  L 230.533479 104.596965  L 233.108219 105.047875  L 235.627842 105.759191  L 238.049512 106.732503  L 239.773785 107.633182  L 241.396434 108.677095  L 242.896277 109.859252  L 244.251963 111.172189  L 245.442553 112.605623  L 246.448238 114.146194  L 247.251159 115.777391  L 247.836264 117.479698  L 248.19211 119.231016  L 248.311539 121.007344  L 248.311539 121.007344  "
           clip-path="url(#p577ee8ca20)"
           style="fill: none; stroke: #ff0000; stroke-linecap: round"
           id="path233" />
      </g>
      <g
         id="line2d_13">
        <path
           d="M 255.657785 121.007344  L 255.575762 122.732862  L 255.330758 124.444795  L 254.925918 126.129959  L 254.366326 127.775944  L 253.658779 129.371421  L 252.811506 130.906375  L 251.299278 133.076985  L 249.528425 135.069821  L 247.535215 136.869306  L 245.355743 138.465937  L 243.024566 139.854985  L 240.573876 141.035207  L 238.033125 142.007759  L 235.429008 142.775393  L 232.785667 143.341898  L 230.125015 143.711734  L 227.467076 143.889779  L 224.830283 143.88115  L 222.231711 143.691076  L 219.687271 143.32483  L 217.211881 142.787712  L 214.819671 142.085091  L 212.52419 141.222493  L 210.338622 140.205731  L 208.275968 139.041059  L 206.349174 137.735368  L 204.5712 136.296396  L 202.955041 134.732971  L 201.513664 133.055245  L 200.259863 131.274896  L 199.205968 129.405236  L 198.363409 127.461193  L 197.742148 125.459159  L 197.350068 123.416707  L 197.192396 121.352241  L 197.271293 119.284615  L 197.585673 117.23275  L 198.131295 115.215242  L 198.901105 113.249983  L 199.885765 111.353793  L 201.074267 109.542113  L 202.454524 107.828802  L 204.013859 106.226077  L 205.739339 104.744579  L 207.617968 103.393552  L 209.636774 102.181071  L 211.78281 101.114284  L 214.043106 100.199634  L 216.404557 99.443062  L 218.853757 98.850175  L 221.376795 98.42638  L 223.959038 98.176995  L 226.584926 98.1073  L 229.237793 98.222544  L 231.899682 98.527893  L 234.551127 99.028321  L 237.170885 99.728452  L 239.735592 100.632331  L 242.219436 101.743109  L 244.593896 103.062548  L 246.827672 104.590313  L 248.886927 106.322973  L 250.735954 108.252764  L 252.338358 110.366269  L 253.658779 112.643266  L 254.366326 114.238744  L 254.925918 115.884728  L 255.330758 117.569892  L 255.575762 119.281825  L 255.657785 121.007344  L 255.657785 121.007344  "
           clip-path="url(#p577ee8ca20)"
           style="fill: none; stroke: #ff0000; stroke-linecap: round"
           id="path236" />
      </g>
      <g
         id="line2d_14">
        <path
           d="M 262.924955 121.007344  L 262.808046 123.321779  L 262.459487 125.61317  L 261.885634 127.859502  L 261.096592 130.040712  L 260.10555 132.139391  L 258.92798 134.141229  L 257.580799 136.035166  L 256.081569 137.813286  L 254.447809 139.470496  L 252.696462 141.004064  L 250.84351 142.413101  L 247.905588 144.294339  L 244.816544 145.901217  L 241.614552 147.240259  L 238.33227 148.318408  L 234.998047 149.142511  L 231.637232 149.719306  L 228.273322 150.055539  L 224.928668 150.158004  L 221.624652 150.033479  L 218.381431 149.688631  L 215.21759 149.129941  L 212.150038 148.363724  L 209.194307 147.396215  L 206.365134 146.233723  L 203.677083 144.882804  L 201.144947 143.350454  L 198.783916 141.644333  L 196.609599 139.77309  L 194.638075 137.746838  L 192.886008 135.577726  L 191.370638 133.280494  L 190.109434 130.872748  L 189.119226 128.374785  L 188.414929 125.808964  L 188.008138 123.198867  L 187.905934 120.56859  L 188.110139 117.942351  L 188.617128 115.34435  L 189.418208 112.798571  L 190.50053 110.328281  L 191.848381 107.955242  L 193.444592 105.698903  L 195.271701 103.57591  L 197.312643 101.600091  L 199.550961 99.782849  L 201.970739 98.133747  L 204.556514 96.661061  L 207.293233 95.3722  L 210.166207 94.27399  L 213.160875 93.372884  L 216.262307 92.675149  L 219.454567 92.187031  L 222.720201 91.914894  L 226.040071 91.865285  L 229.39357 92.044916  L 232.75898 92.460583  L 236.113613 93.119067  L 239.433461 94.027101  L 242.692315 95.191445  L 245.860537 96.618997  L 248.903749 98.316655  L 250.84351 99.601587  L 252.696462 101.010623  L 254.447809 102.544192  L 256.081569 104.201401  L 257.580799 105.979522  L 258.92798 107.873459  L 260.10555 109.875296  L 261.096592 111.973975  L 261.885634 114.155185  L 262.459487 116.401518  L 262.808046 118.692908  L 262.924955 121.007344  L 262.924955 121.007344  "
           clip-path="url(#p577ee8ca20)"
           style="fill: none; stroke: #ff0000; stroke-linecap: round"
           id="path239" />
      </g>
      <g
         id="line2d_15">
        <path
           d="M 270.197802 121.007344  L 270.03887 123.961402  L 269.566302 126.878151  L 268.792341 129.722631  L 267.736047 132.464235  L 266.421537 135.07811  L 264.875967 137.545827  L 263.127582 139.855333  L 261.204052 142.000329  L 259.131248 143.979238  L 256.932494 145.793985  L 254.628231 147.448738  L 252.236021 148.948779  L 249.770751 150.299581  L 247.244969 151.506175  L 243.365573 153.054742  L 239.403197 154.299112  L 235.383063 155.247124  L 231.329268 155.905249  L 227.26754 156.279851  L 223.226356 156.377721  L 219.235778 156.206107  L 215.324558 155.772531  L 211.517242 155.084528  L 207.833036 154.149426  L 204.287007 152.974299  L 200.892693 151.566152  L 197.664512 149.932214  L 194.618801 148.080155  L 191.773446 146.018198  L 189.146998 143.755343  L 186.758347 141.302073  L 184.627375 138.671713  L 182.775957 135.882092  L 181.708771 133.945183  L 180.783798 131.955991  L 180.008104 129.92342  L 179.38807 127.856619  L 178.929015 125.764525  L 178.634955 123.655537  L 178.508467 121.537431  L 178.55066 119.417528  L 178.761165 117.303045  L 179.138136 115.201494  L 179.678269 113.120957  L 180.376871 111.070132  L 181.228055 109.058111  L 182.225044 107.09398  L 183.978026 104.25619  L 186.01836 101.570497  L 188.323408 99.056528  L 190.872717 96.728929  L 193.647178 94.598953  L 196.628141 92.675985  L 199.797408 90.968462  L 203.138035 89.484229  L 206.635 88.230646  L 210.274687 87.214759  L 214.042852 86.443589  L 217.921901 85.924373  L 221.889062 85.664597  L 225.916721 85.671815  L 229.97489 85.953393  L 234.034321 86.516287  L 238.068387 87.366975  L 242.052696 88.51179  L 245.962761 89.957931  L 248.514721 91.094069  L 251.011684 92.372182  L 253.44213 93.796936  L 255.792387 95.373643  L 258.046268 97.107778  L 260.184786 99.004197  L 262.18604 101.066098  L 264.025367 103.293813  L 265.675873 105.683551  L 267.109419 108.226244  L 268.298074 110.906696  L 269.215945 113.703228  L 269.841203 116.587982  L 270.158002 119.527955  L 270.197802 121.007344  L 270.197802 121.007344  "
           clip-path="url(#p577ee8ca20)"
           style="fill: none; stroke: #ff0000; stroke-linecap: round"
           id="path242" />
      </g>
      <g
         id="line2d_16">
        <path
           d="M 277.567719 121.007344  L 277.357397 124.654328  L 276.734362 128.243453  L 275.721309 131.721746  L 274.352675 135.045022  L 272.67042 138.180141  L 270.719526 141.105541  L 268.544028 143.810356  L 266.184103 146.292695  L 263.674365 148.557577  L 261.043252 150.614794  L 258.31324 152.476823  L 255.501569 154.156855  L 252.62121 155.667067  L 249.681856 157.017371  L 246.690816 158.214817  L 243.653773 159.2637  L 240.5755 160.166193  L 237.460633 160.923204  L 232.73202 161.78682  L 227.960112 162.325647  L 223.184411 162.542785  L 218.454924 162.443477  L 213.822029 162.035494  L 209.324496 161.328553  L 204.983633 160.332533  L 200.807045 159.055792  L 196.79841 157.505036  L 192.966409 155.686535  L 189.328137 153.607286  L 185.906857 151.275173  L 183.758787 149.58404  L 181.724979 147.786734  L 179.811789 145.886037  L 178.025537 143.885394  L 176.373217 141.789571  L 174.863126 139.605397  L 173.505085 137.34237  L 172.310009 135.012748  L 171.288888 132.630892  L 170.451532 130.211822  L 169.805555 127.769336  L 169.355983 125.314311  L 169.105556 122.853866  L 169.055422 120.391799  L 169.205776 117.930222  L 169.556001 115.471831  L 170.104246 113.021945  L 170.846704 110.589592  L 171.777049 108.187283  L 172.886477 105.829666  L 174.164433 103.531652  L 175.599813 101.306686  L 177.182153 99.165677  L 178.902383 97.116737  L 180.752918 95.165571  L 182.727195 93.316193  L 184.818952 91.571649  L 187.02163 89.934556  L 190.518008 87.685819  L 194.223229 85.692647  L 198.115593 83.962666  L 202.180797 82.502561  L 206.412525 81.318585  L 210.806961 80.4179  L 215.352858 79.809478  L 220.02304 79.503375  L 224.773776 79.508812  L 229.553398 79.832715  L 234.314589 80.47955  L 239.022332 81.451833  L 242.119507 82.281519  L 245.177734 83.257034  L 248.192412 84.379814  L 251.158404 85.65299  L 254.069304 87.082182  L 256.916713 88.675901  L 259.689419 90.44531  L 262.372442 92.403285  L 264.946038 94.562894  L 267.384813 96.93553  L 269.657225 99.528861  L 271.725739 102.344719  L 273.547959 105.376972  L 275.07894 108.609582  L 276.274665 112.015231  L 277.096369 115.555087  L 277.515012 119.180175  L 277.567719 121.007344  L 277.567719 121.007344  "
           clip-path="url(#p577ee8ca20)"
           style="fill: none; stroke: #ff0000; stroke-linecap: round"
           id="path245" />
      </g>
      <g
         id="line2d_17">
        <path
           d="M 285.121644 121.007344  L 285.052731 123.203547  L 284.846909 125.388877  L 284.506887 127.552799  L 284.037031 129.685417  L 283.443173 131.777735  L 282.732346 133.821836  L 281.912496 135.810985  L 279.980265 139.603512  L 277.717074 143.12462  L 275.190777 146.358975  L 272.46115 149.303032  L 269.577183 151.962551  L 266.576347 154.35139  L 263.485121 156.490449  L 260.320382 158.40542  L 257.091477 160.122971  L 253.80269 161.666265  L 250.455617 163.051498  L 247.050869 164.286791  L 243.588925 165.373579  L 240.070531 166.309443  L 236.497448 167.090832  L 232.874132 167.714605  L 229.210147 168.178337  L 225.5222 168.480111  L 221.834309 168.618629  L 218.17524 168.593901  L 214.573599 168.408054  L 211.052282 168.065527  L 207.62449 167.572256  L 204.292886 166.934138  L 201.052074 166.155583  L 197.893148 165.238885  L 194.808382 164.184645  L 191.794486 162.992841  L 188.853754 161.663822  L 185.993445 160.198746  L 183.224179 158.599402  L 180.558033 156.867739  L 178.006744 155.005457  L 175.580285 153.013814  L 173.286159 150.893684  L 171.129866 148.645915  L 169.116694 146.272272  L 167.254332 143.777222  L 165.555047 141.170383  L 164.036028 138.468708  L 162.717145 135.696946  L 161.616782 132.885145  L 160.747595 130.063137  L 160.114376 127.253618  L 159.715224 124.466623  L 159.545429 121.698125  L 159.601931 118.933896  L 159.885827 116.157441  L 160.401488 113.358837  L 161.152805 110.540936  L 162.138683 107.720587  L 163.35033 104.924905  L 164.771782 102.184664  L 166.383332 99.527781  L 168.166019 96.975215  L 170.104997 94.540049  L 172.190477 92.229005  L 174.416305 90.044924  L 176.777383 87.988944  L 179.267354 86.061852  L 181.877455 84.264692  L 184.596689 82.598954  L 187.412939 81.066498  L 190.314621 79.669257  L 193.292563 78.408753  L 196.341828 77.28573  L 199.462934 76.300252  L 202.661665 75.452465  L 205.94686 74.743708  L 209.326296 74.177342  L 212.80182 73.758664  L 216.365616 73.493798  L 219.999312 73.388093  L 223.676512 73.44487  L 227.367823 73.665117  L 231.046361 74.048082  L 234.69162 74.592102  L 238.290637 75.295026  L 241.836713 76.15409  L 245.327011 77.165842  L 248.760425 78.327017  L 252.136392 79.63674  L 255.45443 81.099489  L 258.713594 82.727394  L 261.911208 84.540439  L 265.040774 86.564077  L 268.089474 88.825041  L 271.035848 91.347015  L 273.848048 94.147557  L 276.482845 97.236585  L 278.885658 100.61542  L 280.99218 104.275026  L 281.912496 106.203702  L 282.732346 108.192852  L 283.443173 110.236953  L 284.037031 112.329271  L 284.506887 114.461889  L 284.846909 116.62581  L 285.052731 118.811141  L 285.121644 121.007344  L 285.121644 121.007344  "
           clip-path="url(#p577ee8ca20)"
           style="fill: none; stroke: #ff0000; stroke-linecap: round"
           id="path248" />
      </g>
      <g
         id="line2d_18">
        <path
           d="M 292.891347 121.007344  L 292.802107 123.560839  L 292.535991 126.09926  L 292.097699 128.608295  L 291.494724 131.075062  L 290.736888 133.488583  L 289.835759 135.840013  L 288.804042 138.122623  L 287.654983 140.331549  L 286.401842 142.463374  L 283.634103 146.486401  L 280.594623 150.175955  L 277.362677 153.516843  L 274.002135 156.497254  L 270.560679 159.119418  L 267.068054 161.409115  L 263.535229 163.415552  L 259.957244 165.199502  L 256.320415 166.81528  L 250.727081 168.989149  L 246.898655 170.276048  L 242.992453 171.417222  L 239.011354 172.397282  L 234.956653 173.206899  L 230.83176 173.842008  L 226.650513 174.299217  L 222.444431 174.572801  L 218.262457 174.656374  L 214.160691 174.547886  L 210.185773 174.253588  L 206.360103 173.78727  L 202.67668 173.164606  L 199.106214 172.396182  L 195.612501 171.483752  L 192.168027 170.42196  L 188.762673 169.203896  L 185.403269 167.826449  L 182.107074 166.292004  L 178.894561 164.606016  L 175.785296 162.772915  L 172.796969 160.793482  L 169.945092 158.665045  L 167.241289 156.383286  L 164.690934 153.94353  L 162.293176 151.340787  L 160.045872 148.570266  L 157.954396 145.631103  L 156.039346 142.534046  L 154.337112 139.309834  L 152.890739 136.012008  L 151.73461 132.708884  L 150.881294 129.464746  L 150.318707 126.31735  L 150.020125 123.262821  L 149.961831 120.256964  L 150.138184 117.234246  L 150.565178 114.136544  L 151.270337 110.938468  L 152.274999 107.657962  L 153.579403 104.348666  L 155.158926 101.079699  L 156.972852 97.913752  L 158.979779 94.893214  L 161.150669 92.037968  L 163.473177 89.351829  L 165.946869 86.831229  L 168.574179 84.471068  L 171.353126 82.266545  L 174.274983 80.213093  L 177.325873 78.306978  L 180.489091 76.547079  L 183.745998 74.936154  L 187.076299 73.479625  L 190.460371 72.181899  L 193.885186 71.042691  L 197.351834 70.056497  L 200.879631 69.216397  L 204.502077 68.520056  L 208.254057 67.973779  L 212.155287 67.591458  L 216.198207 67.388727  L 220.346911 67.376055  L 224.547852 67.555291  L 228.746672 67.921539  L 232.902468 68.468248  L 236.993125 69.190963  L 241.011159 70.086549  L 244.955061 71.148771  L 248.822801 72.364944  L 254.475509 74.443192  L 258.147129 75.988953  L 261.752639 77.683107  L 265.306669 79.570677  L 268.819647 81.711477  L 272.28922 84.16257  L 275.695103 86.962248  L 278.998352 90.123782  L 282.143017 93.640885  L 285.057487 97.499041  L 286.401842 99.551313  L 287.654983 101.683139  L 288.804042 103.892064  L 289.835759 106.174674  L 290.736888 108.526105  L 291.494724 110.939625  L 292.097699 113.406393  L 292.535991 115.915428  L 292.802107 118.453848  L 292.891347 121.007344  L 292.891347 121.007344  "
           clip-path="url(#p577ee8ca20)"
           style="fill: none; stroke: #ff0000; stroke-linecap: round"
           id="path251" />
      </g>
      <g
         id="line2d_19"
         transform="translate(121.28428,76.5)"
         style="stroke-linecap:butt;stroke-linejoin:round">
        <circle
           style="opacity:1;fill:#ffffff;fill-opacity:0;stroke:#ff150d;stroke-width:1.26450002;stroke-linecap:butt;stroke-linejoin:round;stroke-miterlimit:4;stroke-dasharray:none;stroke-dashoffset:0;stroke-opacity:1"
           id="path2280-3"
           cx="259.62714"
           cy="44.54237"
           r="5.625" />
        <path
           style="fill:#ffffff;fill-opacity:0.71662765;stroke:#e91919;stroke-width:1.27499998;stroke-linecap:butt;stroke-linejoin:miter;stroke-miterlimit:4;stroke-dasharray:none;stroke-opacity:1"
           d="m 255.52757,40.442807 8.25,8.25"
           id="path1135"
           inkscape:connector-curvature="0" />
        <path
           style="fill:#ffffff;fill-opacity:0.71662765;stroke:#e91919;stroke-width:1.27499998;stroke-linecap:butt;stroke-linejoin:miter;stroke-miterlimit:4;stroke-dasharray:none;stroke-opacity:1"
           d="m 255.87191,48.133477 8.25,-8.25"
           id="path1135-3"
           inkscape:connector-curvature="0" />
      </g>
      <g
         id="line2d_20">
        <path
           d="M 303.692134 121.007344  L 303.570713 123.841714  L 303.209802 126.654569  L 302.619058 129.427481  L 301.813319 132.14759  L 300.810966 134.808968  L 299.632058 137.412589  L 298.296581 139.964889  L 296.823102 142.475175  L 293.525532 147.401641  L 289.847554 152.203634  L 285.886418 156.776647  L 283.833916 158.916478  L 281.754544 160.921938  L 279.664887 162.769792  L 277.58054 164.444651  L 275.514405 165.941603  L 273.475047 167.267345  L 269.482495 169.484998  L 265.556365 171.324278  L 257.446975 174.755561  L 250.84533 177.348757  L 246.252091 178.91164  L 241.607941 180.213047  L 236.960275 181.227037  L 232.287469 181.997775  L 227.531411 182.583684  L 222.666393 183.004375  L 217.753213 183.229918  L 212.934876 183.215325  L 208.369872 182.947852  L 204.143382 182.466745  L 198.318087 181.48581  L 192.636532 180.263512  L 188.708553 179.239432  L 184.658568 177.967293  L 180.581409 176.423353  L 176.590636 174.648194  L 172.75286 172.720456  L 167.274506 169.671598  L 163.765928 167.532366  L 160.376948 165.249429  L 157.157633 162.770696  L 154.160784 160.074529  L 151.395422 157.163882  L 148.813597 154.035878  L 146.347147 150.659453  L 143.971245 146.989937  L 141.747448 143.019623  L 139.809771 138.829626  L 138.296824 134.597612  L 137.273096 130.539954  L 136.693464 126.811333  L 136.437588 123.419207  L 136.393259 120.208844  L 136.533347 116.935155  L 136.934379 113.384708  L 137.72412 109.480049  L 138.993699 105.30952  L 140.733278 101.071807  L 142.833051 96.974894  L 145.146213 93.151288  L 147.569243 89.633024  L 150.086074 86.386405  L 152.751031 83.369022  L 155.629411 80.564808  L 158.74223 77.977975  L 162.054021 75.602043  L 165.507002 73.398592  L 170.893525 70.293084  L 174.651212 68.316293  L 178.569451 66.454602  L 182.615802 64.786521  L 186.694259 63.377323  L 190.690857 62.235984  L 196.436486 60.905988  L 202.149234 59.847461  L 206.213758 59.284762  L 210.61274 58.902804  L 215.321569 58.760051  L 220.208276 58.870087  L 225.111047 59.199061  L 229.923055 59.703376  L 234.630532 60.375954  L 239.284384 61.260374  L 243.931827 62.415957  L 248.560377 63.856906  L 253.094681 65.514262  L 261.583207 68.983534  L 267.517279 71.579204  L 271.465452 73.575075  L 273.475047 74.747343  L 275.514405 76.073084  L 277.58054 77.570036  L 279.664887 79.244896  L 281.754544 81.09275  L 283.833916 83.09821  L 287.895903 87.484828  L 291.728122 92.192885  L 295.228025 97.062329  L 296.823102 99.539512  L 298.296581 102.049799  L 299.632058 104.602099  L 300.810966 107.205719  L 301.813319 109.867097  L 302.619058 112.587207  L 303.209802 115.360119  L 303.570713 118.172973  L 303.692134 121.007344  L 303.692134 121.007344  "
           clip-path="url(#p577ee8ca20)"
           style="fill: none; stroke: #ff0000; stroke-width: 2; stroke-linecap: round"
           id="path257" />
      </g>
      <g
         id="patch_3">
        <path
           d="M 96.774375 223.61625  L 96.774375 18.398437  "
           style="fill: none; stroke: #000000; stroke-width: 0.8; stroke-linejoin: miter; stroke-linecap: square"
           id="path268" />
      </g>
      <g
         id="patch_4">
        <path
           d="M 96.774375 223.61625  L 398.934375 223.61625  "
           style="fill: none; stroke: #000000; stroke-width: 0.8; stroke-linejoin: miter; stroke-linecap: square"
           id="path271" />
      </g>
    </g>
  </g>
  <defs
     id="defs279">
    <clipPath
       id="p577ee8ca20">
      <rect
         x="96.774375"
         y="18.398437"
         width="302.16"
         height="205.217813"
         id="rect276" />
    </clipPath>
  </defs>
</svg>
