<?xml version="1.0" encoding="utf-8" standalone="no"?>
<!DOCTYPE svg PUBLIC "-//W3C//DTD SVG 1.1//EN"
  "http://www.w3.org/Graphics/SVG/1.1/DTD/svg11.dtd">
<svg xmlns:xlink="http://www.w3.org/1999/xlink" width="432pt" height="360pt" viewBox="0 0 432 360" xmlns="http://www.w3.org/2000/svg" version="1.1">
 <metadata>
  <rdf:RDF xmlns:dc="http://purl.org/dc/elements/1.1/" xmlns:cc="http://creativecommons.org/ns#" xmlns:rdf="http://www.w3.org/1999/02/22-rdf-syntax-ns#">
   <cc:Work>
    <dc:type rdf:resource="http://purl.org/dc/dcmitype/StillImage"/>
    <dc:date>2025-04-27T16:03:04.648277</dc:date>
    <dc:format>image/svg+xml</dc:format>
    <dc:creator>
     <cc:Agent>
      <dc:title>Matplotlib v3.9.2, https://matplotlib.org/</dc:title>
     </cc:Agent>
    </dc:creator>
   </cc:Work>
  </rdf:RDF>
 </metadata>
 <defs>
  <style type="text/css">*{stroke-linejoin: round; stroke-linecap: butt}</style>
 </defs>
 <g id="figure_1">
  <g id="patch_1">
   <path d="M 0 360 
L 432 360 
L 432 0 
L 0 0 
z
" style="fill: #ffffff"/>
  </g>
  <g id="axes_1">
   <g id="patch_2">
    <path d="M 107.665625 284.294375 
L 355.480625 284.294375 
L 355.480625 21.437813 
L 107.665625 21.437813 
z
" style="fill: #ffffff"/>
   </g>
   <g id="matplotlib.axis_1">
    <g id="xtick_1">
     <g id="line2d_1">
      <defs>
       <path id="m428d4625a0" d="M 0 0 
L 0 3.5 
" style="stroke: #000000; stroke-width: 0.8"/>
      </defs>
      <g>
       <use xlink:href="#m428d4625a0" x="107.665625" y="284.294375" style="stroke: #000000; stroke-width: 0.8"/>
      </g>
     </g>
     <g id="text_1">
      <!-- 0 -->
      <g transform="translate(98.758125 312.57) scale(0.28 -0.28)">
       <defs>
        <path id="DejaVuSerif-30" d="M 2034 219 
Q 2513 219 2750 744 
Q 2988 1269 2988 2328 
Q 2988 3391 2750 3916 
Q 2513 4441 2034 4441 
Q 1556 4441 1318 3916 
Q 1081 3391 1081 2328 
Q 1081 1269 1318 744 
Q 1556 219 2034 219 
z
M 2034 -91 
Q 1275 -91 848 546 
Q 422 1184 422 2328 
Q 422 3475 848 4112 
Q 1275 4750 2034 4750 
Q 2797 4750 3222 4112 
Q 3647 3475 3647 2328 
Q 3647 1184 3222 546 
Q 2797 -91 2034 -91 
z
" transform="scale(0.015625)"/>
       </defs>
       <use xlink:href="#DejaVuSerif-30"/>
      </g>
     </g>
    </g>
    <g id="xtick_2">
     <g id="line2d_2">
      <g>
       <use xlink:href="#m428d4625a0" x="169.619375" y="284.294375" style="stroke: #000000; stroke-width: 0.8"/>
      </g>
     </g>
     <g id="text_2">
      <!-- $\pi/2$ -->
      <g transform="translate(147.639375 312.294375) scale(0.28 -0.28)">
       <defs>
        <path id="Cmmi10-bc" d="M 647 109 
Q 647 144 672 213 
Q 850 584 1004 942 
Q 1159 1300 1282 1639 
Q 1406 1978 1509 2363 
L 1100 2363 
Q 866 2363 662 2216 
Q 459 2069 325 1844 
Q 313 1819 288 1819 
L 213 1819 
Q 153 1819 153 1881 
Q 153 1894 166 1919 
Q 375 2275 614 2517 
Q 853 2759 1153 2759 
L 3475 2759 
Q 3541 2759 3587 2715 
Q 3634 2672 3634 2597 
Q 3634 2503 3567 2433 
Q 3500 2363 3406 2363 
L 2591 2363 
Q 2488 1859 2478 1381 
Q 2478 766 2694 269 
Q 2713 231 2713 191 
Q 2713 122 2672 62 
Q 2631 3 2567 -34 
Q 2503 -72 2431 -72 
Q 2263 -72 2200 203 
Q 2138 478 2138 738 
Q 2138 1103 2200 1442 
Q 2263 1781 2400 2363 
L 1703 2363 
Q 1197 313 1094 103 
Q 1003 -72 844 -72 
Q 766 -72 706 -20 
Q 647 31 647 109 
z
" transform="scale(0.015625)"/>
        <path id="Cmmi10-3d" d="M 359 -1472 
Q 359 -1453 366 -1447 
L 2591 4722 
Q 2603 4759 2634 4779 
Q 2666 4800 2706 4800 
Q 2763 4800 2798 4765 
Q 2834 4731 2834 4672 
L 2834 4647 
L 609 -1522 
Q 572 -1600 488 -1600 
Q 434 -1600 396 -1562 
Q 359 -1525 359 -1472 
z
" transform="scale(0.015625)"/>
        <path id="Cmr10-32" d="M 319 0 
L 319 172 
Q 319 188 331 206 
L 1325 1306 
Q 1550 1550 1690 1715 
Q 1831 1881 1968 2097 
Q 2106 2313 2186 2536 
Q 2266 2759 2266 3009 
Q 2266 3272 2169 3511 
Q 2072 3750 1880 3894 
Q 1688 4038 1416 4038 
Q 1138 4038 916 3870 
Q 694 3703 603 3438 
Q 628 3444 672 3444 
Q 816 3444 917 3347 
Q 1019 3250 1019 3097 
Q 1019 2950 917 2848 
Q 816 2747 672 2747 
Q 522 2747 420 2851 
Q 319 2956 319 3097 
Q 319 3338 409 3548 
Q 500 3759 670 3923 
Q 841 4088 1055 4175 
Q 1269 4263 1509 4263 
Q 1875 4263 2190 4108 
Q 2506 3953 2690 3670 
Q 2875 3388 2875 3009 
Q 2875 2731 2753 2481 
Q 2631 2231 2440 2026 
Q 2250 1822 1953 1562 
Q 1656 1303 1563 1216 
L 838 519 
L 1453 519 
Q 1906 519 2211 526 
Q 2516 534 2534 550 
Q 2609 631 2688 1141 
L 2875 1141 
L 2694 0 
L 319 0 
z
" transform="scale(0.015625)"/>
       </defs>
       <use xlink:href="#Cmmi10-bc"/>
       <use xlink:href="#Cmmi10-3d" transform="translate(56.982422 0)"/>
       <use xlink:href="#Cmr10-32" transform="translate(106.982422 0)"/>
      </g>
     </g>
    </g>
    <g id="xtick_3">
     <g id="line2d_3">
      <g>
       <use xlink:href="#m428d4625a0" x="231.573125" y="284.294375" style="stroke: #000000; stroke-width: 0.8"/>
      </g>
     </g>
     <g id="text_3">
      <!-- $\pi$ -->
      <g transform="translate(223.593125 312.57) scale(0.28 -0.28)">
       <use xlink:href="#Cmmi10-bc" transform="translate(0 0.890625)"/>
      </g>
     </g>
    </g>
    <g id="xtick_4">
     <g id="line2d_4">
      <g>
       <use xlink:href="#m428d4625a0" x="293.526875" y="284.294375" style="stroke: #000000; stroke-width: 0.8"/>
      </g>
     </g>
     <g id="text_4">
      <!-- $3\pi/2$ -->
      <g transform="translate(264.546875 312.294375) scale(0.28 -0.28)">
       <defs>
        <path id="Cmr10-33" d="M 609 494 
Q 759 275 1012 169 
Q 1266 63 1556 63 
Q 1928 63 2084 380 
Q 2241 697 2241 1100 
Q 2241 1281 2208 1462 
Q 2175 1644 2097 1800 
Q 2019 1956 1883 2050 
Q 1747 2144 1550 2144 
L 1125 2144 
Q 1069 2144 1069 2203 
L 1069 2259 
Q 1069 2309 1125 2309 
L 1478 2338 
Q 1703 2338 1851 2506 
Q 2000 2675 2069 2917 
Q 2138 3159 2138 3378 
Q 2138 3684 1994 3881 
Q 1850 4078 1556 4078 
Q 1313 4078 1091 3986 
Q 869 3894 738 3706 
Q 750 3709 759 3711 
Q 769 3713 781 3713 
Q 925 3713 1022 3613 
Q 1119 3513 1119 3372 
Q 1119 3234 1022 3134 
Q 925 3034 781 3034 
Q 641 3034 541 3134 
Q 441 3234 441 3372 
Q 441 3647 606 3850 
Q 772 4053 1033 4158 
Q 1294 4263 1556 4263 
Q 1750 4263 1965 4205 
Q 2181 4147 2356 4039 
Q 2531 3931 2642 3762 
Q 2753 3594 2753 3378 
Q 2753 3109 2633 2881 
Q 2513 2653 2303 2487 
Q 2094 2322 1844 2241 
Q 2122 2188 2372 2031 
Q 2622 1875 2773 1631 
Q 2925 1388 2925 1106 
Q 2925 753 2731 467 
Q 2538 181 2222 20 
Q 1906 -141 1556 -141 
Q 1256 -141 954 -26 
Q 653 88 461 316 
Q 269 544 269 863 
Q 269 1022 375 1128 
Q 481 1234 641 1234 
Q 744 1234 830 1186 
Q 916 1138 964 1050 
Q 1013 963 1013 863 
Q 1013 706 903 600 
Q 794 494 641 494 
L 609 494 
z
" transform="scale(0.015625)"/>
       </defs>
       <use xlink:href="#Cmr10-33"/>
       <use xlink:href="#Cmmi10-bc" transform="translate(50 0)"/>
       <use xlink:href="#Cmmi10-3d" transform="translate(106.982422 0)"/>
       <use xlink:href="#Cmr10-32" transform="translate(156.982422 0)"/>
      </g>
     </g>
    </g>
    <g id="xtick_5">
     <g id="line2d_5">
      <g>
       <use xlink:href="#m428d4625a0" x="355.480625" y="284.294375" style="stroke: #000000; stroke-width: 0.8"/>
      </g>
     </g>
     <g id="text_5">
      <!-- $2\pi$ -->
      <g transform="translate(340.500625 312.57) scale(0.28 -0.28)">
       <use xlink:href="#Cmr10-32" transform="translate(0 0.390625)"/>
       <use xlink:href="#Cmmi10-bc" transform="translate(50 0.390625)"/>
      </g>
     </g>
    </g>
    <g id="text_6">
     <!-- $\zeta_{\mathrm{Boozer}}$ -->
     <g transform="translate(187.373125 342.06) scale(0.34 -0.34)">
      <defs>
       <path id="Cmmi10-b3" d="M 1131 -997 
Q 1147 -922 1222 -922 
Q 1234 -922 1332 -986 
Q 1431 -1050 1542 -1098 
Q 1653 -1147 1784 -1147 
Q 1922 -1147 2014 -1019 
Q 2106 -891 2106 -744 
Q 2106 -597 2009 -494 
Q 1913 -391 1766 -341 
L 1113 -122 
Q 713 16 503 317 
Q 294 619 294 1050 
Q 294 1416 426 1831 
Q 559 2247 793 2637 
Q 1028 3028 1334 3339 
Q 1641 3650 1972 3822 
Q 1906 3953 1906 4128 
Q 1906 4475 2041 4475 
Q 2075 4475 2100 4450 
Q 2125 4425 2125 4391 
Q 2125 4344 2109 4245 
Q 2094 4147 2094 4122 
Q 2094 4006 2131 3897 
Q 2297 3963 2438 3963 
Q 3028 3963 3028 3781 
Q 3028 3566 2375 3566 
Q 2181 3566 2069 3681 
Q 1794 3525 1539 3244 
Q 1284 2963 1087 2613 
Q 891 2263 781 1906 
Q 672 1550 672 1228 
Q 672 538 1300 319 
L 1984 91 
Q 2200 25 2336 -139 
Q 2472 -303 2472 -531 
Q 2472 -716 2378 -898 
Q 2284 -1081 2125 -1197 
Q 1966 -1313 1772 -1313 
Q 1619 -1313 1375 -1211 
Q 1131 -1109 1131 -997 
z
M 2247 3763 
Q 2241 3763 2303 3738 
Q 2331 3738 2348 3736 
Q 2366 3734 2388 3731 
Q 2694 3731 2828 3769 
Q 2706 3794 2438 3794 
Q 2350 3794 2247 3763 
z
" transform="scale(0.015625)"/>
       <path id="Cmr10-42" d="M 219 0 
L 219 225 
Q 878 225 878 428 
L 878 3944 
Q 878 4147 219 4147 
L 219 4372 
L 2572 4372 
Q 2897 4372 3228 4245 
Q 3559 4119 3776 3870 
Q 3994 3622 3994 3284 
Q 3994 2894 3673 2630 
Q 3353 2366 2925 2284 
Q 3203 2284 3497 2131 
Q 3791 1978 3978 1722 
Q 4166 1466 4166 1178 
Q 4166 828 3958 559 
Q 3750 291 3419 145 
Q 3088 0 2753 0 
L 219 0 
z
M 1434 428 
Q 1434 291 1512 258 
Q 1591 225 1759 225 
L 2572 225 
Q 2822 225 3036 356 
Q 3250 488 3375 708 
Q 3500 928 3500 1178 
Q 3500 1422 3397 1655 
Q 3294 1888 3101 2038 
Q 2909 2188 2663 2188 
L 1434 2188 
L 1434 428 
z
M 1434 2356 
L 2394 2356 
Q 2588 2356 2758 2426 
Q 2928 2497 3064 2630 
Q 3200 2763 3273 2930 
Q 3347 3097 3347 3284 
Q 3347 3450 3292 3603 
Q 3238 3756 3131 3881 
Q 3025 4006 2881 4076 
Q 2738 4147 2572 4147 
L 1759 4147 
Q 1644 4147 1580 4137 
Q 1516 4128 1475 4083 
Q 1434 4038 1434 3944 
L 1434 2356 
z
" transform="scale(0.015625)"/>
       <path id="Cmr10-6f" d="M 1600 -72 
Q 1216 -72 887 123 
Q 559 319 368 647 
Q 178 975 178 1363 
Q 178 1656 283 1928 
Q 388 2200 583 2414 
Q 778 2628 1037 2748 
Q 1297 2869 1600 2869 
Q 1994 2869 2317 2661 
Q 2641 2453 2828 2104 
Q 3016 1756 3016 1363 
Q 3016 978 2825 648 
Q 2634 319 2307 123 
Q 1981 -72 1600 -72 
z
M 1600 116 
Q 2113 116 2284 487 
Q 2456 859 2456 1434 
Q 2456 1756 2422 1967 
Q 2388 2178 2272 2350 
Q 2200 2456 2089 2536 
Q 1978 2616 1854 2658 
Q 1731 2700 1600 2700 
Q 1400 2700 1220 2609 
Q 1041 2519 922 2350 
Q 803 2169 770 1951 
Q 738 1734 738 1434 
Q 738 1075 800 789 
Q 863 503 1052 309 
Q 1241 116 1600 116 
z
" transform="scale(0.015625)"/>
       <path id="Cmr10-7a" d="M 250 0 
Q 178 0 178 72 
L 178 122 
Q 178 147 197 166 
L 1984 2591 
L 1409 2591 
Q 1138 2591 961 2556 
Q 784 2522 670 2426 
Q 556 2331 504 2164 
Q 453 1997 453 1703 
L 269 1703 
L 341 2759 
L 2484 2759 
Q 2513 2759 2533 2739 
Q 2553 2719 2553 2688 
L 2553 2650 
Q 2553 2631 2541 2606 
L 750 184 
L 1363 184 
Q 1641 184 1827 218 
Q 2013 253 2144 384 
Q 2266 506 2311 712 
Q 2356 919 2381 1222 
L 2566 1222 
L 2456 0 
L 250 0 
z
" transform="scale(0.015625)"/>
       <path id="Cmr10-65" d="M 1594 -72 
Q 1203 -72 876 133 
Q 550 338 364 680 
Q 178 1022 178 1403 
Q 178 1778 348 2115 
Q 519 2453 823 2661 
Q 1128 2869 1503 2869 
Q 1797 2869 2014 2770 
Q 2231 2672 2372 2497 
Q 2513 2322 2584 2084 
Q 2656 1847 2656 1563 
Q 2656 1478 2591 1478 
L 738 1478 
L 738 1409 
Q 738 878 952 497 
Q 1166 116 1650 116 
Q 1847 116 2014 203 
Q 2181 291 2304 447 
Q 2428 603 2472 781 
Q 2478 803 2495 820 
Q 2513 838 2534 838 
L 2591 838 
Q 2656 838 2656 756 
Q 2566 394 2266 161 
Q 1966 -72 1594 -72 
z
M 744 1638 
L 2203 1638 
Q 2203 1878 2136 2125 
Q 2069 2372 1912 2536 
Q 1756 2700 1503 2700 
Q 1141 2700 942 2361 
Q 744 2022 744 1638 
z
" transform="scale(0.015625)"/>
       <path id="Cmr10-72" d="M 166 0 
L 166 225 
Q 384 225 525 259 
Q 666 294 666 428 
L 666 2175 
Q 666 2347 614 2423 
Q 563 2500 466 2517 
Q 369 2534 166 2534 
L 166 2759 
L 1081 2828 
L 1081 2203 
Q 1184 2481 1375 2654 
Q 1566 2828 1838 2828 
Q 2028 2828 2178 2715 
Q 2328 2603 2328 2419 
Q 2328 2303 2245 2217 
Q 2163 2131 2041 2131 
Q 1922 2131 1837 2215 
Q 1753 2300 1753 2419 
Q 1753 2591 1875 2663 
L 1838 2663 
Q 1578 2663 1414 2475 
Q 1250 2288 1181 2009 
Q 1113 1731 1113 1478 
L 1113 428 
Q 1113 225 1734 225 
L 1734 0 
L 166 0 
z
" transform="scale(0.015625)"/>
      </defs>
      <use xlink:href="#Cmmi10-b3" transform="translate(0 0.078125)"/>
      <use xlink:href="#Cmr10-42" transform="translate(43.701172 -16.928125) scale(0.7)"/>
      <use xlink:href="#Cmr10-6f" transform="translate(93.261719 -16.928125) scale(0.7)"/>
      <use xlink:href="#Cmr10-6f" transform="translate(128.261719 -16.928125) scale(0.7)"/>
      <use xlink:href="#Cmr10-7a" transform="translate(163.261719 -16.928125) scale(0.7)"/>
      <use xlink:href="#Cmr10-65" transform="translate(194.331055 -16.928125) scale(0.7)"/>
      <use xlink:href="#Cmr10-72" transform="translate(225.400391 -16.928125) scale(0.7)"/>
     </g>
    </g>
   </g>
   <g id="matplotlib.axis_2">
    <g id="ytick_1">
     <g id="line2d_6">
      <defs>
       <path id="m562bb55cbe" d="M 0 0 
L -3.5 0 
" style="stroke: #000000; stroke-width: 0.8"/>
      </defs>
      <g>
       <use xlink:href="#m562bb55cbe" x="107.665625" y="284.294375" style="stroke: #000000; stroke-width: 0.8"/>
      </g>
     </g>
     <g id="text_7">
      <!-- 0 -->
      <g transform="translate(82.850625 294.932187) scale(0.28 -0.28)">
       <use xlink:href="#DejaVuSerif-30"/>
      </g>
     </g>
    </g>
    <g id="ytick_2">
     <g id="line2d_7">
      <g>
       <use xlink:href="#m562bb55cbe" x="107.665625" y="218.580234" style="stroke: #000000; stroke-width: 0.8"/>
      </g>
     </g>
     <g id="text_8">
      <!-- $\pi/2$ -->
      <g transform="translate(56.705625 229.080234) scale(0.28 -0.28)">
       <use xlink:href="#Cmmi10-bc"/>
       <use xlink:href="#Cmmi10-3d" transform="translate(56.982422 0)"/>
       <use xlink:href="#Cmr10-32" transform="translate(106.982422 0)"/>
      </g>
     </g>
    </g>
    <g id="ytick_3">
     <g id="line2d_8">
      <g>
       <use xlink:href="#m562bb55cbe" x="107.665625" y="152.866094" style="stroke: #000000; stroke-width: 0.8"/>
      </g>
     </g>
     <g id="text_9">
      <!-- $\pi$ -->
      <g transform="translate(84.705625 163.503906) scale(0.28 -0.28)">
       <use xlink:href="#Cmmi10-bc" transform="translate(0 0.890625)"/>
      </g>
     </g>
    </g>
    <g id="ytick_4">
     <g id="line2d_9">
      <g>
       <use xlink:href="#m562bb55cbe" x="107.665625" y="87.151953" style="stroke: #000000; stroke-width: 0.8"/>
      </g>
     </g>
     <g id="text_10">
      <!-- $3\pi/2$ -->
      <g transform="translate(42.705625 97.651953) scale(0.28 -0.28)">
       <use xlink:href="#Cmr10-33"/>
       <use xlink:href="#Cmmi10-bc" transform="translate(50 0)"/>
       <use xlink:href="#Cmmi10-3d" transform="translate(106.982422 0)"/>
       <use xlink:href="#Cmr10-32" transform="translate(156.982422 0)"/>
      </g>
     </g>
    </g>
    <g id="ytick_5">
     <g id="line2d_10">
      <g>
       <use xlink:href="#m562bb55cbe" x="107.665625" y="21.437813" style="stroke: #000000; stroke-width: 0.8"/>
      </g>
     </g>
     <g id="text_11">
      <!-- $2\pi$ -->
      <g transform="translate(70.705625 32.075625) scale(0.28 -0.28)">
       <use xlink:href="#Cmr10-32" transform="translate(0 0.390625)"/>
       <use xlink:href="#Cmmi10-bc" transform="translate(50 0.390625)"/>
      </g>
     </g>
    </g>
    <g id="text_12">
     <!-- $\theta_{\mathrm{Boozer}}$ -->
     <g transform="translate(36.634687 197.576094) rotate(-90) scale(0.34 -0.34)">
      <defs>
       <path id="Cmmi10-b5" d="M 1031 -72 
Q 741 -72 566 140 
Q 391 353 323 653 
Q 256 953 256 1247 
L 256 1253 
Q 256 1572 317 1915 
Q 378 2259 493 2601 
Q 609 2944 744 3213 
Q 838 3400 986 3631 
Q 1134 3863 1317 4064 
Q 1500 4266 1711 4389 
Q 1922 4513 2138 4513 
L 2144 4513 
Q 2375 4513 2529 4384 
Q 2684 4256 2770 4056 
Q 2856 3856 2890 3628 
Q 2925 3400 2925 3194 
Q 2925 2709 2794 2204 
Q 2663 1700 2431 1228 
Q 2344 1050 2189 809 
Q 2034 569 1861 378 
Q 1688 188 1472 58 
Q 1256 -72 1038 -72 
L 1031 -72 
z
M 1044 97 
Q 1256 97 1451 323 
Q 1647 550 1794 873 
Q 1941 1197 2052 1536 
Q 2163 1875 2216 2113 
L 909 2113 
Q 809 1709 753 1417 
Q 697 1125 697 844 
Q 697 97 1044 97 
z
M 959 2338 
L 2272 2338 
Q 2341 2619 2381 2808 
Q 2422 2997 2450 3206 
Q 2478 3416 2478 3597 
Q 2478 4347 2138 4347 
Q 1731 4347 1436 3692 
Q 1141 3038 959 2338 
z
" transform="scale(0.015625)"/>
      </defs>
      <use xlink:href="#Cmmi10-b5" transform="translate(0 0.484375)"/>
      <use xlink:href="#Cmr10-42" transform="translate(46.923828 -16.521875) scale(0.7)"/>
      <use xlink:href="#Cmr10-6f" transform="translate(96.484375 -16.521875) scale(0.7)"/>
      <use xlink:href="#Cmr10-6f" transform="translate(131.484375 -16.521875) scale(0.7)"/>
      <use xlink:href="#Cmr10-7a" transform="translate(166.484375 -16.521875) scale(0.7)"/>
      <use xlink:href="#Cmr10-65" transform="translate(197.553711 -16.521875) scale(0.7)"/>
      <use xlink:href="#Cmr10-72" transform="translate(228.623047 -16.521875) scale(0.7)"/>
     </g>
    </g>
   </g>
   <g id="QuadContourSet_1">
    <path d="M 231.573125 152.866094 
L 231.573125 152.866094 
L 231.573125 152.866094 
L 231.573125 152.866094 
L 231.573125 152.866094 
z
" clip-path="url(#p3179526dc2)" style="fill: none; stroke: #000080"/>
    <path d="M 214.035933 284.294375 
L 215.052125 281.330323 
L 217.570145 275.53249 
L 217.805625 274.956438 
L 219.008711 272.611861 
L 220.559125 269.277638 
L 221.931137 266.770604 
L 223.363248 263.849976 
L 224.971014 260.929347 
L 226.445984 258.008719 
L 229.416576 252.167462 
L 232.211999 246.326205 
L 234.819692 240.484948 
L 237.258762 234.643691 
L 239.605463 228.802434 
L 239.833625 228.161547 
L 241.92045 222.961177 
L 243.083995 220.040549 
L 245.637525 214.199292 
L 248.094125 209.7498 
L 249.224655 208.358035 
L 250.847625 206.589949 
L 253.601125 205.022677 
L 256.354625 204.678217 
L 259.108125 205.531739 
L 261.861625 208.849516 
L 262.470043 211.278663 
L 262.840243 214.199292 
L 262.946686 217.11992 
L 262.875151 220.040549 
L 262.412418 225.881806 
L 261.655274 231.723062 
L 259.518404 243.405576 
L 258.990493 246.326205 
L 257.667583 252.167462 
L 255.807746 260.929347 
L 254.3854 266.770604 
L 253.601125 270.264505 
L 251.996304 275.53249 
L 250.847625 279.618896 
L 249.110317 284.294375 
M 249.110317 21.437813 
L 248.094125 24.401865 
L 245.576105 30.199698 
L 245.340625 30.775749 
L 244.137539 33.120326 
L 242.587125 36.454549 
L 241.215113 38.961583 
L 239.783002 41.882212 
L 238.175236 44.80284 
L 236.700266 47.723469 
L 233.729674 53.564726 
L 230.934251 59.405983 
L 228.326558 65.24724 
L 225.887488 71.088497 
L 223.540787 76.929753 
L 223.312625 77.570641 
L 221.2258 82.77101 
L 220.062255 85.691639 
L 217.508725 91.532896 
L 215.052125 95.982387 
L 213.921595 97.374153 
L 212.298625 99.142238 
L 209.545125 100.709511 
L 206.791625 101.053971 
L 204.038125 100.200449 
L 201.284625 96.882671 
L 200.676207 94.453524 
L 200.306007 91.532896 
L 200.199564 88.612267 
L 200.271099 85.691639 
L 200.733832 79.850382 
L 201.490976 74.009125 
L 203.627846 62.326611 
L 204.155757 59.405983 
L 205.478667 53.564726 
L 207.338504 44.80284 
L 208.76085 38.961583 
L 209.545125 35.467682 
L 211.149946 30.199698 
L 212.298625 26.113292 
L 214.035933 21.437813 
M 223.312625 185.84713 
L 220.559125 184.927175 
L 217.805625 182.050651 
L 216.715727 179.15175 
L 215.886191 176.231122 
L 215.052125 172.222257 
L 214.523867 167.469236 
L 214.077797 161.627979 
L 213.825131 155.786722 
L 213.789673 149.945465 
L 214.035914 144.104208 
L 214.296278 141.18358 
L 215.052125 136.016555 
L 215.202498 135.342323 
L 215.977648 132.421694 
L 216.950445 129.501066 
L 217.805625 127.376194 
L 218.258224 126.580438 
L 220.559125 123.169093 
L 223.312625 121.024938 
L 226.066125 120.015497 
L 228.819625 119.648592 
L 234.326625 119.5645 
L 237.080125 119.617379 
L 239.833625 119.885058 
L 242.587125 120.805012 
L 245.340625 123.681537 
L 246.430523 126.580438 
L 247.260059 129.501066 
L 248.094125 133.509931 
L 248.622383 138.262951 
L 249.068453 144.104208 
L 249.321119 149.945465 
L 249.356577 155.786722 
L 249.110336 161.627979 
L 248.849972 164.548608 
L 248.094125 169.715633 
L 247.943752 170.389865 
L 247.168602 173.310493 
L 246.195805 176.231122 
L 245.340625 178.355993 
L 244.888026 179.15175 
L 242.587125 182.563095 
L 239.833625 184.70725 
L 237.080125 185.71669 
L 234.326625 186.083596 
L 228.819625 186.167688 
L 226.066125 186.114809 
L 223.312625 185.84713 
L 223.312625 185.84713 
" clip-path="url(#p3179526dc2)" style="fill: none; stroke: #0000a4"/>
    <path d="M 209.46779 284.294375 
L 209.545125 283.993968 
L 213.342257 272.611861 
L 215.554627 266.770604 
L 221.532729 252.167462 
L 223.65442 246.326205 
L 224.659004 243.405576 
L 226.334293 237.564319 
L 227.099157 234.643691 
L 228.290704 228.802434 
L 229.105678 222.961177 
L 229.361022 220.040549 
L 229.465561 217.11992 
L 229.385997 214.199292 
L 229.064424 211.278663 
L 228.43554 208.358035 
L 227.330076 205.437406 
L 225.398978 202.516778 
L 223.312625 200.583416 
L 221.977178 199.596149 
L 217.805625 197.048032 
L 217.380537 196.675521 
L 215.052125 194.469511 
L 214.61812 193.754892 
L 213.185644 190.834264 
L 212.17511 187.913635 
L 211.121929 182.072378 
L 209.999356 173.310493 
L 209.114739 164.548608 
L 207.652969 149.945465 
L 206.50572 141.18358 
L 205.998029 138.262951 
L 205.336816 135.342323 
L 204.038125 131.413057 
L 203.073067 129.501066 
L 200.96882 126.580438 
L 198.531125 124.394243 
L 195.777625 122.532421 
L 193.642596 120.739181 
L 193.024125 120.060224 
L 191.974674 117.818552 
L 191.237355 114.897924 
L 190.971 111.977295 
L 191.005286 109.056667 
L 191.548367 103.21541 
L 192.381266 97.374153 
L 193.024125 93.523699 
L 196.010694 79.850382 
L 197.43701 74.009125 
L 203.316238 47.723469 
L 204.554036 41.882212 
L 206.491451 33.120326 
L 207.199594 30.199698 
L 209.46779 21.437813 
M 253.67846 21.437813 
L 253.601125 21.738219 
L 249.803993 33.120326 
L 247.591623 38.961583 
L 241.613521 53.564726 
L 239.49183 59.405983 
L 238.487246 62.326611 
L 236.811957 68.167868 
L 236.047093 71.088497 
L 234.855546 76.929753 
L 234.040572 82.77101 
L 233.785228 85.691639 
L 233.680689 88.612267 
L 233.760253 91.532896 
L 234.081826 94.453524 
L 234.71071 97.374153 
L 235.816174 100.294781 
L 237.747272 103.21541 
L 239.833625 105.148771 
L 241.169072 106.136038 
L 245.340625 108.684155 
L 245.765713 109.056667 
L 248.094125 111.262676 
L 248.52813 111.977295 
L 249.960606 114.897924 
L 250.97114 117.818552 
L 252.024321 123.659809 
L 253.146894 132.421694 
L 254.031511 141.18358 
L 255.493281 155.786722 
L 256.64053 164.548608 
L 257.148221 167.469236 
L 257.809434 170.389865 
L 259.108125 174.319131 
L 260.073183 176.231122 
L 262.17743 179.15175 
L 264.615125 181.337945 
L 267.368625 183.199766 
L 269.503654 184.993007 
L 270.122125 185.671963 
L 271.171576 187.913635 
L 271.908895 190.834264 
L 272.17525 193.754892 
L 272.140964 196.675521 
L 271.597883 202.516778 
L 270.764984 208.358035 
L 270.122125 212.208489 
L 267.135556 225.881806 
L 265.70924 231.723062 
L 259.830012 258.008719 
L 258.592214 263.849976 
L 256.654799 272.611861 
L 255.946656 275.53249 
L 253.67846 284.294375 
L 253.67846 284.294375 
" clip-path="url(#p3179526dc2)" style="fill: none; stroke: #0000cd"/>
    <path d="M 206.489044 284.294375 
L 207.230714 281.373747 
L 209.6276 272.611861 
L 218.095374 246.326205 
L 219.568608 240.484948 
L 220.637156 234.643691 
L 221.053107 231.723062 
L 221.343583 228.802434 
L 221.496923 225.881806 
L 221.491272 222.961177 
L 221.289941 220.040549 
L 220.559125 216.057128 
L 220.048698 214.199292 
L 218.780372 211.278663 
L 216.861924 208.358035 
L 214.388905 205.437406 
L 212.091565 202.516778 
L 210.621384 199.596149 
L 209.489973 196.675521 
L 208.846023 193.754892 
L 207.910387 187.913635 
L 206.791625 178.43911 
L 205.630806 167.469236 
L 204.862142 161.627979 
L 203.922906 155.786722 
L 202.750571 149.945465 
L 201.984796 147.024837 
L 201.032001 144.104208 
L 199.780435 141.18358 
L 198.044305 138.262951 
L 195.407823 135.342323 
L 191.600047 132.421694 
L 190.270625 131.400412 
L 188.422842 129.501066 
L 187.517125 128.278327 
L 186.710259 126.580438 
L 185.852261 123.659809 
L 185.431372 120.739181 
L 185.321808 117.818552 
L 185.428202 114.897924 
L 186.040836 109.056667 
L 186.958812 103.21541 
L 187.517125 100.1732 
L 190.243235 88.612267 
L 192.693168 79.850382 
L 196.754699 65.24724 
L 198.866211 56.485354 
L 200.196433 50.644097 
L 204.492562 30.199698 
L 206.489044 21.437813 
M 256.657206 21.437813 
L 255.915536 24.358441 
L 253.51865 33.120326 
L 245.050876 59.405983 
L 243.577642 65.24724 
L 242.509094 71.088497 
L 242.093143 74.009125 
L 241.802667 76.929753 
L 241.649327 79.850382 
L 241.654978 82.77101 
L 241.856309 85.691639 
L 242.587125 89.675059 
L 243.097552 91.532896 
L 244.365878 94.453524 
L 246.284326 97.374153 
L 248.757345 100.294781 
L 251.054685 103.21541 
L 252.524866 106.136038 
L 253.656277 109.056667 
L 254.300227 111.977295 
L 255.235863 117.818552 
L 256.354625 127.293078 
L 257.515444 138.262951 
L 258.284108 144.104208 
L 259.223344 149.945465 
L 260.395679 155.786722 
L 261.161454 158.707351 
L 262.114249 161.627979 
L 263.365815 164.548608 
L 265.101945 167.469236 
L 267.738427 170.389865 
L 271.546203 173.310493 
L 272.875625 174.331775 
L 274.723408 176.231122 
L 275.629125 177.45386 
L 276.435991 179.15175 
L 277.293989 182.072378 
L 277.714878 184.993007 
L 277.824442 187.913635 
L 277.718048 190.834264 
L 277.105414 196.675521 
L 276.187438 202.516778 
L 275.629125 205.558987 
L 272.903015 217.11992 
L 270.453082 225.881806 
L 266.391551 240.484948 
L 264.280039 249.246833 
L 262.949817 255.08809 
L 258.653688 275.53249 
L 256.657206 284.294375 
L 256.657206 284.294375 
" clip-path="url(#p3179526dc2)" style="fill: none; stroke: #0000f6"/>
    <path d="M 204.055385 284.294375 
L 207.554055 269.691233 
L 213.718825 246.326205 
L 214.801748 240.484948 
L 215.532697 234.643691 
L 215.718846 231.723062 
L 215.753727 228.802434 
L 215.606888 225.881806 
L 215.052125 222.124269 
L 214.590468 220.040549 
L 213.598145 217.11992 
L 212.177679 214.199292 
L 208.992318 208.358035 
L 207.781312 205.437406 
L 206.788519 202.516778 
L 206.188377 199.596149 
L 205.320006 193.754892 
L 204.038125 181.614295 
L 203.157915 173.310493 
L 202.36129 167.469236 
L 201.284625 161.334509 
L 200.03274 155.786722 
L 198.531125 150.965399 
L 198.134951 149.945465 
L 196.780609 147.024837 
L 195.777625 145.279049 
L 194.938566 144.104208 
L 193.024125 141.873221 
L 192.27308 141.18358 
L 188.63091 138.262951 
L 187.517125 137.38705 
L 184.763625 134.686761 
L 183.325142 132.421694 
L 182.010125 129.078332 
L 181.508812 126.580438 
L 181.232807 123.659809 
L 181.18767 120.739181 
L 181.314039 117.818552 
L 181.929801 111.977295 
L 182.907108 106.136038 
L 184.093565 100.294781 
L 185.49788 94.453524 
L 187.517125 87.144544 
L 190.270625 78.340157 
L 193.466304 68.167868 
L 195.12779 62.326611 
L 197.351418 53.564726 
L 199.914921 41.882212 
L 204.055385 21.437813 
M 259.090865 21.437813 
L 255.592195 36.040955 
L 249.427425 59.405983 
L 248.344502 65.24724 
L 247.613553 71.088497 
L 247.427404 74.009125 
L 247.392523 76.929753 
L 247.539362 79.850382 
L 248.094125 83.607919 
L 248.555782 85.691639 
L 249.548105 88.612267 
L 250.968571 91.532896 
L 254.153932 97.374153 
L 255.364938 100.294781 
L 256.357731 103.21541 
L 256.957873 106.136038 
L 257.826244 111.977295 
L 259.108125 124.117893 
L 259.988335 132.421694 
L 260.78496 138.262951 
L 261.861625 144.397679 
L 263.11351 149.945465 
L 264.615125 154.766788 
L 265.011299 155.786722 
L 266.365641 158.707351 
L 267.368625 160.453138 
L 268.207684 161.627979 
L 270.122125 163.858967 
L 270.87317 164.548608 
L 274.51534 167.469236 
L 275.629125 168.345138 
L 278.382625 171.045427 
L 279.821108 173.310493 
L 281.136125 176.653855 
L 281.637438 179.15175 
L 281.913443 182.072378 
L 281.95858 184.993007 
L 281.832211 187.913635 
L 281.216449 193.754892 
L 280.239142 199.596149 
L 279.052685 205.437406 
L 277.64837 211.278663 
L 275.629125 218.587643 
L 272.875625 227.39203 
L 269.679946 237.564319 
L 268.01846 243.405576 
L 265.794832 252.167462 
L 263.231329 263.849976 
L 259.090865 284.294375 
L 259.090865 284.294375 
" clip-path="url(#p3179526dc2)" style="fill: none; stroke: #000cff"/>
    <path d="M 201.96675 284.294375 
L 204.941127 269.691233 
L 209.545125 248.25978 
L 210.356803 243.405576 
L 210.965712 237.564319 
L 211.08947 234.643691 
L 211.063301 231.723062 
L 210.855722 228.802434 
L 210.426257 225.881806 
L 209.545125 222.405623 
L 208.795961 220.040549 
L 205.43439 211.278663 
L 204.038125 206.244896 
L 203.421751 202.516778 
L 202.732428 196.675521 
L 200.706038 176.231122 
L 199.853603 170.389865 
L 198.7276 164.548608 
L 198.02733 161.627979 
L 197.197949 158.707351 
L 195.777625 154.720574 
L 194.931203 152.866094 
L 193.024125 149.528167 
L 190.270625 146.25044 
L 187.517125 143.887057 
L 184.064255 141.18358 
L 182.010125 139.218499 
L 181.195293 138.262951 
L 179.256625 135.067575 
L 178.312607 132.421694 
L 177.702158 129.501066 
L 177.408614 126.580438 
L 177.346426 123.659809 
L 177.457797 120.739181 
L 178.057344 114.897924 
L 179.018723 109.056667 
L 180.890948 100.294781 
L 182.39802 94.453524 
L 184.09691 88.612267 
L 186.995941 79.850382 
L 190.270625 70.472042 
L 193.024125 61.837195 
L 194.52066 56.485354 
L 196.678595 47.723469 
L 198.535648 38.961583 
L 200.279115 30.199698 
L 201.96675 21.437813 
M 261.1795 21.437813 
L 258.205123 36.040955 
L 253.601125 57.472407 
L 252.789447 62.326611 
L 252.180538 68.167868 
L 252.05678 71.088497 
L 252.082949 74.009125 
L 252.290528 76.929753 
L 252.719993 79.850382 
L 253.601125 83.326564 
L 254.350289 85.691639 
L 257.71186 94.453524 
L 259.108125 99.487292 
L 259.724499 103.21541 
L 260.413822 109.056667 
L 262.440212 129.501066 
L 263.292647 135.342323 
L 264.41865 141.18358 
L 265.11892 144.104208 
L 265.948301 147.024837 
L 267.368625 151.011613 
L 268.215047 152.866094 
L 270.122125 156.204021 
L 272.875625 159.481747 
L 275.629125 161.84513 
L 279.081995 164.548608 
L 281.136125 166.513689 
L 281.950957 167.469236 
L 283.889625 170.664612 
L 284.833643 173.310493 
L 285.444092 176.231122 
L 285.737636 179.15175 
L 285.799824 182.072378 
L 285.688453 184.993007 
L 285.088906 190.834264 
L 284.127527 196.675521 
L 282.255302 205.437406 
L 280.74823 211.278663 
L 279.04934 217.11992 
L 276.150309 225.881806 
L 272.875625 235.260146 
L 270.122125 243.894992 
L 268.62559 249.246833 
L 266.467655 258.008719 
L 264.610602 266.770604 
L 262.867135 275.53249 
L 261.1795 284.294375 
L 261.1795 284.294375 
" clip-path="url(#p3179526dc2)" style="fill: none; stroke: #0030ff"/>
    <path d="M 199.977361 284.294375 
L 206.039706 249.246833 
L 206.742589 243.405576 
L 207.066444 237.564319 
L 207.02159 234.643691 
L 206.791625 231.651192 
L 206.399663 228.802434 
L 205.797375 225.881806 
L 205.007692 222.961177 
L 203.25706 217.11992 
L 201.853175 211.278663 
L 201.284625 208.144636 
L 200.636363 202.516778 
L 198.479221 179.15175 
L 197.588743 173.310493 
L 196.380978 167.469236 
L 195.615013 164.548608 
L 194.685071 161.627979 
L 193.024125 157.492688 
L 192.12843 155.786722 
L 190.270625 152.863662 
L 187.517125 149.8168 
L 184.073027 147.024837 
L 180.30938 144.104208 
L 179.256625 143.122596 
L 177.496874 141.18358 
L 176.503125 139.703026 
L 175.676919 138.262951 
L 174.54695 135.342323 
L 173.749625 131.407461 
L 173.525633 129.501066 
L 173.413176 126.580438 
L 173.484452 123.659809 
L 174.033393 117.818552 
L 174.96526 111.977295 
L 176.198758 106.136038 
L 178.411319 97.374153 
L 181.088643 88.612267 
L 184.194621 79.850382 
L 187.517125 71.050814 
L 190.592856 62.326611 
L 193.024125 54.321437 
L 194.713879 47.723469 
L 196.677326 38.961583 
L 198.93252 27.279069 
L 199.977361 21.437813 
M 263.168889 21.437813 
L 257.106544 56.485354 
L 256.403661 62.326611 
L 256.079806 68.167868 
L 256.12466 71.088497 
L 256.354625 74.080995 
L 256.746587 76.929753 
L 257.348875 79.850382 
L 258.138558 82.77101 
L 259.88919 88.612267 
L 261.293075 94.453524 
L 261.861625 97.587551 
L 262.509887 103.21541 
L 264.667029 126.580438 
L 265.557507 132.421694 
L 266.765272 138.262951 
L 267.531237 141.18358 
L 268.461179 144.104208 
L 270.122125 148.239499 
L 271.01782 149.945465 
L 272.875625 152.868525 
L 275.629125 155.915388 
L 279.073223 158.707351 
L 282.83687 161.627979 
L 283.889625 162.609592 
L 285.649376 164.548608 
L 286.643125 166.029161 
L 287.469331 167.469236 
L 288.5993 170.389865 
L 289.396625 174.324726 
L 289.620617 176.231122 
L 289.733074 179.15175 
L 289.661798 182.072378 
L 289.112857 187.913635 
L 288.18099 193.754892 
L 286.947492 199.596149 
L 284.734931 208.358035 
L 282.057607 217.11992 
L 278.951629 225.881806 
L 275.629125 234.681373 
L 272.553394 243.405576 
L 270.122125 251.41075 
L 268.432371 258.008719 
L 266.468924 266.770604 
L 264.21373 278.453118 
L 263.168889 284.294375 
L 263.168889 284.294375 
" clip-path="url(#p3179526dc2)" style="fill: none; stroke: #0050ff"/>
    <path d="M 198.026733 284.294375 
L 199.33006 275.53249 
L 202.812657 249.246833 
L 203.317034 243.405576 
L 203.419352 240.484948 
L 203.391219 237.564319 
L 203.213106 234.643691 
L 202.873677 231.723062 
L 202.376898 228.802434 
L 199.879249 217.11992 
L 198.968659 211.278663 
L 198.3682 205.437406 
L 196.763964 184.993007 
L 195.981617 179.15175 
L 195.483303 176.231122 
L 194.200897 170.389865 
L 193.024125 166.340544 
L 192.377603 164.548608 
L 191.140305 161.627979 
L 189.565871 158.707351 
L 187.497754 155.786722 
L 184.569002 152.866094 
L 180.66954 149.945465 
L 176.503125 146.820887 
L 173.749625 144.006021 
L 171.92337 141.18358 
L 170.689633 138.262951 
L 169.931126 135.342323 
L 169.494384 132.421694 
L 169.300797 129.501066 
L 169.2968 126.580438 
L 169.44641 123.659809 
L 169.725298 120.739181 
L 170.60751 114.897924 
L 171.813082 109.056667 
L 173.290143 103.21541 
L 175.900301 94.453524 
L 179.256625 85.057697 
L 181.261077 79.850382 
L 184.81416 71.088497 
L 188.170841 62.326611 
L 190.270625 56.243403 
L 192.721975 47.723469 
L 193.459745 44.80284 
L 195.4058 36.040955 
L 196.534801 30.199698 
L 198.026733 21.437813 
M 265.119517 21.437813 
L 263.81619 30.199698 
L 260.333593 56.485354 
L 259.829216 62.326611 
L 259.726898 65.24724 
L 259.755031 68.167868 
L 259.933144 71.088497 
L 260.272573 74.009125 
L 260.769352 76.929753 
L 263.267001 88.612267 
L 264.177591 94.453524 
L 264.77805 100.294781 
L 266.382286 120.739181 
L 267.164633 126.580437 
L 267.662947 129.501066 
L 268.945353 135.342323 
L 270.122125 139.391644 
L 270.768647 141.18358 
L 272.005945 144.104208 
L 273.580379 147.024837 
L 275.648496 149.945465 
L 278.577248 152.866094 
L 282.47671 155.786722 
L 286.643125 158.911301 
L 289.396625 161.726167 
L 291.22288 164.548608 
L 292.456617 167.469236 
L 293.215124 170.389865 
L 293.651866 173.310493 
L 293.845453 176.231122 
L 293.84945 179.15175 
L 293.69984 182.072378 
L 293.420952 184.993007 
L 292.53874 190.834264 
L 291.333168 196.675521 
L 289.856107 202.516778 
L 287.245949 211.278663 
L 283.889625 220.67449 
L 281.885173 225.881806 
L 278.33209 234.643691 
L 274.975409 243.405576 
L 272.875625 249.488785 
L 270.424275 258.008719 
L 269.686505 260.929347 
L 267.74045 269.691233 
L 266.611449 275.53249 
L 265.119517 284.294375 
L 265.119517 284.294375 
" clip-path="url(#p3179526dc2)" style="fill: none; stroke: #0074ff"/>
    <path d="M 196.05203 284.294375 
L 196.774492 278.453118 
L 197.587295 269.691233 
L 198.531125 259.209234 
L 199.797806 246.326205 
L 199.929373 243.405576 
L 199.947307 240.484948 
L 199.836474 237.564319 
L 199.592698 234.643691 
L 198.765518 228.802434 
L 197.818668 222.961177 
L 197.012793 217.11992 
L 196.423516 211.278663 
L 195.777625 201.538838 
L 195.28582 193.754892 
L 194.75105 187.913635 
L 193.976337 182.072378 
L 192.86958 176.231122 
L 192.130465 173.310493 
L 191.253137 170.389865 
L 190.205748 167.469236 
L 188.838707 164.548608 
L 187.137972 161.627979 
L 184.763625 158.621509 
L 181.58206 155.786722 
L 177.330845 152.866094 
L 173.197382 149.945465 
L 170.185789 147.024837 
L 168.161585 144.104208 
L 166.86881 141.18358 
L 166.008942 138.262951 
L 165.475784 135.342323 
L 165.202621 132.421694 
L 165.110081 129.501066 
L 165.166384 126.580438 
L 165.489125 122.277228 
L 166.056994 117.818552 
L 167.147638 111.977295 
L 168.55759 106.136038 
L 170.248499 100.294781 
L 172.202312 94.453524 
L 174.426861 88.612267 
L 178.086223 79.850382 
L 182.010125 70.869842 
L 186.673589 59.405983 
L 187.767687 56.485354 
L 190.270625 48.849826 
L 192.119509 41.882212 
L 193.475466 36.040955 
L 195.127995 27.279069 
L 196.05203 21.437813 
M 267.09422 21.437813 
L 266.371758 27.279069 
L 265.558955 36.040955 
L 264.615125 46.522953 
L 263.348444 59.405983 
L 263.216877 62.326611 
L 263.198943 65.24724 
L 263.309776 68.167868 
L 263.553552 71.088497 
L 264.380732 76.929753 
L 265.327582 82.77101 
L 266.133457 88.612267 
L 266.722734 94.453524 
L 267.368625 104.19335 
L 267.86043 111.977295 
L 268.3952 117.818552 
L 269.169913 123.659809 
L 270.27667 129.501066 
L 271.015785 132.421694 
L 271.893113 135.342323 
L 272.940502 138.262951 
L 274.307543 141.18358 
L 276.008278 144.104208 
L 278.382625 147.110678 
L 281.56419 149.945465 
L 285.815405 152.866094 
L 289.948868 155.786722 
L 292.960461 158.707351 
L 294.984665 161.627979 
L 296.27744 164.548608 
L 297.137308 167.469236 
L 297.670466 170.389865 
L 297.943629 173.310493 
L 298.036169 176.231122 
L 297.979866 179.15175 
L 297.657125 183.45496 
L 297.089256 187.913635 
L 295.998612 193.754892 
L 294.58866 199.596149 
L 292.897751 205.437406 
L 290.943938 211.278663 
L 288.719389 217.11992 
L 285.060027 225.881806 
L 281.136125 234.862345 
L 276.472661 246.326205 
L 275.378563 249.246833 
L 272.875625 256.882361 
L 271.026741 263.849976 
L 269.670784 269.691233 
L 268.018255 278.453118 
L 267.09422 284.294375 
L 267.09422 284.294375 
" clip-path="url(#p3179526dc2)" style="fill: none; stroke: #0098ff"/>
    <path d="M 193.89168 284.294375 
L 194.440308 278.453118 
L 194.711253 272.611861 
L 194.920219 263.849976 
L 195.372319 258.008719 
L 196.239658 249.246833 
L 196.527378 243.405576 
L 196.397133 237.564319 
L 195.884952 231.723062 
L 194.938388 222.961177 
L 194.217194 214.199292 
L 192.776232 190.834264 
L 192.010983 184.993007 
L 190.881387 179.15175 
L 190.1359 176.231122 
L 189.189505 173.310493 
L 187.517125 169.174034 
L 186.606257 167.469236 
L 184.763625 164.538142 
L 182.010125 161.432687 
L 178.58424 158.707351 
L 173.980061 155.786722 
L 170.996125 153.812766 
L 169.736593 152.866094 
L 168.242625 151.558899 
L 166.701764 149.945465 
L 165.489125 148.338776 
L 164.660496 147.024837 
L 163.285165 144.104208 
L 162.368446 141.18358 
L 161.788044 138.262951 
L 161.42868 135.342323 
L 161.245595 132.421694 
L 161.206819 129.501066 
L 161.479832 123.659809 
L 162.139698 117.818552 
L 163.157261 111.977295 
L 164.526345 106.136038 
L 166.199723 100.294781 
L 168.242625 94.404471 
L 170.598465 88.612267 
L 175.964288 76.929753 
L 178.696982 71.088497 
L 180.032583 68.167868 
L 182.631361 62.326611 
L 185.06233 56.485354 
L 187.517125 49.857747 
L 189.931792 41.882212 
L 190.685614 38.961583 
L 191.979491 33.120326 
L 193.100798 27.279069 
L 193.89168 21.437813 
M 269.25457 21.437813 
L 268.705942 27.279069 
L 268.434997 33.120326 
L 268.226031 41.882212 
L 267.773931 47.723469 
L 266.906592 56.485354 
L 266.618872 62.326611 
L 266.749117 68.167868 
L 267.261298 74.009125 
L 268.207862 82.77101 
L 268.929056 91.532896 
L 270.370018 114.897924 
L 271.135267 120.739181 
L 272.264863 126.580438 
L 273.01035 129.501066 
L 273.956745 132.421694 
L 275.629125 136.558154 
L 276.539993 138.262951 
L 278.382625 141.194046 
L 281.136125 144.2995 
L 284.56201 147.024837 
L 289.166189 149.945465 
L 292.150125 151.919421 
L 293.409657 152.866094 
L 294.903625 154.173288 
L 296.444486 155.786722 
L 297.657125 157.393412 
L 298.485754 158.707351 
L 299.861085 161.627979 
L 300.777804 164.548608 
L 301.358206 167.469236 
L 301.71757 170.389865 
L 301.900655 173.310493 
L 301.939431 176.231122 
L 301.666418 182.072378 
L 301.006552 187.913635 
L 299.988989 193.754892 
L 298.619905 199.596149 
L 296.946527 205.437406 
L 294.903625 211.327716 
L 292.547785 217.11992 
L 287.181962 228.802434 
L 284.449268 234.643691 
L 283.113667 237.564319 
L 280.514889 243.405576 
L 278.08392 249.246833 
L 275.629125 255.87444 
L 273.214458 263.849976 
L 272.460636 266.770604 
L 271.166759 272.611861 
L 270.045452 278.453118 
L 269.25457 284.294375 
L 269.25457 284.294375 
" clip-path="url(#p3179526dc2)" style="fill: none; stroke: #00bcff"/>
    <path d="M 191.441224 284.294375 
L 191.641926 281.373747 
L 191.72363 278.453118 
L 191.528049 272.611861 
L 191.21768 266.770604 
L 191.249359 263.849976 
L 191.445873 260.929347 
L 193.024125 245.717752 
L 193.157605 240.484948 
L 192.98379 234.643691 
L 191.636978 208.358035 
L 191.245058 199.596149 
L 190.794371 193.754892 
L 190.064682 187.913635 
L 189.542908 184.993007 
L 188.903418 182.072378 
L 187.517125 177.195252 
L 187.166682 176.231122 
L 185.93203 173.310493 
L 184.404004 170.389865 
L 182.010125 167.030632 
L 179.256625 164.293146 
L 175.542767 161.627979 
L 168.242625 157.099222 
L 165.489125 154.90077 
L 163.546554 152.866094 
L 162.735625 151.826232 
L 161.523392 149.945465 
L 159.982125 146.735964 
L 159.152135 144.104208 
L 158.500508 141.18358 
L 158.065268 138.262951 
L 157.802655 135.342323 
L 157.680479 132.421694 
L 157.772624 126.580438 
L 158.230519 120.739181 
L 159.001696 114.897924 
L 160.060554 109.056667 
L 161.486104 103.21541 
L 163.205776 97.374153 
L 165.489125 91.157993 
L 168.242625 84.937565 
L 170.996125 79.311936 
L 179.365341 62.326611 
L 183.185024 53.564726 
L 185.445392 47.723469 
L 187.517125 41.564063 
L 188.957604 36.040955 
L 190.283139 30.199698 
L 191.137656 24.358441 
L 191.441224 21.437813 
M 271.705026 21.437813 
L 271.504324 24.358441 
L 271.42262 27.279069 
L 271.618201 33.120326 
L 271.92857 38.961583 
L 271.896891 41.882212 
L 271.700377 44.80284 
L 270.122125 60.014435 
L 269.988645 65.24724 
L 270.16246 71.088497 
L 271.509272 97.374153 
L 271.901192 106.136038 
L 272.351879 111.977295 
L 273.081568 117.818552 
L 273.603342 120.739181 
L 274.242832 123.659809 
L 275.629125 128.536935 
L 275.979568 129.501066 
L 277.21422 132.421694 
L 278.742246 135.342323 
L 281.136125 138.701555 
L 283.889625 141.439042 
L 287.603483 144.104208 
L 294.903625 148.632966 
L 297.657125 150.831417 
L 299.599696 152.866094 
L 300.410625 153.905955 
L 301.622858 155.786722 
L 303.164125 158.996224 
L 303.994115 161.627979 
L 304.645742 164.548608 
L 305.080982 167.469236 
L 305.343595 170.389865 
L 305.465771 173.310493 
L 305.373626 179.15175 
L 304.915731 184.993007 
L 304.144554 190.834264 
L 303.085696 196.675521 
L 301.660146 202.516778 
L 299.940474 208.358035 
L 297.657125 214.574195 
L 294.903625 220.794622 
L 292.150125 226.420252 
L 283.780909 243.405576 
L 279.961226 252.167462 
L 277.700858 258.008719 
L 275.629125 264.168125 
L 274.188646 269.691233 
L 272.863111 275.53249 
L 272.008594 281.373747 
L 271.705026 284.294375 
L 271.705026 284.294375 
" clip-path="url(#p3179526dc2)" style="fill: none; stroke: #00e0fb"/>
    <path d="M 188.448895 284.294375 
L 188.453833 281.373747 
L 188.263671 278.453118 
L 187.058121 269.691233 
L 186.95523 266.770604 
L 187.121527 263.849976 
L 187.93176 258.008719 
L 188.868963 252.167462 
L 189.565731 246.326205 
L 189.913503 240.484948 
L 189.971465 234.643691 
L 189.7217 222.961177 
L 189.169918 202.516778 
L 188.767395 196.675521 
L 188.073071 190.834264 
L 187.517125 187.60002 
L 186.923628 184.993007 
L 186.10755 182.072378 
L 184.763625 178.261607 
L 183.807955 176.231122 
L 182.010125 173.053249 
L 179.256625 169.648877 
L 176.503125 167.204917 
L 172.506292 164.548608 
L 167.639645 161.627979 
L 165.489125 160.172022 
L 162.735625 157.89028 
L 160.792411 155.786722 
L 159.982125 154.742529 
L 158.77686 152.866094 
L 157.228625 149.758686 
L 156.312606 147.024837 
L 155.596799 144.104208 
L 155.094287 141.18358 
L 154.762572 138.262951 
L 154.56923 135.342323 
L 154.509621 129.501066 
L 154.79797 123.659809 
L 155.379605 117.818552 
L 156.228938 111.977295 
L 157.332047 106.136038 
L 158.780704 100.294781 
L 160.523134 94.453524 
L 162.735625 88.448169 
L 165.489125 82.245282 
L 169.627359 74.009125 
L 174.165635 65.24724 
L 178.428951 56.485354 
L 179.761019 53.564726 
L 182.236712 47.723469 
L 184.763625 40.757401 
L 186.105659 36.040955 
L 187.517125 30.119499 
L 187.945997 27.279069 
L 188.269587 24.358441 
L 188.448895 21.437813 
M 274.697355 21.437813 
L 274.692417 24.358441 
L 274.882579 27.279069 
L 276.088129 36.040955 
L 276.19102 38.961583 
L 276.024723 41.882212 
L 275.21449 47.723469 
L 274.277287 53.564726 
L 273.580519 59.405983 
L 273.232747 65.24724 
L 273.174785 71.088497 
L 273.42455 82.77101 
L 273.976332 103.21541 
L 274.378855 109.056667 
L 275.073179 114.897924 
L 275.629125 118.132167 
L 276.222622 120.739181 
L 277.0387 123.659809 
L 278.382625 127.470581 
L 279.338295 129.501066 
L 281.136125 132.678938 
L 283.889625 136.083311 
L 286.643125 138.52727 
L 290.639958 141.18358 
L 295.506605 144.104208 
L 297.657125 145.560166 
L 300.410625 147.841908 
L 302.353839 149.945465 
L 303.164125 150.989659 
L 304.36939 152.866094 
L 305.917625 155.973502 
L 306.833644 158.707351 
L 307.549451 161.627979 
L 308.051963 164.548608 
L 308.383678 167.469236 
L 308.57702 170.389865 
L 308.636629 176.231122 
L 308.34828 182.072378 
L 307.766645 187.913635 
L 306.917312 193.754892 
L 305.814203 199.596149 
L 304.365546 205.437406 
L 302.623116 211.278663 
L 300.410625 217.284018 
L 297.657125 223.486905 
L 293.518891 231.723062 
L 288.980615 240.484948 
L 284.717299 249.246833 
L 283.385231 252.167462 
L 280.909538 258.008719 
L 278.382625 264.974786 
L 277.040591 269.691233 
L 275.629125 275.612689 
L 275.200253 278.453118 
L 274.876663 281.373747 
L 274.697355 284.294375 
L 274.697355 284.294375 
" clip-path="url(#p3179526dc2)" style="fill: none; stroke: #19ffde"/>
    <path d="M 184.504434 284.294375 
L 184.152505 281.373747 
L 182.480453 272.611861 
L 182.361233 269.691233 
L 182.556138 266.770604 
L 182.974023 263.849976 
L 184.763625 254.858669 
L 185.78666 249.246833 
L 186.526092 243.405576 
L 186.943533 237.564319 
L 187.133362 231.723062 
L 187.21998 220.040549 
L 187.117481 208.358035 
L 186.884586 202.516778 
L 186.396488 196.675521 
L 186.017421 193.754892 
L 185.525543 190.834264 
L 184.763625 187.371844 
L 184.059562 184.993007 
L 182.998869 182.072378 
L 181.660649 179.15175 
L 179.256625 175.37787 
L 176.503125 172.371998 
L 173.749625 170.141647 
L 169.573099 167.469236 
L 164.886389 164.548608 
L 162.735625 162.98816 
L 159.982125 160.517449 
L 158.396544 158.707351 
L 157.228625 157.157062 
L 156.364265 155.786722 
L 154.475125 151.914008 
L 153.785217 149.945465 
L 153.007917 147.024837 
L 152.442654 144.104208 
L 152.048557 141.18358 
L 151.721625 136.800849 
L 151.614279 132.421694 
L 151.754993 126.580438 
L 152.180919 120.739181 
L 152.857999 114.897924 
L 153.77173 109.056667 
L 154.941309 103.21541 
L 156.396003 97.374153 
L 157.228625 94.379642 
L 159.175986 88.612267 
L 160.266385 85.691639 
L 162.735625 79.83798 
L 165.504379 74.009125 
L 176.503125 52.079098 
L 179.256625 45.713249 
L 180.697464 41.882212 
L 182.010125 38.060567 
L 183.317144 33.120326 
L 183.918153 30.199698 
L 184.350005 27.279069 
L 184.562461 24.358441 
L 184.504434 21.437813 
M 278.641816 21.437813 
L 278.993745 24.358441 
L 280.665797 33.120326 
L 280.785017 36.040955 
L 280.590112 38.961583 
L 280.172227 41.882212 
L 278.382625 50.873518 
L 277.35959 56.485354 
L 276.620158 62.326611 
L 276.202717 68.167868 
L 276.012888 74.009125 
L 275.92627 85.691639 
L 276.028769 97.374153 
L 276.261664 103.21541 
L 276.749762 109.056667 
L 277.128829 111.977295 
L 277.620707 114.897924 
L 278.382625 118.360343 
L 279.086688 120.739181 
L 280.147381 123.659809 
L 281.485601 126.580438 
L 283.889625 130.354317 
L 286.643125 133.36019 
L 289.396625 135.590541 
L 293.573151 138.262951 
L 298.259861 141.18358 
L 300.410625 142.744027 
L 303.164125 145.214739 
L 304.749706 147.024837 
L 305.917625 148.575125 
L 306.781985 149.945465 
L 308.671125 153.81818 
L 309.361033 155.786722 
L 310.138333 158.707351 
L 310.703596 161.627979 
L 311.097693 164.548608 
L 311.424625 168.931338 
L 311.531971 173.310493 
L 311.391257 179.15175 
L 310.965331 184.993007 
L 310.288251 190.834264 
L 309.37452 196.675521 
L 308.204941 202.516778 
L 306.750247 208.358035 
L 305.917625 211.352546 
L 303.970264 217.11992 
L 302.879865 220.040549 
L 300.410625 225.894208 
L 297.641871 231.723062 
L 286.643125 253.65309 
L 283.889625 260.018939 
L 282.448786 263.849976 
L 281.136125 267.671621 
L 279.829106 272.611861 
L 279.228097 275.53249 
L 278.796245 278.453118 
L 278.583789 281.373747 
L 278.641816 284.294375 
L 278.641816 284.294375 
" clip-path="url(#p3179526dc2)" style="fill: none; stroke: #33ffc4"/>
    <path d="M 179.307902 284.294375 
L 178.256134 278.453118 
L 177.928382 275.53249 
L 177.885368 272.611861 
L 178.110129 269.691233 
L 178.539699 266.770604 
L 179.781133 260.929347 
L 181.818196 252.167462 
L 182.919689 246.326205 
L 183.698299 240.484948 
L 184.199051 234.643691 
L 184.619452 225.881806 
L 184.817839 217.11992 
L 184.780857 208.358035 
L 184.505138 202.516778 
L 183.885038 196.675521 
L 183.398425 193.754892 
L 182.765224 190.834264 
L 181.955786 187.913635 
L 180.830844 184.993007 
L 179.256625 181.74979 
L 177.502598 179.15175 
L 176.503125 177.881334 
L 173.749625 175.16342 
L 170.996125 173.066278 
L 162.422598 167.469236 
L 159.982125 165.526888 
L 157.228625 162.796054 
L 156.267218 161.627979 
L 154.205443 158.707351 
L 152.680865 155.786722 
L 151.499808 152.866094 
L 150.660068 149.945465 
L 150.032596 147.024837 
L 149.578705 144.104208 
L 149.265697 141.18358 
L 148.966508 135.342323 
L 149.000173 129.501066 
L 149.299243 123.659809 
L 149.834605 117.818552 
L 150.595428 111.977295 
L 151.721625 105.336049 
L 152.814863 100.294781 
L 154.475125 93.690827 
L 156.043334 88.612267 
L 158.082295 82.77101 
L 160.389476 76.929753 
L 162.954058 71.088497 
L 168.596577 59.405983 
L 172.773861 50.644097 
L 175.267977 44.80284 
L 176.503125 41.577657 
L 177.378973 38.961583 
L 178.239281 36.040955 
L 178.945541 33.120326 
L 179.434821 30.199698 
L 179.670128 27.279069 
L 179.632024 24.358441 
L 179.307902 21.437813 
M 283.838348 21.437813 
L 284.890116 27.279069 
L 285.217868 30.199698 
L 285.260882 33.120326 
L 285.036121 36.040955 
L 284.606551 38.961583 
L 283.365117 44.80284 
L 281.328054 53.564726 
L 280.226561 59.405983 
L 279.447951 65.24724 
L 278.947199 71.088497 
L 278.526798 79.850382 
L 278.328411 88.612267 
L 278.365393 97.374153 
L 278.641112 103.21541 
L 279.261212 109.056667 
L 279.747825 111.977295 
L 280.381026 114.897924 
L 281.190464 117.818552 
L 282.315406 120.739181 
L 283.889625 123.982398 
L 285.643652 126.580438 
L 286.643125 127.850854 
L 289.396625 130.568767 
L 292.150125 132.665909 
L 300.723652 138.262951 
L 303.164125 140.2053 
L 305.917625 142.936134 
L 306.879032 144.104208 
L 308.940807 147.024837 
L 310.465385 149.945465 
L 311.646442 152.866094 
L 312.486182 155.786722 
L 313.113654 158.707351 
L 313.567545 161.627979 
L 313.880553 164.548608 
L 314.179742 170.389865 
L 314.146077 176.231122 
L 313.847007 182.072378 
L 313.311645 187.913635 
L 312.550822 193.754892 
L 311.424625 200.396138 
L 310.331387 205.437406 
L 308.671125 212.041361 
L 307.102916 217.11992 
L 305.063955 222.961177 
L 302.756774 228.802434 
L 300.192192 234.643691 
L 294.549673 246.326205 
L 290.372389 255.08809 
L 287.878273 260.929347 
L 286.643125 264.154531 
L 285.767277 266.770604 
L 284.906969 269.691233 
L 284.200709 272.611861 
L 283.711429 275.53249 
L 283.476122 278.453118 
L 283.514226 281.373747 
L 283.838348 284.294375 
L 283.838348 284.294375 
" clip-path="url(#p3179526dc2)" style="fill: none; stroke: #50ffa7"/>
    <path d="M 173.956792 284.294375 
L 173.678317 281.373747 
L 173.548114 278.453118 
L 173.749625 273.999246 
L 173.879558 272.611861 
L 174.336763 269.691233 
L 175.585195 263.849976 
L 179.256625 248.659861 
L 180.239024 243.405576 
L 181.046663 237.564319 
L 181.615399 231.723062 
L 182.155731 222.961177 
L 182.386782 214.199292 
L 182.323448 208.358035 
L 181.983776 202.516778 
L 181.645549 199.596149 
L 181.171356 196.675521 
L 180.535026 193.754892 
L 179.256625 189.54511 
L 178.582398 187.913635 
L 176.503125 184.011924 
L 175.079685 182.072378 
L 173.749625 180.515801 
L 170.996125 177.984221 
L 168.242625 175.943805 
L 162.735625 172.267553 
L 159.982125 170.218975 
L 156.922823 167.469236 
L 154.318123 164.548608 
L 151.721625 160.691803 
L 150.685904 158.707351 
L 148.968125 154.419921 
L 148.494106 152.866094 
L 147.802096 149.945465 
L 147.287676 147.024837 
L 146.918482 144.104208 
L 146.515725 138.262951 
L 146.449364 132.421694 
L 146.642999 126.580438 
L 147.062051 120.739181 
L 147.694996 114.897924 
L 148.535286 109.056667 
L 149.605311 103.21541 
L 150.878831 97.374153 
L 152.367682 91.532896 
L 154.475125 84.417137 
L 157.228625 76.469516 
L 160.522037 68.167868 
L 165.619293 56.485354 
L 168.242625 50.521331 
L 170.574532 44.80284 
L 172.55453 38.961583 
L 173.325425 36.040955 
L 173.900626 33.120326 
L 174.253777 30.199698 
L 174.361138 27.279069 
L 174.235575 24.358441 
L 173.956792 21.437813 
M 289.189458 21.437813 
L 289.467933 24.358441 
L 289.598136 27.279069 
L 289.396625 31.732941 
L 289.266692 33.120326 
L 288.809487 36.040955 
L 287.561055 41.882212 
L 283.889625 57.072327 
L 282.907226 62.326611 
L 282.099587 68.167868 
L 281.530851 74.009125 
L 280.990519 82.77101 
L 280.759468 91.532896 
L 280.822802 97.374153 
L 281.162474 103.21541 
L 281.500701 106.136038 
L 281.974894 109.056667 
L 282.611224 111.977295 
L 283.889625 116.187077 
L 284.563852 117.818552 
L 286.643125 121.720263 
L 288.066565 123.659809 
L 289.396625 125.216386 
L 292.150125 127.747966 
L 294.903625 129.788383 
L 300.410625 133.464634 
L 303.164125 135.513212 
L 306.223427 138.262951 
L 308.828127 141.18358 
L 311.424625 145.040385 
L 312.460346 147.024837 
L 314.178125 151.312267 
L 314.652144 152.866094 
L 315.344154 155.786722 
L 315.858574 158.707351 
L 316.227768 161.627979 
L 316.630525 167.469236 
L 316.696886 173.310493 
L 316.503251 179.15175 
L 316.084199 184.993007 
L 315.451254 190.834264 
L 314.610964 196.675521 
L 313.540939 202.516778 
L 312.267419 208.358035 
L 310.778568 214.199292 
L 308.671125 221.31505 
L 305.917625 229.262671 
L 302.624213 237.564319 
L 297.526957 249.246833 
L 294.903625 255.210857 
L 292.571718 260.929347 
L 290.59172 266.770604 
L 289.820825 269.691233 
L 289.245624 272.611861 
L 288.892473 275.53249 
L 288.785112 278.453118 
L 288.910675 281.373747 
L 289.189458 284.294375 
L 289.189458 284.294375 
" clip-path="url(#p3179526dc2)" style="fill: none; stroke: #6dff8a"/>
    <path d="M 169.4127 284.294375 
L 169.472704 281.373747 
L 169.650043 278.453118 
L 169.961542 275.53249 
L 170.940238 269.691233 
L 172.31596 263.849976 
L 175.992547 249.246833 
L 177.192555 243.405576 
L 178.135041 237.564319 
L 178.840343 231.723062 
L 179.35212 225.881806 
L 179.683746 220.040549 
L 179.828994 214.199292 
L 179.727317 208.358035 
L 179.265872 202.516778 
L 178.813342 199.596149 
L 178.183575 196.675521 
L 177.343175 193.754892 
L 176.224209 190.834264 
L 174.668095 187.913635 
L 173.749625 186.494165 
L 172.583871 184.993007 
L 170.996125 183.2386 
L 168.242625 180.802007 
L 165.489125 178.747983 
L 159.982125 174.789775 
L 157.228625 172.491905 
L 154.475125 169.757156 
L 151.721625 166.36448 
L 150.510616 164.548608 
L 148.822997 161.627979 
L 147.524629 158.707351 
L 146.214625 154.835322 
L 145.707096 152.866094 
L 145.129138 149.945465 
L 144.702324 147.024837 
L 144.198614 141.18358 
L 144.041184 135.342323 
L 144.144082 129.501066 
L 144.466009 123.659809 
L 144.992189 117.818552 
L 145.719132 111.977295 
L 146.658871 106.136038 
L 148.416735 97.374153 
L 149.821578 91.532896 
L 151.721625 84.524654 
L 154.475125 75.710205 
L 158.215587 65.24724 
L 162.735625 53.501168 
L 164.948684 47.723469 
L 166.927782 41.882212 
L 167.743434 38.961583 
L 168.407712 36.040955 
L 168.920896 33.120326 
L 169.241154 30.199698 
L 169.386335 27.279069 
L 169.4127 21.437813 
M 293.73355 21.437813 
L 293.673546 24.358441 
L 293.496207 27.279069 
L 293.184708 30.199698 
L 292.206012 36.040955 
L 290.83029 41.882212 
L 287.153703 56.485354 
L 285.953695 62.326611 
L 285.011209 68.167868 
L 284.305907 74.009125 
L 283.79413 79.850382 
L 283.462504 85.691639 
L 283.317256 91.532896 
L 283.418933 97.374153 
L 283.880378 103.21541 
L 284.332908 106.136038 
L 284.962675 109.056667 
L 285.803075 111.977295 
L 286.922041 114.897924 
L 288.478155 117.818552 
L 289.396625 119.238023 
L 290.562379 120.739181 
L 292.150125 122.493588 
L 294.903625 124.93018 
L 297.657125 126.984205 
L 303.164125 130.942412 
L 305.917625 133.240283 
L 308.671125 135.975031 
L 311.424625 139.367708 
L 312.635634 141.18358 
L 314.323253 144.104208 
L 315.621621 147.024837 
L 316.931625 150.896866 
L 317.439154 152.866094 
L 318.017112 155.786722 
L 318.443926 158.707351 
L 318.947636 164.548608 
L 319.105066 170.389865 
L 319.002168 176.231122 
L 318.680241 182.072378 
L 318.154061 187.913635 
L 317.427118 193.754892 
L 316.487379 199.596149 
L 314.729515 208.358035 
L 313.324672 214.199292 
L 311.424625 221.207534 
L 308.671125 230.021983 
L 304.930663 240.484948 
L 300.410625 252.23102 
L 298.197566 258.008719 
L 296.218468 263.849976 
L 295.402816 266.770604 
L 294.738538 269.691233 
L 294.225354 272.611861 
L 293.905096 275.53249 
L 293.759915 278.453118 
L 293.73355 284.294375 
L 293.73355 284.294375 
" clip-path="url(#p3179526dc2)" style="fill: none; stroke: #8aff6d"/>
    <path d="M 165.563948 284.294375 
L 166.241588 278.453118 
L 167.242867 272.611861 
L 168.525471 266.770604 
L 173.749625 245.61218 
L 174.75293 240.484948 
L 175.664185 234.643691 
L 176.503125 227.255842 
L 176.841853 222.961177 
L 177.104473 217.11992 
L 177.096306 211.278663 
L 176.958157 208.358035 
L 176.503125 203.90503 
L 176.297543 202.516778 
L 175.68483 199.596149 
L 174.844983 196.675521 
L 173.731835 193.754892 
L 172.134202 190.834264 
L 170.996125 189.150585 
L 170.008871 187.913635 
L 167.147416 184.993007 
L 163.557508 182.072378 
L 159.716061 179.15175 
L 156.26745 176.231122 
L 154.475125 174.539131 
L 151.721625 171.47505 
L 150.881812 170.389865 
L 148.805779 167.469236 
L 147.11299 164.548608 
L 145.709503 161.627979 
L 144.605875 158.707351 
L 143.461125 154.648386 
L 143.071456 152.866094 
L 142.583749 149.945465 
L 141.977168 144.104208 
L 141.73281 138.262951 
L 141.754328 132.421694 
L 141.99282 126.580438 
L 142.428841 120.739181 
L 143.058829 114.897924 
L 143.894985 109.056667 
L 145.482722 100.294781 
L 146.73106 94.453524 
L 148.968125 85.336786 
L 151.721625 75.62333 
L 155.02772 65.24724 
L 161.857291 44.80284 
L 163.418996 38.961583 
L 164.045343 36.040955 
L 164.529092 33.120326 
L 165.133516 27.279069 
L 165.563948 21.437813 
M 297.582302 21.437813 
L 296.904662 27.279069 
L 295.903383 33.120326 
L 294.620779 38.961583 
L 289.396625 60.120008 
L 288.39332 65.24724 
L 287.482065 71.088497 
L 286.643125 78.476346 
L 286.304397 82.77101 
L 286.041777 88.612267 
L 286.049944 94.453524 
L 286.188093 97.374153 
L 286.643125 101.827157 
L 286.848707 103.21541 
L 287.46142 106.136038 
L 288.301267 109.056667 
L 289.414415 111.977295 
L 291.012048 114.897924 
L 292.150125 116.581603 
L 293.137379 117.818552 
L 295.998834 120.739181 
L 299.588742 123.659809 
L 303.430189 126.580438 
L 306.8788 129.501066 
L 308.671125 131.193057 
L 311.424625 134.257138 
L 312.264438 135.342323 
L 314.340471 138.262951 
L 316.03326 141.18358 
L 317.436747 144.104208 
L 318.540375 147.024837 
L 319.685125 151.083801 
L 320.074794 152.866094 
L 320.562501 155.786722 
L 321.169082 161.627979 
L 321.41344 167.469236 
L 321.391922 173.310493 
L 321.15343 179.15175 
L 320.717409 184.993007 
L 320.087421 190.834264 
L 319.251265 196.675521 
L 317.663528 205.437406 
L 316.41519 211.278663 
L 314.178125 220.395402 
L 311.424625 230.108857 
L 308.11853 240.484948 
L 301.288959 260.929347 
L 299.727254 266.770604 
L 299.100907 269.691233 
L 298.617158 272.611861 
L 298.012734 278.453118 
L 297.582302 284.294375 
L 297.582302 284.294375 
" clip-path="url(#p3179526dc2)" style="fill: none; stroke: #a7ff50"/>
    <path d="M 162.277886 284.294375 
L 163.174738 278.453118 
L 164.314477 272.611861 
L 165.636286 266.770604 
L 170.66589 246.326205 
L 171.842274 240.484948 
L 172.800864 234.643691 
L 173.541362 228.802434 
L 174.049275 222.961177 
L 174.292159 217.11992 
L 174.197106 211.278663 
L 173.749625 206.475911 
L 173.607584 205.437406 
L 173.020984 202.516778 
L 172.195253 199.596149 
L 170.996125 196.496034 
L 169.482018 193.754892 
L 167.350877 190.834264 
L 164.531593 187.913635 
L 159.982125 184.0815 
L 157.228625 181.778861 
L 154.368527 179.15175 
L 151.6015 176.231122 
L 148.968125 172.966672 
L 146.214625 168.811256 
L 145.455092 167.469236 
L 143.461125 163.317709 
L 142.796757 161.627979 
L 141.850271 158.707351 
L 141.105403 155.786722 
L 140.539582 152.866094 
L 140.125021 149.945465 
L 139.619678 144.104208 
L 139.43674 138.262951 
L 139.496428 132.421694 
L 139.759485 126.580438 
L 140.211987 120.739181 
L 140.856634 114.897924 
L 141.700664 109.056667 
L 143.253297 100.294781 
L 144.464546 94.453524 
L 146.491505 85.691639 
L 148.968125 76.183038 
L 153.015807 62.326611 
L 158.236065 44.80284 
L 159.64961 38.961583 
L 160.756055 33.120326 
L 161.559647 27.279069 
L 162.277886 21.437813 
M 300.868364 21.437813 
L 299.971512 27.279069 
L 298.831773 33.120326 
L 297.509964 38.961583 
L 292.48036 59.405983 
L 291.303976 65.24724 
L 290.345386 71.088497 
L 289.604888 76.929753 
L 289.096975 82.77101 
L 288.854091 88.612267 
L 288.949144 94.453524 
L 289.396625 99.256277 
L 289.538666 100.294781 
L 290.125266 103.21541 
L 290.950997 106.136038 
L 292.150125 109.236154 
L 293.664232 111.977295 
L 295.795373 114.897924 
L 298.614657 117.818552 
L 303.164125 121.650687 
L 305.917625 123.953327 
L 308.777723 126.580438 
L 311.54475 129.501066 
L 314.178125 132.765516 
L 316.931625 136.920931 
L 317.691158 138.262951 
L 319.685125 142.414478 
L 320.349493 144.104208 
L 321.295979 147.024837 
L 322.040847 149.945465 
L 322.606668 152.866094 
L 323.021229 155.786722 
L 323.526572 161.627979 
L 323.70951 167.469236 
L 323.649822 173.310493 
L 323.386765 179.15175 
L 322.934263 184.993007 
L 322.289616 190.834264 
L 321.445586 196.675521 
L 319.892953 205.437406 
L 318.681704 211.278663 
L 316.654745 220.040549 
L 314.178125 229.549149 
L 310.130443 243.405576 
L 304.910185 260.929347 
L 303.49664 266.770604 
L 302.390195 272.611861 
L 301.586603 278.453118 
L 300.868364 284.294375 
L 300.868364 284.294375 
" clip-path="url(#p3179526dc2)" style="fill: none; stroke: #c4ff33"/>
    <path d="M 159.297139 284.294375 
L 160.331874 278.453118 
L 162.196112 269.691233 
L 164.318756 260.929347 
L 167.145534 249.246833 
L 168.39366 243.405576 
L 169.461914 237.564319 
L 170.315477 231.723062 
L 170.996125 225.107312 
L 171.280167 220.040549 
L 171.267531 214.199292 
L 170.996125 210.453897 
L 170.739405 208.358035 
L 170.184733 205.437406 
L 169.384313 202.516778 
L 168.242625 199.50504 
L 166.703972 196.675521 
L 164.607332 193.754892 
L 161.896981 190.834264 
L 152.53599 182.072378 
L 151.721625 181.234944 
L 148.968125 178.01642 
L 146.214625 174.257078 
L 143.834797 170.389865 
L 142.327005 167.469236 
L 140.707625 163.625543 
L 140.019199 161.627979 
L 139.201936 158.707351 
L 138.564003 155.786722 
L 137.954125 151.871199 
L 137.470068 147.024837 
L 137.206942 141.18358 
L 137.196518 135.342323 
L 137.391933 129.501066 
L 137.954125 121.64566 
L 138.344876 117.818552 
L 139.1025 111.977295 
L 140.539884 103.21541 
L 142.252112 94.453524 
L 144.186325 85.691639 
L 146.316285 76.929753 
L 150.234465 62.326611 
L 154.993804 44.80284 
L 156.344997 38.961583 
L 157.437483 33.120326 
L 159.297139 21.437813 
M 303.849111 21.437813 
L 302.814376 27.279069 
L 300.950138 36.040955 
L 298.827494 44.80284 
L 296.000716 56.485354 
L 294.75259 62.326611 
L 293.684336 68.167868 
L 292.830773 74.009125 
L 292.150125 80.624875 
L 291.866083 85.691639 
L 291.878719 91.532896 
L 292.150125 95.278291 
L 292.406845 97.374153 
L 292.961517 100.294781 
L 293.761937 103.21541 
L 294.903625 106.227148 
L 296.442278 109.056667 
L 298.538918 111.977295 
L 301.249269 114.897924 
L 310.61026 123.659809 
L 311.424625 124.497244 
L 314.178125 127.715768 
L 316.931625 131.475109 
L 319.311453 135.342323 
L 320.819245 138.262951 
L 322.438625 142.106645 
L 323.127051 144.104208 
L 323.944314 147.024837 
L 324.582247 149.945465 
L 325.192125 153.860988 
L 325.676182 158.707351 
L 325.939308 164.548608 
L 325.949732 170.389865 
L 325.754317 176.231122 
L 325.192125 184.086528 
L 324.801374 187.913635 
L 324.04375 193.754892 
L 322.606366 202.516778 
L 320.894138 211.278663 
L 318.959925 220.040549 
L 316.829965 228.802434 
L 312.911785 243.405576 
L 308.152446 260.929347 
L 306.801253 266.770604 
L 305.708767 272.611861 
L 303.849111 284.294375 
L 303.849111 284.294375 
" clip-path="url(#p3179526dc2)" style="fill: none; stroke: #deff19"/>
    <path d="M 156.504994 284.294375 
L 158.237788 275.53249 
L 160.208628 266.770604 
L 164.327442 249.246833 
L 165.531292 243.405576 
L 166.55988 237.564319 
L 167.375747 231.723062 
L 167.945207 225.881806 
L 168.202262 220.040549 
L 168.177096 217.11992 
L 168.019612 214.199292 
L 167.699302 211.278663 
L 167.178227 208.358035 
L 166.410588 205.437406 
L 165.331893 202.516778 
L 163.797829 199.596149 
L 161.777373 196.675521 
L 159.232142 193.754892 
L 151.721625 186.194155 
L 148.188309 182.072378 
L 145.966725 179.15175 
L 143.461125 175.396864 
L 142.232979 173.310493 
L 140.668691 170.389865 
L 139.345428 167.469236 
L 137.954125 163.69709 
L 137.328386 161.627979 
L 136.619171 158.707351 
L 136.06994 155.786722 
L 135.351503 149.945465 
L 135.005389 144.104208 
L 134.926386 138.262951 
L 135.059197 132.421694 
L 135.378568 126.580438 
L 135.878009 120.739181 
L 136.559492 114.897924 
L 137.414069 109.056667 
L 138.941222 100.294781 
L 140.707625 91.335754 
L 143.249714 79.850382 
L 145.371487 71.088497 
L 149.100658 56.485354 
L 151.325092 47.723469 
L 153.325582 38.961583 
L 154.966469 30.199698 
L 156.504994 21.437813 
M 306.641256 21.437813 
L 304.908462 30.199698 
L 302.937622 38.961583 
L 298.818808 56.485354 
L 297.614958 62.326611 
L 296.58637 68.167868 
L 295.770503 74.009125 
L 295.201043 79.850382 
L 294.943988 85.691639 
L 294.969154 88.612267 
L 295.126638 91.532896 
L 295.446948 94.453524 
L 295.968023 97.374153 
L 296.735662 100.294781 
L 297.814357 103.21541 
L 299.348421 106.136038 
L 301.368877 109.056667 
L 303.914108 111.977295 
L 311.424625 119.538033 
L 314.957941 123.659809 
L 317.179525 126.580438 
L 319.685125 130.335324 
L 320.913271 132.421694 
L 322.477559 135.342323 
L 323.800822 138.262951 
L 325.192125 142.035097 
L 325.817864 144.104208 
L 326.527079 147.024837 
L 327.07631 149.945465 
L 327.794747 155.786722 
L 328.140861 161.627979 
L 328.219864 167.469236 
L 328.087053 173.310493 
L 327.767682 179.15175 
L 327.268241 184.993007 
L 326.586758 190.834264 
L 325.732181 196.675521 
L 324.205028 205.437406 
L 322.438625 214.396434 
L 319.896536 225.881806 
L 317.774763 234.643691 
L 314.045592 249.246833 
L 311.821158 258.008719 
L 309.820668 266.770604 
L 308.179781 275.53249 
L 306.641256 284.294375 
L 306.641256 284.294375 
" clip-path="url(#p3179526dc2)" style="fill: none; stroke: #fbf100"/>
    <path d="M 153.823859 284.294375 
L 155.619312 275.53249 
L 158.257305 263.849976 
L 161.527343 249.246833 
L 162.735625 242.994138 
L 163.621779 237.564319 
L 164.359197 231.723062 
L 164.825325 225.881806 
L 164.927541 220.040549 
L 164.794613 217.11992 
L 164.501759 214.199292 
L 164.012049 211.278663 
L 163.280833 208.358035 
L 162.225791 205.437406 
L 160.768582 202.516778 
L 158.863841 199.596149 
L 156.525119 196.675521 
L 148.717935 187.913635 
L 146.214625 184.765057 
L 143.461125 180.884552 
L 140.587119 176.231122 
L 137.954125 171.099032 
L 137.631845 170.389865 
L 136.453735 167.469236 
L 135.200625 163.568668 
L 134.685419 161.627979 
L 134.067787 158.707351 
L 133.593315 155.786722 
L 132.982238 149.945465 
L 132.7052 144.104208 
L 132.673384 138.262951 
L 132.840666 132.421694 
L 133.188091 126.580438 
L 133.712933 120.739181 
L 134.417052 114.897924 
L 135.768522 106.136038 
L 137.338764 97.374153 
L 139.676466 85.691639 
L 142.274986 74.009125 
L 146.214625 57.523587 
L 148.564028 47.723469 
L 150.49145 38.961583 
L 152.723922 27.279069 
L 153.823859 21.437813 
M 309.322391 21.437813 
L 307.526938 30.199698 
L 304.888945 41.882212 
L 301.618907 56.485354 
L 300.410625 62.738049 
L 299.524471 68.167868 
L 298.787053 74.009125 
L 298.320925 79.850382 
L 298.218709 85.691639 
L 298.351637 88.612267 
L 298.644491 91.532896 
L 299.134201 94.453524 
L 299.865417 97.374153 
L 300.920459 100.294781 
L 302.377668 103.21541 
L 304.282409 106.136038 
L 306.621131 109.056667 
L 314.428315 117.818552 
L 316.931625 120.967131 
L 319.685125 124.847635 
L 322.559131 129.501066 
L 325.192125 134.633155 
L 325.514405 135.342323 
L 326.692515 138.262951 
L 327.945625 142.163519 
L 328.460831 144.104208 
L 329.078463 147.024837 
L 329.552935 149.945465 
L 330.164012 155.786722 
L 330.44105 161.627979 
L 330.472866 167.469236 
L 330.305584 173.310493 
L 329.958159 179.15175 
L 329.433317 184.993007 
L 328.729198 190.834264 
L 327.377728 199.596149 
L 325.807486 208.358035 
L 323.469784 220.040549 
L 320.871264 231.723062 
L 316.931625 248.208601 
L 314.582222 258.008719 
L 312.6548 266.770604 
L 310.422328 278.453118 
L 309.322391 284.294375 
L 309.322391 284.294375 
" clip-path="url(#p3179526dc2)" style="fill: none; stroke: #ffd000"/>
    <path d="M 151.195947 284.294375 
L 153.659922 272.611861 
L 158.138146 252.167462 
L 159.76347 243.405576 
L 160.621812 237.564319 
L 161.241313 231.723062 
L 161.554897 225.881806 
L 161.562336 222.961177 
L 161.442949 220.040549 
L 161.168976 217.11992 
L 160.705806 214.199292 
L 159.982125 211.185648 
L 158.990678 208.358035 
L 157.228625 204.739048 
L 155.874005 202.516778 
L 153.765113 199.596149 
L 146.214625 190.204216 
L 142.508663 184.993007 
L 140.622422 182.072378 
L 137.954125 177.449838 
L 135.895617 173.310493 
L 134.654374 170.389865 
L 133.605557 167.469236 
L 132.447125 163.309562 
L 132.054958 161.627979 
L 131.515701 158.707351 
L 130.801338 152.866094 
L 130.446816 147.024837 
L 130.35215 141.18358 
L 130.463177 135.342323 
L 130.755507 129.501066 
L 131.22321 123.659809 
L 131.868894 117.818552 
L 133.134696 109.056667 
L 134.633039 100.294781 
L 137.423335 85.691639 
L 140.564484 71.088497 
L 148.347261 36.040955 
L 151.195947 21.437813 
M 311.950303 21.437813 
L 309.486328 33.120326 
L 305.008104 53.564726 
L 303.38278 62.326611 
L 302.524438 68.167868 
L 301.904937 74.009125 
L 301.591353 79.850382 
L 301.583914 82.77101 
L 301.703301 85.691639 
L 301.977274 88.612267 
L 302.440444 91.532896 
L 303.164125 94.546539 
L 304.155572 97.374153 
L 305.917625 100.993139 
L 307.272245 103.21541 
L 309.381137 106.136038 
L 316.931625 115.527972 
L 320.637587 120.739181 
L 322.523828 123.659809 
L 325.192125 128.282349 
L 327.250633 132.421694 
L 328.491876 135.342323 
L 329.540693 138.262951 
L 330.699125 142.422626 
L 331.091292 144.104208 
L 331.630549 147.024837 
L 332.344912 152.866094 
L 332.699434 158.707351 
L 332.7941 164.548608 
L 332.683073 170.389865 
L 332.390743 176.231122 
L 331.92304 182.072378 
L 331.277356 187.913635 
L 330.011554 196.675521 
L 328.513211 205.437406 
L 325.722915 220.040549 
L 322.581766 234.643691 
L 314.798989 269.691233 
L 311.950303 284.294375 
L 311.950303 284.294375 
" clip-path="url(#p3179526dc2)" style="fill: none; stroke: #ffae00"/>
    <path d="M 148.57314 284.294375 
L 152.946212 263.849976 
L 155.326565 252.167462 
L 156.345814 246.326205 
L 157.228625 240.214558 
L 157.801394 234.643691 
L 158.104258 228.802434 
L 158.110129 225.881806 
L 157.99383 222.961177 
L 157.730181 220.040549 
L 157.228625 216.845627 
L 156.604582 214.199292 
L 155.655306 211.278663 
L 154.403859 208.358035 
L 152.815618 205.437406 
L 150.940079 202.516778 
L 140.613395 187.913635 
L 137.099795 182.072378 
L 135.200625 178.515562 
L 134.084494 176.231122 
L 132.447125 172.40093 
L 131.688818 170.389865 
L 130.75694 167.469236 
L 129.693625 163.061553 
L 129.399148 161.627979 
L 128.927271 158.707351 
L 128.312455 152.866094 
L 128.025095 147.024837 
L 127.979823 141.18358 
L 128.131909 135.342323 
L 128.46264 129.501066 
L 128.969159 123.659809 
L 129.693625 117.540247 
L 130.930899 109.056667 
L 132.940531 97.374153 
L 135.200625 85.382516 
L 137.531187 74.009125 
L 145.66253 36.040955 
L 148.57314 21.437813 
M 314.57311 21.437813 
L 310.200038 41.882212 
L 307.819685 53.564726 
L 306.800436 59.405983 
L 305.917625 65.51763 
L 305.344856 71.088497 
L 305.041992 76.929753 
L 305.036121 79.850382 
L 305.15242 82.77101 
L 305.416069 85.691639 
L 305.917625 88.88656 
L 306.541668 91.532896 
L 307.490944 94.453524 
L 308.742391 97.374153 
L 310.330632 100.294781 
L 312.206171 103.21541 
L 322.532855 117.818552 
L 326.046455 123.659809 
L 327.945625 127.216626 
L 329.061756 129.501066 
L 330.699125 133.331257 
L 331.457432 135.342323 
L 332.38931 138.262951 
L 333.452625 142.670634 
L 333.747102 144.104208 
L 334.218979 147.024837 
L 334.833795 152.866094 
L 335.121155 158.707351 
L 335.166427 164.548608 
L 335.014341 170.389865 
L 334.68361 176.231122 
L 334.177091 182.072378 
L 333.452625 188.191941 
L 332.215351 196.675521 
L 330.205719 208.358035 
L 327.945625 220.349671 
L 325.615063 231.723062 
L 317.48372 269.691233 
L 314.57311 284.294375 
L 314.57311 284.294375 
" clip-path="url(#p3179526dc2)" style="fill: none; stroke: #ff8d00"/>
    <path d="M 145.908032 284.294375 
L 151.385519 258.008719 
L 152.441486 252.167462 
L 153.346048 246.326205 
L 154.056745 240.484948 
L 154.504954 234.643691 
L 154.596156 228.802434 
L 154.475125 225.877693 
L 154.205299 222.961177 
L 153.764172 220.040549 
L 153.122129 217.11992 
L 151.721625 212.82343 
L 151.10441 211.278663 
L 148.968125 207.090424 
L 148.03053 205.437406 
L 144.264441 199.596149 
L 140.707625 194.231987 
L 136.818501 187.913635 
L 133.599849 182.072378 
L 132.157261 179.15175 
L 130.840969 176.231122 
L 129.687399 173.310493 
L 128.683169 170.389865 
L 127.857829 167.469236 
L 126.940125 163.116344 
L 126.668949 161.627979 
L 125.94664 155.786722 
L 125.581683 149.945465 
L 125.477269 144.104208 
L 125.580798 138.262951 
L 125.86841 132.421694 
L 126.334005 126.580438 
L 127.343016 117.818552 
L 128.648239 109.056667 
L 131.668936 91.532896 
L 134.489404 76.929753 
L 144.124072 30.199698 
L 145.908032 21.437813 
M 317.238218 21.437813 
L 311.760731 47.723469 
L 310.704764 53.564726 
L 309.800202 59.405983 
L 309.089505 65.24724 
L 308.641296 71.088497 
L 308.550094 76.929753 
L 308.671125 79.854495 
L 308.940951 82.77101 
L 309.382078 85.691639 
L 310.024121 88.612267 
L 311.424625 92.908757 
L 312.04184 94.453524 
L 314.178125 98.641763 
L 315.11572 100.294781 
L 318.881809 106.136038 
L 322.438625 111.5002 
L 326.327749 117.818552 
L 329.546401 123.659809 
L 330.988989 126.580438 
L 332.305281 129.501066 
L 333.458851 132.421694 
L 334.463081 135.342323 
L 335.288421 138.262951 
L 336.206125 142.615844 
L 336.477301 144.104208 
L 337.19961 149.945465 
L 337.564567 155.786722 
L 337.668981 161.627979 
L 337.565452 167.469236 
L 337.27784 173.310493 
L 336.812245 179.15175 
L 335.803234 187.913635 
L 334.498011 196.675521 
L 331.477314 214.199292 
L 328.656846 228.802434 
L 319.022178 275.53249 
L 317.238218 284.294375 
L 317.238218 284.294375 
" clip-path="url(#p3179526dc2)" style="fill: none; stroke: #ff6c00"/>
    <path d="M 143.14424 284.294375 
L 146.803538 266.770604 
L 148.968125 255.218144 
L 149.443767 252.167462 
L 150.219766 246.326205 
L 150.769967 240.484948 
L 151.019714 234.643691 
L 151.002092 231.723062 
L 150.869238 228.802434 
L 150.602635 225.881806 
L 150.181001 222.961177 
L 149.580891 220.040549 
L 148.77399 217.11992 
L 147.734228 214.199292 
L 146.214625 210.764218 
L 145.000045 208.358035 
L 141.622474 202.516778 
L 136.30641 193.754892 
L 133.010767 187.913635 
L 131.475687 184.993007 
L 128.708902 179.15175 
L 126.940125 174.630987 
L 126.465897 173.310493 
L 125.567513 170.389865 
L 124.839308 167.469236 
L 123.78752 161.627979 
L 123.155551 155.786722 
L 122.856296 149.945465 
L 122.806372 144.104208 
L 122.962237 138.262951 
L 123.305485 132.421694 
L 123.832529 126.580438 
L 124.896726 117.818552 
L 126.241198 109.056667 
L 130.27144 85.691639 
L 132.447125 74.553778 
L 135.200625 61.025082 
L 143.14424 21.437813 
M 320.00201 21.437812 
L 316.342712 38.961583 
L 314.178125 50.514043 
L 313.702483 53.564726 
L 312.926484 59.405983 
L 312.376283 65.24724 
L 312.126536 71.088497 
L 312.144158 74.009125 
L 312.277012 76.929753 
L 312.543615 79.850382 
L 312.965249 82.77101 
L 313.565359 85.691639 
L 314.37226 88.612267 
L 315.412022 91.532896 
L 316.931625 94.967969 
L 318.146205 97.374153 
L 321.523776 103.21541 
L 326.83984 111.977295 
L 330.135483 117.818552 
L 331.670563 120.739181 
L 334.437348 126.580438 
L 336.206125 131.101201 
L 336.680353 132.421694 
L 337.578737 135.342323 
L 338.306942 138.262951 
L 339.35873 144.104208 
L 339.990699 149.945465 
L 340.289954 155.786722 
L 340.339878 161.627979 
L 340.184013 167.469236 
L 339.840765 173.310493 
L 339.313721 179.15175 
L 338.249524 187.913635 
L 336.905052 196.675521 
L 332.87481 220.040549 
L 330.699125 231.17841 
L 327.945625 244.707105 
L 320.00201 284.294375 
L 320.00201 284.294375 
" clip-path="url(#p3179526dc2)" style="fill: none; stroke: #ff4e00"/>
    <path d="M 140.202308 284.294375 
L 142.64881 272.611861 
L 144.379127 263.849976 
L 145.866518 255.08809 
L 146.628364 249.246833 
L 147.142136 243.405576 
L 147.358463 237.564319 
L 147.189464 231.723062 
L 146.926493 228.802434 
L 146.214625 224.257511 
L 145.951347 222.961177 
L 145.191685 220.040549 
L 144.248527 217.11992 
L 143.109684 214.199292 
L 140.707625 209.146939 
L 138.713846 205.437406 
L 132.114892 193.754892 
L 129.055407 187.913635 
L 126.307361 182.072378 
L 125.082391 179.15175 
L 123.027639 173.310493 
L 122.22859 170.389865 
L 121.044506 164.548608 
L 120.288312 158.707351 
L 119.904668 152.866094 
L 119.797748 147.024837 
L 119.916335 141.18358 
L 120.237179 135.342323 
L 120.753 129.501066 
L 121.830559 120.739181 
L 123.144427 111.977295 
L 128.106506 82.77101 
L 130.96496 68.167868 
L 135.200625 46.718231 
L 137.954125 32.462064 
L 140.202308 21.437813 
M 322.943942 21.437813 
L 320.49744 33.120326 
L 318.767123 41.882212 
L 317.279732 50.644097 
L 316.517886 56.485354 
L 316.004114 62.326611 
L 315.787787 68.167868 
L 315.956786 74.009125 
L 316.219757 76.929753 
L 316.931625 81.474676 
L 317.194903 82.77101 
L 317.954565 85.691639 
L 318.897723 88.612267 
L 320.036566 91.532896 
L 322.438625 96.585248 
L 324.432404 100.294781 
L 331.031358 111.977295 
L 334.090843 117.818552 
L 336.838889 123.659809 
L 338.063859 126.580438 
L 340.118611 132.421694 
L 340.91766 135.342323 
L 342.101744 141.18358 
L 342.857938 147.024837 
L 343.241582 152.866094 
L 343.348502 158.707351 
L 343.229915 164.548608 
L 342.909071 170.389865 
L 342.39325 176.231122 
L 341.315691 184.993007 
L 340.001823 193.754892 
L 335.039744 222.961177 
L 332.18129 237.564319 
L 327.945625 259.013956 
L 325.192125 273.270123 
L 322.943942 284.294375 
L 322.943942 284.294375 
" clip-path="url(#p3179526dc2)" style="fill: none; stroke: #ff2d00"/>
    <path d="M 136.953543 284.294375 
L 139.419026 272.611861 
L 141.124851 263.849976 
L 142.473483 255.08809 
L 143.130192 249.246833 
L 143.501787 243.405576 
L 143.514751 237.564319 
L 143.36428 234.643691 
L 143.087122 231.723062 
L 142.676618 228.802434 
L 142.122395 225.881806 
L 141.415734 222.961177 
L 140.54133 220.040549 
L 139.466089 217.11992 
L 137.954125 213.547142 
L 135.200625 207.980655 
L 127.604711 193.754892 
L 124.186625 186.603289 
L 122.206503 182.072378 
L 120.026412 176.231122 
L 118.679625 171.369368 
L 118.405271 170.389865 
L 117.736482 167.469236 
L 117.217853 164.548608 
L 116.537799 158.707351 
L 116.221548 152.866094 
L 116.186604 147.024837 
L 116.39159 141.18358 
L 116.818701 135.342323 
L 117.460446 129.501066 
L 118.307136 123.659809 
L 121.644582 103.21541 
L 123.529719 91.532896 
L 127.354292 71.088497 
L 132.919845 41.882212 
L 134.556724 33.120326 
L 136.953543 21.437813 
M 326.192707 21.437813 
L 323.727224 33.120326 
L 322.021399 41.882212 
L 320.672767 50.644097 
L 320.016058 56.485354 
L 319.644463 62.326611 
L 319.631499 68.167868 
L 319.78197 71.088497 
L 320.059128 74.009125 
L 320.469632 76.929753 
L 321.023855 79.850382 
L 321.730516 82.77101 
L 322.60492 85.691639 
L 323.680161 88.612267 
L 325.192125 92.185046 
L 327.945625 97.751532 
L 335.541539 111.977295 
L 338.959625 119.128899 
L 340.939747 123.659809 
L 343.119838 129.501066 
L 344.466625 134.362819 
L 344.740979 135.342323 
L 345.409768 138.262951 
L 345.928397 141.18358 
L 346.608451 147.024837 
L 346.924702 152.866094 
L 346.959646 158.707351 
L 346.75466 164.548608 
L 346.327549 170.389865 
L 345.685804 176.231122 
L 344.839114 182.072378 
L 341.501668 202.516778 
L 339.616531 214.199292 
L 335.791958 234.643691 
L 330.226405 263.849976 
L 328.589526 272.611861 
L 326.192707 284.294375 
L 326.192707 284.294375 
" clip-path="url(#p3179526dc2)" style="fill: none; stroke: #f60b00"/>
    <path d="M 133.166032 284.294375 
L 136.84558 266.770604 
L 137.954125 260.530247 
L 138.648573 255.08809 
L 139.155947 249.246833 
L 139.343736 243.405576 
L 139.135765 237.564319 
L 138.861175 234.643691 
L 138.462263 231.723062 
L 137.929904 228.802434 
L 137.190417 225.881806 
L 136.314412 222.961177 
L 135.200625 219.755499 
L 132.447125 213.523618 
L 122.383128 193.754892 
L 117.164213 182.072378 
L 113.823135 173.310493 
L 112.917132 170.389865 
L 111.88588 167.469236 
L 111.115587 164.548608 
L 110.419125 160.600807 
L 109.644668 158.707351 
L 108.965924 155.786722 
L 108.72182 152.866094 
L 108.840748 149.945465 
L 109.272773 147.024837 
L 109.977712 144.104208 
L 110.419125 142.766152 
L 111.067534 138.262951 
L 112.267332 132.421694 
L 113.172625 128.857737 
L 114.153744 123.659809 
L 116.524273 111.977295 
L 119.414867 94.453524 
L 120.912761 85.691639 
L 121.99061 79.850382 
L 123.116313 74.009125 
L 125.499983 62.326611 
L 127.232377 53.564726 
L 131.313065 30.199698 
L 133.166032 21.437813 
M 329.980218 21.437813 
L 326.30067 38.961583 
L 325.192125 45.20194 
L 324.497677 50.644097 
L 323.990303 56.485354 
L 323.802514 62.326611 
L 324.010485 68.167868 
L 324.285075 71.088497 
L 324.683987 74.009125 
L 325.216346 76.929753 
L 325.955833 79.850382 
L 326.831838 82.77101 
L 327.945625 85.976689 
L 330.699125 92.208569 
L 340.763122 111.977295 
L 345.982037 123.659809 
L 349.323115 132.421694 
L 350.229118 135.342323 
L 351.26037 138.262951 
L 352.030663 141.18358 
L 352.727125 145.131381 
L 353.501582 147.024837 
L 354.180326 149.945465 
L 354.42443 152.866094 
L 354.305502 155.786722 
L 353.873477 158.707351 
L 353.168538 161.627979 
L 352.727125 162.966036 
L 352.078716 167.469236 
L 350.878918 173.310493 
L 349.973625 176.874451 
L 348.992506 182.072378 
L 346.621977 193.754892 
L 343.731383 211.278663 
L 342.233489 220.040549 
L 341.15564 225.881806 
L 340.029937 231.723062 
L 337.646267 243.405576 
L 335.913873 252.167462 
L 331.833185 275.53249 
L 329.980218 284.294375 
L 329.980218 284.294375 
" clip-path="url(#p3179526dc2)" style="fill: none; stroke: #cd0000"/>
    <path d="M 128.000353 284.294375 
L 132.447125 265.052119 
L 133.098287 260.929347 
L 133.823754 255.08809 
L 134.227164 249.246833 
L 134.275046 246.326205 
L 134.206034 243.405576 
L 134.012298 240.484948 
L 133.688778 237.564319 
L 133.233484 234.643691 
L 132.447125 230.901461 
L 131.815023 228.802434 
L 129.693625 222.866148 
L 126.92898 217.11992 
L 123.721556 211.278663 
L 120.628475 205.437406 
L 114.805171 193.754892 
L 113.172625 190.731541 
L 110.419125 187.738502 
L 107.665625 187.974593 
M 355.480625 187.974593 
L 352.727125 192.935921 
L 351.767095 196.675521 
L 349.973625 204.587773 
L 347.953594 217.11992 
L 346.867714 222.961177 
L 345.772916 228.802434 
L 340.63872 252.167462 
L 338.959625 261.592327 
L 337.447921 272.611861 
L 336.331077 278.453118 
L 335.760673 281.373747 
L 335.145897 284.294375 
M 107.665625 117.757595 
L 110.419125 112.796267 
L 111.379155 109.056667 
L 113.172625 101.144415 
L 115.192656 88.612267 
L 116.278536 82.77101 
L 117.373334 76.929753 
L 122.50753 53.564726 
L 124.186625 44.13986 
L 125.698329 33.120326 
L 126.815173 27.279069 
L 127.385577 24.358441 
L 128.000353 21.437813 
M 335.145897 21.437813 
L 330.699125 40.680068 
L 330.047963 44.80284 
L 329.322496 50.644097 
L 328.919086 56.485354 
L 328.871204 59.405983 
L 328.940216 62.326611 
L 329.133952 65.24724 
L 329.457472 68.167868 
L 329.912766 71.088497 
L 330.699125 74.830726 
L 331.331227 76.929753 
L 333.452625 82.866039 
L 336.21727 88.612267 
L 339.424694 94.453524 
L 342.517775 100.294781 
L 348.341079 111.977295 
L 349.973625 115.000646 
L 352.727125 117.993685 
L 355.480625 117.757595 
L 355.480625 117.757595 
" clip-path="url(#p3179526dc2)" style="fill: none; stroke: #a40000"/>
    <path clip-path="url(#p3179526dc2)" style="fill: none; stroke: #800000"/>
   </g>
   <g id="patch_3">
    <path d="M 107.665625 284.294375 
L 107.665625 21.437813 
" style="fill: none; stroke: #000000; stroke-width: 0.8; stroke-linejoin: miter; stroke-linecap: square"/>
   </g>
   <g id="patch_4">
    <path d="M 107.665625 284.294375 
L 355.480625 284.294375 
" style="fill: none; stroke: #000000; stroke-width: 0.8; stroke-linejoin: miter; stroke-linecap: square"/>
   </g>
  </g>
  <g id="axes_2">
   <g id="patch_5">
    <path d="M 370.969063 284.294375 
L 384.111891 284.294375 
L 384.111891 21.437813 
L 370.969063 21.437813 
z
" style="fill: #ffffff"/>
   </g>
   <g id="matplotlib.axis_3"/>
   <g id="matplotlib.axis_4">
    <g id="ytick_6">
     <g id="line2d_11">
      <defs>
       <path id="m3dba0f4ed9" d="M 0 0 
L 3.5 0 
" style="stroke: #000000; stroke-width: 0.8"/>
      </defs>
      <g>
       <use xlink:href="#m3dba0f4ed9" x="384.111891" y="254.813679" style="stroke: #000000; stroke-width: 0.8"/>
      </g>
     </g>
     <g id="text_13">
      <!-- 0.8 -->
      <g transform="translate(391.111891 261.652273) scale(0.18 -0.18)">
       <defs>
        <path id="DejaVuSerif-2e" d="M 603 325 
Q 603 500 722 622 
Q 841 744 1019 744 
Q 1191 744 1312 622 
Q 1434 500 1434 325 
Q 1434 153 1312 31 
Q 1191 -91 1019 -91 
Q 841 -91 722 29 
Q 603 150 603 325 
z
" transform="scale(0.015625)"/>
        <path id="DejaVuSerif-38" d="M 2981 1275 
Q 2981 1775 2732 2051 
Q 2484 2328 2034 2328 
Q 1584 2328 1336 2051 
Q 1088 1775 1088 1275 
Q 1088 772 1336 495 
Q 1584 219 2034 219 
Q 2484 219 2732 495 
Q 2981 772 2981 1275 
z
M 2853 3541 
Q 2853 3966 2637 4203 
Q 2422 4441 2034 4441 
Q 1650 4441 1433 4203 
Q 1216 3966 1216 3541 
Q 1216 3113 1433 2875 
Q 1650 2638 2034 2638 
Q 2422 2638 2637 2875 
Q 2853 3113 2853 3541 
z
M 2516 2484 
Q 3047 2413 3344 2092 
Q 3641 1772 3641 1275 
Q 3641 619 3225 264 
Q 2809 -91 2034 -91 
Q 1263 -91 845 264 
Q 428 619 428 1275 
Q 428 1772 725 2092 
Q 1022 2413 1556 2484 
Q 1084 2569 832 2842 
Q 581 3116 581 3541 
Q 581 4103 968 4426 
Q 1356 4750 2034 4750 
Q 2713 4750 3100 4426 
Q 3488 4103 3488 3541 
Q 3488 3116 3236 2842 
Q 2984 2569 2516 2484 
z
" transform="scale(0.015625)"/>
       </defs>
       <use xlink:href="#DejaVuSerif-30"/>
       <use xlink:href="#DejaVuSerif-2e" x="63.623047"/>
       <use xlink:href="#DejaVuSerif-38" x="95.410156"/>
      </g>
     </g>
    </g>
    <g id="ytick_7">
     <g id="line2d_12">
      <g>
       <use xlink:href="#m3dba0f4ed9" x="384.111891" y="214.144271" style="stroke: #000000; stroke-width: 0.8"/>
      </g>
     </g>
     <g id="text_14">
      <!-- 0.9 -->
      <g transform="translate(391.111891 220.982865) scale(0.18 -0.18)">
       <defs>
        <path id="DejaVuSerif-39" d="M 2994 2091 
Q 2784 1856 2512 1740 
Q 2241 1625 1900 1625 
Q 1206 1625 804 2044 
Q 403 2463 403 3188 
Q 403 3897 839 4323 
Q 1275 4750 2003 4750 
Q 2794 4750 3217 4161 
Q 3641 3572 3641 2478 
Q 3641 1253 3137 581 
Q 2634 -91 1722 -91 
Q 1475 -91 1203 -44 
Q 931 3 647 97 
L 647 872 
L 997 872 
Q 1038 556 1241 387 
Q 1444 219 1784 219 
Q 2391 219 2687 676 
Q 2984 1134 2994 2091 
z
M 1978 4441 
Q 1534 4441 1298 4117 
Q 1063 3794 1063 3188 
Q 1063 2581 1298 2256 
Q 1534 1931 1978 1931 
Q 2422 1931 2658 2245 
Q 2894 2559 2894 3150 
Q 2894 3772 2656 4106 
Q 2419 4441 1978 4441 
z
" transform="scale(0.015625)"/>
       </defs>
       <use xlink:href="#DejaVuSerif-30"/>
       <use xlink:href="#DejaVuSerif-2e" x="63.623047"/>
       <use xlink:href="#DejaVuSerif-39" x="95.410156"/>
      </g>
     </g>
    </g>
    <g id="ytick_8">
     <g id="line2d_13">
      <g>
       <use xlink:href="#m3dba0f4ed9" x="384.111891" y="173.474863" style="stroke: #000000; stroke-width: 0.8"/>
      </g>
     </g>
     <g id="text_15">
      <!-- 1.0 -->
      <g transform="translate(391.111891 180.313457) scale(0.18 -0.18)">
       <defs>
        <path id="DejaVuSerif-31" d="M 909 0 
L 909 331 
L 1722 331 
L 1722 4213 
L 781 3603 
L 781 4013 
L 1919 4750 
L 2350 4750 
L 2350 331 
L 3163 331 
L 3163 0 
L 909 0 
z
" transform="scale(0.015625)"/>
       </defs>
       <use xlink:href="#DejaVuSerif-31"/>
       <use xlink:href="#DejaVuSerif-2e" x="63.623047"/>
       <use xlink:href="#DejaVuSerif-30" x="95.410156"/>
      </g>
     </g>
    </g>
    <g id="ytick_9">
     <g id="line2d_14">
      <g>
       <use xlink:href="#m3dba0f4ed9" x="384.111891" y="132.805455" style="stroke: #000000; stroke-width: 0.8"/>
      </g>
     </g>
     <g id="text_16">
      <!-- 1.1 -->
      <g transform="translate(391.111891 139.644049) scale(0.18 -0.18)">
       <use xlink:href="#DejaVuSerif-31"/>
       <use xlink:href="#DejaVuSerif-2e" x="63.623047"/>
       <use xlink:href="#DejaVuSerif-31" x="95.410156"/>
      </g>
     </g>
    </g>
    <g id="ytick_10">
     <g id="line2d_15">
      <g>
       <use xlink:href="#m3dba0f4ed9" x="384.111891" y="92.136048" style="stroke: #000000; stroke-width: 0.8"/>
      </g>
     </g>
     <g id="text_17">
      <!-- 1.2 -->
      <g transform="translate(391.111891 98.974641) scale(0.18 -0.18)">
       <defs>
        <path id="DejaVuSerif-32" d="M 819 3553 
L 469 3553 
L 469 4384 
Q 803 4563 1142 4656 
Q 1481 4750 1806 4750 
Q 2534 4750 2956 4397 
Q 3378 4044 3378 3438 
Q 3378 2753 2422 1800 
Q 2347 1728 2309 1691 
L 1131 513 
L 3078 513 
L 3078 1088 
L 3444 1088 
L 3444 0 
L 434 0 
L 434 341 
L 1850 1753 
Q 2319 2222 2519 2614 
Q 2719 3006 2719 3438 
Q 2719 3909 2473 4175 
Q 2228 4441 1797 4441 
Q 1350 4441 1106 4219 
Q 863 3997 819 3553 
z
" transform="scale(0.015625)"/>
       </defs>
       <use xlink:href="#DejaVuSerif-31"/>
       <use xlink:href="#DejaVuSerif-2e" x="63.623047"/>
       <use xlink:href="#DejaVuSerif-32" x="95.410156"/>
      </g>
     </g>
    </g>
    <g id="ytick_11">
     <g id="line2d_16">
      <g>
       <use xlink:href="#m3dba0f4ed9" x="384.111891" y="51.46664" style="stroke: #000000; stroke-width: 0.8"/>
      </g>
     </g>
     <g id="text_18">
      <!-- 1.3 -->
      <g transform="translate(391.111891 58.305234) scale(0.18 -0.18)">
       <defs>
        <path id="DejaVuSerif-33" d="M 622 4469 
Q 988 4606 1323 4678 
Q 1659 4750 1953 4750 
Q 2638 4750 3022 4454 
Q 3406 4159 3406 3634 
Q 3406 3213 3140 2930 
Q 2875 2647 2388 2547 
Q 2963 2466 3280 2130 
Q 3597 1794 3597 1259 
Q 3597 606 3158 257 
Q 2719 -91 1894 -91 
Q 1528 -91 1179 -12 
Q 831 66 488 225 
L 488 1131 
L 838 1131 
Q 869 681 1141 450 
Q 1413 219 1906 219 
Q 2384 219 2661 495 
Q 2938 772 2938 1253 
Q 2938 1803 2653 2086 
Q 2369 2369 1819 2369 
L 1522 2369 
L 1522 2688 
L 1678 2688 
Q 2225 2688 2498 2914 
Q 2772 3141 2772 3597 
Q 2772 4006 2547 4223 
Q 2322 4441 1900 4441 
Q 1478 4441 1245 4241 
Q 1013 4041 972 3647 
L 622 3647 
L 622 4469 
z
" transform="scale(0.015625)"/>
       </defs>
       <use xlink:href="#DejaVuSerif-31"/>
       <use xlink:href="#DejaVuSerif-2e" x="63.623047"/>
       <use xlink:href="#DejaVuSerif-33" x="95.410156"/>
      </g>
     </g>
    </g>
   </g>
   <g id="LineCollection_1"/>
   <g id="LineCollection_2">
    <path d="M 370.969063 284.294375 
L 384.111891 284.294375 
" clip-path="url(#pe775b3e1cc)" style="fill: none; stroke: #000080"/>
    <path d="M 370.969063 275.230356 
L 384.111891 275.230356 
" clip-path="url(#pe775b3e1cc)" style="fill: none; stroke: #0000a4"/>
    <path d="M 370.969063 266.166336 
L 384.111891 266.166336 
" clip-path="url(#pe775b3e1cc)" style="fill: none; stroke: #0000cd"/>
    <path d="M 370.969063 257.102317 
L 384.111891 257.102317 
" clip-path="url(#pe775b3e1cc)" style="fill: none; stroke: #0000f6"/>
    <path d="M 370.969063 248.038297 
L 384.111891 248.038297 
" clip-path="url(#pe775b3e1cc)" style="fill: none; stroke: #000cff"/>
    <path d="M 370.969063 238.974278 
L 384.111891 238.974278 
" clip-path="url(#pe775b3e1cc)" style="fill: none; stroke: #0030ff"/>
    <path d="M 370.969063 229.910259 
L 384.111891 229.910259 
" clip-path="url(#pe775b3e1cc)" style="fill: none; stroke: #0050ff"/>
    <path d="M 370.969063 220.846239 
L 384.111891 220.846239 
" clip-path="url(#pe775b3e1cc)" style="fill: none; stroke: #0074ff"/>
    <path d="M 370.969063 211.78222 
L 384.111891 211.78222 
" clip-path="url(#pe775b3e1cc)" style="fill: none; stroke: #0098ff"/>
    <path d="M 370.969063 202.7182 
L 384.111891 202.7182 
" clip-path="url(#pe775b3e1cc)" style="fill: none; stroke: #00bcff"/>
    <path d="M 370.969063 193.654181 
L 384.111891 193.654181 
" clip-path="url(#pe775b3e1cc)" style="fill: none; stroke: #00e0fb"/>
    <path d="M 370.969063 184.590162 
L 384.111891 184.590162 
" clip-path="url(#pe775b3e1cc)" style="fill: none; stroke: #19ffde"/>
    <path d="M 370.969063 175.526142 
L 384.111891 175.526142 
" clip-path="url(#pe775b3e1cc)" style="fill: none; stroke: #33ffc4"/>
    <path d="M 370.969063 166.462123 
L 384.111891 166.462123 
" clip-path="url(#pe775b3e1cc)" style="fill: none; stroke: #50ffa7"/>
    <path d="M 370.969063 157.398103 
L 384.111891 157.398103 
" clip-path="url(#pe775b3e1cc)" style="fill: none; stroke: #6dff8a"/>
    <path d="M 370.969063 148.334084 
L 384.111891 148.334084 
" clip-path="url(#pe775b3e1cc)" style="fill: none; stroke: #8aff6d"/>
    <path d="M 370.969063 139.270065 
L 384.111891 139.270065 
" clip-path="url(#pe775b3e1cc)" style="fill: none; stroke: #a7ff50"/>
    <path d="M 370.969063 130.206045 
L 384.111891 130.206045 
" clip-path="url(#pe775b3e1cc)" style="fill: none; stroke: #c4ff33"/>
    <path d="M 370.969063 121.142026 
L 384.111891 121.142026 
" clip-path="url(#pe775b3e1cc)" style="fill: none; stroke: #deff19"/>
    <path d="M 370.969063 112.078006 
L 384.111891 112.078006 
" clip-path="url(#pe775b3e1cc)" style="fill: none; stroke: #fbf100"/>
    <path d="M 370.969063 103.013987 
L 384.111891 103.013987 
" clip-path="url(#pe775b3e1cc)" style="fill: none; stroke: #ffd000"/>
    <path d="M 370.969063 93.949968 
L 384.111891 93.949968 
" clip-path="url(#pe775b3e1cc)" style="fill: none; stroke: #ffae00"/>
    <path d="M 370.969063 84.885948 
L 384.111891 84.885948 
" clip-path="url(#pe775b3e1cc)" style="fill: none; stroke: #ff8d00"/>
    <path d="M 370.969063 75.821929 
L 384.111891 75.821929 
" clip-path="url(#pe775b3e1cc)" style="fill: none; stroke: #ff6c00"/>
    <path d="M 370.969063 66.757909 
L 384.111891 66.757909 
" clip-path="url(#pe775b3e1cc)" style="fill: none; stroke: #ff4e00"/>
    <path d="M 370.969063 57.69389 
L 384.111891 57.69389 
" clip-path="url(#pe775b3e1cc)" style="fill: none; stroke: #ff2d00"/>
    <path d="M 370.969063 48.629871 
L 384.111891 48.629871 
" clip-path="url(#pe775b3e1cc)" style="fill: none; stroke: #f60b00"/>
    <path d="M 370.969063 39.565851 
L 384.111891 39.565851 
" clip-path="url(#pe775b3e1cc)" style="fill: none; stroke: #cd0000"/>
    <path d="M 370.969063 30.501832 
L 384.111891 30.501832 
" clip-path="url(#pe775b3e1cc)" style="fill: none; stroke: #a40000"/>
    <path d="M 370.969063 21.437813 
L 384.111891 21.437813 
" clip-path="url(#pe775b3e1cc)" style="fill: none; stroke: #800000"/>
   </g>
   <g id="patch_6">
    <path d="M 370.969063 284.294375 
L 377.540477 284.294375 
L 384.111891 284.294375 
L 384.111891 21.437813 
L 377.540477 21.437813 
L 370.969063 21.437813 
L 370.969063 284.294375 
z
" style="fill: none; stroke: #000000; stroke-width: 0.8; stroke-linejoin: miter; stroke-linecap: square"/>
   </g>
  </g>
 </g>
 <defs>
  <clipPath id="p3179526dc2">
   <rect x="107.665625" y="21.437813" width="247.815" height="262.856562"/>
  </clipPath>
  <clipPath id="pe775b3e1cc">
   <path d="M 370.969063 285.242631 
L 384.111891 285.242631 
L 384.111891 20.489557 
L 370.969063 20.489557 
z
"/>
  </clipPath>
 </defs>
</svg>
