<?xml version="1.0" encoding="utf-8" standalone="no"?>
<!DOCTYPE svg PUBLIC "-//W3C//DTD SVG 1.1//EN"
  "http://www.w3.org/Graphics/SVG/1.1/DTD/svg11.dtd">
<svg xmlns:xlink="http://www.w3.org/1999/xlink" width="432pt" height="360pt" viewBox="0 0 432 360" xmlns="http://www.w3.org/2000/svg" version="1.1">
 <metadata>
  <rdf:RDF xmlns:dc="http://purl.org/dc/elements/1.1/" xmlns:cc="http://creativecommons.org/ns#" xmlns:rdf="http://www.w3.org/1999/02/22-rdf-syntax-ns#">
   <cc:Work>
    <dc:type rdf:resource="http://purl.org/dc/dcmitype/StillImage"/>
    <dc:date>2025-04-13T22:44:58.101160</dc:date>
    <dc:format>image/svg+xml</dc:format>
    <dc:creator>
     <cc:Agent>
      <dc:title>Matplotlib v3.9.2, https://matplotlib.org/</dc:title>
     </cc:Agent>
    </dc:creator>
   </cc:Work>
  </rdf:RDF>
 </metadata>
 <defs>
  <style type="text/css">*{stroke-linejoin: round; stroke-linecap: butt}</style>
 </defs>
 <g id="figure_1">
  <g id="patch_1">
   <path d="M 0 360 
L 432 360 
L 432 0 
L 0 0 
z
" style="fill: #ffffff"/>
  </g>
  <g id="axes_1">
   <g id="patch_2">
    <path d="M 107.665625 284.294375 
L 346.318625 284.294375 
L 346.318625 21.437813 
L 107.665625 21.437813 
z
" style="fill: #ffffff"/>
   </g>
   <g id="matplotlib.axis_1">
    <g id="xtick_1">
     <g id="line2d_1">
      <defs>
       <path id="mb5fc32adf9" d="M 0 0 
L 0 3.5 
" style="stroke: #000000; stroke-width: 0.8"/>
      </defs>
      <g>
       <use xlink:href="#mb5fc32adf9" x="107.665625" y="284.294375" style="stroke: #000000; stroke-width: 0.8"/>
      </g>
     </g>
     <g id="text_1">
      <!-- 0 -->
      <g transform="translate(98.758125 312.57) scale(0.28 -0.28)">
       <defs>
        <path id="DejaVuSerif-30" d="M 2034 219 
Q 2513 219 2750 744 
Q 2988 1269 2988 2328 
Q 2988 3391 2750 3916 
Q 2513 4441 2034 4441 
Q 1556 4441 1318 3916 
Q 1081 3391 1081 2328 
Q 1081 1269 1318 744 
Q 1556 219 2034 219 
z
M 2034 -91 
Q 1275 -91 848 546 
Q 422 1184 422 2328 
Q 422 3475 848 4112 
Q 1275 4750 2034 4750 
Q 2797 4750 3222 4112 
Q 3647 3475 3647 2328 
Q 3647 1184 3222 546 
Q 2797 -91 2034 -91 
z
" transform="scale(0.015625)"/>
       </defs>
       <use xlink:href="#DejaVuSerif-30"/>
      </g>
     </g>
    </g>
    <g id="xtick_2">
     <g id="line2d_2">
      <g>
       <use xlink:href="#mb5fc32adf9" x="167.328875" y="284.294375" style="stroke: #000000; stroke-width: 0.8"/>
      </g>
     </g>
     <g id="text_2">
      <!-- $\pi/4$ -->
      <g transform="translate(145.348875 312.294375) scale(0.28 -0.28)">
       <defs>
        <path id="Cmmi10-bc" d="M 647 109 
Q 647 144 672 213 
Q 850 584 1004 942 
Q 1159 1300 1282 1639 
Q 1406 1978 1509 2363 
L 1100 2363 
Q 866 2363 662 2216 
Q 459 2069 325 1844 
Q 313 1819 288 1819 
L 213 1819 
Q 153 1819 153 1881 
Q 153 1894 166 1919 
Q 375 2275 614 2517 
Q 853 2759 1153 2759 
L 3475 2759 
Q 3541 2759 3587 2715 
Q 3634 2672 3634 2597 
Q 3634 2503 3567 2433 
Q 3500 2363 3406 2363 
L 2591 2363 
Q 2488 1859 2478 1381 
Q 2478 766 2694 269 
Q 2713 231 2713 191 
Q 2713 122 2672 62 
Q 2631 3 2567 -34 
Q 2503 -72 2431 -72 
Q 2263 -72 2200 203 
Q 2138 478 2138 738 
Q 2138 1103 2200 1442 
Q 2263 1781 2400 2363 
L 1703 2363 
Q 1197 313 1094 103 
Q 1003 -72 844 -72 
Q 766 -72 706 -20 
Q 647 31 647 109 
z
" transform="scale(0.015625)"/>
        <path id="Cmmi10-3d" d="M 359 -1472 
Q 359 -1453 366 -1447 
L 2591 4722 
Q 2603 4759 2634 4779 
Q 2666 4800 2706 4800 
Q 2763 4800 2798 4765 
Q 2834 4731 2834 4672 
L 2834 4647 
L 609 -1522 
Q 572 -1600 488 -1600 
Q 434 -1600 396 -1562 
Q 359 -1525 359 -1472 
z
" transform="scale(0.015625)"/>
        <path id="Cmr10-34" d="M 178 1056 
L 178 1281 
L 2156 4231 
Q 2178 4263 2222 4263 
L 2316 4263 
Q 2388 4263 2388 4191 
L 2388 1281 
L 3016 1281 
L 3016 1056 
L 2388 1056 
L 2388 428 
Q 2388 297 2575 261 
Q 2763 225 3009 225 
L 3009 0 
L 1247 0 
L 1247 225 
Q 1494 225 1681 261 
Q 1869 297 1869 428 
L 1869 1056 
L 178 1056 
z
M 391 1281 
L 1906 1281 
L 1906 3547 
L 391 1281 
z
" transform="scale(0.015625)"/>
       </defs>
       <use xlink:href="#Cmmi10-bc"/>
       <use xlink:href="#Cmmi10-3d" transform="translate(56.982422 0)"/>
       <use xlink:href="#Cmr10-34" transform="translate(106.982422 0)"/>
      </g>
     </g>
    </g>
    <g id="xtick_3">
     <g id="line2d_3">
      <g>
       <use xlink:href="#mb5fc32adf9" x="226.992125" y="284.294375" style="stroke: #000000; stroke-width: 0.8"/>
      </g>
     </g>
     <g id="text_3">
      <!-- $\pi/2$ -->
      <g transform="translate(205.012125 312.294375) scale(0.28 -0.28)">
       <defs>
        <path id="Cmr10-32" d="M 319 0 
L 319 172 
Q 319 188 331 206 
L 1325 1306 
Q 1550 1550 1690 1715 
Q 1831 1881 1968 2097 
Q 2106 2313 2186 2536 
Q 2266 2759 2266 3009 
Q 2266 3272 2169 3511 
Q 2072 3750 1880 3894 
Q 1688 4038 1416 4038 
Q 1138 4038 916 3870 
Q 694 3703 603 3438 
Q 628 3444 672 3444 
Q 816 3444 917 3347 
Q 1019 3250 1019 3097 
Q 1019 2950 917 2848 
Q 816 2747 672 2747 
Q 522 2747 420 2851 
Q 319 2956 319 3097 
Q 319 3338 409 3548 
Q 500 3759 670 3923 
Q 841 4088 1055 4175 
Q 1269 4263 1509 4263 
Q 1875 4263 2190 4108 
Q 2506 3953 2690 3670 
Q 2875 3388 2875 3009 
Q 2875 2731 2753 2481 
Q 2631 2231 2440 2026 
Q 2250 1822 1953 1562 
Q 1656 1303 1563 1216 
L 838 519 
L 1453 519 
Q 1906 519 2211 526 
Q 2516 534 2534 550 
Q 2609 631 2688 1141 
L 2875 1141 
L 2694 0 
L 319 0 
z
" transform="scale(0.015625)"/>
       </defs>
       <use xlink:href="#Cmmi10-bc"/>
       <use xlink:href="#Cmmi10-3d" transform="translate(56.982422 0)"/>
       <use xlink:href="#Cmr10-32" transform="translate(106.982422 0)"/>
      </g>
     </g>
    </g>
    <g id="xtick_4">
     <g id="line2d_4">
      <g>
       <use xlink:href="#mb5fc32adf9" x="286.655375" y="284.294375" style="stroke: #000000; stroke-width: 0.8"/>
      </g>
     </g>
     <g id="text_4">
      <!-- $3\pi/4$ -->
      <g transform="translate(257.675375 312.294375) scale(0.28 -0.28)">
       <defs>
        <path id="Cmr10-33" d="M 609 494 
Q 759 275 1012 169 
Q 1266 63 1556 63 
Q 1928 63 2084 380 
Q 2241 697 2241 1100 
Q 2241 1281 2208 1462 
Q 2175 1644 2097 1800 
Q 2019 1956 1883 2050 
Q 1747 2144 1550 2144 
L 1125 2144 
Q 1069 2144 1069 2203 
L 1069 2259 
Q 1069 2309 1125 2309 
L 1478 2338 
Q 1703 2338 1851 2506 
Q 2000 2675 2069 2917 
Q 2138 3159 2138 3378 
Q 2138 3684 1994 3881 
Q 1850 4078 1556 4078 
Q 1313 4078 1091 3986 
Q 869 3894 738 3706 
Q 750 3709 759 3711 
Q 769 3713 781 3713 
Q 925 3713 1022 3613 
Q 1119 3513 1119 3372 
Q 1119 3234 1022 3134 
Q 925 3034 781 3034 
Q 641 3034 541 3134 
Q 441 3234 441 3372 
Q 441 3647 606 3850 
Q 772 4053 1033 4158 
Q 1294 4263 1556 4263 
Q 1750 4263 1965 4205 
Q 2181 4147 2356 4039 
Q 2531 3931 2642 3762 
Q 2753 3594 2753 3378 
Q 2753 3109 2633 2881 
Q 2513 2653 2303 2487 
Q 2094 2322 1844 2241 
Q 2122 2188 2372 2031 
Q 2622 1875 2773 1631 
Q 2925 1388 2925 1106 
Q 2925 753 2731 467 
Q 2538 181 2222 20 
Q 1906 -141 1556 -141 
Q 1256 -141 954 -26 
Q 653 88 461 316 
Q 269 544 269 863 
Q 269 1022 375 1128 
Q 481 1234 641 1234 
Q 744 1234 830 1186 
Q 916 1138 964 1050 
Q 1013 963 1013 863 
Q 1013 706 903 600 
Q 794 494 641 494 
L 609 494 
z
" transform="scale(0.015625)"/>
       </defs>
       <use xlink:href="#Cmr10-33"/>
       <use xlink:href="#Cmmi10-bc" transform="translate(50 0)"/>
       <use xlink:href="#Cmmi10-3d" transform="translate(106.982422 0)"/>
       <use xlink:href="#Cmr10-34" transform="translate(156.982422 0)"/>
      </g>
     </g>
    </g>
    <g id="xtick_5">
     <g id="line2d_5">
      <g>
       <use xlink:href="#mb5fc32adf9" x="346.318625" y="284.294375" style="stroke: #000000; stroke-width: 0.8"/>
      </g>
     </g>
     <g id="text_5">
      <!-- $\pi$ -->
      <g transform="translate(338.338625 312.57) scale(0.28 -0.28)">
       <use xlink:href="#Cmmi10-bc" transform="translate(0 0.890625)"/>
      </g>
     </g>
    </g>
    <g id="text_6">
     <!-- $\zeta_{\mathrm{Boozer}}$ -->
     <g transform="translate(182.792125 342.06) scale(0.34 -0.34)">
      <defs>
       <path id="Cmmi10-b3" d="M 1131 -997 
Q 1147 -922 1222 -922 
Q 1234 -922 1332 -986 
Q 1431 -1050 1542 -1098 
Q 1653 -1147 1784 -1147 
Q 1922 -1147 2014 -1019 
Q 2106 -891 2106 -744 
Q 2106 -597 2009 -494 
Q 1913 -391 1766 -341 
L 1113 -122 
Q 713 16 503 317 
Q 294 619 294 1050 
Q 294 1416 426 1831 
Q 559 2247 793 2637 
Q 1028 3028 1334 3339 
Q 1641 3650 1972 3822 
Q 1906 3953 1906 4128 
Q 1906 4475 2041 4475 
Q 2075 4475 2100 4450 
Q 2125 4425 2125 4391 
Q 2125 4344 2109 4245 
Q 2094 4147 2094 4122 
Q 2094 4006 2131 3897 
Q 2297 3963 2438 3963 
Q 3028 3963 3028 3781 
Q 3028 3566 2375 3566 
Q 2181 3566 2069 3681 
Q 1794 3525 1539 3244 
Q 1284 2963 1087 2613 
Q 891 2263 781 1906 
Q 672 1550 672 1228 
Q 672 538 1300 319 
L 1984 91 
Q 2200 25 2336 -139 
Q 2472 -303 2472 -531 
Q 2472 -716 2378 -898 
Q 2284 -1081 2125 -1197 
Q 1966 -1313 1772 -1313 
Q 1619 -1313 1375 -1211 
Q 1131 -1109 1131 -997 
z
M 2247 3763 
Q 2241 3763 2303 3738 
Q 2331 3738 2348 3736 
Q 2366 3734 2388 3731 
Q 2694 3731 2828 3769 
Q 2706 3794 2438 3794 
Q 2350 3794 2247 3763 
z
" transform="scale(0.015625)"/>
       <path id="Cmr10-42" d="M 219 0 
L 219 225 
Q 878 225 878 428 
L 878 3944 
Q 878 4147 219 4147 
L 219 4372 
L 2572 4372 
Q 2897 4372 3228 4245 
Q 3559 4119 3776 3870 
Q 3994 3622 3994 3284 
Q 3994 2894 3673 2630 
Q 3353 2366 2925 2284 
Q 3203 2284 3497 2131 
Q 3791 1978 3978 1722 
Q 4166 1466 4166 1178 
Q 4166 828 3958 559 
Q 3750 291 3419 145 
Q 3088 0 2753 0 
L 219 0 
z
M 1434 428 
Q 1434 291 1512 258 
Q 1591 225 1759 225 
L 2572 225 
Q 2822 225 3036 356 
Q 3250 488 3375 708 
Q 3500 928 3500 1178 
Q 3500 1422 3397 1655 
Q 3294 1888 3101 2038 
Q 2909 2188 2663 2188 
L 1434 2188 
L 1434 428 
z
M 1434 2356 
L 2394 2356 
Q 2588 2356 2758 2426 
Q 2928 2497 3064 2630 
Q 3200 2763 3273 2930 
Q 3347 3097 3347 3284 
Q 3347 3450 3292 3603 
Q 3238 3756 3131 3881 
Q 3025 4006 2881 4076 
Q 2738 4147 2572 4147 
L 1759 4147 
Q 1644 4147 1580 4137 
Q 1516 4128 1475 4083 
Q 1434 4038 1434 3944 
L 1434 2356 
z
" transform="scale(0.015625)"/>
       <path id="Cmr10-6f" d="M 1600 -72 
Q 1216 -72 887 123 
Q 559 319 368 647 
Q 178 975 178 1363 
Q 178 1656 283 1928 
Q 388 2200 583 2414 
Q 778 2628 1037 2748 
Q 1297 2869 1600 2869 
Q 1994 2869 2317 2661 
Q 2641 2453 2828 2104 
Q 3016 1756 3016 1363 
Q 3016 978 2825 648 
Q 2634 319 2307 123 
Q 1981 -72 1600 -72 
z
M 1600 116 
Q 2113 116 2284 487 
Q 2456 859 2456 1434 
Q 2456 1756 2422 1967 
Q 2388 2178 2272 2350 
Q 2200 2456 2089 2536 
Q 1978 2616 1854 2658 
Q 1731 2700 1600 2700 
Q 1400 2700 1220 2609 
Q 1041 2519 922 2350 
Q 803 2169 770 1951 
Q 738 1734 738 1434 
Q 738 1075 800 789 
Q 863 503 1052 309 
Q 1241 116 1600 116 
z
" transform="scale(0.015625)"/>
       <path id="Cmr10-7a" d="M 250 0 
Q 178 0 178 72 
L 178 122 
Q 178 147 197 166 
L 1984 2591 
L 1409 2591 
Q 1138 2591 961 2556 
Q 784 2522 670 2426 
Q 556 2331 504 2164 
Q 453 1997 453 1703 
L 269 1703 
L 341 2759 
L 2484 2759 
Q 2513 2759 2533 2739 
Q 2553 2719 2553 2688 
L 2553 2650 
Q 2553 2631 2541 2606 
L 750 184 
L 1363 184 
Q 1641 184 1827 218 
Q 2013 253 2144 384 
Q 2266 506 2311 712 
Q 2356 919 2381 1222 
L 2566 1222 
L 2456 0 
L 250 0 
z
" transform="scale(0.015625)"/>
       <path id="Cmr10-65" d="M 1594 -72 
Q 1203 -72 876 133 
Q 550 338 364 680 
Q 178 1022 178 1403 
Q 178 1778 348 2115 
Q 519 2453 823 2661 
Q 1128 2869 1503 2869 
Q 1797 2869 2014 2770 
Q 2231 2672 2372 2497 
Q 2513 2322 2584 2084 
Q 2656 1847 2656 1563 
Q 2656 1478 2591 1478 
L 738 1478 
L 738 1409 
Q 738 878 952 497 
Q 1166 116 1650 116 
Q 1847 116 2014 203 
Q 2181 291 2304 447 
Q 2428 603 2472 781 
Q 2478 803 2495 820 
Q 2513 838 2534 838 
L 2591 838 
Q 2656 838 2656 756 
Q 2566 394 2266 161 
Q 1966 -72 1594 -72 
z
M 744 1638 
L 2203 1638 
Q 2203 1878 2136 2125 
Q 2069 2372 1912 2536 
Q 1756 2700 1503 2700 
Q 1141 2700 942 2361 
Q 744 2022 744 1638 
z
" transform="scale(0.015625)"/>
       <path id="Cmr10-72" d="M 166 0 
L 166 225 
Q 384 225 525 259 
Q 666 294 666 428 
L 666 2175 
Q 666 2347 614 2423 
Q 563 2500 466 2517 
Q 369 2534 166 2534 
L 166 2759 
L 1081 2828 
L 1081 2203 
Q 1184 2481 1375 2654 
Q 1566 2828 1838 2828 
Q 2028 2828 2178 2715 
Q 2328 2603 2328 2419 
Q 2328 2303 2245 2217 
Q 2163 2131 2041 2131 
Q 1922 2131 1837 2215 
Q 1753 2300 1753 2419 
Q 1753 2591 1875 2663 
L 1838 2663 
Q 1578 2663 1414 2475 
Q 1250 2288 1181 2009 
Q 1113 1731 1113 1478 
L 1113 428 
Q 1113 225 1734 225 
L 1734 0 
L 166 0 
z
" transform="scale(0.015625)"/>
      </defs>
      <use xlink:href="#Cmmi10-b3" transform="translate(0 0.078125)"/>
      <use xlink:href="#Cmr10-42" transform="translate(43.701172 -16.928125) scale(0.7)"/>
      <use xlink:href="#Cmr10-6f" transform="translate(93.261719 -16.928125) scale(0.7)"/>
      <use xlink:href="#Cmr10-6f" transform="translate(128.261719 -16.928125) scale(0.7)"/>
      <use xlink:href="#Cmr10-7a" transform="translate(163.261719 -16.928125) scale(0.7)"/>
      <use xlink:href="#Cmr10-65" transform="translate(194.331055 -16.928125) scale(0.7)"/>
      <use xlink:href="#Cmr10-72" transform="translate(225.400391 -16.928125) scale(0.7)"/>
     </g>
    </g>
   </g>
   <g id="matplotlib.axis_2">
    <g id="ytick_1">
     <g id="line2d_6">
      <defs>
       <path id="mea934f5583" d="M 0 0 
L -3.5 0 
" style="stroke: #000000; stroke-width: 0.8"/>
      </defs>
      <g>
       <use xlink:href="#mea934f5583" x="107.665625" y="284.294375" style="stroke: #000000; stroke-width: 0.8"/>
      </g>
     </g>
     <g id="text_7">
      <!-- 0 -->
      <g transform="translate(82.850625 294.932187) scale(0.28 -0.28)">
       <use xlink:href="#DejaVuSerif-30"/>
      </g>
     </g>
    </g>
    <g id="ytick_2">
     <g id="line2d_7">
      <g>
       <use xlink:href="#mea934f5583" x="107.665625" y="218.580234" style="stroke: #000000; stroke-width: 0.8"/>
      </g>
     </g>
     <g id="text_8">
      <!-- $\pi/2$ -->
      <g transform="translate(56.705625 229.080234) scale(0.28 -0.28)">
       <use xlink:href="#Cmmi10-bc"/>
       <use xlink:href="#Cmmi10-3d" transform="translate(56.982422 0)"/>
       <use xlink:href="#Cmr10-32" transform="translate(106.982422 0)"/>
      </g>
     </g>
    </g>
    <g id="ytick_3">
     <g id="line2d_8">
      <g>
       <use xlink:href="#mea934f5583" x="107.665625" y="152.866094" style="stroke: #000000; stroke-width: 0.8"/>
      </g>
     </g>
     <g id="text_9">
      <!-- $\pi$ -->
      <g transform="translate(84.705625 163.503906) scale(0.28 -0.28)">
       <use xlink:href="#Cmmi10-bc" transform="translate(0 0.890625)"/>
      </g>
     </g>
    </g>
    <g id="ytick_4">
     <g id="line2d_9">
      <g>
       <use xlink:href="#mea934f5583" x="107.665625" y="87.151953" style="stroke: #000000; stroke-width: 0.8"/>
      </g>
     </g>
     <g id="text_10">
      <!-- $3\pi/2$ -->
      <g transform="translate(42.705625 97.651953) scale(0.28 -0.28)">
       <use xlink:href="#Cmr10-33"/>
       <use xlink:href="#Cmmi10-bc" transform="translate(50 0)"/>
       <use xlink:href="#Cmmi10-3d" transform="translate(106.982422 0)"/>
       <use xlink:href="#Cmr10-32" transform="translate(156.982422 0)"/>
      </g>
     </g>
    </g>
    <g id="ytick_5">
     <g id="line2d_10">
      <g>
       <use xlink:href="#mea934f5583" x="107.665625" y="21.437813" style="stroke: #000000; stroke-width: 0.8"/>
      </g>
     </g>
     <g id="text_11">
      <!-- $2\pi$ -->
      <g transform="translate(70.705625 32.075625) scale(0.28 -0.28)">
       <use xlink:href="#Cmr10-32" transform="translate(0 0.390625)"/>
       <use xlink:href="#Cmmi10-bc" transform="translate(50 0.390625)"/>
      </g>
     </g>
    </g>
    <g id="text_12">
     <!-- $\theta_{\mathrm{Boozer}}$ -->
     <g transform="translate(36.634687 197.576094) rotate(-90) scale(0.34 -0.34)">
      <defs>
       <path id="Cmmi10-b5" d="M 1031 -72 
Q 741 -72 566 140 
Q 391 353 323 653 
Q 256 953 256 1247 
L 256 1253 
Q 256 1572 317 1915 
Q 378 2259 493 2601 
Q 609 2944 744 3213 
Q 838 3400 986 3631 
Q 1134 3863 1317 4064 
Q 1500 4266 1711 4389 
Q 1922 4513 2138 4513 
L 2144 4513 
Q 2375 4513 2529 4384 
Q 2684 4256 2770 4056 
Q 2856 3856 2890 3628 
Q 2925 3400 2925 3194 
Q 2925 2709 2794 2204 
Q 2663 1700 2431 1228 
Q 2344 1050 2189 809 
Q 2034 569 1861 378 
Q 1688 188 1472 58 
Q 1256 -72 1038 -72 
L 1031 -72 
z
M 1044 97 
Q 1256 97 1451 323 
Q 1647 550 1794 873 
Q 1941 1197 2052 1536 
Q 2163 1875 2216 2113 
L 909 2113 
Q 809 1709 753 1417 
Q 697 1125 697 844 
Q 697 97 1044 97 
z
M 959 2338 
L 2272 2338 
Q 2341 2619 2381 2808 
Q 2422 2997 2450 3206 
Q 2478 3416 2478 3597 
Q 2478 4347 2138 4347 
Q 1731 4347 1436 3692 
Q 1141 3038 959 2338 
z
" transform="scale(0.015625)"/>
      </defs>
      <use xlink:href="#Cmmi10-b5" transform="translate(0 0.484375)"/>
      <use xlink:href="#Cmr10-42" transform="translate(46.923828 -16.521875) scale(0.7)"/>
      <use xlink:href="#Cmr10-6f" transform="translate(96.484375 -16.521875) scale(0.7)"/>
      <use xlink:href="#Cmr10-6f" transform="translate(131.484375 -16.521875) scale(0.7)"/>
      <use xlink:href="#Cmr10-7a" transform="translate(166.484375 -16.521875) scale(0.7)"/>
      <use xlink:href="#Cmr10-65" transform="translate(197.553711 -16.521875) scale(0.7)"/>
      <use xlink:href="#Cmr10-72" transform="translate(228.623047 -16.521875) scale(0.7)"/>
     </g>
    </g>
   </g>
   <g id="QuadContourSet_1">
    <path d="M 226.992125 152.866094 
L 226.992125 152.866094 
L 226.992125 152.866094 
L 226.992125 152.866094 
L 226.992125 152.866094 
z
" clip-path="url(#p874f0fce48)" style="fill: none; stroke: #000080"/>
    <path d="M 217.160871 284.294375 
L 218.71943 272.611861 
L 219.532942 266.770604 
L 220.699289 258.008719 
L 221.933931 246.326205 
L 222.502128 240.484948 
L 223.07596 231.723062 
L 223.328189 222.961177 
L 223.258755 214.199292 
L 222.860199 205.437406 
L 222.407427 199.596149 
L 221.201939 187.913635 
L 220.148339 179.15175 
L 215.419639 144.104208 
L 213.672519 129.501066 
L 212.670374 117.818552 
L 212.116456 109.056667 
L 211.800386 100.294781 
L 211.754333 91.532896 
L 211.958886 82.77101 
L 212.51052 71.088497 
L 213.443335 56.485354 
L 214.178878 47.723469 
L 215.689322 33.120326 
L 216.745883 24.358441 
L 217.160871 21.437813 
M 236.823379 21.437813 
L 235.26482 33.120326 
L 234.451308 38.961583 
L 233.284961 47.723469 
L 232.050319 59.405983 
L 231.482122 65.24724 
L 230.90829 74.009125 
L 230.656061 82.77101 
L 230.725495 91.532896 
L 231.124051 100.294781 
L 231.576823 106.136038 
L 232.782311 117.818552 
L 233.835911 126.580438 
L 238.564611 161.627979 
L 240.311731 176.231122 
L 241.313876 187.913635 
L 241.867794 196.675521 
L 242.183864 205.437406 
L 242.229917 214.199292 
L 242.025364 222.961177 
L 241.47373 234.643691 
L 240.540915 249.246833 
L 239.805372 258.008719 
L 238.294928 272.611861 
L 237.238367 281.373747 
L 236.823379 284.294375 
L 236.823379 284.294375 
" clip-path="url(#p874f0fce48)" style="fill: none; stroke: #0000a4"/>
    <path d="M 212.599887 284.294375 
L 215.899177 260.929347 
L 217.860256 243.405576 
L 218.48551 234.643691 
L 218.827459 225.881806 
L 218.87088 217.11992 
L 218.603923 208.358035 
L 218.027249 199.596149 
L 217.156735 190.834264 
L 215.320314 176.231122 
L 212.791894 158.707351 
L 209.075274 132.421694 
L 208.00433 123.659809 
L 207.12798 114.897924 
L 206.459557 106.136038 
L 206.073267 97.374153 
L 206.013117 88.612267 
L 206.270617 79.850382 
L 206.789982 71.088497 
L 207.767384 59.405983 
L 208.668451 50.644097 
L 210.49447 36.040955 
L 211.731371 27.279069 
L 212.599887 21.437813 
M 241.384363 21.437813 
L 238.085073 44.80284 
L 236.123994 62.326611 
L 235.49874 71.088497 
L 235.156791 79.850382 
L 235.11337 88.612267 
L 235.380327 97.374153 
L 235.957001 106.136038 
L 236.827515 114.897924 
L 238.663936 129.501066 
L 241.192356 147.024837 
L 244.908976 173.310493 
L 245.97992 182.072378 
L 246.85627 190.834264 
L 247.524693 199.596149 
L 247.910983 208.358035 
L 247.971133 217.11992 
L 247.713633 225.881806 
L 247.194268 234.643691 
L 246.216866 246.326205 
L 245.315799 255.08809 
L 243.48978 269.691233 
L 242.252879 278.453118 
L 241.384363 284.294375 
L 241.384363 284.294375 
" clip-path="url(#p874f0fce48)" style="fill: none; stroke: #0000cd"/>
    <path d="M 209.066218 284.294375 
L 210.910741 272.611861 
L 213.355038 255.08809 
L 214.872905 240.484948 
L 215.433577 231.723062 
L 215.679481 222.961177 
L 215.658581 217.11992 
L 215.485938 211.278663 
L 214.945721 202.516778 
L 214.087549 193.754892 
L 212.242009 179.15175 
L 209.5789 161.627979 
L 205.433364 135.342323 
L 203.40909 120.739181 
L 202.733228 114.897924 
L 201.931955 106.136038 
L 201.421904 97.374153 
L 201.276861 91.532896 
L 201.30001 85.691639 
L 201.490189 79.850382 
L 202.061262 71.088497 
L 202.912057 62.326611 
L 204.019762 53.564726 
L 205.778525 41.455464 
L 209.066218 21.437813 
M 244.918032 21.437813 
L 243.073509 33.120326 
L 240.629212 50.644097 
L 239.111345 65.24724 
L 238.550673 74.009125 
L 238.304769 82.77101 
L 238.325669 88.612267 
L 238.498312 94.453524 
L 239.038529 103.21541 
L 239.896701 111.977295 
L 241.742241 126.580438 
L 244.40535 144.104208 
L 248.550886 170.389865 
L 250.57516 184.993007 
L 251.251022 190.834264 
L 252.052295 199.596149 
L 252.562346 208.358035 
L 252.707389 214.199292 
L 252.68424 220.040549 
L 252.494061 225.881806 
L 251.922988 234.643691 
L 251.072193 243.405576 
L 249.964488 252.167462 
L 248.205725 264.276724 
L 244.918032 284.294375 
L 244.918032 284.294375 
" clip-path="url(#p874f0fce48)" style="fill: none; stroke: #0000f6"/>
    <path d="M 206.017605 284.294375 
L 207.581197 275.53249 
L 209.862766 260.929347 
L 211.081925 251.101998 
L 211.919517 243.405576 
L 212.587617 234.643691 
L 212.853907 228.802434 
L 212.96736 222.961177 
L 212.921589 217.11992 
L 212.714125 211.278663 
L 212.347754 205.437406 
L 211.518787 196.675521 
L 210.051708 184.993007 
L 208.262294 173.310493 
L 206.334222 161.627979 
L 202.337959 138.262951 
L 200.030572 123.659809 
L 198.87082 114.897924 
L 197.929457 106.136038 
L 197.499203 100.294781 
L 197.229785 94.453524 
L 197.127782 88.612267 
L 197.201378 82.77101 
L 197.45024 76.929753 
L 197.869826 71.088497 
L 198.862232 62.326611 
L 200.130744 53.564726 
L 201.124201 47.723469 
L 204.399133 30.199698 
L 206.017605 21.437813 
M 247.966645 21.437813 
L 246.403053 30.199698 
L 244.121484 44.80284 
L 242.902325 54.63019 
L 242.064733 62.326611 
L 241.396633 71.088497 
L 241.130343 76.929753 
L 241.01689 82.77101 
L 241.062661 88.612267 
L 241.270125 94.453524 
L 241.636496 100.294781 
L 242.465463 109.056667 
L 243.932542 120.739181 
L 245.721956 132.421694 
L 247.650028 144.104208 
L 251.646291 167.469236 
L 253.953678 182.072378 
L 255.11343 190.834264 
L 256.054793 199.596149 
L 256.485047 205.437406 
L 256.754465 211.278663 
L 256.856468 217.11992 
L 256.782872 222.961177 
L 256.53401 228.802434 
L 256.114424 234.643691 
L 255.122018 243.405576 
L 253.853506 252.167462 
L 252.860049 258.008719 
L 249.585117 275.53249 
L 247.966645 284.294375 
L 247.966645 284.294375 
" clip-path="url(#p874f0fce48)" style="fill: none; stroke: #000cff"/>
    <path d="M 203.262362 284.294375 
L 204.967025 275.53249 
L 206.952838 263.849976 
L 208.188315 255.08809 
L 209.531316 243.405576 
L 210.194921 234.643691 
L 210.448841 228.802434 
L 210.540458 222.961177 
L 210.462725 217.11992 
L 210.214061 211.278663 
L 209.799641 205.437406 
L 208.892867 196.675521 
L 207.303117 184.993007 
L 205.397834 173.310493 
L 202.797511 158.707351 
L 197.078045 126.580438 
L 195.369812 114.897924 
L 194.696643 109.056667 
L 193.959393 100.294781 
L 193.666001 94.453524 
L 193.549276 88.612267 
L 193.617818 82.77101 
L 193.872693 76.929753 
L 194.307098 71.088497 
L 195.171725 63.08865 
L 195.712106 59.405983 
L 197.202441 50.644097 
L 198.343454 44.80284 
L 203.262362 21.437813 
M 250.721888 21.437813 
L 249.017225 30.199698 
L 247.031412 41.882212 
L 245.795935 50.644097 
L 244.452934 62.326611 
L 243.789329 71.088497 
L 243.535409 76.929753 
L 243.443792 82.77101 
L 243.521525 88.612267 
L 243.770189 94.453524 
L 244.184609 100.294781 
L 245.091383 109.056667 
L 246.681133 120.739181 
L 248.586416 132.421694 
L 251.186739 147.024837 
L 256.906205 179.15175 
L 258.614438 190.834264 
L 259.287607 196.675521 
L 260.024857 205.437406 
L 260.318249 211.278663 
L 260.434974 217.11992 
L 260.366432 222.961177 
L 260.111557 228.802434 
L 259.677152 234.643691 
L 258.812525 242.643537 
L 258.272144 246.326205 
L 256.781809 255.08809 
L 255.640796 260.929347 
L 250.721888 284.294375 
L 250.721888 284.294375 
" clip-path="url(#p874f0fce48)" style="fill: none; stroke: #0030ff"/>
    <path d="M 200.698526 284.294375 
L 202.535414 275.53249 
L 204.652104 263.849976 
L 205.953372 255.08809 
L 207.038063 246.326205 
L 207.806104 237.564319 
L 208.126257 231.723062 
L 208.278584 225.881806 
L 208.252996 220.040549 
L 208.045583 214.199292 
L 207.66085 208.358035 
L 207.111183 202.516778 
L 206.015954 193.754892 
L 204.213631 182.072378 
L 201.600659 167.469236 
L 193.936996 126.580438 
L 192.520025 117.447514 
L 191.500681 109.056667 
L 190.964388 103.21541 
L 190.591842 97.374153 
L 190.397967 91.532896 
L 190.391843 85.691639 
L 190.575884 79.850382 
L 190.945705 74.009125 
L 191.490832 68.167868 
L 192.520025 60.015097 
L 193.102282 56.485354 
L 194.741512 47.723469 
L 196.009888 41.882212 
L 200.698526 21.437813 
M 253.285724 21.437813 
L 251.448836 30.199698 
L 249.332146 41.882212 
L 248.030878 50.644097 
L 246.946187 59.405983 
L 246.178146 68.167868 
L 245.857993 74.009125 
L 245.705666 79.850382 
L 245.731254 85.691639 
L 245.938667 91.532896 
L 246.3234 97.374153 
L 246.873067 103.21541 
L 247.968296 111.977295 
L 249.770619 123.659809 
L 252.383591 138.262951 
L 260.047254 179.15175 
L 261.464225 188.284674 
L 262.483569 196.675521 
L 263.019862 202.516778 
L 263.392408 208.358035 
L 263.586283 214.199292 
L 263.592407 220.040549 
L 263.408366 225.881806 
L 263.038545 231.723062 
L 262.493418 237.564319 
L 261.464225 245.71709 
L 260.881968 249.246833 
L 259.242738 258.008719 
L 257.974362 263.849976 
L 253.285724 284.294375 
L 253.285724 284.294375 
" clip-path="url(#p874f0fce48)" style="fill: none; stroke: #0050ff"/>
    <path d="M 198.269137 284.294375 
L 200.225654 275.53249 
L 201.95741 266.770604 
L 203.416121 258.008719 
L 204.62072 249.246833 
L 205.503374 240.484948 
L 205.901136 234.643691 
L 206.126597 228.802434 
L 206.157091 222.961177 
L 205.988858 217.11992 
L 205.629658 211.278663 
L 205.098475 205.437406 
L 204.015395 196.675521 
L 202.664112 187.913635 
L 200.590935 176.231122 
L 197.17259 158.707351 
L 191.987562 132.421694 
L 190.465145 123.659809 
L 189.172685 114.897924 
L 188.487381 109.056667 
L 187.962105 103.21541 
L 187.613745 97.374153 
L 187.453758 91.532896 
L 187.487223 85.691639 
L 187.712659 79.850382 
L 188.12264 74.009125 
L 188.705168 68.167868 
L 189.870691 59.405983 
L 191.449104 50.644097 
L 192.647474 44.80284 
L 195.414553 33.120326 
L 198.269137 21.437813 
M 255.715113 21.437813 
L 253.758596 30.199698 
L 252.02684 38.961583 
L 250.568129 47.723469 
L 249.36353 56.485354 
L 248.480876 65.24724 
L 248.083114 71.088497 
L 247.857653 76.929753 
L 247.827159 82.77101 
L 247.995392 88.612267 
L 248.354592 94.453524 
L 248.885775 100.294781 
L 249.968855 109.056667 
L 251.320138 117.818552 
L 253.393315 129.501066 
L 256.81166 147.024837 
L 261.996688 173.310493 
L 263.519105 182.072378 
L 264.811565 190.834264 
L 265.496869 196.675521 
L 266.022145 202.516778 
L 266.370505 208.358035 
L 266.530492 214.199292 
L 266.497027 220.040549 
L 266.271591 225.881806 
L 265.86161 231.723062 
L 265.279082 237.564319 
L 264.113559 246.326205 
L 262.535146 255.08809 
L 261.336776 260.929347 
L 258.569697 272.611861 
L 255.715113 284.294375 
L 255.715113 284.294375 
" clip-path="url(#p874f0fce48)" style="fill: none; stroke: #0074ff"/>
    <path d="M 195.93718 284.294375 
L 198.002382 275.53249 
L 199.825639 266.770604 
L 201.366511 258.008719 
L 202.600457 249.246833 
L 203.503794 240.484948 
L 203.891587 234.643691 
L 204.084525 228.802434 
L 204.072529 222.961177 
L 203.853218 217.11992 
L 203.434368 211.278663 
L 202.834064 205.437406 
L 201.655018 196.675521 
L 200.217899 187.913635 
L 198.045475 176.231122 
L 194.486798 158.707351 
L 189.111626 132.421694 
L 187.546292 123.659809 
L 186.236303 114.897924 
L 185.554733 109.056667 
L 185.050062 103.21541 
L 184.736571 97.374153 
L 184.622331 91.532896 
L 184.70863 85.691639 
L 184.990299 79.850382 
L 185.456865 74.009125 
L 186.094388 68.167868 
L 187.216625 60.204443 
L 188.381577 53.564726 
L 190.17132 44.80284 
L 192.974091 33.120326 
L 195.93718 21.437813 
M 258.04707 21.437813 
L 255.981868 30.199698 
L 254.158611 38.961583 
L 252.617739 47.723469 
L 251.383793 56.485354 
L 250.480456 65.24724 
L 250.092663 71.088497 
L 249.899725 76.929753 
L 249.911721 82.77101 
L 250.131032 88.612267 
L 250.549882 94.453524 
L 251.150186 100.294781 
L 252.329232 109.056667 
L 253.766351 117.818552 
L 255.938775 129.501066 
L 259.497452 147.024837 
L 264.872624 173.310493 
L 266.437958 182.072378 
L 267.747947 190.834264 
L 268.429517 196.675521 
L 268.934188 202.516778 
L 269.247679 208.358035 
L 269.361919 214.199292 
L 269.27562 220.040549 
L 268.993951 225.881806 
L 268.527385 231.723062 
L 267.889862 237.564319 
L 266.767625 245.527744 
L 265.602673 252.167462 
L 263.81293 260.929347 
L 261.010159 272.611861 
L 258.04707 284.294375 
L 258.04707 284.294375 
" clip-path="url(#p874f0fce48)" style="fill: none; stroke: #0098ff"/>
    <path d="M 193.672879 284.294375 
L 195.827989 275.53249 
L 197.823425 266.329749 
L 199.343794 258.008719 
L 200.622472 249.246833 
L 201.271592 243.405576 
L 201.73673 237.564319 
L 202.001757 231.723062 
L 202.052707 225.881806 
L 201.884232 220.040549 
L 201.503521 214.199292 
L 200.929501 208.358035 
L 200.185038 202.516778 
L 198.820328 193.754892 
L 197.242013 184.993007 
L 194.92469 173.310493 
L 191.19064 155.786722 
L 186.820313 135.342323 
L 185.133463 126.580438 
L 183.699209 117.818552 
L 182.937495 111.977295 
L 182.361224 106.136038 
L 181.985027 100.294781 
L 181.816474 94.453524 
L 181.913225 87.069844 
L 182.109382 82.77101 
L 182.553717 76.929753 
L 183.179274 71.088497 
L 183.969952 65.24724 
L 185.434506 56.485354 
L 187.216625 47.552448 
L 189.194581 38.961583 
L 191.403484 30.199698 
L 193.672879 21.437813 
M 260.311371 21.437813 
L 258.156261 30.199698 
L 256.160825 39.402438 
L 254.640456 47.723469 
L 253.361778 56.485354 
L 252.712658 62.326611 
L 252.24752 68.167868 
L 251.982493 74.009125 
L 251.931543 79.850382 
L 252.100018 85.691639 
L 252.480729 91.532896 
L 253.054749 97.374153 
L 253.799212 103.21541 
L 255.163922 111.977295 
L 256.742237 120.739181 
L 259.05956 132.421694 
L 262.79361 149.945465 
L 267.163937 170.389865 
L 268.850787 179.15175 
L 270.285041 187.913635 
L 271.046755 193.754892 
L 271.623026 199.596149 
L 271.999223 205.437406 
L 272.167776 211.278663 
L 272.071025 218.662343 
L 271.874868 222.961177 
L 271.430533 228.802434 
L 270.804976 234.643691 
L 270.014298 240.484948 
L 268.549744 249.246833 
L 266.767625 258.17974 
L 264.789669 266.770604 
L 262.580766 275.53249 
L 260.311371 284.294375 
L 260.311371 284.294375 
" clip-path="url(#p874f0fce48)" style="fill: none; stroke: #00bcff"/>
    <path d="M 191.449778 284.294375 
L 194.358628 272.611861 
L 196.247062 263.849976 
L 197.823425 255.002739 
L 198.63942 249.246833 
L 199.289767 243.405576 
L 199.743845 237.564319 
L 199.981175 231.723062 
L 199.98688 225.881806 
L 199.759261 220.040549 
L 199.312593 214.199292 
L 198.673674 208.358035 
L 197.823425 202.181717 
L 196.421029 193.754892 
L 194.773619 184.993007 
L 191.731187 170.389865 
L 187.148335 149.945465 
L 184.533406 138.262951 
L 182.710002 129.501066 
L 181.149348 120.739181 
L 180.304591 114.897924 
L 179.652601 109.056667 
L 179.207159 103.21541 
L 178.975701 97.374153 
L 178.967952 91.532896 
L 179.261525 84.4596 
L 179.602531 79.850382 
L 180.217938 74.009125 
L 181.013622 68.167868 
L 182.495044 59.405983 
L 184.249675 50.644097 
L 186.934269 38.961583 
L 189.914114 27.279069 
L 191.449778 21.437813 
M 262.534472 21.437813 
L 259.625622 33.120326 
L 257.737188 41.882212 
L 256.160825 50.729449 
L 255.34483 56.485354 
L 254.694483 62.326611 
L 254.240405 68.167868 
L 254.003075 74.009125 
L 253.99737 79.850382 
L 254.224989 85.691639 
L 254.671657 91.532896 
L 255.310576 97.374153 
L 256.160825 103.55047 
L 257.563221 111.977295 
L 259.210631 120.739181 
L 262.253063 135.342323 
L 266.835915 155.786722 
L 269.450844 167.469236 
L 271.274248 176.231122 
L 272.834902 184.993007 
L 273.679659 190.834264 
L 274.331649 196.675521 
L 274.777091 202.516778 
L 275.008549 208.358035 
L 275.016298 214.199292 
L 274.722725 221.272588 
L 274.381719 225.881806 
L 273.766312 231.723062 
L 272.970628 237.564319 
L 271.489206 246.326205 
L 269.734575 255.08809 
L 267.049981 266.770604 
L 264.070136 278.453118 
L 262.534472 284.294375 
L 262.534472 284.294375 
" clip-path="url(#p874f0fce48)" style="fill: none; stroke: #00e0fb"/>
    <path d="M 189.24372 284.294375 
L 192.210704 272.611861 
L 193.542449 266.770604 
L 195.283146 258.008719 
L 196.216615 252.167462 
L 196.971926 246.326205 
L 197.52663 240.484948 
L 197.852932 234.643691 
L 197.929489 228.802434 
L 197.763085 222.961177 
L 197.353731 217.11992 
L 196.737198 211.278663 
L 195.505946 202.516778 
L 193.973398 193.754892 
L 192.25776 184.993007 
L 189.080364 170.389865 
L 184.564925 151.17066 
L 181.913225 139.949827 
L 180.239101 132.421694 
L 178.555332 123.659809 
L 177.631241 117.818552 
L 176.904587 111.977295 
L 176.385243 106.136038 
L 176.085533 100.294781 
L 176.015425 94.453524 
L 176.176031 88.612267 
L 176.609825 82.305945 
L 177.159383 76.929753 
L 177.951902 71.088497 
L 179.261525 63.487728 
L 180.638193 56.485354 
L 182.590572 47.723469 
L 185.437409 36.040955 
L 189.24372 21.437813 
M 264.74053 21.437812 
L 261.773546 33.120326 
L 260.441801 38.961583 
L 258.701104 47.723469 
L 257.767635 53.564726 
L 257.012324 59.405983 
L 256.45762 65.24724 
L 256.131318 71.088497 
L 256.054761 76.929753 
L 256.221165 82.77101 
L 256.630519 88.612267 
L 257.247052 94.453524 
L 258.478304 103.21541 
L 260.010852 111.977295 
L 261.72649 120.739181 
L 264.903886 135.342323 
L 269.419325 154.561527 
L 272.071025 165.78236 
L 273.745149 173.310493 
L 275.428918 182.072378 
L 276.353009 187.913635 
L 277.079663 193.754892 
L 277.599007 199.596149 
L 277.898717 205.437406 
L 277.968825 211.278663 
L 277.808219 217.11992 
L 277.374425 223.426242 
L 276.824867 228.802434 
L 276.032348 234.643691 
L 274.722725 242.24446 
L 273.346057 249.246833 
L 271.393678 258.008719 
L 268.546841 269.691233 
L 264.74053 284.294375 
L 264.74053 284.294375 
" clip-path="url(#p874f0fce48)" style="fill: none; stroke: #19ffde"/>
    <path d="M 187.030693 284.294375 
L 190.022641 272.611861 
L 192.016165 263.849976 
L 193.16172 258.008719 
L 194.122411 252.167462 
L 194.8962 246.326205 
L 195.432832 240.484948 
L 195.715448 234.643691 
L 195.74568 228.802434 
L 195.524398 222.961177 
L 195.064393 217.11992 
L 194.376557 211.278663 
L 193.053678 202.516778 
L 192.007945 196.675521 
L 189.649668 184.993007 
L 186.308845 170.389865 
L 181.913225 152.646709 
L 179.056633 141.18358 
L 177.062292 132.421694 
L 175.376768 123.659809 
L 174.480169 117.818552 
L 173.785273 111.977295 
L 173.300013 106.136038 
L 173.042304 100.294781 
L 173.01723 94.453524 
L 173.228184 88.612267 
L 173.676338 82.77101 
L 174.345283 76.929753 
L 175.218384 71.088497 
L 176.609825 63.714596 
L 177.500038 59.405983 
L 179.535032 50.644097 
L 182.448558 38.961583 
L 187.030693 21.437813 
M 266.953557 21.437813 
L 263.961609 33.120326 
L 261.968085 41.882212 
L 260.82253 47.723469 
L 259.861839 53.564726 
L 259.08805 59.405983 
L 258.551418 65.24724 
L 258.268802 71.088497 
L 258.23857 76.929753 
L 258.459852 82.77101 
L 258.919857 88.612267 
L 259.607693 94.453524 
L 260.930572 103.21541 
L 261.976305 109.056667 
L 264.334582 120.739181 
L 267.675405 135.342323 
L 272.071025 153.085479 
L 274.927617 164.548608 
L 276.921958 173.310493 
L 278.607482 182.072378 
L 279.504081 187.913635 
L 280.198977 193.754892 
L 280.684237 199.596149 
L 280.941946 205.437406 
L 280.96702 211.278663 
L 280.756066 217.11992 
L 280.307912 222.961177 
L 279.638967 228.802434 
L 278.765866 234.643691 
L 277.374425 242.017591 
L 276.484212 246.326205 
L 274.449218 255.08809 
L 271.535692 266.770604 
L 266.953557 284.294375 
L 266.953557 284.294375 
" clip-path="url(#p874f0fce48)" style="fill: none; stroke: #33ffc4"/>
    <path d="M 184.776163 284.294375 
L 188.457934 269.691233 
L 190.390304 260.929347 
L 191.462562 255.08809 
L 192.520025 247.938791 
L 192.993247 243.405576 
L 193.374726 237.564319 
L 193.49109 231.723062 
L 193.338648 225.881806 
L 192.934978 220.040549 
L 192.301033 214.199292 
L 190.985112 205.437406 
L 189.38105 196.675521 
L 186.894757 184.993007 
L 184.102745 173.310493 
L 179.261525 154.729324 
L 176.480949 144.104208 
L 174.386719 135.342323 
L 172.609583 126.580438 
L 171.652674 120.739181 
L 170.887073 114.897924 
L 170.328662 109.056667 
L 169.993687 103.21541 
L 169.889176 97.374153 
L 170.021979 91.532896 
L 170.397997 85.691639 
L 171.021091 79.850382 
L 171.865543 74.009125 
L 172.921675 68.167868 
L 174.843859 59.405983 
L 177.039516 50.644097 
L 180.897954 36.040955 
L 184.776163 21.437813 
M 269.208087 21.437813 
L 265.526316 36.040955 
L 263.593946 44.80284 
L 262.521688 50.644097 
L 261.464225 57.793396 
L 260.991003 62.326611 
L 260.609524 68.167868 
L 260.49316 74.009125 
L 260.645602 79.850382 
L 261.049272 85.691639 
L 261.683217 91.532896 
L 262.999138 100.294781 
L 264.6032 109.056667 
L 267.089493 120.739181 
L 269.881505 132.421694 
L 274.722725 151.002863 
L 277.503301 161.627979 
L 279.597531 170.389865 
L 281.374667 179.15175 
L 282.331576 184.993007 
L 283.097177 190.834264 
L 283.655588 196.675521 
L 283.990563 202.516778 
L 284.095074 208.358035 
L 283.962271 214.199292 
L 283.586253 220.040549 
L 282.963159 225.881806 
L 282.118707 231.723062 
L 281.062575 237.564319 
L 279.140391 246.326205 
L 276.944734 255.08809 
L 273.086296 269.691233 
L 269.208087 284.294375 
L 269.208087 284.294375 
" clip-path="url(#p874f0fce48)" style="fill: none; stroke: #50ffa7"/>
    <path d="M 182.44461 284.294375 
L 186.109352 269.691233 
L 187.445727 263.849976 
L 189.135695 255.08809 
L 190.029526 249.246833 
L 190.64695 243.405576 
L 191.002358 237.564319 
L 191.073995 231.723062 
L 190.863379 225.881806 
L 190.395874 220.040549 
L 189.701642 214.199292 
L 188.284816 205.437406 
L 186.577543 196.675521 
L 184.564925 187.573203 
L 181.742046 176.231122 
L 176.136295 155.786722 
L 173.768274 147.024837 
L 171.599257 138.262951 
L 169.743774 129.501066 
L 168.654725 123.131495 
L 167.893865 117.818552 
L 167.26099 111.977295 
L 166.845008 106.136038 
L 166.654689 100.294781 
L 166.699879 94.453524 
L 166.990512 88.612267 
L 167.535189 82.77101 
L 168.339714 76.929753 
L 169.366402 71.088497 
L 170.613129 65.24724 
L 172.796847 56.485354 
L 178.503271 36.040955 
L 180.891036 27.279069 
L 182.44461 21.437813 
M 271.53964 21.437813 
L 267.874898 36.040955 
L 266.538523 41.882212 
L 264.848555 50.644097 
L 263.954724 56.485354 
L 263.3373 62.326611 
L 262.981892 68.167868 
L 262.910255 74.009125 
L 263.120871 79.850382 
L 263.588376 85.691639 
L 264.282608 91.532896 
L 265.699434 100.294781 
L 267.406707 109.056667 
L 269.419325 118.158985 
L 272.242204 129.501066 
L 277.847955 149.945465 
L 280.215976 158.707351 
L 282.384993 167.469236 
L 284.240476 176.231122 
L 285.329525 182.600693 
L 286.090385 187.913635 
L 286.72326 193.754892 
L 287.139242 199.596149 
L 287.329561 205.437406 
L 287.284371 211.278663 
L 286.993738 217.11992 
L 286.449061 222.961177 
L 285.644536 228.802434 
L 284.617848 234.643691 
L 283.371121 240.484948 
L 281.187403 249.246833 
L 275.480979 269.691233 
L 273.093214 278.453118 
L 271.53964 284.294375 
L 271.53964 284.294375 
" clip-path="url(#p874f0fce48)" style="fill: none; stroke: #6dff8a"/>
    <path d="M 180.008968 284.294375 
L 182.950877 272.611861 
L 184.962464 263.849976 
L 186.651406 255.08809 
L 187.528883 249.246833 
L 188.130375 243.405576 
L 188.452854 237.564319 
L 188.475148 231.723062 
L 188.203889 225.881806 
L 187.670992 220.040549 
L 186.900672 214.199292 
L 185.378753 205.437406 
L 184.196372 199.596149 
L 181.913225 189.671865 
L 179.178379 179.15175 
L 169.375365 144.104208 
L 167.342125 135.342323 
L 166.003025 128.429858 
L 165.190482 123.659809 
L 164.380421 117.818552 
L 163.774935 111.977295 
L 163.351325 105.304 
L 163.210136 100.294781 
L 163.286806 94.453524 
L 163.614801 88.612267 
L 164.202548 82.77101 
L 165.06111 76.929753 
L 166.183289 71.088497 
L 167.506749 65.24724 
L 169.855852 56.485354 
L 175.097711 38.961583 
L 177.630974 30.199698 
L 180.008968 21.437813 
M 273.975282 21.437813 
L 271.033373 33.120326 
L 269.021786 41.882212 
L 267.332844 50.644097 
L 266.455367 56.485354 
L 265.853875 62.326611 
L 265.531396 68.167868 
L 265.509102 74.009125 
L 265.780361 79.850382 
L 266.313258 85.691639 
L 267.083578 91.532896 
L 268.605497 100.294781 
L 269.787878 106.136038 
L 272.071025 116.060322 
L 274.805871 126.580438 
L 284.608885 161.627979 
L 286.642125 170.389865 
L 287.981225 177.302329 
L 288.793768 182.072378 
L 289.603829 187.913635 
L 290.209315 193.754892 
L 290.632925 200.428188 
L 290.774114 205.437406 
L 290.697444 211.278663 
L 290.369449 217.11992 
L 289.781702 222.961177 
L 288.92314 228.802434 
L 287.800961 234.643691 
L 286.477501 240.484948 
L 284.128398 249.246833 
L 278.886539 266.770604 
L 276.353276 275.53249 
L 273.975282 284.294375 
L 273.975282 284.294375 
" clip-path="url(#p874f0fce48)" style="fill: none; stroke: #8aff6d"/>
    <path d="M 177.430194 284.294375 
L 179.665978 275.53249 
L 182.330187 263.849976 
L 183.986494 255.08809 
L 184.843072 249.246833 
L 185.415389 243.405576 
L 185.694938 237.564319 
L 185.661178 231.723062 
L 185.324731 225.881806 
L 184.564925 218.843791 
L 183.853356 214.199292 
L 182.219453 205.437406 
L 180.918889 199.596149 
L 178.762716 190.834264 
L 175.525986 179.15175 
L 166.287017 147.024837 
L 164.184133 138.262951 
L 162.413744 129.501066 
L 161.438281 123.659809 
L 160.651562 117.818552 
L 160.037217 111.977295 
L 159.646247 106.136038 
L 159.49534 100.294781 
L 159.60156 94.453524 
L 159.980223 88.612267 
L 160.699625 82.398331 
L 161.556945 76.929753 
L 162.750369 71.088497 
L 164.969068 62.326611 
L 167.596151 53.564726 
L 173.958125 33.727894 
L 176.661487 24.358441 
L 177.430194 21.437813 
M 276.554056 21.437813 
L 274.318272 30.199698 
L 271.654063 41.882212 
L 269.997756 50.644097 
L 269.141178 56.485354 
L 268.568861 62.326611 
L 268.289312 68.167868 
L 268.323072 74.009125 
L 268.659519 79.850382 
L 269.419325 86.888397 
L 270.130894 91.532896 
L 271.764797 100.294781 
L 273.065361 106.136038 
L 275.221534 114.897924 
L 278.458264 126.580438 
L 287.697233 158.707351 
L 289.800117 167.469236 
L 291.570506 176.231122 
L 292.545969 182.072378 
L 293.332688 187.913635 
L 293.947033 193.754892 
L 294.338003 199.596149 
L 294.48891 205.437406 
L 294.38269 211.278663 
L 294.004027 217.11992 
L 293.284625 223.333856 
L 292.427305 228.802434 
L 291.233881 234.643691 
L 289.015182 243.405576 
L 286.388099 252.167462 
L 280.026125 272.004293 
L 277.322763 281.373747 
L 276.554056 284.294375 
L 276.554056 284.294375 
" clip-path="url(#p874f0fce48)" style="fill: none; stroke: #a7ff50"/>
    <path d="M 174.658883 284.294375 
L 176.915093 275.53249 
L 179.528048 263.849976 
L 181.124687 255.08809 
L 181.954617 249.246833 
L 182.481126 243.405576 
L 182.70425 237.564319 
L 182.603892 231.723062 
L 182.193776 225.881806 
L 181.48432 220.040549 
L 180.52156 214.199292 
L 179.261525 207.773278 
L 177.329995 199.596149 
L 175.802865 193.754892 
L 173.321435 184.993007 
L 162.968433 149.945465 
L 161.485151 144.104208 
L 159.512466 135.342323 
L 158.047925 127.499799 
L 157.416147 123.659809 
L 156.622099 117.818552 
L 156.035121 111.977295 
L 155.67272 106.136038 
L 155.553808 100.294781 
L 155.696201 94.453524 
L 156.114482 88.612267 
L 156.818906 82.77101 
L 157.815429 76.929753 
L 159.069358 71.088497 
L 160.699625 64.899909 
L 162.315936 59.405983 
L 166.003025 48.420573 
L 172.994438 27.279069 
L 174.658883 21.437813 
M 279.325367 21.437813 
L 277.069157 30.199698 
L 274.456202 41.882212 
L 272.859563 50.644097 
L 272.029633 56.485354 
L 271.503124 62.326611 
L 271.28 68.167868 
L 271.380358 74.009125 
L 271.790474 79.850382 
L 272.49993 85.691639 
L 273.46269 91.532896 
L 274.722725 97.958909 
L 276.654255 106.136038 
L 278.181385 111.977295 
L 280.662815 120.739181 
L 291.015817 155.786722 
L 292.499099 161.627979 
L 294.471784 170.389865 
L 295.936325 178.232388 
L 296.568103 182.072378 
L 297.362151 187.913635 
L 297.949129 193.754892 
L 298.31153 199.596149 
L 298.430442 205.437406 
L 298.288049 211.278663 
L 297.869768 217.11992 
L 297.165344 222.961177 
L 296.168821 228.802434 
L 294.914892 234.643691 
L 293.284625 240.832278 
L 291.668314 246.326205 
L 287.981225 257.311614 
L 280.989812 278.453118 
L 279.325367 284.294375 
L 279.325367 284.294375 
" clip-path="url(#p874f0fce48)" style="fill: none; stroke: #c4ff33"/>
    <path d="M 171.635012 284.294375 
L 173.958125 275.483298 
L 175.909892 266.770604 
L 177.06928 260.929347 
L 178.045995 255.08809 
L 178.818301 249.246833 
L 179.309519 243.405576 
L 179.460011 237.564319 
L 179.261525 231.475646 
L 178.750293 225.881806 
L 177.930619 220.040549 
L 176.609825 212.85754 
L 174.900536 205.437406 
L 173.393633 199.596149 
L 170.90242 190.834264 
L 166.003025 174.978776 
L 162.758886 164.548608 
L 160.196051 155.786722 
L 157.86485 147.024837 
L 156.454135 141.18358 
L 154.619433 132.421694 
L 153.590339 126.580438 
L 152.74429 120.739181 
L 152.089353 114.897924 
L 151.654595 109.056667 
L 151.458094 103.21541 
L 151.516031 97.374153 
L 151.841235 91.532896 
L 152.442913 85.691639 
L 153.325995 79.850382 
L 154.493021 74.009125 
L 155.932967 68.167868 
L 157.626713 62.326611 
L 160.552306 53.564726 
L 167.958063 33.120326 
L 169.873418 27.279069 
L 171.635012 21.437813 
M 282.349238 21.437813 
L 280.026125 30.24889 
L 278.074358 38.961583 
L 276.91497 44.80284 
L 275.938255 50.644097 
L 275.165949 56.485354 
L 274.674731 62.326611 
L 274.524239 68.167868 
L 274.722725 74.256541 
L 275.233957 79.850382 
L 276.053631 85.691639 
L 277.374425 92.874648 
L 279.083714 100.294781 
L 280.590617 106.136038 
L 283.08183 114.897924 
L 287.981225 130.753411 
L 291.225364 141.18358 
L 293.788199 149.945465 
L 296.1194 158.707351 
L 297.530115 164.548608 
L 299.364817 173.310493 
L 300.393911 179.15175 
L 301.23996 184.993007 
L 301.894897 190.834264 
L 302.329655 196.675521 
L 302.526156 202.516778 
L 302.468219 208.358035 
L 302.143015 214.199292 
L 301.541337 220.040549 
L 300.658255 225.881806 
L 299.491229 231.723062 
L 298.051283 237.564319 
L 296.357537 243.405576 
L 293.431944 252.167462 
L 286.026187 272.611861 
L 284.110832 278.453118 
L 282.349238 284.294375 
L 282.349238 284.294375 
" clip-path="url(#p874f0fce48)" style="fill: none; stroke: #deff19"/>
    <path d="M 168.258146 284.294375 
L 169.104041 281.373747 
L 171.371988 272.611861 
L 173.231086 263.849976 
L 174.281611 258.008719 
L 175.099359 252.167462 
L 175.66287 246.326205 
L 175.906276 240.484948 
L 175.793602 234.643691 
L 175.329338 228.802434 
L 174.552751 222.961177 
L 173.497348 217.11992 
L 172.204822 211.278663 
L 170.73795 205.437406 
L 168.265528 196.675521 
L 164.626617 184.993007 
L 157.223373 161.627979 
L 154.738258 152.866094 
L 152.540408 144.104208 
L 151.253038 138.262951 
L 150.092825 132.218577 
L 149.175599 126.580438 
L 148.406252 120.739181 
L 147.83454 114.897924 
L 147.441125 107.955473 
L 147.35055 103.21541 
L 147.46159 97.374153 
L 147.826714 91.532896 
L 148.450129 85.691639 
L 149.336569 79.850382 
L 150.494294 74.009125 
L 151.928932 68.167868 
L 153.621594 62.326611 
L 155.553686 56.485354 
L 158.047925 49.644742 
L 162.141917 38.961583 
L 164.339074 33.120326 
L 166.402425 27.279069 
L 168.258146 21.437813 
M 285.726104 21.437813 
L 284.880209 24.358441 
L 282.612262 33.120326 
L 280.753164 41.882212 
L 279.702639 47.723469 
L 278.884891 53.564726 
L 278.32138 59.405983 
L 278.077974 65.24724 
L 278.190648 71.088497 
L 278.654912 76.929753 
L 279.431499 82.77101 
L 280.486902 88.612267 
L 281.779428 94.453524 
L 283.2463 100.294781 
L 285.718722 109.056667 
L 289.357633 120.739181 
L 296.760877 144.104208 
L 299.245992 152.866094 
L 301.443842 161.627979 
L 302.731212 167.469236 
L 303.891425 173.513611 
L 304.808651 179.15175 
L 305.577998 184.993007 
L 306.14971 190.834264 
L 306.543125 197.776715 
L 306.6337 202.516778 
L 306.52266 208.358035 
L 306.157536 214.199292 
L 305.534121 220.040549 
L 304.647681 225.881806 
L 303.489956 231.723062 
L 302.055318 237.564319 
L 300.362656 243.405576 
L 298.430564 249.246833 
L 295.936325 256.087445 
L 291.842333 266.770604 
L 289.645176 272.611861 
L 287.581825 278.453118 
L 285.726104 284.294375 
L 285.726104 284.294375 
" clip-path="url(#p874f0fce48)" style="fill: none; stroke: #fbf100"/>
    <path d="M 164.441219 284.294375 
L 166.204921 278.453118 
L 168.410109 269.691233 
L 169.617206 263.849976 
L 170.643522 258.008719 
L 171.439046 252.167462 
L 171.917783 246.326205 
L 172.065508 240.484948 
L 171.853312 234.643691 
L 171.291949 228.802434 
L 170.383075 222.961177 
L 169.218707 217.11992 
L 167.825919 211.278663 
L 165.413831 202.516778 
L 162.71099 193.754892 
L 157.884926 179.15175 
L 154.07006 167.469236 
L 151.458673 158.707351 
L 149.161546 149.945465 
L 147.441125 142.279822 
L 146.133626 135.342323 
L 145.212939 129.501066 
L 144.473409 123.659809 
L 143.925631 117.818552 
L 143.568789 111.977295 
L 143.413485 106.136038 
L 143.468722 100.294781 
L 143.741794 94.453524 
L 144.238876 88.612267 
L 144.97157 82.77101 
L 145.962782 76.929753 
L 147.441125 70.083587 
L 148.701422 65.24724 
L 150.452683 59.405983 
L 152.744525 52.7149 
L 155.730095 44.80284 
L 162.472308 27.279069 
L 164.441219 21.437813 
M 289.543031 21.437813 
L 287.779329 27.279069 
L 285.574141 36.040955 
L 284.367044 41.882212 
L 283.340728 47.723469 
L 282.545204 53.564726 
L 282.066467 59.405983 
L 281.918742 65.24724 
L 282.130938 71.088497 
L 282.692301 76.929753 
L 283.601175 82.77101 
L 284.765543 88.612267 
L 286.158331 94.453524 
L 288.570419 103.21541 
L 291.27326 111.977295 
L 296.099324 126.580438 
L 299.91419 138.262951 
L 302.525577 147.024837 
L 304.822704 155.786722 
L 306.543125 163.452365 
L 307.850624 170.389865 
L 308.771311 176.231122 
L 309.510841 182.072378 
L 310.058619 187.913635 
L 310.415461 193.754892 
L 310.570765 199.596149 
L 310.515528 205.437406 
L 310.242456 211.278663 
L 309.745374 217.11992 
L 309.01268 222.961177 
L 308.021468 228.802434 
L 306.543125 235.6486 
L 305.282828 240.484948 
L 303.531567 246.326205 
L 301.239725 253.017288 
L 298.254155 260.929347 
L 291.511942 278.453118 
L 289.543031 284.294375 
L 289.543031 284.294375 
" clip-path="url(#p874f0fce48)" style="fill: none; stroke: #ffd000"/>
    <path d="M 160.159668 284.294375 
L 161.997347 278.453118 
L 163.620559 272.611861 
L 164.982654 266.770604 
L 166.143648 260.929347 
L 167.017573 255.08809 
L 167.613137 249.246833 
L 167.867512 243.405576 
L 167.745552 237.564319 
L 167.252024 231.723062 
L 166.424997 225.881806 
L 165.294652 220.040549 
L 163.921174 214.199292 
L 162.34058 208.358035 
L 159.671947 199.596149 
L 156.751017 190.834264 
L 149.846497 170.389865 
L 147.254392 161.627979 
L 145.735482 155.786722 
L 144.3843 149.945465 
L 143.209295 144.104208 
L 142.137725 137.941043 
L 141.348511 132.421694 
L 140.667829 126.580438 
L 140.151232 120.739181 
L 139.806358 114.897924 
L 139.64056 109.056667 
L 139.660152 103.21541 
L 139.870328 97.374153 
L 140.275636 91.532896 
L 140.880759 85.691639 
L 141.691356 79.850382 
L 142.730626 74.009125 
L 144.002538 68.167868 
L 145.511829 62.326611 
L 147.441125 55.908634 
L 150.092825 48.208632 
L 152.744525 41.178642 
L 159.145673 24.358441 
L 160.159668 21.437813 
M 293.824582 21.437813 
L 291.986903 27.279069 
L 290.363691 33.120326 
L 289.001596 38.961583 
L 287.840602 44.80284 
L 286.966677 50.644097 
L 286.371113 56.485354 
L 286.116738 62.326611 
L 286.238698 68.167868 
L 286.732226 74.009125 
L 287.559253 79.850382 
L 288.689598 85.691639 
L 290.063076 91.532896 
L 291.64367 97.374153 
L 294.312303 106.136038 
L 297.233233 114.897924 
L 304.137753 135.342323 
L 306.729858 144.104208 
L 308.248768 149.945465 
L 309.59995 155.786722 
L 310.774955 161.627979 
L 311.846525 167.791145 
L 312.635739 173.310493 
L 313.316421 179.15175 
L 313.833018 184.993007 
L 314.177892 190.834264 
L 314.34369 196.675521 
L 314.324098 202.516778 
L 314.113922 208.358035 
L 313.708614 214.199292 
L 313.103491 220.040549 
L 312.292894 225.881806 
L 311.253624 231.723062 
L 309.981712 237.564319 
L 308.472421 243.405576 
L 306.543125 249.823553 
L 303.891425 257.523555 
L 301.239725 264.553545 
L 294.838577 281.373747 
L 293.824582 284.294375 
L 293.824582 284.294375 
" clip-path="url(#p874f0fce48)" style="fill: none; stroke: #ffae00"/>
    <path d="M 155.407421 284.294375 
L 158.047925 276.015487 
L 158.991915 272.611861 
L 160.699625 265.630967 
L 161.623606 260.929347 
L 162.524221 255.08809 
L 163.10395 249.246833 
L 163.312036 243.405576 
L 163.128061 237.564319 
L 162.566799 231.723062 
L 161.668233 225.881806 
L 160.47706 220.040549 
L 159.016187 214.199292 
L 157.345267 208.358035 
L 154.516662 199.596149 
L 145.534935 173.310493 
L 143.832876 167.469236 
L 142.137725 160.942047 
L 140.96984 155.786722 
L 139.486025 148.242636 
L 138.354503 141.18358 
L 137.251949 132.421694 
L 136.706073 126.580438 
L 136.319934 120.739181 
L 136.086517 114.897924 
L 136.009002 109.056667 
L 136.090372 103.21541 
L 136.333651 97.374153 
L 136.834325 90.53099 
L 137.331927 85.691639 
L 138.100775 79.850382 
L 139.05352 74.009125 
L 140.212567 68.167868 
L 141.577041 62.326611 
L 143.155918 56.485354 
L 144.93459 50.644097 
L 147.930119 41.882212 
L 155.407421 21.437813 
M 298.576829 21.437813 
L 295.936325 29.7167 
L 294.992335 33.120326 
L 293.284625 40.10122 
L 292.360644 44.80284 
L 291.460029 50.644097 
L 290.8803 56.485354 
L 290.672214 62.326611 
L 290.856189 68.167868 
L 291.417451 74.009125 
L 292.316017 79.850382 
L 293.50719 85.691639 
L 294.968063 91.532896 
L 296.638983 97.374153 
L 299.467588 106.136038 
L 308.449315 132.421694 
L 310.151374 138.262951 
L 311.846525 144.79014 
L 313.01441 149.945465 
L 314.498225 157.489552 
L 315.629747 164.548608 
L 316.732301 173.310493 
L 317.278177 179.15175 
L 317.664316 184.993007 
L 317.897733 190.834264 
L 317.975248 196.675521 
L 317.893878 202.516778 
L 317.650599 208.358035 
L 317.149925 215.201197 
L 316.652323 220.040549 
L 315.883475 225.881806 
L 314.93073 231.723062 
L 313.771683 237.564319 
L 312.407209 243.405576 
L 310.828332 249.246833 
L 309.04966 255.08809 
L 306.054131 263.849976 
L 298.576829 284.294375 
L 298.576829 284.294375 
" clip-path="url(#p874f0fce48)" style="fill: none; stroke: #ff8d00"/>
    <path d="M 150.27682 284.294375 
L 153.062959 275.53249 
L 154.68458 269.691233 
L 156.06417 263.849976 
L 157.155938 258.008719 
L 157.92774 252.167462 
L 158.318266 246.326205 
L 158.317875 240.484948 
L 157.925256 234.643691 
L 157.150835 228.802434 
L 156.045011 222.961177 
L 154.636603 217.11992 
L 152.744525 210.528056 
L 150.092825 202.464884 
L 143.02541 182.072378 
L 141.240602 176.231122 
L 139.486025 169.827745 
L 138.216598 164.548608 
L 136.834325 158.023596 
L 135.417445 149.945465 
L 134.200049 141.18358 
L 133.574249 135.342323 
L 132.897897 126.580438 
L 132.534128 117.818552 
L 132.482555 109.056667 
L 132.744176 100.294781 
L 133.322813 91.532896 
L 134.228621 82.77101 
L 135.02711 76.929753 
L 135.983131 71.088497 
L 137.108083 65.24724 
L 138.410485 59.405983 
L 139.88937 53.564726 
L 142.137725 45.735811 
L 144.789425 37.471223 
L 150.27682 21.437813 
M 303.70743 21.437813 
L 300.921291 30.199698 
L 299.29967 36.040955 
L 297.92008 41.882212 
L 296.828312 47.723469 
L 296.05651 53.564726 
L 295.665984 59.405983 
L 295.666375 65.24724 
L 296.058994 71.088497 
L 296.833415 76.929753 
L 297.939239 82.77101 
L 299.347647 88.612267 
L 301.239725 95.204131 
L 303.891425 103.267304 
L 310.95884 123.659809 
L 312.743648 129.501066 
L 314.498225 135.904443 
L 315.767652 141.18358 
L 317.149925 147.708591 
L 318.566805 155.786722 
L 319.784201 164.548608 
L 320.410001 170.389865 
L 321.086353 179.15175 
L 321.450122 187.913635 
L 321.501695 196.675521 
L 321.240074 205.437406 
L 320.661437 214.199292 
L 319.755629 222.961177 
L 318.95714 228.802434 
L 318.001119 234.643691 
L 316.876167 240.484948 
L 315.573765 246.326205 
L 314.09488 252.167462 
L 311.846525 259.996376 
L 309.194825 268.260965 
L 303.70743 284.294375 
L 303.70743 284.294375 
" clip-path="url(#p874f0fce48)" style="fill: none; stroke: #ff6c00"/>
    <path d="M 144.874526 284.294375 
L 148.408294 272.611861 
L 150.092825 266.24404 
L 151.261304 260.929347 
L 152.256385 255.08809 
L 152.886239 249.246833 
L 153.10781 243.405576 
L 152.917256 237.564319 
L 152.311336 231.723062 
L 151.317951 225.881806 
L 149.988726 220.040549 
L 148.348324 214.199292 
L 146.49001 208.358035 
L 138.667605 184.993007 
L 136.834325 178.579365 
L 135.491873 173.310493 
L 134.161152 167.469236 
L 133.000344 161.627979 
L 131.995805 155.786722 
L 130.764856 147.024837 
L 129.85677 138.262951 
L 129.257965 129.501066 
L 128.953551 120.739181 
L 128.930841 111.977295 
L 129.180409 103.21541 
L 129.697146 94.453524 
L 130.481466 85.691639 
L 131.541768 76.929753 
L 132.877752 68.167868 
L 134.516922 59.405983 
L 136.464012 50.644097 
L 137.932999 44.80284 
L 140.374057 36.040955 
L 143.948237 24.358441 
L 144.874526 21.437813 
M 309.109724 21.437813 
L 305.575956 33.120326 
L 303.891425 39.488147 
L 302.722946 44.80284 
L 301.727865 50.644097 
L 301.098011 56.485354 
L 300.87644 62.326611 
L 301.066994 68.167868 
L 301.672914 74.009125 
L 302.666299 79.850382 
L 303.995524 85.691639 
L 305.635926 91.532896 
L 307.49424 97.374153 
L 315.316645 120.739181 
L 317.149925 127.152823 
L 318.492377 132.421694 
L 319.823098 138.262951 
L 320.983906 144.104208 
L 321.988445 149.945465 
L 323.219394 158.707351 
L 324.12748 167.469236 
L 324.726285 176.231122 
L 325.030699 184.993007 
L 325.053409 193.754892 
L 324.803841 202.516778 
L 324.287104 211.278663 
L 323.502784 220.040549 
L 322.442482 228.802434 
L 321.106498 237.564319 
L 319.467328 246.326205 
L 317.520238 255.08809 
L 316.051251 260.929347 
L 313.610193 269.691233 
L 310.036013 281.373747 
L 309.109724 284.294375 
L 309.109724 284.294375 
" clip-path="url(#p874f0fce48)" style="fill: none; stroke: #ff4e00"/>
    <path d="M 139.118235 284.294375 
L 143.31915 269.691233 
L 144.833108 263.849976 
L 146.05805 258.008719 
L 146.954949 252.167462 
L 147.447446 246.326205 
L 147.490087 240.484948 
L 147.341653 237.564319 
L 146.707201 231.723062 
L 145.664343 225.881806 
L 144.264062 220.040549 
L 142.137725 212.772635 
L 138.81044 202.516778 
L 136.022096 193.754892 
L 133.499488 184.993007 
L 131.530925 177.149368 
L 130.044697 170.389865 
L 128.429906 161.627979 
L 127.533731 155.786722 
L 126.795891 149.945465 
L 125.957819 141.18358 
L 125.42422 132.421694 
L 125.191535 123.659809 
L 125.228605 114.897924 
L 125.511596 106.136038 
L 126.025015 97.374153 
L 126.738827 88.612267 
L 127.652382 79.850382 
L 128.879225 70.368682 
L 130.078385 62.326611 
L 131.599152 53.564726 
L 133.312834 44.80284 
L 135.270935 36.040955 
L 137.494027 27.279069 
L 139.118235 21.437813 
M 314.866015 21.437813 
L 310.6651 36.040955 
L 309.151142 41.882212 
L 307.9262 47.723469 
L 307.029301 53.564726 
L 306.536804 59.405983 
L 306.494163 65.24724 
L 306.642597 68.167868 
L 307.277049 74.009125 
L 308.319907 79.850382 
L 309.720188 85.691639 
L 311.846525 92.959552 
L 315.17381 103.21541 
L 317.962154 111.977295 
L 320.484762 120.739181 
L 322.453325 128.58282 
L 323.939553 135.342323 
L 325.554344 144.104208 
L 326.450519 149.945465 
L 327.188359 155.786722 
L 328.026431 164.548608 
L 328.56003 173.310493 
L 328.792715 182.072378 
L 328.755645 190.834264 
L 328.472654 199.596149 
L 327.959235 208.358035 
L 327.245423 217.11992 
L 326.331868 225.881806 
L 325.105025 235.363505 
L 323.905865 243.405576 
L 322.385098 252.167462 
L 320.671416 260.929347 
L 318.713315 269.691233 
L 316.490223 278.453118 
L 314.866015 284.294375 
L 314.866015 284.294375 
" clip-path="url(#p874f0fce48)" style="fill: none; stroke: #ff2d00"/>
    <path d="M 132.588639 284.294375 
L 134.182625 278.411433 
L 136.719371 269.691233 
L 137.540631 266.770604 
L 139.486025 259.172814 
L 140.291816 255.08809 
L 141.099512 249.246833 
L 141.332241 246.326205 
L 141.44199 243.405576 
L 141.426455 240.484948 
L 141.286738 237.564319 
L 141.027073 234.643691 
L 140.177875 228.802434 
L 138.942115 222.961177 
L 137.422078 217.11992 
L 134.182625 206.086435 
L 130.596631 193.754892 
L 128.294956 184.993007 
L 126.906171 179.15175 
L 125.055718 170.389865 
L 124.016819 164.548608 
L 122.713934 155.786722 
L 122.055822 149.945465 
L 121.575453 144.104208 
L 121.257494 138.262951 
L 121.048901 129.501066 
L 121.114631 120.739181 
L 121.409783 111.977295 
L 121.901578 103.21541 
L 122.824553 91.532896 
L 124.299947 76.929753 
L 125.668028 65.24724 
L 128.337458 44.80284 
L 130.141456 33.120326 
L 131.530925 26.144506 
L 132.588639 21.437813 
M 321.395611 21.437813 
L 319.801625 27.320754 
L 317.264879 36.040955 
L 316.443619 38.961583 
L 314.498225 46.559374 
L 313.692434 50.644097 
L 312.884738 56.485354 
L 312.652009 59.405983 
L 312.54226 62.326611 
L 312.557795 65.24724 
L 312.697512 68.167868 
L 312.957177 71.088497 
L 313.806375 76.929753 
L 315.042135 82.77101 
L 316.562172 88.612267 
L 319.801625 99.645753 
L 323.387619 111.977295 
L 325.689294 120.739181 
L 327.078079 126.580438 
L 328.928532 135.342323 
L 329.967431 141.18358 
L 331.270316 149.945465 
L 331.928428 155.786722 
L 332.408797 161.627979 
L 332.726756 167.469236 
L 332.935349 176.231122 
L 332.869619 184.993007 
L 332.574467 193.754892 
L 332.082672 202.516778 
L 331.159697 214.199292 
L 329.684303 228.802434 
L 328.316222 240.484948 
L 325.646792 260.929347 
L 323.842794 272.611861 
L 322.453325 279.587681 
L 321.395611 284.294375 
L 321.395611 284.294375 
" clip-path="url(#p874f0fce48)" style="fill: none; stroke: #f60b00"/>
    <path d="M 123.670224 284.294375 
L 124.242376 281.373747 
L 125.014702 278.453118 
L 126.993618 272.611861 
L 130.202281 263.849976 
L 131.530925 259.899252 
L 132.809317 255.08809 
L 133.443642 252.167462 
L 134.182625 247.356149 
L 134.298241 246.326205 
L 134.495032 243.405576 
L 134.556709 240.484948 
L 134.486634 237.564319 
L 134.182625 233.619133 
L 133.546331 228.802434 
L 132.446089 222.961177 
L 131.099248 217.11992 
L 128.821935 208.358035 
L 124.054677 190.834264 
L 119.705919 173.310493 
L 118.532954 167.469236 
L 116.611985 155.786722 
L 116.058791 149.945465 
L 115.749045 144.104208 
L 115.644278 138.262951 
L 115.792984 129.501066 
L 116.218168 120.739181 
L 116.843848 111.977295 
L 117.904144 100.294781 
L 120.924125 69.5753 
L 121.721828 59.405983 
L 122.218648 50.644097 
L 122.483168 41.882212 
L 122.716998 30.199698 
L 122.895373 27.279069 
L 123.203725 24.358441 
L 123.670224 21.437813 
M 330.314026 21.437813 
L 329.741874 24.358441 
L 328.969548 27.279069 
L 326.990632 33.120326 
L 323.781969 41.882212 
L 322.453325 45.832935 
L 321.174933 50.644097 
L 320.540608 53.564726 
L 319.801625 58.376039 
L 319.686009 59.405983 
L 319.489218 62.326611 
L 319.427541 65.24724 
L 319.497616 68.167868 
L 319.801625 72.113054 
L 320.437919 76.929753 
L 321.538161 82.77101 
L 322.885002 88.612267 
L 325.162315 97.374153 
L 329.929573 114.897924 
L 334.278331 132.421694 
L 335.451296 138.262951 
L 337.372265 149.945465 
L 337.925459 155.786722 
L 338.235205 161.627979 
L 338.339972 167.469236 
L 338.191266 176.231122 
L 337.766082 184.993007 
L 337.140402 193.754892 
L 336.080106 205.437406 
L 333.060125 236.156887 
L 332.262422 246.326205 
L 331.765602 255.08809 
L 331.501082 263.849976 
L 331.267252 275.53249 
L 331.088877 278.453118 
L 330.780525 281.373747 
L 330.314026 284.294375 
L 330.314026 284.294375 
" clip-path="url(#p874f0fce48)" style="fill: none; stroke: #cd0000"/>
    <path d="M 107.665625 265.667045 
L 110.317325 265.682615 
L 112.969025 264.748817 
L 115.620725 262.994276 
L 118.272425 260.409316 
L 120.924125 256.793147 
L 121.865918 255.08809 
L 123.575825 251.48219 
L 124.350488 249.246833 
L 125.161112 246.326205 
L 125.758726 243.405576 
L 126.227525 239.420733 
L 126.342742 237.564319 
L 126.371297 234.643691 
L 126.227525 231.313346 
L 126.010855 228.802434 
L 125.185151 222.961177 
L 124.053177 217.11992 
L 123.389061 214.199292 
L 120.924125 205.024047 
L 118.212326 196.675521 
L 115.911198 190.834264 
L 115.620725 190.026698 
L 114.412871 187.913635 
L 112.854914 184.993007 
L 110.317325 183.014143 
L 107.665625 185.668146 
M 346.318625 185.668146 
L 343.666925 194.441937 
L 341.015225 209.405802 
L 339.700541 220.040549 
L 338.792421 228.802434 
L 338.350443 234.643691 
L 338.159627 240.484948 
L 338.225651 246.326205 
L 338.396789 249.246833 
L 338.752169 252.167462 
L 339.290194 255.08809 
L 340.05244 258.008719 
L 341.124116 260.929347 
L 343.666925 264.341814 
L 346.318625 265.667045 
M 107.665625 120.064042 
L 110.317325 111.29025 
L 112.969025 96.326386 
L 114.283709 85.691639 
L 115.191829 76.929753 
L 115.633807 71.088497 
L 115.824623 65.24724 
L 115.758599 59.405983 
L 115.587461 56.485354 
L 115.232081 53.564726 
L 114.694056 50.644097 
L 113.93181 47.723469 
L 112.860134 44.80284 
L 110.317325 41.390374 
L 107.665625 40.065143 
M 346.318625 40.065143 
L 343.666925 40.049572 
L 341.015225 40.98337 
L 338.363525 42.737911 
L 335.711825 45.322872 
L 333.060125 48.939041 
L 332.118332 50.644097 
L 330.408425 54.249998 
L 329.633762 56.485354 
L 328.823138 59.405983 
L 328.225524 62.326611 
L 327.756725 66.311454 
L 327.641508 68.167868 
L 327.612953 71.088497 
L 327.756725 74.418841 
L 327.973395 76.929753 
L 328.799099 82.77101 
L 329.931073 88.612267 
L 330.595189 91.532896 
L 333.060125 100.70814 
L 335.771924 109.056667 
L 338.073052 114.897924 
L 338.363525 115.705489 
L 339.571379 117.818552 
L 341.129336 120.739181 
L 343.666925 122.718044 
L 346.318625 120.064042 
L 346.318625 120.064042 
" clip-path="url(#p874f0fce48)" style="fill: none; stroke: #a40000"/>
    <path clip-path="url(#p874f0fce48)" style="fill: none; stroke: #800000"/>
   </g>
   <g id="patch_3">
    <path d="M 107.665625 284.294375 
L 107.665625 21.437813 
" style="fill: none; stroke: #000000; stroke-width: 0.8; stroke-linejoin: miter; stroke-linecap: square"/>
   </g>
   <g id="patch_4">
    <path d="M 107.665625 284.294375 
L 346.318625 284.294375 
" style="fill: none; stroke: #000000; stroke-width: 0.8; stroke-linejoin: miter; stroke-linecap: square"/>
   </g>
  </g>
  <g id="axes_2">
   <g id="patch_5">
    <path d="M 361.234437 284.294375 
L 374.377266 284.294375 
L 374.377266 21.437813 
L 361.234437 21.437813 
z
" style="fill: #ffffff"/>
   </g>
   <g id="matplotlib.axis_3"/>
   <g id="matplotlib.axis_4">
    <g id="ytick_6">
     <g id="line2d_11">
      <defs>
       <path id="md288777452" d="M 0 0 
L 3.5 0 
" style="stroke: #000000; stroke-width: 0.8"/>
      </defs>
      <g>
       <use xlink:href="#md288777452" x="374.377266" y="251.995009" style="stroke: #000000; stroke-width: 0.8"/>
      </g>
     </g>
     <g id="text_13">
      <!-- 0.80 -->
      <g transform="translate(381.377266 258.833603) scale(0.18 -0.18)">
       <defs>
        <path id="DejaVuSerif-2e" d="M 603 325 
Q 603 500 722 622 
Q 841 744 1019 744 
Q 1191 744 1312 622 
Q 1434 500 1434 325 
Q 1434 153 1312 31 
Q 1191 -91 1019 -91 
Q 841 -91 722 29 
Q 603 150 603 325 
z
" transform="scale(0.015625)"/>
        <path id="DejaVuSerif-38" d="M 2981 1275 
Q 2981 1775 2732 2051 
Q 2484 2328 2034 2328 
Q 1584 2328 1336 2051 
Q 1088 1775 1088 1275 
Q 1088 772 1336 495 
Q 1584 219 2034 219 
Q 2484 219 2732 495 
Q 2981 772 2981 1275 
z
M 2853 3541 
Q 2853 3966 2637 4203 
Q 2422 4441 2034 4441 
Q 1650 4441 1433 4203 
Q 1216 3966 1216 3541 
Q 1216 3113 1433 2875 
Q 1650 2638 2034 2638 
Q 2422 2638 2637 2875 
Q 2853 3113 2853 3541 
z
M 2516 2484 
Q 3047 2413 3344 2092 
Q 3641 1772 3641 1275 
Q 3641 619 3225 264 
Q 2809 -91 2034 -91 
Q 1263 -91 845 264 
Q 428 619 428 1275 
Q 428 1772 725 2092 
Q 1022 2413 1556 2484 
Q 1084 2569 832 2842 
Q 581 3116 581 3541 
Q 581 4103 968 4426 
Q 1356 4750 2034 4750 
Q 2713 4750 3100 4426 
Q 3488 4103 3488 3541 
Q 3488 3116 3236 2842 
Q 2984 2569 2516 2484 
z
" transform="scale(0.015625)"/>
       </defs>
       <use xlink:href="#DejaVuSerif-30"/>
       <use xlink:href="#DejaVuSerif-2e" x="63.623047"/>
       <use xlink:href="#DejaVuSerif-38" x="95.410156"/>
       <use xlink:href="#DejaVuSerif-30" x="159.033203"/>
      </g>
     </g>
    </g>
    <g id="ytick_7">
     <g id="line2d_12">
      <g>
       <use xlink:href="#md288777452" x="374.377266" y="213.210295" style="stroke: #000000; stroke-width: 0.8"/>
      </g>
     </g>
     <g id="text_14">
      <!-- 0.88 -->
      <g transform="translate(381.377266 220.048889) scale(0.18 -0.18)">
       <use xlink:href="#DejaVuSerif-30"/>
       <use xlink:href="#DejaVuSerif-2e" x="63.623047"/>
       <use xlink:href="#DejaVuSerif-38" x="95.410156"/>
       <use xlink:href="#DejaVuSerif-38" x="159.033203"/>
      </g>
     </g>
    </g>
    <g id="ytick_8">
     <g id="line2d_13">
      <g>
       <use xlink:href="#md288777452" x="374.377266" y="174.425581" style="stroke: #000000; stroke-width: 0.8"/>
      </g>
     </g>
     <g id="text_15">
      <!-- 0.96 -->
      <g transform="translate(381.377266 181.264175) scale(0.18 -0.18)">
       <defs>
        <path id="DejaVuSerif-39" d="M 2994 2091 
Q 2784 1856 2512 1740 
Q 2241 1625 1900 1625 
Q 1206 1625 804 2044 
Q 403 2463 403 3188 
Q 403 3897 839 4323 
Q 1275 4750 2003 4750 
Q 2794 4750 3217 4161 
Q 3641 3572 3641 2478 
Q 3641 1253 3137 581 
Q 2634 -91 1722 -91 
Q 1475 -91 1203 -44 
Q 931 3 647 97 
L 647 872 
L 997 872 
Q 1038 556 1241 387 
Q 1444 219 1784 219 
Q 2391 219 2687 676 
Q 2984 1134 2994 2091 
z
M 1978 4441 
Q 1534 4441 1298 4117 
Q 1063 3794 1063 3188 
Q 1063 2581 1298 2256 
Q 1534 1931 1978 1931 
Q 2422 1931 2658 2245 
Q 2894 2559 2894 3150 
Q 2894 3772 2656 4106 
Q 2419 4441 1978 4441 
z
" transform="scale(0.015625)"/>
        <path id="DejaVuSerif-36" d="M 2094 219 
Q 2534 219 2771 542 
Q 3009 866 3009 1472 
Q 3009 2078 2771 2401 
Q 2534 2725 2094 2725 
Q 1647 2725 1412 2412 
Q 1178 2100 1178 1509 
Q 1178 888 1415 553 
Q 1653 219 2094 219 
z
M 1075 2569 
Q 1288 2803 1556 2918 
Q 1825 3034 2163 3034 
Q 2859 3034 3264 2615 
Q 3669 2197 3669 1472 
Q 3669 763 3233 336 
Q 2797 -91 2069 -91 
Q 1278 -91 853 498 
Q 428 1088 428 2181 
Q 428 3406 931 4078 
Q 1434 4750 2350 4750 
Q 2597 4750 2869 4703 
Q 3141 4656 3425 4563 
L 3425 3794 
L 3072 3794 
Q 3034 4109 2831 4275 
Q 2628 4441 2284 4441 
Q 1678 4441 1381 3981 
Q 1084 3522 1075 2569 
z
" transform="scale(0.015625)"/>
       </defs>
       <use xlink:href="#DejaVuSerif-30"/>
       <use xlink:href="#DejaVuSerif-2e" x="63.623047"/>
       <use xlink:href="#DejaVuSerif-39" x="95.410156"/>
       <use xlink:href="#DejaVuSerif-36" x="159.033203"/>
      </g>
     </g>
    </g>
    <g id="ytick_9">
     <g id="line2d_14">
      <g>
       <use xlink:href="#md288777452" x="374.377266" y="135.640867" style="stroke: #000000; stroke-width: 0.8"/>
      </g>
     </g>
     <g id="text_16">
      <!-- 1.04 -->
      <g transform="translate(381.377266 142.479461) scale(0.18 -0.18)">
       <defs>
        <path id="DejaVuSerif-31" d="M 909 0 
L 909 331 
L 1722 331 
L 1722 4213 
L 781 3603 
L 781 4013 
L 1919 4750 
L 2350 4750 
L 2350 331 
L 3163 331 
L 3163 0 
L 909 0 
z
" transform="scale(0.015625)"/>
        <path id="DejaVuSerif-34" d="M 2234 1581 
L 2234 4063 
L 641 1581 
L 2234 1581 
z
M 3609 0 
L 1484 0 
L 1484 331 
L 2234 331 
L 2234 1247 
L 197 1247 
L 197 1588 
L 2241 4750 
L 2859 4750 
L 2859 1581 
L 3750 1581 
L 3750 1247 
L 2859 1247 
L 2859 331 
L 3609 331 
L 3609 0 
z
" transform="scale(0.015625)"/>
       </defs>
       <use xlink:href="#DejaVuSerif-31"/>
       <use xlink:href="#DejaVuSerif-2e" x="63.623047"/>
       <use xlink:href="#DejaVuSerif-30" x="95.410156"/>
       <use xlink:href="#DejaVuSerif-34" x="159.033203"/>
      </g>
     </g>
    </g>
    <g id="ytick_10">
     <g id="line2d_15">
      <g>
       <use xlink:href="#md288777452" x="374.377266" y="96.856153" style="stroke: #000000; stroke-width: 0.8"/>
      </g>
     </g>
     <g id="text_17">
      <!-- 1.12 -->
      <g transform="translate(381.377266 103.694747) scale(0.18 -0.18)">
       <defs>
        <path id="DejaVuSerif-32" d="M 819 3553 
L 469 3553 
L 469 4384 
Q 803 4563 1142 4656 
Q 1481 4750 1806 4750 
Q 2534 4750 2956 4397 
Q 3378 4044 3378 3438 
Q 3378 2753 2422 1800 
Q 2347 1728 2309 1691 
L 1131 513 
L 3078 513 
L 3078 1088 
L 3444 1088 
L 3444 0 
L 434 0 
L 434 341 
L 1850 1753 
Q 2319 2222 2519 2614 
Q 2719 3006 2719 3438 
Q 2719 3909 2473 4175 
Q 2228 4441 1797 4441 
Q 1350 4441 1106 4219 
Q 863 3997 819 3553 
z
" transform="scale(0.015625)"/>
       </defs>
       <use xlink:href="#DejaVuSerif-31"/>
       <use xlink:href="#DejaVuSerif-2e" x="63.623047"/>
       <use xlink:href="#DejaVuSerif-31" x="95.410156"/>
       <use xlink:href="#DejaVuSerif-32" x="159.033203"/>
      </g>
     </g>
    </g>
    <g id="ytick_11">
     <g id="line2d_16">
      <g>
       <use xlink:href="#md288777452" x="374.377266" y="58.071439" style="stroke: #000000; stroke-width: 0.8"/>
      </g>
     </g>
     <g id="text_18">
      <!-- 1.20 -->
      <g transform="translate(381.377266 64.910033) scale(0.18 -0.18)">
       <use xlink:href="#DejaVuSerif-31"/>
       <use xlink:href="#DejaVuSerif-2e" x="63.623047"/>
       <use xlink:href="#DejaVuSerif-32" x="95.410156"/>
       <use xlink:href="#DejaVuSerif-30" x="159.033203"/>
      </g>
     </g>
    </g>
   </g>
   <g id="LineCollection_1"/>
   <g id="LineCollection_2">
    <path d="M 361.234437 284.294375 
L 374.377266 284.294375 
" clip-path="url(#p593ac2f419)" style="fill: none; stroke: #000080"/>
    <path d="M 361.234437 275.230356 
L 374.377266 275.230356 
" clip-path="url(#p593ac2f419)" style="fill: none; stroke: #0000a4"/>
    <path d="M 361.234437 266.166336 
L 374.377266 266.166336 
" clip-path="url(#p593ac2f419)" style="fill: none; stroke: #0000cd"/>
    <path d="M 361.234437 257.102317 
L 374.377266 257.102317 
" clip-path="url(#p593ac2f419)" style="fill: none; stroke: #0000f6"/>
    <path d="M 361.234437 248.038297 
L 374.377266 248.038297 
" clip-path="url(#p593ac2f419)" style="fill: none; stroke: #000cff"/>
    <path d="M 361.234437 238.974278 
L 374.377266 238.974278 
" clip-path="url(#p593ac2f419)" style="fill: none; stroke: #0030ff"/>
    <path d="M 361.234437 229.910259 
L 374.377266 229.910259 
" clip-path="url(#p593ac2f419)" style="fill: none; stroke: #0050ff"/>
    <path d="M 361.234437 220.846239 
L 374.377266 220.846239 
" clip-path="url(#p593ac2f419)" style="fill: none; stroke: #0074ff"/>
    <path d="M 361.234437 211.78222 
L 374.377266 211.78222 
" clip-path="url(#p593ac2f419)" style="fill: none; stroke: #0098ff"/>
    <path d="M 361.234437 202.7182 
L 374.377266 202.7182 
" clip-path="url(#p593ac2f419)" style="fill: none; stroke: #00bcff"/>
    <path d="M 361.234437 193.654181 
L 374.377266 193.654181 
" clip-path="url(#p593ac2f419)" style="fill: none; stroke: #00e0fb"/>
    <path d="M 361.234437 184.590162 
L 374.377266 184.590162 
" clip-path="url(#p593ac2f419)" style="fill: none; stroke: #19ffde"/>
    <path d="M 361.234437 175.526142 
L 374.377266 175.526142 
" clip-path="url(#p593ac2f419)" style="fill: none; stroke: #33ffc4"/>
    <path d="M 361.234437 166.462123 
L 374.377266 166.462123 
" clip-path="url(#p593ac2f419)" style="fill: none; stroke: #50ffa7"/>
    <path d="M 361.234437 157.398103 
L 374.377266 157.398103 
" clip-path="url(#p593ac2f419)" style="fill: none; stroke: #6dff8a"/>
    <path d="M 361.234437 148.334084 
L 374.377266 148.334084 
" clip-path="url(#p593ac2f419)" style="fill: none; stroke: #8aff6d"/>
    <path d="M 361.234437 139.270065 
L 374.377266 139.270065 
" clip-path="url(#p593ac2f419)" style="fill: none; stroke: #a7ff50"/>
    <path d="M 361.234437 130.206045 
L 374.377266 130.206045 
" clip-path="url(#p593ac2f419)" style="fill: none; stroke: #c4ff33"/>
    <path d="M 361.234437 121.142026 
L 374.377266 121.142026 
" clip-path="url(#p593ac2f419)" style="fill: none; stroke: #deff19"/>
    <path d="M 361.234437 112.078006 
L 374.377266 112.078006 
" clip-path="url(#p593ac2f419)" style="fill: none; stroke: #fbf100"/>
    <path d="M 361.234437 103.013987 
L 374.377266 103.013987 
" clip-path="url(#p593ac2f419)" style="fill: none; stroke: #ffd000"/>
    <path d="M 361.234437 93.949968 
L 374.377266 93.949968 
" clip-path="url(#p593ac2f419)" style="fill: none; stroke: #ffae00"/>
    <path d="M 361.234437 84.885948 
L 374.377266 84.885948 
" clip-path="url(#p593ac2f419)" style="fill: none; stroke: #ff8d00"/>
    <path d="M 361.234437 75.821929 
L 374.377266 75.821929 
" clip-path="url(#p593ac2f419)" style="fill: none; stroke: #ff6c00"/>
    <path d="M 361.234437 66.757909 
L 374.377266 66.757909 
" clip-path="url(#p593ac2f419)" style="fill: none; stroke: #ff4e00"/>
    <path d="M 361.234437 57.69389 
L 374.377266 57.69389 
" clip-path="url(#p593ac2f419)" style="fill: none; stroke: #ff2d00"/>
    <path d="M 361.234437 48.629871 
L 374.377266 48.629871 
" clip-path="url(#p593ac2f419)" style="fill: none; stroke: #f60b00"/>
    <path d="M 361.234437 39.565851 
L 374.377266 39.565851 
" clip-path="url(#p593ac2f419)" style="fill: none; stroke: #cd0000"/>
    <path d="M 361.234437 30.501832 
L 374.377266 30.501832 
" clip-path="url(#p593ac2f419)" style="fill: none; stroke: #a40000"/>
    <path d="M 361.234437 21.437813 
L 374.377266 21.437813 
" clip-path="url(#p593ac2f419)" style="fill: none; stroke: #800000"/>
   </g>
   <g id="patch_6">
    <path d="M 361.234437 284.294375 
L 367.805852 284.294375 
L 374.377266 284.294375 
L 374.377266 21.437813 
L 367.805852 21.437813 
L 361.234437 21.437813 
L 361.234437 284.294375 
z
" style="fill: none; stroke: #000000; stroke-width: 0.8; stroke-linejoin: miter; stroke-linecap: square"/>
   </g>
  </g>
 </g>
 <defs>
  <clipPath id="p874f0fce48">
   <rect x="107.665625" y="21.437813" width="238.653" height="262.856562"/>
  </clipPath>
  <clipPath id="p593ac2f419">
   <path d="M 361.234437 285.242631 
L 374.377266 285.242631 
L 374.377266 20.489557 
L 361.234437 20.489557 
z
"/>
  </clipPath>
 </defs>
</svg>
