<?xml version="1.0" encoding="UTF-8" standalone="no"?>
<svg
   xmlns:dc="http://purl.org/dc/elements/1.1/"
   xmlns:cc="http://creativecommons.org/ns#"
   xmlns:rdf="http://www.w3.org/1999/02/22-rdf-syntax-ns#"
   xmlns:svg="http://www.w3.org/2000/svg"
   xmlns="http://www.w3.org/2000/svg"
   xmlns:xlink="http://www.w3.org/1999/xlink"
   xmlns:sodipodi="http://sodipodi.sourceforge.net/DTD/sodipodi-0.dtd"
   xmlns:inkscape="http://www.inkscape.org/namespaces/inkscape"
   width="432pt"
   height="288pt"
   viewBox="0 0 432 288"
   version="1.1"
   id="svg324"
   sodipodi:docname="Xsection_optimized_reverse.svg"
   inkscape:version="0.92.5 (2060ec1f9f, 2020-04-08)">
  <sodipodi:namedview
     pagecolor="#ffffff"
     bordercolor="#666666"
     borderopacity="1"
     objecttolerance="10"
     gridtolerance="10"
     guidetolerance="10"
     inkscape:pageopacity="0"
     inkscape:pageshadow="2"
     inkscape:window-width="3665"
     inkscape:window-height="2452"
     id="namedview326"
     showgrid="false"
     inkscape:zoom="3.4766083"
     inkscape:cx="252.56321"
     inkscape:cy="275.57121"
     inkscape:window-x="0"
     inkscape:window-y="0"
     inkscape:window-maximized="0"
     inkscape:current-layer="line2d_12"
     showguides="true" />
  <metadata
     id="metadata2">
    <rdf:RDF>
      <cc:Work>
        <dc:type
           rdf:resource="http://purl.org/dc/dcmitype/StillImage" />
        <dc:date>2025-05-05T06:22:13.333255</dc:date>
        <dc:format>image/svg+xml</dc:format>
        <dc:creator>
          <cc:Agent>
            <dc:title>Matplotlib v3.9.2, https://matplotlib.org/</dc:title>
          </cc:Agent>
        </dc:creator>
        <dc:title></dc:title>
      </cc:Work>
    </rdf:RDF>
  </metadata>
  <defs
     id="defs6">
    <style
       type="text/css"
       id="style4">*{stroke-linejoin: round; stroke-linecap: butt}</style>
  </defs>
  <g
     id="figure_1">
    <g
       id="axes_1">
      <g
         id="patch_2" />
      <g
         id="matplotlib.axis_1">
        <g
           id="xtick_1">
          <g
             id="line2d_1">
            <defs
               id="defs15">
              <path
                 id="me6fdfb7724"
                 d="M 0 0  L 0 3.5  "
                 style="stroke: #000000; stroke-width: 0.8" />
            </defs>
            <g
               id="g19">
              <use
                 xlink:href="#me6fdfb7724"
                 x="127.54734"
                 y="227.4875"
                 style="stroke: #000000; stroke-width: 0.8"
                 id="use17" />
            </g>
          </g>
          <g
             id="text_1">
            <!-- 0.72 -->
            <g
               transform="translate(107.508277 248.164688) scale(0.18 -0.18)"
               id="g36">
              <defs
                 id="defs26">
                <path
                   id="DejaVuSans-30"
                   d="M 2034 4250  Q 1547 4250 1301 3770  Q 1056 3291 1056 2328  Q 1056 1369 1301 889  Q 1547 409 2034 409  Q 2525 409 2770 889  Q 3016 1369 3016 2328  Q 3016 3291 2770 3770  Q 2525 4250 2034 4250  z M 2034 4750  Q 2819 4750 3233 4129  Q 3647 3509 3647 2328  Q 3647 1150 3233 529  Q 2819 -91 2034 -91  Q 1250 -91 836 529  Q 422 1150 422 2328  Q 422 3509 836 4129  Q 1250 4750 2034 4750  z "
                   transform="scale(0.015625)" />
                <path
                   id="DejaVuSans-2e"
                   d="M 684 794  L 1344 794  L 1344 0  L 684 0  L 684 794  z "
                   transform="scale(0.015625)" />
                <path
                   id="DejaVuSans-37"
                   d="M 525 4666  L 3525 4666  L 3525 4397  L 1831 0  L 1172 0  L 2766 4134  L 525 4134  L 525 4666  z "
                   transform="scale(0.015625)" />
                <path
                   id="DejaVuSans-32"
                   d="M 1228 531  L 3431 531  L 3431 0  L 469 0  L 469 531  Q 828 903 1448 1529  Q 2069 2156 2228 2338  Q 2531 2678 2651 2914  Q 2772 3150 2772 3378  Q 2772 3750 2511 3984  Q 2250 4219 1831 4219  Q 1534 4219 1204 4116  Q 875 4013 500 3803  L 500 4441  Q 881 4594 1212 4672  Q 1544 4750 1819 4750  Q 2544 4750 2975 4387  Q 3406 4025 3406 3419  Q 3406 3131 3298 2873  Q 3191 2616 2906 2266  Q 2828 2175 2409 1742  Q 1991 1309 1228 531  z "
                   transform="scale(0.015625)" />
              </defs>
              <use
                 xlink:href="#DejaVuSans-30"
                 id="use28" />
              <use
                 xlink:href="#DejaVuSans-2e"
                 x="63.623047"
                 id="use30" />
              <use
                 xlink:href="#DejaVuSans-37"
                 x="95.410156"
                 id="use32" />
              <use
                 xlink:href="#DejaVuSans-32"
                 x="159.033203"
                 id="use34" />
            </g>
          </g>
        </g>
        <g
           id="xtick_2">
          <g
             id="line2d_2">
            <g
               id="g42">
              <use
                 xlink:href="#me6fdfb7724"
                 x="193.041298"
                 y="227.4875"
                 style="stroke: #000000; stroke-width: 0.8"
                 id="use40" />
            </g>
          </g>
          <g
             id="text_2">
            <!-- 0.89 -->
            <g
               transform="translate(173.002235 248.164688) scale(0.18 -0.18)"
               id="g57">
              <defs
                 id="defs47">
                <path
                   id="DejaVuSans-38"
                   d="M 2034 2216  Q 1584 2216 1326 1975  Q 1069 1734 1069 1313  Q 1069 891 1326 650  Q 1584 409 2034 409  Q 2484 409 2743 651  Q 3003 894 3003 1313  Q 3003 1734 2745 1975  Q 2488 2216 2034 2216  z M 1403 2484  Q 997 2584 770 2862  Q 544 3141 544 3541  Q 544 4100 942 4425  Q 1341 4750 2034 4750  Q 2731 4750 3128 4425  Q 3525 4100 3525 3541  Q 3525 3141 3298 2862  Q 3072 2584 2669 2484  Q 3125 2378 3379 2068  Q 3634 1759 3634 1313  Q 3634 634 3220 271  Q 2806 -91 2034 -91  Q 1263 -91 848 271  Q 434 634 434 1313  Q 434 1759 690 2068  Q 947 2378 1403 2484  z M 1172 3481  Q 1172 3119 1398 2916  Q 1625 2713 2034 2713  Q 2441 2713 2670 2916  Q 2900 3119 2900 3481  Q 2900 3844 2670 4047  Q 2441 4250 2034 4250  Q 1625 4250 1398 4047  Q 1172 3844 1172 3481  z "
                   transform="scale(0.015625)" />
                <path
                   id="DejaVuSans-39"
                   d="M 703 97  L 703 672  Q 941 559 1184 500  Q 1428 441 1663 441  Q 2288 441 2617 861  Q 2947 1281 2994 2138  Q 2813 1869 2534 1725  Q 2256 1581 1919 1581  Q 1219 1581 811 2004  Q 403 2428 403 3163  Q 403 3881 828 4315  Q 1253 4750 1959 4750  Q 2769 4750 3195 4129  Q 3622 3509 3622 2328  Q 3622 1225 3098 567  Q 2575 -91 1691 -91  Q 1453 -91 1209 -44  Q 966 3 703 97  z M 1959 2075  Q 2384 2075 2632 2365  Q 2881 2656 2881 3163  Q 2881 3666 2632 3958  Q 2384 4250 1959 4250  Q 1534 4250 1286 3958  Q 1038 3666 1038 3163  Q 1038 2656 1286 2365  Q 1534 2075 1959 2075  z "
                   transform="scale(0.015625)" />
              </defs>
              <use
                 xlink:href="#DejaVuSans-30"
                 id="use49" />
              <use
                 xlink:href="#DejaVuSans-2e"
                 x="63.623047"
                 id="use51" />
              <use
                 xlink:href="#DejaVuSans-38"
                 x="95.410156"
                 id="use53" />
              <use
                 xlink:href="#DejaVuSans-39"
                 x="159.033203"
                 id="use55" />
            </g>
          </g>
        </g>
        <g
           id="xtick_3">
          <g
             id="line2d_3">
            <g
               id="g63">
              <use
                 xlink:href="#me6fdfb7724"
                 x="258.535256"
                 y="227.4875"
                 style="stroke: #000000; stroke-width: 0.8"
                 id="use61" />
            </g>
          </g>
          <g
             id="text_3">
            <!-- 1.06 -->
            <g
               transform="translate(238.496193 248.164688) scale(0.18 -0.18)"
               id="g78">
              <defs
                 id="defs68">
                <path
                   id="DejaVuSans-31"
                   d="M 794 531  L 1825 531  L 1825 4091  L 703 3866  L 703 4441  L 1819 4666  L 2450 4666  L 2450 531  L 3481 531  L 3481 0  L 794 0  L 794 531  z "
                   transform="scale(0.015625)" />
                <path
                   id="DejaVuSans-36"
                   d="M 2113 2584  Q 1688 2584 1439 2293  Q 1191 2003 1191 1497  Q 1191 994 1439 701  Q 1688 409 2113 409  Q 2538 409 2786 701  Q 3034 994 3034 1497  Q 3034 2003 2786 2293  Q 2538 2584 2113 2584  z M 3366 4563  L 3366 3988  Q 3128 4100 2886 4159  Q 2644 4219 2406 4219  Q 1781 4219 1451 3797  Q 1122 3375 1075 2522  Q 1259 2794 1537 2939  Q 1816 3084 2150 3084  Q 2853 3084 3261 2657  Q 3669 2231 3669 1497  Q 3669 778 3244 343  Q 2819 -91 2113 -91  Q 1303 -91 875 529  Q 447 1150 447 2328  Q 447 3434 972 4092  Q 1497 4750 2381 4750  Q 2619 4750 2861 4703  Q 3103 4656 3366 4563  z "
                   transform="scale(0.015625)" />
              </defs>
              <use
                 xlink:href="#DejaVuSans-31"
                 id="use70" />
              <use
                 xlink:href="#DejaVuSans-2e"
                 x="63.623047"
                 id="use72" />
              <use
                 xlink:href="#DejaVuSans-30"
                 x="95.410156"
                 id="use74" />
              <use
                 xlink:href="#DejaVuSans-36"
                 x="159.033203"
                 id="use76" />
            </g>
          </g>
        </g>
        <g
           id="xtick_4">
          <g
             id="line2d_4">
            <g
               id="g84">
              <use
                 xlink:href="#me6fdfb7724"
                 x="324.029214"
                 y="227.4875"
                 style="stroke: #000000; stroke-width: 0.8"
                 id="use82" />
            </g>
          </g>
          <g
             id="text_4">
            <!-- 1.23 -->
            <g
               transform="translate(303.990151 248.164688) scale(0.18 -0.18)"
               id="g98">
              <defs
                 id="defs88">
                <path
                   id="DejaVuSans-33"
                   d="M 2597 2516  Q 3050 2419 3304 2112  Q 3559 1806 3559 1356  Q 3559 666 3084 287  Q 2609 -91 1734 -91  Q 1441 -91 1130 -33  Q 819 25 488 141  L 488 750  Q 750 597 1062 519  Q 1375 441 1716 441  Q 2309 441 2620 675  Q 2931 909 2931 1356  Q 2931 1769 2642 2001  Q 2353 2234 1838 2234  L 1294 2234  L 1294 2753  L 1863 2753  Q 2328 2753 2575 2939  Q 2822 3125 2822 3475  Q 2822 3834 2567 4026  Q 2313 4219 1838 4219  Q 1578 4219 1281 4162  Q 984 4106 628 3988  L 628 4550  Q 988 4650 1302 4700  Q 1616 4750 1894 4750  Q 2613 4750 3031 4423  Q 3450 4097 3450 3541  Q 3450 3153 3228 2886  Q 3006 2619 2597 2516  z "
                   transform="scale(0.015625)" />
              </defs>
              <use
                 xlink:href="#DejaVuSans-31"
                 id="use90" />
              <use
                 xlink:href="#DejaVuSans-2e"
                 x="63.623047"
                 id="use92" />
              <use
                 xlink:href="#DejaVuSans-32"
                 x="95.410156"
                 id="use94" />
              <use
                 xlink:href="#DejaVuSans-33"
                 x="159.033203"
                 id="use96" />
            </g>
          </g>
        </g>
        <g
           id="text_5">
          <!-- R -->
          <g
             transform="translate(218.144995 272.624687) scale(0.22 -0.22)"
             id="g107">
            <defs
               id="defs103">
              <path
                 id="DejaVuSans-52"
                 d="M 2841 2188  Q 3044 2119 3236 1894  Q 3428 1669 3622 1275  L 4263 0  L 3584 0  L 2988 1197  Q 2756 1666 2539 1819  Q 2322 1972 1947 1972  L 1259 1972  L 1259 0  L 628 0  L 628 4666  L 2053 4666  Q 2853 4666 3247 4331  Q 3641 3997 3641 3322  Q 3641 2881 3436 2590  Q 3231 2300 2841 2188  z M 1259 4147  L 1259 2491  L 2053 2491  Q 2509 2491 2742 2702  Q 2975 2913 2975 3322  Q 2975 3731 2742 3939  Q 2509 4147 2053 4147  L 1259 4147  z "
                 transform="scale(0.015625)" />
            </defs>
            <use
               xlink:href="#DejaVuSans-52"
               id="use105" />
          </g>
        </g>
      </g>
      <g
         id="matplotlib.axis_2">
        <g
           id="ytick_1">
          <g
             id="line2d_5">
            <defs
               id="defs112">
              <path
                 id="mfca8ea6d21"
                 d="M 0 0  L -3.5 0  "
                 style="stroke: #000000; stroke-width: 0.8" />
            </defs>
            <g
               id="g116">
              <use
                 xlink:href="#mfca8ea6d21"
                 x="127.54734"
                 y="227.4875"
                 style="stroke: #000000; stroke-width: 0.8"
                 id="use114" />
            </g>
          </g>
          <g
             id="text_6">
            <!-- -0.26 -->
            <g
               transform="translate(73.975152 234.326094) scale(0.18 -0.18)"
               id="g132">
              <defs
                 id="defs120">
                <path
                   id="DejaVuSans-2d"
                   d="M 313 2009  L 1997 2009  L 1997 1497  L 313 1497  L 313 2009  z "
                   transform="scale(0.015625)" />
              </defs>
              <use
                 xlink:href="#DejaVuSans-2d"
                 id="use122" />
              <use
                 xlink:href="#DejaVuSans-30"
                 x="36.083984"
                 id="use124" />
              <use
                 xlink:href="#DejaVuSans-2e"
                 x="99.707031"
                 id="use126" />
              <use
                 xlink:href="#DejaVuSans-32"
                 x="131.494141"
                 id="use128" />
              <use
                 xlink:href="#DejaVuSans-36"
                 x="195.117188"
                 id="use130" />
            </g>
          </g>
        </g>
        <g
           id="ytick_2">
          <g
             id="line2d_6">
            <g
               id="g138">
              <use
                 xlink:href="#mfca8ea6d21"
                 x="127.54734"
                 y="177.109625"
                 style="stroke: #000000; stroke-width: 0.8"
                 id="use136" />
            </g>
          </g>
          <g
             id="text_7">
            <!-- -0.13 -->
            <g
               transform="translate(73.975152 183.948219) scale(0.18 -0.18)"
               id="g151">
              <use
                 xlink:href="#DejaVuSans-2d"
                 id="use141" />
              <use
                 xlink:href="#DejaVuSans-30"
                 x="36.083984"
                 id="use143" />
              <use
                 xlink:href="#DejaVuSans-2e"
                 x="99.707031"
                 id="use145" />
              <use
                 xlink:href="#DejaVuSans-31"
                 x="131.494141"
                 id="use147" />
              <use
                 xlink:href="#DejaVuSans-33"
                 x="195.117188"
                 id="use149" />
            </g>
          </g>
        </g>
        <g
           id="ytick_3">
          <g
             id="line2d_7">
            <g
               id="g157">
              <use
                 xlink:href="#mfca8ea6d21"
                 x="127.54734"
                 y="126.73175"
                 style="stroke: #000000; stroke-width: 0.8"
                 id="use155" />
            </g>
          </g>
          <g
             id="text_8">
            <!-- 0.00 -->
            <g
               transform="translate(80.469215 133.570344) scale(0.18 -0.18)"
               id="g168">
              <use
                 xlink:href="#DejaVuSans-30"
                 id="use160" />
              <use
                 xlink:href="#DejaVuSans-2e"
                 x="63.623047"
                 id="use162" />
              <use
                 xlink:href="#DejaVuSans-30"
                 x="95.410156"
                 id="use164" />
              <use
                 xlink:href="#DejaVuSans-30"
                 x="159.033203"
                 id="use166" />
            </g>
          </g>
        </g>
        <g
           id="ytick_4">
          <g
             id="line2d_8">
            <g
               id="g174">
              <use
                 xlink:href="#mfca8ea6d21"
                 x="127.54734"
                 y="76.353875"
                 style="stroke: #000000; stroke-width: 0.8"
                 id="use172" />
            </g>
          </g>
          <g
             id="text_9">
            <!-- 0.13 -->
            <g
               transform="translate(80.469215 83.192469) scale(0.18 -0.18)"
               id="g185">
              <use
                 xlink:href="#DejaVuSans-30"
                 id="use177" />
              <use
                 xlink:href="#DejaVuSans-2e"
                 x="63.623047"
                 id="use179" />
              <use
                 xlink:href="#DejaVuSans-31"
                 x="95.410156"
                 id="use181" />
              <use
                 xlink:href="#DejaVuSans-33"
                 x="159.033203"
                 id="use183" />
            </g>
          </g>
        </g>
        <g
           id="ytick_5">
          <g
             id="line2d_9">
            <g
               id="g191">
              <use
                 xlink:href="#mfca8ea6d21"
                 x="127.54734"
                 y="25.976"
                 style="stroke: #000000; stroke-width: 0.8"
                 id="use189" />
            </g>
          </g>
          <g
             id="text_10">
            <!-- 0.26 -->
            <g
               transform="translate(80.469215 32.814594) scale(0.18 -0.18)"
               id="g202">
              <use
                 xlink:href="#DejaVuSans-30"
                 id="use194" />
              <use
                 xlink:href="#DejaVuSans-2e"
                 x="63.623047"
                 id="use196" />
              <use
                 xlink:href="#DejaVuSans-32"
                 x="95.410156"
                 id="use198" />
              <use
                 xlink:href="#DejaVuSans-36"
                 x="159.033203"
                 id="use200" />
            </g>
          </g>
        </g>
        <g
           id="text_11">
          <!-- Z -->
          <g
             transform="translate(65.39984 134.26675) rotate(-90) scale(0.22 -0.22)"
             id="g211">
            <defs
               id="defs207">
              <path
                 id="DejaVuSans-5a"
                 d="M 359 4666  L 4025 4666  L 4025 4184  L 1075 531  L 4097 531  L 4097 0  L 288 0  L 288 481  L 3238 4134  L 359 4134  L 359 4666  z "
                 transform="scale(0.015625)" />
            </defs>
            <use
               xlink:href="#DejaVuSans-5a"
               id="use209" />
          </g>
        </g>
      </g>
      <g
         id="line2d_10">
        <path
           d="M 261.645133 126.73175  L 261.308262 129.980437  L 260.365426 133.145246  L 258.992072 136.169729  L 257.401805 139.037957  L 255.769586 141.767877  L 254.182938 144.391255  L 252.638723 146.933314  L 251.077998 149.402955  L 249.433762 151.795844  L 247.665159 154.104135  L 245.76498 156.323878  L 243.74525 158.455213  L 241.6169 160.497124  L 239.378617 162.442569  L 237.020009 164.278594  L 234.533169 165.991265  L 231.922105 167.571143  L 229.203019 169.014729  L 226.396346 170.320732  L 223.517466 171.484106  L 220.573244 172.492531  L 217.566495 173.328069  L 214.504417 173.972937  L 211.404368 174.41551  L 208.29264 174.652663  L 205.197108 174.687222  L 202.138826 174.522536  L 199.127968 174.157943  L 196.166082 173.588084  L 193.252218 172.806425  L 190.38829 171.810656  L 187.580478 170.606487  L 184.837066 169.207379  L 182.165963 167.630247  L 179.575009 165.889594  L 177.075311 163.993415  L 174.684662 161.94308  L 172.427326 159.736986  L 170.328861 157.375592  L 168.40848 154.86499  L 166.67375 152.217472  L 165.121241 149.449672  L 163.742897 146.580181  L 162.534136 143.6282  L 161.498767 140.613315  L 160.648296 137.555167  L 159.997086 134.4719  L 159.557153 131.377614  L 159.335717 128.280444  L 159.335717 125.183056  L 159.557153 122.085886  L 159.997086 118.9916  L 160.648296 115.908333  L 161.498767 112.850185  L 162.534136 109.8353  L 163.742897 106.883319  L 165.121241 104.013828  L 166.67375 101.246028  L 168.40848 98.59851  L 170.328861 96.087908  L 172.427326 93.726514  L 174.684662 91.52042  L 177.075311 89.470085  L 179.575009 87.573906  L 182.165963 85.833253  L 184.837066 84.256121  L 187.580478 82.857013  L 190.38829 81.652844  L 193.252218 80.657075  L 196.166082 79.875416  L 199.127968 79.305557  L 202.138826 78.940964  L 205.197108 78.776278  L 208.29264 78.810837  L 211.404368 79.04799  L 214.504417 79.490563  L 217.566495 80.135431  L 220.573244 80.970969  L 223.517466 81.979394  L 226.396346 83.142768  L 229.203019 84.448771  L 231.922105 85.892357  L 234.533169 87.472235  L 237.020009 89.184906  L 239.378617 91.020931  L 241.6169 92.966376  L 243.74525 95.008287  L 245.76498 97.139622  L 247.665159 99.359365  L 249.433762 101.667656  L 251.077998 104.060545  L 252.638723 106.530186  L 254.182938 109.072245  L 255.769586 111.695623  L 257.401805 114.425543  L 258.992072 117.293771  L 260.365426 120.318254  L 261.308262 123.483063  L 261.645133 126.73175  "
           clip-path="url(#pf36bf8ea9c)"
           style="fill:none;stroke:#ff0000;stroke-width:2.00025005;stroke-linecap:round;stroke-miterlimit:4;stroke-dasharray:8.00100017,4.00050008;stroke-dashoffset:0"
           id="path215" />
      </g>
      <g
         id="line2d_11">
        <path
           d="M 254.718717 125.853289  L 254.644808 128.730227  L 254.386567 131.56587  L 253.951923 134.358491  L 253.342124 137.11392  L 252.554025 139.837052  L 251.586706 142.524452  L 250.446828 145.163198  L 249.148031 147.736284  L 247.704438 150.23008  L 246.123242 152.638199  L 244.40235 154.959257  L 242.535281 157.190815  L 240.519788 159.324475  L 238.363684 161.345734  L 236.083356 163.238247  L 233.696068 164.98882  L 231.211841 166.589382  L 228.630996 168.035016  L 225.949153 169.320363  L 223.165941 170.437643  L 220.291086 171.377722  L 217.343661 172.132897  L 214.345233 172.69883  L 211.311917 173.074177  L 208.250757 173.258686  L 205.162696 173.25169  L 202.04984 173.052088  L 198.922152 172.659087  L 195.799406 172.072106  L 192.707646 171.289298  L 189.672893 170.306108  L 186.716373 169.116123  L 183.854048 167.714985  L 181.100039 166.105376  L 178.470638 164.299407  L 175.98518 162.315946  L 173.662387 160.173999  L 171.514419 157.886412  L 169.54309 155.458434  L 167.741705 152.892404  L 166.102053 150.195437  L 164.622104 147.384606  L 163.308973 144.485718  L 162.174982 141.526195  L 161.229903 138.526673  L 160.475734 135.496858  L 159.908596 132.438229  L 159.52666 129.351541  L 159.337664 126.243897  L 159.359154 123.130601  L 159.609869 120.030652  L 160.097806 116.959231  L 160.813703 113.922787  L 161.735011 110.920758  L 162.837564 107.953533  L 164.106235 105.03162  L 165.536917 102.179388  L 167.12932 99.429663  L 168.877711 96.811357  L 170.768151 94.337544  L 172.784949 92.002021  L 174.920486 89.787224  L 177.178925 87.678283  L 179.568915 85.672595  L 182.090032 83.776333  L 184.724302 81.988632  L 187.441802 80.285223  L 190.218928 78.61772  L 193.057192 76.937665  L 195.987758 75.238424  L 199.055132 73.592749  L 202.287179 72.160163  L 205.668458 71.150906  L 209.132863 70.756333  L 212.580547 71.076061  L 215.910322 72.077013  L 219.050888 73.604936  L 221.976479 75.442723  L 224.702288 77.386944  L 227.265716 79.307133  L 229.704984 81.164578  L 232.045104 82.990401  L 234.29496 84.842619  L 236.452792 86.768226  L 238.514048 88.787371  L 240.476317 90.900232  L 242.339434 93.103951  L 244.102415 95.40435  L 245.760602 97.814644  L 247.305559 100.344418  L 248.727741 102.988867  L 250.019539 105.726906  L 251.17589 108.529378  L 252.191581 111.371101  L 253.057291 114.238235  L 253.758002 117.126524  L 254.276074 120.032925  L 254.597734 122.947721  L 254.718717 125.853289  "
           clip-path="url(#pf36bf8ea9c)"
           style="fill:none;stroke:#008000;stroke-width:2.00000006;stroke-linecap:round;stroke-miterlimit:4;stroke-dasharray:8.00000023,4.00000012;stroke-dashoffset:0"
           id="path218" />
      </g>
      <g
         id="line2d_12">
        <path
           d="M 253.050356 126.73175  L 252.967391 129.490195  L 252.718101 132.247185  L 252.301691 134.994809  L 251.717774 137.717304  L 250.966838 140.396057  L 250.04996 143.017512  L 248.968122 145.578066  L 247.722021 148.08191  L 246.313012 150.532823  L 244.744837 152.925567  L 243.024945 155.243233  L 241.164136 157.462848  L 239.174305 159.565433  L 237.065407 161.543157  L 234.843466 163.398133  L 232.51081 165.133636  L 230.068171 166.744503  L 227.517006 168.21436  L 224.860385 169.522234  L 222.102224 170.653676  L 219.246301 171.607696  L 216.297031 172.393744  L 213.262579 173.020699  L 210.158625 173.48628  L 207.009648 173.775202  L 203.845551 173.867743  L 200.694554 173.75224  L 197.576389 173.431943  L 194.50045 172.921148  L 191.470659 172.234048  L 188.494041 171.375481  L 185.586792 170.341038  L 182.772734 169.126271  L 180.074316 167.737198  L 177.502197 166.193009  L 175.051483 164.517957  L 172.708482 162.728007  L 170.463891 160.822091  L 168.322121 158.78444  L 166.297577 156.59598  L 164.397585 154.245825  L 162.603141 151.733769  L 160.864299 149.061661  L 159.121239 146.220457  L 157.346533 143.184126  L 155.587783 139.918116  L 153.983799 136.400886  L 152.737561 132.64793  L 152.051346 128.7246  L 152.051346 124.7389  L 152.737561 120.81557  L 153.983799 117.062614  L 155.587783 113.545384  L 157.346533 110.279374  L 159.121239 107.243043  L 160.864299 104.401839  L 162.603141 101.729731  L 164.397585 99.217675  L 166.297577 96.86752  L 168.322121 94.67906  L 170.463891 92.641409  L 172.708482 90.735493  L 175.051483 88.945543  L 177.502197 87.270491  L 180.074316 85.726302  L 182.772734 84.337229  L 185.586792 83.122462  L 188.494041 82.088019  L 191.470659 81.229452  L 194.50045 80.542352  L 197.576389 80.031557  L 200.694554 79.71126  L 203.845551 79.595757  L 207.009648 79.688298  L 210.158625 79.97722  L 213.262579 80.442801  L 216.297031 81.069756  L 219.246301 81.855804  L 222.102224 82.809824  L 224.860385 83.941266  L 227.517006 85.24914  L 230.068171 86.718997  L 232.51081 88.329864  L 234.843466 90.065367  L 237.065407 91.920343  L 239.174305 93.898067  L 241.164136 96.000652  L 243.024945 98.220267  L 244.744837 100.537933  L 246.313012 102.930677  L 247.722021 105.38159  L 248.968122 107.885434  L 250.04996 110.445988  L 250.966838 113.067443  L 251.717774 115.746196  L 252.301691 118.468691  L 252.718101 121.216315  L 252.967391 123.973305  L 253.050356 126.73175  "
           clip-path="url(#pf36bf8ea9c)"
           style="fill:none;stroke:#0000ff;stroke-width:2.00000006;stroke-linecap:round;stroke-miterlimit:4;stroke-dasharray:12.00000036,4.00000012;stroke-dashoffset:0"
           id="path221" />
      </g>
      <g
         id="line2d_13">
        <path
           d="M 254.718717 127.610211  L 254.597734 130.515779  L 254.276074 133.430575  L 253.758002 136.336976  L 253.057291 139.225265  L 252.191581 142.092399  L 251.17589 144.934122  L 250.019539 147.736594  L 248.727741 150.474633  L 247.305559 153.119082  L 245.760602 155.648856  L 244.102415 158.05915  L 242.339434 160.359549  L 240.476317 162.563268  L 238.514048 164.676129  L 236.452792 166.695274  L 234.29496 168.620881  L 232.045104 170.473099  L 229.704984 172.298922  L 227.265716 174.156367  L 224.702288 176.076556  L 221.976479 178.020777  L 219.050888 179.858564  L 215.910322 181.386487  L 212.580547 182.387439  L 209.132863 182.707167  L 205.668458 182.312594  L 202.287179 181.303337  L 199.055132 179.870751  L 195.987758 178.225076  L 193.057192 176.525835  L 190.218928 174.84578  L 187.441802 173.178277  L 184.724302 171.474868  L 182.090032 169.687167  L 179.568915 167.790905  L 177.178925 165.785217  L 174.920486 163.676276  L 172.784949 161.461479  L 170.768151 159.125956  L 168.877711 156.652143  L 167.12932 154.033837  L 165.536917 151.284112  L 164.106235 148.43188  L 162.837564 145.509967  L 161.735011 142.542742  L 160.813703 139.540713  L 160.097806 136.504269  L 159.609869 133.432848  L 159.359154 130.332899  L 159.337664 127.219603  L 159.52666 124.111959  L 159.908596 121.025271  L 160.475734 117.966642  L 161.229903 114.936827  L 162.174982 111.937305  L 163.308973 108.977782  L 164.622104 106.078894  L 166.102053 103.268063  L 167.741705 100.571096  L 169.54309 98.005066  L 171.514419 95.577088  L 173.662387 93.289501  L 175.98518 91.147554  L 178.470638 89.164093  L 181.100039 87.358124  L 183.854048 85.748515  L 186.716373 84.347377  L 189.672893 83.157392  L 192.707646 82.174202  L 195.799406 81.391394  L 198.922152 80.804413  L 202.04984 80.411412  L 205.162696 80.21181  L 208.250757 80.204814  L 211.311917 80.389323  L 214.345233 80.76467  L 217.343661 81.330603  L 220.291086 82.085778  L 223.165941 83.025857  L 225.949153 84.143137  L 228.630996 85.428484  L 231.211841 86.874118  L 233.696068 88.47468  L 236.083356 90.225253  L 238.363684 92.117766  L 240.519788 94.139025  L 242.535281 96.272685  L 244.40235 98.504243  L 246.123242 100.825301  L 247.704438 103.23342  L 249.148031 105.727216  L 250.446828 108.300302  L 251.586706 110.939048  L 252.554025 113.626448  L 253.342124 116.34958  L 253.951923 119.105009  L 254.386567 121.89763  L 254.644808 124.733273  L 254.718717 127.610211  "
           clip-path="url(#pf36bf8ea9c)"
           style="fill:none;stroke:#000000;stroke-width:2.00000006;stroke-linecap:round;stroke-miterlimit:4;stroke-dasharray:8.00000023,4.00000012;stroke-dashoffset:0"
           id="path224" />
      </g>
      <g
         id="line2d_14">
        <defs
           id="defs228">
          <path
             id="m20badc4558"
             d="M -4 4  L 4 -4  M -4 -4  L 4 4  "
             style="stroke: #000000" />
        </defs>
        <g
           clip-path="url(#pf36bf8ea9c)"
           id="g238">
          <circle
             style="opacity:1;fill:#ffffff;fill-opacity:0;stroke:#ff150d;stroke-width:1.26450002;stroke-linecap:butt;stroke-linejoin:round;stroke-miterlimit:4;stroke-dasharray:none;stroke-dashoffset:0;stroke-opacity:1"
             id="path2280-3"
             cx="272.56781"
             cy="126.71186"
             r="5.625" />
          <ellipse
             style="opacity:1;fill:#ff0000;fill-opacity:1;stroke:#ff0000;stroke-width:7.45908356;stroke-linecap:butt;stroke-linejoin:round;stroke-miterlimit:4;stroke-dasharray:none;stroke-dashoffset:0;stroke-opacity:0.00702574"
             id="path1988-3"
             cx="272.58551"
             cy="126.92275"
             rx="1.626013"
             ry="1.6695868" />
          <circle
             style="opacity:1;fill:#ffffff;fill-opacity:0;stroke:#000000;stroke-width:1.26450002;stroke-linecap:butt;stroke-linejoin:round;stroke-miterlimit:4;stroke-dasharray:none;stroke-dashoffset:0;stroke-opacity:1"
             id="path2280-3-3-6-7"
             cx="211.82532"
             cy="193.91107"
             r="5.625" />
          <ellipse
             style="opacity:1;fill:#0e0e0e;fill-opacity:1;stroke:#24df15;stroke-width:7.45908308;stroke-linecap:butt;stroke-linejoin:round;stroke-miterlimit:4;stroke-dasharray:none;stroke-dashoffset:0;stroke-opacity:0.00702574"
             id="path1988-3-5-6-2"
             cx="211.99889"
             cy="194.07675"
             rx="1.626013"
             ry="1.6695868" />
          <circle
             style="opacity:1;fill:#ffffff;fill-opacity:0;stroke:#11822a;stroke-width:1.26450002;stroke-linecap:butt;stroke-linejoin:round;stroke-miterlimit:4;stroke-dasharray:none;stroke-dashoffset:0;stroke-opacity:1"
             id="path2280-3-3"
             cx="212.59055"
             cy="60.387524"
             r="5.625" />
          <ellipse
             style="opacity:1;fill:#006e00;fill-opacity:1;stroke:#24df15;stroke-width:7.45908308;stroke-linecap:butt;stroke-linejoin:round;stroke-miterlimit:4;stroke-dasharray:none;stroke-dashoffset:0;stroke-opacity:0.00702574"
             id="path1988-3-5"
             cx="212.74792"
             cy="60.428711"
             rx="1.626013"
             ry="1.6695868" />
        </g>
      </g>
      <g
         id="patch_3">
        <path
           d="M 127.54734 227.4875  L 127.54734 25.976  "
           style="fill: none; stroke: #000000; stroke-width: 0.8; stroke-linejoin: miter; stroke-linecap: square"
           id="path241" />
      </g>
      <g
         id="patch_4">
        <path
           d="M 127.54734 227.4875  L 324.029214 227.4875  "
           style="fill: none; stroke: #000000; stroke-width: 0.8; stroke-linejoin: miter; stroke-linecap: square"
           id="path244" />
      </g>
      <g
         id="legend_1">
        <g
           id="patch_5">
          <path
             d="M 243.082839 99.34485  L 326.382839 99.34485  Q 329.182839 99.34485 329.182839 96.54485  L 329.182839 15.62485  Q 329.182839 12.82485 326.382839 12.82485  L 243.082839 12.82485  Q 240.282839 12.82485 240.282839 15.62485  L 240.282839 96.54485  Q 240.282839 99.34485 243.082839 99.34485  z "
             style="fill: #ffffff; opacity: 0.3; stroke: #cccccc; stroke-linejoin: miter"
             id="path247" />
        </g>
        <g
           id="line2d_15">
          <path
             d="M 245.882839 24.16485  L 251.482839 24.16485  L 257.082839 24.16485  "
             style="fill: none; stroke: #ff0000; stroke-width: 2; stroke-linecap: round"
             id="path250" />
        </g>
        <g
           id="text_12">
          <!-- $\zeta = 0$ -->
          <g
             transform="translate(268.282839 29.06485) scale(0.14 -0.14)"
             id="g263">
            <defs
               id="defs255">
              <path
                 id="DejaVuSans-Oblique-3b6"
                 d="M 1966 397  Q 2378 394 2578 159  Q 2794 -88 2722 -463  Q 2650 -822 2372 -1072  Q 2069 -1344 1559 -1344  Q 1606 -1109 1650 -872  Q 1863 -888 2022 -750  Q 2144 -641 2166 -525  Q 2197 -359 2125 -222  Q 2050 -91 1872 -91  Q -22 -91 316 1669  Q 616 3206 2609 4284  L 947 4284  L 1059 4863  L 3778 4863  L 3666 4284  Q 1181 3147 894 1669  Q 647 397 1966 397  z "
                 transform="scale(0.015625)" />
              <path
                 id="DejaVuSans-3d"
                 d="M 678 2906  L 4684 2906  L 4684 2381  L 678 2381  L 678 2906  z M 678 1631  L 4684 1631  L 4684 1100  L 678 1100  L 678 1631  z "
                 transform="scale(0.015625)" />
            </defs>
            <use
               xlink:href="#DejaVuSans-Oblique-3b6"
               transform="translate(0 0.015625)"
               id="use257" />
            <use
               xlink:href="#DejaVuSans-3d"
               transform="translate(73.876953 0.015625)"
               id="use259" />
            <use
               xlink:href="#DejaVuSans-30"
               transform="translate(177.148438 0.015625)"
               id="use261" />
          </g>
        </g>
        <g
           id="line2d_16">
          <path
             d="M 245.882839 44.74485  L 251.482839 44.74485  L 257.082839 44.74485  "
             style="fill: none; stroke: #008000; stroke-width: 2; stroke-linecap: round"
             id="path266" />
        </g>
        <g
           id="text_13">
          <!-- $\zeta = \pi/2$ -->
          <g
             transform="translate(268.282839 49.64485) scale(0.14 -0.14)"
             id="g283">
            <defs
               id="defs271">
              <path
                 id="DejaVuSans-Oblique-3c0"
                 d="M 584 3500  L 3938 3500  L 3825 2925  L 3384 2925  L 2966 775  Q 2922 550 2981 450  Q 3038 353 3209 353  Q 3256 353 3325 363  Q 3397 369 3419 372  L 3338 -44  Q 3222 -84 3103 -103  Q 2981 -122 2866 -122  Q 2491 -122 2388 81  Q 2284 288 2391 838  L 2797 2925  L 1506 2925  L 938 0  L 350 0  L 919 2925  L 472 2925  L 584 3500  z "
                 transform="scale(0.015625)" />
              <path
                 id="DejaVuSans-2f"
                 d="M 1625 4666  L 2156 4666  L 531 -594  L 0 -594  L 1625 4666  z "
                 transform="scale(0.015625)" />
            </defs>
            <use
               xlink:href="#DejaVuSans-Oblique-3b6"
               transform="translate(0 0.015625)"
               id="use273" />
            <use
               xlink:href="#DejaVuSans-3d"
               transform="translate(73.876953 0.015625)"
               id="use275" />
            <use
               xlink:href="#DejaVuSans-Oblique-3c0"
               transform="translate(177.148438 0.015625)"
               id="use277" />
            <use
               xlink:href="#DejaVuSans-2f"
               transform="translate(237.353516 0.015625)"
               id="use279" />
            <use
               xlink:href="#DejaVuSans-32"
               transform="translate(267.419922 0.015625)"
               id="use281" />
          </g>
        </g>
        <g
           id="line2d_17">
          <path
             d="M 245.882839 65.32485  L 251.482839 65.32485  L 257.082839 65.32485  "
             style="fill: none; stroke: #0000ff; stroke-width: 2; stroke-linecap: round"
             id="path286" />
        </g>
        <g
           id="text_14">
          <!-- $\zeta = \pi$ -->
          <g
             transform="translate(268.282839 70.22485) scale(0.14 -0.14)"
             id="g295">
            <use
               xlink:href="#DejaVuSans-Oblique-3b6"
               transform="translate(0 0.015625)"
               id="use289" />
            <use
               xlink:href="#DejaVuSans-3d"
               transform="translate(73.876953 0.015625)"
               id="use291" />
            <use
               xlink:href="#DejaVuSans-Oblique-3c0"
               transform="translate(177.148438 0.015625)"
               id="use293" />
          </g>
        </g>
        <g
           id="line2d_18">
          <path
             d="M 245.882839 85.90485  L 251.482839 85.90485  L 257.082839 85.90485  "
             style="fill: none; stroke: #000000; stroke-width: 2; stroke-linecap: round"
             id="path298" />
        </g>
        <g
           id="text_15">
          <!-- $\zeta = 3 \pi/2$ -->
          <g
             transform="translate(268.282839 90.80485) scale(0.14 -0.14)"
             id="g313">
            <use
               xlink:href="#DejaVuSans-Oblique-3b6"
               transform="translate(0 0.015625)"
               id="use301" />
            <use
               xlink:href="#DejaVuSans-3d"
               transform="translate(73.876953 0.015625)"
               id="use303" />
            <use
               xlink:href="#DejaVuSans-33"
               transform="translate(177.148438 0.015625)"
               id="use305" />
            <use
               xlink:href="#DejaVuSans-Oblique-3c0"
               transform="translate(240.771484 0.015625)"
               id="use307" />
            <use
               xlink:href="#DejaVuSans-2f"
               transform="translate(300.976562 0.015625)"
               id="use309" />
            <use
               xlink:href="#DejaVuSans-32"
               transform="translate(331.042969 0.015625)"
               id="use311" />
          </g>
        </g>
      </g>
    </g>
  </g>
  <defs
     id="defs322">
    <clipPath
       id="pf36bf8ea9c">
      <rect
         x="127.54734"
         y="25.976"
         width="196.481874"
         height="201.5115"
         id="rect319" />
    </clipPath>
  </defs>
  <circle
     style="opacity:1;fill:#ffffff;fill-opacity:0;stroke:#0013bf;stroke-width:1.26450002;stroke-linecap:butt;stroke-linejoin:round;stroke-miterlimit:4;stroke-dasharray:none;stroke-dashoffset:0;stroke-opacity:1"
     id="path2280-3-3-6"
     cx="138.9846"
     cy="126.68921"
     r="5.625" />
  <ellipse
     style="opacity:1;fill:#0823d7;fill-opacity:1;stroke:#24df15;stroke-width:7.45908308;stroke-linecap:butt;stroke-linejoin:round;stroke-miterlimit:4;stroke-dasharray:none;stroke-dashoffset:0;stroke-opacity:0.00702574"
     id="path1988-3-5-6"
     cx="139.01915"
     cy="126.69192"
     rx="1.626013"
     ry="1.6695868" />
</svg>
