<?xml version="1.0" encoding="UTF-8" standalone="no"?>
<svg
   xmlns:dc="http://purl.org/dc/elements/1.1/"
   xmlns:cc="http://creativecommons.org/ns#"
   xmlns:rdf="http://www.w3.org/1999/02/22-rdf-syntax-ns#"
   xmlns:svg="http://www.w3.org/2000/svg"
   xmlns="http://www.w3.org/2000/svg"
   xmlns:xlink="http://www.w3.org/1999/xlink"
   xmlns:sodipodi="http://sodipodi.sourceforge.net/DTD/sodipodi-0.dtd"
   xmlns:inkscape="http://www.inkscape.org/namespaces/inkscape"
   width="432pt"
   height="288pt"
   viewBox="0 0 432 288"
   version="1.1"
   id="svg326"
   sodipodi:docname="Xsection_optimized_reverse2.svg"
   inkscape:version="0.92.5 (2060ec1f9f, 2020-04-08)">
  <sodipodi:namedview
     pagecolor="#ffffff"
     bordercolor="#666666"
     borderopacity="1"
     objecttolerance="10"
     gridtolerance="10"
     guidetolerance="10"
     inkscape:pageopacity="0"
     inkscape:pageshadow="2"
     inkscape:window-width="3420"
     inkscape:window-height="2079"
     id="namedview328"
     showgrid="false"
     inkscape:zoom="6.9532167"
     inkscape:cx="243.23024"
     inkscape:cy="178.96317"
     inkscape:window-x="0"
     inkscape:window-y="0"
     inkscape:window-maximized="0"
     inkscape:current-layer="svg326" />
  <metadata
     id="metadata2">
    <rdf:RDF>
      <cc:Work>
        <dc:type
           rdf:resource="http://purl.org/dc/dcmitype/StillImage" />
        <dc:date>2025-05-02T14:48:15.354380</dc:date>
        <dc:format>image/svg+xml</dc:format>
        <dc:creator>
          <cc:Agent>
            <dc:title>Matplotlib v3.9.2, https://matplotlib.org/</dc:title>
          </cc:Agent>
        </dc:creator>
        <dc:title></dc:title>
      </cc:Work>
    </rdf:RDF>
  </metadata>
  <defs
     id="defs6">
    <style
       type="text/css"
       id="style4">*{stroke-linejoin: round; stroke-linecap: butt}</style>
  </defs>
  <g
     id="figure_1">
    <g
       id="patch_1" />
    <g
       id="axes_1">
      <g
         id="matplotlib.axis_1">
        <g
           id="xtick_1">
          <g
             id="line2d_1">
            <defs
               id="defs15">
              <path
                 id="me1eda05fc4"
                 d="M 0 0  L 0 3.5  "
                 style="stroke: #000000; stroke-width: 0.8" />
            </defs>
            <g
               id="g19">
              <use
                 xlink:href="#me1eda05fc4"
                 x="127.922013"
                 y="227.4875"
                 style="stroke: #000000; stroke-width: 0.8"
                 id="use17" />
            </g>
          </g>
          <g
             id="text_1">
            <!-- 0.71 -->
            <g
               transform="translate(107.882951 248.164688) scale(0.18 -0.18)"
               id="g36">
              <defs
                 id="defs26">
                <path
                   id="DejaVuSans-30"
                   d="M 2034 4250  Q 1547 4250 1301 3770  Q 1056 3291 1056 2328  Q 1056 1369 1301 889  Q 1547 409 2034 409  Q 2525 409 2770 889  Q 3016 1369 3016 2328  Q 3016 3291 2770 3770  Q 2525 4250 2034 4250  z M 2034 4750  Q 2819 4750 3233 4129  Q 3647 3509 3647 2328  Q 3647 1150 3233 529  Q 2819 -91 2034 -91  Q 1250 -91 836 529  Q 422 1150 422 2328  Q 422 3509 836 4129  Q 1250 4750 2034 4750  z "
                   transform="scale(0.015625)" />
                <path
                   id="DejaVuSans-2e"
                   d="M 684 794  L 1344 794  L 1344 0  L 684 0  L 684 794  z "
                   transform="scale(0.015625)" />
                <path
                   id="DejaVuSans-37"
                   d="M 525 4666  L 3525 4666  L 3525 4397  L 1831 0  L 1172 0  L 2766 4134  L 525 4134  L 525 4666  z "
                   transform="scale(0.015625)" />
                <path
                   id="DejaVuSans-31"
                   d="M 794 531  L 1825 531  L 1825 4091  L 703 3866  L 703 4441  L 1819 4666  L 2450 4666  L 2450 531  L 3481 531  L 3481 0  L 794 0  L 794 531  z "
                   transform="scale(0.015625)" />
              </defs>
              <use
                 xlink:href="#DejaVuSans-30"
                 id="use28" />
              <use
                 xlink:href="#DejaVuSans-2e"
                 x="63.623047"
                 id="use30" />
              <use
                 xlink:href="#DejaVuSans-37"
                 x="95.410156"
                 id="use32" />
              <use
                 xlink:href="#DejaVuSans-31"
                 x="159.033203"
                 id="use34" />
            </g>
          </g>
        </g>
        <g
           id="xtick_2">
          <g
             id="line2d_2">
            <g
               id="g42">
              <use
                 xlink:href="#me1eda05fc4"
                 x="192.860601"
                 y="227.4875"
                 style="stroke: #000000; stroke-width: 0.8"
                 id="use40" />
            </g>
          </g>
          <g
             id="text_2">
            <!-- 0.88 -->
            <g
               transform="translate(172.821539 248.164688) scale(0.18 -0.18)"
               id="g56">
              <defs
                 id="defs46">
                <path
                   id="DejaVuSans-38"
                   d="M 2034 2216  Q 1584 2216 1326 1975  Q 1069 1734 1069 1313  Q 1069 891 1326 650  Q 1584 409 2034 409  Q 2484 409 2743 651  Q 3003 894 3003 1313  Q 3003 1734 2745 1975  Q 2488 2216 2034 2216  z M 1403 2484  Q 997 2584 770 2862  Q 544 3141 544 3541  Q 544 4100 942 4425  Q 1341 4750 2034 4750  Q 2731 4750 3128 4425  Q 3525 4100 3525 3541  Q 3525 3141 3298 2862  Q 3072 2584 2669 2484  Q 3125 2378 3379 2068  Q 3634 1759 3634 1313  Q 3634 634 3220 271  Q 2806 -91 2034 -91  Q 1263 -91 848 271  Q 434 634 434 1313  Q 434 1759 690 2068  Q 947 2378 1403 2484  z M 1172 3481  Q 1172 3119 1398 2916  Q 1625 2713 2034 2713  Q 2441 2713 2670 2916  Q 2900 3119 2900 3481  Q 2900 3844 2670 4047  Q 2441 4250 2034 4250  Q 1625 4250 1398 4047  Q 1172 3844 1172 3481  z "
                   transform="scale(0.015625)" />
              </defs>
              <use
                 xlink:href="#DejaVuSans-30"
                 id="use48" />
              <use
                 xlink:href="#DejaVuSans-2e"
                 x="63.623047"
                 id="use50" />
              <use
                 xlink:href="#DejaVuSans-38"
                 x="95.410156"
                 id="use52" />
              <use
                 xlink:href="#DejaVuSans-38"
                 x="159.033203"
                 id="use54" />
            </g>
          </g>
        </g>
        <g
           id="xtick_3">
          <g
             id="line2d_3">
            <g
               id="g62">
              <use
                 xlink:href="#me1eda05fc4"
                 x="257.799189"
                 y="227.4875"
                 style="stroke: #000000; stroke-width: 0.8"
                 id="use60" />
            </g>
          </g>
          <g
             id="text_3">
            <!-- 1.05 -->
            <g
               transform="translate(237.760126 248.164688) scale(0.18 -0.18)"
               id="g76">
              <defs
                 id="defs66">
                <path
                   id="DejaVuSans-35"
                   d="M 691 4666  L 3169 4666  L 3169 4134  L 1269 4134  L 1269 2991  Q 1406 3038 1543 3061  Q 1681 3084 1819 3084  Q 2600 3084 3056 2656  Q 3513 2228 3513 1497  Q 3513 744 3044 326  Q 2575 -91 1722 -91  Q 1428 -91 1123 -41  Q 819 9 494 109  L 494 744  Q 775 591 1075 516  Q 1375 441 1709 441  Q 2250 441 2565 725  Q 2881 1009 2881 1497  Q 2881 1984 2565 2268  Q 2250 2553 1709 2553  Q 1456 2553 1204 2497  Q 953 2441 691 2322  L 691 4666  z "
                   transform="scale(0.015625)" />
              </defs>
              <use
                 xlink:href="#DejaVuSans-31"
                 id="use68" />
              <use
                 xlink:href="#DejaVuSans-2e"
                 x="63.623047"
                 id="use70" />
              <use
                 xlink:href="#DejaVuSans-30"
                 x="95.410156"
                 id="use72" />
              <use
                 xlink:href="#DejaVuSans-35"
                 x="159.033203"
                 id="use74" />
            </g>
          </g>
        </g>
        <g
           id="xtick_4">
          <g
             id="line2d_4">
            <g
               id="g82">
              <use
                 xlink:href="#me1eda05fc4"
                 x="322.737777"
                 y="227.4875"
                 style="stroke: #000000; stroke-width: 0.8"
                 id="use80" />
            </g>
          </g>
          <g
             id="text_4">
            <!-- 1.22 -->
            <g
               transform="translate(302.698714 248.164688) scale(0.18 -0.18)"
               id="g96">
              <defs
                 id="defs86">
                <path
                   id="DejaVuSans-32"
                   d="M 1228 531  L 3431 531  L 3431 0  L 469 0  L 469 531  Q 828 903 1448 1529  Q 2069 2156 2228 2338  Q 2531 2678 2651 2914  Q 2772 3150 2772 3378  Q 2772 3750 2511 3984  Q 2250 4219 1831 4219  Q 1534 4219 1204 4116  Q 875 4013 500 3803  L 500 4441  Q 881 4594 1212 4672  Q 1544 4750 1819 4750  Q 2544 4750 2975 4387  Q 3406 4025 3406 3419  Q 3406 3131 3298 2873  Q 3191 2616 2906 2266  Q 2828 2175 2409 1742  Q 1991 1309 1228 531  z "
                   transform="scale(0.015625)" />
              </defs>
              <use
                 xlink:href="#DejaVuSans-31"
                 id="use88" />
              <use
                 xlink:href="#DejaVuSans-2e"
                 x="63.623047"
                 id="use90" />
              <use
                 xlink:href="#DejaVuSans-32"
                 x="95.410156"
                 id="use92" />
              <use
                 xlink:href="#DejaVuSans-32"
                 x="159.033203"
                 id="use94" />
            </g>
          </g>
        </g>
        <g
           id="text_5">
          <!-- R -->
          <g
             transform="translate(217.686614 272.624687) scale(0.22 -0.22)"
             id="g105">
            <defs
               id="defs101">
              <path
                 id="DejaVuSans-52"
                 d="M 2841 2188  Q 3044 2119 3236 1894  Q 3428 1669 3622 1275  L 4263 0  L 3584 0  L 2988 1197  Q 2756 1666 2539 1819  Q 2322 1972 1947 1972  L 1259 1972  L 1259 0  L 628 0  L 628 4666  L 2053 4666  Q 2853 4666 3247 4331  Q 3641 3997 3641 3322  Q 3641 2881 3436 2590  Q 3231 2300 2841 2188  z M 1259 4147  L 1259 2491  L 2053 2491  Q 2509 2491 2742 2702  Q 2975 2913 2975 3322  Q 2975 3731 2742 3939  Q 2509 4147 2053 4147  L 1259 4147  z "
                 transform="scale(0.015625)" />
            </defs>
            <use
               xlink:href="#DejaVuSans-52"
               id="use103" />
          </g>
        </g>
      </g>
      <g
         id="matplotlib.axis_2">
        <g
           id="ytick_1">
          <g
             id="line2d_5">
            <defs
               id="defs110">
              <path
                 id="m43c6310777"
                 d="M 0 0  L -3.5 0  "
                 style="stroke: #000000; stroke-width: 0.8" />
            </defs>
            <g
               id="g114">
              <use
                 xlink:href="#m43c6310777"
                 x="127.922013"
                 y="227.4875"
                 style="stroke: #000000; stroke-width: 0.8"
                 id="use112" />
            </g>
          </g>
          <g
             id="text_6">
            <!-- -0.26 -->
            <g
               transform="translate(74.349826 234.326094) scale(0.18 -0.18)"
               id="g131">
              <defs
                 id="defs119">
                <path
                   id="DejaVuSans-2d"
                   d="M 313 2009  L 1997 2009  L 1997 1497  L 313 1497  L 313 2009  z "
                   transform="scale(0.015625)" />
                <path
                   id="DejaVuSans-36"
                   d="M 2113 2584  Q 1688 2584 1439 2293  Q 1191 2003 1191 1497  Q 1191 994 1439 701  Q 1688 409 2113 409  Q 2538 409 2786 701  Q 3034 994 3034 1497  Q 3034 2003 2786 2293  Q 2538 2584 2113 2584  z M 3366 4563  L 3366 3988  Q 3128 4100 2886 4159  Q 2644 4219 2406 4219  Q 1781 4219 1451 3797  Q 1122 3375 1075 2522  Q 1259 2794 1537 2939  Q 1816 3084 2150 3084  Q 2853 3084 3261 2657  Q 3669 2231 3669 1497  Q 3669 778 3244 343  Q 2819 -91 2113 -91  Q 1303 -91 875 529  Q 447 1150 447 2328  Q 447 3434 972 4092  Q 1497 4750 2381 4750  Q 2619 4750 2861 4703  Q 3103 4656 3366 4563  z "
                   transform="scale(0.015625)" />
              </defs>
              <use
                 xlink:href="#DejaVuSans-2d"
                 id="use121" />
              <use
                 xlink:href="#DejaVuSans-30"
                 x="36.083984"
                 id="use123" />
              <use
                 xlink:href="#DejaVuSans-2e"
                 x="99.707031"
                 id="use125" />
              <use
                 xlink:href="#DejaVuSans-32"
                 x="131.494141"
                 id="use127" />
              <use
                 xlink:href="#DejaVuSans-36"
                 x="195.117188"
                 id="use129" />
            </g>
          </g>
        </g>
        <g
           id="ytick_2">
          <g
             id="line2d_6">
            <g
               id="g137">
              <use
                 xlink:href="#m43c6310777"
                 x="127.922013"
                 y="177.109625"
                 style="stroke: #000000; stroke-width: 0.8"
                 id="use135" />
            </g>
          </g>
          <g
             id="text_7">
            <!-- -0.13 -->
            <g
               transform="translate(74.349826 183.948219) scale(0.18 -0.18)"
               id="g153">
              <defs
                 id="defs141">
                <path
                   id="DejaVuSans-33"
                   d="M 2597 2516  Q 3050 2419 3304 2112  Q 3559 1806 3559 1356  Q 3559 666 3084 287  Q 2609 -91 1734 -91  Q 1441 -91 1130 -33  Q 819 25 488 141  L 488 750  Q 750 597 1062 519  Q 1375 441 1716 441  Q 2309 441 2620 675  Q 2931 909 2931 1356  Q 2931 1769 2642 2001  Q 2353 2234 1838 2234  L 1294 2234  L 1294 2753  L 1863 2753  Q 2328 2753 2575 2939  Q 2822 3125 2822 3475  Q 2822 3834 2567 4026  Q 2313 4219 1838 4219  Q 1578 4219 1281 4162  Q 984 4106 628 3988  L 628 4550  Q 988 4650 1302 4700  Q 1616 4750 1894 4750  Q 2613 4750 3031 4423  Q 3450 4097 3450 3541  Q 3450 3153 3228 2886  Q 3006 2619 2597 2516  z "
                   transform="scale(0.015625)" />
              </defs>
              <use
                 xlink:href="#DejaVuSans-2d"
                 id="use143" />
              <use
                 xlink:href="#DejaVuSans-30"
                 x="36.083984"
                 id="use145" />
              <use
                 xlink:href="#DejaVuSans-2e"
                 x="99.707031"
                 id="use147" />
              <use
                 xlink:href="#DejaVuSans-31"
                 x="131.494141"
                 id="use149" />
              <use
                 xlink:href="#DejaVuSans-33"
                 x="195.117188"
                 id="use151" />
            </g>
          </g>
        </g>
        <g
           id="ytick_3">
          <g
             id="line2d_7">
            <g
               id="g159">
              <use
                 xlink:href="#m43c6310777"
                 x="127.922013"
                 y="126.73175"
                 style="stroke: #000000; stroke-width: 0.8"
                 id="use157" />
            </g>
          </g>
          <g
             id="text_8">
            <!-- 0.00 -->
            <g
               transform="translate(80.843888 133.570344) scale(0.18 -0.18)"
               id="g170">
              <use
                 xlink:href="#DejaVuSans-30"
                 id="use162" />
              <use
                 xlink:href="#DejaVuSans-2e"
                 x="63.623047"
                 id="use164" />
              <use
                 xlink:href="#DejaVuSans-30"
                 x="95.410156"
                 id="use166" />
              <use
                 xlink:href="#DejaVuSans-30"
                 x="159.033203"
                 id="use168" />
            </g>
          </g>
        </g>
        <g
           id="ytick_4">
          <g
             id="line2d_8">
            <g
               id="g176">
              <use
                 xlink:href="#m43c6310777"
                 x="127.922013"
                 y="76.353875"
                 style="stroke: #000000; stroke-width: 0.8"
                 id="use174" />
            </g>
          </g>
          <g
             id="text_9">
            <!-- 0.13 -->
            <g
               transform="translate(80.843888 83.192469) scale(0.18 -0.18)"
               id="g187">
              <use
                 xlink:href="#DejaVuSans-30"
                 id="use179" />
              <use
                 xlink:href="#DejaVuSans-2e"
                 x="63.623047"
                 id="use181" />
              <use
                 xlink:href="#DejaVuSans-31"
                 x="95.410156"
                 id="use183" />
              <use
                 xlink:href="#DejaVuSans-33"
                 x="159.033203"
                 id="use185" />
            </g>
          </g>
        </g>
        <g
           id="ytick_5">
          <g
             id="line2d_9">
            <g
               id="g193">
              <use
                 xlink:href="#m43c6310777"
                 x="127.922013"
                 y="25.976"
                 style="stroke: #000000; stroke-width: 0.8"
                 id="use191" />
            </g>
          </g>
          <g
             id="text_10">
            <!-- 0.26 -->
            <g
               transform="translate(80.843888 32.814594) scale(0.18 -0.18)"
               id="g204">
              <use
                 xlink:href="#DejaVuSans-30"
                 id="use196" />
              <use
                 xlink:href="#DejaVuSans-2e"
                 x="63.623047"
                 id="use198" />
              <use
                 xlink:href="#DejaVuSans-32"
                 x="95.410156"
                 id="use200" />
              <use
                 xlink:href="#DejaVuSans-36"
                 x="159.033203"
                 id="use202" />
            </g>
          </g>
        </g>
        <g
           id="text_11">
          <!-- Z -->
          <g
             transform="translate(65.774513 134.26675) rotate(-90) scale(0.22 -0.22)"
             id="g213">
            <defs
               id="defs209">
              <path
                 id="DejaVuSans-5a"
                 d="M 359 4666  L 4025 4666  L 4025 4184  L 1075 531  L 4097 531  L 4097 0  L 288 0  L 288 481  L 3238 4134  L 359 4134  L 359 4666  z "
                 transform="scale(0.015625)" />
            </defs>
            <use
               xlink:href="#DejaVuSans-5a"
               id="use211" />
          </g>
        </g>
      </g>
      <g
         id="line2d_10">
        <path
           d="M 261.670043 126.73175  L 261.556547 128.630203  L 261.242841 130.412895  L 260.779284 132.08934  L 260.17589 133.829385  L 259.361852 135.879792  L 258.210918 138.415555  L 256.623806 141.424405  L 254.61026 144.701479  L 252.305955 147.957926  L 249.902202 150.972532  L 247.530206 153.689359  L 245.179887 156.20334  L 242.715381 158.651685  L 239.984537 161.089739  L 236.951924 163.435648  L 233.762592 165.517295  L 230.685421 167.18447  L 227.964478 168.407389  L 225.670859 169.296069  L 223.651787 170.031588  L 221.61363 170.759142  L 219.290063 171.514306  L 216.592141 172.226085  L 213.64899 172.785585  L 210.717667 173.126677  L 208.021992 173.262684  L 205.620706 173.259203  L 203.381403 173.169551  L 201.067358 172.983134  L 198.476461 172.623675  L 195.547181 171.996237  L 192.376459 171.047922  L 189.153592 169.800383  L 186.061897 168.33491  L 183.208016 166.744214  L 180.608984 165.084784  L 178.225519 163.357902  L 176.006082 161.523614  L 173.912149 159.529685  L 171.91974 157.332757  L 170.013 154.90216  L 168.186903 152.21479  L 166.460539 149.256381  L 164.88634 146.035382  L 163.539422 142.599409  L 162.486706 139.03602  L 161.754246 135.447931  L 161.316788 131.912166  L 161.119656 128.447884  L 161.119656 125.015616  L 161.316788 121.551334  L 161.754246 118.015569  L 162.486706 114.42748  L 163.539422 110.864091  L 164.88634 107.428118  L 166.460539 104.207119  L 168.186903 101.24871  L 170.013 98.56134  L 171.91974 96.130743  L 173.912149 93.933815  L 176.006082 91.939886  L 178.225519 90.105598  L 180.608984 88.378716  L 183.208016 86.719286  L 186.061897 85.12859  L 189.153592 83.663117  L 192.376459 82.415578  L 195.547181 81.467263  L 198.476461 80.839825  L 201.067358 80.480366  L 203.381403 80.293949  L 205.620706 80.204297  L 208.021992 80.200816  L 210.717667 80.336823  L 213.64899 80.677915  L 216.592141 81.237415  L 219.290063 81.949194  L 221.61363 82.704358  L 223.651787 83.431912  L 225.670859 84.167431  L 227.964478 85.056111  L 230.685421 86.27903  L 233.762592 87.946205  L 236.951924 90.027852  L 239.984537 92.373761  L 242.715381 94.811815  L 245.179887 97.26016  L 247.530206 99.774141  L 249.902202 102.490968  L 252.305955 105.505574  L 254.61026 108.762021  L 256.623806 112.039095  L 258.210918 115.047945  L 259.361852 117.583708  L 260.17589 119.634115  L 260.779284 121.37416  L 261.242841 123.050605  L 261.556547 124.833297  L 261.670043 126.73175  "
           clip-path="url(#pfe97fb3b6b)"
           style="fill: none; stroke: #ff0000; stroke-width: 2; stroke-linecap: round"
           id="path217" />
      </g>
      <g
         id="line2d_11">
        <path
           d="M 253.214641 126.471971  L 253.088372 128.59327  L 252.943847 130.465134  L 252.769864 132.318981  L 252.495002 134.377137  L 252.036644 136.715403  L 251.3649 139.217904  L 250.531819 141.655314  L 249.63732 143.835421  L 248.749535 145.727165  L 247.835504 147.477733  L 246.757942 149.31386  L 245.351222 151.394408  L 243.532117 153.710794  L 241.369513 156.096779  L 239.057689 158.335108  L 236.800017 160.286502  L 234.673355 161.956968  L 232.563253 163.465805  L 230.219617 164.944522  L 227.405399 166.439321  L 224.047911 167.880277  L 220.296469 169.129446  L 216.447396 170.066052  L 212.781684 170.647106  L 209.416602 170.906854  L 206.263279 170.906531  L 203.113595 170.680358  L 199.796738 170.220501  L 196.302782 169.507991  L 192.79485 168.557607  L 189.50568 167.432811  L 186.589087 166.210908  L 184.023539 164.920035  L 181.628374 163.496221  L 179.179363 161.799556  L 176.548432 159.688828  L 173.781365 157.111775  L 171.070842 154.153766  L 168.648913 151.011871  L 166.669023 147.907752  L 165.146128 144.990107  L 163.980174 142.281225  L 163.035268 139.691793  L 162.218676 137.085666  L 161.514487 134.350392  L 160.963678 131.434738  L 160.617203 128.34348  L 160.499295 125.109331  L 160.601781 121.771375  L 160.903289 118.375258  L 161.390675 114.986615  L 162.063963 111.695809  L 162.924064 108.598961  L 163.958295 105.760947  L 165.139905 103.183333  L 166.444863 100.800136  L 167.873571 98.506845  L 169.45985 96.206587  L 171.25832 93.847403  L 173.316835 91.432828  L 175.650843 89.006746  L 178.23425 86.628287  L 181.009417 84.353387  L 183.907159 82.228357  L 186.864308 80.288814  L 189.832224 78.555152  L 192.777789 77.024299  L 195.68154 75.667456  L 198.53427 74.443868  L 201.32902 73.328753  L 204.046808 72.338703  L 206.642517 71.533927  L 209.045028 70.990191  L 211.183219 70.756333  L 213.033845 70.827928  L 214.667064 71.16002  L 216.256148 71.714161  L 218.031027 72.506195  L 220.18718 73.614547  L 222.793164 75.13298  L 225.749339 77.092979  L 228.826784 79.40956  L 231.770572 81.89674  L 234.412689 84.355454  L 236.732729 86.68493  L 238.835217 88.945094  L 240.862347 91.322644  L 242.898178 94.014093  L 244.921266 97.095897  L 246.827799 100.464843  L 248.501067 103.889351  L 249.876608 107.140374  L 250.962094 110.117185  L 251.807501 112.885793  L 252.456659 115.606051  L 252.920464 118.399021  L 253.189905 121.247283  L 253.272319 123.9986  L 253.214641 126.471971  "
           clip-path="url(#pfe97fb3b6b)"
           style="fill: none; stroke: #008000; stroke-width: 2; stroke-linecap: round"
           id="path220" />
      </g>
      <g
         id="line2d_12">
        <path
           d="M 251.619651 126.73175  L 251.514289 130.087468  L 251.225832 133.154004  L 250.813432 135.792858  L 250.314548 138.080889  L 249.703325 140.254168  L 248.894838 142.567121  L 247.797148 145.150738  L 246.377637 147.949964  L 244.69694 150.769604  L 242.883359 153.39278  L 241.060675 155.69651  L 239.27573 157.697568  L 237.475195 159.510168  L 235.55004 161.252519  L 233.420621 162.96695  L 231.105631 164.602903  L 228.725292 166.066567  L 226.430476 167.296715  L 224.299116 168.311979  L 222.266907 169.197863  L 220.142562 170.044844  L 217.707481 170.882254  L 214.845909 171.65439  L 211.628519 172.255343  L 208.29541 172.598441  L 205.141446 172.672502  L 202.364171 172.545986  L 199.958135 172.315367  L 197.715077 172.031944  L 195.331063 171.656728  L 192.563049 171.075602  L 189.35159 170.167924  L 185.847002 168.886104  L 182.329988 167.294566  L 179.073405 165.53994  L 176.219094 163.76612  L 173.729918 162.022356  L 171.433154 160.218841  L 169.123547 158.158553  L 166.668461 155.63179  L 164.064578 152.525548  L 161.427394 148.892639  L 158.930917 144.948014  L 156.735634 140.997678  L 154.939969 137.337132  L 153.570249 134.165122  L 152.601466 131.543057  L 151.988917 129.402952  L 151.693334 127.584735  L 151.693334 125.878765  L 151.988917 124.060548  L 152.601466 121.920443  L 153.570249 119.298378  L 154.939969 116.126368  L 156.735634 112.465822  L 158.930917 108.515486  L 161.427394 104.570861  L 164.064578 100.937952  L 166.668461 97.83171  L 169.123547 95.304947  L 171.433154 93.244659  L 173.729918 91.441144  L 176.219094 89.69738  L 179.073405 87.92356  L 182.329988 86.168934  L 185.847002 84.577396  L 189.35159 83.295576  L 192.563049 82.387898  L 195.331063 81.806772  L 197.715077 81.431556  L 199.958135 81.148133  L 202.364171 80.917514  L 205.141446 80.790998  L 208.29541 80.865059  L 211.628519 81.208157  L 214.845909 81.80911  L 217.707481 82.581246  L 220.142562 83.418656  L 222.266907 84.265637  L 224.299116 85.151521  L 226.430476 86.166785  L 228.725292 87.396933  L 231.105631 88.860597  L 233.420621 90.49655  L 235.55004 92.210981  L 237.475195 93.953332  L 239.27573 95.765932  L 241.060675 97.76699  L 242.883359 100.07072  L 244.69694 102.693896  L 246.377637 105.513536  L 247.797148 108.312762  L 248.894838 110.896379  L 249.703325 113.209332  L 250.314548 115.382611  L 250.813432 117.670642  L 251.225832 120.309496  L 251.514289 123.376032  L 251.619651 126.73175  "
           clip-path="url(#pfe97fb3b6b)"
           style="fill: none; stroke: #0000ff; stroke-width: 2; stroke-linecap: round"
           id="path223" />
      </g>
      <g
         id="line2d_13">
        <path
           d="M 253.214641 126.991529  L 253.272319 129.4649  L 253.189905 132.216217  L 252.920464 135.064479  L 252.456659 137.857449  L 251.807501 140.577707  L 250.962094 143.346315  L 249.876608 146.323126  L 248.501067 149.574149  L 246.827799 152.998657  L 244.921266 156.367603  L 242.898178 159.449407  L 240.862347 162.140856  L 238.835217 164.518406  L 236.732729 166.77857  L 234.412689 169.108046  L 231.770572 171.56676  L 228.826784 174.05394  L 225.749339 176.370521  L 222.793164 178.33052  L 220.18718 179.848953  L 218.031027 180.957305  L 216.256148 181.749339  L 214.667064 182.30348  L 213.033845 182.635572  L 211.183219 182.707167  L 209.045028 182.473309  L 206.642517 181.929573  L 204.046808 181.124797  L 201.32902 180.134747  L 198.53427 179.019632  L 195.68154 177.796044  L 192.777789 176.439201  L 189.832224 174.908348  L 186.864308 173.174686  L 183.907159 171.235143  L 181.009417 169.110113  L 178.23425 166.835213  L 175.650843 164.456754  L 173.316835 162.030672  L 171.25832 159.616097  L 169.45985 157.256913  L 167.873571 154.956655  L 166.444863 152.663364  L 165.139905 150.280167  L 163.958295 147.702553  L 162.924064 144.864539  L 162.063963 141.767691  L 161.390675 138.476885  L 160.903289 135.088242  L 160.601781 131.692125  L 160.499295 128.354169  L 160.617203 125.12002  L 160.963678 122.028762  L 161.514487 119.113108  L 162.218676 116.377834  L 163.035268 113.771707  L 163.980174 111.182275  L 165.146128 108.473393  L 166.669023 105.555748  L 168.648913 102.451629  L 171.070842 99.309734  L 173.781365 96.351725  L 176.548432 93.774672  L 179.179363 91.663944  L 181.628374 89.967279  L 184.023539 88.543465  L 186.589087 87.252592  L 189.50568 86.030689  L 192.79485 84.905893  L 196.302782 83.955509  L 199.796738 83.242999  L 203.113595 82.783142  L 206.263279 82.556969  L 209.416602 82.556646  L 212.781684 82.816394  L 216.447396 83.397448  L 220.296469 84.334054  L 224.047911 85.583223  L 227.405399 87.024179  L 230.219617 88.518978  L 232.563253 89.997695  L 234.673355 91.506532  L 236.800017 93.176998  L 239.057689 95.128392  L 241.369513 97.366721  L 243.532117 99.752706  L 245.351222 102.069092  L 246.757942 104.14964  L 247.835504 105.985767  L 248.749535 107.736335  L 249.63732 109.628079  L 250.531819 111.808186  L 251.3649 114.245596  L 252.036644 116.748097  L 252.495002 119.086363  L 252.769864 121.144519  L 252.943847 122.998366  L 253.088372 124.87023  L 253.214641 126.991529  "
           clip-path="url(#pfe97fb3b6b)"
           style="fill: none; stroke: #000000; stroke-width: 2; stroke-linecap: round"
           id="path226" />
      </g>
      <g
         id="patch_3">
        <path
           d="M 127.922013 227.4875  L 127.922013 25.976  "
           style="fill: none; stroke: #000000; stroke-width: 0.8; stroke-linejoin: miter; stroke-linecap: square"
           id="path243" />
      </g>
      <g
         id="patch_4">
        <path
           d="M 127.922013 227.4875  L 322.737777 227.4875  "
           style="fill: none; stroke: #000000; stroke-width: 0.8; stroke-linejoin: miter; stroke-linecap: square"
           id="path246" />
      </g>
      <g
         id="legend_1">
        <g
           id="patch_5">
          <path
             d="M 242.124624 99.34485  L 325.424624 99.34485  Q 328.224624 99.34485 328.224624 96.54485  L 328.224624 15.62485  Q 328.224624 12.82485 325.424624 12.82485  L 242.124624 12.82485  Q 239.324624 12.82485 239.324624 15.62485  L 239.324624 96.54485  Q 239.324624 99.34485 242.124624 99.34485  z "
             style="fill: #ffffff; opacity: 0.3; stroke: #cccccc; stroke-linejoin: miter"
             id="path249" />
        </g>
        <g
           id="line2d_15">
          <path
             d="M 244.924624 24.16485  L 250.524624 24.16485  L 256.124624 24.16485  "
             style="fill: none; stroke: #ff0000; stroke-width: 2; stroke-linecap: round"
             id="path252" />
        </g>
        <g
           id="text_12">
          <!-- $\zeta = 0$ -->
          <g
             transform="translate(267.324624 29.06485) scale(0.14 -0.14)"
             id="g265">
            <defs
               id="defs257">
              <path
                 id="DejaVuSans-Oblique-3b6"
                 d="M 1966 397  Q 2378 394 2578 159  Q 2794 -88 2722 -463  Q 2650 -822 2372 -1072  Q 2069 -1344 1559 -1344  Q 1606 -1109 1650 -872  Q 1863 -888 2022 -750  Q 2144 -641 2166 -525  Q 2197 -359 2125 -222  Q 2050 -91 1872 -91  Q -22 -91 316 1669  Q 616 3206 2609 4284  L 947 4284  L 1059 4863  L 3778 4863  L 3666 4284  Q 1181 3147 894 1669  Q 647 397 1966 397  z "
                 transform="scale(0.015625)" />
              <path
                 id="DejaVuSans-3d"
                 d="M 678 2906  L 4684 2906  L 4684 2381  L 678 2381  L 678 2906  z M 678 1631  L 4684 1631  L 4684 1100  L 678 1100  L 678 1631  z "
                 transform="scale(0.015625)" />
            </defs>
            <use
               xlink:href="#DejaVuSans-Oblique-3b6"
               transform="translate(0 0.015625)"
               id="use259" />
            <use
               xlink:href="#DejaVuSans-3d"
               transform="translate(73.876953 0.015625)"
               id="use261" />
            <use
               xlink:href="#DejaVuSans-30"
               transform="translate(177.148438 0.015625)"
               id="use263" />
          </g>
        </g>
        <g
           id="line2d_16">
          <path
             d="M 244.924624 44.74485  L 250.524624 44.74485  L 256.124624 44.74485  "
             style="fill: none; stroke: #008000; stroke-width: 2; stroke-linecap: round"
             id="path268" />
        </g>
        <g
           id="text_13">
          <!-- $\zeta = \pi/2$ -->
          <g
             transform="translate(267.324624 49.64485) scale(0.14 -0.14)"
             id="g285">
            <defs
               id="defs273">
              <path
                 id="DejaVuSans-Oblique-3c0"
                 d="M 584 3500  L 3938 3500  L 3825 2925  L 3384 2925  L 2966 775  Q 2922 550 2981 450  Q 3038 353 3209 353  Q 3256 353 3325 363  Q 3397 369 3419 372  L 3338 -44  Q 3222 -84 3103 -103  Q 2981 -122 2866 -122  Q 2491 -122 2388 81  Q 2284 288 2391 838  L 2797 2925  L 1506 2925  L 938 0  L 350 0  L 919 2925  L 472 2925  L 584 3500  z "
                 transform="scale(0.015625)" />
              <path
                 id="DejaVuSans-2f"
                 d="M 1625 4666  L 2156 4666  L 531 -594  L 0 -594  L 1625 4666  z "
                 transform="scale(0.015625)" />
            </defs>
            <use
               xlink:href="#DejaVuSans-Oblique-3b6"
               transform="translate(0 0.015625)"
               id="use275" />
            <use
               xlink:href="#DejaVuSans-3d"
               transform="translate(73.876953 0.015625)"
               id="use277" />
            <use
               xlink:href="#DejaVuSans-Oblique-3c0"
               transform="translate(177.148438 0.015625)"
               id="use279" />
            <use
               xlink:href="#DejaVuSans-2f"
               transform="translate(237.353516 0.015625)"
               id="use281" />
            <use
               xlink:href="#DejaVuSans-32"
               transform="translate(267.419922 0.015625)"
               id="use283" />
          </g>
        </g>
        <g
           id="line2d_17">
          <path
             d="M 244.924624 65.32485  L 250.524624 65.32485  L 256.124624 65.32485  "
             style="fill: none; stroke: #0000ff; stroke-width: 2; stroke-linecap: round"
             id="path288" />
        </g>
        <g
           id="text_14">
          <!-- $\zeta = \pi$ -->
          <g
             transform="translate(267.324624 70.22485) scale(0.14 -0.14)"
             id="g297">
            <use
               xlink:href="#DejaVuSans-Oblique-3b6"
               transform="translate(0 0.015625)"
               id="use291" />
            <use
               xlink:href="#DejaVuSans-3d"
               transform="translate(73.876953 0.015625)"
               id="use293" />
            <use
               xlink:href="#DejaVuSans-Oblique-3c0"
               transform="translate(177.148438 0.015625)"
               id="use295" />
          </g>
        </g>
        <g
           id="line2d_18">
          <path
             d="M 244.924624 85.90485  L 250.524624 85.90485  L 256.124624 85.90485  "
             style="fill: none; stroke: #000000; stroke-width: 2; stroke-linecap: round"
             id="path300" />
        </g>
        <g
           id="text_15">
          <!-- $\zeta = 3 \pi/2$ -->
          <g
             transform="translate(267.324624 90.80485) scale(0.14 -0.14)"
             id="g315">
            <use
               xlink:href="#DejaVuSans-Oblique-3b6"
               transform="translate(0 0.015625)"
               id="use303" />
            <use
               xlink:href="#DejaVuSans-3d"
               transform="translate(73.876953 0.015625)"
               id="use305" />
            <use
               xlink:href="#DejaVuSans-33"
               transform="translate(177.148438 0.015625)"
               id="use307" />
            <use
               xlink:href="#DejaVuSans-Oblique-3c0"
               transform="translate(240.771484 0.015625)"
               id="use309" />
            <use
               xlink:href="#DejaVuSans-2f"
               transform="translate(300.976562 0.015625)"
               id="use311" />
            <use
               xlink:href="#DejaVuSans-32"
               transform="translate(331.042969 0.015625)"
               id="use313" />
          </g>
        </g>
      </g>
    </g>
  </g>
  <defs
     id="defs324">
    <clipPath
       id="pfe97fb3b6b">
      <rect
         x="127.922013"
         y="25.976"
         width="194.815763"
         height="201.5115"
         id="rect321" />
    </clipPath>
  </defs>
  <circle
     style="opacity:1;fill:#ffffff;fill-opacity:0;stroke:#ff150d;stroke-width:1.26450002;stroke-linecap:butt;stroke-linejoin:round;stroke-miterlimit:4;stroke-dasharray:none;stroke-dashoffset:0;stroke-opacity:1"
     id="path2280-3"
     cx="274.48932"
     cy="126.63651"
     r="5.625" />
  <circle
     style="opacity:1;fill:#ffffff;fill-opacity:0;stroke:#11822a;stroke-width:1.26450002;stroke-linecap:butt;stroke-linejoin:round;stroke-miterlimit:4;stroke-dasharray:none;stroke-dashoffset:0;stroke-opacity:1"
     id="path2280-3-3"
     cx="215.08473"
     cy="60.851692"
     r="5.625" />
  <circle
     style="opacity:1;fill:#ffffff;fill-opacity:0;stroke:#0013bf;stroke-width:1.26450002;stroke-linecap:butt;stroke-linejoin:round;stroke-miterlimit:4;stroke-dasharray:none;stroke-dashoffset:0;stroke-opacity:1"
     id="path2280-3-3-6"
     cx="142.76695"
     cy="126.62299"
     r="5.625" />
  <circle
     style="opacity:1;fill:#ffffff;fill-opacity:0;stroke:#000000;stroke-width:1.26450002;stroke-linecap:butt;stroke-linejoin:round;stroke-miterlimit:4;stroke-dasharray:none;stroke-dashoffset:0;stroke-opacity:1"
     id="path2280-3-3-6-7"
     cx="215.23738"
     cy="192.48299"
     r="5.625" />
  <circle
     style="opacity:1;fill:#ffffff;fill-opacity:0;stroke:#050505;stroke-width:1.12578011;stroke-linecap:butt;stroke-linejoin:round;stroke-miterlimit:4;stroke-dasharray:none;stroke-dashoffset:0;stroke-opacity:1"
     id="path2280-3-5"
     cx="207.55933"
     cy="126.79072"
     r="5.0079193" />
  <ellipse
     style="opacity:1;fill:#000000;fill-opacity:1;stroke:#000000;stroke-width:1.7249999;stroke-linecap:butt;stroke-linejoin:round;stroke-miterlimit:4;stroke-dasharray:none;stroke-dashoffset:0;stroke-opacity:1"
     id="path1988"
     cx="207.52983"
     cy="126.79765"
     rx="0.53931874"
     ry="0.64718246" />
  <ellipse
     style="opacity:1;fill:#ff0000;fill-opacity:1;stroke:#ff0000;stroke-width:7.45908403;stroke-linecap:butt;stroke-linejoin:round;stroke-miterlimit:4;stroke-dasharray:none;stroke-dashoffset:0;stroke-opacity:0.00702574"
     id="path1988-3"
     cx="274.50702"
     cy="126.8474"
     rx="1.626013"
     ry="1.6695869" />
  <ellipse
     style="opacity:1;fill:#006e00;fill-opacity:1;stroke:#24df15;stroke-width:7.45908356;stroke-linecap:butt;stroke-linejoin:round;stroke-miterlimit:4;stroke-dasharray:none;stroke-dashoffset:0;stroke-opacity:0.00702574"
     id="path1988-3-5"
     cx="215.24211"
     cy="60.892879"
     rx="1.626013"
     ry="1.6695868" />
  <ellipse
     style="opacity:1;fill:#0823d7;fill-opacity:1;stroke:#24df15;stroke-width:7.45908308;stroke-linecap:butt;stroke-linejoin:round;stroke-miterlimit:4;stroke-dasharray:none;stroke-dashoffset:0;stroke-opacity:0.00702574"
     id="path1988-3-5-6"
     cx="142.8015"
     cy="126.62572"
     rx="1.626013"
     ry="1.6695868" />
  <ellipse
     style="opacity:1;fill:#0e0e0e;fill-opacity:1;stroke:#24df15;stroke-width:7.45908308;stroke-linecap:butt;stroke-linejoin:round;stroke-miterlimit:4;stroke-dasharray:none;stroke-dashoffset:0;stroke-opacity:0.00702574"
     id="path1988-3-5-6-2"
     cx="215.41095"
     cy="192.64867"
     rx="1.626013"
     ry="1.6695868" />
</svg>
