<?xml version="1.0" encoding="utf-8" standalone="no"?>
<!DOCTYPE svg PUBLIC "-//W3C//DTD SVG 1.1//EN"
  "http://www.w3.org/Graphics/SVG/1.1/DTD/svg11.dtd">
<svg xmlns:xlink="http://www.w3.org/1999/xlink" width="432pt" height="360pt" viewBox="0 0 432 360" xmlns="http://www.w3.org/2000/svg" version="1.1">
 <metadata>
  <rdf:RDF xmlns:dc="http://purl.org/dc/elements/1.1/" xmlns:cc="http://creativecommons.org/ns#" xmlns:rdf="http://www.w3.org/1999/02/22-rdf-syntax-ns#">
   <cc:Work>
    <dc:type rdf:resource="http://purl.org/dc/dcmitype/StillImage"/>
    <dc:date>2025-03-24T00:52:02.955724</dc:date>
    <dc:format>image/svg+xml</dc:format>
    <dc:creator>
     <cc:Agent>
      <dc:title>Matplotlib v3.9.2, https://matplotlib.org/</dc:title>
     </cc:Agent>
    </dc:creator>
   </cc:Work>
  </rdf:RDF>
 </metadata>
 <defs>
  <style type="text/css">*{stroke-linejoin: round; stroke-linecap: butt}</style>
 </defs>
 <g id="figure_1">
  <g id="patch_1">
   <path d="M 0 360 
L 432 360 
L 432 0 
L 0 0 
z
" style="fill: #ffffff"/>
  </g>
  <g id="axes_1">
   <g id="patch_2">
    <path d="M 107.665625 284.294375 
L 346.318625 284.294375 
L 346.318625 21.437813 
L 107.665625 21.437813 
z
" style="fill: #ffffff"/>
   </g>
   <g id="matplotlib.axis_1">
    <g id="xtick_1">
     <g id="line2d_1">
      <defs>
       <path id="m2fe41f2e9d" d="M 0 0 
L 0 3.5 
" style="stroke: #000000; stroke-width: 0.8"/>
      </defs>
      <g>
       <use xlink:href="#m2fe41f2e9d" x="107.665625" y="284.294375" style="stroke: #000000; stroke-width: 0.8"/>
      </g>
     </g>
     <g id="text_1">
      <!-- 0 -->
      <g transform="translate(98.758125 312.57) scale(0.28 -0.28)">
       <defs>
        <path id="DejaVuSerif-30" d="M 2034 219 
Q 2513 219 2750 744 
Q 2988 1269 2988 2328 
Q 2988 3391 2750 3916 
Q 2513 4441 2034 4441 
Q 1556 4441 1318 3916 
Q 1081 3391 1081 2328 
Q 1081 1269 1318 744 
Q 1556 219 2034 219 
z
M 2034 -91 
Q 1275 -91 848 546 
Q 422 1184 422 2328 
Q 422 3475 848 4112 
Q 1275 4750 2034 4750 
Q 2797 4750 3222 4112 
Q 3647 3475 3647 2328 
Q 3647 1184 3222 546 
Q 2797 -91 2034 -91 
z
" transform="scale(0.015625)"/>
       </defs>
       <use xlink:href="#DejaVuSerif-30"/>
      </g>
     </g>
    </g>
    <g id="xtick_2">
     <g id="line2d_2">
      <g>
       <use xlink:href="#m2fe41f2e9d" x="167.328875" y="284.294375" style="stroke: #000000; stroke-width: 0.8"/>
      </g>
     </g>
     <g id="text_2">
      <!-- $\pi/4$ -->
      <g transform="translate(145.348875 312.294375) scale(0.28 -0.28)">
       <defs>
        <path id="Cmmi10-bc" d="M 647 109 
Q 647 144 672 213 
Q 850 584 1004 942 
Q 1159 1300 1282 1639 
Q 1406 1978 1509 2363 
L 1100 2363 
Q 866 2363 662 2216 
Q 459 2069 325 1844 
Q 313 1819 288 1819 
L 213 1819 
Q 153 1819 153 1881 
Q 153 1894 166 1919 
Q 375 2275 614 2517 
Q 853 2759 1153 2759 
L 3475 2759 
Q 3541 2759 3587 2715 
Q 3634 2672 3634 2597 
Q 3634 2503 3567 2433 
Q 3500 2363 3406 2363 
L 2591 2363 
Q 2488 1859 2478 1381 
Q 2478 766 2694 269 
Q 2713 231 2713 191 
Q 2713 122 2672 62 
Q 2631 3 2567 -34 
Q 2503 -72 2431 -72 
Q 2263 -72 2200 203 
Q 2138 478 2138 738 
Q 2138 1103 2200 1442 
Q 2263 1781 2400 2363 
L 1703 2363 
Q 1197 313 1094 103 
Q 1003 -72 844 -72 
Q 766 -72 706 -20 
Q 647 31 647 109 
z
" transform="scale(0.015625)"/>
        <path id="Cmmi10-3d" d="M 359 -1472 
Q 359 -1453 366 -1447 
L 2591 4722 
Q 2603 4759 2634 4779 
Q 2666 4800 2706 4800 
Q 2763 4800 2798 4765 
Q 2834 4731 2834 4672 
L 2834 4647 
L 609 -1522 
Q 572 -1600 488 -1600 
Q 434 -1600 396 -1562 
Q 359 -1525 359 -1472 
z
" transform="scale(0.015625)"/>
        <path id="Cmr10-34" d="M 178 1056 
L 178 1281 
L 2156 4231 
Q 2178 4263 2222 4263 
L 2316 4263 
Q 2388 4263 2388 4191 
L 2388 1281 
L 3016 1281 
L 3016 1056 
L 2388 1056 
L 2388 428 
Q 2388 297 2575 261 
Q 2763 225 3009 225 
L 3009 0 
L 1247 0 
L 1247 225 
Q 1494 225 1681 261 
Q 1869 297 1869 428 
L 1869 1056 
L 178 1056 
z
M 391 1281 
L 1906 1281 
L 1906 3547 
L 391 1281 
z
" transform="scale(0.015625)"/>
       </defs>
       <use xlink:href="#Cmmi10-bc"/>
       <use xlink:href="#Cmmi10-3d" transform="translate(56.982422 0)"/>
       <use xlink:href="#Cmr10-34" transform="translate(106.982422 0)"/>
      </g>
     </g>
    </g>
    <g id="xtick_3">
     <g id="line2d_3">
      <g>
       <use xlink:href="#m2fe41f2e9d" x="226.992125" y="284.294375" style="stroke: #000000; stroke-width: 0.8"/>
      </g>
     </g>
     <g id="text_3">
      <!-- $\pi/2$ -->
      <g transform="translate(205.012125 312.294375) scale(0.28 -0.28)">
       <defs>
        <path id="Cmr10-32" d="M 319 0 
L 319 172 
Q 319 188 331 206 
L 1325 1306 
Q 1550 1550 1690 1715 
Q 1831 1881 1968 2097 
Q 2106 2313 2186 2536 
Q 2266 2759 2266 3009 
Q 2266 3272 2169 3511 
Q 2072 3750 1880 3894 
Q 1688 4038 1416 4038 
Q 1138 4038 916 3870 
Q 694 3703 603 3438 
Q 628 3444 672 3444 
Q 816 3444 917 3347 
Q 1019 3250 1019 3097 
Q 1019 2950 917 2848 
Q 816 2747 672 2747 
Q 522 2747 420 2851 
Q 319 2956 319 3097 
Q 319 3338 409 3548 
Q 500 3759 670 3923 
Q 841 4088 1055 4175 
Q 1269 4263 1509 4263 
Q 1875 4263 2190 4108 
Q 2506 3953 2690 3670 
Q 2875 3388 2875 3009 
Q 2875 2731 2753 2481 
Q 2631 2231 2440 2026 
Q 2250 1822 1953 1562 
Q 1656 1303 1563 1216 
L 838 519 
L 1453 519 
Q 1906 519 2211 526 
Q 2516 534 2534 550 
Q 2609 631 2688 1141 
L 2875 1141 
L 2694 0 
L 319 0 
z
" transform="scale(0.015625)"/>
       </defs>
       <use xlink:href="#Cmmi10-bc"/>
       <use xlink:href="#Cmmi10-3d" transform="translate(56.982422 0)"/>
       <use xlink:href="#Cmr10-32" transform="translate(106.982422 0)"/>
      </g>
     </g>
    </g>
    <g id="xtick_4">
     <g id="line2d_4">
      <g>
       <use xlink:href="#m2fe41f2e9d" x="286.655375" y="284.294375" style="stroke: #000000; stroke-width: 0.8"/>
      </g>
     </g>
     <g id="text_4">
      <!-- $3\pi/4$ -->
      <g transform="translate(257.675375 312.294375) scale(0.28 -0.28)">
       <defs>
        <path id="Cmr10-33" d="M 609 494 
Q 759 275 1012 169 
Q 1266 63 1556 63 
Q 1928 63 2084 380 
Q 2241 697 2241 1100 
Q 2241 1281 2208 1462 
Q 2175 1644 2097 1800 
Q 2019 1956 1883 2050 
Q 1747 2144 1550 2144 
L 1125 2144 
Q 1069 2144 1069 2203 
L 1069 2259 
Q 1069 2309 1125 2309 
L 1478 2338 
Q 1703 2338 1851 2506 
Q 2000 2675 2069 2917 
Q 2138 3159 2138 3378 
Q 2138 3684 1994 3881 
Q 1850 4078 1556 4078 
Q 1313 4078 1091 3986 
Q 869 3894 738 3706 
Q 750 3709 759 3711 
Q 769 3713 781 3713 
Q 925 3713 1022 3613 
Q 1119 3513 1119 3372 
Q 1119 3234 1022 3134 
Q 925 3034 781 3034 
Q 641 3034 541 3134 
Q 441 3234 441 3372 
Q 441 3647 606 3850 
Q 772 4053 1033 4158 
Q 1294 4263 1556 4263 
Q 1750 4263 1965 4205 
Q 2181 4147 2356 4039 
Q 2531 3931 2642 3762 
Q 2753 3594 2753 3378 
Q 2753 3109 2633 2881 
Q 2513 2653 2303 2487 
Q 2094 2322 1844 2241 
Q 2122 2188 2372 2031 
Q 2622 1875 2773 1631 
Q 2925 1388 2925 1106 
Q 2925 753 2731 467 
Q 2538 181 2222 20 
Q 1906 -141 1556 -141 
Q 1256 -141 954 -26 
Q 653 88 461 316 
Q 269 544 269 863 
Q 269 1022 375 1128 
Q 481 1234 641 1234 
Q 744 1234 830 1186 
Q 916 1138 964 1050 
Q 1013 963 1013 863 
Q 1013 706 903 600 
Q 794 494 641 494 
L 609 494 
z
" transform="scale(0.015625)"/>
       </defs>
       <use xlink:href="#Cmr10-33"/>
       <use xlink:href="#Cmmi10-bc" transform="translate(50 0)"/>
       <use xlink:href="#Cmmi10-3d" transform="translate(106.982422 0)"/>
       <use xlink:href="#Cmr10-34" transform="translate(156.982422 0)"/>
      </g>
     </g>
    </g>
    <g id="xtick_5">
     <g id="line2d_5">
      <g>
       <use xlink:href="#m2fe41f2e9d" x="346.318625" y="284.294375" style="stroke: #000000; stroke-width: 0.8"/>
      </g>
     </g>
     <g id="text_5">
      <!-- $\pi$ -->
      <g transform="translate(338.338625 312.57) scale(0.28 -0.28)">
       <use xlink:href="#Cmmi10-bc" transform="translate(0 0.890625)"/>
      </g>
     </g>
    </g>
    <g id="text_6">
     <!-- $\zeta_{\mathrm{Boozer}}$ -->
     <g transform="translate(182.792125 342.06) scale(0.34 -0.34)">
      <defs>
       <path id="Cmmi10-b3" d="M 1131 -997 
Q 1147 -922 1222 -922 
Q 1234 -922 1332 -986 
Q 1431 -1050 1542 -1098 
Q 1653 -1147 1784 -1147 
Q 1922 -1147 2014 -1019 
Q 2106 -891 2106 -744 
Q 2106 -597 2009 -494 
Q 1913 -391 1766 -341 
L 1113 -122 
Q 713 16 503 317 
Q 294 619 294 1050 
Q 294 1416 426 1831 
Q 559 2247 793 2637 
Q 1028 3028 1334 3339 
Q 1641 3650 1972 3822 
Q 1906 3953 1906 4128 
Q 1906 4475 2041 4475 
Q 2075 4475 2100 4450 
Q 2125 4425 2125 4391 
Q 2125 4344 2109 4245 
Q 2094 4147 2094 4122 
Q 2094 4006 2131 3897 
Q 2297 3963 2438 3963 
Q 3028 3963 3028 3781 
Q 3028 3566 2375 3566 
Q 2181 3566 2069 3681 
Q 1794 3525 1539 3244 
Q 1284 2963 1087 2613 
Q 891 2263 781 1906 
Q 672 1550 672 1228 
Q 672 538 1300 319 
L 1984 91 
Q 2200 25 2336 -139 
Q 2472 -303 2472 -531 
Q 2472 -716 2378 -898 
Q 2284 -1081 2125 -1197 
Q 1966 -1313 1772 -1313 
Q 1619 -1313 1375 -1211 
Q 1131 -1109 1131 -997 
z
M 2247 3763 
Q 2241 3763 2303 3738 
Q 2331 3738 2348 3736 
Q 2366 3734 2388 3731 
Q 2694 3731 2828 3769 
Q 2706 3794 2438 3794 
Q 2350 3794 2247 3763 
z
" transform="scale(0.015625)"/>
       <path id="Cmr10-42" d="M 219 0 
L 219 225 
Q 878 225 878 428 
L 878 3944 
Q 878 4147 219 4147 
L 219 4372 
L 2572 4372 
Q 2897 4372 3228 4245 
Q 3559 4119 3776 3870 
Q 3994 3622 3994 3284 
Q 3994 2894 3673 2630 
Q 3353 2366 2925 2284 
Q 3203 2284 3497 2131 
Q 3791 1978 3978 1722 
Q 4166 1466 4166 1178 
Q 4166 828 3958 559 
Q 3750 291 3419 145 
Q 3088 0 2753 0 
L 219 0 
z
M 1434 428 
Q 1434 291 1512 258 
Q 1591 225 1759 225 
L 2572 225 
Q 2822 225 3036 356 
Q 3250 488 3375 708 
Q 3500 928 3500 1178 
Q 3500 1422 3397 1655 
Q 3294 1888 3101 2038 
Q 2909 2188 2663 2188 
L 1434 2188 
L 1434 428 
z
M 1434 2356 
L 2394 2356 
Q 2588 2356 2758 2426 
Q 2928 2497 3064 2630 
Q 3200 2763 3273 2930 
Q 3347 3097 3347 3284 
Q 3347 3450 3292 3603 
Q 3238 3756 3131 3881 
Q 3025 4006 2881 4076 
Q 2738 4147 2572 4147 
L 1759 4147 
Q 1644 4147 1580 4137 
Q 1516 4128 1475 4083 
Q 1434 4038 1434 3944 
L 1434 2356 
z
" transform="scale(0.015625)"/>
       <path id="Cmr10-6f" d="M 1600 -72 
Q 1216 -72 887 123 
Q 559 319 368 647 
Q 178 975 178 1363 
Q 178 1656 283 1928 
Q 388 2200 583 2414 
Q 778 2628 1037 2748 
Q 1297 2869 1600 2869 
Q 1994 2869 2317 2661 
Q 2641 2453 2828 2104 
Q 3016 1756 3016 1363 
Q 3016 978 2825 648 
Q 2634 319 2307 123 
Q 1981 -72 1600 -72 
z
M 1600 116 
Q 2113 116 2284 487 
Q 2456 859 2456 1434 
Q 2456 1756 2422 1967 
Q 2388 2178 2272 2350 
Q 2200 2456 2089 2536 
Q 1978 2616 1854 2658 
Q 1731 2700 1600 2700 
Q 1400 2700 1220 2609 
Q 1041 2519 922 2350 
Q 803 2169 770 1951 
Q 738 1734 738 1434 
Q 738 1075 800 789 
Q 863 503 1052 309 
Q 1241 116 1600 116 
z
" transform="scale(0.015625)"/>
       <path id="Cmr10-7a" d="M 250 0 
Q 178 0 178 72 
L 178 122 
Q 178 147 197 166 
L 1984 2591 
L 1409 2591 
Q 1138 2591 961 2556 
Q 784 2522 670 2426 
Q 556 2331 504 2164 
Q 453 1997 453 1703 
L 269 1703 
L 341 2759 
L 2484 2759 
Q 2513 2759 2533 2739 
Q 2553 2719 2553 2688 
L 2553 2650 
Q 2553 2631 2541 2606 
L 750 184 
L 1363 184 
Q 1641 184 1827 218 
Q 2013 253 2144 384 
Q 2266 506 2311 712 
Q 2356 919 2381 1222 
L 2566 1222 
L 2456 0 
L 250 0 
z
" transform="scale(0.015625)"/>
       <path id="Cmr10-65" d="M 1594 -72 
Q 1203 -72 876 133 
Q 550 338 364 680 
Q 178 1022 178 1403 
Q 178 1778 348 2115 
Q 519 2453 823 2661 
Q 1128 2869 1503 2869 
Q 1797 2869 2014 2770 
Q 2231 2672 2372 2497 
Q 2513 2322 2584 2084 
Q 2656 1847 2656 1563 
Q 2656 1478 2591 1478 
L 738 1478 
L 738 1409 
Q 738 878 952 497 
Q 1166 116 1650 116 
Q 1847 116 2014 203 
Q 2181 291 2304 447 
Q 2428 603 2472 781 
Q 2478 803 2495 820 
Q 2513 838 2534 838 
L 2591 838 
Q 2656 838 2656 756 
Q 2566 394 2266 161 
Q 1966 -72 1594 -72 
z
M 744 1638 
L 2203 1638 
Q 2203 1878 2136 2125 
Q 2069 2372 1912 2536 
Q 1756 2700 1503 2700 
Q 1141 2700 942 2361 
Q 744 2022 744 1638 
z
" transform="scale(0.015625)"/>
       <path id="Cmr10-72" d="M 166 0 
L 166 225 
Q 384 225 525 259 
Q 666 294 666 428 
L 666 2175 
Q 666 2347 614 2423 
Q 563 2500 466 2517 
Q 369 2534 166 2534 
L 166 2759 
L 1081 2828 
L 1081 2203 
Q 1184 2481 1375 2654 
Q 1566 2828 1838 2828 
Q 2028 2828 2178 2715 
Q 2328 2603 2328 2419 
Q 2328 2303 2245 2217 
Q 2163 2131 2041 2131 
Q 1922 2131 1837 2215 
Q 1753 2300 1753 2419 
Q 1753 2591 1875 2663 
L 1838 2663 
Q 1578 2663 1414 2475 
Q 1250 2288 1181 2009 
Q 1113 1731 1113 1478 
L 1113 428 
Q 1113 225 1734 225 
L 1734 0 
L 166 0 
z
" transform="scale(0.015625)"/>
      </defs>
      <use xlink:href="#Cmmi10-b3" transform="translate(0 0.078125)"/>
      <use xlink:href="#Cmr10-42" transform="translate(43.701172 -16.928125) scale(0.7)"/>
      <use xlink:href="#Cmr10-6f" transform="translate(93.261719 -16.928125) scale(0.7)"/>
      <use xlink:href="#Cmr10-6f" transform="translate(128.261719 -16.928125) scale(0.7)"/>
      <use xlink:href="#Cmr10-7a" transform="translate(163.261719 -16.928125) scale(0.7)"/>
      <use xlink:href="#Cmr10-65" transform="translate(194.331055 -16.928125) scale(0.7)"/>
      <use xlink:href="#Cmr10-72" transform="translate(225.400391 -16.928125) scale(0.7)"/>
     </g>
    </g>
   </g>
   <g id="matplotlib.axis_2">
    <g id="ytick_1">
     <g id="line2d_6">
      <defs>
       <path id="mb82823b6a8" d="M 0 0 
L -3.5 0 
" style="stroke: #000000; stroke-width: 0.8"/>
      </defs>
      <g>
       <use xlink:href="#mb82823b6a8" x="107.665625" y="284.294375" style="stroke: #000000; stroke-width: 0.8"/>
      </g>
     </g>
     <g id="text_7">
      <!-- 0 -->
      <g transform="translate(82.850625 294.932187) scale(0.28 -0.28)">
       <use xlink:href="#DejaVuSerif-30"/>
      </g>
     </g>
    </g>
    <g id="ytick_2">
     <g id="line2d_7">
      <g>
       <use xlink:href="#mb82823b6a8" x="107.665625" y="218.580234" style="stroke: #000000; stroke-width: 0.8"/>
      </g>
     </g>
     <g id="text_8">
      <!-- $\pi/2$ -->
      <g transform="translate(56.705625 229.080234) scale(0.28 -0.28)">
       <use xlink:href="#Cmmi10-bc"/>
       <use xlink:href="#Cmmi10-3d" transform="translate(56.982422 0)"/>
       <use xlink:href="#Cmr10-32" transform="translate(106.982422 0)"/>
      </g>
     </g>
    </g>
    <g id="ytick_3">
     <g id="line2d_8">
      <g>
       <use xlink:href="#mb82823b6a8" x="107.665625" y="152.866094" style="stroke: #000000; stroke-width: 0.8"/>
      </g>
     </g>
     <g id="text_9">
      <!-- $\pi$ -->
      <g transform="translate(84.705625 163.503906) scale(0.28 -0.28)">
       <use xlink:href="#Cmmi10-bc" transform="translate(0 0.890625)"/>
      </g>
     </g>
    </g>
    <g id="ytick_4">
     <g id="line2d_9">
      <g>
       <use xlink:href="#mb82823b6a8" x="107.665625" y="87.151953" style="stroke: #000000; stroke-width: 0.8"/>
      </g>
     </g>
     <g id="text_10">
      <!-- $3\pi/2$ -->
      <g transform="translate(42.705625 97.651953) scale(0.28 -0.28)">
       <use xlink:href="#Cmr10-33"/>
       <use xlink:href="#Cmmi10-bc" transform="translate(50 0)"/>
       <use xlink:href="#Cmmi10-3d" transform="translate(106.982422 0)"/>
       <use xlink:href="#Cmr10-32" transform="translate(156.982422 0)"/>
      </g>
     </g>
    </g>
    <g id="ytick_5">
     <g id="line2d_10">
      <g>
       <use xlink:href="#mb82823b6a8" x="107.665625" y="21.437813" style="stroke: #000000; stroke-width: 0.8"/>
      </g>
     </g>
     <g id="text_11">
      <!-- $2\pi$ -->
      <g transform="translate(70.705625 32.075625) scale(0.28 -0.28)">
       <use xlink:href="#Cmr10-32" transform="translate(0 0.390625)"/>
       <use xlink:href="#Cmmi10-bc" transform="translate(50 0.390625)"/>
      </g>
     </g>
    </g>
    <g id="text_12">
     <!-- $\theta_{\mathrm{Boozer}}$ -->
     <g transform="translate(36.634687 197.576094) rotate(-90) scale(0.34 -0.34)">
      <defs>
       <path id="Cmmi10-b5" d="M 1031 -72 
Q 741 -72 566 140 
Q 391 353 323 653 
Q 256 953 256 1247 
L 256 1253 
Q 256 1572 317 1915 
Q 378 2259 493 2601 
Q 609 2944 744 3213 
Q 838 3400 986 3631 
Q 1134 3863 1317 4064 
Q 1500 4266 1711 4389 
Q 1922 4513 2138 4513 
L 2144 4513 
Q 2375 4513 2529 4384 
Q 2684 4256 2770 4056 
Q 2856 3856 2890 3628 
Q 2925 3400 2925 3194 
Q 2925 2709 2794 2204 
Q 2663 1700 2431 1228 
Q 2344 1050 2189 809 
Q 2034 569 1861 378 
Q 1688 188 1472 58 
Q 1256 -72 1038 -72 
L 1031 -72 
z
M 1044 97 
Q 1256 97 1451 323 
Q 1647 550 1794 873 
Q 1941 1197 2052 1536 
Q 2163 1875 2216 2113 
L 909 2113 
Q 809 1709 753 1417 
Q 697 1125 697 844 
Q 697 97 1044 97 
z
M 959 2338 
L 2272 2338 
Q 2341 2619 2381 2808 
Q 2422 2997 2450 3206 
Q 2478 3416 2478 3597 
Q 2478 4347 2138 4347 
Q 1731 4347 1436 3692 
Q 1141 3038 959 2338 
z
" transform="scale(0.015625)"/>
      </defs>
      <use xlink:href="#Cmmi10-b5" transform="translate(0 0.484375)"/>
      <use xlink:href="#Cmr10-42" transform="translate(46.923828 -16.521875) scale(0.7)"/>
      <use xlink:href="#Cmr10-6f" transform="translate(96.484375 -16.521875) scale(0.7)"/>
      <use xlink:href="#Cmr10-6f" transform="translate(131.484375 -16.521875) scale(0.7)"/>
      <use xlink:href="#Cmr10-7a" transform="translate(166.484375 -16.521875) scale(0.7)"/>
      <use xlink:href="#Cmr10-65" transform="translate(197.553711 -16.521875) scale(0.7)"/>
      <use xlink:href="#Cmr10-72" transform="translate(228.623047 -16.521875) scale(0.7)"/>
     </g>
    </g>
   </g>
   <g id="QuadContourSet_1">
    <path d="M 346.318625 284.294375 
L 346.318625 284.294375 
z
" clip-path="url(#ped044029ea)" style="fill: none; stroke: #000080"/>
    <path d="M 196.03239 284.294375 
L 192.520025 282.75143 
L 189.207585 281.373747 
L 187.216625 279.8341 
L 185.020668 278.453118 
L 184.564925 277.080074 
L 183.76239 275.53249 
L 184.564925 275.200834 
L 187.216625 274.893112 
L 189.868325 274.986832 
L 195.171725 275.573251 
L 200.475125 276.628504 
L 205.778525 277.42842 
L 219.037025 279.059333 
L 226.992125 279.815169 
L 240.250625 280.891678 
L 244.546824 281.373747 
L 250.857425 282.619599 
L 256.160825 283.815786 
L 257.95186 284.294375 
M 331.518948 284.294375 
L 327.756725 281.992438 
L 325.105025 280.317427 
L 321.976153 278.453118 
L 319.801625 276.997521 
L 317.149925 275.412174 
L 314.498225 273.616991 
L 312.764899 272.611861 
L 311.846525 271.808992 
L 308.666296 269.691233 
L 306.398586 266.770604 
L 306.543125 266.675221 
L 309.194825 265.762999 
L 311.846525 265.52629 
L 314.498225 265.600937 
L 317.149925 265.852763 
L 322.453325 266.692224 
L 322.804996 266.770604 
L 333.060125 270.025606 
L 341.015225 273.439513 
L 346.318625 276.004724 
M 107.665625 276.004724 
L 115.620725 280.339171 
L 118.272425 281.852491 
L 122.465302 284.294375 
M 346.318625 29.727463 
L 338.363525 25.393017 
L 335.711825 23.879696 
L 331.518948 21.437813 
M 122.465302 21.437813 
L 126.227525 23.73975 
L 128.879225 25.41476 
L 132.008097 27.279069 
L 134.182625 28.734666 
L 136.834325 30.320013 
L 139.486025 32.115197 
L 141.219351 33.120326 
L 142.137725 33.923195 
L 145.317954 36.040955 
L 147.585664 38.961583 
L 147.441125 39.056966 
L 144.789425 39.969188 
L 142.137725 40.205898 
L 139.486025 40.13125 
L 136.834325 39.879425 
L 131.530925 39.039963 
L 131.179254 38.961583 
L 120.924125 35.706581 
L 112.969025 32.292674 
L 107.665625 29.727463 
M 257.95186 21.437813 
L 261.464225 22.980757 
L 264.776665 24.358441 
L 266.767625 25.898087 
L 268.963582 27.279069 
L 269.419325 28.652114 
L 270.22186 30.199698 
L 269.419325 30.531353 
L 266.767625 30.839075 
L 264.115925 30.745355 
L 258.812525 30.158937 
L 253.509125 29.103683 
L 248.205725 28.303768 
L 234.947225 26.672855 
L 226.992125 25.917018 
L 213.733625 24.840509 
L 209.437426 24.358441 
L 203.126825 23.112589 
L 197.823425 21.916401 
L 196.03239 21.437813 
L 196.03239 21.437813 
" clip-path="url(#ped044029ea)" style="fill: none; stroke: #0000a4"/>
    <path d="M 181.302821 284.294375 
L 179.261525 283.302575 
L 173.958125 279.607563 
L 169.427673 275.53249 
L 166.85185 272.611861 
L 165.033122 269.691233 
L 164.69388 266.770604 
L 166.003025 265.910748 
L 168.654725 265.482742 
L 171.306425 265.644822 
L 176.609825 266.546392 
L 179.261525 267.252342 
L 184.564925 268.721357 
L 189.868325 270.165777 
L 195.171725 271.586869 
L 205.778525 273.983456 
L 213.733625 275.286987 
L 219.037025 275.988031 
L 224.340425 276.477568 
L 232.295525 276.98644 
L 245.554025 277.803564 
L 253.509125 278.642593 
L 258.812525 279.304068 
L 261.464225 279.815479 
L 264.115925 280.602116 
L 265.866715 281.373747 
L 269.419325 282.453645 
L 272.071025 283.837969 
L 272.681429 284.294375 
M 322.427049 284.294375 
L 319.801625 283.048835 
L 317.149925 281.362212 
L 314.498225 280.104972 
L 311.846525 278.38967 
L 309.194825 277.109755 
L 306.543125 275.384559 
L 303.891425 274.08335 
L 301.239725 272.419028 
L 298.588025 271.074558 
L 291.219838 266.770604 
L 290.632925 266.134884 
L 288.106396 263.849976 
L 290.632925 261.852167 
L 292.81024 260.929347 
L 295.936325 260.667149 
L 301.239725 260.526879 
L 306.543125 260.700218 
L 309.546424 260.929347 
L 314.498225 261.685786 
L 319.801625 262.678089 
L 325.105025 263.894883 
L 334.055033 266.770604 
L 341.363676 269.691233 
L 346.318625 271.876918 
M 107.665625 271.876918 
L 118.272425 277.068009 
L 120.924125 278.547925 
L 123.575825 279.826448 
L 126.227525 281.38416 
L 128.879225 282.654639 
L 131.557201 284.294375 
M 346.318625 33.855269 
L 335.711825 28.664179 
L 333.060125 27.184263 
L 330.408425 25.905739 
L 327.756725 24.348028 
L 325.105025 23.077548 
L 322.427049 21.437813 
M 131.557201 21.437813 
L 134.182625 22.683353 
L 136.834325 24.369975 
L 139.486025 25.627215 
L 142.137725 27.342518 
L 144.789425 28.622432 
L 147.441125 30.347629 
L 150.092825 31.648837 
L 152.744525 33.31316 
L 155.396225 34.65763 
L 162.764412 38.961583 
L 163.351325 39.597304 
L 165.877854 41.882212 
L 163.351325 43.880021 
L 161.17401 44.80284 
L 158.047925 45.065038 
L 152.744525 45.205309 
L 147.441125 45.03197 
L 144.437826 44.80284 
L 139.486025 44.046402 
L 134.182625 43.054098 
L 128.879225 41.837305 
L 119.929217 38.961583 
L 112.620574 36.040955 
L 107.665625 33.855269 
M 272.681429 21.437813 
L 274.722725 22.429613 
L 280.026125 26.124625 
L 284.556577 30.199698 
L 287.1324 33.120326 
L 288.951128 36.040955 
L 289.29037 38.961583 
L 287.981225 39.821439 
L 285.329525 40.249446 
L 282.677825 40.087366 
L 277.374425 39.185795 
L 274.722725 38.479846 
L 269.419325 37.010831 
L 264.115925 35.566411 
L 258.812525 34.145318 
L 248.205725 31.748731 
L 240.250625 30.445201 
L 234.947225 29.744156 
L 229.643825 29.254619 
L 221.688725 28.745748 
L 208.430225 27.928623 
L 200.475125 27.089594 
L 195.171725 26.428119 
L 192.520025 25.916708 
L 189.868325 25.130071 
L 188.117535 24.358441 
L 184.564925 23.278542 
L 181.913225 21.894218 
L 181.302821 21.437813 
L 181.302821 21.437813 
" clip-path="url(#ped044029ea)" style="fill: none; stroke: #0000cd"/>
    <path d="M 107.665625 266.978254 
L 120.924125 270.199756 
L 131.530925 273.23245 
L 136.834325 274.436292 
L 139.486025 274.833528 
L 142.137725 274.954051 
L 152.744525 274.394922 
L 155.396225 273.102986 
L 155.655869 272.611861 
L 155.396225 272.048965 
L 154.543299 269.691233 
L 152.744525 266.214217 
L 151.614733 263.849976 
L 150.909855 260.929347 
L 152.830147 258.008719 
L 155.396225 257.643692 
L 158.047925 257.720421 
L 160.699625 258.060049 
L 166.003025 259.395704 
L 171.55254 260.929347 
L 176.609825 262.632996 
L 195.171725 268.423849 
L 200.475125 269.807082 
L 205.778525 270.886577 
L 213.733625 272.173979 
L 217.393934 272.611861 
L 221.688725 272.878368 
L 226.992125 273.030871 
L 232.295525 273.006794 
L 237.598925 272.815742 
L 245.554025 272.301576 
L 253.509125 271.571314 
L 270.65128 269.691233 
L 272.071025 269.455738 
L 274.722725 268.580126 
L 276.514012 266.770604 
L 274.722725 265.106491 
L 273.669278 263.849976 
L 273.421089 260.929347 
L 274.722725 260.353579 
L 277.374425 259.423686 
L 280.026125 258.739942 
L 284.371087 258.008719 
L 287.981225 257.804404 
L 293.284625 257.666689 
L 298.588025 257.701441 
L 305.124765 258.008719 
L 309.194825 258.426978 
L 317.149925 259.522785 
L 322.453325 260.499702 
L 330.408425 262.389265 
L 341.015225 265.405415 
L 346.318625 266.978254 
M 346.318625 38.753933 
L 333.060125 35.532432 
L 322.453325 32.499738 
L 317.149925 31.295896 
L 314.498225 30.898659 
L 311.846525 30.778137 
L 301.239725 31.337266 
L 298.588025 32.629202 
L 298.328381 33.120326 
L 298.588025 33.683222 
L 299.440951 36.040955 
L 301.239725 39.51797 
L 302.369517 41.882212 
L 303.074395 44.80284 
L 301.154103 47.723469 
L 298.588025 48.088495 
L 295.936325 48.011766 
L 293.284625 47.672138 
L 287.981225 46.336483 
L 282.43171 44.80284 
L 277.374425 43.099192 
L 258.812525 37.308338 
L 253.509125 35.925105 
L 248.205725 34.845611 
L 240.250625 33.558208 
L 236.590316 33.120326 
L 232.295525 32.853819 
L 226.992125 32.701316 
L 221.688725 32.725394 
L 216.385325 32.916446 
L 208.430225 33.430611 
L 200.475125 34.160874 
L 183.33297 36.040955 
L 181.913225 36.27645 
L 179.261525 37.152061 
L 177.470238 38.961583 
L 179.261525 40.625696 
L 180.314972 41.882212 
L 180.563161 44.80284 
L 179.261525 45.378608 
L 176.609825 46.308502 
L 173.958125 46.992245 
L 169.613163 47.723469 
L 166.003025 47.927784 
L 160.699625 48.065498 
L 155.396225 48.030747 
L 148.859485 47.723469 
L 144.789425 47.30521 
L 136.834325 46.209403 
L 131.530925 45.232486 
L 123.575825 43.342922 
L 112.969025 40.326772 
L 107.665625 38.753933 
L 107.665625 38.753933 
" clip-path="url(#ped044029ea)" style="fill: none; stroke: #0000f6"/>
    <path d="M 107.665625 260.749466 
L 120.924125 263.106848 
L 123.575825 263.391002 
L 136.834325 264.226774 
L 139.486025 263.7667 
L 140.40226 260.929347 
L 139.80997 258.008719 
L 139.522104 255.08809 
L 141.534806 252.167462 
L 142.137725 251.945052 
L 144.789425 251.502455 
L 147.441125 251.482474 
L 150.092825 251.713363 
L 153.048811 252.167462 
L 158.047925 253.446747 
L 163.824394 255.08809 
L 184.564925 262.133646 
L 192.520025 264.482317 
L 200.475125 266.302233 
L 203.126825 266.783857 
L 211.081925 267.745569 
L 216.385325 268.214821 
L 221.688725 268.468989 
L 226.992125 268.518168 
L 232.295525 268.348655 
L 240.250625 267.759316 
L 251.006188 266.770604 
L 253.509125 266.403505 
L 256.160825 265.776744 
L 258.812525 264.652129 
L 259.966264 263.849976 
L 259.663486 260.929347 
L 261.464225 258.880196 
L 262.458793 258.008719 
L 264.115925 257.523761 
L 266.767625 256.935702 
L 269.419325 256.51086 
L 274.722725 255.976984 
L 280.026125 255.686461 
L 287.981225 255.514234 
L 295.936325 255.587094 
L 303.891425 255.90726 
L 311.846525 256.465153 
L 317.149925 257.011526 
L 330.408425 258.622446 
L 338.363525 259.565006 
L 343.666925 260.301686 
L 346.318625 260.749466 
M 346.318625 44.982721 
L 333.060125 42.625339 
L 330.408425 42.341185 
L 317.149925 41.505414 
L 314.498225 41.965488 
L 313.58199 44.80284 
L 314.17428 47.723469 
L 314.462146 50.644097 
L 312.449444 53.564726 
L 311.846525 53.787135 
L 309.194825 54.229733 
L 306.543125 54.249714 
L 303.891425 54.018825 
L 300.935439 53.564726 
L 295.936325 52.285441 
L 290.159856 50.644097 
L 269.419325 43.598542 
L 261.464225 41.24987 
L 253.509125 39.429955 
L 250.857425 38.948331 
L 242.902325 37.986619 
L 237.598925 37.517367 
L 232.295525 37.263198 
L 226.992125 37.214019 
L 221.688725 37.383533 
L 213.733625 37.972872 
L 202.978062 38.961583 
L 200.475125 39.328683 
L 197.823425 39.955444 
L 195.171725 41.080059 
L 194.017986 41.882212 
L 194.320764 44.80284 
L 192.520025 46.851992 
L 191.525457 47.723469 
L 189.868325 48.208427 
L 187.216625 48.796486 
L 184.564925 49.221327 
L 179.261525 49.755204 
L 173.958125 50.045726 
L 166.003025 50.217954 
L 158.047925 50.145094 
L 150.092825 49.824928 
L 142.137725 49.267034 
L 136.834325 48.720661 
L 123.575825 47.109742 
L 115.620725 46.167182 
L 110.317325 45.430501 
L 107.665625 44.982721 
L 107.665625 44.982721 
" clip-path="url(#ped044029ea)" style="fill: none; stroke: #000cff"/>
    <path d="M 107.665625 255.74956 
L 118.272425 256.516488 
L 123.575825 256.652638 
L 126.227525 256.317737 
L 128.418462 255.08809 
L 129.760812 249.246833 
L 131.530925 247.812909 
L 134.182625 246.723049 
L 136.834325 246.348778 
L 139.486025 246.379881 
L 142.137725 246.648724 
L 147.441125 247.56947 
L 152.744525 248.778771 
L 155.396225 249.507046 
L 166.003025 252.896725 
L 179.261525 257.243039 
L 181.913225 258.074862 
L 189.868325 260.020706 
L 195.171725 261.047441 
L 203.126825 262.427766 
L 211.081925 263.488364 
L 216.385325 263.941812 
L 221.688725 264.040921 
L 237.598925 263.632577 
L 240.250625 263.441992 
L 242.902325 263.017438 
L 245.554025 262.104486 
L 247.343403 260.929347 
L 248.422839 258.008719 
L 250.857425 255.922961 
L 252.266714 255.08809 
L 253.509125 254.759871 
L 256.160825 254.264925 
L 258.812525 253.949134 
L 264.115925 253.636243 
L 272.071025 253.526593 
L 293.284625 253.64071 
L 306.543125 253.865211 
L 333.060125 254.621814 
L 346.318625 255.74956 
M 346.318625 49.982628 
L 335.711825 49.215699 
L 330.408425 49.07955 
L 327.756725 49.41445 
L 325.565788 50.644097 
L 324.223438 56.485354 
L 322.453325 57.919279 
L 319.801625 59.009138 
L 317.149925 59.383409 
L 314.498225 59.352307 
L 311.846525 59.083464 
L 306.543125 58.162717 
L 301.239725 56.953416 
L 298.588025 56.225141 
L 287.981225 52.835462 
L 274.722725 48.489149 
L 272.071025 47.657326 
L 264.115925 45.711481 
L 258.812525 44.684747 
L 250.857425 43.304422 
L 242.902325 42.243823 
L 237.598925 41.790375 
L 232.295525 41.691266 
L 216.385325 42.09961 
L 213.733625 42.290196 
L 211.081925 42.714749 
L 208.430225 43.627701 
L 206.640847 44.80284 
L 205.561411 47.723469 
L 203.126825 49.809226 
L 201.717536 50.644097 
L 200.475125 50.972317 
L 197.823425 51.467262 
L 195.171725 51.783054 
L 189.868325 52.095945 
L 181.913225 52.205594 
L 160.699625 52.091478 
L 147.441125 51.866976 
L 120.924125 51.110374 
L 107.665625 49.982628 
L 107.665625 49.982628 
" clip-path="url(#ped044029ea)" style="fill: none; stroke: #0030ff"/>
    <path d="M 107.665625 251.270893 
L 110.317325 251.265251 
L 112.969025 251.138021 
L 115.620725 250.670793 
L 118.272425 249.233746 
L 119.803903 246.326205 
L 120.924125 245.217206 
L 123.575825 243.371609 
L 126.227525 242.800301 
L 128.879225 242.511739 
L 131.530925 242.439417 
L 134.182625 242.532172 
L 139.486025 243.077714 
L 142.137725 243.509682 
L 150.092825 245.345584 
L 155.396225 246.812143 
L 173.958125 252.329767 
L 184.564925 254.714999 
L 203.126825 258.340081 
L 208.430225 258.886137 
L 216.385325 259.290644 
L 226.992125 259.690169 
L 229.643825 259.635084 
L 232.295525 259.361887 
L 234.947225 258.641107 
L 236.174203 258.008719 
L 238.108711 255.08809 
L 240.250625 252.965519 
L 241.400782 252.167462 
L 242.902325 251.6736 
L 245.554025 251.118317 
L 248.205725 250.81724 
L 253.509125 250.655028 
L 261.464225 250.892208 
L 277.374425 251.526928 
L 287.981225 251.728673 
L 295.936325 251.711817 
L 303.891425 251.513098 
L 322.453325 250.884232 
L 330.408425 250.943134 
L 346.318625 251.270893 
M 346.318625 54.461295 
L 343.666925 54.466936 
L 341.015225 54.594166 
L 338.363525 55.061394 
L 335.711825 56.498441 
L 334.180347 59.405983 
L 333.060125 60.514981 
L 330.408425 62.360579 
L 327.756725 62.931886 
L 325.105025 63.220449 
L 322.453325 63.292771 
L 319.801625 63.200015 
L 314.498225 62.654473 
L 311.846525 62.222505 
L 303.891425 60.386604 
L 298.588025 58.920045 
L 280.026125 53.402421 
L 269.419325 51.017189 
L 250.857425 47.392106 
L 245.554025 46.84605 
L 237.598925 46.441544 
L 226.992125 46.042018 
L 224.340425 46.097104 
L 221.688725 46.370301 
L 219.037025 47.091081 
L 217.810047 47.723469 
L 215.875539 50.644097 
L 213.733625 52.766669 
L 212.583468 53.564726 
L 211.081925 54.058588 
L 208.430225 54.613871 
L 205.778525 54.914948 
L 200.475125 55.077159 
L 192.520025 54.839979 
L 176.609825 54.20526 
L 166.003025 54.003514 
L 158.047925 54.020371 
L 150.092825 54.219089 
L 131.530925 54.847956 
L 123.575825 54.789053 
L 107.665625 54.461295 
L 107.665625 54.461295 
" clip-path="url(#ped044029ea)" style="fill: none; stroke: #0050ff"/>
    <path d="M 107.665625 246.053503 
L 110.547049 243.405576 
L 112.969025 241.664424 
L 115.044726 240.484948 
L 115.620725 240.321649 
L 118.272425 239.755718 
L 120.924125 239.400446 
L 123.575825 239.220249 
L 126.227525 239.185582 
L 131.530925 239.459947 
L 136.834325 240.078644 
L 139.486025 240.495981 
L 147.441125 242.207833 
L 155.396225 244.215825 
L 166.003025 246.853223 
L 192.520025 252.521301 
L 197.823425 253.294785 
L 205.778525 254.062962 
L 216.172544 255.08809 
L 219.037025 255.316824 
L 221.688725 255.34172 
L 224.340425 255.057966 
L 226.992125 253.40601 
L 228.122317 252.167462 
L 229.643825 250.294948 
L 230.679107 249.246833 
L 232.295525 248.386582 
L 234.947225 247.511411 
L 237.598925 247.067347 
L 240.250625 246.902444 
L 242.902325 246.917689 
L 248.205725 247.250053 
L 272.071025 249.374678 
L 277.374425 249.629143 
L 285.329525 249.733863 
L 293.284625 249.529394 
L 301.239725 249.04726 
L 314.498225 248.253454 
L 325.105025 247.880563 
L 338.363525 247.504178 
L 341.015225 247.296946 
L 343.666925 246.915304 
L 345.864845 246.326205 
L 346.318625 246.053503 
M 346.318625 59.678685 
L 343.437201 62.326611 
L 341.015225 64.067764 
L 338.939524 65.24724 
L 338.363525 65.410539 
L 335.711825 65.976469 
L 333.060125 66.331742 
L 330.408425 66.511939 
L 327.756725 66.546606 
L 322.453325 66.27224 
L 317.149925 65.653543 
L 314.498225 65.236206 
L 306.543125 63.524354 
L 298.588025 61.516363 
L 287.981225 58.878965 
L 261.464225 53.210886 
L 256.160825 52.437402 
L 248.205725 51.669226 
L 237.811706 50.644097 
L 234.947225 50.415363 
L 232.295525 50.390467 
L 229.643825 50.674222 
L 226.992125 52.326178 
L 225.861933 53.564726 
L 224.340425 55.437239 
L 223.305143 56.485354 
L 221.688725 57.345605 
L 219.037025 58.220776 
L 216.385325 58.66484 
L 213.733625 58.829744 
L 211.081925 58.814499 
L 205.778525 58.482134 
L 181.913225 56.35751 
L 176.609825 56.103045 
L 168.654725 55.998324 
L 160.699625 56.202793 
L 152.744525 56.684928 
L 139.486025 57.478733 
L 128.879225 57.851624 
L 115.620725 58.228009 
L 112.969025 58.435241 
L 110.317325 58.816884 
L 108.119405 59.405983 
L 107.665625 59.678685 
L 107.665625 59.678685 
" clip-path="url(#ped044029ea)" style="fill: none; stroke: #0074ff"/>
    <path d="M 107.665625 238.016411 
L 108.953031 237.564319 
L 110.317325 237.293896 
L 112.969025 236.901545 
L 115.620725 236.642482 
L 120.924125 236.456711 
L 126.227525 236.627578 
L 131.530925 237.085264 
L 136.834325 237.831444 
L 144.789425 239.275914 
L 160.699625 242.40602 
L 168.654725 243.826845 
L 184.564925 247.123291 
L 189.868325 247.927415 
L 211.081925 250.519505 
L 213.733625 250.51715 
L 216.385325 250.047314 
L 218.069481 249.246833 
L 219.037025 248.287475 
L 220.706689 246.326205 
L 221.688725 245.451309 
L 224.340425 243.786136 
L 225.34994 243.405576 
L 226.992125 243.041976 
L 229.643825 242.753287 
L 232.295525 242.694906 
L 237.598925 243.000404 
L 242.902325 243.650235 
L 256.160825 245.647899 
L 264.115925 246.663129 
L 269.419325 247.123267 
L 274.722725 247.38723 
L 280.026125 247.464942 
L 287.981225 247.27278 
L 298.588025 246.677753 
L 319.801625 245.384665 
L 327.756725 244.881332 
L 333.060125 244.251154 
L 336.673681 243.405576 
L 338.363525 242.470149 
L 341.145714 240.484948 
L 343.666925 239.17829 
L 346.318625 238.016411 
M 346.318625 67.715777 
L 345.031219 68.167868 
L 343.666925 68.438291 
L 341.015225 68.830642 
L 338.363525 69.089705 
L 333.060125 69.275476 
L 327.756725 69.104609 
L 322.453325 68.646923 
L 317.149925 67.900743 
L 309.194825 66.456273 
L 293.284625 63.326167 
L 285.329525 61.905342 
L 269.419325 58.608897 
L 264.115925 57.804773 
L 242.902325 55.212683 
L 240.250625 55.215038 
L 237.598925 55.684873 
L 235.914769 56.485354 
L 234.947225 57.444713 
L 233.277561 59.405983 
L 232.295525 60.280879 
L 229.643825 61.946052 
L 228.63431 62.326611 
L 226.992125 62.690211 
L 224.340425 62.978901 
L 221.688725 63.037281 
L 216.385325 62.731784 
L 211.081925 62.081953 
L 197.823425 60.084288 
L 189.868325 59.069059 
L 184.564925 58.60892 
L 179.261525 58.344957 
L 173.958125 58.267245 
L 166.003025 58.459407 
L 155.396225 59.054435 
L 134.182625 60.347523 
L 126.227525 60.850855 
L 120.924125 61.481034 
L 117.310569 62.326611 
L 115.620725 63.262038 
L 112.838536 65.24724 
L 110.317325 66.553898 
L 107.665625 67.715777 
L 107.665625 67.715777 
" clip-path="url(#ped044029ea)" style="fill: none; stroke: #0098ff"/>
    <path d="M 107.665625 234.502922 
L 112.969025 234.149948 
L 118.272425 234.095961 
L 123.575825 234.293393 
L 128.879225 234.726898 
L 136.834325 235.724772 
L 160.699625 239.129566 
L 168.37434 240.484948 
L 173.958125 241.517329 
L 179.261525 242.370177 
L 184.564925 243.038568 
L 189.868325 243.671686 
L 200.475125 245.390141 
L 203.126825 245.701806 
L 205.778525 245.78538 
L 208.430225 245.256991 
L 211.235544 243.405576 
L 214.1587 240.484948 
L 216.385325 239.386546 
L 219.037025 238.638068 
L 221.688725 238.307657 
L 224.340425 238.264523 
L 226.992125 238.415205 
L 232.295525 239.058716 
L 240.609864 240.484948 
L 250.857425 242.488404 
L 258.812525 243.803244 
L 264.115925 244.394989 
L 269.419325 244.772541 
L 274.722725 244.946537 
L 282.677825 244.896904 
L 293.284625 244.502942 
L 309.194825 243.565621 
L 317.149925 243.031907 
L 322.453325 242.404273 
L 325.105025 241.891351 
L 327.756725 241.161827 
L 329.587063 240.484948 
L 333.060125 238.522669 
L 334.711489 237.564319 
L 338.363525 236.250964 
L 341.015225 235.484155 
L 345.056094 234.643691 
L 346.318625 234.502922 
M 346.318625 71.229265 
L 341.015225 71.582239 
L 335.711825 71.636226 
L 330.408425 71.438795 
L 325.105025 71.005289 
L 317.149925 70.007415 
L 293.284625 66.602622 
L 285.60991 65.24724 
L 280.026125 64.214858 
L 274.722725 63.36201 
L 269.419325 62.693619 
L 264.115925 62.060501 
L 253.509125 60.342046 
L 250.857425 60.030382 
L 248.205725 59.946807 
L 245.554025 60.475196 
L 242.748706 62.326611 
L 239.82555 65.24724 
L 237.598925 66.345641 
L 234.947225 67.094119 
L 232.295525 67.424531 
L 229.643825 67.467664 
L 226.992125 67.316982 
L 221.688725 66.673472 
L 213.374386 65.24724 
L 203.126825 63.243783 
L 195.171725 61.928944 
L 189.868325 61.337199 
L 184.564925 60.959647 
L 179.261525 60.785651 
L 171.306425 60.835283 
L 160.699625 61.229246 
L 144.789425 62.166567 
L 136.834325 62.700281 
L 131.530925 63.327914 
L 128.879225 63.840836 
L 126.227525 64.57036 
L 124.397187 65.24724 
L 120.924125 67.209518 
L 119.272761 68.167868 
L 115.620725 69.481223 
L 112.969025 70.248032 
L 108.928156 71.088497 
L 107.665625 71.229265 
L 107.665625 71.229265 
" clip-path="url(#ped044029ea)" style="fill: none; stroke: #00bcff"/>
    <path d="M 107.665625 232.125404 
L 112.969025 231.998901 
L 118.272425 232.108738 
L 126.227525 232.583277 
L 136.834325 233.529081 
L 147.441125 234.486181 
L 152.744525 235.003202 
L 160.699625 236.077589 
L 171.306425 237.587708 
L 179.261525 238.470806 
L 187.216625 239.672815 
L 195.171725 240.93848 
L 197.823425 241.037111 
L 200.475125 240.712903 
L 201.150946 240.484948 
L 203.126825 239.130694 
L 205.778525 236.702856 
L 208.430225 235.014387 
L 209.346021 234.643691 
L 211.081925 234.207867 
L 213.733625 233.872821 
L 216.385325 233.802048 
L 219.037025 233.919207 
L 224.340425 234.520092 
L 226.992125 234.996039 
L 237.598925 237.262468 
L 248.205725 239.59893 
L 253.509125 240.613643 
L 258.812525 241.322269 
L 264.115925 241.798412 
L 269.419325 242.084244 
L 277.374425 242.267737 
L 285.329525 242.24247 
L 293.284625 242.005496 
L 306.543125 241.383959 
L 311.846525 240.965301 
L 315.716676 240.484948 
L 317.149925 240.12366 
L 319.801625 239.242641 
L 323.549471 237.564319 
L 327.756725 235.571895 
L 330.408425 234.516201 
L 333.060125 233.851169 
L 338.363525 232.875007 
L 343.666925 232.294513 
L 346.318625 232.125404 
M 346.318625 73.606783 
L 341.015225 73.733287 
L 335.711825 73.62345 
L 327.756725 73.148911 
L 317.149925 72.203107 
L 306.543125 71.246007 
L 301.239725 70.728985 
L 293.284625 69.654598 
L 282.677825 68.14448 
L 274.722725 67.261382 
L 266.767625 66.059373 
L 258.812525 64.793708 
L 256.160825 64.695077 
L 253.509125 65.019285 
L 252.833304 65.24724 
L 250.857425 66.601494 
L 248.205725 69.029331 
L 245.554025 70.717801 
L 244.638229 71.088497 
L 242.902325 71.52432 
L 240.250625 71.859367 
L 237.598925 71.93014 
L 234.947225 71.812981 
L 229.643825 71.212096 
L 226.992125 70.736148 
L 216.385325 68.46972 
L 205.778525 66.133257 
L 200.475125 65.118544 
L 195.171725 64.409919 
L 189.868325 63.933775 
L 184.564925 63.647943 
L 176.609825 63.46445 
L 168.654725 63.489718 
L 160.699625 63.726692 
L 147.441125 64.348228 
L 142.137725 64.766886 
L 138.267574 65.24724 
L 136.834325 65.608527 
L 134.182625 66.489546 
L 130.434779 68.167868 
L 126.227525 70.160293 
L 123.575825 71.215986 
L 120.924125 71.881019 
L 115.620725 72.857181 
L 110.317325 73.437674 
L 107.665625 73.606783 
L 107.665625 73.606783 
" clip-path="url(#ped044029ea)" style="fill: none; stroke: #00e0fb"/>
    <path d="M 107.665625 230.148997 
L 115.620725 230.202532 
L 123.575825 230.493363 
L 147.533192 231.723062 
L 160.699625 233.041053 
L 176.626666 234.643691 
L 184.564925 235.936928 
L 187.216625 236.251737 
L 189.868325 236.400452 
L 192.520025 236.147238 
L 195.171725 235.075278 
L 195.799698 234.643691 
L 199.2384 231.723062 
L 200.475125 231.064676 
L 203.126825 230.107682 
L 205.778525 229.598552 
L 208.430225 229.421237 
L 211.081925 229.481669 
L 213.733625 229.71184 
L 219.037025 230.498489 
L 225.162173 231.723062 
L 245.554025 236.562355 
L 250.857425 237.580671 
L 256.160825 238.207477 
L 264.115925 238.890277 
L 272.071025 239.376428 
L 280.026125 239.625757 
L 287.981225 239.609939 
L 298.588025 239.360551 
L 303.891425 239.016539 
L 306.543125 238.7095 
L 309.194825 238.261952 
L 312.075053 237.564319 
L 317.149925 235.166633 
L 318.202929 234.643691 
L 319.801625 233.988947 
L 322.453325 233.026492 
L 327.004487 231.723062 
L 330.408425 231.188312 
L 335.711825 230.623826 
L 341.015225 230.296031 
L 346.318625 230.148997 
M 346.318625 75.58319 
L 338.363525 75.529655 
L 330.408425 75.238825 
L 306.451058 74.009125 
L 293.284625 72.691135 
L 277.357584 71.088497 
L 269.419325 69.795259 
L 266.767625 69.48045 
L 264.115925 69.331736 
L 261.464225 69.584949 
L 258.812525 70.656909 
L 258.184552 71.088497 
L 254.74585 74.009125 
L 253.509125 74.667512 
L 250.857425 75.624506 
L 248.205725 76.133636 
L 245.554025 76.310951 
L 242.902325 76.250519 
L 240.250625 76.020347 
L 234.947225 75.233699 
L 228.822077 74.009125 
L 208.430225 69.169832 
L 203.126825 68.151517 
L 197.823425 67.524711 
L 189.868325 66.841911 
L 181.913225 66.35576 
L 173.958125 66.10643 
L 166.003025 66.122248 
L 155.396225 66.371636 
L 150.092825 66.715648 
L 147.441125 67.022688 
L 144.789425 67.470236 
L 141.909197 68.167868 
L 136.834325 70.565554 
L 135.781321 71.088497 
L 134.182625 71.74324 
L 131.530925 72.705696 
L 126.979763 74.009125 
L 123.575825 74.543876 
L 118.272425 75.108362 
L 112.969025 75.436157 
L 107.665625 75.58319 
L 107.665625 75.58319 
" clip-path="url(#ped044029ea)" style="fill: none; stroke: #19ffde"/>
    <path d="M 107.665625 228.290212 
L 118.272425 228.448415 
L 128.879225 228.611605 
L 139.486025 228.718763 
L 147.441125 229.132138 
L 166.003025 230.35082 
L 171.306425 230.932259 
L 179.261525 232.014989 
L 181.913225 232.176027 
L 184.564925 232.064008 
L 186.187986 231.723062 
L 187.216625 231.289413 
L 192.520025 227.539865 
L 195.171725 226.275305 
L 196.464738 225.881806 
L 197.823425 225.610748 
L 200.475125 225.334974 
L 203.126825 225.279125 
L 205.778525 225.390676 
L 210.323147 225.881806 
L 213.733625 226.487635 
L 221.688725 228.241937 
L 240.250625 232.799522 
L 245.554025 233.78313 
L 250.857425 234.518052 
L 266.767625 236.201251 
L 274.722725 236.712585 
L 282.677825 236.940818 
L 293.284625 237.014951 
L 295.936325 236.91691 
L 298.588025 236.69703 
L 301.239725 236.297592 
L 303.891425 235.662201 
L 306.83364 234.643691 
L 313.133579 231.723062 
L 314.498225 231.262357 
L 317.149925 230.507755 
L 319.801625 229.908603 
L 325.105025 229.072875 
L 327.756725 228.797013 
L 333.060125 228.504207 
L 341.015225 228.308033 
L 346.318625 228.290212 
M 346.318625 77.441975 
L 335.711825 77.283773 
L 325.105025 77.120583 
L 314.498225 77.013425 
L 306.543125 76.60005 
L 287.981225 75.381367 
L 282.677825 74.799928 
L 274.722725 73.717198 
L 272.071025 73.55616 
L 269.419325 73.66818 
L 267.796264 74.009125 
L 266.767625 74.442774 
L 261.464225 78.192322 
L 258.812525 79.456883 
L 257.519512 79.850382 
L 256.160825 80.121439 
L 253.509125 80.397214 
L 250.857425 80.453062 
L 248.205725 80.341512 
L 243.661103 79.850382 
L 240.250625 79.244552 
L 232.295525 77.49025 
L 213.733625 72.932666 
L 208.430225 71.949058 
L 203.126825 71.214136 
L 187.216625 69.530937 
L 179.261525 69.019602 
L 171.306425 68.791369 
L 160.699625 68.717236 
L 158.047925 68.815278 
L 155.396225 69.035158 
L 152.744525 69.434595 
L 150.092825 70.069986 
L 147.15061 71.088497 
L 140.850671 74.009125 
L 139.486025 74.469831 
L 136.834325 75.224433 
L 134.182625 75.823585 
L 128.879225 76.659313 
L 126.227525 76.935174 
L 120.924125 77.227981 
L 112.969025 77.424155 
L 107.665625 77.441975 
L 107.665625 77.441975 
" clip-path="url(#ped044029ea)" style="fill: none; stroke: #33ffc4"/>
    <path d="M 107.665625 226.519659 
L 120.924125 226.419784 
L 134.182625 226.234858 
L 147.441125 226.49423 
L 155.396225 226.73305 
L 160.699625 227.066717 
L 173.958125 228.224844 
L 176.609825 228.17634 
L 179.261525 227.62498 
L 182.538248 225.881806 
L 184.564925 224.485862 
L 187.222725 222.961177 
L 189.868325 222.171565 
L 192.520025 221.693109 
L 195.171725 221.468577 
L 197.823425 221.445318 
L 200.475125 221.581237 
L 205.778525 222.195695 
L 211.081925 223.145214 
L 219.037025 225.029576 
L 232.295525 228.342025 
L 234.947225 228.93299 
L 242.902325 230.229616 
L 261.464225 232.753061 
L 269.419325 233.495175 
L 280.026125 234.122674 
L 287.981225 234.40764 
L 290.632925 234.346175 
L 293.284625 234.09488 
L 295.936325 233.57241 
L 298.588025 232.739532 
L 301.239725 231.636052 
L 303.891425 230.394234 
L 307.862951 228.802434 
L 309.194825 228.438479 
L 311.846525 227.855616 
L 314.498225 227.418557 
L 319.801625 226.873444 
L 325.105025 226.613178 
L 333.060125 226.492065 
L 346.318625 226.519659 
M 346.318625 79.212528 
L 333.060125 79.312404 
L 319.801625 79.49733 
L 306.543125 79.237958 
L 298.588025 78.999138 
L 293.284625 78.665471 
L 280.026125 77.507344 
L 277.374425 77.555848 
L 274.722725 78.107207 
L 271.446002 79.850382 
L 269.419325 81.246325 
L 266.761525 82.77101 
L 264.115925 83.560622 
L 261.464225 84.039078 
L 258.812525 84.263611 
L 256.160825 84.28687 
L 253.509125 84.150951 
L 248.205725 83.536493 
L 242.902325 82.586973 
L 234.947225 80.702611 
L 221.688725 77.390163 
L 219.037025 76.799198 
L 211.081925 75.502572 
L 192.520025 72.979127 
L 184.564925 72.237012 
L 173.958125 71.609513 
L 166.003025 71.324547 
L 163.351325 71.386013 
L 160.699625 71.637307 
L 158.047925 72.159777 
L 155.396225 72.992656 
L 152.744525 74.096135 
L 150.092825 75.337953 
L 146.121299 76.929753 
L 144.789425 77.293709 
L 142.137725 77.876572 
L 139.486025 78.313631 
L 134.182625 78.858744 
L 128.879225 79.119009 
L 120.924125 79.240122 
L 107.665625 79.212528 
L 107.665625 79.212528 
" clip-path="url(#ped044029ea)" style="fill: none; stroke: #50ffa7"/>
    <path d="M 107.665625 224.589071 
L 118.272425 224.296917 
L 128.879225 223.983963 
L 142.137725 223.859327 
L 150.092825 223.921111 
L 158.047925 224.296982 
L 166.003025 224.701192 
L 168.654725 224.656024 
L 171.306425 224.30412 
L 173.958125 223.426231 
L 174.869492 222.961177 
L 179.643914 220.040549 
L 181.913225 219.200768 
L 184.564925 218.513228 
L 187.216625 218.092166 
L 189.868325 217.892886 
L 192.520025 217.874119 
L 195.171725 218.00085 
L 200.475125 218.582318 
L 205.778525 219.470953 
L 211.081925 220.616109 
L 229.643825 224.901258 
L 235.522557 225.881806 
L 242.902325 226.984479 
L 256.160825 229.073672 
L 264.115925 229.986734 
L 277.374425 231.162286 
L 282.677825 231.436877 
L 285.329525 231.382511 
L 287.981225 231.069274 
L 290.632925 230.411777 
L 294.663633 228.802434 
L 298.588025 227.036489 
L 301.875148 225.881806 
L 303.891425 225.424168 
L 306.543125 224.985093 
L 311.846525 224.503041 
L 317.149925 224.36265 
L 327.756725 224.475784 
L 341.015225 224.631626 
L 346.318625 224.589071 
M 346.318625 81.143116 
L 335.711825 81.435271 
L 325.105025 81.748224 
L 311.846525 81.872861 
L 303.891425 81.811076 
L 295.936325 81.435206 
L 287.981225 81.030995 
L 285.329525 81.076163 
L 282.677825 81.428068 
L 280.026125 82.305957 
L 279.114758 82.77101 
L 274.340336 85.691639 
L 272.071025 86.531419 
L 269.419325 87.218959 
L 266.767625 87.640021 
L 264.115925 87.839302 
L 261.464225 87.858069 
L 258.812525 87.731337 
L 253.509125 87.14987 
L 248.205725 86.261235 
L 242.902325 85.116078 
L 224.340425 80.830929 
L 218.461693 79.850382 
L 211.081925 78.747708 
L 197.823425 76.658516 
L 189.868325 75.745453 
L 176.609825 74.569901 
L 171.306425 74.295311 
L 168.654725 74.349676 
L 166.003025 74.662913 
L 163.351325 75.320411 
L 159.320617 76.929753 
L 155.396225 78.695698 
L 152.109102 79.850382 
L 150.092825 80.30802 
L 147.441125 80.747094 
L 142.137725 81.229146 
L 136.834325 81.369538 
L 126.227525 81.256403 
L 112.969025 81.100562 
L 107.665625 81.143116 
L 107.665625 81.143116 
" clip-path="url(#ped044029ea)" style="fill: none; stroke: #6dff8a"/>
    <path d="M 107.665625 222.512534 
L 128.879225 221.709702 
L 142.137725 221.414457 
L 150.092825 221.503098 
L 158.047925 221.670541 
L 160.699625 221.604096 
L 163.351325 221.338077 
L 166.003025 220.720715 
L 167.737287 220.040549 
L 171.306425 218.019299 
L 172.950055 217.11992 
L 173.958125 216.712038 
L 176.609825 215.846459 
L 179.261525 215.229483 
L 181.913225 214.834968 
L 184.564925 214.632762 
L 187.216625 214.59341 
L 189.868325 214.690528 
L 195.171725 215.196734 
L 200.475125 215.994737 
L 206.296346 217.11992 
L 221.688725 220.453062 
L 229.643825 221.708255 
L 237.763175 222.961177 
L 248.205725 224.779156 
L 256.160825 225.943087 
L 272.071025 227.771683 
L 277.374425 228.097181 
L 280.026125 228.009966 
L 282.677825 227.606463 
L 285.329525 226.817483 
L 287.981225 225.695288 
L 290.632925 224.46127 
L 294.626242 222.961177 
L 295.936325 222.629358 
L 298.588025 222.141087 
L 301.239725 221.833238 
L 306.543125 221.615461 
L 311.846525 221.718658 
L 335.711825 222.690739 
L 341.015225 222.673976 
L 346.318625 222.512534 
M 346.318625 83.219654 
L 325.105025 84.022485 
L 311.846525 84.317731 
L 303.891425 84.229089 
L 295.936325 84.061646 
L 293.284625 84.128092 
L 290.632925 84.39411 
L 287.981225 85.011472 
L 286.246963 85.691639 
L 282.677825 87.712888 
L 281.034195 88.612267 
L 280.026125 89.02015 
L 277.374425 89.885729 
L 274.722725 90.502705 
L 272.071025 90.897219 
L 269.419325 91.099426 
L 266.767625 91.138777 
L 264.115925 91.04166 
L 258.812525 90.535453 
L 253.509125 89.73745 
L 247.687904 88.612267 
L 232.295525 85.279125 
L 224.340425 84.023933 
L 216.221075 82.77101 
L 205.778525 80.953032 
L 197.823425 79.7891 
L 181.913225 77.960504 
L 176.609825 77.635007 
L 173.958125 77.722221 
L 171.306425 78.125725 
L 168.654725 78.914705 
L 166.003025 80.0369 
L 163.351325 81.270917 
L 159.358008 82.77101 
L 158.047925 83.102829 
L 155.396225 83.591101 
L 152.744525 83.898949 
L 147.441125 84.116726 
L 142.137725 84.01353 
L 118.272425 83.041449 
L 112.969025 83.058212 
L 107.665625 83.219654 
L 107.665625 83.219654 
" clip-path="url(#ped044029ea)" style="fill: none; stroke: #8aff6d"/>
    <path d="M 107.665625 220.204628 
L 139.486025 219.111022 
L 152.744525 218.95844 
L 155.396225 218.718672 
L 158.047925 218.22691 
L 161.298026 217.11992 
L 167.012051 214.199292 
L 168.654725 213.608409 
L 171.306425 212.8393 
L 173.958125 212.272046 
L 176.609825 211.890659 
L 179.261525 211.676432 
L 181.913225 211.607634 
L 187.216625 211.81731 
L 192.520025 212.370482 
L 197.823425 213.152936 
L 203.534692 214.199292 
L 213.733625 216.13223 
L 219.037025 216.979163 
L 226.992125 218.035334 
L 234.947225 219.371816 
L 245.554025 221.207441 
L 256.160825 222.694404 
L 266.767625 224.131155 
L 269.419325 224.357346 
L 272.071025 224.439986 
L 274.722725 224.284297 
L 277.374425 223.779689 
L 280.026125 222.871039 
L 285.329525 220.411939 
L 286.294625 220.040549 
L 287.981225 219.520032 
L 290.632925 218.929579 
L 293.284625 218.563922 
L 295.936325 218.38446 
L 301.239725 218.423859 
L 306.543125 218.770841 
L 325.105025 220.308156 
L 330.408425 220.495967 
L 335.711825 220.51018 
L 343.666925 220.299926 
L 346.318625 220.204628 
M 346.318625 85.52756 
L 314.498225 86.621165 
L 301.239725 86.773747 
L 298.588025 87.013515 
L 295.936325 87.505277 
L 292.686224 88.612267 
L 286.972199 91.532896 
L 285.329525 92.123778 
L 282.677825 92.892888 
L 280.026125 93.460142 
L 277.374425 93.841529 
L 274.722725 94.055756 
L 272.071025 94.124554 
L 266.767625 93.914877 
L 261.464225 93.361706 
L 256.160825 92.579251 
L 250.449558 91.532896 
L 240.250625 89.599957 
L 234.947225 88.753025 
L 226.992125 87.696853 
L 219.037025 86.360371 
L 208.430225 84.524746 
L 197.823425 83.037784 
L 187.216625 81.601033 
L 184.564925 81.374841 
L 181.913225 81.292202 
L 179.261525 81.44789 
L 176.609825 81.952499 
L 173.958125 82.861149 
L 168.654725 85.320248 
L 167.689625 85.691639 
L 166.003025 86.212156 
L 163.351325 86.802609 
L 160.699625 87.168265 
L 158.047925 87.347727 
L 152.744525 87.308328 
L 147.441125 86.961346 
L 128.879225 85.424032 
L 123.575825 85.236221 
L 118.272425 85.222007 
L 110.317325 85.432262 
L 107.665625 85.52756 
L 107.665625 85.52756 
" clip-path="url(#ped044029ea)" style="fill: none; stroke: #a7ff50"/>
    <path d="M 107.665625 217.893424 
L 118.272425 217.542519 
L 131.530925 217.001093 
L 144.789425 216.697018 
L 147.441125 216.452603 
L 150.092825 216.005776 
L 152.744525 215.284649 
L 155.5197 214.199292 
L 161.832147 211.278663 
L 163.351325 210.797112 
L 166.003025 210.104539 
L 168.654725 209.577327 
L 171.306425 209.206743 
L 173.958125 208.978698 
L 179.261525 208.882622 
L 184.564925 209.163333 
L 189.868325 209.70921 
L 195.171725 210.433801 
L 208.430225 212.482532 
L 226.992125 214.906654 
L 242.902325 217.560982 
L 264.115925 220.536277 
L 266.767625 220.572213 
L 269.419325 220.332407 
L 270.789086 220.040549 
L 272.071025 219.633278 
L 277.374425 217.222502 
L 277.602148 217.11992 
L 280.026125 216.184637 
L 282.677825 215.429567 
L 285.329525 214.942812 
L 287.981225 214.692613 
L 290.632925 214.635889 
L 295.936325 214.925414 
L 301.239725 215.511959 
L 317.149925 217.497945 
L 322.453325 217.889355 
L 327.756725 218.066004 
L 335.711825 218.055602 
L 346.318625 217.893424 
M 346.318625 87.838763 
L 335.711825 88.189668 
L 322.453325 88.731094 
L 309.194825 89.035169 
L 306.543125 89.279584 
L 303.891425 89.726412 
L 301.239725 90.447539 
L 298.46455 91.532896 
L 292.152103 94.453524 
L 290.632925 94.935076 
L 287.981225 95.627648 
L 285.329525 96.154861 
L 282.677825 96.525444 
L 280.026125 96.75349 
L 274.722725 96.849565 
L 269.419325 96.568855 
L 264.115925 96.022978 
L 258.812525 95.298386 
L 245.554025 93.249656 
L 226.992125 90.825534 
L 211.081925 88.171205 
L 189.868325 85.195911 
L 187.216625 85.159975 
L 184.564925 85.39978 
L 183.195164 85.691639 
L 181.913225 86.098909 
L 176.609825 88.509686 
L 176.382102 88.612267 
L 173.958125 89.54755 
L 171.306425 90.302621 
L 168.654725 90.789375 
L 166.003025 91.039574 
L 163.351325 91.096298 
L 158.047925 90.806773 
L 152.744525 90.220229 
L 136.834325 88.234243 
L 131.530925 87.842832 
L 126.227525 87.666183 
L 118.272425 87.676585 
L 107.665625 87.838763 
L 107.665625 87.838763 
" clip-path="url(#ped044029ea)" style="fill: none; stroke: #c4ff33"/>
    <path d="M 107.665625 215.504487 
L 134.182625 214.725126 
L 139.486025 214.410528 
L 142.137725 214.072542 
L 144.789425 213.398861 
L 147.441125 212.477828 
L 157.418792 208.358035 
L 160.699625 207.554417 
L 163.351325 207.063101 
L 166.003025 206.703746 
L 171.306425 206.337333 
L 176.609825 206.350511 
L 181.913225 206.65187 
L 187.216625 207.154019 
L 195.171725 208.158865 
L 200.475125 208.780203 
L 216.385325 210.244482 
L 223.426022 211.278663 
L 237.598925 213.47459 
L 245.554025 214.675463 
L 253.509125 215.928272 
L 256.160825 216.254198 
L 258.812525 216.451333 
L 261.464225 216.396347 
L 264.115925 215.955948 
L 266.767625 215.085826 
L 272.071025 212.698316 
L 274.722725 211.741561 
L 277.374425 211.101542 
L 280.026125 210.773489 
L 282.677825 210.655502 
L 285.329525 210.705455 
L 290.632925 211.156495 
L 295.936325 211.956169 
L 309.443574 214.199292 
L 314.498225 214.804466 
L 319.801625 215.183644 
L 327.756725 215.409329 
L 343.666925 215.546572 
L 346.318625 215.504487 
M 346.318625 90.2277 
L 319.801625 91.007061 
L 314.498225 91.32166 
L 311.846525 91.659646 
L 309.194825 92.333326 
L 306.543125 93.25436 
L 296.565458 97.374153 
L 293.284625 98.17777 
L 290.632925 98.669087 
L 287.981225 99.028442 
L 282.677825 99.394855 
L 277.374425 99.381677 
L 272.071025 99.080317 
L 266.767625 98.578169 
L 258.812525 97.573322 
L 253.509125 96.951984 
L 237.598925 95.487706 
L 230.558228 94.453524 
L 216.385325 92.257597 
L 208.430225 91.056724 
L 200.475125 89.803915 
L 197.823425 89.47799 
L 195.171725 89.280854 
L 192.520025 89.335841 
L 189.868325 89.77624 
L 187.216625 90.646361 
L 181.913225 93.033871 
L 179.261525 93.990627 
L 176.609825 94.630645 
L 173.958125 94.958698 
L 171.306425 95.076686 
L 168.654725 95.026732 
L 163.351325 94.575692 
L 158.047925 93.776018 
L 144.540676 91.532896 
L 139.486025 90.927721 
L 134.182625 90.548543 
L 126.227525 90.322859 
L 110.317325 90.185616 
L 107.665625 90.2277 
L 107.665625 90.2277 
" clip-path="url(#ped044029ea)" style="fill: none; stroke: #deff19"/>
    <path d="M 107.665625 212.973193 
L 128.879225 212.489353 
L 134.182625 211.990247 
L 137.995264 211.278663 
L 139.486025 210.767686 
L 144.789425 208.570055 
L 147.441125 207.47272 
L 150.092825 206.5139 
L 153.730544 205.437406 
L 158.047925 204.64215 
L 163.351325 204.066649 
L 168.654725 203.856109 
L 173.958125 203.936788 
L 179.261525 204.228019 
L 187.216625 204.916708 
L 192.520025 205.441536 
L 197.823425 205.73179 
L 205.778525 206.103367 
L 211.081925 206.5836 
L 219.037025 207.590097 
L 244.188779 211.278663 
L 248.205725 211.870729 
L 250.857425 212.125265 
L 253.509125 212.208062 
L 256.160825 212.018987 
L 259.311127 211.278663 
L 266.767625 208.012494 
L 269.419325 207.243597 
L 272.071025 206.752745 
L 274.722725 206.511723 
L 277.374425 206.479618 
L 280.026125 206.615402 
L 285.329525 207.242619 
L 291.686503 208.358035 
L 303.891425 210.742368 
L 307.067194 211.278663 
L 311.846525 211.797426 
L 319.801625 212.240373 
L 335.711825 212.951631 
L 343.666925 213.017747 
L 346.318625 212.973193 
M 346.318625 92.758994 
L 325.105025 93.242834 
L 319.801625 93.74194 
L 315.988986 94.453524 
L 314.498225 94.964501 
L 309.194825 97.162132 
L 306.543125 98.259467 
L 303.891425 99.218288 
L 300.253706 100.294781 
L 295.936325 101.090037 
L 290.632925 101.665539 
L 285.329525 101.876079 
L 280.026125 101.795399 
L 274.722725 101.504169 
L 266.767625 100.81548 
L 261.464225 100.290652 
L 256.160825 100.000398 
L 248.205725 99.62882 
L 242.902325 99.148588 
L 234.947225 98.14209 
L 209.795471 94.453524 
L 205.778525 93.861459 
L 203.126825 93.606922 
L 200.475125 93.524126 
L 197.823425 93.7132 
L 194.673123 94.453524 
L 187.216625 97.719693 
L 184.564925 98.488591 
L 181.913225 98.979442 
L 179.261525 99.220464 
L 176.609825 99.25257 
L 173.958125 99.116786 
L 168.654725 98.489568 
L 162.297747 97.374153 
L 150.092825 94.989819 
L 146.917056 94.453524 
L 142.137725 93.934761 
L 134.182625 93.491815 
L 118.272425 92.780556 
L 110.317325 92.714441 
L 107.665625 92.758994 
L 107.665625 92.758994 
" clip-path="url(#ped044029ea)" style="fill: none; stroke: #fbf100"/>
    <path d="M 107.665625 210.320607 
L 120.924125 210.29406 
L 123.575825 210.153193 
L 126.227525 209.890111 
L 128.879225 209.46519 
L 133.189052 208.358035 
L 136.834325 206.866945 
L 140.241446 205.437406 
L 144.789425 203.922852 
L 147.441125 203.216157 
L 150.71253 202.516778 
L 155.396225 201.915269 
L 160.699625 201.556523 
L 166.003025 201.465777 
L 171.306425 201.582133 
L 179.261525 202.017166 
L 187.586581 202.516778 
L 195.171725 202.567015 
L 200.475125 202.700804 
L 205.778525 203.083182 
L 213.733625 203.901752 
L 229.643825 205.836734 
L 242.902325 207.708743 
L 245.554025 207.901786 
L 248.205725 207.846218 
L 250.857425 207.417081 
L 253.509125 206.579233 
L 258.812525 204.253801 
L 261.464225 203.291814 
L 264.712132 202.516778 
L 266.767625 202.259121 
L 269.419325 202.130083 
L 272.071025 202.177035 
L 275.960224 202.516778 
L 280.026125 203.135108 
L 287.981225 204.751557 
L 295.936325 206.494222 
L 301.239725 207.467814 
L 306.543125 208.192016 
L 330.408425 210.005394 
L 335.711825 210.228204 
L 343.666925 210.316949 
L 346.318625 210.320607 
M 346.318625 95.411581 
L 333.060125 95.438128 
L 330.408425 95.578995 
L 327.756725 95.842077 
L 325.105025 96.266998 
L 320.795198 97.374153 
L 317.149925 98.865242 
L 313.742804 100.294781 
L 309.194825 101.809336 
L 306.543125 102.51603 
L 303.27172 103.21541 
L 298.588025 103.816918 
L 293.284625 104.175665 
L 287.981225 104.266411 
L 282.677825 104.150055 
L 274.722725 103.715022 
L 266.397669 103.21541 
L 258.812525 103.165173 
L 253.509125 103.031383 
L 248.205725 102.649005 
L 240.250625 101.830436 
L 224.340425 99.895454 
L 211.081925 98.023445 
L 208.430225 97.830401 
L 205.778525 97.885969 
L 203.126825 98.315107 
L 200.475125 99.152954 
L 195.171725 101.478387 
L 192.520025 102.440374 
L 189.272118 103.21541 
L 187.216625 103.473066 
L 184.564925 103.602105 
L 181.913225 103.555153 
L 178.024026 103.21541 
L 173.958125 102.597079 
L 166.003025 100.98063 
L 158.047925 99.237966 
L 152.744525 98.264373 
L 147.441125 97.540171 
L 123.575825 95.726794 
L 118.272425 95.503983 
L 110.317325 95.415238 
L 107.665625 95.411581 
L 107.665625 95.411581 
" clip-path="url(#ped044029ea)" style="fill: none; stroke: #ffd000"/>
    <path d="M 107.665625 207.652249 
L 112.969025 207.766479 
L 115.620725 207.730501 
L 118.272425 207.569882 
L 120.924125 207.228049 
L 123.575825 206.666571 
L 127.516241 205.437406 
L 134.744875 202.516778 
L 136.834325 201.865477 
L 139.486025 201.16018 
L 144.789425 200.097115 
L 148.598891 199.596149 
L 152.744525 199.285559 
L 158.047925 199.10202 
L 163.351325 199.10745 
L 171.306425 199.3675 
L 179.261525 199.637972 
L 184.564925 199.580846 
L 192.520025 199.403904 
L 198.258742 199.596149 
L 205.778525 200.13653 
L 216.385325 201.112815 
L 224.340425 202.001124 
L 234.947225 203.331013 
L 237.598925 203.505962 
L 240.250625 203.51368 
L 242.902325 203.259229 
L 245.962438 202.516778 
L 253.509125 199.338661 
L 256.160825 198.580704 
L 258.812525 198.07775 
L 261.464225 197.814083 
L 264.115925 197.75911 
L 266.767625 197.876768 
L 272.071025 198.494319 
L 278.011144 199.596149 
L 293.284625 203.028408 
L 298.588025 203.809913 
L 303.891425 204.320325 
L 311.846525 205.090431 
L 322.453325 206.430457 
L 327.756725 206.867243 
L 335.711825 207.249621 
L 346.318625 207.652249 
M 346.318625 98.079938 
L 341.015225 97.965708 
L 338.363525 98.001686 
L 335.711825 98.162306 
L 333.060125 98.504138 
L 330.408425 99.065617 
L 326.468009 100.294781 
L 319.239375 103.21541 
L 317.149925 103.866711 
L 314.498225 104.572007 
L 309.194825 105.635073 
L 305.385359 106.136038 
L 301.239725 106.446628 
L 295.936325 106.630167 
L 290.632925 106.624737 
L 282.677825 106.364688 
L 274.722725 106.094215 
L 269.419325 106.151342 
L 261.464225 106.328283 
L 255.725508 106.136038 
L 248.205725 105.595658 
L 237.598925 104.619373 
L 229.643825 103.731063 
L 219.037025 102.401174 
L 216.385325 102.226225 
L 213.733625 102.218508 
L 211.081925 102.472959 
L 208.021812 103.21541 
L 200.475125 106.393527 
L 197.823425 107.151483 
L 195.171725 107.654438 
L 192.520025 107.918105 
L 189.868325 107.973077 
L 187.216625 107.855419 
L 181.913225 107.237868 
L 175.973106 106.136038 
L 160.699625 102.703779 
L 155.396225 101.922274 
L 150.092825 101.411863 
L 142.137725 100.641756 
L 131.530925 99.30173 
L 126.227525 98.864944 
L 118.272425 98.482566 
L 107.665625 98.079938 
L 107.665625 98.079938 
" clip-path="url(#ped044029ea)" style="fill: none; stroke: #ffae00"/>
    <path d="M 107.665625 204.820467 
L 110.317325 204.778518 
L 112.969025 204.541298 
L 115.620725 204.055088 
L 118.272425 203.322054 
L 120.924125 202.385467 
L 126.227525 200.247146 
L 128.879225 199.354398 
L 131.530925 198.660524 
L 134.182625 198.101586 
L 139.486025 197.31592 
L 144.789425 196.870077 
L 150.092825 196.669299 
L 158.047925 196.691578 
L 171.306425 196.924525 
L 176.609825 196.772674 
L 184.564925 196.351086 
L 189.868325 196.328953 
L 197.823425 196.636212 
L 208.430225 197.316023 
L 216.385325 198.020945 
L 229.643825 199.280733 
L 232.295525 199.305992 
L 234.947225 199.07048 
L 237.598925 198.501985 
L 240.250625 197.607368 
L 245.554025 195.399436 
L 248.205725 194.501012 
L 251.419114 193.754892 
L 253.509125 193.487817 
L 256.160825 193.337195 
L 258.812525 193.353537 
L 263.774191 193.754892 
L 264.115925 193.792312 
L 269.419325 194.692996 
L 274.722725 195.810247 
L 285.329525 198.206138 
L 290.632925 199.164486 
L 294.747559 199.596149 
L 298.588025 199.872288 
L 303.891425 200.532003 
L 319.801625 202.933215 
L 327.756725 203.554954 
L 346.318625 204.820467 
M 346.318625 100.91172 
L 343.666925 100.953669 
L 341.015225 101.19089 
L 338.363525 101.677099 
L 335.711825 102.410133 
L 333.060125 103.346721 
L 327.756725 105.485041 
L 325.105025 106.377789 
L 322.453325 107.071664 
L 319.801625 107.630601 
L 314.498225 108.416268 
L 309.194825 108.862111 
L 303.891425 109.062889 
L 295.936325 109.040609 
L 282.677825 108.807663 
L 277.374425 108.959514 
L 269.419325 109.381101 
L 264.115925 109.403234 
L 256.160825 109.095975 
L 245.554025 108.416164 
L 237.598925 107.711242 
L 224.340425 106.451455 
L 221.688725 106.426195 
L 219.037025 106.661707 
L 216.385325 107.230203 
L 213.733625 108.124819 
L 208.430225 110.332751 
L 205.778525 111.231175 
L 202.565136 111.977295 
L 200.475125 112.24437 
L 197.823425 112.394993 
L 195.171725 112.37865 
L 190.210059 111.977295 
L 189.868325 111.939875 
L 184.564925 111.039192 
L 179.261525 109.92194 
L 168.654725 107.52605 
L 163.351325 106.567702 
L 159.236691 106.136038 
L 155.396225 105.859899 
L 150.092825 105.200184 
L 134.182625 102.798972 
L 126.227525 102.177233 
L 107.665625 100.91172 
L 107.665625 100.91172 
" clip-path="url(#ped044029ea)" style="fill: none; stroke: #ff8d00"/>
    <path d="M 107.665625 200.907046 
L 110.317325 200.218921 
L 112.969025 199.18286 
L 115.620725 197.984438 
L 119.072124 196.675521 
L 120.924125 196.144747 
L 123.575825 195.522056 
L 128.879225 194.633822 
L 134.182625 194.16316 
L 139.486025 193.988917 
L 147.441125 194.005115 
L 163.351325 194.2285 
L 168.654725 194.006223 
L 179.261525 193.308322 
L 184.564925 193.242682 
L 192.520025 193.410655 
L 203.126825 193.893852 
L 221.688725 195.09019 
L 224.340425 195.054869 
L 226.992125 194.827288 
L 229.643825 194.33833 
L 232.295525 193.529348 
L 239.006655 190.834264 
L 240.250625 190.436124 
L 242.902325 189.755388 
L 245.554025 189.286101 
L 248.205725 189.021461 
L 250.857425 188.941066 
L 253.509125 189.017761 
L 258.812525 189.52955 
L 264.115925 190.384345 
L 272.071025 192.088651 
L 280.026125 193.809965 
L 285.329525 194.44539 
L 293.284625 195.161566 
L 298.588025 195.970487 
L 309.194825 197.942424 
L 314.498225 198.694558 
L 323.473837 199.596149 
L 327.756725 200.073426 
L 335.711825 201.007249 
L 341.015225 201.336685 
L 343.666925 201.261597 
L 346.318625 200.907046 
M 346.318625 104.825142 
L 343.666925 105.513266 
L 341.015225 106.549327 
L 338.363525 107.747749 
L 334.912126 109.056667 
L 333.060125 109.58744 
L 330.408425 110.210132 
L 325.105025 111.098365 
L 319.801625 111.569028 
L 314.498225 111.74327 
L 306.543125 111.727073 
L 290.632925 111.503687 
L 285.329525 111.725964 
L 274.722725 112.423866 
L 269.419325 112.489505 
L 261.464225 112.321532 
L 250.857425 111.838335 
L 232.295525 110.641998 
L 229.643825 110.677318 
L 226.992125 110.9049 
L 224.340425 111.393857 
L 221.688725 112.202839 
L 214.977595 114.897924 
L 213.733625 115.296064 
L 211.081925 115.9768 
L 208.430225 116.446087 
L 205.778525 116.710727 
L 203.126825 116.791121 
L 200.475125 116.714426 
L 195.171725 116.202638 
L 189.868325 115.347842 
L 181.913225 113.643537 
L 173.958125 111.922222 
L 168.654725 111.286797 
L 160.699625 110.570621 
L 155.396225 109.7617 
L 144.789425 107.789763 
L 139.486025 107.037629 
L 130.510413 106.136038 
L 126.227525 105.658762 
L 118.272425 104.724939 
L 112.969025 104.395502 
L 110.317325 104.470591 
L 107.665625 104.825142 
L 107.665625 104.825142 
" clip-path="url(#ped044029ea)" style="fill: none; stroke: #ff6c00"/>
    <path d="M 107.665625 193.999873 
L 110.317325 192.762549 
L 112.969025 191.846307 
L 115.620725 191.258938 
L 119.48177 190.834264 
L 123.575825 190.651428 
L 128.879225 190.581676 
L 134.182625 190.693973 
L 152.744525 191.381791 
L 158.047925 191.279456 
L 163.958141 190.834264 
L 168.654725 190.424344 
L 173.958125 190.188762 
L 181.913225 190.114724 
L 189.868325 190.257521 
L 200.475125 190.669042 
L 208.430225 191.081067 
L 213.733625 191.139263 
L 218.238638 190.834264 
L 219.037025 190.715163 
L 221.688725 190.112668 
L 224.340425 189.27746 
L 232.295525 186.285225 
L 234.947225 185.55197 
L 237.800237 184.993007 
L 240.250625 184.717556 
L 242.902325 184.564556 
L 245.554025 184.548847 
L 248.205725 184.660539 
L 253.509125 185.222895 
L 258.812525 186.089621 
L 266.767625 187.659794 
L 269.419325 188.191951 
L 274.722725 188.970619 
L 280.026125 189.391851 
L 285.329525 189.820014 
L 290.632925 190.643362 
L 303.891425 193.265598 
L 306.903822 193.754892 
L 319.801625 195.317149 
L 330.408425 196.96863 
L 333.060125 197.161267 
L 335.711825 197.19005 
L 338.363525 196.994025 
L 341.015225 196.415257 
L 343.666925 195.313482 
L 346.318625 193.999873 
M 346.318625 111.732314 
L 343.666925 112.969639 
L 341.015225 113.88588 
L 338.363525 114.473249 
L 334.50248 114.897924 
L 330.408425 115.080759 
L 325.105025 115.150511 
L 319.801625 115.038214 
L 301.239725 114.350397 
L 295.936325 114.452731 
L 290.026109 114.897924 
L 285.329525 115.307843 
L 280.026125 115.543426 
L 272.071025 115.617464 
L 264.115925 115.474666 
L 253.509125 115.063146 
L 245.554025 114.651121 
L 240.250625 114.592924 
L 235.745612 114.897924 
L 234.947225 115.017025 
L 232.295525 115.619519 
L 229.643825 116.454728 
L 221.688725 119.446962 
L 219.037025 120.180218 
L 216.184013 120.739181 
L 213.733625 121.014631 
L 211.081925 121.167631 
L 208.430225 121.18334 
L 205.778525 121.071648 
L 200.475125 120.509292 
L 195.171725 119.642567 
L 187.216625 118.072394 
L 184.564925 117.540237 
L 179.261525 116.761568 
L 173.958125 116.340336 
L 168.654725 115.912174 
L 163.351325 115.088826 
L 150.092825 112.46659 
L 147.080428 111.977295 
L 134.182625 110.415039 
L 123.575825 108.763557 
L 120.924125 108.57092 
L 118.272425 108.542137 
L 115.620725 108.738163 
L 112.969025 109.31693 
L 110.317325 110.418705 
L 107.665625 111.732314 
L 107.665625 111.732314 
" clip-path="url(#ped044029ea)" style="fill: none; stroke: #ff4e00"/>
    <path d="M 107.665625 186.211727 
L 110.317325 185.850183 
L 112.969025 185.730417 
L 115.620725 185.813378 
L 131.530925 187.151802 
L 142.137725 188.019033 
L 147.441125 188.091955 
L 152.744525 187.821462 
L 160.699625 187.129712 
L 166.003025 186.880485 
L 173.958125 186.803918 
L 184.564925 186.918674 
L 200.475125 187.269531 
L 205.778525 187.100034 
L 208.430225 186.816682 
L 211.081925 186.346721 
L 213.733625 185.678809 
L 216.385325 184.815318 
L 223.861298 182.072378 
L 226.992125 181.241997 
L 229.643825 180.723134 
L 232.295525 180.377038 
L 234.947225 180.192067 
L 240.250625 180.204498 
L 245.554025 180.590378 
L 250.857425 181.269932 
L 264.115925 183.351647 
L 269.419325 183.795028 
L 274.722725 184.000461 
L 277.374425 184.205982 
L 280.026125 184.538546 
L 285.329525 185.546639 
L 295.936325 187.65627 
L 298.588025 188.066468 
L 309.194825 189.454706 
L 314.498225 190.379987 
L 319.801625 191.482135 
L 322.453325 191.917624 
L 325.105025 192.202073 
L 327.756725 192.23488 
L 330.408425 191.877634 
L 333.666623 190.834264 
L 335.711825 189.767962 
L 339.950873 187.913635 
L 341.015225 187.555856 
L 343.666925 186.794298 
L 346.318625 186.211727 
M 346.318625 119.52046 
L 343.666925 119.882005 
L 341.015225 120.001771 
L 338.363525 119.91881 
L 322.453325 118.580386 
L 311.846525 117.713154 
L 306.543125 117.640232 
L 301.239725 117.910725 
L 293.284625 118.602475 
L 287.981225 118.851703 
L 280.026125 118.92827 
L 269.419325 118.813513 
L 253.509125 118.462657 
L 248.205725 118.632153 
L 245.554025 118.915505 
L 242.902325 119.385467 
L 240.250625 120.053379 
L 237.598925 120.91687 
L 230.122952 123.659809 
L 226.992125 124.49019 
L 224.340425 125.009053 
L 221.688725 125.355149 
L 219.037025 125.54012 
L 213.733625 125.52769 
L 208.430225 125.14181 
L 203.126825 124.462255 
L 189.868325 122.38054 
L 184.564925 121.93716 
L 179.261525 121.731726 
L 176.609825 121.526206 
L 173.958125 121.193641 
L 168.654725 120.185549 
L 158.047925 118.075918 
L 155.396225 117.66572 
L 144.789425 116.277482 
L 139.486025 115.3522 
L 134.182625 114.250053 
L 131.530925 113.814564 
L 128.879225 113.530115 
L 126.227525 113.497308 
L 123.575825 113.854554 
L 120.317627 114.897924 
L 118.272425 115.964226 
L 114.033377 117.818552 
L 112.969025 118.176332 
L 110.317325 118.93789 
L 107.665625 119.52046 
L 107.665625 119.52046 
" clip-path="url(#ped044029ea)" style="fill: none; stroke: #ff2d00"/>
    <path d="M 107.665625 180.114585 
L 112.969025 180.722428 
L 126.227525 182.93586 
L 131.530925 183.49085 
L 136.834325 183.870887 
L 139.486025 183.919084 
L 144.789425 183.623108 
L 150.092825 183.237793 
L 158.047925 183.048255 
L 166.003025 183.043077 
L 189.868325 183.440422 
L 195.171725 183.127254 
L 197.823425 182.80684 
L 201.818203 182.072378 
L 205.778525 180.805448 
L 213.733625 177.923127 
L 216.385325 177.165287 
L 220.95007 176.231122 
L 224.340425 175.832605 
L 229.643825 175.576975 
L 234.947225 175.726406 
L 240.657792 176.231122 
L 256.160825 177.964729 
L 258.812525 178.062678 
L 266.767625 178.097292 
L 269.419325 178.323154 
L 274.951348 179.15175 
L 290.632925 181.8971 
L 298.588025 182.833635 
L 303.891425 183.86681 
L 311.846525 185.613185 
L 314.498225 186.057371 
L 317.149925 186.365366 
L 319.801625 186.395931 
L 322.453325 185.868575 
L 324.307697 184.993007 
L 327.974714 182.072378 
L 330.408425 180.773223 
L 333.060125 180.027547 
L 335.711825 179.747836 
L 341.015225 179.815568 
L 346.318625 180.114585 
M 346.318625 125.617603 
L 341.015225 125.009759 
L 327.756725 122.796328 
L 322.453325 122.241337 
L 317.149925 121.861301 
L 314.498225 121.813103 
L 309.194825 122.10908 
L 303.891425 122.494395 
L 295.936325 122.683933 
L 287.981225 122.689111 
L 264.115925 122.291766 
L 258.812525 122.604933 
L 256.160825 122.925348 
L 252.166047 123.659809 
L 248.205725 124.926739 
L 240.250625 127.80906 
L 237.598925 128.5669 
L 233.03418 129.501066 
L 229.643825 129.899582 
L 224.340425 130.155212 
L 219.037025 130.005782 
L 213.326458 129.501066 
L 197.823425 127.767459 
L 195.171725 127.66951 
L 187.216625 127.634895 
L 184.564925 127.409033 
L 179.032902 126.580438 
L 163.351325 123.835087 
L 155.396225 122.898553 
L 150.092825 121.865378 
L 142.137725 120.119002 
L 139.486025 119.674817 
L 136.834325 119.366822 
L 134.182625 119.336257 
L 131.530925 119.863612 
L 129.676553 120.739181 
L 126.009536 123.659809 
L 123.575825 124.958964 
L 120.924125 125.70464 
L 118.272425 125.984352 
L 112.969025 125.91662 
L 107.665625 125.617603 
L 107.665625 125.617603 
" clip-path="url(#ped044029ea)" style="fill: none; stroke: #f60b00"/>
    <path d="M 107.665625 174.915175 
L 120.924125 177.743674 
L 123.575825 178.115389 
L 126.227525 178.346719 
L 128.879225 178.410369 
L 136.834325 178.053134 
L 142.137725 177.928506 
L 147.441125 177.984537 
L 158.047925 178.418602 
L 176.609825 179.319218 
L 181.913225 179.109214 
L 184.564925 178.712963 
L 187.216625 178.143902 
L 189.868325 177.42328 
L 193.539202 176.231122 
L 197.823425 174.521196 
L 201.364226 173.310493 
L 203.126825 172.805034 
L 205.778525 172.165799 
L 208.430225 171.656659 
L 211.081925 171.267644 
L 216.385325 170.819046 
L 221.688725 170.727545 
L 226.992125 170.884794 
L 234.947225 171.435819 
L 242.902325 171.962255 
L 245.554025 172.008003 
L 250.857425 171.75669 
L 253.509125 171.606046 
L 256.160825 171.584855 
L 258.812525 171.707442 
L 264.115925 172.278594 
L 277.374425 174.206093 
L 285.329525 175.114315 
L 290.632925 175.94413 
L 298.588025 177.772546 
L 304.521378 179.15175 
L 306.543125 179.415677 
L 309.194825 179.43786 
L 310.82498 179.15175 
L 311.846525 178.707462 
L 314.573817 176.231122 
L 317.149925 173.217979 
L 319.801625 171.81571 
L 322.453325 171.203382 
L 325.105025 171.05357 
L 327.756725 171.193548 
L 330.408425 171.528632 
L 335.711825 172.557466 
L 346.318625 174.915175 
M 346.318625 130.817012 
L 333.060125 127.988513 
L 330.408425 127.616799 
L 327.756725 127.385468 
L 325.105025 127.321819 
L 317.149925 127.679054 
L 311.846525 127.803682 
L 306.543125 127.74765 
L 295.936325 127.313585 
L 277.374425 126.412969 
L 272.071025 126.622974 
L 269.419325 127.019225 
L 266.767625 127.588285 
L 264.115925 128.308908 
L 260.445048 129.501066 
L 256.160825 131.210991 
L 252.620024 132.421694 
L 250.857425 132.927153 
L 248.205725 133.566388 
L 245.554025 134.075528 
L 242.902325 134.464544 
L 237.598925 134.913141 
L 232.295525 135.004642 
L 226.992125 134.847394 
L 219.037025 134.296368 
L 211.081925 133.769932 
L 208.430225 133.724184 
L 203.126825 133.975498 
L 200.475125 134.126142 
L 197.823425 134.147333 
L 195.171725 134.024746 
L 189.868325 133.453594 
L 176.609825 131.526094 
L 168.654725 130.617873 
L 163.351325 129.788057 
L 155.396225 127.959642 
L 149.462872 126.580438 
L 147.441125 126.316511 
L 144.789425 126.294328 
L 143.15927 126.580438 
L 142.137725 127.024725 
L 139.410433 129.501066 
L 136.834325 132.514208 
L 134.182625 133.916477 
L 131.530925 134.528806 
L 128.879225 134.678618 
L 126.227525 134.53864 
L 123.575825 134.203556 
L 118.272425 133.174722 
L 107.665625 130.817012 
L 107.665625 130.817012 
" clip-path="url(#ped044029ea)" style="fill: none; stroke: #cd0000"/>
    <path d="M 107.665625 169.34288 
L 112.969025 170.376953 
L 115.620725 170.480488 
L 118.272425 170.289123 
L 120.924125 169.953659 
L 123.575825 169.80863 
L 128.879225 169.994029 
L 142.137725 170.984207 
L 147.441125 171.609037 
L 160.699625 173.348947 
L 163.351325 173.464886 
L 167.423447 173.310493 
L 168.654725 173.061437 
L 171.306425 172.072309 
L 174.676224 170.389865 
L 176.609825 168.810875 
L 179.261525 167.177012 
L 181.913225 166.072774 
L 184.564925 165.410774 
L 187.216625 165.019297 
L 192.520025 164.67041 
L 197.823425 164.586606 
L 205.778525 164.715464 
L 219.037025 165.251691 
L 224.340425 165.4247 
L 229.643825 165.342868 
L 232.295525 165.096118 
L 235.570198 164.548608 
L 237.598925 164.103054 
L 240.250625 163.771106 
L 242.902325 163.659453 
L 248.205725 163.848017 
L 269.419325 165.670664 
L 274.722725 166.467326 
L 280.026125 167.59826 
L 290.632925 170.000551 
L 293.284625 170.444475 
L 296.030768 170.389865 
L 298.588025 168.200477 
L 298.97423 167.469236 
L 299.543366 161.627979 
L 301.239725 159.020902 
L 301.809953 158.707351 
L 303.891425 158.167325 
L 306.543125 158.109236 
L 309.194825 158.381624 
L 311.846525 158.873502 
L 317.149925 160.272212 
L 322.453325 161.913012 
L 341.015225 168.054243 
L 346.318625 169.34288 
M 346.318625 136.389307 
L 341.015225 135.355234 
L 338.363525 135.2517 
L 335.711825 135.443065 
L 333.060125 135.778529 
L 330.408425 135.923557 
L 325.105025 135.738158 
L 311.846525 134.74798 
L 306.543125 134.12315 
L 293.284625 132.383241 
L 290.632925 132.267302 
L 286.560803 132.421694 
L 285.329525 132.67075 
L 282.677825 133.659878 
L 279.308026 135.342323 
L 277.374425 136.921313 
L 274.722725 138.555175 
L 272.071025 139.659414 
L 269.419325 140.321414 
L 266.767625 140.712891 
L 261.464225 141.061777 
L 256.160825 141.145581 
L 248.205725 141.016724 
L 234.947225 140.480496 
L 229.643825 140.307487 
L 224.340425 140.38932 
L 221.688725 140.63607 
L 218.414052 141.18358 
L 216.385325 141.629134 
L 213.733625 141.961081 
L 211.081925 142.072734 
L 205.778525 141.88417 
L 184.564925 140.061524 
L 179.261525 139.264861 
L 173.958125 138.133928 
L 163.351325 135.731637 
L 160.699625 135.287713 
L 157.953482 135.342323 
L 155.396225 137.531711 
L 155.01002 138.262951 
L 154.440884 144.104208 
L 152.744525 146.711286 
L 152.174297 147.024837 
L 150.092825 147.564863 
L 147.441125 147.622951 
L 144.789425 147.350563 
L 142.137725 146.858686 
L 136.834325 145.459975 
L 131.530925 143.819175 
L 112.969025 137.677945 
L 107.665625 136.389307 
L 107.665625 136.389307 
" clip-path="url(#ped044029ea)" style="fill: none; stroke: #a40000"/>
    <path clip-path="url(#ped044029ea)" style="fill: none; stroke: #800000"/>
   </g>
   <g id="patch_3">
    <path d="M 107.665625 284.294375 
L 107.665625 21.437813 
" style="fill: none; stroke: #000000; stroke-width: 0.8; stroke-linejoin: miter; stroke-linecap: square"/>
   </g>
   <g id="patch_4">
    <path d="M 107.665625 284.294375 
L 346.318625 284.294375 
" style="fill: none; stroke: #000000; stroke-width: 0.8; stroke-linejoin: miter; stroke-linecap: square"/>
   </g>
  </g>
  <g id="axes_2">
   <g id="patch_5">
    <path d="M 361.234437 284.294375 
L 374.377266 284.294375 
L 374.377266 21.437813 
L 361.234437 21.437813 
z
" style="fill: #ffffff"/>
   </g>
   <g id="matplotlib.axis_3"/>
   <g id="matplotlib.axis_4">
    <g id="ytick_6">
     <g id="line2d_11">
      <defs>
       <path id="m1211b5225b" d="M 0 0 
L 3.5 0 
" style="stroke: #000000; stroke-width: 0.8"/>
      </defs>
      <g>
       <use xlink:href="#m1211b5225b" x="374.377266" y="243.441704" style="stroke: #000000; stroke-width: 0.8"/>
      </g>
     </g>
     <g id="text_13">
      <!-- 1.05 -->
      <g transform="translate(381.377266 250.280298) scale(0.18 -0.18)">
       <defs>
        <path id="DejaVuSerif-31" d="M 909 0 
L 909 331 
L 1722 331 
L 1722 4213 
L 781 3603 
L 781 4013 
L 1919 4750 
L 2350 4750 
L 2350 331 
L 3163 331 
L 3163 0 
L 909 0 
z
" transform="scale(0.015625)"/>
        <path id="DejaVuSerif-2e" d="M 603 325 
Q 603 500 722 622 
Q 841 744 1019 744 
Q 1191 744 1312 622 
Q 1434 500 1434 325 
Q 1434 153 1312 31 
Q 1191 -91 1019 -91 
Q 841 -91 722 29 
Q 603 150 603 325 
z
" transform="scale(0.015625)"/>
        <path id="DejaVuSerif-35" d="M 3219 4666 
L 3219 4153 
L 1081 4153 
L 1081 2816 
Q 1244 2928 1461 2984 
Q 1678 3041 1947 3041 
Q 2703 3041 3140 2622 
Q 3578 2203 3578 1478 
Q 3578 738 3136 323 
Q 2694 -91 1894 -91 
Q 1572 -91 1234 -12 
Q 897 66 544 225 
L 544 1131 
L 897 1131 
Q 925 688 1179 453 
Q 1434 219 1894 219 
Q 2388 219 2653 544 
Q 2919 869 2919 1478 
Q 2919 2084 2655 2407 
Q 2391 2731 1894 2731 
Q 1613 2731 1398 2631 
Q 1184 2531 1019 2322 
L 750 2322 
L 750 4666 
L 3219 4666 
z
" transform="scale(0.015625)"/>
       </defs>
       <use xlink:href="#DejaVuSerif-31"/>
       <use xlink:href="#DejaVuSerif-2e" x="63.623047"/>
       <use xlink:href="#DejaVuSerif-30" x="95.410156"/>
       <use xlink:href="#DejaVuSerif-35" x="159.033203"/>
      </g>
     </g>
    </g>
    <g id="ytick_7">
     <g id="line2d_12">
      <g>
       <use xlink:href="#m1211b5225b" x="374.377266" y="199.572839" style="stroke: #000000; stroke-width: 0.8"/>
      </g>
     </g>
     <g id="text_14">
      <!-- 1.10 -->
      <g transform="translate(381.377266 206.411432) scale(0.18 -0.18)">
       <use xlink:href="#DejaVuSerif-31"/>
       <use xlink:href="#DejaVuSerif-2e" x="63.623047"/>
       <use xlink:href="#DejaVuSerif-31" x="95.410156"/>
       <use xlink:href="#DejaVuSerif-30" x="159.033203"/>
      </g>
     </g>
    </g>
    <g id="ytick_8">
     <g id="line2d_13">
      <g>
       <use xlink:href="#m1211b5225b" x="374.377266" y="155.703973" style="stroke: #000000; stroke-width: 0.8"/>
      </g>
     </g>
     <g id="text_15">
      <!-- 1.15 -->
      <g transform="translate(381.377266 162.542567) scale(0.18 -0.18)">
       <use xlink:href="#DejaVuSerif-31"/>
       <use xlink:href="#DejaVuSerif-2e" x="63.623047"/>
       <use xlink:href="#DejaVuSerif-31" x="95.410156"/>
       <use xlink:href="#DejaVuSerif-35" x="159.033203"/>
      </g>
     </g>
    </g>
    <g id="ytick_9">
     <g id="line2d_14">
      <g>
       <use xlink:href="#m1211b5225b" x="374.377266" y="111.835108" style="stroke: #000000; stroke-width: 0.8"/>
      </g>
     </g>
     <g id="text_16">
      <!-- 1.20 -->
      <g transform="translate(381.377266 118.673701) scale(0.18 -0.18)">
       <defs>
        <path id="DejaVuSerif-32" d="M 819 3553 
L 469 3553 
L 469 4384 
Q 803 4563 1142 4656 
Q 1481 4750 1806 4750 
Q 2534 4750 2956 4397 
Q 3378 4044 3378 3438 
Q 3378 2753 2422 1800 
Q 2347 1728 2309 1691 
L 1131 513 
L 3078 513 
L 3078 1088 
L 3444 1088 
L 3444 0 
L 434 0 
L 434 341 
L 1850 1753 
Q 2319 2222 2519 2614 
Q 2719 3006 2719 3438 
Q 2719 3909 2473 4175 
Q 2228 4441 1797 4441 
Q 1350 4441 1106 4219 
Q 863 3997 819 3553 
z
" transform="scale(0.015625)"/>
       </defs>
       <use xlink:href="#DejaVuSerif-31"/>
       <use xlink:href="#DejaVuSerif-2e" x="63.623047"/>
       <use xlink:href="#DejaVuSerif-32" x="95.410156"/>
       <use xlink:href="#DejaVuSerif-30" x="159.033203"/>
      </g>
     </g>
    </g>
    <g id="ytick_10">
     <g id="line2d_15">
      <g>
       <use xlink:href="#m1211b5225b" x="374.377266" y="67.966242" style="stroke: #000000; stroke-width: 0.8"/>
      </g>
     </g>
     <g id="text_17">
      <!-- 1.25 -->
      <g transform="translate(381.377266 74.804836) scale(0.18 -0.18)">
       <use xlink:href="#DejaVuSerif-31"/>
       <use xlink:href="#DejaVuSerif-2e" x="63.623047"/>
       <use xlink:href="#DejaVuSerif-32" x="95.410156"/>
       <use xlink:href="#DejaVuSerif-35" x="159.033203"/>
      </g>
     </g>
    </g>
    <g id="ytick_11">
     <g id="line2d_16">
      <g>
       <use xlink:href="#m1211b5225b" x="374.377266" y="24.097377" style="stroke: #000000; stroke-width: 0.8"/>
      </g>
     </g>
     <g id="text_18">
      <!-- 1.30 -->
      <g transform="translate(381.377266 30.935971) scale(0.18 -0.18)">
       <defs>
        <path id="DejaVuSerif-33" d="M 622 4469 
Q 988 4606 1323 4678 
Q 1659 4750 1953 4750 
Q 2638 4750 3022 4454 
Q 3406 4159 3406 3634 
Q 3406 3213 3140 2930 
Q 2875 2647 2388 2547 
Q 2963 2466 3280 2130 
Q 3597 1794 3597 1259 
Q 3597 606 3158 257 
Q 2719 -91 1894 -91 
Q 1528 -91 1179 -12 
Q 831 66 488 225 
L 488 1131 
L 838 1131 
Q 869 681 1141 450 
Q 1413 219 1906 219 
Q 2384 219 2661 495 
Q 2938 772 2938 1253 
Q 2938 1803 2653 2086 
Q 2369 2369 1819 2369 
L 1522 2369 
L 1522 2688 
L 1678 2688 
Q 2225 2688 2498 2914 
Q 2772 3141 2772 3597 
Q 2772 4006 2547 4223 
Q 2322 4441 1900 4441 
Q 1478 4441 1245 4241 
Q 1013 4041 972 3647 
L 622 3647 
L 622 4469 
z
" transform="scale(0.015625)"/>
       </defs>
       <use xlink:href="#DejaVuSerif-31"/>
       <use xlink:href="#DejaVuSerif-2e" x="63.623047"/>
       <use xlink:href="#DejaVuSerif-33" x="95.410156"/>
       <use xlink:href="#DejaVuSerif-30" x="159.033203"/>
      </g>
     </g>
    </g>
   </g>
   <g id="LineCollection_1"/>
   <g id="LineCollection_2">
    <path d="M 361.234437 284.294375 
L 374.377266 284.294375 
" clip-path="url(#pcc433712b8)" style="fill: none; stroke: #000080"/>
    <path d="M 361.234437 275.230356 
L 374.377266 275.230356 
" clip-path="url(#pcc433712b8)" style="fill: none; stroke: #0000a4"/>
    <path d="M 361.234437 266.166336 
L 374.377266 266.166336 
" clip-path="url(#pcc433712b8)" style="fill: none; stroke: #0000cd"/>
    <path d="M 361.234437 257.102317 
L 374.377266 257.102317 
" clip-path="url(#pcc433712b8)" style="fill: none; stroke: #0000f6"/>
    <path d="M 361.234437 248.038297 
L 374.377266 248.038297 
" clip-path="url(#pcc433712b8)" style="fill: none; stroke: #000cff"/>
    <path d="M 361.234437 238.974278 
L 374.377266 238.974278 
" clip-path="url(#pcc433712b8)" style="fill: none; stroke: #0030ff"/>
    <path d="M 361.234437 229.910259 
L 374.377266 229.910259 
" clip-path="url(#pcc433712b8)" style="fill: none; stroke: #0050ff"/>
    <path d="M 361.234437 220.846239 
L 374.377266 220.846239 
" clip-path="url(#pcc433712b8)" style="fill: none; stroke: #0074ff"/>
    <path d="M 361.234437 211.78222 
L 374.377266 211.78222 
" clip-path="url(#pcc433712b8)" style="fill: none; stroke: #0098ff"/>
    <path d="M 361.234437 202.7182 
L 374.377266 202.7182 
" clip-path="url(#pcc433712b8)" style="fill: none; stroke: #00bcff"/>
    <path d="M 361.234437 193.654181 
L 374.377266 193.654181 
" clip-path="url(#pcc433712b8)" style="fill: none; stroke: #00e0fb"/>
    <path d="M 361.234437 184.590162 
L 374.377266 184.590162 
" clip-path="url(#pcc433712b8)" style="fill: none; stroke: #19ffde"/>
    <path d="M 361.234437 175.526142 
L 374.377266 175.526142 
" clip-path="url(#pcc433712b8)" style="fill: none; stroke: #33ffc4"/>
    <path d="M 361.234437 166.462123 
L 374.377266 166.462123 
" clip-path="url(#pcc433712b8)" style="fill: none; stroke: #50ffa7"/>
    <path d="M 361.234437 157.398103 
L 374.377266 157.398103 
" clip-path="url(#pcc433712b8)" style="fill: none; stroke: #6dff8a"/>
    <path d="M 361.234437 148.334084 
L 374.377266 148.334084 
" clip-path="url(#pcc433712b8)" style="fill: none; stroke: #8aff6d"/>
    <path d="M 361.234437 139.270065 
L 374.377266 139.270065 
" clip-path="url(#pcc433712b8)" style="fill: none; stroke: #a7ff50"/>
    <path d="M 361.234437 130.206045 
L 374.377266 130.206045 
" clip-path="url(#pcc433712b8)" style="fill: none; stroke: #c4ff33"/>
    <path d="M 361.234437 121.142026 
L 374.377266 121.142026 
" clip-path="url(#pcc433712b8)" style="fill: none; stroke: #deff19"/>
    <path d="M 361.234437 112.078006 
L 374.377266 112.078006 
" clip-path="url(#pcc433712b8)" style="fill: none; stroke: #fbf100"/>
    <path d="M 361.234437 103.013987 
L 374.377266 103.013987 
" clip-path="url(#pcc433712b8)" style="fill: none; stroke: #ffd000"/>
    <path d="M 361.234437 93.949968 
L 374.377266 93.949968 
" clip-path="url(#pcc433712b8)" style="fill: none; stroke: #ffae00"/>
    <path d="M 361.234437 84.885948 
L 374.377266 84.885948 
" clip-path="url(#pcc433712b8)" style="fill: none; stroke: #ff8d00"/>
    <path d="M 361.234437 75.821929 
L 374.377266 75.821929 
" clip-path="url(#pcc433712b8)" style="fill: none; stroke: #ff6c00"/>
    <path d="M 361.234437 66.757909 
L 374.377266 66.757909 
" clip-path="url(#pcc433712b8)" style="fill: none; stroke: #ff4e00"/>
    <path d="M 361.234437 57.69389 
L 374.377266 57.69389 
" clip-path="url(#pcc433712b8)" style="fill: none; stroke: #ff2d00"/>
    <path d="M 361.234437 48.629871 
L 374.377266 48.629871 
" clip-path="url(#pcc433712b8)" style="fill: none; stroke: #f60b00"/>
    <path d="M 361.234437 39.565851 
L 374.377266 39.565851 
" clip-path="url(#pcc433712b8)" style="fill: none; stroke: #cd0000"/>
    <path d="M 361.234437 30.501832 
L 374.377266 30.501832 
" clip-path="url(#pcc433712b8)" style="fill: none; stroke: #a40000"/>
    <path d="M 361.234437 21.437813 
L 374.377266 21.437813 
" clip-path="url(#pcc433712b8)" style="fill: none; stroke: #800000"/>
   </g>
   <g id="patch_6">
    <path d="M 361.234437 284.294375 
L 367.805852 284.294375 
L 374.377266 284.294375 
L 374.377266 21.437813 
L 367.805852 21.437813 
L 361.234437 21.437813 
L 361.234437 284.294375 
z
" style="fill: none; stroke: #000000; stroke-width: 0.8; stroke-linejoin: miter; stroke-linecap: square"/>
   </g>
  </g>
 </g>
 <defs>
  <clipPath id="ped044029ea">
   <rect x="107.665625" y="21.437813" width="238.653" height="262.856562"/>
  </clipPath>
  <clipPath id="pcc433712b8">
   <path d="M 361.234437 285.242631 
L 374.377266 285.242631 
L 374.377266 20.489557 
L 361.234437 20.489557 
z
"/>
  </clipPath>
 </defs>
</svg>
