<?xml version="1.0" encoding="utf-8" standalone="no"?>
<!DOCTYPE svg PUBLIC "-//W3C//DTD SVG 1.1//EN"
  "http://www.w3.org/Graphics/SVG/1.1/DTD/svg11.dtd">
<svg xmlns:xlink="http://www.w3.org/1999/xlink" width="432pt" height="360pt" viewBox="0 0 432 360" xmlns="http://www.w3.org/2000/svg" version="1.1">
 <metadata>
  <rdf:RDF xmlns:dc="http://purl.org/dc/elements/1.1/" xmlns:cc="http://creativecommons.org/ns#" xmlns:rdf="http://www.w3.org/1999/02/22-rdf-syntax-ns#">
   <cc:Work>
    <dc:type rdf:resource="http://purl.org/dc/dcmitype/StillImage"/>
    <dc:date>2025-04-13T19:19:49.289397</dc:date>
    <dc:format>image/svg+xml</dc:format>
    <dc:creator>
     <cc:Agent>
      <dc:title>Matplotlib v3.9.2, https://matplotlib.org/</dc:title>
     </cc:Agent>
    </dc:creator>
   </cc:Work>
  </rdf:RDF>
 </metadata>
 <defs>
  <style type="text/css">*{stroke-linejoin: round; stroke-linecap: butt}</style>
 </defs>
 <g id="figure_1">
  <g id="patch_1">
   <path d="M 0 360 
L 432 360 
L 432 0 
L 0 0 
z
" style="fill: #ffffff"/>
  </g>
  <g id="axes_1">
   <g id="patch_2">
    <path d="M 107.665625 284.294375 
L 346.318625 284.294375 
L 346.318625 21.437813 
L 107.665625 21.437813 
z
" style="fill: #ffffff"/>
   </g>
   <g id="matplotlib.axis_1">
    <g id="xtick_1">
     <g id="line2d_1">
      <defs>
       <path id="m4ed8f2dff2" d="M 0 0 
L 0 3.5 
" style="stroke: #000000; stroke-width: 0.8"/>
      </defs>
      <g>
       <use xlink:href="#m4ed8f2dff2" x="107.665625" y="284.294375" style="stroke: #000000; stroke-width: 0.8"/>
      </g>
     </g>
     <g id="text_1">
      <!-- 0 -->
      <g transform="translate(98.758125 312.57) scale(0.28 -0.28)">
       <defs>
        <path id="DejaVuSerif-30" d="M 2034 219 
Q 2513 219 2750 744 
Q 2988 1269 2988 2328 
Q 2988 3391 2750 3916 
Q 2513 4441 2034 4441 
Q 1556 4441 1318 3916 
Q 1081 3391 1081 2328 
Q 1081 1269 1318 744 
Q 1556 219 2034 219 
z
M 2034 -91 
Q 1275 -91 848 546 
Q 422 1184 422 2328 
Q 422 3475 848 4112 
Q 1275 4750 2034 4750 
Q 2797 4750 3222 4112 
Q 3647 3475 3647 2328 
Q 3647 1184 3222 546 
Q 2797 -91 2034 -91 
z
" transform="scale(0.015625)"/>
       </defs>
       <use xlink:href="#DejaVuSerif-30"/>
      </g>
     </g>
    </g>
    <g id="xtick_2">
     <g id="line2d_2">
      <g>
       <use xlink:href="#m4ed8f2dff2" x="167.328875" y="284.294375" style="stroke: #000000; stroke-width: 0.8"/>
      </g>
     </g>
     <g id="text_2">
      <!-- $\pi/4$ -->
      <g transform="translate(145.348875 312.294375) scale(0.28 -0.28)">
       <defs>
        <path id="Cmmi10-bc" d="M 647 109 
Q 647 144 672 213 
Q 850 584 1004 942 
Q 1159 1300 1282 1639 
Q 1406 1978 1509 2363 
L 1100 2363 
Q 866 2363 662 2216 
Q 459 2069 325 1844 
Q 313 1819 288 1819 
L 213 1819 
Q 153 1819 153 1881 
Q 153 1894 166 1919 
Q 375 2275 614 2517 
Q 853 2759 1153 2759 
L 3475 2759 
Q 3541 2759 3587 2715 
Q 3634 2672 3634 2597 
Q 3634 2503 3567 2433 
Q 3500 2363 3406 2363 
L 2591 2363 
Q 2488 1859 2478 1381 
Q 2478 766 2694 269 
Q 2713 231 2713 191 
Q 2713 122 2672 62 
Q 2631 3 2567 -34 
Q 2503 -72 2431 -72 
Q 2263 -72 2200 203 
Q 2138 478 2138 738 
Q 2138 1103 2200 1442 
Q 2263 1781 2400 2363 
L 1703 2363 
Q 1197 313 1094 103 
Q 1003 -72 844 -72 
Q 766 -72 706 -20 
Q 647 31 647 109 
z
" transform="scale(0.015625)"/>
        <path id="Cmmi10-3d" d="M 359 -1472 
Q 359 -1453 366 -1447 
L 2591 4722 
Q 2603 4759 2634 4779 
Q 2666 4800 2706 4800 
Q 2763 4800 2798 4765 
Q 2834 4731 2834 4672 
L 2834 4647 
L 609 -1522 
Q 572 -1600 488 -1600 
Q 434 -1600 396 -1562 
Q 359 -1525 359 -1472 
z
" transform="scale(0.015625)"/>
        <path id="Cmr10-34" d="M 178 1056 
L 178 1281 
L 2156 4231 
Q 2178 4263 2222 4263 
L 2316 4263 
Q 2388 4263 2388 4191 
L 2388 1281 
L 3016 1281 
L 3016 1056 
L 2388 1056 
L 2388 428 
Q 2388 297 2575 261 
Q 2763 225 3009 225 
L 3009 0 
L 1247 0 
L 1247 225 
Q 1494 225 1681 261 
Q 1869 297 1869 428 
L 1869 1056 
L 178 1056 
z
M 391 1281 
L 1906 1281 
L 1906 3547 
L 391 1281 
z
" transform="scale(0.015625)"/>
       </defs>
       <use xlink:href="#Cmmi10-bc"/>
       <use xlink:href="#Cmmi10-3d" transform="translate(56.982422 0)"/>
       <use xlink:href="#Cmr10-34" transform="translate(106.982422 0)"/>
      </g>
     </g>
    </g>
    <g id="xtick_3">
     <g id="line2d_3">
      <g>
       <use xlink:href="#m4ed8f2dff2" x="226.992125" y="284.294375" style="stroke: #000000; stroke-width: 0.8"/>
      </g>
     </g>
     <g id="text_3">
      <!-- $\pi/2$ -->
      <g transform="translate(205.012125 312.294375) scale(0.28 -0.28)">
       <defs>
        <path id="Cmr10-32" d="M 319 0 
L 319 172 
Q 319 188 331 206 
L 1325 1306 
Q 1550 1550 1690 1715 
Q 1831 1881 1968 2097 
Q 2106 2313 2186 2536 
Q 2266 2759 2266 3009 
Q 2266 3272 2169 3511 
Q 2072 3750 1880 3894 
Q 1688 4038 1416 4038 
Q 1138 4038 916 3870 
Q 694 3703 603 3438 
Q 628 3444 672 3444 
Q 816 3444 917 3347 
Q 1019 3250 1019 3097 
Q 1019 2950 917 2848 
Q 816 2747 672 2747 
Q 522 2747 420 2851 
Q 319 2956 319 3097 
Q 319 3338 409 3548 
Q 500 3759 670 3923 
Q 841 4088 1055 4175 
Q 1269 4263 1509 4263 
Q 1875 4263 2190 4108 
Q 2506 3953 2690 3670 
Q 2875 3388 2875 3009 
Q 2875 2731 2753 2481 
Q 2631 2231 2440 2026 
Q 2250 1822 1953 1562 
Q 1656 1303 1563 1216 
L 838 519 
L 1453 519 
Q 1906 519 2211 526 
Q 2516 534 2534 550 
Q 2609 631 2688 1141 
L 2875 1141 
L 2694 0 
L 319 0 
z
" transform="scale(0.015625)"/>
       </defs>
       <use xlink:href="#Cmmi10-bc"/>
       <use xlink:href="#Cmmi10-3d" transform="translate(56.982422 0)"/>
       <use xlink:href="#Cmr10-32" transform="translate(106.982422 0)"/>
      </g>
     </g>
    </g>
    <g id="xtick_4">
     <g id="line2d_4">
      <g>
       <use xlink:href="#m4ed8f2dff2" x="286.655375" y="284.294375" style="stroke: #000000; stroke-width: 0.8"/>
      </g>
     </g>
     <g id="text_4">
      <!-- $3\pi/4$ -->
      <g transform="translate(257.675375 312.294375) scale(0.28 -0.28)">
       <defs>
        <path id="Cmr10-33" d="M 609 494 
Q 759 275 1012 169 
Q 1266 63 1556 63 
Q 1928 63 2084 380 
Q 2241 697 2241 1100 
Q 2241 1281 2208 1462 
Q 2175 1644 2097 1800 
Q 2019 1956 1883 2050 
Q 1747 2144 1550 2144 
L 1125 2144 
Q 1069 2144 1069 2203 
L 1069 2259 
Q 1069 2309 1125 2309 
L 1478 2338 
Q 1703 2338 1851 2506 
Q 2000 2675 2069 2917 
Q 2138 3159 2138 3378 
Q 2138 3684 1994 3881 
Q 1850 4078 1556 4078 
Q 1313 4078 1091 3986 
Q 869 3894 738 3706 
Q 750 3709 759 3711 
Q 769 3713 781 3713 
Q 925 3713 1022 3613 
Q 1119 3513 1119 3372 
Q 1119 3234 1022 3134 
Q 925 3034 781 3034 
Q 641 3034 541 3134 
Q 441 3234 441 3372 
Q 441 3647 606 3850 
Q 772 4053 1033 4158 
Q 1294 4263 1556 4263 
Q 1750 4263 1965 4205 
Q 2181 4147 2356 4039 
Q 2531 3931 2642 3762 
Q 2753 3594 2753 3378 
Q 2753 3109 2633 2881 
Q 2513 2653 2303 2487 
Q 2094 2322 1844 2241 
Q 2122 2188 2372 2031 
Q 2622 1875 2773 1631 
Q 2925 1388 2925 1106 
Q 2925 753 2731 467 
Q 2538 181 2222 20 
Q 1906 -141 1556 -141 
Q 1256 -141 954 -26 
Q 653 88 461 316 
Q 269 544 269 863 
Q 269 1022 375 1128 
Q 481 1234 641 1234 
Q 744 1234 830 1186 
Q 916 1138 964 1050 
Q 1013 963 1013 863 
Q 1013 706 903 600 
Q 794 494 641 494 
L 609 494 
z
" transform="scale(0.015625)"/>
       </defs>
       <use xlink:href="#Cmr10-33"/>
       <use xlink:href="#Cmmi10-bc" transform="translate(50 0)"/>
       <use xlink:href="#Cmmi10-3d" transform="translate(106.982422 0)"/>
       <use xlink:href="#Cmr10-34" transform="translate(156.982422 0)"/>
      </g>
     </g>
    </g>
    <g id="xtick_5">
     <g id="line2d_5">
      <g>
       <use xlink:href="#m4ed8f2dff2" x="346.318625" y="284.294375" style="stroke: #000000; stroke-width: 0.8"/>
      </g>
     </g>
     <g id="text_5">
      <!-- $\pi$ -->
      <g transform="translate(338.338625 312.57) scale(0.28 -0.28)">
       <use xlink:href="#Cmmi10-bc" transform="translate(0 0.890625)"/>
      </g>
     </g>
    </g>
    <g id="text_6">
     <!-- $\zeta_{\mathrm{Boozer}}$ -->
     <g transform="translate(182.792125 342.06) scale(0.34 -0.34)">
      <defs>
       <path id="Cmmi10-b3" d="M 1131 -997 
Q 1147 -922 1222 -922 
Q 1234 -922 1332 -986 
Q 1431 -1050 1542 -1098 
Q 1653 -1147 1784 -1147 
Q 1922 -1147 2014 -1019 
Q 2106 -891 2106 -744 
Q 2106 -597 2009 -494 
Q 1913 -391 1766 -341 
L 1113 -122 
Q 713 16 503 317 
Q 294 619 294 1050 
Q 294 1416 426 1831 
Q 559 2247 793 2637 
Q 1028 3028 1334 3339 
Q 1641 3650 1972 3822 
Q 1906 3953 1906 4128 
Q 1906 4475 2041 4475 
Q 2075 4475 2100 4450 
Q 2125 4425 2125 4391 
Q 2125 4344 2109 4245 
Q 2094 4147 2094 4122 
Q 2094 4006 2131 3897 
Q 2297 3963 2438 3963 
Q 3028 3963 3028 3781 
Q 3028 3566 2375 3566 
Q 2181 3566 2069 3681 
Q 1794 3525 1539 3244 
Q 1284 2963 1087 2613 
Q 891 2263 781 1906 
Q 672 1550 672 1228 
Q 672 538 1300 319 
L 1984 91 
Q 2200 25 2336 -139 
Q 2472 -303 2472 -531 
Q 2472 -716 2378 -898 
Q 2284 -1081 2125 -1197 
Q 1966 -1313 1772 -1313 
Q 1619 -1313 1375 -1211 
Q 1131 -1109 1131 -997 
z
M 2247 3763 
Q 2241 3763 2303 3738 
Q 2331 3738 2348 3736 
Q 2366 3734 2388 3731 
Q 2694 3731 2828 3769 
Q 2706 3794 2438 3794 
Q 2350 3794 2247 3763 
z
" transform="scale(0.015625)"/>
       <path id="Cmr10-42" d="M 219 0 
L 219 225 
Q 878 225 878 428 
L 878 3944 
Q 878 4147 219 4147 
L 219 4372 
L 2572 4372 
Q 2897 4372 3228 4245 
Q 3559 4119 3776 3870 
Q 3994 3622 3994 3284 
Q 3994 2894 3673 2630 
Q 3353 2366 2925 2284 
Q 3203 2284 3497 2131 
Q 3791 1978 3978 1722 
Q 4166 1466 4166 1178 
Q 4166 828 3958 559 
Q 3750 291 3419 145 
Q 3088 0 2753 0 
L 219 0 
z
M 1434 428 
Q 1434 291 1512 258 
Q 1591 225 1759 225 
L 2572 225 
Q 2822 225 3036 356 
Q 3250 488 3375 708 
Q 3500 928 3500 1178 
Q 3500 1422 3397 1655 
Q 3294 1888 3101 2038 
Q 2909 2188 2663 2188 
L 1434 2188 
L 1434 428 
z
M 1434 2356 
L 2394 2356 
Q 2588 2356 2758 2426 
Q 2928 2497 3064 2630 
Q 3200 2763 3273 2930 
Q 3347 3097 3347 3284 
Q 3347 3450 3292 3603 
Q 3238 3756 3131 3881 
Q 3025 4006 2881 4076 
Q 2738 4147 2572 4147 
L 1759 4147 
Q 1644 4147 1580 4137 
Q 1516 4128 1475 4083 
Q 1434 4038 1434 3944 
L 1434 2356 
z
" transform="scale(0.015625)"/>
       <path id="Cmr10-6f" d="M 1600 -72 
Q 1216 -72 887 123 
Q 559 319 368 647 
Q 178 975 178 1363 
Q 178 1656 283 1928 
Q 388 2200 583 2414 
Q 778 2628 1037 2748 
Q 1297 2869 1600 2869 
Q 1994 2869 2317 2661 
Q 2641 2453 2828 2104 
Q 3016 1756 3016 1363 
Q 3016 978 2825 648 
Q 2634 319 2307 123 
Q 1981 -72 1600 -72 
z
M 1600 116 
Q 2113 116 2284 487 
Q 2456 859 2456 1434 
Q 2456 1756 2422 1967 
Q 2388 2178 2272 2350 
Q 2200 2456 2089 2536 
Q 1978 2616 1854 2658 
Q 1731 2700 1600 2700 
Q 1400 2700 1220 2609 
Q 1041 2519 922 2350 
Q 803 2169 770 1951 
Q 738 1734 738 1434 
Q 738 1075 800 789 
Q 863 503 1052 309 
Q 1241 116 1600 116 
z
" transform="scale(0.015625)"/>
       <path id="Cmr10-7a" d="M 250 0 
Q 178 0 178 72 
L 178 122 
Q 178 147 197 166 
L 1984 2591 
L 1409 2591 
Q 1138 2591 961 2556 
Q 784 2522 670 2426 
Q 556 2331 504 2164 
Q 453 1997 453 1703 
L 269 1703 
L 341 2759 
L 2484 2759 
Q 2513 2759 2533 2739 
Q 2553 2719 2553 2688 
L 2553 2650 
Q 2553 2631 2541 2606 
L 750 184 
L 1363 184 
Q 1641 184 1827 218 
Q 2013 253 2144 384 
Q 2266 506 2311 712 
Q 2356 919 2381 1222 
L 2566 1222 
L 2456 0 
L 250 0 
z
" transform="scale(0.015625)"/>
       <path id="Cmr10-65" d="M 1594 -72 
Q 1203 -72 876 133 
Q 550 338 364 680 
Q 178 1022 178 1403 
Q 178 1778 348 2115 
Q 519 2453 823 2661 
Q 1128 2869 1503 2869 
Q 1797 2869 2014 2770 
Q 2231 2672 2372 2497 
Q 2513 2322 2584 2084 
Q 2656 1847 2656 1563 
Q 2656 1478 2591 1478 
L 738 1478 
L 738 1409 
Q 738 878 952 497 
Q 1166 116 1650 116 
Q 1847 116 2014 203 
Q 2181 291 2304 447 
Q 2428 603 2472 781 
Q 2478 803 2495 820 
Q 2513 838 2534 838 
L 2591 838 
Q 2656 838 2656 756 
Q 2566 394 2266 161 
Q 1966 -72 1594 -72 
z
M 744 1638 
L 2203 1638 
Q 2203 1878 2136 2125 
Q 2069 2372 1912 2536 
Q 1756 2700 1503 2700 
Q 1141 2700 942 2361 
Q 744 2022 744 1638 
z
" transform="scale(0.015625)"/>
       <path id="Cmr10-72" d="M 166 0 
L 166 225 
Q 384 225 525 259 
Q 666 294 666 428 
L 666 2175 
Q 666 2347 614 2423 
Q 563 2500 466 2517 
Q 369 2534 166 2534 
L 166 2759 
L 1081 2828 
L 1081 2203 
Q 1184 2481 1375 2654 
Q 1566 2828 1838 2828 
Q 2028 2828 2178 2715 
Q 2328 2603 2328 2419 
Q 2328 2303 2245 2217 
Q 2163 2131 2041 2131 
Q 1922 2131 1837 2215 
Q 1753 2300 1753 2419 
Q 1753 2591 1875 2663 
L 1838 2663 
Q 1578 2663 1414 2475 
Q 1250 2288 1181 2009 
Q 1113 1731 1113 1478 
L 1113 428 
Q 1113 225 1734 225 
L 1734 0 
L 166 0 
z
" transform="scale(0.015625)"/>
      </defs>
      <use xlink:href="#Cmmi10-b3" transform="translate(0 0.078125)"/>
      <use xlink:href="#Cmr10-42" transform="translate(43.701172 -16.928125) scale(0.7)"/>
      <use xlink:href="#Cmr10-6f" transform="translate(93.261719 -16.928125) scale(0.7)"/>
      <use xlink:href="#Cmr10-6f" transform="translate(128.261719 -16.928125) scale(0.7)"/>
      <use xlink:href="#Cmr10-7a" transform="translate(163.261719 -16.928125) scale(0.7)"/>
      <use xlink:href="#Cmr10-65" transform="translate(194.331055 -16.928125) scale(0.7)"/>
      <use xlink:href="#Cmr10-72" transform="translate(225.400391 -16.928125) scale(0.7)"/>
     </g>
    </g>
   </g>
   <g id="matplotlib.axis_2">
    <g id="ytick_1">
     <g id="line2d_6">
      <defs>
       <path id="m749619ec32" d="M 0 0 
L -3.5 0 
" style="stroke: #000000; stroke-width: 0.8"/>
      </defs>
      <g>
       <use xlink:href="#m749619ec32" x="107.665625" y="284.294375" style="stroke: #000000; stroke-width: 0.8"/>
      </g>
     </g>
     <g id="text_7">
      <!-- 0 -->
      <g transform="translate(82.850625 294.932187) scale(0.28 -0.28)">
       <use xlink:href="#DejaVuSerif-30"/>
      </g>
     </g>
    </g>
    <g id="ytick_2">
     <g id="line2d_7">
      <g>
       <use xlink:href="#m749619ec32" x="107.665625" y="218.580234" style="stroke: #000000; stroke-width: 0.8"/>
      </g>
     </g>
     <g id="text_8">
      <!-- $\pi/2$ -->
      <g transform="translate(56.705625 229.080234) scale(0.28 -0.28)">
       <use xlink:href="#Cmmi10-bc"/>
       <use xlink:href="#Cmmi10-3d" transform="translate(56.982422 0)"/>
       <use xlink:href="#Cmr10-32" transform="translate(106.982422 0)"/>
      </g>
     </g>
    </g>
    <g id="ytick_3">
     <g id="line2d_8">
      <g>
       <use xlink:href="#m749619ec32" x="107.665625" y="152.866094" style="stroke: #000000; stroke-width: 0.8"/>
      </g>
     </g>
     <g id="text_9">
      <!-- $\pi$ -->
      <g transform="translate(84.705625 163.503906) scale(0.28 -0.28)">
       <use xlink:href="#Cmmi10-bc" transform="translate(0 0.890625)"/>
      </g>
     </g>
    </g>
    <g id="ytick_4">
     <g id="line2d_9">
      <g>
       <use xlink:href="#m749619ec32" x="107.665625" y="87.151953" style="stroke: #000000; stroke-width: 0.8"/>
      </g>
     </g>
     <g id="text_10">
      <!-- $3\pi/2$ -->
      <g transform="translate(42.705625 97.651953) scale(0.28 -0.28)">
       <use xlink:href="#Cmr10-33"/>
       <use xlink:href="#Cmmi10-bc" transform="translate(50 0)"/>
       <use xlink:href="#Cmmi10-3d" transform="translate(106.982422 0)"/>
       <use xlink:href="#Cmr10-32" transform="translate(156.982422 0)"/>
      </g>
     </g>
    </g>
    <g id="ytick_5">
     <g id="line2d_10">
      <g>
       <use xlink:href="#m749619ec32" x="107.665625" y="21.437813" style="stroke: #000000; stroke-width: 0.8"/>
      </g>
     </g>
     <g id="text_11">
      <!-- $2\pi$ -->
      <g transform="translate(70.705625 32.075625) scale(0.28 -0.28)">
       <use xlink:href="#Cmr10-32" transform="translate(0 0.390625)"/>
       <use xlink:href="#Cmmi10-bc" transform="translate(50 0.390625)"/>
      </g>
     </g>
    </g>
    <g id="text_12">
     <!-- $\theta_{\mathrm{Boozer}}$ -->
     <g transform="translate(36.634687 197.576094) rotate(-90) scale(0.34 -0.34)">
      <defs>
       <path id="Cmmi10-b5" d="M 1031 -72 
Q 741 -72 566 140 
Q 391 353 323 653 
Q 256 953 256 1247 
L 256 1253 
Q 256 1572 317 1915 
Q 378 2259 493 2601 
Q 609 2944 744 3213 
Q 838 3400 986 3631 
Q 1134 3863 1317 4064 
Q 1500 4266 1711 4389 
Q 1922 4513 2138 4513 
L 2144 4513 
Q 2375 4513 2529 4384 
Q 2684 4256 2770 4056 
Q 2856 3856 2890 3628 
Q 2925 3400 2925 3194 
Q 2925 2709 2794 2204 
Q 2663 1700 2431 1228 
Q 2344 1050 2189 809 
Q 2034 569 1861 378 
Q 1688 188 1472 58 
Q 1256 -72 1038 -72 
L 1031 -72 
z
M 1044 97 
Q 1256 97 1451 323 
Q 1647 550 1794 873 
Q 1941 1197 2052 1536 
Q 2163 1875 2216 2113 
L 909 2113 
Q 809 1709 753 1417 
Q 697 1125 697 844 
Q 697 97 1044 97 
z
M 959 2338 
L 2272 2338 
Q 2341 2619 2381 2808 
Q 2422 2997 2450 3206 
Q 2478 3416 2478 3597 
Q 2478 4347 2138 4347 
Q 1731 4347 1436 3692 
Q 1141 3038 959 2338 
z
" transform="scale(0.015625)"/>
      </defs>
      <use xlink:href="#Cmmi10-b5" transform="translate(0 0.484375)"/>
      <use xlink:href="#Cmr10-42" transform="translate(46.923828 -16.521875) scale(0.7)"/>
      <use xlink:href="#Cmr10-6f" transform="translate(96.484375 -16.521875) scale(0.7)"/>
      <use xlink:href="#Cmr10-6f" transform="translate(131.484375 -16.521875) scale(0.7)"/>
      <use xlink:href="#Cmr10-7a" transform="translate(166.484375 -16.521875) scale(0.7)"/>
      <use xlink:href="#Cmr10-65" transform="translate(197.553711 -16.521875) scale(0.7)"/>
      <use xlink:href="#Cmr10-72" transform="translate(228.623047 -16.521875) scale(0.7)"/>
     </g>
    </g>
   </g>
   <g id="QuadContourSet_1">
    <path d="M 226.992125 284.294375 
L 226.992125 284.294375 
L 226.992125 284.294375 
z
M 226.992125 21.437813 
L 226.992125 21.437813 
L 226.992125 21.437813 
z
" clip-path="url(#p2306d37052)" style="fill: none; stroke: #000080"/>
    <path d="M 191.675346 284.294375 
L 192.520025 281.471079 
L 192.547889 281.373747 
L 195.171725 279.33552 
L 196.530783 278.453118 
L 197.823425 278.036654 
L 200.475125 277.341192 
L 203.126825 276.809585 
L 205.778525 276.411686 
L 208.430225 276.120692 
L 211.081925 275.914143 
L 213.733625 275.774207 
L 216.385325 275.686756 
L 219.037025 275.640307 
L 221.688725 275.626288 
L 224.340425 275.639528 
L 226.992125 275.676994 
L 229.643825 275.736128 
L 232.295525 275.8155 
L 234.947225 275.916616 
L 237.598925 276.043559 
L 240.250625 276.201837 
L 242.902325 276.400295 
L 245.554025 276.652294 
L 248.205725 276.972495 
L 250.857425 277.37753 
L 253.509125 277.893533 
L 255.769754 278.453118 
L 256.160825 278.606839 
L 258.812525 279.902211 
L 260.966576 281.373747 
L 261.464225 282.33664 
L 262.308904 284.294375 
M 262.308904 21.437813 
L 261.464225 24.261109 
L 261.436361 24.358441 
L 258.812525 26.396667 
L 257.453467 27.279069 
L 256.160825 27.695533 
L 253.509125 28.390996 
L 250.857425 28.922603 
L 248.205725 29.320501 
L 245.554025 29.611496 
L 242.902325 29.818045 
L 240.250625 29.95798 
L 237.598925 30.045432 
L 234.947225 30.091881 
L 232.295525 30.105899 
L 229.643825 30.092659 
L 226.992125 30.055193 
L 224.340425 29.99606 
L 221.688725 29.916688 
L 219.037025 29.815571 
L 216.385325 29.688629 
L 213.733625 29.530351 
L 211.081925 29.331892 
L 208.430225 29.079893 
L 205.778525 28.759692 
L 203.126825 28.354657 
L 200.475125 27.838654 
L 198.214496 27.279069 
L 197.823425 27.125349 
L 195.171725 25.829976 
L 193.017674 24.358441 
L 192.520025 23.395547 
L 191.675346 21.437813 
" clip-path="url(#p2306d37052)" style="fill: none; stroke: #0000a4"/>
    <path d="M 162.366123 284.294375 
L 163.351325 283.891952 
L 166.003025 282.560482 
L 177.37451 275.53249 
L 179.261525 274.752373 
L 181.913225 273.790274 
L 186.142026 272.611861 
L 189.868325 272.049524 
L 195.171725 271.546425 
L 200.475125 271.277458 
L 208.430225 271.119274 
L 232.295525 270.862292 
L 242.902325 270.445342 
L 253.509125 269.757358 
L 264.115925 268.866859 
L 269.419325 268.177908 
L 272.071025 267.700222 
L 277.374425 266.389962 
L 286.959811 263.849976 
L 290.632925 263.490617 
L 295.936325 263.364371 
L 301.239725 263.642526 
L 303.891425 263.951995 
L 309.194825 265.105874 
L 315.905183 266.770604 
L 319.801625 268.317608 
L 323.644021 269.691233 
L 325.105025 270.48021 
L 327.756725 271.728991 
L 329.915672 272.611861 
L 330.408425 272.935022 
L 333.060125 274.422555 
L 335.711825 275.597344 
L 338.363525 277.216911 
L 341.332697 278.453118 
L 343.666925 279.849912 
L 346.318625 280.866398 
M 334.727334 284.294375 
L 333.060125 283.838266 
L 330.408425 283.259663 
L 325.105025 282.403588 
L 319.801625 281.761171 
L 314.498225 281.292111 
L 309.194825 281.056136 
L 306.543125 281.085875 
L 302.741684 281.373747 
L 301.239725 281.532955 
L 298.588025 281.975681 
L 295.936325 282.626423 
L 293.284625 283.538038 
L 291.618127 284.294375 
M 107.665625 280.866398 
L 109.321569 281.373747 
L 110.317325 281.890886 
L 112.969025 282.878183 
L 115.620725 283.556306 
L 119.256916 284.294375 
M 346.318625 24.86579 
L 344.662681 24.358441 
L 343.666925 23.841302 
L 341.015225 22.854005 
L 338.363525 22.175882 
L 334.727334 21.437813 
M 119.256916 21.437813 
L 120.924125 21.893922 
L 123.575825 22.472524 
L 128.879225 23.3286 
L 134.182625 23.971017 
L 139.486025 24.440076 
L 144.789425 24.676052 
L 147.441125 24.646312 
L 151.242566 24.358441 
L 152.744525 24.199232 
L 155.396225 23.756507 
L 158.047925 23.105764 
L 160.699625 22.194149 
L 162.366123 21.437813 
M 291.618127 21.437813 
L 290.632925 21.840235 
L 287.981225 23.171705 
L 276.60974 30.199698 
L 274.722725 30.979815 
L 272.071025 31.941914 
L 267.842224 33.120326 
L 264.115925 33.682663 
L 258.812525 34.185762 
L 253.509125 34.454729 
L 245.554025 34.612913 
L 221.688725 34.869895 
L 211.081925 35.286846 
L 200.475125 35.974829 
L 189.868325 36.865329 
L 184.564925 37.55428 
L 181.913225 38.031966 
L 176.609825 39.342225 
L 167.024439 41.882212 
L 163.351325 42.24157 
L 158.047925 42.367816 
L 152.744525 42.089661 
L 150.092825 41.780192 
L 144.789425 40.626314 
L 138.079067 38.961583 
L 134.182625 37.41458 
L 130.340229 36.040955 
L 128.879225 35.251978 
L 126.227525 34.003197 
L 124.068578 33.120326 
L 123.575825 32.797165 
L 120.924125 31.309632 
L 118.272425 30.134843 
L 115.620725 28.515277 
L 112.651553 27.279069 
L 110.317325 25.882275 
L 107.665625 24.86579 
L 107.665625 24.86579 
" clip-path="url(#p2306d37052)" style="fill: none; stroke: #0000cd"/>
    <path d="M 107.665625 268.87508 
L 118.272425 271.800889 
L 123.575825 272.949052 
L 128.879225 273.834787 
L 134.182625 274.367678 
L 139.486025 274.50749 
L 142.137725 274.413121 
L 144.789425 274.201092 
L 147.441125 273.864897 
L 150.092825 273.398997 
L 155.396225 272.116334 
L 160.699625 270.534987 
L 163.354173 269.691233 
L 168.654725 268.405494 
L 173.958125 267.483704 
L 179.261525 266.937382 
L 184.564925 266.69316 
L 192.520025 266.6372 
L 219.037025 266.815796 
L 226.992125 266.580567 
L 234.947225 266.1145 
L 242.902325 265.398473 
L 248.205725 264.76113 
L 254.045851 263.849976 
L 258.812525 262.928778 
L 264.115925 261.645034 
L 266.767625 260.908878 
L 272.071025 259.740894 
L 277.374425 258.787104 
L 282.677825 258.139564 
L 285.329525 257.960068 
L 290.632925 257.850224 
L 296.888485 258.008719 
L 301.239725 258.345794 
L 306.543125 258.948839 
L 311.846525 259.726129 
L 318.500874 260.929347 
L 327.756725 263.252934 
L 330.408425 263.974973 
L 346.318625 268.87508 
M 346.318625 36.857107 
L 335.711825 33.931298 
L 330.408425 32.783136 
L 325.105025 31.897401 
L 319.801625 31.364509 
L 314.498225 31.224698 
L 311.846525 31.319066 
L 309.194825 31.531096 
L 306.543125 31.86729 
L 303.891425 32.33319 
L 298.588025 33.615854 
L 293.284625 35.1972 
L 290.630077 36.040955 
L 285.329525 37.326694 
L 280.026125 38.248484 
L 274.722725 38.794806 
L 269.419325 39.039027 
L 261.464225 39.094988 
L 234.947225 38.916391 
L 226.992125 39.151621 
L 219.037025 39.617687 
L 211.081925 40.333715 
L 205.778525 40.971057 
L 199.938399 41.882212 
L 195.171725 42.803409 
L 189.868325 44.087154 
L 187.216625 44.82331 
L 181.913225 45.991294 
L 176.609825 46.945084 
L 171.306425 47.592623 
L 168.654725 47.77212 
L 163.351325 47.881963 
L 157.095765 47.723469 
L 152.744525 47.386393 
L 147.441125 46.783349 
L 142.137725 46.006058 
L 135.483376 44.80284 
L 126.227525 42.479254 
L 123.575825 41.757214 
L 107.665625 36.857107 
L 107.665625 36.857107 
" clip-path="url(#p2306d37052)" style="fill: none; stroke: #0000f6"/>
    <path d="M 107.665625 261.592625 
L 115.620725 263.052005 
L 121.241671 263.849976 
L 126.227525 264.371149 
L 131.530925 264.623412 
L 136.834325 264.536979 
L 142.137725 264.101648 
L 160.699625 261.844159 
L 166.003025 261.581917 
L 171.306425 261.53471 
L 179.261525 261.722477 
L 208.430225 262.758281 
L 216.385325 262.730679 
L 224.340425 262.457963 
L 232.295525 261.9087 
L 237.598925 261.370951 
L 242.902325 260.672424 
L 248.205725 259.785323 
L 253.509125 258.688965 
L 258.812525 257.496501 
L 264.115925 256.440153 
L 269.419325 255.561325 
L 274.722725 254.945244 
L 280.026125 254.610945 
L 285.329525 254.448713 
L 293.284625 254.480863 
L 301.239725 254.80355 
L 306.543125 255.175594 
L 314.498225 256.005898 
L 322.453325 257.088643 
L 330.408425 258.428199 
L 346.318625 261.592625 
M 346.318625 44.139563 
L 338.363525 42.680183 
L 332.742579 41.882212 
L 327.756725 41.361038 
L 322.453325 41.108776 
L 317.149925 41.195209 
L 311.846525 41.63054 
L 293.284625 43.888029 
L 287.981225 44.150271 
L 282.677825 44.197478 
L 274.722725 44.00971 
L 245.554025 42.973906 
L 237.598925 43.001508 
L 229.643825 43.274225 
L 221.688725 43.823488 
L 216.385325 44.361236 
L 211.081925 45.059763 
L 205.778525 45.946864 
L 200.475125 47.043222 
L 195.171725 48.235686 
L 189.868325 49.292035 
L 184.564925 50.170862 
L 179.261525 50.786943 
L 173.958125 51.121242 
L 168.654725 51.283475 
L 160.699625 51.251324 
L 152.744525 50.928637 
L 147.441125 50.556593 
L 139.486025 49.72629 
L 131.530925 48.643545 
L 123.575825 47.303988 
L 107.665625 44.139563 
L 107.665625 44.139563 
" clip-path="url(#p2306d37052)" style="fill: none; stroke: #000cff"/>
    <path d="M 107.665625 255.53933 
L 115.620725 256.230501 
L 120.924125 256.496694 
L 126.227525 256.559082 
L 131.530925 256.41872 
L 147.441125 255.672286 
L 152.744525 255.663202 
L 160.699625 255.946573 
L 171.306425 256.64895 
L 192.520025 258.168526 
L 200.475125 258.540905 
L 208.430225 258.705889 
L 216.385325 258.620041 
L 224.340425 258.249744 
L 229.643825 257.826376 
L 234.947225 257.243384 
L 240.250625 256.484864 
L 248.205725 255.033542 
L 256.160825 253.619256 
L 261.464225 252.839418 
L 267.653897 252.167462 
L 274.722725 251.746867 
L 282.677825 251.534129 
L 290.632925 251.524713 
L 301.239725 251.749618 
L 311.846525 252.224423 
L 319.801625 252.790212 
L 330.408425 253.797563 
L 346.318625 255.53933 
M 346.318625 50.192857 
L 338.363525 49.501686 
L 333.060125 49.235494 
L 327.756725 49.173105 
L 322.453325 49.313467 
L 306.543125 50.059902 
L 301.239725 50.068985 
L 293.284625 49.785615 
L 282.677825 49.083238 
L 261.464225 47.563662 
L 253.509125 47.191282 
L 245.554025 47.026299 
L 237.598925 47.112147 
L 229.643825 47.482443 
L 224.340425 47.905811 
L 219.037025 48.488803 
L 213.733625 49.247323 
L 205.778525 50.698646 
L 197.823425 52.112931 
L 192.520025 52.892769 
L 186.330353 53.564726 
L 179.261525 53.98532 
L 171.306425 54.198058 
L 163.351325 54.207475 
L 152.744525 53.982569 
L 142.137725 53.507764 
L 134.182625 52.941976 
L 123.575825 51.934625 
L 107.665625 50.192857 
L 107.665625 50.192857 
" clip-path="url(#p2306d37052)" style="fill: none; stroke: #0030ff"/>
    <path d="M 107.665625 250.192738 
L 115.620725 250.158921 
L 126.227525 249.800566 
L 134.182625 249.618328 
L 139.486025 249.689942 
L 147.441125 250.096883 
L 155.396225 250.755008 
L 171.306425 252.35112 
L 181.913225 253.378106 
L 192.520025 254.160513 
L 200.475125 254.522263 
L 208.430225 254.643376 
L 216.385325 254.481432 
L 221.688725 254.199943 
L 226.992125 253.765854 
L 232.295525 253.170009 
L 240.250625 252.006134 
L 250.857425 250.46153 
L 256.160825 249.861064 
L 261.464225 249.414672 
L 266.767625 249.124763 
L 274.722725 248.895962 
L 287.981225 248.798963 
L 306.543125 248.934584 
L 319.918715 249.246833 
L 346.318625 250.192738 
M 346.318625 55.53945 
L 338.363525 55.573267 
L 327.756725 55.931622 
L 319.801625 56.113859 
L 314.498225 56.042245 
L 306.543125 55.635304 
L 298.588025 54.977179 
L 282.677825 53.381068 
L 272.071025 52.354082 
L 261.464225 51.571675 
L 253.509125 51.209925 
L 245.554025 51.088811 
L 237.598925 51.250755 
L 232.295525 51.532244 
L 226.992125 51.966333 
L 221.688725 52.562178 
L 213.733625 53.726053 
L 203.126825 55.270658 
L 197.823425 55.871124 
L 192.520025 56.317516 
L 187.216625 56.607424 
L 179.261525 56.836226 
L 166.003025 56.933224 
L 147.441125 56.797603 
L 134.065535 56.485354 
L 107.665625 55.53945 
L 107.665625 55.53945 
" clip-path="url(#p2306d37052)" style="fill: none; stroke: #0050ff"/>
    <path d="M 107.665625 245.278939 
L 120.924125 244.561075 
L 126.227525 244.466452 
L 131.530925 244.550093 
L 136.834325 244.805769 
L 144.789425 245.43453 
L 155.396225 246.554041 
L 173.958125 248.677048 
L 184.564925 249.660916 
L 192.520025 250.195509 
L 200.475125 250.503079 
L 208.430225 250.546863 
L 216.385325 250.288296 
L 221.688725 249.932997 
L 229.643825 249.131324 
L 245.554025 247.28874 
L 253.509125 246.679753 
L 262.443252 246.326205 
L 272.071025 246.197058 
L 333.060125 245.81468 
L 341.015225 245.557509 
L 346.318625 245.278939 
M 346.318625 60.453248 
L 333.060125 61.171113 
L 327.756725 61.265735 
L 322.453325 61.182095 
L 317.149925 60.926419 
L 309.194825 60.297658 
L 298.588025 59.178146 
L 280.026125 57.05514 
L 269.419325 56.071271 
L 261.464225 55.536679 
L 253.509125 55.229109 
L 245.554025 55.185325 
L 237.598925 55.443892 
L 232.295525 55.799191 
L 224.340425 56.600864 
L 208.430225 58.443447 
L 200.475125 59.052435 
L 191.540998 59.405983 
L 181.913225 59.535129 
L 120.924125 59.917507 
L 112.969025 60.174679 
L 107.665625 60.453248 
L 107.665625 60.453248 
" clip-path="url(#p2306d37052)" style="fill: none; stroke: #0074ff"/>
    <path d="M 107.665625 240.824881 
L 112.969025 240.433766 
L 118.272425 240.23732 
L 123.575825 240.214015 
L 128.879225 240.35767 
L 134.182625 240.671575 
L 142.137725 241.379685 
L 155.396225 242.827022 
L 176.609825 245.141464 
L 184.564925 245.793719 
L 192.520025 246.250612 
L 200.475125 246.468669 
L 208.430225 246.407467 
L 216.385325 246.038878 
L 224.340425 245.399965 
L 240.250625 244.025966 
L 248.205725 243.63026 
L 256.160825 243.46463 
L 269.419325 243.474227 
L 287.981225 243.491946 
L 303.891425 243.24369 
L 319.801625 242.772566 
L 327.756725 242.368523 
L 335.711825 241.78334 
L 346.318625 240.824881 
M 346.318625 64.907306 
L 341.015225 65.298422 
L 335.711825 65.494867 
L 330.408425 65.518172 
L 325.105025 65.374517 
L 319.801625 65.060613 
L 311.846525 64.352503 
L 298.588025 62.905166 
L 277.374425 60.590724 
L 269.419325 59.938468 
L 261.464225 59.481576 
L 253.509125 59.263519 
L 245.554025 59.324721 
L 237.598925 59.693309 
L 229.643825 60.332222 
L 213.733625 61.706221 
L 205.778525 62.101927 
L 197.823425 62.267558 
L 184.564925 62.25796 
L 166.003025 62.240242 
L 150.092825 62.488498 
L 134.182625 62.959621 
L 126.227525 63.363665 
L 118.272425 63.948848 
L 107.665625 64.907306 
L 107.665625 64.907306 
" clip-path="url(#p2306d37052)" style="fill: none; stroke: #0098ff"/>
    <path d="M 107.665625 237.038484 
L 112.969025 236.783965 
L 118.272425 236.70028 
L 126.227525 236.865802 
L 134.182625 237.319042 
L 142.137725 238.001352 
L 163.351325 240.185065 
L 176.609825 241.422285 
L 184.564925 241.971112 
L 192.520025 242.311666 
L 200.475125 242.402748 
L 208.430225 242.216867 
L 216.385325 241.782224 
L 232.295525 240.758078 
L 240.287956 240.484948 
L 248.205725 240.423258 
L 261.464225 240.586152 
L 280.026125 240.816838 
L 293.284625 240.715774 
L 306.543125 240.345171 
L 317.149925 239.780963 
L 325.105025 239.130946 
L 338.363525 237.711572 
L 343.666925 237.226191 
L 346.318625 237.038484 
M 346.318625 68.693703 
L 341.015225 68.948222 
L 335.711825 69.031908 
L 327.756725 68.866385 
L 319.801625 68.413146 
L 311.846525 67.730835 
L 290.632925 65.547122 
L 277.374425 64.309903 
L 269.419325 63.761075 
L 261.464225 63.420522 
L 253.509125 63.329439 
L 245.554025 63.51532 
L 237.598925 63.949964 
L 221.688725 64.974109 
L 213.696294 65.24724 
L 205.778525 65.30893 
L 192.520025 65.146035 
L 173.958125 64.915349 
L 160.699625 65.016414 
L 147.441125 65.387017 
L 136.834325 65.951224 
L 128.879225 66.601242 
L 115.620725 68.020616 
L 110.317325 68.505997 
L 107.665625 68.693703 
L 107.665625 68.693703 
" clip-path="url(#p2306d37052)" style="fill: none; stroke: #00bcff"/>
    <path d="M 107.665625 233.81637 
L 112.969025 233.664104 
L 120.924125 233.702735 
L 128.879225 233.996701 
L 139.486025 234.678104 
L 158.047925 236.29458 
L 173.604818 237.564319 
L 179.261525 237.922208 
L 187.216625 238.263032 
L 195.171725 238.372266 
L 203.126825 238.232724 
L 213.733625 237.754159 
L 224.340425 237.289738 
L 232.295525 237.135383 
L 242.902325 237.205533 
L 258.812525 237.639981 
L 274.722725 238.007547 
L 285.329525 238.046469 
L 295.936325 237.877308 
L 304.265852 237.564319 
L 311.846525 237.083998 
L 319.801625 236.349632 
L 341.015225 234.117275 
L 346.318625 233.81637 
M 346.318625 71.915818 
L 341.015225 72.068083 
L 333.060125 72.029453 
L 325.105025 71.735486 
L 314.498225 71.054083 
L 295.936325 69.437608 
L 280.379432 68.167868 
L 274.722725 67.80998 
L 266.767625 67.469155 
L 258.812525 67.359922 
L 250.857425 67.499463 
L 240.250625 67.978028 
L 229.643825 68.442449 
L 221.688725 68.596805 
L 211.081925 68.526655 
L 195.171725 68.092207 
L 179.261525 67.72464 
L 168.654725 67.685718 
L 158.047925 67.854879 
L 149.718398 68.167868 
L 142.137725 68.648189 
L 134.182625 69.382556 
L 112.969025 71.614913 
L 107.665625 71.915818 
L 107.665625 71.915818 
" clip-path="url(#p2306d37052)" style="fill: none; stroke: #00e0fb"/>
    <path d="M 107.665625 230.966291 
L 115.620725 230.890229 
L 123.575825 231.037282 
L 134.182625 231.478625 
L 147.441125 232.30949 
L 171.306425 233.906748 
L 179.261525 234.254349 
L 187.216625 234.413487 
L 195.171725 234.350864 
L 205.778525 234.009607 
L 216.385325 233.677006 
L 224.340425 233.606014 
L 234.947225 233.779078 
L 248.205725 234.26843 
L 266.767625 234.975467 
L 277.374425 235.186318 
L 287.981225 235.176709 
L 295.936325 234.991907 
L 303.891425 234.605657 
L 311.846525 233.947228 
L 322.453325 232.782835 
L 333.060125 231.673894 
L 341.015225 231.162022 
L 346.318625 230.966291 
M 346.318625 74.765896 
L 338.363525 74.841958 
L 330.408425 74.694905 
L 319.801625 74.253562 
L 306.543125 73.422697 
L 282.677825 71.825439 
L 274.722725 71.477838 
L 266.767625 71.3187 
L 258.812525 71.381324 
L 248.205725 71.722581 
L 237.598925 72.055181 
L 229.643825 72.126174 
L 219.037025 71.953109 
L 205.778525 71.463757 
L 187.216625 70.75672 
L 176.609825 70.545869 
L 166.003025 70.555479 
L 158.047925 70.740281 
L 150.092825 71.12653 
L 142.137725 71.784959 
L 131.530925 72.949352 
L 120.924125 74.058294 
L 112.969025 74.570166 
L 107.665625 74.765896 
L 107.665625 74.765896 
" clip-path="url(#p2306d37052)" style="fill: none; stroke: #19ffde"/>
    <path d="M 107.665625 228.347073 
L 115.620725 228.322733 
L 126.227525 228.510471 
L 139.486025 228.991744 
L 173.958125 230.521379 
L 181.913225 230.602619 
L 189.868325 230.493902 
L 213.733625 229.943234 
L 221.688725 230.043454 
L 232.295525 230.413021 
L 272.071025 232.156896 
L 282.677825 232.264443 
L 290.632925 232.15386 
L 298.588025 231.831065 
L 306.543125 231.238253 
L 333.060125 228.799393 
L 341.015225 228.462692 
L 346.318625 228.347073 
M 346.318625 77.385115 
L 338.363525 77.409455 
L 327.756725 77.221716 
L 314.498225 76.740443 
L 280.026125 75.210809 
L 272.071025 75.129568 
L 264.115925 75.238285 
L 240.250625 75.788953 
L 232.295525 75.688733 
L 221.688725 75.319167 
L 181.913225 73.575291 
L 171.306425 73.467744 
L 163.351325 73.578328 
L 155.396225 73.901123 
L 147.441125 74.493935 
L 120.924125 76.932794 
L 112.969025 77.269496 
L 107.665625 77.385115 
L 107.665625 77.385115 
" clip-path="url(#p2306d37052)" style="fill: none; stroke: #33ffc4"/>
    <path d="M 107.665625 225.856877 
L 120.924125 225.895976 
L 136.834325 226.196716 
L 168.654725 227.006302 
L 176.609825 226.976402 
L 187.216625 226.690034 
L 200.475125 226.290172 
L 208.430225 226.261764 
L 216.385325 226.436036 
L 226.992125 226.899607 
L 266.767625 228.969379 
L 277.374425 229.181425 
L 285.329525 229.151247 
L 293.284625 228.90559 
L 301.239725 228.400757 
L 327.756725 226.34103 
L 335.711825 226.034509 
L 346.318625 225.856877 
M 346.318625 79.875311 
L 333.060125 79.836212 
L 317.149925 79.535471 
L 285.329525 78.725886 
L 277.374425 78.755785 
L 266.767625 79.042153 
L 253.509125 79.442016 
L 245.554025 79.470424 
L 237.598925 79.296151 
L 226.992125 78.832581 
L 187.216625 76.762808 
L 176.609825 76.550763 
L 168.654725 76.58094 
L 160.699625 76.826597 
L 152.744525 77.33143 
L 126.227525 79.391158 
L 118.272425 79.697678 
L 107.665625 79.875311 
L 107.665625 79.875311 
" clip-path="url(#p2306d37052)" style="fill: none; stroke: #50ffa7"/>
    <path d="M 107.665625 223.417945 
L 126.227525 223.458457 
L 166.003025 223.688588 
L 176.609825 223.364597 
L 192.520025 222.716795 
L 200.475125 222.628371 
L 208.430225 222.760648 
L 219.037025 223.212277 
L 237.598925 224.337441 
L 256.160825 225.401049 
L 266.767625 225.815814 
L 274.722725 225.967621 
L 282.677825 225.939091 
L 290.632925 225.686762 
L 301.239725 225.030353 
L 314.498225 224.148557 
L 325.105025 223.701119 
L 335.711825 223.491558 
L 346.318625 223.417945 
M 346.318625 82.314242 
L 327.756725 82.27373 
L 287.981225 82.043599 
L 277.374425 82.36759 
L 261.464225 83.015392 
L 253.509125 83.103817 
L 245.554025 82.97154 
L 234.947225 82.519911 
L 216.385325 81.394747 
L 197.823425 80.331139 
L 187.216625 79.916373 
L 179.261525 79.764566 
L 171.306425 79.793097 
L 163.351325 80.045426 
L 152.744525 80.701834 
L 139.486025 81.58363 
L 128.879225 82.031069 
L 118.272425 82.240629 
L 107.665625 82.314242 
L 107.665625 82.314242 
" clip-path="url(#p2306d37052)" style="fill: none; stroke: #6dff8a"/>
    <path d="M 107.665625 220.962079 
L 150.092825 220.828248 
L 160.699625 220.585546 
L 171.306425 220.075796 
L 184.564925 219.348869 
L 192.520025 219.14441 
L 200.475125 219.18674 
L 208.430225 219.437992 
L 219.964399 220.040549 
L 256.160825 222.178356 
L 266.767625 222.528443 
L 274.722725 222.612407 
L 282.677825 222.497802 
L 293.284625 222.052555 
L 309.194825 221.279977 
L 319.801625 221.02617 
L 335.711825 220.95703 
L 346.318625 220.962079 
M 346.318625 84.770108 
L 303.891425 84.903939 
L 293.284625 85.146642 
L 282.677825 85.656391 
L 269.419325 86.383319 
L 261.464225 86.587778 
L 253.509125 86.545448 
L 245.554025 86.294196 
L 234.019851 85.691639 
L 197.823425 83.553831 
L 187.216625 83.203745 
L 179.261525 83.119781 
L 171.306425 83.234386 
L 160.699625 83.679632 
L 144.789425 84.452211 
L 134.182625 84.706017 
L 118.272425 84.775158 
L 107.665625 84.770108 
L 107.665625 84.770108 
" clip-path="url(#p2306d37052)" style="fill: none; stroke: #8aff6d"/>
    <path d="M 107.665625 218.459053 
L 126.227525 218.391085 
L 142.137725 218.15254 
L 152.744525 217.804249 
L 160.699625 217.365428 
L 181.913225 215.959255 
L 189.868325 215.773105 
L 197.823425 215.842581 
L 208.430225 216.22914 
L 224.135508 217.11992 
L 248.205725 218.520035 
L 258.812525 218.936659 
L 269.419325 219.106924 
L 277.374425 219.03084 
L 287.981225 218.691598 
L 301.239725 218.243895 
L 311.846525 218.131785 
L 327.756725 218.282199 
L 346.318625 218.459053 
M 346.318625 87.273134 
L 327.756725 87.341103 
L 311.846525 87.579648 
L 301.239725 87.927938 
L 293.284625 88.366759 
L 272.071025 89.772932 
L 264.115925 89.959082 
L 256.160825 89.889607 
L 245.554025 89.503047 
L 229.848742 88.612267 
L 205.778525 87.212152 
L 195.171725 86.795529 
L 184.564925 86.625264 
L 176.609825 86.701347 
L 166.003025 87.04059 
L 152.744525 87.488292 
L 142.137725 87.600403 
L 126.227525 87.449989 
L 107.665625 87.273134 
L 107.665625 87.273134 
" clip-path="url(#p2306d37052)" style="fill: none; stroke: #a7ff50"/>
    <path d="M 107.665625 215.880169 
L 123.575825 215.824952 
L 136.834325 215.538061 
L 147.441125 215.075941 
L 155.396225 214.52767 
L 176.609825 212.838631 
L 184.564925 212.567724 
L 192.520025 212.563897 
L 203.126825 212.857328 
L 216.385325 213.499133 
L 248.205725 215.166059 
L 258.812525 215.45115 
L 269.419325 215.466296 
L 280.026125 215.22798 
L 293.284625 214.906447 
L 303.891425 214.912376 
L 317.149925 215.22545 
L 338.363525 215.789754 
L 346.318625 215.880169 
M 346.318625 89.852019 
L 330.408425 89.907235 
L 317.149925 90.194127 
L 306.543125 90.656246 
L 298.588025 91.204518 
L 277.374425 92.893556 
L 269.419325 93.164464 
L 261.464225 93.16829 
L 250.857425 92.874859 
L 237.598925 92.233055 
L 205.778525 90.566129 
L 195.171725 90.281037 
L 184.564925 90.265892 
L 173.958125 90.504207 
L 160.699625 90.82574 
L 150.092825 90.819811 
L 136.834325 90.506737 
L 115.620725 89.942433 
L 107.665625 89.852019 
L 107.665625 89.852019 
" clip-path="url(#p2306d37052)" style="fill: none; stroke: #c4ff33"/>
    <path d="M 107.665625 213.195578 
L 120.924125 213.179459 
L 131.530925 212.933887 
L 139.486025 212.573621 
L 147.441125 212.017753 
L 158.047925 211.010362 
L 168.654725 210.053074 
L 176.609825 209.604257 
L 184.564925 209.425923 
L 192.520025 209.474164 
L 203.126825 209.767682 
L 219.037025 210.478651 
L 240.250625 211.465102 
L 250.857425 211.754082 
L 261.464225 211.795897 
L 274.722725 211.526601 
L 285.329525 211.315813 
L 293.284625 211.333898 
L 303.891425 211.626036 
L 343.666925 213.164596 
L 346.318625 213.195578 
M 346.318625 92.536609 
L 333.060125 92.552728 
L 322.453325 92.7983 
L 314.498225 93.158566 
L 306.543125 93.714434 
L 295.936325 94.721826 
L 285.329525 95.679114 
L 277.374425 96.12793 
L 269.419325 96.306265 
L 261.464225 96.258024 
L 250.857425 95.964506 
L 234.947225 95.253537 
L 213.733625 94.267085 
L 203.126825 93.978105 
L 192.520025 93.93629 
L 179.261525 94.205586 
L 168.654725 94.416375 
L 160.699625 94.398289 
L 150.092825 94.106151 
L 110.317325 92.567591 
L 107.665625 92.536609 
L 107.665625 92.536609 
" clip-path="url(#p2306d37052)" style="fill: none; stroke: #deff19"/>
    <path d="M 107.665625 210.371021 
L 118.272425 210.397828 
L 126.227525 210.243915 
L 134.182625 209.887089 
L 142.137725 209.309859 
L 152.744525 208.251106 
L 163.351325 207.222631 
L 171.306425 206.705505 
L 179.261525 206.443109 
L 187.216625 206.392062 
L 197.823425 206.549421 
L 211.081925 206.967723 
L 240.250625 207.99989 
L 250.857425 208.094777 
L 261.464225 207.930459 
L 280.026125 207.523595 
L 287.981225 207.594839 
L 295.936325 207.862849 
L 306.543125 208.446578 
L 333.060125 209.968215 
L 343.666925 210.326012 
L 346.318625 210.371021 
M 346.318625 95.361167 
L 335.711825 95.334359 
L 327.756725 95.488273 
L 319.801625 95.845099 
L 311.846525 96.422328 
L 301.239725 97.481082 
L 290.632925 98.509557 
L 282.677825 99.026683 
L 274.722725 99.289078 
L 266.767625 99.340125 
L 256.160825 99.182767 
L 242.902325 98.764464 
L 213.733625 97.732298 
L 203.126825 97.63741 
L 192.520025 97.801728 
L 173.958125 98.208592 
L 166.003025 98.137349 
L 158.047925 97.869339 
L 147.441125 97.285609 
L 120.924125 95.763972 
L 110.317325 95.406176 
L 107.665625 95.361167 
L 107.665625 95.361167 
" clip-path="url(#p2306d37052)" style="fill: none; stroke: #fbf100"/>
    <path d="M 107.665625 207.360159 
L 118.272425 207.393596 
L 126.227525 207.184044 
L 134.182625 206.712177 
L 142.137725 206.013838 
L 160.699625 204.22019 
L 168.654725 203.742697 
L 176.609825 203.485839 
L 187.216625 203.394666 
L 200.475125 203.547046 
L 221.688725 204.111117 
L 234.947225 204.372951 
L 245.554025 204.351771 
L 256.160825 204.088034 
L 272.071025 203.630592 
L 280.026125 203.635415 
L 287.981225 203.865724 
L 298.588025 204.452346 
L 338.363525 207.120911 
L 346.318625 207.360159 
M 346.318625 98.372028 
L 335.711825 98.338591 
L 327.756725 98.548143 
L 319.801625 99.02001 
L 311.846525 99.718349 
L 293.284625 101.511997 
L 285.329525 101.98949 
L 277.374425 102.246349 
L 266.767625 102.337521 
L 253.509125 102.185142 
L 232.295525 101.62107 
L 219.037025 101.359236 
L 208.430225 101.380417 
L 197.823425 101.644153 
L 181.913225 102.101595 
L 173.958125 102.096772 
L 166.003025 101.866463 
L 155.396225 101.279842 
L 115.620725 98.611277 
L 107.665625 98.372028 
L 107.665625 98.372028 
" clip-path="url(#p2306d37052)" style="fill: none; stroke: #ffd000"/>
    <path d="M 107.665625 204.098223 
L 115.620725 204.138392 
L 123.575825 203.957427 
L 131.530925 203.478158 
L 142.457369 202.516778 
L 152.744525 201.578734 
L 160.699625 201.039619 
L 168.654725 200.683794 
L 179.261525 200.437933 
L 192.520025 200.375506 
L 208.430225 200.550327 
L 226.992125 200.77576 
L 237.598925 200.684429 
L 248.205725 200.338532 
L 266.767625 199.632407 
L 274.722725 199.607112 
L 282.677825 199.816339 
L 290.632925 200.231001 
L 301.239725 200.99841 
L 333.060125 203.529348 
L 341.015225 203.945998 
L 346.318625 204.098223 
M 346.318625 101.633964 
L 338.363525 101.593795 
L 330.408425 101.77476 
L 322.453325 102.25403 
L 311.526881 103.21541 
L 301.239725 104.153453 
L 293.284625 104.692569 
L 285.329525 105.048394 
L 274.722725 105.294254 
L 261.464225 105.356682 
L 245.554025 105.18186 
L 226.992125 104.956427 
L 216.385325 105.047759 
L 205.778525 105.393655 
L 187.216625 106.099781 
L 179.261525 106.125076 
L 171.306425 105.915849 
L 163.351325 105.501186 
L 152.744525 104.733777 
L 120.924125 102.202839 
L 112.969025 101.786189 
L 107.665625 101.633964 
L 107.665625 101.633964 
" clip-path="url(#p2306d37052)" style="fill: none; stroke: #ffae00"/>
    <path d="M 107.665625 200.49995 
L 115.620725 200.496265 
L 123.575825 200.262805 
L 131.530925 199.763564 
L 152.744525 198.228643 
L 163.351325 197.757337 
L 176.609825 197.42046 
L 192.520025 197.252691 
L 229.643825 197.085342 
L 240.250625 196.648521 
L 258.812525 195.654817 
L 266.767625 195.478419 
L 274.722725 195.550394 
L 282.677825 195.844799 
L 293.284625 196.529255 
L 309.194825 197.890271 
L 330.408425 199.73365 
L 341.015225 200.351993 
L 346.318625 200.49995 
M 346.318625 105.232238 
L 338.363525 105.235922 
L 330.408425 105.469383 
L 322.453325 105.968623 
L 301.239725 107.503544 
L 290.632925 107.97485 
L 277.374425 108.311728 
L 261.464225 108.479496 
L 224.340425 108.646845 
L 213.733625 109.083667 
L 195.171725 110.07737 
L 187.216625 110.253768 
L 179.261525 110.181793 
L 171.306425 109.887389 
L 160.699625 109.202933 
L 144.789425 107.841917 
L 123.575825 105.998537 
L 112.969025 105.380194 
L 107.665625 105.232238 
L 107.665625 105.232238 
" clip-path="url(#p2306d37052)" style="fill: none; stroke: #ff8d00"/>
    <path d="M 107.665625 196.438289 
L 115.620725 196.373959 
L 123.575825 196.141541 
L 158.047925 194.652982 
L 179.261525 194.18845 
L 197.823425 193.97686 
L 215.051219 193.754892 
L 224.340425 193.434203 
L 234.947225 192.802618 
L 253.509125 191.569408 
L 261.464225 191.303665 
L 269.419325 191.281558 
L 277.374425 191.478061 
L 285.329525 191.86512 
L 295.936325 192.624127 
L 311.846525 194.081735 
L 327.756725 195.476244 
L 338.363525 196.188264 
L 343.666925 196.397722 
L 346.318625 196.438289 
M 346.318625 109.293898 
L 338.363525 109.358229 
L 330.408425 109.590647 
L 295.936325 111.079206 
L 274.722725 111.543737 
L 256.160825 111.755327 
L 238.933031 111.977295 
L 229.643825 112.297985 
L 219.037025 112.92957 
L 200.475125 114.16278 
L 192.520025 114.428523 
L 184.564925 114.45063 
L 176.609825 114.254126 
L 168.654725 113.867067 
L 158.047925 113.10806 
L 142.137725 111.650453 
L 126.227525 110.255944 
L 115.620725 109.543924 
L 110.317325 109.334465 
L 107.665625 109.293898 
L 107.665625 109.293898 
" clip-path="url(#p2306d37052)" style="fill: none; stroke: #ff6c00"/>
    <path d="M 107.665625 191.697031 
L 126.227525 191.553994 
L 144.789425 191.292308 
L 192.520025 190.614634 
L 208.430225 190.236104 
L 219.037025 189.71524 
L 229.643825 188.914665 
L 248.205725 187.413787 
L 256.160825 187.04472 
L 264.115925 186.893689 
L 272.071025 186.963045 
L 280.026125 187.214802 
L 287.981225 187.656023 
L 301.239725 188.653653 
L 330.408425 191.087385 
L 341.015225 191.621284 
L 346.318625 191.697031 
M 346.318625 114.035157 
L 327.756725 114.178193 
L 309.194825 114.43988 
L 261.464225 115.117553 
L 245.554025 115.496084 
L 234.947225 116.016948 
L 224.340425 116.817523 
L 205.778525 118.318401 
L 197.823425 118.687468 
L 189.868325 118.838499 
L 181.913225 118.769142 
L 173.958125 118.517386 
L 166.003025 118.076164 
L 152.744525 117.078534 
L 123.575825 114.644802 
L 112.969025 114.110903 
L 107.665625 114.035157 
L 107.665625 114.035157 
" clip-path="url(#p2306d37052)" style="fill: none; stroke: #ff4e00"/>
    <path d="M 107.665625 186.209145 
L 118.272425 186.430474 
L 131.530925 186.798417 
L 150.092825 187.189183 
L 163.351325 187.250385 
L 184.564925 187.066805 
L 195.171725 186.837666 
L 205.778525 186.400998 
L 213.733625 185.873175 
L 224.340425 184.920413 
L 237.598925 183.584203 
L 245.554025 182.962749 
L 253.509125 182.549869 
L 261.464225 182.325545 
L 269.419325 182.287746 
L 280.026125 182.502633 
L 290.632925 183.012752 
L 301.239725 183.717827 
L 322.453325 185.261247 
L 338.363525 186.011501 
L 346.318625 186.209145 
M 346.318625 119.523043 
L 335.711825 119.301714 
L 322.453325 118.93377 
L 303.891425 118.543004 
L 290.632925 118.481803 
L 269.419325 118.665383 
L 258.812525 118.894522 
L 248.205725 119.33119 
L 240.250625 119.859012 
L 229.643825 120.811774 
L 216.385325 122.147984 
L 208.430225 122.769439 
L 200.475125 123.182318 
L 192.520025 123.406643 
L 184.564925 123.444442 
L 173.958125 123.229555 
L 163.351325 122.719435 
L 152.744525 122.01436 
L 131.530925 120.470941 
L 115.620725 119.720686 
L 107.665625 119.523043 
L 107.665625 119.523043 
" clip-path="url(#p2306d37052)" style="fill: none; stroke: #ff2d00"/>
    <path d="M 107.665625 179.836051 
L 115.620725 180.303366 
L 134.182625 181.688382 
L 142.137725 182.186488 
L 155.396225 182.708094 
L 168.654725 182.973183 
L 179.261525 183.016055 
L 189.868325 182.846077 
L 197.823425 182.51295 
L 205.778525 181.980908 
L 216.385325 180.902176 
L 234.947225 178.918277 
L 245.554025 178.058959 
L 256.160825 177.488875 
L 264.115925 177.234996 
L 274.722725 177.171145 
L 285.329525 177.37688 
L 301.239725 178.000711 
L 317.149925 178.644005 
L 341.015225 179.590439 
L 346.318625 179.836051 
M 346.318625 125.896137 
L 338.363525 125.428822 
L 319.801625 124.043806 
L 311.846525 123.5457 
L 298.588025 123.024094 
L 285.329525 122.759005 
L 274.722725 122.716132 
L 264.115925 122.88611 
L 256.160825 123.219237 
L 248.205725 123.75128 
L 237.598925 124.830011 
L 219.037025 126.81391 
L 208.430225 127.673229 
L 197.823425 128.243313 
L 189.868325 128.497191 
L 179.261525 128.561043 
L 168.654725 128.355307 
L 152.744525 127.731477 
L 136.834325 127.088182 
L 112.969025 126.141748 
L 107.665625 125.896137 
L 107.665625 125.896137 
" clip-path="url(#p2306d37052)" style="fill: none; stroke: #f60b00"/>
    <path d="M 107.665625 171.99651 
L 115.620725 172.857504 
L 123.575825 173.861361 
L 147.441125 176.441949 
L 158.047925 177.255068 
L 168.654725 177.809796 
L 176.609825 178.013513 
L 184.564925 177.97236 
L 192.520025 177.67497 
L 200.475125 177.112306 
L 209.661365 176.231122 
L 226.992125 174.274878 
L 240.250625 173.044659 
L 250.857425 172.186251 
L 261.464225 171.558188 
L 272.071025 171.199042 
L 285.329525 171.004723 
L 303.891425 170.756729 
L 319.801625 170.46961 
L 327.756725 170.586962 
L 333.060125 170.856767 
L 343.666925 171.762945 
L 346.318625 171.99651 
M 346.318625 133.735678 
L 338.363525 132.874684 
L 330.408425 131.870827 
L 306.543125 129.290239 
L 295.936325 128.477119 
L 285.329525 127.922392 
L 277.374425 127.718675 
L 269.419325 127.759828 
L 261.464225 128.057217 
L 253.509125 128.619882 
L 244.322885 129.501066 
L 226.992125 131.457309 
L 213.733625 132.687529 
L 203.126825 133.545936 
L 192.520025 134.173999 
L 181.913225 134.533145 
L 168.654725 134.727465 
L 150.092825 134.975459 
L 134.182625 135.262578 
L 126.227525 135.145226 
L 120.924125 134.87542 
L 110.317325 133.969242 
L 107.665625 133.735678 
L 107.665625 133.735678 
" clip-path="url(#p2306d37052)" style="fill: none; stroke: #cd0000"/>
    <path d="M 107.665625 157.774331 
L 110.317325 158.166155 
L 112.969025 158.713387 
L 118.272425 159.642743 
L 123.575825 160.966496 
L 126.227525 161.727759 
L 131.530925 162.958051 
L 139.486025 165.090385 
L 152.744525 168.024473 
L 160.699625 169.308241 
L 168.654725 170.317708 
L 171.306425 170.52703 
L 176.609825 170.783864 
L 184.564925 170.881622 
L 192.520025 170.668186 
L 200.475125 170.173815 
L 213.733625 168.999608 
L 232.295525 167.196768 
L 248.205725 165.487754 
L 266.767625 163.83994 
L 280.026125 162.596878 
L 288.240201 161.627979 
L 306.543125 158.580512 
L 311.846525 157.843113 
L 317.149925 157.357175 
L 325.105025 156.952712 
L 330.408425 156.859264 
L 335.711825 156.970293 
L 341.015225 157.270815 
L 346.318625 157.774331 
M 346.318625 147.957856 
L 343.666925 147.566033 
L 341.015225 147.0188 
L 335.711825 146.089444 
L 330.408425 144.765691 
L 327.756725 144.004428 
L 322.453325 142.774137 
L 314.498225 140.641803 
L 301.239725 137.707715 
L 293.284625 136.423946 
L 285.329525 135.414479 
L 282.677825 135.205158 
L 277.374425 134.948324 
L 269.419325 134.850566 
L 261.464225 135.064001 
L 253.509125 135.558372 
L 240.250625 136.73258 
L 221.688725 138.53542 
L 205.778525 140.244433 
L 187.216625 141.892248 
L 173.958125 143.135309 
L 165.744049 144.104208 
L 147.441125 147.151675 
L 142.137725 147.889074 
L 136.834325 148.375012 
L 128.879225 148.779475 
L 123.575825 148.872924 
L 118.272425 148.761895 
L 112.969025 148.461373 
L 107.665625 147.957856 
L 107.665625 147.957856 
" clip-path="url(#p2306d37052)" style="fill: none; stroke: #a40000"/>
    <path clip-path="url(#p2306d37052)" style="fill: none; stroke: #800000"/>
   </g>
   <g id="patch_3">
    <path d="M 107.665625 284.294375 
L 107.665625 21.437813 
" style="fill: none; stroke: #000000; stroke-width: 0.8; stroke-linejoin: miter; stroke-linecap: square"/>
   </g>
   <g id="patch_4">
    <path d="M 107.665625 284.294375 
L 346.318625 284.294375 
" style="fill: none; stroke: #000000; stroke-width: 0.8; stroke-linejoin: miter; stroke-linecap: square"/>
   </g>
  </g>
  <g id="axes_2">
   <g id="patch_5">
    <path d="M 361.234437 284.294375 
L 374.377266 284.294375 
L 374.377266 21.437813 
L 361.234437 21.437813 
z
" style="fill: #ffffff"/>
   </g>
   <g id="matplotlib.axis_3"/>
   <g id="matplotlib.axis_4">
    <g id="ytick_6">
     <g id="line2d_11">
      <defs>
       <path id="m18012a4fcf" d="M 0 0 
L 3.5 0 
" style="stroke: #000000; stroke-width: 0.8"/>
      </defs>
      <g>
       <use xlink:href="#m18012a4fcf" x="374.377266" y="278.308863" style="stroke: #000000; stroke-width: 0.8"/>
      </g>
     </g>
     <g id="text_13">
      <!-- 1.04 -->
      <g transform="translate(381.377266 285.147457) scale(0.18 -0.18)">
       <defs>
        <path id="DejaVuSerif-31" d="M 909 0 
L 909 331 
L 1722 331 
L 1722 4213 
L 781 3603 
L 781 4013 
L 1919 4750 
L 2350 4750 
L 2350 331 
L 3163 331 
L 3163 0 
L 909 0 
z
" transform="scale(0.015625)"/>
        <path id="DejaVuSerif-2e" d="M 603 325 
Q 603 500 722 622 
Q 841 744 1019 744 
Q 1191 744 1312 622 
Q 1434 500 1434 325 
Q 1434 153 1312 31 
Q 1191 -91 1019 -91 
Q 841 -91 722 29 
Q 603 150 603 325 
z
" transform="scale(0.015625)"/>
        <path id="DejaVuSerif-34" d="M 2234 1581 
L 2234 4063 
L 641 1581 
L 2234 1581 
z
M 3609 0 
L 1484 0 
L 1484 331 
L 2234 331 
L 2234 1247 
L 197 1247 
L 197 1588 
L 2241 4750 
L 2859 4750 
L 2859 1581 
L 3750 1581 
L 3750 1247 
L 2859 1247 
L 2859 331 
L 3609 331 
L 3609 0 
z
" transform="scale(0.015625)"/>
       </defs>
       <use xlink:href="#DejaVuSerif-31"/>
       <use xlink:href="#DejaVuSerif-2e" x="63.623047"/>
       <use xlink:href="#DejaVuSerif-30" x="95.410156"/>
       <use xlink:href="#DejaVuSerif-34" x="159.033203"/>
      </g>
     </g>
    </g>
    <g id="ytick_7">
     <g id="line2d_12">
      <g>
       <use xlink:href="#m18012a4fcf" x="374.377266" y="231.194393" style="stroke: #000000; stroke-width: 0.8"/>
      </g>
     </g>
     <g id="text_14">
      <!-- 1.08 -->
      <g transform="translate(381.377266 238.032987) scale(0.18 -0.18)">
       <defs>
        <path id="DejaVuSerif-38" d="M 2981 1275 
Q 2981 1775 2732 2051 
Q 2484 2328 2034 2328 
Q 1584 2328 1336 2051 
Q 1088 1775 1088 1275 
Q 1088 772 1336 495 
Q 1584 219 2034 219 
Q 2484 219 2732 495 
Q 2981 772 2981 1275 
z
M 2853 3541 
Q 2853 3966 2637 4203 
Q 2422 4441 2034 4441 
Q 1650 4441 1433 4203 
Q 1216 3966 1216 3541 
Q 1216 3113 1433 2875 
Q 1650 2638 2034 2638 
Q 2422 2638 2637 2875 
Q 2853 3113 2853 3541 
z
M 2516 2484 
Q 3047 2413 3344 2092 
Q 3641 1772 3641 1275 
Q 3641 619 3225 264 
Q 2809 -91 2034 -91 
Q 1263 -91 845 264 
Q 428 619 428 1275 
Q 428 1772 725 2092 
Q 1022 2413 1556 2484 
Q 1084 2569 832 2842 
Q 581 3116 581 3541 
Q 581 4103 968 4426 
Q 1356 4750 2034 4750 
Q 2713 4750 3100 4426 
Q 3488 4103 3488 3541 
Q 3488 3116 3236 2842 
Q 2984 2569 2516 2484 
z
" transform="scale(0.015625)"/>
       </defs>
       <use xlink:href="#DejaVuSerif-31"/>
       <use xlink:href="#DejaVuSerif-2e" x="63.623047"/>
       <use xlink:href="#DejaVuSerif-30" x="95.410156"/>
       <use xlink:href="#DejaVuSerif-38" x="159.033203"/>
      </g>
     </g>
    </g>
    <g id="ytick_8">
     <g id="line2d_13">
      <g>
       <use xlink:href="#m18012a4fcf" x="374.377266" y="184.079923" style="stroke: #000000; stroke-width: 0.8"/>
      </g>
     </g>
     <g id="text_15">
      <!-- 1.12 -->
      <g transform="translate(381.377266 190.918517) scale(0.18 -0.18)">
       <defs>
        <path id="DejaVuSerif-32" d="M 819 3553 
L 469 3553 
L 469 4384 
Q 803 4563 1142 4656 
Q 1481 4750 1806 4750 
Q 2534 4750 2956 4397 
Q 3378 4044 3378 3438 
Q 3378 2753 2422 1800 
Q 2347 1728 2309 1691 
L 1131 513 
L 3078 513 
L 3078 1088 
L 3444 1088 
L 3444 0 
L 434 0 
L 434 341 
L 1850 1753 
Q 2319 2222 2519 2614 
Q 2719 3006 2719 3438 
Q 2719 3909 2473 4175 
Q 2228 4441 1797 4441 
Q 1350 4441 1106 4219 
Q 863 3997 819 3553 
z
" transform="scale(0.015625)"/>
       </defs>
       <use xlink:href="#DejaVuSerif-31"/>
       <use xlink:href="#DejaVuSerif-2e" x="63.623047"/>
       <use xlink:href="#DejaVuSerif-31" x="95.410156"/>
       <use xlink:href="#DejaVuSerif-32" x="159.033203"/>
      </g>
     </g>
    </g>
    <g id="ytick_9">
     <g id="line2d_14">
      <g>
       <use xlink:href="#m18012a4fcf" x="374.377266" y="136.965453" style="stroke: #000000; stroke-width: 0.8"/>
      </g>
     </g>
     <g id="text_16">
      <!-- 1.16 -->
      <g transform="translate(381.377266 143.804046) scale(0.18 -0.18)">
       <defs>
        <path id="DejaVuSerif-36" d="M 2094 219 
Q 2534 219 2771 542 
Q 3009 866 3009 1472 
Q 3009 2078 2771 2401 
Q 2534 2725 2094 2725 
Q 1647 2725 1412 2412 
Q 1178 2100 1178 1509 
Q 1178 888 1415 553 
Q 1653 219 2094 219 
z
M 1075 2569 
Q 1288 2803 1556 2918 
Q 1825 3034 2163 3034 
Q 2859 3034 3264 2615 
Q 3669 2197 3669 1472 
Q 3669 763 3233 336 
Q 2797 -91 2069 -91 
Q 1278 -91 853 498 
Q 428 1088 428 2181 
Q 428 3406 931 4078 
Q 1434 4750 2350 4750 
Q 2597 4750 2869 4703 
Q 3141 4656 3425 4563 
L 3425 3794 
L 3072 3794 
Q 3034 4109 2831 4275 
Q 2628 4441 2284 4441 
Q 1678 4441 1381 3981 
Q 1084 3522 1075 2569 
z
" transform="scale(0.015625)"/>
       </defs>
       <use xlink:href="#DejaVuSerif-31"/>
       <use xlink:href="#DejaVuSerif-2e" x="63.623047"/>
       <use xlink:href="#DejaVuSerif-31" x="95.410156"/>
       <use xlink:href="#DejaVuSerif-36" x="159.033203"/>
      </g>
     </g>
    </g>
    <g id="ytick_10">
     <g id="line2d_15">
      <g>
       <use xlink:href="#m18012a4fcf" x="374.377266" y="89.850982" style="stroke: #000000; stroke-width: 0.8"/>
      </g>
     </g>
     <g id="text_17">
      <!-- 1.20 -->
      <g transform="translate(381.377266 96.689576) scale(0.18 -0.18)">
       <use xlink:href="#DejaVuSerif-31"/>
       <use xlink:href="#DejaVuSerif-2e" x="63.623047"/>
       <use xlink:href="#DejaVuSerif-32" x="95.410156"/>
       <use xlink:href="#DejaVuSerif-30" x="159.033203"/>
      </g>
     </g>
    </g>
    <g id="ytick_11">
     <g id="line2d_16">
      <g>
       <use xlink:href="#m18012a4fcf" x="374.377266" y="42.736512" style="stroke: #000000; stroke-width: 0.8"/>
      </g>
     </g>
     <g id="text_18">
      <!-- 1.24 -->
      <g transform="translate(381.377266 49.575106) scale(0.18 -0.18)">
       <use xlink:href="#DejaVuSerif-31"/>
       <use xlink:href="#DejaVuSerif-2e" x="63.623047"/>
       <use xlink:href="#DejaVuSerif-32" x="95.410156"/>
       <use xlink:href="#DejaVuSerif-34" x="159.033203"/>
      </g>
     </g>
    </g>
   </g>
   <g id="LineCollection_1"/>
   <g id="LineCollection_2">
    <path d="M 361.234437 284.294375 
L 374.377266 284.294375 
" clip-path="url(#p1f2588e2ef)" style="fill: none; stroke: #000080"/>
    <path d="M 361.234437 275.230356 
L 374.377266 275.230356 
" clip-path="url(#p1f2588e2ef)" style="fill: none; stroke: #0000a4"/>
    <path d="M 361.234437 266.166336 
L 374.377266 266.166336 
" clip-path="url(#p1f2588e2ef)" style="fill: none; stroke: #0000cd"/>
    <path d="M 361.234437 257.102317 
L 374.377266 257.102317 
" clip-path="url(#p1f2588e2ef)" style="fill: none; stroke: #0000f6"/>
    <path d="M 361.234437 248.038297 
L 374.377266 248.038297 
" clip-path="url(#p1f2588e2ef)" style="fill: none; stroke: #000cff"/>
    <path d="M 361.234437 238.974278 
L 374.377266 238.974278 
" clip-path="url(#p1f2588e2ef)" style="fill: none; stroke: #0030ff"/>
    <path d="M 361.234437 229.910259 
L 374.377266 229.910259 
" clip-path="url(#p1f2588e2ef)" style="fill: none; stroke: #0050ff"/>
    <path d="M 361.234437 220.846239 
L 374.377266 220.846239 
" clip-path="url(#p1f2588e2ef)" style="fill: none; stroke: #0074ff"/>
    <path d="M 361.234437 211.78222 
L 374.377266 211.78222 
" clip-path="url(#p1f2588e2ef)" style="fill: none; stroke: #0098ff"/>
    <path d="M 361.234437 202.7182 
L 374.377266 202.7182 
" clip-path="url(#p1f2588e2ef)" style="fill: none; stroke: #00bcff"/>
    <path d="M 361.234437 193.654181 
L 374.377266 193.654181 
" clip-path="url(#p1f2588e2ef)" style="fill: none; stroke: #00e0fb"/>
    <path d="M 361.234437 184.590162 
L 374.377266 184.590162 
" clip-path="url(#p1f2588e2ef)" style="fill: none; stroke: #19ffde"/>
    <path d="M 361.234437 175.526142 
L 374.377266 175.526142 
" clip-path="url(#p1f2588e2ef)" style="fill: none; stroke: #33ffc4"/>
    <path d="M 361.234437 166.462123 
L 374.377266 166.462123 
" clip-path="url(#p1f2588e2ef)" style="fill: none; stroke: #50ffa7"/>
    <path d="M 361.234437 157.398103 
L 374.377266 157.398103 
" clip-path="url(#p1f2588e2ef)" style="fill: none; stroke: #6dff8a"/>
    <path d="M 361.234437 148.334084 
L 374.377266 148.334084 
" clip-path="url(#p1f2588e2ef)" style="fill: none; stroke: #8aff6d"/>
    <path d="M 361.234437 139.270065 
L 374.377266 139.270065 
" clip-path="url(#p1f2588e2ef)" style="fill: none; stroke: #a7ff50"/>
    <path d="M 361.234437 130.206045 
L 374.377266 130.206045 
" clip-path="url(#p1f2588e2ef)" style="fill: none; stroke: #c4ff33"/>
    <path d="M 361.234437 121.142026 
L 374.377266 121.142026 
" clip-path="url(#p1f2588e2ef)" style="fill: none; stroke: #deff19"/>
    <path d="M 361.234437 112.078006 
L 374.377266 112.078006 
" clip-path="url(#p1f2588e2ef)" style="fill: none; stroke: #fbf100"/>
    <path d="M 361.234437 103.013987 
L 374.377266 103.013987 
" clip-path="url(#p1f2588e2ef)" style="fill: none; stroke: #ffd000"/>
    <path d="M 361.234437 93.949968 
L 374.377266 93.949968 
" clip-path="url(#p1f2588e2ef)" style="fill: none; stroke: #ffae00"/>
    <path d="M 361.234437 84.885948 
L 374.377266 84.885948 
" clip-path="url(#p1f2588e2ef)" style="fill: none; stroke: #ff8d00"/>
    <path d="M 361.234437 75.821929 
L 374.377266 75.821929 
" clip-path="url(#p1f2588e2ef)" style="fill: none; stroke: #ff6c00"/>
    <path d="M 361.234437 66.757909 
L 374.377266 66.757909 
" clip-path="url(#p1f2588e2ef)" style="fill: none; stroke: #ff4e00"/>
    <path d="M 361.234437 57.69389 
L 374.377266 57.69389 
" clip-path="url(#p1f2588e2ef)" style="fill: none; stroke: #ff2d00"/>
    <path d="M 361.234437 48.629871 
L 374.377266 48.629871 
" clip-path="url(#p1f2588e2ef)" style="fill: none; stroke: #f60b00"/>
    <path d="M 361.234437 39.565851 
L 374.377266 39.565851 
" clip-path="url(#p1f2588e2ef)" style="fill: none; stroke: #cd0000"/>
    <path d="M 361.234437 30.501832 
L 374.377266 30.501832 
" clip-path="url(#p1f2588e2ef)" style="fill: none; stroke: #a40000"/>
    <path d="M 361.234437 21.437813 
L 374.377266 21.437813 
" clip-path="url(#p1f2588e2ef)" style="fill: none; stroke: #800000"/>
   </g>
   <g id="patch_6">
    <path d="M 361.234437 284.294375 
L 367.805852 284.294375 
L 374.377266 284.294375 
L 374.377266 21.437813 
L 367.805852 21.437813 
L 361.234437 21.437813 
L 361.234437 284.294375 
z
" style="fill: none; stroke: #000000; stroke-width: 0.8; stroke-linejoin: miter; stroke-linecap: square"/>
   </g>
  </g>
 </g>
 <defs>
  <clipPath id="p2306d37052">
   <rect x="107.665625" y="21.437813" width="238.653" height="262.856562"/>
  </clipPath>
  <clipPath id="p1f2588e2ef">
   <path d="M 361.234437 285.242631 
L 374.377266 285.242631 
L 374.377266 20.489557 
L 361.234437 20.489557 
z
"/>
  </clipPath>
 </defs>
</svg>
