<?xml version="1.0" encoding="UTF-8" standalone="no"?>
<svg
   xmlns:dc="http://purl.org/dc/elements/1.1/"
   xmlns:cc="http://creativecommons.org/ns#"
   xmlns:rdf="http://www.w3.org/1999/02/22-rdf-syntax-ns#"
   xmlns:svg="http://www.w3.org/2000/svg"
   xmlns="http://www.w3.org/2000/svg"
   xmlns:xlink="http://www.w3.org/1999/xlink"
   xmlns:sodipodi="http://sodipodi.sourceforge.net/DTD/sodipodi-0.dtd"
   xmlns:inkscape="http://www.inkscape.org/namespaces/inkscape"
   width="432pt"
   height="288pt"
   viewBox="0 0 432 288"
   version="1.1"
   id="svg281"
   sodipodi:docname="poincare-cross-section_6100.svg"
   inkscape:version="0.92.5 (2060ec1f9f, 2020-04-08)">
  <sodipodi:namedview
     pagecolor="#ffffff"
     bordercolor="#666666"
     borderopacity="1"
     objecttolerance="10"
     gridtolerance="10"
     guidetolerance="10"
     inkscape:pageopacity="0"
     inkscape:pageshadow="2"
     inkscape:window-width="6880"
     inkscape:window-height="2806"
     id="namedview283"
     showgrid="false"
     inkscape:zoom="1.7383042"
     inkscape:cx="548.33898"
     inkscape:cy="175.72881"
     inkscape:window-x="0"
     inkscape:window-y="0"
     inkscape:window-maximized="1"
     inkscape:current-layer="axes_1" />
  <metadata
     id="metadata2">
    <rdf:RDF>
      <cc:Work>
        <dc:type
           rdf:resource="http://purl.org/dc/dcmitype/StillImage" />
        <dc:date>2025-05-04T23:52:03.336729</dc:date>
        <dc:format>image/svg+xml</dc:format>
        <dc:creator>
          <cc:Agent>
            <dc:title>Matplotlib v3.9.2, https://matplotlib.org/</dc:title>
          </cc:Agent>
        </dc:creator>
        <dc:title></dc:title>
      </cc:Work>
    </rdf:RDF>
  </metadata>
  <defs
     id="defs6">
    <style
       type="text/css"
       id="style4">*{stroke-linejoin: round; stroke-linecap: butt}</style>
  </defs>
  <g
     id="figure_1">
    <g
       id="patch_1">
      <path
         d="M 0 288  L 432 288  L 432 0  L 0 0  z "
         style="fill: #ffffff"
         id="path8" />
    </g>
    <g
       id="axes_1">
      <g
         id="patch_2">
        <path
           d="M 96.774375 223.61625  L 398.934375 223.61625  L 398.934375 10.8  L 96.774375 10.8  z "
           style="fill: #ffffff"
           id="path11" />
      </g>
      <g
         id="matplotlib.axis_1">
        <g
           id="xtick_1">
          <g
             id="line2d_1">
            <defs
               id="defs15">
              <path
                 id="m60675a6fac"
                 d="M 0 0  L 0 3.5  "
                 style="stroke: #000000; stroke-width: 0.8" />
            </defs>
            <g
               id="g19">
              <use
                 xlink:href="#m60675a6fac"
                 x="96.774375"
                 y="223.61625"
                 style="stroke: #000000; stroke-width: 0.8"
                 id="use17" />
            </g>
          </g>
          <g
             id="text_1">
            <!-- 0.75 -->
            <g
               transform="translate(74.50875 245.813125) scale(0.2 -0.2)"
               id="g36">
              <defs
                 id="defs26">
                <path
                   id="DejaVuSans-30"
                   d="M 2034 4250  Q 1547 4250 1301 3770  Q 1056 3291 1056 2328  Q 1056 1369 1301 889  Q 1547 409 2034 409  Q 2525 409 2770 889  Q 3016 1369 3016 2328  Q 3016 3291 2770 3770  Q 2525 4250 2034 4250  z M 2034 4750  Q 2819 4750 3233 4129  Q 3647 3509 3647 2328  Q 3647 1150 3233 529  Q 2819 -91 2034 -91  Q 1250 -91 836 529  Q 422 1150 422 2328  Q 422 3509 836 4129  Q 1250 4750 2034 4750  z "
                   transform="scale(0.015625)" />
                <path
                   id="DejaVuSans-2e"
                   d="M 684 794  L 1344 794  L 1344 0  L 684 0  L 684 794  z "
                   transform="scale(0.015625)" />
                <path
                   id="DejaVuSans-37"
                   d="M 525 4666  L 3525 4666  L 3525 4397  L 1831 0  L 1172 0  L 2766 4134  L 525 4134  L 525 4666  z "
                   transform="scale(0.015625)" />
                <path
                   id="DejaVuSans-35"
                   d="M 691 4666  L 3169 4666  L 3169 4134  L 1269 4134  L 1269 2991  Q 1406 3038 1543 3061  Q 1681 3084 1819 3084  Q 2600 3084 3056 2656  Q 3513 2228 3513 1497  Q 3513 744 3044 326  Q 2575 -91 1722 -91  Q 1428 -91 1123 -41  Q 819 9 494 109  L 494 744  Q 775 591 1075 516  Q 1375 441 1709 441  Q 2250 441 2565 725  Q 2881 1009 2881 1497  Q 2881 1984 2565 2268  Q 2250 2553 1709 2553  Q 1456 2553 1204 2497  Q 953 2441 691 2322  L 691 4666  z "
                   transform="scale(0.015625)" />
              </defs>
              <use
                 xlink:href="#DejaVuSans-30"
                 id="use28" />
              <use
                 xlink:href="#DejaVuSans-2e"
                 x="63.623047"
                 id="use30" />
              <use
                 xlink:href="#DejaVuSans-37"
                 x="95.410156"
                 id="use32" />
              <use
                 xlink:href="#DejaVuSans-35"
                 x="159.033203"
                 id="use34" />
            </g>
          </g>
        </g>
        <g
           id="xtick_2">
          <g
             id="line2d_2">
            <g
               id="g42">
              <use
                 xlink:href="#m60675a6fac"
                 x="172.314375"
                 y="223.61625"
                 style="stroke: #000000; stroke-width: 0.8"
                 id="use40" />
            </g>
          </g>
          <g
             id="text_2">
            <!-- 0.88 -->
            <g
               transform="translate(150.04875 245.813125) scale(0.2 -0.2)"
               id="g56">
              <defs
                 id="defs46">
                <path
                   id="DejaVuSans-38"
                   d="M 2034 2216  Q 1584 2216 1326 1975  Q 1069 1734 1069 1313  Q 1069 891 1326 650  Q 1584 409 2034 409  Q 2484 409 2743 651  Q 3003 894 3003 1313  Q 3003 1734 2745 1975  Q 2488 2216 2034 2216  z M 1403 2484  Q 997 2584 770 2862  Q 544 3141 544 3541  Q 544 4100 942 4425  Q 1341 4750 2034 4750  Q 2731 4750 3128 4425  Q 3525 4100 3525 3541  Q 3525 3141 3298 2862  Q 3072 2584 2669 2484  Q 3125 2378 3379 2068  Q 3634 1759 3634 1313  Q 3634 634 3220 271  Q 2806 -91 2034 -91  Q 1263 -91 848 271  Q 434 634 434 1313  Q 434 1759 690 2068  Q 947 2378 1403 2484  z M 1172 3481  Q 1172 3119 1398 2916  Q 1625 2713 2034 2713  Q 2441 2713 2670 2916  Q 2900 3119 2900 3481  Q 2900 3844 2670 4047  Q 2441 4250 2034 4250  Q 1625 4250 1398 4047  Q 1172 3844 1172 3481  z "
                   transform="scale(0.015625)" />
              </defs>
              <use
                 xlink:href="#DejaVuSans-30"
                 id="use48" />
              <use
                 xlink:href="#DejaVuSans-2e"
                 x="63.623047"
                 id="use50" />
              <use
                 xlink:href="#DejaVuSans-38"
                 x="95.410156"
                 id="use52" />
              <use
                 xlink:href="#DejaVuSans-38"
                 x="159.033203"
                 id="use54" />
            </g>
          </g>
        </g>
        <g
           id="xtick_3">
          <g
             id="line2d_3">
            <g
               id="g62">
              <use
                 xlink:href="#m60675a6fac"
                 x="247.854375"
                 y="223.61625"
                 style="stroke: #000000; stroke-width: 0.8"
                 id="use60" />
            </g>
          </g>
          <g
             id="text_3">
            <!-- 1.00 -->
            <g
               transform="translate(225.58875 245.813125) scale(0.2 -0.2)"
               id="g76">
              <defs
                 id="defs66">
                <path
                   id="DejaVuSans-31"
                   d="M 794 531  L 1825 531  L 1825 4091  L 703 3866  L 703 4441  L 1819 4666  L 2450 4666  L 2450 531  L 3481 531  L 3481 0  L 794 0  L 794 531  z "
                   transform="scale(0.015625)" />
              </defs>
              <use
                 xlink:href="#DejaVuSans-31"
                 id="use68" />
              <use
                 xlink:href="#DejaVuSans-2e"
                 x="63.623047"
                 id="use70" />
              <use
                 xlink:href="#DejaVuSans-30"
                 x="95.410156"
                 id="use72" />
              <use
                 xlink:href="#DejaVuSans-30"
                 x="159.033203"
                 id="use74" />
            </g>
          </g>
        </g>
        <g
           id="xtick_4">
          <g
             id="line2d_4">
            <g
               id="g82">
              <use
                 xlink:href="#m60675a6fac"
                 x="323.394375"
                 y="223.61625"
                 style="stroke: #000000; stroke-width: 0.8"
                 id="use80" />
            </g>
          </g>
          <g
             id="text_4">
            <!-- 1.12 -->
            <g
               transform="translate(301.12875 245.813125) scale(0.2 -0.2)"
               id="g96">
              <defs
                 id="defs86">
                <path
                   id="DejaVuSans-32"
                   d="M 1228 531  L 3431 531  L 3431 0  L 469 0  L 469 531  Q 828 903 1448 1529  Q 2069 2156 2228 2338  Q 2531 2678 2651 2914  Q 2772 3150 2772 3378  Q 2772 3750 2511 3984  Q 2250 4219 1831 4219  Q 1534 4219 1204 4116  Q 875 4013 500 3803  L 500 4441  Q 881 4594 1212 4672  Q 1544 4750 1819 4750  Q 2544 4750 2975 4387  Q 3406 4025 3406 3419  Q 3406 3131 3298 2873  Q 3191 2616 2906 2266  Q 2828 2175 2409 1742  Q 1991 1309 1228 531  z "
                   transform="scale(0.015625)" />
              </defs>
              <use
                 xlink:href="#DejaVuSans-31"
                 id="use88" />
              <use
                 xlink:href="#DejaVuSans-2e"
                 x="63.623047"
                 id="use90" />
              <use
                 xlink:href="#DejaVuSans-31"
                 x="95.410156"
                 id="use92" />
              <use
                 xlink:href="#DejaVuSans-32"
                 x="159.033203"
                 id="use94" />
            </g>
          </g>
        </g>
        <g
           id="xtick_5">
          <g
             id="line2d_5">
            <g
               id="g102">
              <use
                 xlink:href="#m60675a6fac"
                 x="398.934375"
                 y="223.61625"
                 style="stroke: #000000; stroke-width: 0.8"
                 id="use100" />
            </g>
          </g>
          <g
             id="text_5">
            <!-- 1.25 -->
            <g
               transform="translate(376.66875 245.813125) scale(0.2 -0.2)"
               id="g113">
              <use
                 xlink:href="#DejaVuSans-31"
                 id="use105" />
              <use
                 xlink:href="#DejaVuSans-2e"
                 x="63.623047"
                 id="use107" />
              <use
                 xlink:href="#DejaVuSans-32"
                 x="95.410156"
                 id="use109" />
              <use
                 xlink:href="#DejaVuSans-35"
                 x="159.033203"
                 id="use111" />
            </g>
          </g>
        </g>
        <g
           id="text_6">
          <!-- R -->
          <g
             transform="translate(239.51625 272.20875) scale(0.24 -0.24)"
             id="g122">
            <defs
               id="defs118">
              <path
                 id="DejaVuSans-52"
                 d="M 2841 2188  Q 3044 2119 3236 1894  Q 3428 1669 3622 1275  L 4263 0  L 3584 0  L 2988 1197  Q 2756 1666 2539 1819  Q 2322 1972 1947 1972  L 1259 1972  L 1259 0  L 628 0  L 628 4666  L 2053 4666  Q 2853 4666 3247 4331  Q 3641 3997 3641 3322  Q 3641 2881 3436 2590  Q 3231 2300 2841 2188  z M 1259 4147  L 1259 2491  L 2053 2491  Q 2509 2491 2742 2702  Q 2975 2913 2975 3322  Q 2975 3731 2742 3939  Q 2509 4147 2053 4147  L 1259 4147  z "
                 transform="scale(0.015625)" />
            </defs>
            <use
               xlink:href="#DejaVuSans-52"
               id="use120" />
          </g>
        </g>
      </g>
      <g
         id="matplotlib.axis_2">
        <g
           id="ytick_1">
          <g
             id="line2d_6">
            <defs
               id="defs127">
              <path
                 id="mcb4e8ec817"
                 d="M 0 0  L -3.5 0  "
                 style="stroke: #000000; stroke-width: 0.8" />
            </defs>
            <g
               id="g131">
              <use
                 xlink:href="#mcb4e8ec817"
                 x="96.774375"
                 y="223.61625"
                 style="stroke: #000000; stroke-width: 0.8"
                 id="use129" />
            </g>
          </g>
          <g
             id="text_7">
            <!-- -0.20 -->
            <g
               transform="translate(38.0275 231.214688) scale(0.2 -0.2)"
               id="g147">
              <defs
                 id="defs135">
                <path
                   id="DejaVuSans-2d"
                   d="M 313 2009  L 1997 2009  L 1997 1497  L 313 1497  L 313 2009  z "
                   transform="scale(0.015625)" />
              </defs>
              <use
                 xlink:href="#DejaVuSans-2d"
                 id="use137" />
              <use
                 xlink:href="#DejaVuSans-30"
                 x="36.083984"
                 id="use139" />
              <use
                 xlink:href="#DejaVuSans-2e"
                 x="99.707031"
                 id="use141" />
              <use
                 xlink:href="#DejaVuSans-32"
                 x="131.494141"
                 id="use143" />
              <use
                 xlink:href="#DejaVuSans-30"
                 x="195.117188"
                 id="use145" />
            </g>
          </g>
        </g>
        <g
           id="ytick_2">
          <g
             id="line2d_7">
            <g
               id="g153">
              <use
                 xlink:href="#mcb4e8ec817"
                 x="96.774375"
                 y="176.32375"
                 style="stroke: #000000; stroke-width: 0.8"
                 id="use151" />
            </g>
          </g>
          <g
             id="text_8">
            <!-- -0.10 -->
            <g
               transform="translate(38.0275 183.922188) scale(0.2 -0.2)"
               id="g166">
              <use
                 xlink:href="#DejaVuSans-2d"
                 id="use156" />
              <use
                 xlink:href="#DejaVuSans-30"
                 x="36.083984"
                 id="use158" />
              <use
                 xlink:href="#DejaVuSans-2e"
                 x="99.707031"
                 id="use160" />
              <use
                 xlink:href="#DejaVuSans-31"
                 x="131.494141"
                 id="use162" />
              <use
                 xlink:href="#DejaVuSans-30"
                 x="195.117188"
                 id="use164" />
            </g>
          </g>
        </g>
        <g
           id="ytick_3">
          <g
             id="line2d_8">
            <g
               id="g172">
              <use
                 xlink:href="#mcb4e8ec817"
                 x="96.774375"
                 y="129.03125"
                 style="stroke: #000000; stroke-width: 0.8"
                 id="use170" />
            </g>
          </g>
          <g
             id="text_9">
            <!-- 0.00 -->
            <g
               transform="translate(45.243125 136.629687) scale(0.2 -0.2)"
               id="g183">
              <use
                 xlink:href="#DejaVuSans-30"
                 id="use175" />
              <use
                 xlink:href="#DejaVuSans-2e"
                 x="63.623047"
                 id="use177" />
              <use
                 xlink:href="#DejaVuSans-30"
                 x="95.410156"
                 id="use179" />
              <use
                 xlink:href="#DejaVuSans-30"
                 x="159.033203"
                 id="use181" />
            </g>
          </g>
        </g>
        <g
           id="ytick_4">
          <g
             id="line2d_9">
            <g
               id="g189">
              <use
                 xlink:href="#mcb4e8ec817"
                 x="96.774375"
                 y="81.73875"
                 style="stroke: #000000; stroke-width: 0.8"
                 id="use187" />
            </g>
          </g>
          <g
             id="text_10">
            <!-- 0.10 -->
            <g
               transform="translate(45.243125 89.337187) scale(0.2 -0.2)"
               id="g200">
              <use
                 xlink:href="#DejaVuSans-30"
                 id="use192" />
              <use
                 xlink:href="#DejaVuSans-2e"
                 x="63.623047"
                 id="use194" />
              <use
                 xlink:href="#DejaVuSans-31"
                 x="95.410156"
                 id="use196" />
              <use
                 xlink:href="#DejaVuSans-30"
                 x="159.033203"
                 id="use198" />
            </g>
          </g>
        </g>
        <g
           id="ytick_5">
          <g
             id="line2d_10">
            <g
               id="g206">
              <use
                 xlink:href="#mcb4e8ec817"
                 x="96.774375"
                 y="34.44625"
                 style="stroke: #000000; stroke-width: 0.8"
                 id="use204" />
            </g>
          </g>
          <g
             id="text_11">
            <!-- 0.20 -->
            <g
               transform="translate(45.243125 42.044687) scale(0.2 -0.2)"
               id="g217">
              <use
                 xlink:href="#DejaVuSans-30"
                 id="use209" />
              <use
                 xlink:href="#DejaVuSans-2e"
                 x="63.623047"
                 id="use211" />
              <use
                 xlink:href="#DejaVuSans-32"
                 x="95.410156"
                 id="use213" />
              <use
                 xlink:href="#DejaVuSans-30"
                 x="159.033203"
                 id="use215" />
            </g>
          </g>
        </g>
        <g
           id="text_12">
          <!-- Z -->
          <g
             transform="translate(29.03625 125.428125) rotate(-90) scale(0.24 -0.24)"
             id="g226">
            <defs
               id="defs222">
              <path
                 id="DejaVuSans-5a"
                 d="M 359 4666  L 4025 4666  L 4025 4184  L 1075 531  L 4097 531  L 4097 0  L 288 0  L 288 481  L 3238 4134  L 359 4134  L 359 4666  z "
                 transform="scale(0.015625)" />
            </defs>
            <use
               xlink:href="#DejaVuSans-5a"
               id="use224" />
          </g>
        </g>
      </g>
      <g
         id="line2d_11">
        <path
           d="M 241.162505 129.03125  L 241.048445 130.001141  L 240.710294 130.942374  L 240.15984 131.827634  L 239.415803 132.632147  L 238.502601 133.334622  L 237.224017 134.019009  L 235.797697 134.510589  L 234.280444 134.796995  L 232.728748 134.87416  L 231.196899 134.745338  L 229.735751 134.420071  L 228.391919 133.913285  L 227.207171 133.244565  L 226.217836 132.437586  L 225.454142 131.519583  L 224.93948 130.520791  L 224.689691 129.473729  L 224.689691 128.588771  L 224.879143 127.713771  L 225.350546 126.704626  L 226.074164 125.770988  L 227.027816 124.943524  L 228.182362 124.250015  L 229.502441 123.714763  L 230.94715 123.358072  L 232.47064 123.195691  L 234.022718 123.238117  L 235.549594 123.48972  L 236.995035 123.947729  L 238.302125 124.601217  L 239.415803 125.430353  L 240.15984 126.234866  L 240.710294 127.120126  L 241.048445 128.061359  L 241.162505 129.03125  L 241.162505 129.03125  "
           clip-path="url(#p0c45308d8b)"
           style="fill: none; stroke: #ff0000; stroke-linecap: round"
           id="path230" />
      </g>
      <g
         id="line2d_12">
        <path
           d="M 248.918158 129.03125  L 248.824633 130.273856  L 248.54584 131.500155  L 248.087034 132.694315  L 247.456686 133.841422  L 246.369207 135.274402  L 245.029879 136.571964  L 243.476293 137.712138  L 241.748394 138.678949  L 239.886348 139.462139  L 237.928916 140.056525  L 235.912409 140.461142  L 233.870188 140.678335  L 231.832607 140.712902  L 229.333926 140.509383  L 226.934127 140.046183  L 224.677407 139.34073  L 222.604546 138.412238  L 221.104288 137.523048  L 219.764395 136.516682  L 218.601962 135.406409  L 217.632582 134.206895  L 216.869915 132.934256  L 216.325189 131.605996  L 216.006709 130.240787  L 215.919449 128.858146  L 216.064787 127.478004  L 216.44043 126.120229  L 217.040542 124.804164  L 217.856044 123.548217  L 218.875051 122.369559  L 220.083377 121.283944  L 221.465015 120.30568  L 223.002546 119.447707  L 224.677407 118.72177  L 226.934127 118.016317  L 229.333926 117.553117  L 231.832607 117.349598  L 233.870188 117.384165  L 235.912409 117.601358  L 237.928916 118.005975  L 239.886348 118.600361  L 241.748394 119.383551  L 243.476293 120.350362  L 245.029879 121.490536  L 246.369207 122.788098  L 247.456686 124.221078  L 248.087034 125.368185  L 248.54584 126.562345  L 248.824633 127.788644  L 248.918158 129.03125  L 248.918158 129.03125  "
           clip-path="url(#p0c45308d8b)"
           style="fill: none; stroke: #ff0000; stroke-linecap: round"
           id="path233" />
      </g>
      <g
         id="line2d_13">
        <path
           d="M 256.390284 129.03125  L 256.229573 131.016221  L 255.751755 132.969277  L 254.969467 134.859871  L 253.902795 136.660064  L 252.577908 138.345527  L 251.025363 139.896232  L 249.278264 141.296783  L 247.370474 142.536406  L 245.335059 143.608642  L 243.203098 144.510806  L 241.00291 145.243316  L 238.759693 145.808966  L 235.739486 146.311515  L 232.72601 146.538855  L 229.756045 146.505733  L 226.860636 146.226931  L 224.06686 145.716498  L 221.399343 144.987466  L 218.881497 144.051982  L 216.536491 142.921773  L 214.387961 141.608895  L 212.460352 140.126666  L 210.77877 138.490639  L 209.368227 136.719394  L 208.502491 135.315371  L 207.811471 133.85826  L 207.30271 132.359718  L 206.982007 130.832262  L 206.853128 129.289041  L 206.917611 127.743556  L 207.174684 126.20936  L 207.621308 124.699753  L 208.252333 123.22749  L 209.060761 121.804537  L 210.038091 120.441877  L 211.587229 118.735706  L 213.394982 117.17446  L 215.436159 115.775123  L 217.685929 114.552017  L 220.120267 113.517705  L 222.71584 112.68397  L 225.449464 112.06267  L 228.297255 111.666359  L 231.233536 111.508583  L 234.229452 111.603822  L 237.251322 111.966971  L 240.2588 112.612287  L 242.475973 113.288769  L 244.633672 114.134203  L 246.704598 115.149879  L 248.658526 116.334225  L 250.462941 117.682108  L 252.084088 119.184241  L 253.48842 120.826785  L 254.644325 122.591237  L 255.523972 124.454641  L 256.105076 126.390165  L 256.372392 128.368004  L 256.390284 129.03125  L 256.390284 129.03125  "
           clip-path="url(#p0c45308d8b)"
           style="fill: none; stroke: #ff0000; stroke-linecap: round"
           id="path236" />
      </g>
      <g
         id="line2d_14">
        <path
           d="M 263.652286 129.03125  L 263.54368 130.905034  L 263.219561 132.762565  L 262.684964 134.588018  L 261.948077 136.366389  L 261.019931 138.083861  L 259.913994 139.728087  L 258.645669 141.288419  L 257.23173 142.756033  L 255.689743 144.123993  L 253.175474 145.978453  L 250.471183 147.587806  L 247.630324 148.949831  L 244.699628 150.068333  L 241.718334 150.951374  L 238.718444 151.609612  L 235.725648 152.054899  L 232.760526 152.299244  L 229.839724 152.354123  L 226.976951 152.230075  L 224.183799 151.936501  L 221.470409 151.481595  L 218.846036 150.872374  L 216.319508 150.11477  L 213.899614 149.213788  L 211.595467 148.17374  L 209.416905 146.99858  L 207.374914 145.692357  L 205.481977 144.259766  L 203.752193 142.706729  L 202.201062 141.040906  L 200.844895 139.272051  L 199.699944 137.412183  L 198.7814 135.475548  L 198.102397 133.478433  L 197.673172 131.438819  L 197.500416 129.375933  L 197.586871 127.309699  L 197.93116 125.260145  L 198.527877 123.246794  L 199.367907 121.288098  L 200.438994 119.400951  L 201.72653 117.600311  L 203.214503 115.89895  L 204.886514 114.307368  L 206.72671 112.833894  L 208.720484 111.484978  L 210.85481 110.26566  L 213.118237 109.180142  L 215.500589 108.232351  L 217.992557 107.426438  L 220.585287 106.767146  L 223.270003 106.260079  L 226.03764 105.911876  L 228.878409 105.730334  L 231.781272 105.724453  L 234.733306 105.904408  L 237.718947 106.281396  L 240.71905 106.867308  L 243.709763 107.674146  L 246.661314 108.713104  L 249.536946 109.993285  L 252.292396 111.520109  L 254.876291 113.293555  L 256.47563 114.60967  L 257.955815 116.028207  L 259.299107 117.543165  L 260.488263 119.146663  L 261.507121 120.828953  L 262.34118 122.578516  L 262.978131 124.382237  L 263.408321 126.225665  L 263.625108 128.093337  L 263.652286 129.03125  L 263.652286 129.03125  "
           clip-path="url(#p0c45308d8b)"
           style="fill: none; stroke: #ff0000; stroke-linecap: round"
           id="path239" />
      </g>
      <g
         id="line2d_15">
        <path
           d="M 270.793957 129.03125  L 270.641496 131.498285  L 270.187048 133.939727  L 269.439306 136.330883  L 268.412389 138.648787  L 267.125271 140.872897  L 265.60096 142.985616  L 263.865469 144.97261  L 261.946643 146.822935  L 259.872946 148.528971  L 257.672325 150.086218  L 255.371231 151.492978  L 252.993875 152.749961  L 250.561735 153.859846  L 246.85047 155.258343  L 243.107003 156.353734  L 239.36839 157.166488  L 235.661771 157.716958  L 232.007723 158.02391  L 228.422736 158.103921  L 224.920442 157.971314  L 221.512058 157.638278  L 218.206808 157.114997  L 215.012637 156.409785  L 211.936972 155.52927  L 208.987138 154.478562  L 206.17051 153.261374  L 203.494871 151.880205  L 200.969368 150.33683  L 198.60591 148.63325  L 196.420312 146.772961  L 194.432548 144.762154  L 192.665851 142.61051  L 191.144969 140.331481  L 189.894092 137.942193  L 188.934917 135.463119  L 188.285072 132.917618  L 187.956954 130.331297  L 187.956954 127.731203  L 188.285072 125.144882  L 188.934917 122.599381  L 189.894092 120.120307  L 191.144969 117.731019  L 192.665851 115.45199  L 194.432548 113.300346  L 196.420312 111.289539  L 198.60591 109.42925  L 200.969368 107.72567  L 203.494871 106.182295  L 206.17051 104.801126  L 208.987138 103.583938  L 211.936972 102.53323  L 215.012637 101.652715  L 218.206808 100.947503  L 221.512058 100.424222  L 224.920442 100.091186  L 228.422736 99.958579  L 232.007723 100.03859  L 235.661771 100.345542  L 239.36839 100.896012  L 243.107003 101.708766  L 246.85047 102.804157  L 250.561735 104.202654  L 252.993875 105.312539  L 255.371231 106.569522  L 257.672325 107.976282  L 259.872946 109.533529  L 261.946643 111.239565  L 263.865469 113.08989  L 265.60096 115.076884  L 267.125271 117.189603  L 268.412389 119.413713  L 269.439306 121.731617  L 270.187048 124.122773  L 270.641496 126.564215  L 270.793957 129.03125  L 270.793957 129.03125  "
           clip-path="url(#p0c45308d8b)"
           style="fill: none; stroke: #ff0000; stroke-linecap: round"
           id="path242" />
      </g>
      <g
         id="line2d_16">
        <path
           d="M 277.894404 129.03125  L 277.691401 132.132228  L 277.087109 135.194343  L 276.095551 138.180641  L 274.739564 141.057779  L 273.049803 143.797335  L 271.063116 146.376608  L 268.820365 148.778871  L 266.363986 150.993119  L 263.735685 153.013467  L 260.974599 154.83835  L 258.116071 156.469707  L 255.190971 157.912242  L 252.225366 159.172778  L 249.240406 160.259684  L 246.252396 161.182286  L 241.789511 162.279239  L 237.371096 163.059369  L 233.013148 163.549464  L 228.730486 163.770981  L 224.540114 163.741101  L 220.458909 163.474258  L 216.499847 162.982816  L 212.671358 162.276982  L 208.980122 161.36488  L 205.433739 160.253123  L 202.040454 158.94712  L 198.806987 157.450449  L 195.737936 155.76393  L 192.838625 153.885923  L 190.119807 151.814577  L 187.60091 149.551017  L 185.309858 147.101692  L 183.280051 144.479021  L 182.089284 142.642926  L 181.040219 140.744221  L 180.142174 138.790382  L 179.403502 136.789736  L 178.831353 134.751346  L 178.431455 132.68486  L 178.207923 130.600322  L 178.163098 128.50801  L 178.297454 126.418292  L 178.609575 124.341505  L 179.096218 122.287832  L 179.752439 120.267141  L 180.571771 118.288808  L 181.546436 116.361547  L 182.667568 114.493269  L 184.602498 111.81655  L 186.810335 109.307776  L 189.256737 106.981282  L 191.911531 104.845509  L 194.752264 102.903178  L 197.765498 101.153085  L 200.944616 99.593187  L 204.28525 98.223353  L 207.781486 97.046316  L 211.425351 96.066985  L 215.208845 95.29158  L 219.125158 94.727651  L 223.166837 94.38467  L 227.322563 94.274304  L 231.576431 94.410275  L 235.911033 94.808705  L 240.310871 95.489448  L 244.761102 96.4775  L 247.745945 97.321581  L 250.734176 98.325132  L 253.711794 99.497734  L 256.660099 100.848306  L 259.555476 102.384518  L 262.369432 104.112207  L 265.068802 106.03478  L 267.61623 108.152525  L 269.971104 110.461818  L 272.091087 112.954308  L 273.934224 115.616186  L 275.461362 118.427741  L 276.638509 121.363345  L 277.438754 124.391981  L 277.843579 127.478309  L 277.894404 129.03125  L 277.894404 129.03125  "
           clip-path="url(#p0c45308d8b)"
           style="fill: none; stroke: #ff0000; stroke-linecap: round"
           id="path245" />
      </g>
      <g
         id="line2d_17">
        <path
           d="M 284.998394 129.03125  L 284.93272 130.924827  L 284.736163 132.810951  L 284.410122 134.6823  L 283.956932 136.531807  L 283.379863 138.352779  L 282.683105 140.139002  L 281.871734 141.884831  L 280.951641 143.585265  L 278.812304 146.833417  L 276.323922 149.857549  L 273.548967 152.642689  L 270.547875 155.183132  L 267.374821 157.479954  L 264.076104 159.538446  L 260.690926 161.366162  L 257.253201 162.971942  L 253.792657 164.365817  L 250.334255 165.5593  L 246.896306 166.565444  L 243.488777 167.398245  L 238.436816 168.351992  L 233.443829 168.984196  L 228.503715 169.319179  L 223.636911 169.370854  L 218.881674 169.150435  L 214.269088 168.67042  L 209.809743 167.94257  L 205.503357 166.975178  L 201.35601 165.774592  L 197.384077 164.348739  L 193.602557 162.70651  L 190.0139 160.852037  L 186.611267 158.780401  L 183.393192 156.480955  L 180.375654 153.946205  L 178.491603 152.126319  L 176.724412 150.205889  L 175.08767 148.189729  L 173.594903 146.08394  L 172.259242 143.895977  L 171.093329 141.634931  L 170.10919 139.311644  L 169.317923 136.938354  L 168.729197 134.527872  L 168.350676 132.092645  L 168.187507 129.644177  L 168.24196 127.193114  L 168.513275 124.749892  L 168.99771 122.325534  L 169.688803 119.93205  L 170.577817 117.582173  L 171.654298 115.288549  L 172.906632 113.062797  L 174.322458 110.914893  L 175.888882 108.853077  L 177.592556 106.884097  L 179.419855 105.013425  L 182.3637 102.4002  L 185.517697 100.022745  L 188.85936 97.876395  L 192.385173 95.950514  L 196.101993 94.237497  L 200.011623 92.738623  L 204.102572 91.461944  L 208.357239 90.416093  L 212.765587 89.607646  L 217.327356 89.04386  L 222.037524 88.735476  L 226.87155 88.695159  L 231.79083 88.934447  L 236.766667 89.465535  L 241.797238 90.308521  L 245.188455 91.059868  L 248.611896 91.977576  L 252.061863 93.075676  L 255.52409 94.367814  L 258.976677 95.866302  L 262.392099 97.581876  L 265.738575 99.523944  L 268.979765 101.700763  L 272.073123 104.118942  L 274.96838 106.78196  L 277.607855 109.687836  L 279.929435 112.826508  L 280.951641 114.477235  L 281.871734 116.177669  L 282.683105 117.923498  L 283.379863 119.709721  L 283.956932 121.530693  L 284.410122 123.3802  L 284.736163 125.251549  L 284.93272 127.137673  L 284.998394 129.03125  L 284.998394 129.03125  "
           clip-path="url(#p0c45308d8b)"
           style="fill: none; stroke: #ff0000; stroke-linecap: round"
           id="path248" />
      </g>
      <g
         id="line2d_18">
        <path
           d="M 292.106433 129.03125  L 292.02294 131.288207  L 291.77315 133.533975  L 291.359159 135.757602  L 290.784534 137.948611  L 290.054397 140.097219  L 289.17548 142.194549  L 288.156121 144.232804  L 287.006155 146.205421  L 285.736687 148.107166  L 284.359734 149.934189  L 282.887772 151.684007  L 279.707869 154.948431  L 276.286522 157.903668  L 272.69215 160.564645  L 268.969432 162.950306  L 265.147265 165.077242  L 261.252238 166.956774  L 257.319175 168.59617  L 253.391892 170.00276  L 249.51327 171.188325  L 245.710416 172.171052  L 240.142774 173.314719  L 234.651177 174.12334  L 229.132707 174.632285  L 223.584997 174.840313  L 218.110617 174.738531  L 212.817414 174.335058  L 207.731778 173.649891  L 202.812791 172.694349  L 198.032086 171.466943  L 193.418375 169.970671  L 189.023571 168.224013  L 184.864149 166.245552  L 180.910543 164.030127  L 177.130938 161.549144  L 174.7105 159.734092  L 172.384828 157.787431  L 170.172418 155.712183  L 168.09149 153.513305  L 166.15769 151.195236  L 164.384644 148.761962  L 162.786135 146.219898  L 161.378 143.581665  L 160.178367 140.867752  L 159.206105 138.104083  L 158.478432 135.316019  L 158.008848 132.521796  L 157.806056 129.72915  L 157.873755 126.937315  L 158.210717 124.143557  L 158.810746 121.350769  L 159.662671 118.572045  L 160.750932 115.829882  L 162.057181 113.1508  L 163.562643 110.558578  L 165.250243 108.069797  L 167.105323 105.693568  L 169.114475 103.434607  L 171.263278 101.296921  L 173.534702 99.285394  L 175.909922 97.404403  L 178.37195 95.654882  L 182.208083 93.26605  L 186.225693 91.132024  L 190.462019 89.229902  L 194.934259 87.56408  L 199.609604 86.156083  L 204.436784 85.019623  L 209.405893 84.153965  L 214.558064 83.560658  L 219.919407 83.255693  L 225.432446 83.257323  L 230.978051 83.566993  L 236.480889 84.17457  L 241.984152 85.08879  L 245.710416 85.891448  L 249.51327 86.874175  L 253.391892 88.05974  L 257.319175 89.46633  L 261.252238 91.105726  L 265.147265 92.985258  L 268.969432 95.112194  L 272.69215 97.497855  L 276.286522 100.158832  L 279.707869 103.114069  L 282.887772 106.378493  L 284.359734 108.128311  L 285.736687 109.955334  L 287.006155 111.857079  L 288.156121 113.829696  L 289.17548 115.867951  L 290.054397 117.965281  L 290.784534 120.113889  L 291.359159 122.304898  L 291.77315 124.528525  L 292.02294 126.774293  L 292.106433 129.03125  L 292.106433 129.03125  "
           clip-path="url(#p0c45308d8b)"
           style="fill: none; stroke: #ff0000; stroke-linecap: round"
           id="path251" />
      </g>
      <g
         id="line2d_19">
        <path
           d="M 299.159798 129.03125  L 299.056438 131.654178  L 298.747152 134.261367  L 298.234442 136.837429  L 297.522823 139.367674  L 296.619239 141.838458  L 295.533456 144.237531  L 294.278289 146.554355  L 292.869538 148.780392  L 291.325559 150.909322  L 289.666447 152.937185  L 287.912889 154.862398  L 284.200065 158.409659  L 280.314407 161.5786  L 276.321303 164.414779  L 272.22434 166.964309  L 267.997769 169.258439  L 263.634279 171.306658  L 259.179985 173.101455  L 254.734209 174.632372  L 250.411592 175.901985  L 246.286831 176.934926  L 240.434678 178.136731  L 234.676061 179.047591  L 228.655271 179.714692  L 224.47045 179.995765  L 220.247184 180.117121  L 216.106036 180.068561  L 212.136153 179.859216  L 206.528857 179.288806  L 201.165827 178.449402  L 195.838954 177.320992  L 192.29793 176.387321  L 188.817735 175.308696  L 185.449852 174.100678  L 180.648372 172.083598  L 176.074534 169.819375  L 173.090784 168.136889  L 170.146068 166.28602  L 167.264891 164.257754  L 164.490862 162.063242  L 161.864997 159.723041  L 159.409623 157.248992  L 157.126907 154.632363  L 155.011065 151.848882  L 153.065047 148.880262  L 151.310764 145.739617  L 149.787193 142.483291  L 148.538833 139.198135  L 147.602534 135.967893  L 147.000454 132.836165  L 146.741567 129.787351  L 146.827898 126.757916  L 147.258912 123.673222  L 148.029926 120.490374  L 149.126004 117.223963  L 150.517319 113.941622  L 152.161798 110.733586  L 154.015942 107.674624  L 156.04832 104.799416  L 158.247061 102.102656  L 160.615484 99.559727  L 163.157478 97.152296  L 165.861612 94.882493  L 168.695011 92.768725  L 171.612694 90.828932  L 174.578088 89.064665  L 179.105139 86.703698  L 183.816792 84.608272  L 187.117405 83.342904  L 190.546632 82.197107  L 194.064409 81.189727  L 199.391464 79.954705  L 204.726828 79.02395  L 210.224812 78.361819  L 214.096607 78.079698  L 218.159433 77.948572  L 222.356002 77.984994  L 226.574842 78.188653  L 232.708185 78.764021  L 238.526046 79.594863  L 244.300308 80.686721  L 248.322717 81.616857  L 252.551274 82.763656  L 256.948588 84.162298  L 261.413234 85.82598  L 265.831711 87.749008  L 270.128687 89.920306  L 274.287276 92.339562  L 278.329858 95.027293  L 282.27313 98.023703  L 286.084822 101.37685  L 287.912889 103.200102  L 289.666447 105.125315  L 291.325559 107.153178  L 292.869538 109.282108  L 294.278289 111.508145  L 295.533456 113.824969  L 296.619239 116.224042  L 297.522823 118.694826  L 298.234442 121.225071  L 298.747152 123.801133  L 299.056438 126.408322  L 299.159798 129.03125  L 299.159798 129.03125  "
           clip-path="url(#p0c45308d8b)"
           style="fill: none; stroke: #ff0000; stroke-linecap: round"
           id="path254" />
      </g>
      <g
         id="line2d_20">
        <path
           d="M 305.95903 129.03125  L 305.838116 131.998395  L 305.476058 134.943104  L 304.875163 137.843712  L 304.040057 140.68005  L 302.978654 143.434079  L 301.703118 146.090408  L 300.23053 148.636673  L 298.583009 151.063778  L 296.787092 153.365992  L 294.872343 155.540921  L 292.869279 157.589353  L 288.709914 161.324018  L 284.478046 164.626473  L 280.223166 167.574188  L 275.878206 170.241754  L 271.328811 172.677274  L 266.514973 174.8886  L 261.506041 176.848195  L 256.499461 178.517714  L 251.735224 179.881688  L 245.335225 181.43613  L 237.598821 183.015375  L 231.252756 184.054819  L 226.514808 184.621197  L 221.543414 184.996378  L 216.643155 185.131429  L 212.093561 185.037388  L 206.12512 184.605238  L 200.748962 183.990763  L 195.200157 183.159458  L 191.254623 182.391929  L 187.228332 181.420742  L 183.295736 180.278171  L 177.790869 178.375045  L 172.606681 176.290693  L 169.113976 174.693219  L 165.513326 172.819117  L 161.868748 170.634244  L 158.329402 168.197553  L 155.041949 165.627117  L 152.068772 163.014488  L 149.363823 160.343204  L 146.818792 157.473256  L 144.346923 154.215931  L 141.949599 150.463522  L 139.725048 146.295115  L 137.818066 141.984139  L 136.347547 137.887684  L 135.359896 134.270351  L 134.834915 131.161168  L 134.732717 128.329636  L 135.042276 125.401195  L 135.793493 122.051711  L 137.023448 118.174205  L 138.723048 113.927373  L 140.806904 109.644491  L 143.134712 105.660758  L 145.576128 102.159281  L 148.078243 99.117365  L 150.689006 96.37001  L 153.516648 93.73855  L 156.647667 91.140935  L 160.075554 88.621975  L 163.688303 86.29853  L 167.325924 84.267528  L 170.872988 82.541214  L 176.048007 80.35625  L 181.405365 78.400071  L 185.240554 77.195394  L 189.240562 76.131505  L 193.247563 75.261517  L 198.947041 74.315969  L 204.307479 73.64583  L 209.9953 73.13971  L 214.312289 72.952512  L 219.064421 72.967766  L 224.040621 73.225533  L 228.928461 73.705384  L 233.471342 74.337707  L 239.546069 75.417722  L 247.368939 77.091058  L 251.735224 78.180812  L 256.499461 79.544786  L 261.506041 81.214305  L 266.514973 83.1739  L 271.328811 85.385226  L 275.878206 87.820746  L 280.223166 90.488312  L 284.478046 93.436027  L 288.709914 96.738482  L 292.869279 100.473147  L 294.872343 102.521579  L 296.787092 104.696508  L 298.583009 106.998722  L 300.23053 109.425827  L 301.703118 111.972092  L 302.978654 114.628421  L 304.040057 117.38245  L 304.875163 120.218788  L 305.476058 123.119396  L 305.838116 126.064105  L 305.95903 129.03125  L 305.95903 129.03125  "
           clip-path="url(#p0c45308d8b)"
           style="fill: none; stroke: #ff0000; stroke-width: 2; stroke-linecap: round"
           id="path257" />
      </g>
      <g
         id="patch_3">
        <path
           d="M 96.774375 223.61625  L 96.774375 10.8  "
           style="fill: none; stroke: #000000; stroke-width: 0.8; stroke-linejoin: miter; stroke-linecap: square"
           id="path268" />
      </g>
      <g
         id="patch_4">
        <path
           d="M 96.774375 223.61625  L 398.934375 223.61625  "
           style="fill: none; stroke: #000000; stroke-width: 0.8; stroke-linejoin: miter; stroke-linecap: square"
           id="path271" />
      </g>
    </g>
  </g>
  <defs
     id="defs279">
    <clipPath
       id="p0c45308d8b">
      <rect
         x="96.774375"
         y="10.8"
         width="302.16"
         height="212.81625"
         id="rect276" />
    </clipPath>
  </defs>
  <g
     id="line2d_19-3"
     transform="translate(120.66099,84.381358)"
     style="stroke-linecap:butt;stroke-linejoin:round">
    <circle
       style="opacity:1;fill:#ffffff;fill-opacity:0;stroke:#ff150d;stroke-width:1.26450002;stroke-linecap:butt;stroke-linejoin:round;stroke-miterlimit:4;stroke-dasharray:none;stroke-dashoffset:0;stroke-opacity:1"
       id="path2280-3"
       cx="259.62714"
       cy="44.54237"
       r="5.625" />
    <path
       style="fill:#ffffff;fill-opacity:0.71662765;stroke:#e91919;stroke-width:1.27499998;stroke-linecap:butt;stroke-linejoin:miter;stroke-miterlimit:4;stroke-dasharray:none;stroke-opacity:1"
       d="m 255.52757,40.442807 8.25,8.25"
       id="path1135"
       inkscape:connector-curvature="0" />
    <path
       style="fill:#ffffff;fill-opacity:0.71662765;stroke:#e91919;stroke-width:1.27499998;stroke-linecap:butt;stroke-linejoin:miter;stroke-miterlimit:4;stroke-dasharray:none;stroke-opacity:1"
       d="m 255.87191,48.133477 8.25,-8.25"
       id="path1135-3"
       inkscape:connector-curvature="0" />
  </g>
</svg>
