<?xml version="1.0" encoding="utf-8" standalone="no"?>
<!DOCTYPE svg PUBLIC "-//W3C//DTD SVG 1.1//EN"
  "http://www.w3.org/Graphics/SVG/1.1/DTD/svg11.dtd">
<svg xmlns:xlink="http://www.w3.org/1999/xlink" width="792pt" height="792pt" viewBox="0 0 792 792" xmlns="http://www.w3.org/2000/svg" version="1.1">
 <metadata>
  <rdf:RDF xmlns:dc="http://purl.org/dc/elements/1.1/" xmlns:cc="http://creativecommons.org/ns#" xmlns:rdf="http://www.w3.org/1999/02/22-rdf-syntax-ns#">
   <cc:Work>
    <dc:type rdf:resource="http://purl.org/dc/dcmitype/StillImage"/>
    <dc:date>2025-03-03T11:06:48.311579</dc:date>
    <dc:format>image/svg+xml</dc:format>
    <dc:creator>
     <cc:Agent>
      <dc:title>Matplotlib v3.9.2, https://matplotlib.org/</dc:title>
     </cc:Agent>
    </dc:creator>
   </cc:Work>
  </rdf:RDF>
 </metadata>
 <defs>
  <style type="text/css">*{stroke-linejoin: round; stroke-linecap: butt}</style>
 </defs>
 <g id="figure_1">
  <g id="patch_1">
   <path d="M 0 792 
L 792 792 
L 792 0 
L 0 0 
z
" style="fill: #ffffff"/>
  </g>
  <g id="axes_1">
   <g id="QuadContourSet_1">
    <path d="M -2927.087834 398.248402 
L -2927.649769 400.467258 
L -2928.568266 402.628471 
L -2929.81762 404.706693 
L -2931.364437 406.680354 
L -2933.169812 408.532341 
L -2935.191659 410.250295 
L -2937.386931 411.82656 
L -2939.713568 413.257845 
L -2940.050306 413.439518 
L -2939.96647 413.1866 
L -2939.416779 411.321418 
L -2938.930415 409.440605 
L -2938.507881 407.546081 
L -2938.149611 405.63978 
L -2937.855977 403.723647 
L -2937.627279 401.799638 
L -2937.463756 399.869714 
L -2937.365574 397.935844 
L -2937.332835 396 
L -2926.898675 396 
z
M -735.278815 396 
L -664.397088 396 
L -592.365609 396 
L -591.944612 396 
L -592.527177 400.573129 
L -610.210824 470.12679 
L -651.363448 541.755765 
L -682.20251 589.30843 
L -750.598722 576.059764 
L -763.308506 534.093455 
L -784.277502 464.196432 
L -794.658886 396 
z
M -378.404317 807.88336 
L -326.458116 826.784023 
L -387.504911 829.326297 
L -422.007954 808.473097 
z
M -1504.291614 880.844499 
L -1451.2265 906.473885 
L -1428.920921 944.196179 
L -1483.047887 977.788938 
L -1488.466448 981.258419 
L -1532.704548 1010.94576 
L -1544.435329 1061.076164 
L -1541.254754 1072.305927 
L -1534.258984 1124.735663 
L -1525.721159 1151.035769 
L -1501.373315 1206.330317 
L -1501.38166 1212.724942 
L -1469.813588 1261.861109 
L -1438.226433 1309.879285 
L -1434.295393 1319.725808 
L -1416.625822 1368.231455 
L -1394.235605 1424.032195 
L -1393.619347 1427.116221 
L -1400.492184 1431.131586 
L -1451.422899 1409.13047 
L -1478.012149 1360.547884 
L -1474.924785 1354.904647 
L -1501.844498 1302.756412 
L -1538.374078 1261.553513 
L -1575.57541 1222.182073 
L -1576.053944 1221.004898 
L -1611.683057 1176.255014 
L -1641.422765 1122.340099 
L -1642.130919 1120.383615 
L -1649.508199 1061.062811 
L -1643.853579 1022.132369 
L -1642.330556 1011.857662 
L -1623.292468 969.398328 
L -1598.932273 929.291824 
L -1582.651091 909.78532 
L -1561.942446 893.574094 
z
M -2424.825262 738.772245 
L -2423.071561 745.995189 
L -2430.062126 766.708838 
L -2450.457604 778.809864 
L -2455.405481 779.940228 
L -2492.095932 774.768224 
L -2523.960953 769.762464 
L -2525.252441 750.542712 
L -2518.366026 732.41504 
L -2501.9577 720.833023 
L -2480.50623 714.836837 
L -2461.345873 723.222475 
z
M -1394.990615 1503.169922 
L -1394.533268 1509.872293 
L -1400.91427 1509.579634 
L -1404.994465 1500.541961 
z
M -1418.832756 1741.026458 
L -1401.61065 1791.965857 
L -1402.188127 1794.769922 
L -1404.280957 1794.395014 
L -1437.127504 1758.007195 
L -1436.539004 1752.262908 
z
M -2283.092758 2367.816728 
L -2293.129485 2376.059136 
L -2301.653387 2376.206993 
L -2295.004991 2367.472033 
z
M -2434.60969 2379.139254 
L -2435.843786 2379.682041 
L -2435.91859 2379.686955 
L -2435.856333 2379.609706 
z
M -2703.930011 2092.427022 
L -2712.506932 2151.01189 
L -2735.795939 2207.785266 
L -2759.341227 2165.617521 
L -2761.918431 2110.378941 
L -2747.625052 2087.648895 
z
M -3047.607203 1060.196265 
L -3054.913118 1065.402583 
L -3079.550047 1080.68494 
L -3104.959467 1093.711315 
L -3130.878939 1104.078594 
L -3157.149078 1112.068239 
L -3164.743186 1114.293723 
L -3184.684347 1121.827832 
L -3213.178825 1131.541904 
L -3242.815987 1141.601149 
L -3274.335544 1153.716485 
L -3280.1303 1156.194874 
L -3305.479609 1215.514904 
L -3300.451606 1223.93166 
L -3281.247998 1255.789368 
L -3262.366185 1289.244322 
L -3261.056696 1290.323744 
L -3235.499259 1312.291279 
L -3209.523623 1337.619363 
L -3189.945481 1360.005805 
L -3183.858404 1371.809985 
L -3155.567507 1403.128846 
L -3138.504904 1422.711027 
L -3162.31522 1442.528765 
L -3198.433346 1442.645232 
L -3231.833829 1430.749878 
L -3260.970297 1416.253474 
L -3263.236521 1413.689842 
L -3293.541039 1395.735393 
L -3323.28862 1378.634512 
L -3352.340558 1361.601231 
L -3380.932418 1345.016497 
L -3409.012718 1328.505867 
L -3435.300022 1312.407238 
L -3436.408564 1311.553705 
L -3462.015964 1291.982222 
L -3486.658017 1271.701088 
L -3510.079113 1250.31514 
L -3532.14961 1227.730604 
L -3552.774898 1203.938643 
L -3571.839698 1178.917556 
L -3579.458894 1167.799963 
L -3584.55992 1146.598843 
L -3588.431905 1105.137071 
L -3586.431475 1079.697734 
L -3547.157937 1054.646137 
L -3527.3682 1040.360989 
L -3500.524103 1037.465375 
L -3466.00074 1032.850751 
L -3432.839795 1027.801377 
L -3427.191415 1026.904742 
L -3404.749439 1028.287933 
L -3378.215861 1029.798421 
L -3352.33305 1031.114728 
L -3326.944272 1032.065015 
L -3301.760505 1032.129283 
L -3276.148089 1029.814617 
L -3266.691903 1027.63356 
L -3251.444116 1027.946036 
L -3227.960462 1027.701156 
L -3204.696872 1026.791679 
L -3181.70017 1025.333199 
L -3159.039418 1023.580797 
L -3136.850681 1022.234953 
L -3115.505578 1023.729598 
L -3094.743893 1028.574173 
L -3074.195979 1036.930515 
L -3053.787778 1052.596647 
z
M -3278.499076 1347.183148 
L -3287.302632 1349.077366 
L -3280.247304 1352.856144 
L -3273.698795 1351.211577 
z
M -3412.726939 2165.401632 
L -3408.511077 2227.911843 
L -3433.846538 2291.899374 
L -3472.611886 2357.09464 
L -3493.60727 2375.102139 
L -3575.113378 2425.318883 
L -3582.216787 2428.736055 
L -3613.96017 2425.704089 
L -3650.97984 2420.673145 
L -3710.865332 2391.712422 
L -3770.663598 2365.539121 
L -3794.361653 2347.486937 
L -3790.927012 2277.400638 
L -3708.169876 2226.87442 
L -3693.123332 2220.435789 
L -3630.857479 2199.01316 
L -3559.85875 2181.101235 
L -3495.822999 2166.227803 
L -3491.381732 2165.501705 
L -3428.465689 2163.495636 
z
M -3883.92417 2829.913239 
L -3911.890493 2855.578424 
L -3959.05065 2828.920467 
L -3974.448239 2802.259298 
L -3972.078213 2757.273745 
L -3945.099978 2740.237525 
L -3919.62111 2759.894357 
L -3886.64449 2798.120079 
z
M -4444.55722 3076.209992 
L -4499.536508 3072.857781 
L -4511.874396 3058.480804 
L -4489.881855 3057.275951 
z
M -4819.612224 3005.675019 
L -4874.700044 2979.727635 
L -4876.914411 2961.527136 
L -4856.840068 2957.703682 
z
M -4760.682597 2612.382272 
L -4802.193604 2625.619456 
L -4848.187645 2553.129408 
L -4861.664788 2504.392572 
L -4812.061565 2515.705832 
L -4760.190557 2579.19882 
z
M -4295.851542 1977.883488 
L -4352.094667 2014.739607 
L -4366.399342 2017.782627 
L -4419.730157 1997.646562 
L -4441.677681 1945.821569 
L -4445.066253 1934.73938 
L -4461.701663 1865.043683 
L -4494.535312 1812.420571 
L -4540.80015 1771.647872 
L -4596.495928 1737.279896 
L -4607.460258 1732.180624 
L -4655.061905 1702.661618 
L -4711.333698 1663.810375 
L -4738.899865 1639.021565 
L -4761.301783 1618.324942 
L -4802.871809 1565.759862 
L -4833.603849 1505.872205 
L -4838.981916 1432.345269 
L -4833.844011 1417.083954 
L -4779.233685 1378.561315 
L -4755.138641 1387.763629 
L -4714.199451 1437.531514 
L -4682.220088 1491.491646 
L -4642.679935 1539.867451 
L -4633.237792 1547.622933 
L -4590.929149 1578.27181 
L -4533.367432 1610.04699 
L -4511.573179 1620.693281 
L -4471.777271 1635.737397 
L -4412.481027 1660.358615 
L -4387.089516 1673.151427 
L -4358.323144 1686.919509 
L -4314.588053 1721.555019 
L -4283.039219 1767.992473 
L -4274.995174 1796.616182 
L -4267.149197 1832.251029 
L -4271.310737 1900.333031 
L -4278.037942 1930.093496 
z
M -4823.541811 2429.735497 
L -4844.376632 2433.325899 
L -4901.161568 2375.551919 
L -4895.267217 2336.16901 
L -4842.281383 2321.454542 
L -4826.808955 2416.161832 
z
M -5742.790768 1441.912017 
L -5748.672222 1417.479582 
L -5762.005847 1325.22074 
L -5761.949144 1323.415854 
L -5760.835058 1325.028629 
L -5744.482251 1416.694209 
z
M -5331.278677 748.908848 
L -5387.455272 751.520879 
L -5389.205186 751.014774 
L -5387.909693 745.103817 
L -5332.08982 738.51623 
L -5326.529084 743.913484 
z
M -3698.639809 467.622608 
L -3723.82804 455.335259 
L -3749.223277 432.87646 
L -3760.13716 408.473473 
L -3760.13716 383.526527 
L -3749.223277 359.12354 
L -3723.82804 336.664741 
L -3698.639809 324.377392 
L -3680.654243 340.399027 
L -3660.983871 363.697976 
L -3651.302958 385.406165 
L -3651.302958 406.593835 
L -3660.983871 428.302024 
L -3680.654243 451.600973 
z
M -5332.08982 53.48377 
L -5387.909693 46.896183 
L -5389.205186 40.985226 
L -5387.455272 40.479121 
L -5331.278677 43.091152 
L -5326.529084 48.086516 
z
M -5761.949144 -531.415854 
L -5762.005847 -533.22074 
L -5748.672222 -625.479582 
L -5742.790768 -649.912017 
L -5744.482251 -624.694209 
L -5760.835058 -533.028629 
z
M -4779.233685 -586.561315 
L -4833.844011 -625.083954 
L -4838.981916 -640.345269 
L -4833.603849 -713.872205 
L -4802.871809 -773.759862 
L -4761.301783 -826.324942 
L -4738.899865 -847.021565 
L -4711.333698 -871.810375 
L -4655.061905 -910.661618 
L -4607.460258 -940.180624 
L -4596.495928 -945.279896 
L -4540.80015 -979.647872 
L -4494.535312 -1020.420571 
L -4461.701663 -1073.043683 
L -4445.066253 -1142.73938 
L -4441.677681 -1153.821569 
L -4419.730157 -1205.646562 
L -4366.399342 -1225.782627 
L -4352.094667 -1222.739607 
L -4295.851542 -1185.883488 
L -4278.037942 -1138.093496 
L -4271.310737 -1108.333031 
L -4267.149197 -1040.251029 
L -4274.995174 -1004.616182 
L -4283.039219 -975.992473 
L -4314.588053 -929.555019 
L -4358.323144 -894.919509 
L -4387.089516 -881.151427 
L -4412.481027 -868.358615 
L -4471.777271 -843.737397 
L -4511.573179 -828.693281 
L -4533.367432 -818.04699 
L -4590.929149 -786.271809 
L -4633.237792 -755.622933 
L -4642.679935 -747.867451 
L -4682.220088 -699.491646 
L -4714.199451 -645.531514 
L -4755.138641 -595.763629 
z
M -4895.267217 -1544.16901 
L -4901.161568 -1583.551919 
L -4844.376632 -1641.325899 
L -4823.541811 -1637.735497 
L -4826.808955 -1624.161832 
L -4842.281383 -1529.454542 
z
M -3586.431475 -287.697734 
L -3588.431905 -313.137071 
L -3584.55992 -354.598843 
L -3579.458894 -375.799963 
L -3571.839698 -386.917556 
L -3552.774898 -411.938643 
L -3532.14961 -435.730604 
L -3510.079113 -458.31514 
L -3486.658017 -479.701088 
L -3462.015964 -499.982222 
L -3436.408564 -519.553705 
L -3435.300022 -520.407238 
L -3409.012718 -536.505867 
L -3380.932418 -553.016497 
L -3352.340558 -569.601231 
L -3323.28862 -586.634512 
L -3293.541039 -603.735393 
L -3263.236521 -621.689842 
L -3260.970297 -624.253474 
L -3231.833829 -638.749878 
L -3198.433346 -650.645232 
L -3162.31522 -650.528765 
L -3138.504904 -630.711027 
L -3155.567507 -611.128846 
L -3183.858404 -579.809985 
L -3189.945481 -568.005805 
L -3209.523623 -545.619363 
L -3235.499259 -520.291279 
L -3261.056696 -498.323744 
L -3262.366185 -497.244322 
L -3281.247998 -463.789368 
L -3300.451606 -431.93166 
L -3305.479609 -423.514904 
L -3280.1303 -364.194874 
L -3274.335544 -361.716485 
L -3242.815987 -349.601149 
L -3213.178825 -339.541904 
L -3184.684347 -329.827832 
L -3164.743186 -322.293723 
L -3157.149078 -320.068239 
L -3130.878939 -312.078594 
L -3104.959467 -301.711315 
L -3079.550047 -288.68494 
L -3054.913118 -273.402583 
L -3047.607203 -268.196265 
L -3053.787778 -260.596647 
L -3074.195979 -244.930515 
L -3094.743893 -236.574173 
L -3115.505578 -231.729598 
L -3136.850681 -230.234953 
L -3159.039418 -231.580797 
L -3181.70017 -233.333199 
L -3204.696872 -234.791679 
L -3227.960462 -235.701156 
L -3251.444116 -235.946036 
L -3266.691903 -235.63356 
L -3276.148089 -237.814617 
L -3301.760505 -240.129283 
L -3326.944272 -240.065015 
L -3352.33305 -239.114728 
L -3378.215861 -237.798421 
L -3404.749439 -236.287933 
L -3427.191415 -234.904742 
L -3432.839795 -235.801377 
L -3466.00074 -240.850751 
L -3500.524103 -245.465375 
L -3527.3682 -248.360989 
L -3547.157937 -262.646137 
z
M -3278.499076 -555.183148 
L -3273.698795 -559.211577 
L -3280.247304 -560.856144 
L -3287.302632 -557.077366 
z
M -4861.664788 -1712.392572 
L -4848.187645 -1761.129408 
L -4802.193604 -1833.619456 
L -4760.682597 -1820.382271 
L -4760.190557 -1787.19882 
L -4812.061565 -1723.705832 
z
M -4876.914411 -2169.527136 
L -4874.700044 -2187.727635 
L -4819.612224 -2213.675019 
L -4856.840068 -2165.703682 
z
M -4511.874396 -2266.480804 
L -4499.536508 -2280.857781 
L -4444.55722 -2284.209992 
L -4489.881855 -2265.275951 
z
M -3790.927012 -1485.400638 
L -3794.361653 -1555.486937 
L -3770.663598 -1573.539121 
L -3710.865332 -1599.712422 
L -3650.97984 -1628.673145 
L -3613.96017 -1633.704089 
L -3582.216787 -1636.736055 
L -3575.113378 -1633.318883 
L -3493.60727 -1583.102139 
L -3472.611886 -1565.09464 
L -3433.846538 -1499.899374 
L -3408.511077 -1435.911843 
L -3412.726939 -1373.401632 
L -3428.465689 -1371.495636 
L -3491.381732 -1373.501705 
L -3495.822999 -1374.227803 
L -3559.85875 -1389.101235 
L -3630.857479 -1407.01316 
L -3693.123332 -1428.435789 
L -3708.169876 -1434.87442 
z
M -3972.078213 -1965.273745 
L -3974.448239 -2010.259298 
L -3959.05065 -2036.920467 
L -3911.890493 -2063.578424 
L -3883.92417 -2037.913239 
L -3886.64449 -2006.120079 
L -3919.62111 -1967.894357 
L -3945.099978 -1948.237525 
z
M -2761.918431 -1318.378941 
L -2759.341227 -1373.617521 
L -2735.795939 -1415.785266 
L -2712.506932 -1359.01189 
L -2703.930011 -1300.427022 
L -2747.625052 -1295.648895 
z
M -2435.91859 -1587.686955 
L -2435.843786 -1587.682041 
L -2434.60969 -1587.139254 
L -2435.856333 -1587.609706 
z
M -2301.653387 -1584.206993 
L -2293.129485 -1584.059136 
L -2283.092758 -1575.816728 
L -2295.004991 -1575.472033 
z
M -1437.127504 -966.007195 
L -1404.280957 -1002.395014 
L -1402.188127 -1002.769922 
L -1401.61065 -999.965857 
L -1418.832756 -949.026458 
L -1436.539004 -960.262908 
z
M -2523.960953 22.237536 
L -2492.095932 17.231776 
L -2455.405481 12.059772 
L -2450.457604 13.190136 
L -2430.062126 25.291162 
L -2423.071561 46.004811 
L -2424.825262 53.227755 
L -2461.345873 68.777525 
L -2480.50623 77.163163 
L -2501.9577 71.166977 
L -2518.366026 59.58496 
L -2525.252441 41.457288 
z
M -1400.91427 -717.579634 
L -1394.533268 -717.872293 
L -1394.990615 -711.169922 
L -1404.994465 -708.541961 
z
M -1451.422899 -617.13047 
L -1400.492184 -639.131586 
L -1393.619347 -635.116221 
L -1394.235605 -632.032195 
L -1416.625822 -576.231455 
L -1434.295393 -527.725808 
L -1438.226433 -517.879285 
L -1469.813588 -469.861109 
L -1501.38166 -420.724942 
L -1501.373315 -414.330317 
L -1525.721159 -359.035769 
L -1534.258984 -332.735663 
L -1541.254754 -280.305927 
L -1544.435329 -269.076164 
L -1532.704548 -218.94576 
L -1488.466448 -189.258419 
L -1483.047887 -185.788938 
L -1428.920921 -152.196179 
L -1451.2265 -114.473885 
L -1504.291614 -88.844499 
L -1561.942446 -101.574094 
L -1582.651091 -117.78532 
L -1598.932273 -137.291824 
L -1623.292468 -177.398328 
L -1642.330556 -219.857662 
L -1643.853579 -230.132369 
L -1649.508199 -269.062811 
L -1642.130919 -328.383615 
L -1641.422765 -330.340099 
L -1611.683057 -384.255014 
L -1576.053944 -429.004898 
L -1575.57541 -430.182073 
L -1538.374078 -469.553513 
L -1501.844498 -510.756412 
L -1474.924785 -562.904647 
L -1478.012149 -568.547884 
z
M -2939.713568 378.742155 
L -2937.386931 380.17344 
L -2935.191659 381.749705 
L -2933.169812 383.467659 
L -2931.364437 385.319646 
L -2929.81762 387.293307 
L -2928.568266 389.371529 
L -2927.649769 391.532742 
L -2927.087834 393.751598 
L -2926.898675 396 
L -2937.332835 396 
L -2937.365574 394.064156 
L -2937.463756 392.130286 
L -2937.627279 390.200362 
L -2937.855977 388.276353 
L -2938.149611 386.36022 
L -2938.507881 384.453919 
L -2938.930415 382.559395 
L -2939.416779 380.678582 
L -2939.96647 378.8134 
L -2940.050306 378.560482 
z
M -387.504911 -37.326297 
L -326.458116 -34.784023 
L -378.404317 -15.88336 
L -422.007954 -16.473097 
z
M -750.598722 215.940236 
L -682.20251 202.69157 
L -651.363448 250.244235 
L -610.210824 321.87321 
L -592.527177 391.426871 
L -591.944612 396 
L -592.365609 396 
L -664.397088 396 
L -735.278815 396 
L -794.658886 396 
L -784.277502 327.803568 
L -763.308506 257.906545 
z
" clip-path="url(#p292dee6ad2)" style="fill: #5f0000"/>
    <path d="M -2874.393763 396 
L -2811.633089 396 
L -2749.055439 396 
L -2686.663175 396 
L -2624.456312 396 
L -2562.432442 396 
L -2500.586662 396 
L -2438.911499 396 
L -2377.396849 396 
L -2316.029913 396 
L -2254.795135 396 
L -2193.674152 396 
L -2132.645743 396 
L -2071.685789 396 
L -2010.767246 396 
L -1949.86012 396 
L -1888.931467 396 
L -1827.945404 396 
L -1766.863138 396 
L -1705.643026 396 
L -1644.24065 396 
L -1582.60892 396 
L -1520.698211 396 
L -1458.456513 396 
L -1395.829619 396 
L -1332.761322 396 
L -1269.193635 396 
L -1205.067005 396 
L -1140.320527 396 
L -1074.892135 396 
L -1008.718739 396 
L -941.736308 396 
L -873.879838 396 
L -805.083202 396 
L -794.658886 396 
L -784.277502 464.196432 
L -763.308506 534.093455 
L -750.598722 576.059764 
L -682.20251 589.30843 
L -651.363448 541.755765 
L -610.210824 470.12679 
L -592.527177 400.573129 
L -591.944612 396 
L -519.107997 396 
L -444.542369 396 
L -368.57936 396 
L -295.572073 396 
L -292.38254 424.071641 
L -279.372179 481.760908 
L -226.624483 555.908564 
L -147.938777 564.390398 
L -81.001777 489.046636 
L -59.156193 396 
L -48.546846 396 
L 36.21588 396 
L 123.254803 396 
L 212.819571 396 
L 305.207483 396 
L 400.772315 396 
L 403.613036 396 
L 398.410731 422.364643 
L 377.063678 507.071225 
L 317.542568 614.768455 
L 257.640932 720.176243 
L 209.637131 826.445564 
L 187.440859 932.710008 
L 184.174801 939.302233 
L 119.634642 1044.811173 
L 44.330831 1145.501441 
L -43.309134 1216.458184 
L -63.356719 1155.223771 
L -107.355473 1118.173016 
L -175.261247 1110.148672 
L -264.963029 1138.701474 
L -287.936127 1164.512812 
L -340.900567 1215.956905 
L -337.507977 1230.832379 
L -358.561441 1318.783641 
L -351.363792 1336.465241 
L -381.749985 1422.145941 
L -402.016014 1476.780577 
L -423.509049 1515.560475 
L -495.388838 1587.963692 
L -505.221176 1593.533791 
L -556.78886 1575.075702 
L -566.938722 1540.506602 
L -570.124792 1513.214401 
L -578.847515 1443.544465 
L -602.268046 1407.244599 
L -606.665024 1393.803175 
L -650.259005 1361.43892 
L -694.403718 1355.562441 
L -711.709222 1351.086671 
L -788.782213 1360.085554 
L -834.034919 1374.642938 
L -879.46429 1386.689956 
L -939.940044 1405.152301 
L -976.668706 1420.949323 
L -1026.522427 1441.689629 
L -1087.086072 1492.230074 
L -1129.145105 1555.586253 
L -1153.231516 1619.010509 
L -1157.732426 1631.410645 
L -1163.132553 1700.316397 
L -1158.706928 1738.658159 
L -1152.603902 1758.927159 
L -1133.142808 1807.417928 
L -1121.698826 1862.478971 
L -1128.484621 1892.548549 
L -1162.964797 1963.153702 
L -1170.033742 1972.359202 
L -1232.098989 2024.911437 
L -1235.783248 2025.879396 
L -1281.148046 2003.232907 
L -1320.378917 1975.168793 
L -1370.820995 1957.441387 
L -1371.639575 1957.1343 
L -1435.239446 1948.621813 
L -1462.64944 1947.882458 
L -1519.416939 1956.280799 
L -1537.559422 1957.227761 
L -1606.548743 1971.196835 
L -1620.328997 1974.970822 
L -1682.997673 1968.299449 
L -1690.162605 1967.43284 
L -1717.695409 1927.293401 
L -1717.954094 1909.701576 
L -1716.364025 1864.660357 
L -1704.880623 1817.203266 
L -1694.09313 1783.95982 
L -1681.938982 1745.774165 
L -1664.859115 1694.157275 
L -1661.535741 1675.21659 
L -1657.153047 1619.456621 
L -1665.788998 1580.898595 
L -1671.6933 1563.132905 
L -1703.330237 1521.725197 
L -1747.027815 1491.410899 
L -1750.188333 1490.104245 
L -1812.139376 1480.36606 
L -1830.37504 1481.033358 
L -1878.588708 1503.341519 
L -1915.620942 1537.633148 
L -1949.324887 1576.41897 
L -1983.771335 1615.18271 
L -2008.985259 1640.704272 
L -2020.505268 1651.885782 
L -2059.416066 1686.510477 
L -2099.254132 1720.819885 
L -2138.818556 1757.138126 
L -2177.075159 1798.124176 
L -2191.904076 1817.577336 
L -2214.020343 1845.388511 
L -2250.32538 1899.248801 
L -2257.090288 1910.540172 
L -2287.237099 1959.151947 
L -2306.666758 1991.811293 
L -2324.91686 2026.959337 
L -2343.86389 2065.246915 
L -2357.087827 2127.010456 
L -2339.294946 2174.433377 
L -2290.357525 2207.326338 
L -2264.660979 2214.096663 
L -2219.663715 2229.073852 
L -2189.661588 2235.649261 
L -2147.817872 2248.62353 
L -2111.432952 2264.654804 
L -2091.949474 2274.929855 
L -2056.955243 2311.23163 
L -2040.008068 2356.698991 
L -2035.333003 2408.29783 
L -2038.584891 2463.748604 
L -2044.734502 2520.410267 
L -2044.047064 2540.011403 
L -2043.490181 2572.765973 
L -2037.716655 2582.492473 
L -2010.340381 2608.140546 
L -1959.730091 2621.176936 
L -1930.358143 2617.701719 
L -1957.717732 2640.508138 
L -2028.52911 2677.842047 
L -2099.666134 2706.430191 
L -2100.483361 2706.641661 
L -2173.973321 2718.098868 
L -2238.544067 2720.570874 
L -2248.327913 2712.612823 
L -2272.697533 2683.492208 
L -2260.873516 2625.321829 
L -2256.073559 2603.10316 
L -2250.988285 2567.729179 
L -2261.950938 2519.5051 
L -2267.562683 2513.98542 
L -2317.965446 2491.067992 
L -2345.309657 2488.353294 
L -2417.692637 2501.111694 
L -2489.518432 2528.264437 
L -2562.16412 2569.340569 
L -2612.259586 2610.871786 
L -2636.656734 2645.208395 
L -2658.708823 2682.331484 
L -2687.9489 2747.310006 
L -2719.725098 2802.585664 
L -2739.294231 2820.428853 
L -2808.348099 2878.360467 
L -2881.691708 2925.52022 
L -2890.794078 2983.755461 
L -2835.194631 3018.865087 
L -2824.768435 3019.790896 
L -2739.950474 3021.781849 
L -2713.972056 3027.364899 
L -2657.907623 3032.693516 
L -2631.669301 3048.238085 
L -2585.120477 3082.454902 
L -2599.031579 3141.448928 
L -2692.729149 3218.083705 
L -2776.304491 3223.838338 
L -2866.696083 3249.666551 
L -2867.391255 3249.841906 
L -2953.338842 3243.148035 
L -3048.114175 3269.037717 
L -3148.60533 3312.269244 
L -3255.810005 3382.352426 
L -3257.600068 3383.032189 
L -3259.795448 3383.488357 
L -3256.932886 3325.458422 
L -3328.314995 3304.259219 
L -3372.619879 3299.480779 
L -3318.454228 3264.956299 
L -3223.72435 3202.144696 
L -3208.245327 3184.003834 
L -3147.181518 3122.767206 
L -3129.69308 3060.998148 
L -3139.12331 3007.177968 
L -3163.56362 2968.728592 
L -3177.614404 2961.260119 
L -3243.784176 2935.166831 
L -3338.51159 2969.925577 
L -3437.081641 3011.838993 
L -3469.940911 3032.1421 
L -3541.124088 3064.216592 
L -3616.616709 3120.800724 
L -3660.350741 3155.757429 
L -3696.980839 3195.681241 
L -3749.014217 3264.999559 
L -3790.886699 3332.132177 
L -3819.252297 3357.276696 
L -3930.077279 3416.169922 
L -3940.904915 3420.252122 
L -4064.903914 3475.674388 
L -4094.239154 3504.455963 
L -4189.444318 3581.970521 
L -4221.887843 3607.90051 
L -4256.618233 3594.067351 
L -4331.087957 3587.576717 
L -4439.917798 3568.044547 
L -4513.260977 3554.695359 
L -4543.309145 3538.500566 
L -4639.476297 3497.268765 
L -4729.739205 3453.969138 
L -4732.246244 3451.837287 
L -4820.697022 3400.332294 
L -4922.132706 3366.912616 
L -4952.445731 3365.444539 
L -5030.35296 3433.1932 
L -5050.962742 3543.457404 
L -5157.753143 3505.501585 
L -5279.525543 3485.374077 
L -5285.819703 3478.785942 
L -5311.662989 3441.66603 
L -5336.323397 3353.723538 
L -5360.856601 3206.298355 
L -5412.55102 3089.726264 
L -5464.46825 2974.549626 
L -5518.880907 2862.296578 
L -5551.478231 2741.223091 
L -5548.304443 2727.744682 
L -5535.290951 2732.758656 
L -5467.179108 2765.13837 
L -5415.670077 2716.863805 
L -5403.251008 2654.68441 
L -5430.087542 2546.370776 
L -5473.407323 2451.10826 
L -5523.588703 2361.441098 
L -5580.598557 2285.171481 
L -5585.392661 2278.424122 
L -5662.915159 2201.349532 
L -5692.382747 2134.348719 
L -5708.015583 2112.046427 
L -5701.619932 2105.648998 
L -5650.819461 2075.496148 
L -5638.681947 1982.942439 
L -5674.886322 1893.278549 
L -5709.909643 1867.944051 
L -5774.851548 1840.686749 
L -5794.451489 1827.179439 
L -5843.02258 1790.702959 
L -5881.808356 1743.727601 
L -5861.348461 1700.913585 
L -5814.463835 1656.678916 
L -5805.166797 1624.763495 
L -5797.213034 1523.343793 
L -5808.431274 1427.572456 
L -5829.329737 1334.696497 
L -5862.709462 1244.57942 
L -5890.330225 1162.097933 
L -5891.87607 1155.485868 
L -5892.220329 1146.304052 
L -5869.789366 1063.390054 
L -5854.581552 1012.209822 
L -5797.207147 1053.91682 
L -5749.707199 996.468604 
L -5729.940841 959.459318 
L -5755.853894 934.603873 
L -5798.304574 879.059603 
L -5815.0542 868.428098 
L -5847.707565 883.913949 
L -5864.081022 913.103244 
L -5913.870585 942.295384 
L -5967.589415 923.231448 
L -5972.750868 895.499437 
L -5988.275063 808.705606 
L -5981.519159 738.034091 
L -5960.180307 716.657313 
L -5933.213483 665.094304 
L -5915.437458 623.020759 
L -5905.518434 532.122203 
L -5905.827305 441.43215 
L -5905.827305 350.56785 
L -5905.518434 259.877797 
L -5915.437458 168.979241 
L -5933.213483 126.905696 
L -5960.180307 75.342687 
L -5981.519159 53.965909 
L -5988.275063 -16.705606 
L -5972.750868 -103.499437 
L -5967.589415 -131.231448 
L -5913.870585 -150.295384 
L -5864.081022 -121.103244 
L -5847.707565 -91.913949 
L -5815.0542 -76.428098 
L -5798.304574 -87.059603 
L -5755.853894 -142.603873 
L -5729.940841 -167.459318 
L -5749.707199 -204.468604 
L -5797.207147 -261.91682 
L -5854.581552 -220.209822 
L -5869.789366 -271.390054 
L -5892.220329 -354.304052 
L -5891.87607 -363.485868 
L -5890.330225 -370.097933 
L -5862.709462 -452.57942 
L -5829.329737 -542.696497 
L -5808.431274 -635.572456 
L -5797.213034 -731.343793 
L -5805.166797 -832.763495 
L -5814.463835 -864.678916 
L -5861.348461 -908.913585 
L -5881.808356 -951.727601 
L -5843.02258 -998.702959 
L -5794.451489 -1035.179439 
L -5774.851548 -1048.686749 
L -5709.909643 -1075.944051 
L -5674.886322 -1101.278549 
L -5638.681947 -1190.942439 
L -5650.819461 -1283.496148 
L -5701.619932 -1313.648998 
L -5708.015583 -1320.046427 
L -5692.382747 -1342.348719 
L -5662.915159 -1409.349532 
L -5585.392661 -1486.424122 
L -5580.598557 -1493.171481 
L -5523.588703 -1569.441098 
L -5473.407323 -1659.10826 
L -5430.087542 -1754.370776 
L -5403.251008 -1862.68441 
L -5415.670077 -1924.863805 
L -5467.179108 -1973.13837 
L -5535.290951 -1940.758656 
L -5548.304443 -1935.744682 
L -5551.478231 -1949.223091 
L -5518.880907 -2070.296578 
L -5464.46825 -2182.549626 
L -5412.55102 -2297.726264 
L -5360.856601 -2414.298355 
L -5336.323397 -2561.723538 
L -5311.662989 -2649.66603 
L -5285.819703 -2686.785942 
L -5279.525543 -2693.374077 
L -5157.753143 -2713.501585 
L -5050.962742 -2751.457404 
L -5030.35296 -2641.1932 
L -4952.445731 -2573.444539 
L -4922.132706 -2574.912616 
L -4820.697022 -2608.332294 
L -4732.246244 -2659.837287 
L -4729.739205 -2661.969138 
L -4639.476297 -2705.268765 
L -4543.309145 -2746.500566 
L -4513.260977 -2762.695359 
L -4439.917798 -2776.044547 
L -4331.087957 -2795.576717 
L -4256.618233 -2802.067351 
L -4221.887843 -2815.90051 
L -4189.444318 -2789.970521 
L -4094.239154 -2712.455963 
L -4064.903914 -2683.674388 
L -3940.904915 -2628.252122 
L -3930.077279 -2624.169922 
L -3819.252297 -2565.276696 
L -3790.886699 -2540.132177 
L -3749.014217 -2472.999559 
L -3696.980839 -2403.681241 
L -3660.350741 -2363.757429 
L -3616.616709 -2328.800724 
L -3541.124088 -2272.216592 
L -3469.940911 -2240.1421 
L -3437.081641 -2219.838993 
L -3338.51159 -2177.925577 
L -3243.784176 -2143.166831 
L -3177.614404 -2169.260119 
L -3163.56362 -2176.728592 
L -3139.12331 -2215.177968 
L -3129.69308 -2268.998148 
L -3147.181518 -2330.767206 
L -3208.245327 -2392.003834 
L -3223.72435 -2410.144696 
L -3318.454228 -2472.956299 
L -3372.61988 -2507.480779 
L -3328.314995 -2512.259219 
L -3256.932886 -2533.458422 
L -3259.795448 -2591.488357 
L -3257.600068 -2591.032189 
L -3255.810005 -2590.352426 
L -3148.60533 -2520.269244 
L -3048.114175 -2477.037717 
L -2953.338842 -2451.148035 
L -2867.391255 -2457.841906 
L -2866.696084 -2457.666551 
L -2776.304491 -2431.838338 
L -2692.729149 -2426.083705 
L -2599.031579 -2349.448928 
L -2585.120477 -2290.454902 
L -2631.669301 -2256.238085 
L -2657.907623 -2240.693516 
L -2713.972056 -2235.364899 
L -2739.950474 -2229.781849 
L -2824.768435 -2227.790896 
L -2835.194631 -2226.865087 
L -2890.794078 -2191.755461 
L -2881.691708 -2133.52022 
L -2808.348099 -2086.360467 
L -2739.294231 -2028.428853 
L -2719.725098 -2010.585664 
L -2687.9489 -1955.310006 
L -2658.708823 -1890.331484 
L -2636.656734 -1853.208395 
L -2612.259586 -1818.871786 
L -2562.16412 -1777.340569 
L -2489.518432 -1736.264437 
L -2417.692637 -1709.111694 
L -2345.309657 -1696.353294 
L -2317.965446 -1699.067992 
L -2267.562683 -1721.98542 
L -2261.950938 -1727.5051 
L -2250.988285 -1775.729179 
L -2256.073559 -1811.10316 
L -2260.873516 -1833.321829 
L -2272.697533 -1891.492208 
L -2248.327913 -1920.612823 
L -2238.544067 -1928.570875 
L -2173.973321 -1926.098868 
L -2100.483361 -1914.641661 
L -2099.666134 -1914.430191 
L -2028.52911 -1885.842047 
L -1957.717732 -1848.508138 
L -1930.358143 -1825.701719 
L -1959.730091 -1829.176936 
L -2010.340381 -1816.140546 
L -2037.716655 -1790.492473 
L -2043.490181 -1780.765973 
L -2044.047064 -1748.011403 
L -2044.734502 -1728.410267 
L -2038.584891 -1671.748604 
L -2035.333003 -1616.29783 
L -2040.008068 -1564.698991 
L -2056.955243 -1519.23163 
L -2091.949474 -1482.929855 
L -2111.432952 -1472.654804 
L -2147.817872 -1456.62353 
L -2189.661588 -1443.649261 
L -2219.663715 -1437.073852 
L -2264.660979 -1422.096663 
L -2290.357525 -1415.326338 
L -2339.294946 -1382.433377 
L -2357.087827 -1335.010456 
L -2343.86389 -1273.246915 
L -2324.91686 -1234.959337 
L -2306.666758 -1199.811293 
L -2287.237099 -1167.151947 
L -2257.090288 -1118.540172 
L -2250.32538 -1107.248801 
L -2214.020343 -1053.388511 
L -2191.904076 -1025.577336 
L -2177.075159 -1006.124176 
L -2138.818556 -965.138126 
L -2099.254132 -928.819885 
L -2059.416066 -894.510477 
L -2020.505268 -859.885782 
L -2008.985259 -848.704272 
L -1983.771335 -823.18271 
L -1949.324887 -784.41897 
L -1915.620942 -745.633148 
L -1878.588708 -711.341519 
L -1830.37504 -689.033358 
L -1812.139376 -688.36606 
L -1750.188333 -698.104245 
L -1747.027815 -699.410899 
L -1703.330237 -729.725197 
L -1671.6933 -771.132905 
L -1665.788998 -788.898595 
L -1657.153047 -827.456621 
L -1661.535741 -883.21659 
L -1664.859115 -902.157275 
L -1681.938982 -953.774165 
L -1694.09313 -991.95982 
L -1704.880623 -1025.203266 
L -1716.364025 -1072.660357 
L -1717.954094 -1117.701576 
L -1717.695409 -1135.293401 
L -1690.162605 -1175.43284 
L -1682.997673 -1176.299449 
L -1620.328997 -1182.970822 
L -1606.548743 -1179.196835 
L -1537.559422 -1165.227761 
L -1519.416939 -1164.280799 
L -1462.64944 -1155.882458 
L -1435.239446 -1156.621813 
L -1371.639575 -1165.1343 
L -1370.820995 -1165.441387 
L -1320.378917 -1183.168793 
L -1281.148046 -1211.232907 
L -1235.783248 -1233.879396 
L -1232.098989 -1232.911437 
L -1170.033742 -1180.359202 
L -1162.964797 -1171.153702 
L -1128.484621 -1100.548549 
L -1121.698826 -1070.478971 
L -1133.142808 -1015.417928 
L -1152.603902 -966.927159 
L -1158.706928 -946.658159 
L -1163.132553 -908.316397 
L -1157.732426 -839.410645 
L -1153.231516 -827.010509 
L -1129.145105 -763.586253 
L -1087.086072 -700.230074 
L -1026.522427 -649.689629 
L -976.668706 -628.949323 
L -939.940044 -613.152301 
L -879.46429 -594.689956 
L -834.034919 -582.642938 
L -788.782213 -568.085554 
L -711.709222 -559.086671 
L -694.403718 -563.562441 
L -650.259005 -569.43892 
L -606.665024 -601.803175 
L -602.268046 -615.244599 
L -578.847515 -651.544465 
L -570.124792 -721.214401 
L -566.938722 -748.506602 
L -556.78886 -783.075702 
L -505.221176 -801.533791 
L -495.388838 -795.963692 
L -423.509049 -723.560475 
L -402.016014 -684.780577 
L -381.749985 -630.145941 
L -351.363792 -544.465241 
L -358.561441 -526.783641 
L -337.507977 -438.832379 
L -340.900567 -423.956905 
L -287.936127 -372.512812 
L -264.963029 -346.701474 
L -175.261247 -318.148672 
L -107.355473 -326.173016 
L -63.356719 -363.223771 
L -43.309134 -424.458184 
L 44.330831 -353.501441 
L 119.634642 -252.811173 
L 184.174801 -147.302233 
L 187.440859 -140.710008 
L 209.637131 -34.445564 
L 257.640932 71.823757 
L 317.542568 177.231545 
L 377.063678 284.928775 
L 398.410731 369.635357 
L 403.613036 396 
L 400.772315 396 
L 305.207483 396 
L 212.819571 396 
L 123.254803 396 
L 36.21588 396 
L -48.546846 396 
L -59.156193 396 
L -81.001777 302.953364 
L -147.938777 227.609602 
L -226.624483 236.091436 
L -279.372179 310.239092 
L -292.38254 367.928359 
L -295.572073 396 
L -368.57936 396 
L -444.542369 396 
L -519.107997 396 
L -591.944612 396 
L -592.527177 391.426871 
L -610.210824 321.87321 
L -651.363448 250.244235 
L -682.20251 202.69157 
L -750.598722 215.940236 
L -763.308506 257.906545 
L -784.277502 327.803568 
L -794.658886 396 
L -805.083202 396 
L -873.879838 396 
L -941.736308 396 
L -1008.718739 396 
L -1074.892135 396 
L -1140.320527 396 
L -1205.067005 396 
L -1269.193635 396 
L -1332.761322 396 
L -1395.829619 396 
L -1458.456513 396 
L -1520.698211 396 
L -1582.60892 396 
L -1644.24065 396 
L -1705.643026 396 
L -1766.863138 396 
L -1827.945404 396 
L -1888.931467 396 
L -1949.86012 396 
L -2010.767246 396 
L -2071.685789 396 
L -2132.645743 396 
L -2193.674152 396 
L -2254.795135 396 
L -2316.029913 396 
L -2377.396849 396 
L -2438.911499 396 
L -2500.586662 396 
L -2562.432442 396 
L -2624.456312 396 
L -2686.663175 396 
L -2749.055439 396 
L -2811.633089 396 
L -2874.393763 396 
L -2926.898675 396 
L -2927.087834 393.751598 
L -2927.649769 391.532742 
L -2928.568266 389.371529 
L -2929.81762 387.293307 
L -2931.364437 385.319646 
L -2933.169812 383.467659 
L -2935.191659 381.749705 
L -2937.386931 380.17344 
L -2939.713568 378.742155 
L -2940.050306 378.560482 
L -2940.578921 376.965756 
L -2941.253501 375.137538 
L -2941.989513 373.330615 
L -2942.786198 371.546836 
L -2943.642734 369.788029 
L -2944.558236 368.055994 
L -2945.53176 366.352508 
L -2946.562301 364.679321 
L -2947.648794 363.038149 
L -2948.790117 361.430681 
L -2949.985093 359.858572 
L -2951.232486 358.323442 
L -2952.531007 356.826873 
L -2953.879316 355.370413 
L -2955.276018 353.955568 
L -2956.719671 352.583803 
L -2958.208781 351.256542 
L -2959.741809 349.975164 
L -2961.31717 348.741003 
L -2962.933234 347.555347 
L -2964.588329 346.419434 
L -2966.280743 345.334454 
L -2968.008724 344.301547 
L -2969.770483 343.3218 
L -2971.564198 342.396247 
L -2973.388009 341.525869 
L -2975.240028 340.711589 
L -2977.118336 339.954277 
L -2979.020987 339.254743 
L -2980.94601 338.61374 
L -2982.891408 338.031963 
L -2984.855165 337.510044 
L -2986.835244 337.048556 
L -2988.829592 336.648012 
L -2990.836139 336.30886 
L -2992.852803 336.031488 
L -2994.877492 335.816218 
L -2996.908103 335.66331 
L -2998.942529 335.572959 
L -3000.978656 335.545297 
L -3003.014371 335.580389 
L -3005.047558 335.678236 
L -3007.076104 335.838775 
L -3009.097903 336.061876 
L -3011.110853 336.347343 
L -3013.112861 336.694917 
L -3015.101845 337.104273 
L -3017.075739 337.57502 
L -3019.032488 338.106703 
L -3020.970059 338.698804 
L -3022.886435 339.350738 
L -3024.779623 340.06186 
L -3026.647653 340.831458 
L -3028.488581 341.658761 
L -3030.300492 342.542935 
L -3032.081499 343.483086 
L -3033.829749 344.478257 
L -3035.543423 345.527436 
L -3037.220735 346.629549 
L -3038.85994 347.783467 
L -3040.45933 348.988005 
L -3042.017242 350.241921 
L -3043.532052 351.543922 
L -3045.002182 352.89266 
L -3046.426103 354.286738 
L -3047.80233 355.72471 
L -3049.12943 357.205078 
L -3050.406022 358.726302 
L -3051.630776 360.286795 
L -3052.802415 361.884927 
L -3053.91972 363.519026 
L -3054.981526 365.187381 
L -3055.986727 366.888244 
L -3056.934278 368.619829 
L -3057.823189 370.380318 
L -3058.652536 372.167858 
L -3059.421454 373.98057 
L -3060.129143 375.816544 
L -3060.774864 377.673845 
L -3061.357947 379.550515 
L -3061.877782 381.444573 
L -3062.333829 383.354019 
L -3062.725612 385.276837 
L -3063.052724 387.210994 
L -3063.314823 389.154447 
L -3063.511637 391.105141 
L -3063.64296 393.061012 
L -3063.708656 395.019992 
L -3063.708656 396.980008 
L -3063.64296 398.938988 
L -3063.511637 400.894859 
L -3063.314823 402.845553 
L -3063.052724 404.789006 
L -3062.725612 406.723163 
L -3062.333829 408.645981 
L -3061.877782 410.555427 
L -3061.357947 412.449485 
L -3060.774864 414.326155 
L -3060.129143 416.183456 
L -3059.421454 418.01943 
L -3058.652536 419.832142 
L -3057.823189 421.619682 
L -3056.934278 423.380171 
L -3055.986727 425.111756 
L -3054.981526 426.812619 
L -3053.91972 428.480974 
L -3052.802415 430.115073 
L -3051.630776 431.713205 
L -3050.406022 433.273698 
L -3049.12943 434.794922 
L -3047.80233 436.27529 
L -3046.426103 437.713262 
L -3045.002182 439.10734 
L -3043.532052 440.456078 
L -3042.017242 441.758079 
L -3040.45933 443.011995 
L -3038.85994 444.216533 
L -3037.220735 445.370451 
L -3035.543423 446.472564 
L -3033.829749 447.521743 
L -3032.081499 448.516914 
L -3030.300492 449.457065 
L -3028.488581 450.341239 
L -3026.647653 451.168542 
L -3024.779623 451.93814 
L -3022.886435 452.649262 
L -3020.970059 453.301196 
L -3019.032488 453.893297 
L -3017.075739 454.42498 
L -3015.101845 454.895727 
L -3013.112861 455.305083 
L -3011.110853 455.652657 
L -3009.097903 455.938124 
L -3007.076104 456.161225 
L -3005.047558 456.321764 
L -3003.014371 456.419611 
L -3000.978656 456.454703 
L -2998.942529 456.427041 
L -2996.908103 456.33669 
L -2994.877492 456.183782 
L -2992.852803 455.968512 
L -2990.836139 455.69114 
L -2988.829592 455.351988 
L -2986.835244 454.951444 
L -2984.855165 454.489956 
L -2982.891408 453.968037 
L -2980.94601 453.38626 
L -2979.020987 452.745257 
L -2977.118336 452.045723 
L -2975.240028 451.288411 
L -2973.388009 450.474131 
L -2971.564198 449.603753 
L -2969.770483 448.6782 
L -2968.008724 447.698453 
L -2966.280743 446.665546 
L -2964.588329 445.580566 
L -2962.933234 444.444653 
L -2961.31717 443.258997 
L -2959.741809 442.024836 
L -2958.208781 440.743458 
L -2956.719671 439.416197 
L -2955.276018 438.044432 
L -2953.879316 436.629587 
L -2952.531007 435.173127 
L -2951.232486 433.676558 
L -2949.985093 432.141428 
L -2948.790117 430.569319 
L -2947.648794 428.961851 
L -2946.562301 427.320679 
L -2945.53176 425.647492 
L -2944.558236 423.944006 
L -2943.642734 422.211971 
L -2942.786198 420.453164 
L -2941.989513 418.669385 
L -2941.253501 416.862462 
L -2940.578921 415.034244 
L -2940.050306 413.439518 
L -2939.713568 413.257845 
L -2937.386931 411.82656 
L -2935.191659 410.250295 
L -2933.169812 408.532341 
L -2931.364437 406.680354 
L -2929.81762 404.706693 
L -2928.568266 402.628471 
L -2927.649769 400.467258 
L -2927.087834 398.248402 
L -2926.898675 396 
z
M -422.007954 808.473097 
L -387.504911 829.326297 
L -326.458116 826.784023 
L -378.404317 807.88336 
z
M -1561.942446 893.574094 
L -1582.651091 909.78532 
L -1598.932273 929.291824 
L -1623.292468 969.398328 
L -1642.330556 1011.857662 
L -1643.853579 1022.132369 
L -1649.508199 1061.062811 
L -1642.130919 1120.383615 
L -1641.422765 1122.340099 
L -1611.683057 1176.255014 
L -1576.053944 1221.004898 
L -1575.57541 1222.182073 
L -1538.374078 1261.553513 
L -1501.844498 1302.756412 
L -1474.924785 1354.904647 
L -1478.012149 1360.547884 
L -1451.422899 1409.13047 
L -1400.492184 1431.131586 
L -1393.619347 1427.116221 
L -1394.235605 1424.032195 
L -1416.625822 1368.231455 
L -1434.295393 1319.725808 
L -1438.226433 1309.879285 
L -1469.813588 1261.861109 
L -1501.38166 1212.724942 
L -1501.373315 1206.330317 
L -1525.721159 1151.035769 
L -1534.258984 1124.735663 
L -1541.254754 1072.305927 
L -1544.435329 1061.076164 
L -1532.704548 1010.94576 
L -1488.466448 981.258419 
L -1483.047887 977.788938 
L -1428.920921 944.196179 
L -1451.2265 906.473885 
L -1504.291614 880.844499 
z
M -2461.345873 723.222475 
L -2480.50623 714.836837 
L -2501.9577 720.833023 
L -2518.366026 732.41504 
L -2525.252441 750.542712 
L -2523.960953 769.762464 
L -2492.095932 774.768224 
L -2455.405481 779.940228 
L -2450.457604 778.809864 
L -2430.062126 766.708838 
L -2423.071561 745.995189 
L -2424.825262 738.772245 
z
M -1404.994465 1500.541961 
L -1400.91427 1509.579634 
L -1394.533268 1509.872293 
L -1394.990615 1503.169922 
z
M -1436.539004 1752.262908 
L -1437.127504 1758.007195 
L -1404.280957 1794.395014 
L -1402.188127 1794.769922 
L -1401.61065 1791.965857 
L -1418.832756 1741.026458 
z
M -2475.952677 1152.978814 
L -2515.593539 1132.983507 
L -2526.291297 1132.697444 
L -2558.58532 1136.738348 
L -2587.259616 1145.68447 
L -2613.186613 1159.320437 
L -2637.045899 1177.662726 
L -2659.37312 1200.984221 
L -2666.730094 1210.936526 
L -2674.184145 1246.362777 
L -2676.988441 1275.929675 
L -2644.710696 1323.429802 
L -2644.109784 1323.750672 
L -2599.770699 1339.698354 
L -2557.876019 1345.521567 
L -2556.784049 1345.359007 
L -2522.182874 1336.167912 
L -2490.378137 1319.082082 
L -2468.598861 1299.600119 
L -2463.647362 1293.857225 
L -2446.384272 1255.386912 
L -2438.453783 1216.832505 
L -2445.608888 1196.315541 
L -2459.235217 1163.738222 
z
M -2295.004991 2367.472033 
L -2301.653387 2376.206993 
L -2293.129485 2376.059136 
L -2283.092758 2367.816728 
z
M -2435.856333 2379.609706 
L -2435.91859 2379.686955 
L -2435.843786 2379.682041 
L -2434.60969 2379.139254 
z
M -2747.625052 2087.648895 
L -2761.918431 2110.378941 
L -2759.341227 2165.617521 
L -2735.795939 2207.785266 
L -2712.506932 2151.01189 
L -2703.930011 2092.427022 
z
M -2943.143477 2516.577011 
L -2956.230015 2502.798345 
L -3014.819632 2479.355122 
L -3075.516879 2476.353895 
L -3088.056701 2476.701705 
L -3129.816718 2488.616831 
L -3164.835549 2499.259959 
L -3248.401408 2549.629733 
L -3283.126334 2578.311332 
L -3339.56301 2648.404763 
L -3356.813228 2711.459864 
L -3338.186901 2767.261951 
L -3303.15982 2813.780984 
L -3296.742206 2817.632736 
L -3239.157192 2862.377071 
L -3233.373105 2883.851342 
L -3148.026794 2883.609016 
L -3097.544855 2825.030466 
L -3047.973964 2779.88993 
L -3026.975392 2748.482775 
L -2963.928202 2673.893773 
L -2953.531926 2658.641178 
L -2920.350008 2604.848343 
L -2919.305964 2548.533977 
z
M -3053.787778 1052.596647 
L -3074.195979 1036.930515 
L -3094.743893 1028.574173 
L -3115.505578 1023.729598 
L -3136.850681 1022.234953 
L -3159.039418 1023.580797 
L -3181.70017 1025.333199 
L -3204.696872 1026.791679 
L -3227.960462 1027.701156 
L -3251.444116 1027.946036 
L -3266.691903 1027.63356 
L -3276.148089 1029.814617 
L -3301.760505 1032.129283 
L -3326.944272 1032.065015 
L -3352.33305 1031.114728 
L -3378.215861 1029.798421 
L -3404.749439 1028.287933 
L -3427.191415 1026.904742 
L -3432.839795 1027.801377 
L -3466.00074 1032.850751 
L -3500.524103 1037.465375 
L -3527.3682 1040.360989 
L -3547.157937 1054.646137 
L -3586.431475 1079.697734 
L -3588.431905 1105.137071 
L -3584.55992 1146.598843 
L -3579.458894 1167.799963 
L -3571.839698 1178.917556 
L -3552.774898 1203.938643 
L -3532.14961 1227.730604 
L -3510.079113 1250.31514 
L -3486.658017 1271.701088 
L -3462.015964 1291.982222 
L -3436.408564 1311.553705 
L -3435.300022 1312.407238 
L -3409.012718 1328.505867 
L -3380.932418 1345.016497 
L -3352.340558 1361.601231 
L -3323.28862 1378.634512 
L -3293.541039 1395.735393 
L -3263.236521 1413.689842 
L -3260.970297 1416.253474 
L -3231.833829 1430.749878 
L -3198.433346 1442.645232 
L -3162.31522 1442.528765 
L -3138.504904 1422.711027 
L -3155.567507 1403.128846 
L -3183.858404 1371.809985 
L -3189.945481 1360.005805 
L -3209.523623 1337.619363 
L -3235.499259 1312.291279 
L -3261.056696 1290.323744 
L -3262.366185 1289.244322 
L -3281.247998 1255.789368 
L -3300.451606 1223.93166 
L -3305.479609 1215.514904 
L -3280.1303 1156.194874 
L -3274.335544 1153.716485 
L -3242.815987 1141.601149 
L -3213.178825 1131.541904 
L -3184.684347 1121.827832 
L -3164.743186 1114.293723 
L -3157.149078 1112.068239 
L -3130.878939 1104.078594 
L -3104.959467 1093.711315 
L -3079.550047 1080.68494 
L -3054.913118 1065.402583 
L -3047.607203 1060.196265 
z
M -3428.465689 2163.495636 
L -3491.381732 2165.501705 
L -3495.822999 2166.227803 
L -3559.85875 2181.101235 
L -3630.857479 2199.01316 
L -3693.123332 2220.435789 
L -3708.169876 2226.87442 
L -3790.927012 2277.400638 
L -3794.361653 2347.486937 
L -3770.663598 2365.539121 
L -3710.865332 2391.712422 
L -3650.97984 2420.673145 
L -3613.96017 2425.704089 
L -3582.216787 2428.736055 
L -3575.113378 2425.318883 
L -3493.60727 2375.102139 
L -3472.611886 2357.09464 
L -3433.846538 2291.899374 
L -3408.511077 2227.911843 
L -3412.726939 2165.401632 
z
M -3886.64449 2798.120079 
L -3919.62111 2759.894357 
L -3945.099978 2740.237525 
L -3972.078213 2757.273745 
L -3974.448239 2802.259298 
L -3959.05065 2828.920467 
L -3911.890493 2855.578424 
L -3883.92417 2829.913239 
z
M -4489.881855 3057.275951 
L -4511.874396 3058.480804 
L -4499.536508 3072.857781 
L -4444.55722 3076.209992 
z
M -4856.840068 2957.703682 
L -4876.914411 2961.527136 
L -4874.700044 2979.727635 
L -4819.612224 3005.675019 
z
M -4760.190557 2579.19882 
L -4812.061565 2515.705832 
L -4861.664788 2504.392572 
L -4848.187645 2553.129408 
L -4802.193604 2625.619456 
L -4760.682597 2612.382272 
z
M -4278.037942 1930.093496 
L -4271.310737 1900.333031 
L -4267.149197 1832.251029 
L -4274.995174 1796.616182 
L -4283.039219 1767.992473 
L -4314.588053 1721.555019 
L -4358.323144 1686.919509 
L -4387.089516 1673.151427 
L -4412.481027 1660.358615 
L -4471.777271 1635.737397 
L -4511.573179 1620.693281 
L -4533.367432 1610.04699 
L -4590.929149 1578.27181 
L -4633.237792 1547.622933 
L -4642.679935 1539.867451 
L -4682.220088 1491.491646 
L -4714.199451 1437.531514 
L -4755.138641 1387.763629 
L -4779.233685 1378.561315 
L -4833.844011 1417.083954 
L -4838.981916 1432.345269 
L -4833.603849 1505.872205 
L -4802.871809 1565.759862 
L -4761.301783 1618.324942 
L -4738.899865 1639.021565 
L -4711.333698 1663.810375 
L -4655.061905 1702.661618 
L -4607.460258 1732.180624 
L -4596.495928 1737.279896 
L -4540.80015 1771.647872 
L -4494.535312 1812.420571 
L -4461.701663 1865.043683 
L -4445.066253 1934.73938 
L -4441.677681 1945.821569 
L -4419.730157 1997.646562 
L -4366.399342 2017.782627 
L -4352.094667 2014.739607 
L -4295.851542 1977.883488 
z
M -4826.808955 2416.161832 
L -4842.281383 2321.454542 
L -4895.267217 2336.16901 
L -4901.161568 2375.551919 
L -4844.376632 2433.325899 
L -4823.541811 2429.735497 
z
M -5219.871959 1989.409484 
L -5235.005446 1981.683883 
L -5288.392685 2018.98006 
L -5287.697568 2027.15448 
L -5282.491972 2034.184613 
L -5204.821257 2055.444712 
z
M -5744.482251 1416.694209 
L -5760.835058 1325.028629 
L -5761.949144 1323.415854 
L -5762.005847 1325.22074 
L -5748.672222 1417.479582 
L -5742.790768 1441.912017 
z
M -5326.529084 743.913484 
L -5332.08982 738.51623 
L -5387.909693 745.103817 
L -5389.205186 751.014774 
L -5387.455272 751.520879 
L -5331.278677 748.908848 
z
M -3680.654243 451.600973 
L -3660.983871 428.302024 
L -3651.302958 406.593835 
L -3651.302958 385.406165 
L -3660.983871 363.697976 
L -3680.654243 340.399027 
L -3698.639809 324.377392 
L -3723.82804 336.664741 
L -3749.223277 359.12354 
L -3760.13716 383.526527 
L -3760.13716 408.473473 
L -3749.223277 432.87646 
L -3723.82804 455.335259 
L -3698.639809 467.622608 
z
M -5326.529084 48.086516 
L -5331.278677 43.091152 
L -5387.455272 40.479121 
L -5389.205186 40.985226 
L -5387.909693 46.896183 
L -5332.08982 53.48377 
z
M -5760.835058 -533.028629 
L -5744.482251 -624.694209 
L -5742.790768 -649.912017 
L -5748.672222 -625.479582 
L -5762.005847 -533.22074 
L -5761.949144 -531.415854 
z
M -4755.138641 -595.763629 
L -4714.199451 -645.531514 
L -4682.220088 -699.491646 
L -4642.679935 -747.867451 
L -4633.237792 -755.622933 
L -4590.929149 -786.271809 
L -4533.367432 -818.04699 
L -4511.573179 -828.693281 
L -4471.777271 -843.737397 
L -4412.481027 -868.358615 
L -4387.089516 -881.151427 
L -4358.323144 -894.919509 
L -4314.588053 -929.555019 
L -4283.039219 -975.992473 
L -4274.995174 -1004.616182 
L -4267.149197 -1040.251029 
L -4271.310737 -1108.333031 
L -4278.037942 -1138.093496 
L -4295.851542 -1185.883488 
L -4352.094667 -1222.739607 
L -4366.399342 -1225.782627 
L -4419.730157 -1205.646562 
L -4441.677681 -1153.821569 
L -4445.066253 -1142.73938 
L -4461.701663 -1073.043683 
L -4494.535312 -1020.420571 
L -4540.80015 -979.647872 
L -4596.495928 -945.279896 
L -4607.460258 -940.180624 
L -4655.061905 -910.661618 
L -4711.333698 -871.810375 
L -4738.899865 -847.021565 
L -4761.301783 -826.324942 
L -4802.871809 -773.759862 
L -4833.603849 -713.872205 
L -4838.981916 -640.345269 
L -4833.844011 -625.083954 
L -4779.233685 -586.561315 
z
M -5219.871959 -1197.409484 
L -5204.821257 -1263.444713 
L -5282.491972 -1242.184613 
L -5287.697568 -1235.15448 
L -5288.392685 -1226.98006 
L -5235.005446 -1189.683883 
z
M -4842.281383 -1529.454542 
L -4826.808955 -1624.161832 
L -4823.541811 -1637.735497 
L -4844.376632 -1641.325899 
L -4901.161568 -1583.551919 
L -4895.267217 -1544.16901 
z
M -3547.157937 -262.646137 
L -3527.3682 -248.360989 
L -3500.524103 -245.465375 
L -3466.00074 -240.850751 
L -3432.839795 -235.801377 
L -3427.191415 -234.904742 
L -3404.749439 -236.287933 
L -3378.215861 -237.798421 
L -3352.33305 -239.114728 
L -3326.944272 -240.065015 
L -3301.760505 -240.129283 
L -3276.148089 -237.814617 
L -3266.691903 -235.63356 
L -3251.444116 -235.946036 
L -3227.960462 -235.701156 
L -3204.696872 -234.791679 
L -3181.70017 -233.333199 
L -3159.039418 -231.580797 
L -3136.850681 -230.234953 
L -3115.505578 -231.729598 
L -3094.743893 -236.574173 
L -3074.195979 -244.930515 
L -3053.787778 -260.596647 
L -3047.607203 -268.196265 
L -3054.913118 -273.402583 
L -3079.550047 -288.68494 
L -3104.959467 -301.711315 
L -3130.878939 -312.078594 
L -3157.149078 -320.068239 
L -3164.743186 -322.293723 
L -3184.684347 -329.827832 
L -3213.178825 -339.541904 
L -3242.815987 -349.601149 
L -3274.335544 -361.716485 
L -3280.1303 -364.194874 
L -3305.479609 -423.514904 
L -3300.451606 -431.93166 
L -3281.247998 -463.789368 
L -3262.366185 -497.244322 
L -3261.056696 -498.323744 
L -3235.499259 -520.291279 
L -3209.523623 -545.619363 
L -3189.945481 -568.005805 
L -3183.858404 -579.809985 
L -3155.567507 -611.128846 
L -3138.504904 -630.711027 
L -3162.31522 -650.528765 
L -3198.433346 -650.645232 
L -3231.833829 -638.749878 
L -3260.970297 -624.253474 
L -3263.236521 -621.689842 
L -3293.541039 -603.735393 
L -3323.28862 -586.634512 
L -3352.340558 -569.601231 
L -3380.932418 -553.016497 
L -3409.012718 -536.505867 
L -3435.300022 -520.407238 
L -3436.408564 -519.553705 
L -3462.015964 -499.982222 
L -3486.658017 -479.701088 
L -3510.079113 -458.31514 
L -3532.14961 -435.730604 
L -3552.774898 -411.938643 
L -3571.839698 -386.917556 
L -3579.458894 -375.799963 
L -3584.55992 -354.598843 
L -3588.431905 -313.137071 
L -3586.431475 -287.697734 
z
M -4812.061565 -1723.705832 
L -4760.190557 -1787.19882 
L -4760.682597 -1820.382271 
L -4802.193604 -1833.619456 
L -4848.187645 -1761.129408 
L -4861.664788 -1712.392572 
z
M -4856.840068 -2165.703682 
L -4819.612224 -2213.675019 
L -4874.700044 -2187.727635 
L -4876.914411 -2169.527136 
z
M -4489.881855 -2265.275951 
L -4444.55722 -2284.209992 
L -4499.536508 -2280.857781 
L -4511.874396 -2266.480804 
z
M -3708.169876 -1434.87442 
L -3693.123332 -1428.435789 
L -3630.857479 -1407.01316 
L -3559.85875 -1389.101235 
L -3495.822999 -1374.227803 
L -3491.381732 -1373.501705 
L -3428.465689 -1371.495636 
L -3412.726939 -1373.401632 
L -3408.511077 -1435.911843 
L -3433.846538 -1499.899374 
L -3472.611886 -1565.09464 
L -3493.60727 -1583.102139 
L -3575.113378 -1633.318883 
L -3582.216787 -1636.736055 
L -3613.96017 -1633.704089 
L -3650.97984 -1628.673145 
L -3710.865332 -1599.712422 
L -3770.663598 -1573.539121 
L -3794.361653 -1555.486937 
L -3790.927012 -1485.400638 
z
M -3945.099978 -1948.237525 
L -3919.62111 -1967.894357 
L -3886.64449 -2006.120079 
L -3883.92417 -2037.913239 
L -3911.890493 -2063.578424 
L -3959.05065 -2036.920467 
L -3974.448239 -2010.259298 
L -3972.078213 -1965.273745 
z
M -3248.401408 -1757.629733 
L -3164.835549 -1707.259959 
L -3129.816718 -1696.616831 
L -3088.056701 -1684.701705 
L -3075.516879 -1684.353895 
L -3014.819632 -1687.355122 
L -2956.230015 -1710.798345 
L -2943.143477 -1724.577011 
L -2919.305964 -1756.533977 
L -2920.350008 -1812.848343 
L -2953.531926 -1866.641178 
L -2963.928202 -1881.893773 
L -3026.975392 -1956.482775 
L -3047.973964 -1987.88993 
L -3097.544855 -2033.030466 
L -3148.026794 -2091.609016 
L -3233.373105 -2091.851342 
L -3239.157192 -2070.377071 
L -3296.742206 -2025.632736 
L -3303.15982 -2021.780984 
L -3338.186901 -1975.261951 
L -3356.813228 -1919.459864 
L -3339.56301 -1856.404763 
L -3283.126334 -1786.311332 
z
M -2747.625052 -1295.648895 
L -2703.930011 -1300.427022 
L -2712.506932 -1359.01189 
L -2735.795939 -1415.785266 
L -2759.341227 -1373.617521 
L -2761.918431 -1318.378941 
z
M -2435.856333 -1587.609706 
L -2434.60969 -1587.139254 
L -2435.843786 -1587.682041 
L -2435.91859 -1587.686955 
z
M -2674.184145 -454.362777 
L -2666.730094 -418.936526 
L -2659.37312 -408.984221 
L -2637.045899 -385.662726 
L -2613.186613 -367.320437 
L -2587.259616 -353.68447 
L -2558.58532 -344.738348 
L -2526.291297 -340.697444 
L -2515.593539 -340.983507 
L -2475.952677 -360.978814 
L -2459.235217 -371.738222 
L -2445.608888 -404.315541 
L -2438.453783 -424.832505 
L -2446.384272 -463.386912 
L -2463.647362 -501.857225 
L -2468.598861 -507.600119 
L -2490.378137 -527.082082 
L -2522.182874 -544.167912 
L -2556.784049 -553.359007 
L -2557.876019 -553.521567 
L -2599.770699 -547.698354 
L -2644.109784 -531.750672 
L -2644.710696 -531.429802 
L -2676.988441 -483.929675 
z
M -2295.004991 -1575.472033 
L -2283.092758 -1575.816728 
L -2293.129485 -1584.059136 
L -2301.653387 -1584.206993 
z
M -1436.539004 -960.262908 
L -1418.832756 -949.026458 
L -1401.61065 -999.965857 
L -1402.188127 -1002.769922 
L -1404.280957 -1002.395014 
L -1437.127504 -966.007195 
z
M -2525.252441 41.457288 
L -2518.366026 59.58496 
L -2501.9577 71.166977 
L -2480.50623 77.163163 
L -2461.345873 68.777525 
L -2424.825262 53.227755 
L -2423.071561 46.004811 
L -2430.062126 25.291162 
L -2450.457604 13.190136 
L -2455.405481 12.059772 
L -2492.095932 17.231776 
L -2523.960953 22.237536 
z
M -1404.994465 -708.541961 
L -1394.990615 -711.169922 
L -1394.533268 -717.872293 
L -1400.91427 -717.579634 
z
M -1478.012149 -568.547884 
L -1474.924785 -562.904647 
L -1501.844498 -510.756412 
L -1538.374078 -469.553513 
L -1575.57541 -430.182073 
L -1576.053944 -429.004898 
L -1611.683057 -384.255014 
L -1641.422765 -330.340099 
L -1642.130919 -328.383615 
L -1649.508199 -269.062811 
L -1643.853579 -230.132369 
L -1642.330556 -219.857662 
L -1623.292468 -177.398328 
L -1598.932273 -137.291824 
L -1582.651091 -117.78532 
L -1561.942446 -101.574094 
L -1504.291614 -88.844499 
L -1451.2265 -114.473885 
L -1428.920921 -152.196179 
L -1483.047887 -185.788938 
L -1488.466448 -189.258419 
L -1532.704548 -218.94576 
L -1544.435329 -269.076164 
L -1541.254754 -280.305927 
L -1534.258984 -332.735663 
L -1525.721159 -359.035769 
L -1501.373315 -414.330317 
L -1501.38166 -420.724942 
L -1469.813588 -469.861109 
L -1438.226433 -517.879285 
L -1434.295393 -527.725808 
L -1416.625822 -576.231455 
L -1394.235605 -632.032195 
L -1393.619347 -635.116221 
L -1400.492184 -639.131586 
L -1451.422899 -617.13047 
z
M -422.007954 -16.473097 
L -378.404317 -15.88336 
L -326.458116 -34.784023 
L -387.504911 -37.326297 
z
M 9.528635 1234.930486 
L -8.943275 1255.219963 
L -30.391487 1278.828373 
L -42.730497 1236.749346 
z
M -604.985017 1912.511773 
L -656.130929 1960.774442 
L -713.383785 2011.678086 
L -667.704402 1952.066863 
z
M -1778.213317 2738.156756 
L -1797.799345 2751.777861 
L -1823.486812 2764.683926 
L -1798.94786 2732.695533 
z
M -4106.234293 3622.888466 
L -4111.209819 3623.967793 
L -4145.415948 3631.402037 
L -4108.215281 3613.720998 
z
M -5917.611341 1693.185664 
L -5926.087902 1646.21951 
L -5929.315241 1626.115134 
L -5909.339981 1643.603805 
z
M -5929.315241 -834.115134 
L -5926.087902 -854.21951 
L -5917.611341 -901.185664 
L -5909.339981 -851.603805 
z
M -4145.415948 -2839.402037 
L -4111.209819 -2831.967793 
L -4106.234293 -2830.888466 
L -4108.215281 -2821.720998 
z
M -1823.486812 -1972.683926 
L -1797.799345 -1959.777861 
L -1778.213317 -1946.156756 
L -1798.94786 -1940.695533 
z
M -713.383785 -1219.678086 
L -656.130929 -1168.774442 
L -604.985017 -1120.511773 
L -667.704402 -1160.066863 
z
M -30.391487 -486.828373 
L -8.943275 -463.219963 
L 9.528635 -442.930486 
L -42.730497 -444.749346 
z
" clip-path="url(#p292dee6ad2)" style="fill: #ff0800"/>
    <path d="M -291.119614 396 
L -212.050687 396 
L -131.2433 396 
L -59.156193 396 
L -81.001777 489.046636 
L -147.938777 564.390398 
L -226.624483 555.908564 
L -279.372179 481.760908 
L -292.38254 424.071641 
L -295.572073 396 
z
M 398.410731 422.364643 
L 403.613036 396 
L 499.934048 396 
L 488.398744 511.72336 
L 454.683393 626.566775 
L 401.33834 739.675822 
L 332.22912 850.250979 
L 252.023456 957.582932 
L 165.590769 1061.092794 
L 77.407337 1160.372769 
L 9.528635 1234.930486 
L -42.730497 1236.749346 
L -30.391487 1278.828373 
L -91.103254 1345.654841 
L -168.065658 1431.91677 
L -240.085966 1514.432295 
L -308.409909 1593.75672 
L -374.876315 1670.495201 
L -441.47122 1745.214661 
L -509.913011 1818.361117 
L -581.337676 1890.197503 
L -604.985017 1912.511773 
L -667.704402 1952.066863 
L -713.383785 2011.678086 
L -733.924464 2029.940851 
L -813.742613 2097.393841 
L -894.258855 2162.759449 
L -974.103821 2225.689059 
L -1052.160469 2285.952382 
L -1056.677986 2289.390349 
L -1137.530023 2327.652476 
L -1211.811367 2378.654798 
L -1280.177633 2435.097325 
L -1345.217606 2496.226612 
L -1375.306125 2526.195464 
L -1412.767299 2552.919196 
L -1484.561707 2602.647684 
L -1558.627023 2652.229866 
L -1635.42164 2701.791219 
L -1714.891518 2751.194164 
L -1796.507651 2800.066046 
L -1879.403467 2847.878896 
L -1962.581013 2894.066486 
L -2045.141365 2938.155293 
L -2126.490606 2979.881725 
L -2199.955839 3016.057345 
L -2204.147407 3009.011123 
L -2251.317433 2988.212849 
L -2270.485155 2993.077617 
L -2300.493579 3011.001627 
L -2352.227061 3043.437409 
L -2437.842573 3125.285398 
L -2443.627136 3127.851142 
L -2524.993682 3163.133789 
L -2609.193564 3199.003245 
L -2696.826542 3235.71309 
L -2788.024983 3273.129566 
L -2882.433992 3310.72702 
L -2979.295995 3347.668967 
L -3077.624241 3382.964727 
L -3176.431304 3415.674641 
L -3274.96676 3445.124165 
L -3372.915247 3471.081532 
L -3470.512616 3493.856819 
L -3568.552695 3514.292187 
L -3668.277527 3533.632006 
L -3771.165889 3553.284293 
L -3878.654437 3574.507343 
L -3991.83919 3598.073055 
L -4106.234293 3622.888466 
L -4108.215281 3613.720998 
L -4145.415948 3631.402037 
L -4236.464503 3651.190221 
L -4366.439822 3677.693056 
L -4499.170743 3700.493778 
L -4632.073792 3715.951531 
L -4762.225905 3720.178412 
L -4886.695872 3709.52844 
L -5002.877326 3681.091177 
L -5108.773122 3633.112617 
L -5203.190183 3565.274753 
L -5279.525543 3485.374077 
L -5157.753143 3505.501585 
L -5050.962742 3543.457404 
L -5030.35296 3433.1932 
L -4952.445731 3365.444539 
L -4922.132706 3366.912616 
L -4820.697022 3400.332294 
L -4732.246244 3451.837287 
L -4729.739205 3453.969138 
L -4639.476297 3497.268765 
L -4543.309145 3538.500566 
L -4513.260977 3554.695359 
L -4439.917798 3568.044547 
L -4331.087957 3587.576717 
L -4256.618233 3594.067351 
L -4221.887843 3607.90051 
L -4189.444318 3581.970521 
L -4094.239154 3504.455963 
L -4064.903914 3475.674388 
L -3940.904915 3420.252122 
L -3930.077279 3416.169922 
L -3819.252297 3357.276696 
L -3790.886699 3332.132177 
L -3749.014217 3264.999559 
L -3696.980839 3195.681241 
L -3660.350741 3155.757429 
L -3616.616709 3120.800724 
L -3541.124088 3064.216592 
L -3469.940911 3032.1421 
L -3437.081641 3011.838993 
L -3338.51159 2969.925577 
L -3243.784176 2935.166831 
L -3177.614404 2961.260119 
L -3163.56362 2968.728592 
L -3139.12331 3007.177968 
L -3129.69308 3060.998148 
L -3147.181518 3122.767206 
L -3208.245327 3184.003834 
L -3223.72435 3202.144696 
L -3318.454228 3264.956299 
L -3372.619879 3299.480779 
L -3328.314995 3304.259219 
L -3256.932886 3325.458422 
L -3259.795448 3383.488357 
L -3257.600068 3383.032189 
L -3255.810005 3382.352426 
L -3148.60533 3312.269244 
L -3048.114175 3269.037717 
L -2953.338842 3243.148035 
L -2867.391255 3249.841906 
L -2866.696083 3249.666551 
L -2776.304491 3223.838338 
L -2692.729149 3218.083705 
L -2599.031579 3141.448928 
L -2585.120477 3082.454902 
L -2631.669301 3048.238085 
L -2657.907623 3032.693516 
L -2713.972056 3027.364899 
L -2739.950474 3021.781849 
L -2824.768435 3019.790896 
L -2835.194631 3018.865087 
L -2890.794078 2983.755461 
L -2881.691708 2925.52022 
L -2808.348099 2878.360467 
L -2739.294231 2820.428853 
L -2719.725098 2802.585664 
L -2687.9489 2747.310006 
L -2658.708823 2682.331484 
L -2636.656734 2645.208395 
L -2612.259586 2610.871786 
L -2562.16412 2569.340569 
L -2489.518432 2528.264437 
L -2417.692637 2501.111694 
L -2345.309657 2488.353294 
L -2317.965446 2491.067992 
L -2267.562683 2513.98542 
L -2261.950938 2519.5051 
L -2250.988285 2567.729179 
L -2256.073559 2603.10316 
L -2260.873516 2625.321829 
L -2272.697533 2683.492208 
L -2248.327913 2712.612823 
L -2238.544067 2720.570874 
L -2173.973321 2718.098868 
L -2100.483361 2706.641661 
L -2099.666134 2706.430191 
L -2028.52911 2677.842047 
L -1957.717732 2640.508138 
L -1930.358143 2617.701719 
L -1959.730091 2621.176936 
L -2010.340381 2608.140546 
L -2037.716655 2582.492473 
L -2043.490181 2572.765973 
L -2044.047064 2540.011403 
L -2044.734502 2520.410267 
L -2038.584891 2463.748604 
L -2035.333003 2408.29783 
L -2040.008068 2356.698991 
L -2056.955243 2311.23163 
L -2091.949474 2274.929855 
L -2111.432952 2264.654804 
L -2147.817872 2248.62353 
L -2189.661588 2235.649261 
L -2219.663715 2229.073852 
L -2264.660979 2214.096663 
L -2290.357525 2207.326338 
L -2339.294946 2174.433377 
L -2357.087827 2127.010456 
L -2343.86389 2065.246915 
L -2324.91686 2026.959337 
L -2306.666758 1991.811293 
L -2287.237099 1959.151947 
L -2257.090288 1910.540172 
L -2250.32538 1899.248801 
L -2214.020343 1845.388511 
L -2191.904076 1817.577336 
L -2177.075159 1798.124176 
L -2138.818556 1757.138126 
L -2099.254132 1720.819885 
L -2059.416066 1686.510477 
L -2020.505268 1651.885782 
L -2008.985259 1640.704272 
L -1983.771335 1615.18271 
L -1949.324887 1576.41897 
L -1915.620942 1537.633148 
L -1878.588708 1503.341519 
L -1830.37504 1481.033358 
L -1812.139376 1480.36606 
L -1750.188333 1490.104245 
L -1747.027815 1491.410899 
L -1703.330237 1521.725197 
L -1671.6933 1563.132905 
L -1665.788998 1580.898595 
L -1657.153047 1619.456621 
L -1661.535741 1675.21659 
L -1664.859115 1694.157275 
L -1681.938982 1745.774165 
L -1694.09313 1783.95982 
L -1704.880623 1817.203266 
L -1716.364025 1864.660357 
L -1717.954094 1909.701576 
L -1717.695409 1927.293401 
L -1690.162605 1967.43284 
L -1682.997673 1968.299449 
L -1620.328997 1974.970822 
L -1606.548743 1971.196835 
L -1537.559422 1957.227761 
L -1519.416939 1956.280799 
L -1462.64944 1947.882458 
L -1435.239446 1948.621813 
L -1371.639575 1957.1343 
L -1370.820995 1957.441387 
L -1320.378917 1975.168793 
L -1281.148046 2003.232907 
L -1235.783248 2025.879396 
L -1232.098989 2024.911437 
L -1170.033742 1972.359202 
L -1162.964797 1963.153702 
L -1128.484621 1892.548549 
L -1121.698826 1862.478971 
L -1133.142808 1807.417928 
L -1152.603902 1758.927159 
L -1158.706928 1738.658159 
L -1163.132553 1700.316397 
L -1157.732426 1631.410645 
L -1153.231516 1619.010509 
L -1129.145105 1555.586253 
L -1087.086072 1492.230074 
L -1026.522427 1441.689629 
L -976.668706 1420.949323 
L -939.940044 1405.152301 
L -879.46429 1386.689956 
L -834.034919 1374.642938 
L -788.782213 1360.085554 
L -711.709222 1351.086671 
L -694.403718 1355.562441 
L -650.259005 1361.43892 
L -606.665024 1393.803175 
L -602.268046 1407.244599 
L -578.847515 1443.544465 
L -570.124792 1513.214401 
L -566.938722 1540.506602 
L -556.78886 1575.075702 
L -505.221176 1593.533791 
L -495.388838 1587.963692 
L -423.509049 1515.560475 
L -402.016014 1476.780577 
L -381.749985 1422.145941 
L -351.363792 1336.465241 
L -358.561441 1318.783641 
L -337.507977 1230.832379 
L -340.900567 1215.956905 
L -287.936127 1164.512812 
L -264.963029 1138.701474 
L -175.261247 1110.148672 
L -107.355473 1118.173016 
L -63.356719 1155.223771 
L -43.309134 1216.458184 
L 44.330831 1145.501441 
L 119.634642 1044.811173 
L 184.174801 939.302233 
L 187.440859 932.710008 
L 209.637131 826.445564 
L 257.640932 720.176243 
L 317.542568 614.768455 
L 377.063678 507.071225 
z
M -1798.94786 2732.695533 
L -1823.486812 2764.683926 
L -1797.799345 2751.777861 
L -1778.213317 2738.156756 
z
M -2459.235217 1163.738222 
L -2445.608888 1196.315541 
L -2438.453783 1216.832505 
L -2446.384272 1255.386912 
L -2463.647362 1293.857225 
L -2468.598861 1299.600119 
L -2490.378137 1319.082082 
L -2522.182874 1336.167912 
L -2556.784049 1345.359007 
L -2557.876019 1345.521567 
L -2599.770699 1339.698354 
L -2644.109784 1323.750672 
L -2644.710696 1323.429802 
L -2676.988441 1275.929675 
L -2674.184145 1246.362777 
L -2666.730094 1210.936526 
L -2659.37312 1200.984221 
L -2637.045899 1177.662726 
L -2613.186613 1159.320437 
L -2587.259616 1145.68447 
L -2558.58532 1136.738348 
L -2526.291297 1132.697444 
L -2515.593539 1132.983507 
L -2475.952677 1152.978814 
z
M -2919.305964 2548.533977 
L -2920.350008 2604.848343 
L -2953.531926 2658.641178 
L -2963.928202 2673.893773 
L -3026.975392 2748.482775 
L -3047.973964 2779.88993 
L -3097.544855 2825.030466 
L -3148.026794 2883.609016 
L -3233.373105 2883.851342 
L -3239.157192 2862.377071 
L -3296.742206 2817.632736 
L -3303.15982 2813.780984 
L -3338.186901 2767.261951 
L -3356.813228 2711.459864 
L -3339.56301 2648.404763 
L -3283.126334 2578.311332 
L -3248.401408 2549.629733 
L -3164.835549 2499.259959 
L -3129.816718 2488.616831 
L -3088.056701 2476.701705 
L -3075.516879 2476.353895 
L -3014.819632 2479.355122 
L -2956.230015 2502.798345 
L -2943.143477 2516.577011 
z
M -5311.662989 3441.66603 
L -5357.196821 3376.263669 
L -5418.553197 3261.42445 
L -5471.591899 3138.626812 
L -5518.224127 3012.337098 
L -5560.310179 2886.59997 
L -5599.442649 2764.593912 
L -5636.799495 2648.336882 
L -5673.080519 2538.581287 
L -5708.525779 2434.905253 
L -5743.001193 2335.974394 
L -5776.127315 2239.92076 
L -5807.423174 2144.768082 
L -5836.438433 2048.827869 
L -5862.853045 1950.999707 
L -5886.532468 1850.929568 
L -5907.536413 1749.007903 
L -5917.611341 1693.185664 
L -5909.339981 1643.603805 
L -5929.315241 1626.115134 
L -5942.515731 1543.884061 
L -5957.186222 1443.344737 
L -5970.43944 1345.669531 
L -5982.541414 1251.424309 
L -5993.658561 1160.56014 
L -6003.854801 1072.433105 
L -6013.107041 985.947726 
L -6021.331823 899.790553 
L -6028.415126 812.703188 
L -6034.238631 723.737195 
L -6038.69836 632.438299 
L -6041.714722 538.922641 
L -6043.235595 443.830638 
L -6043.235595 348.169362 
L -6041.714722 253.077359 
L -6038.69836 159.561701 
L -6034.238631 68.262805 
L -6028.415126 -20.703188 
L -6021.331823 -107.790553 
L -6013.107041 -193.947726 
L -6003.854801 -280.433105 
L -5993.658561 -368.56014 
L -5982.541414 -459.424309 
L -5970.43944 -553.669531 
L -5957.186222 -651.344737 
L -5942.515731 -751.884061 
L -5929.315241 -834.115134 
L -5909.339981 -851.603805 
L -5917.611341 -901.185664 
L -5907.536413 -957.007903 
L -5886.532468 -1058.929568 
L -5862.853045 -1158.999707 
L -5836.438433 -1256.827869 
L -5807.423174 -1352.768082 
L -5776.127315 -1447.92076 
L -5743.001193 -1543.974394 
L -5708.525779 -1642.905253 
L -5673.080519 -1746.581287 
L -5636.799495 -1856.336882 
L -5599.442649 -1972.593912 
L -5560.310179 -2094.59997 
L -5518.224127 -2220.337098 
L -5471.591899 -2346.626812 
L -5418.553197 -2469.42445 
L -5357.196821 -2584.263669 
L -5311.662989 -2649.66603 
L -5336.323397 -2561.723538 
L -5360.856601 -2414.298355 
L -5412.55102 -2297.726264 
L -5464.46825 -2182.549626 
L -5518.880907 -2070.296578 
L -5551.478231 -1949.223091 
L -5548.304443 -1935.744682 
L -5535.290951 -1940.758656 
L -5467.179108 -1973.13837 
L -5415.670077 -1924.863805 
L -5403.251008 -1862.68441 
L -5430.087542 -1754.370776 
L -5473.407323 -1659.10826 
L -5523.588703 -1569.441098 
L -5580.598557 -1493.171481 
L -5585.392661 -1486.424122 
L -5662.915159 -1409.349532 
L -5692.382747 -1342.348719 
L -5708.015583 -1320.046427 
L -5701.619932 -1313.648998 
L -5650.819461 -1283.496148 
L -5638.681947 -1190.942439 
L -5674.886322 -1101.278549 
L -5709.909643 -1075.944051 
L -5774.851548 -1048.686749 
L -5794.451489 -1035.179439 
L -5843.02258 -998.702959 
L -5881.808356 -951.727601 
L -5861.348461 -908.913585 
L -5814.463835 -864.678916 
L -5805.166797 -832.763495 
L -5797.213034 -731.343793 
L -5808.431274 -635.572456 
L -5829.329737 -542.696497 
L -5862.709462 -452.57942 
L -5890.330225 -370.097933 
L -5891.87607 -363.485868 
L -5892.220329 -354.304052 
L -5869.789366 -271.390054 
L -5854.581552 -220.209822 
L -5797.207147 -261.91682 
L -5749.707199 -204.468604 
L -5729.940841 -167.459318 
L -5755.853894 -142.603873 
L -5798.304574 -87.059603 
L -5815.0542 -76.428098 
L -5847.707565 -91.913949 
L -5864.081022 -121.103244 
L -5913.870585 -150.295384 
L -5967.589415 -131.231448 
L -5972.750868 -103.499437 
L -5988.275063 -16.705606 
L -5981.519159 53.965909 
L -5960.180307 75.342687 
L -5933.213483 126.905696 
L -5915.437458 168.979241 
L -5905.518434 259.877797 
L -5905.827305 350.56785 
L -5905.827305 441.43215 
L -5905.518434 532.122203 
L -5915.437458 623.020759 
L -5933.213483 665.094304 
L -5960.180307 716.657313 
L -5981.519159 738.034091 
L -5988.275063 808.705606 
L -5972.750868 895.499437 
L -5967.589415 923.231448 
L -5913.870585 942.295384 
L -5864.081022 913.103244 
L -5847.707565 883.913949 
L -5815.0542 868.428098 
L -5798.304574 879.059603 
L -5755.853894 934.603873 
L -5729.940841 959.459318 
L -5749.707199 996.468604 
L -5797.207147 1053.91682 
L -5854.581552 1012.209822 
L -5869.789366 1063.390054 
L -5892.220329 1146.304052 
L -5891.87607 1155.485868 
L -5890.330225 1162.097933 
L -5862.709462 1244.57942 
L -5829.329737 1334.696497 
L -5808.431274 1427.572456 
L -5797.213034 1523.343793 
L -5805.166797 1624.763495 
L -5814.463835 1656.678916 
L -5861.348461 1700.913585 
L -5881.808356 1743.727601 
L -5843.02258 1790.702959 
L -5794.451489 1827.179439 
L -5774.851548 1840.686749 
L -5709.909643 1867.944051 
L -5674.886322 1893.278549 
L -5638.681947 1982.942439 
L -5650.819461 2075.496148 
L -5701.619932 2105.648998 
L -5708.015583 2112.046427 
L -5692.382747 2134.348719 
L -5662.915159 2201.349532 
L -5585.392661 2278.424122 
L -5580.598557 2285.171481 
L -5523.588703 2361.441098 
L -5473.407323 2451.10826 
L -5430.087542 2546.370776 
L -5403.251008 2654.68441 
L -5415.670077 2716.863805 
L -5467.179108 2765.13837 
L -5535.290951 2732.758656 
L -5548.304443 2727.744682 
L -5551.478231 2741.223091 
L -5518.880907 2862.296578 
L -5464.46825 2974.549626 
L -5412.55102 3089.726264 
L -5360.856601 3206.298355 
L -5336.323397 3353.723538 
z
M -5204.821257 2055.444712 
L -5282.491972 2034.184613 
L -5287.697568 2027.15448 
L -5288.392685 2018.98006 
L -5235.005446 1981.683883 
L -5219.871959 1989.409484 
z
M -5235.005446 -1189.683883 
L -5288.392685 -1226.98006 
L -5287.697568 -1235.15448 
L -5282.491972 -1242.184613 
L -5204.821257 -1263.444713 
L -5219.871959 -1197.409484 
z
M -5279.525543 -2693.374077 
L -5203.190183 -2773.274753 
L -5108.773122 -2841.112617 
L -5002.877326 -2889.091177 
L -4886.695872 -2917.52844 
L -4762.225905 -2928.178412 
L -4632.073792 -2923.951531 
L -4499.170743 -2908.493778 
L -4366.439822 -2885.693056 
L -4236.464503 -2859.190221 
L -4145.415948 -2839.402037 
L -4108.215281 -2821.720998 
L -4106.234293 -2830.888466 
L -3991.83919 -2806.073055 
L -3878.654437 -2782.507343 
L -3771.165889 -2761.284293 
L -3668.277527 -2741.632006 
L -3568.552695 -2722.292187 
L -3470.512616 -2701.856819 
L -3372.915247 -2679.081532 
L -3274.96676 -2653.124165 
L -3176.431304 -2623.674641 
L -3077.624241 -2590.964727 
L -2979.295995 -2555.668967 
L -2882.433992 -2518.72702 
L -2788.024983 -2481.129566 
L -2696.826542 -2443.71309 
L -2609.193564 -2407.003245 
L -2524.993682 -2371.133789 
L -2443.627136 -2335.851142 
L -2437.842573 -2333.285398 
L -2352.227061 -2251.437409 
L -2300.493579 -2219.001627 
L -2270.485155 -2201.077617 
L -2251.317433 -2196.212849 
L -2204.147407 -2217.011123 
L -2199.955839 -2224.057345 
L -2126.490606 -2187.881725 
L -2045.141365 -2146.155293 
L -1962.581013 -2102.066486 
L -1879.403467 -2055.878896 
L -1796.507651 -2008.066046 
L -1714.891518 -1959.194164 
L -1635.42164 -1909.791219 
L -1558.627023 -1860.229866 
L -1484.561707 -1810.647684 
L -1412.767299 -1760.919196 
L -1375.306125 -1734.195464 
L -1345.217606 -1704.226612 
L -1280.177633 -1643.097325 
L -1211.811367 -1586.654798 
L -1137.530023 -1535.652476 
L -1056.677986 -1497.390349 
L -1052.160469 -1493.952382 
L -974.103821 -1433.689059 
L -894.258855 -1370.759449 
L -813.742613 -1305.393841 
L -733.924464 -1237.940851 
L -713.383785 -1219.678086 
L -667.704402 -1160.066863 
L -604.985017 -1120.511773 
L -581.337676 -1098.197503 
L -509.913011 -1026.361117 
L -441.47122 -953.214661 
L -374.876315 -878.495201 
L -308.409909 -801.75672 
L -240.085966 -722.432295 
L -168.065658 -639.91677 
L -91.103254 -553.654841 
L -30.391487 -486.828373 
L -42.730497 -444.749346 
L 9.528635 -442.930486 
L 77.407337 -368.372769 
L 165.590769 -269.092794 
L 252.023456 -165.582932 
L 332.22912 -58.250979 
L 401.33834 52.324178 
L 454.683393 165.433225 
L 488.398744 280.27664 
L 499.934048 396 
L 403.613036 396 
L 398.410731 369.635357 
L 377.063678 284.928775 
L 317.542568 177.231545 
L 257.640932 71.823757 
L 209.637131 -34.445564 
L 187.440859 -140.710008 
L 184.174801 -147.302233 
L 119.634642 -252.811173 
L 44.330831 -353.501441 
L -43.309134 -424.458184 
L -63.356719 -363.223771 
L -107.355473 -326.173016 
L -175.261247 -318.148672 
L -264.963029 -346.701474 
L -287.936127 -372.512812 
L -340.900567 -423.956905 
L -337.507977 -438.832379 
L -358.561441 -526.783641 
L -351.363792 -544.465241 
L -381.749985 -630.145941 
L -402.016014 -684.780577 
L -423.509049 -723.560475 
L -495.388838 -795.963692 
L -505.221176 -801.533791 
L -556.78886 -783.075702 
L -566.938722 -748.506602 
L -570.124792 -721.214401 
L -578.847515 -651.544465 
L -602.268046 -615.244599 
L -606.665024 -601.803175 
L -650.259005 -569.43892 
L -694.403718 -563.562441 
L -711.709222 -559.086671 
L -788.782213 -568.085554 
L -834.034919 -582.642938 
L -879.46429 -594.689956 
L -939.940044 -613.152301 
L -976.668706 -628.949323 
L -1026.522427 -649.689629 
L -1087.086072 -700.230074 
L -1129.145105 -763.586253 
L -1153.231516 -827.010509 
L -1157.732426 -839.410645 
L -1163.132553 -908.316397 
L -1158.706928 -946.658159 
L -1152.603902 -966.927159 
L -1133.142808 -1015.417928 
L -1121.698826 -1070.478971 
L -1128.484621 -1100.548549 
L -1162.964797 -1171.153702 
L -1170.033742 -1180.359202 
L -1232.098989 -1232.911437 
L -1235.783248 -1233.879396 
L -1281.148046 -1211.232907 
L -1320.378917 -1183.168793 
L -1370.820995 -1165.441387 
L -1371.639575 -1165.1343 
L -1435.239446 -1156.621813 
L -1462.64944 -1155.882458 
L -1519.416939 -1164.280799 
L -1537.559422 -1165.227761 
L -1606.548743 -1179.196835 
L -1620.328997 -1182.970822 
L -1682.997673 -1176.299449 
L -1690.162605 -1175.43284 
L -1717.695409 -1135.293401 
L -1717.954094 -1117.701576 
L -1716.364025 -1072.660357 
L -1704.880623 -1025.203266 
L -1694.09313 -991.95982 
L -1681.938982 -953.774165 
L -1664.859115 -902.157275 
L -1661.535741 -883.21659 
L -1657.153047 -827.456621 
L -1665.788998 -788.898595 
L -1671.6933 -771.132905 
L -1703.330237 -729.725197 
L -1747.027815 -699.410899 
L -1750.188333 -698.104245 
L -1812.139376 -688.36606 
L -1830.37504 -689.033358 
L -1878.588708 -711.341519 
L -1915.620942 -745.633148 
L -1949.324887 -784.41897 
L -1983.771335 -823.18271 
L -2008.985259 -848.704272 
L -2020.505268 -859.885782 
L -2059.416066 -894.510477 
L -2099.254132 -928.819885 
L -2138.818556 -965.138126 
L -2177.075159 -1006.124176 
L -2191.904076 -1025.577336 
L -2214.020343 -1053.388511 
L -2250.32538 -1107.248801 
L -2257.090288 -1118.540172 
L -2287.237099 -1167.151947 
L -2306.666758 -1199.811293 
L -2324.91686 -1234.959337 
L -2343.86389 -1273.246915 
L -2357.087827 -1335.010456 
L -2339.294946 -1382.433377 
L -2290.357525 -1415.326338 
L -2264.660979 -1422.096663 
L -2219.663715 -1437.073852 
L -2189.661588 -1443.649261 
L -2147.817872 -1456.62353 
L -2111.432952 -1472.654804 
L -2091.949474 -1482.929855 
L -2056.955243 -1519.23163 
L -2040.008068 -1564.698991 
L -2035.333003 -1616.29783 
L -2038.584891 -1671.748604 
L -2044.734502 -1728.410267 
L -2044.047064 -1748.011403 
L -2043.490181 -1780.765973 
L -2037.716655 -1790.492473 
L -2010.340381 -1816.140546 
L -1959.730091 -1829.176936 
L -1930.358143 -1825.701719 
L -1957.717732 -1848.508138 
L -2028.52911 -1885.842047 
L -2099.666134 -1914.430191 
L -2100.483361 -1914.641661 
L -2173.973321 -1926.098868 
L -2238.544067 -1928.570875 
L -2248.327913 -1920.612823 
L -2272.697533 -1891.492208 
L -2260.873516 -1833.321829 
L -2256.073559 -1811.10316 
L -2250.988285 -1775.729179 
L -2261.950938 -1727.5051 
L -2267.562683 -1721.98542 
L -2317.965446 -1699.067992 
L -2345.309657 -1696.353294 
L -2417.692637 -1709.111694 
L -2489.518432 -1736.264437 
L -2562.16412 -1777.340569 
L -2612.259586 -1818.871786 
L -2636.656734 -1853.208395 
L -2658.708823 -1890.331484 
L -2687.9489 -1955.310006 
L -2719.725098 -2010.585664 
L -2739.294231 -2028.428853 
L -2808.348099 -2086.360467 
L -2881.691708 -2133.52022 
L -2890.794078 -2191.755461 
L -2835.194631 -2226.865087 
L -2824.768435 -2227.790896 
L -2739.950474 -2229.781849 
L -2713.972056 -2235.364899 
L -2657.907623 -2240.693516 
L -2631.669301 -2256.238085 
L -2585.120477 -2290.454902 
L -2599.031579 -2349.448928 
L -2692.729149 -2426.083705 
L -2776.304491 -2431.838338 
L -2866.696084 -2457.666551 
L -2867.391255 -2457.841906 
L -2953.338842 -2451.148035 
L -3048.114175 -2477.037717 
L -3148.60533 -2520.269244 
L -3255.810005 -2590.352426 
L -3257.600068 -2591.032189 
L -3259.795448 -2591.488357 
L -3256.932886 -2533.458422 
L -3328.314995 -2512.259219 
L -3372.61988 -2507.480779 
L -3318.454228 -2472.956299 
L -3223.72435 -2410.144696 
L -3208.245327 -2392.003834 
L -3147.181518 -2330.767206 
L -3129.69308 -2268.998148 
L -3139.12331 -2215.177968 
L -3163.56362 -2176.728592 
L -3177.614404 -2169.260119 
L -3243.784176 -2143.166831 
L -3338.51159 -2177.925577 
L -3437.081641 -2219.838993 
L -3469.940911 -2240.1421 
L -3541.124088 -2272.216592 
L -3616.616709 -2328.800724 
L -3660.350741 -2363.757429 
L -3696.980839 -2403.681241 
L -3749.014217 -2472.999559 
L -3790.886699 -2540.132177 
L -3819.252297 -2565.276696 
L -3930.077279 -2624.169922 
L -3940.904915 -2628.252122 
L -4064.903914 -2683.674388 
L -4094.239154 -2712.455963 
L -4189.444318 -2789.970521 
L -4221.887843 -2815.90051 
L -4256.618233 -2802.067351 
L -4331.087957 -2795.576717 
L -4439.917798 -2776.044547 
L -4513.260977 -2762.695359 
L -4543.309145 -2746.500566 
L -4639.476297 -2705.268765 
L -4729.739205 -2661.969138 
L -4732.246244 -2659.837287 
L -4820.697022 -2608.332294 
L -4922.132706 -2574.912616 
L -4952.445731 -2573.444539 
L -5030.35296 -2641.1932 
L -5050.962742 -2751.457404 
L -5157.753143 -2713.501585 
z
M -1798.94786 -1940.695533 
L -1778.213317 -1946.156756 
L -1797.799345 -1959.777861 
L -1823.486812 -1972.683926 
z
M -3283.126334 -1786.311332 
L -3339.56301 -1856.404763 
L -3356.813228 -1919.459864 
L -3338.186901 -1975.261951 
L -3303.15982 -2021.780984 
L -3296.742206 -2025.632736 
L -3239.157192 -2070.377071 
L -3233.373105 -2091.851342 
L -3148.026794 -2091.609016 
L -3097.544855 -2033.030466 
L -3047.973964 -1987.88993 
L -3026.975392 -1956.482775 
L -2963.928202 -1881.893773 
L -2953.531926 -1866.641178 
L -2920.350008 -1812.848343 
L -2919.305964 -1756.533977 
L -2943.143477 -1724.577011 
L -2956.230015 -1710.798345 
L -3014.819632 -1687.355122 
L -3075.516879 -1684.353895 
L -3088.056701 -1684.701705 
L -3129.816718 -1696.616831 
L -3164.835549 -1707.259959 
L -3248.401408 -1757.629733 
z
M -2676.988441 -483.929675 
L -2644.710696 -531.429802 
L -2644.109784 -531.750672 
L -2599.770699 -547.698354 
L -2557.876019 -553.521567 
L -2556.784049 -553.359007 
L -2522.182874 -544.167912 
L -2490.378137 -527.082082 
L -2468.598861 -507.600119 
L -2463.647362 -501.857225 
L -2446.384272 -463.386912 
L -2438.453783 -424.832505 
L -2445.608888 -404.315541 
L -2459.235217 -371.738222 
L -2475.952677 -360.978814 
L -2515.593539 -340.983507 
L -2526.291297 -340.697444 
L -2558.58532 -344.738348 
L -2587.259616 -353.68447 
L -2613.186613 -367.320437 
L -2637.045899 -385.662726 
L -2659.37312 -408.984221 
L -2666.730094 -418.936526 
L -2674.184145 -454.362777 
z
M -226.624483 236.091436 
L -147.938777 227.609602 
L -81.001777 302.953364 
L -59.156193 396 
L -131.2433 396 
L -212.050687 396 
L -291.119614 396 
L -295.572073 396 
L -292.38254 367.928359 
L -279.372179 310.239092 
z
" clip-path="url(#p292dee6ad2)" style="fill: #ffb000"/>
    <path d="M -1056.677986 2289.390349 
L -1127.788608 2343.507682 
L -1200.93814 2398.533723 
L -1272.134555 2451.415213 
L -1342.346365 2502.682913 
L -1375.306125 2526.195464 
L -1345.217606 2496.226612 
L -1280.177633 2435.097325 
L -1211.811367 2378.654798 
L -1137.530023 2327.652476 
z
M -2199.955839 3016.057345 
L -2206.478604 3019.269273 
L -2285.442309 3056.646325 
L -2364.145335 3092.596975 
L -2437.842573 3125.285398 
L -2352.227061 3043.437409 
L -2300.493579 3011.001627 
L -2270.485155 2993.077617 
L -2251.317433 2988.212849 
L -2204.147407 3009.011123 
z
M -2437.842573 -2333.285398 
L -2364.145335 -2300.596975 
L -2285.442309 -2264.646325 
L -2206.478604 -2227.269273 
L -2199.955839 -2224.057345 
L -2204.147407 -2217.011123 
L -2251.317433 -2196.212849 
L -2270.485155 -2201.077617 
L -2300.493579 -2219.001627 
L -2352.227061 -2251.437409 
z
M -1375.306125 -1734.195464 
L -1342.346365 -1710.682913 
L -1272.134555 -1659.415213 
L -1200.93814 -1606.533723 
L -1127.788608 -1551.507682 
L -1056.677986 -1497.390349 
L -1137.530023 -1535.652476 
L -1211.811367 -1586.654798 
L -1280.177633 -1643.097325 
L -1345.217606 -1704.226612 
z
" clip-path="url(#p292dee6ad2)" style="fill: #ffff85"/>
   </g>
   <g id="line2d_1">
    <path d="M 499.934048 396 
L 488.854938 509.403006 
L 456.439452 621.977836 
L 405.045522 732.919323 
L 368.082137 793 
M 368.082137 -1 
L 405.045522 59.080677 
L 456.439452 170.022164 
L 488.854938 282.596994 
L 499.934048 396 
L 499.934048 396 
" clip-path="url(#p292dee6ad2)" style="fill: none; stroke: #000000; stroke-width: 2; stroke-linecap: round"/>
   </g>
   <g id="line2d_2">
    <path d="M 587.357419 396 
L 552.216706 335.866293 
L 516.446118 276.105122 
L 480.049606 216.723084 
L 443.031188 157.726735 
L 405.39495 99.122588 
L 367.145047 40.917112 
L 338.964063 -1 
M 338.964063 793 
L 367.145047 751.082888 
L 405.39495 692.877412 
L 443.031188 634.273265 
L 480.049606 575.276916 
L 516.446118 515.894878 
L 552.216706 456.133707 
L 587.357419 396 
L 587.357419 396 
" clip-path="url(#p292dee6ad2)" style="fill: none; stroke-dasharray: 14.8,6.4; stroke-dashoffset: 0; stroke: #0000ff; stroke-width: 4; stroke-linecap: round"/>
   </g>
   <g id="legend_1">
    <g id="patch_2">
     <path d="M 429.6 122.934375 
L 760.2 122.934375 
Q 766.2 122.934375 766.2 116.934375 
L 766.2 31.8 
Q 766.2 25.8 760.2 25.8 
L 429.6 25.8 
Q 423.6 25.8 423.6 31.8 
L 423.6 116.934375 
Q 423.6 122.934375 429.6 122.934375 
z
" style="fill: #ffffff; opacity: 0.2; stroke: #cccccc; stroke-linejoin: miter"/>
    </g>
    <g id="line2d_3">
     <path d="M 435.6 50.1 
L 465.6 50.1 
L 495.6 50.1 
" style="fill: none; stroke: #000000; stroke-width: 2; stroke-linecap: round"/>
    </g>
    <g id="text_1">
     <!-- $\mathrm{DESC}$ boundary -->
     <g transform="translate(519.6 60.6) scale(0.3 -0.3)">
      <defs>
       <path id="DejaVuSans-44" d="M 1259 4147 
L 1259 519 
L 2022 519 
Q 2988 519 3436 956 
Q 3884 1394 3884 2338 
Q 3884 3275 3436 3711 
Q 2988 4147 2022 4147 
L 1259 4147 
z
M 628 4666 
L 1925 4666 
Q 3281 4666 3915 4102 
Q 4550 3538 4550 2338 
Q 4550 1131 3912 565 
Q 3275 0 1925 0 
L 628 0 
L 628 4666 
z
" transform="scale(0.015625)"/>
       <path id="DejaVuSans-45" d="M 628 4666 
L 3578 4666 
L 3578 4134 
L 1259 4134 
L 1259 2753 
L 3481 2753 
L 3481 2222 
L 1259 2222 
L 1259 531 
L 3634 531 
L 3634 0 
L 628 0 
L 628 4666 
z
" transform="scale(0.015625)"/>
       <path id="DejaVuSans-53" d="M 3425 4513 
L 3425 3897 
Q 3066 4069 2747 4153 
Q 2428 4238 2131 4238 
Q 1616 4238 1336 4038 
Q 1056 3838 1056 3469 
Q 1056 3159 1242 3001 
Q 1428 2844 1947 2747 
L 2328 2669 
Q 3034 2534 3370 2195 
Q 3706 1856 3706 1288 
Q 3706 609 3251 259 
Q 2797 -91 1919 -91 
Q 1588 -91 1214 -16 
Q 841 59 441 206 
L 441 856 
Q 825 641 1194 531 
Q 1563 422 1919 422 
Q 2459 422 2753 634 
Q 3047 847 3047 1241 
Q 3047 1584 2836 1778 
Q 2625 1972 2144 2069 
L 1759 2144 
Q 1053 2284 737 2584 
Q 422 2884 422 3419 
Q 422 4038 858 4394 
Q 1294 4750 2059 4750 
Q 2388 4750 2728 4690 
Q 3069 4631 3425 4513 
z
" transform="scale(0.015625)"/>
       <path id="DejaVuSans-43" d="M 4122 4306 
L 4122 3641 
Q 3803 3938 3442 4084 
Q 3081 4231 2675 4231 
Q 1875 4231 1450 3742 
Q 1025 3253 1025 2328 
Q 1025 1406 1450 917 
Q 1875 428 2675 428 
Q 3081 428 3442 575 
Q 3803 722 4122 1019 
L 4122 359 
Q 3791 134 3420 21 
Q 3050 -91 2638 -91 
Q 1578 -91 968 557 
Q 359 1206 359 2328 
Q 359 3453 968 4101 
Q 1578 4750 2638 4750 
Q 3056 4750 3426 4639 
Q 3797 4528 4122 4306 
z
" transform="scale(0.015625)"/>
       <path id="DejaVuSans-20" transform="scale(0.015625)"/>
       <path id="DejaVuSans-62" d="M 3116 1747 
Q 3116 2381 2855 2742 
Q 2594 3103 2138 3103 
Q 1681 3103 1420 2742 
Q 1159 2381 1159 1747 
Q 1159 1113 1420 752 
Q 1681 391 2138 391 
Q 2594 391 2855 752 
Q 3116 1113 3116 1747 
z
M 1159 2969 
Q 1341 3281 1617 3432 
Q 1894 3584 2278 3584 
Q 2916 3584 3314 3078 
Q 3713 2572 3713 1747 
Q 3713 922 3314 415 
Q 2916 -91 2278 -91 
Q 1894 -91 1617 61 
Q 1341 213 1159 525 
L 1159 0 
L 581 0 
L 581 4863 
L 1159 4863 
L 1159 2969 
z
" transform="scale(0.015625)"/>
       <path id="DejaVuSans-6f" d="M 1959 3097 
Q 1497 3097 1228 2736 
Q 959 2375 959 1747 
Q 959 1119 1226 758 
Q 1494 397 1959 397 
Q 2419 397 2687 759 
Q 2956 1122 2956 1747 
Q 2956 2369 2687 2733 
Q 2419 3097 1959 3097 
z
M 1959 3584 
Q 2709 3584 3137 3096 
Q 3566 2609 3566 1747 
Q 3566 888 3137 398 
Q 2709 -91 1959 -91 
Q 1206 -91 779 398 
Q 353 888 353 1747 
Q 353 2609 779 3096 
Q 1206 3584 1959 3584 
z
" transform="scale(0.015625)"/>
       <path id="DejaVuSans-75" d="M 544 1381 
L 544 3500 
L 1119 3500 
L 1119 1403 
Q 1119 906 1312 657 
Q 1506 409 1894 409 
Q 2359 409 2629 706 
Q 2900 1003 2900 1516 
L 2900 3500 
L 3475 3500 
L 3475 0 
L 2900 0 
L 2900 538 
Q 2691 219 2414 64 
Q 2138 -91 1772 -91 
Q 1169 -91 856 284 
Q 544 659 544 1381 
z
M 1991 3584 
L 1991 3584 
z
" transform="scale(0.015625)"/>
       <path id="DejaVuSans-6e" d="M 3513 2113 
L 3513 0 
L 2938 0 
L 2938 2094 
Q 2938 2591 2744 2837 
Q 2550 3084 2163 3084 
Q 1697 3084 1428 2787 
Q 1159 2491 1159 1978 
L 1159 0 
L 581 0 
L 581 3500 
L 1159 3500 
L 1159 2956 
Q 1366 3272 1645 3428 
Q 1925 3584 2291 3584 
Q 2894 3584 3203 3211 
Q 3513 2838 3513 2113 
z
" transform="scale(0.015625)"/>
       <path id="DejaVuSans-64" d="M 2906 2969 
L 2906 4863 
L 3481 4863 
L 3481 0 
L 2906 0 
L 2906 525 
Q 2725 213 2448 61 
Q 2172 -91 1784 -91 
Q 1150 -91 751 415 
Q 353 922 353 1747 
Q 353 2572 751 3078 
Q 1150 3584 1784 3584 
Q 2172 3584 2448 3432 
Q 2725 3281 2906 2969 
z
M 947 1747 
Q 947 1113 1208 752 
Q 1469 391 1925 391 
Q 2381 391 2643 752 
Q 2906 1113 2906 1747 
Q 2906 2381 2643 2742 
Q 2381 3103 1925 3103 
Q 1469 3103 1208 2742 
Q 947 2381 947 1747 
z
" transform="scale(0.015625)"/>
       <path id="DejaVuSans-61" d="M 2194 1759 
Q 1497 1759 1228 1600 
Q 959 1441 959 1056 
Q 959 750 1161 570 
Q 1363 391 1709 391 
Q 2188 391 2477 730 
Q 2766 1069 2766 1631 
L 2766 1759 
L 2194 1759 
z
M 3341 1997 
L 3341 0 
L 2766 0 
L 2766 531 
Q 2569 213 2275 61 
Q 1981 -91 1556 -91 
Q 1019 -91 701 211 
Q 384 513 384 1019 
Q 384 1609 779 1909 
Q 1175 2209 1959 2209 
L 2766 2209 
L 2766 2266 
Q 2766 2663 2505 2880 
Q 2244 3097 1772 3097 
Q 1472 3097 1187 3025 
Q 903 2953 641 2809 
L 641 3341 
Q 956 3463 1253 3523 
Q 1550 3584 1831 3584 
Q 2591 3584 2966 3190 
Q 3341 2797 3341 1997 
z
" transform="scale(0.015625)"/>
       <path id="DejaVuSans-72" d="M 2631 2963 
Q 2534 3019 2420 3045 
Q 2306 3072 2169 3072 
Q 1681 3072 1420 2755 
Q 1159 2438 1159 1844 
L 1159 0 
L 581 0 
L 581 3500 
L 1159 3500 
L 1159 2956 
Q 1341 3275 1631 3429 
Q 1922 3584 2338 3584 
Q 2397 3584 2469 3576 
Q 2541 3569 2628 3553 
L 2631 2963 
z
" transform="scale(0.015625)"/>
       <path id="DejaVuSans-79" d="M 2059 -325 
Q 1816 -950 1584 -1140 
Q 1353 -1331 966 -1331 
L 506 -1331 
L 506 -850 
L 844 -850 
Q 1081 -850 1212 -737 
Q 1344 -625 1503 -206 
L 1606 56 
L 191 3500 
L 800 3500 
L 1894 763 
L 2988 3500 
L 3597 3500 
L 2059 -325 
z
" transform="scale(0.015625)"/>
      </defs>
      <use xlink:href="#DejaVuSans-44" transform="translate(0 0.015625)"/>
      <use xlink:href="#DejaVuSans-45" transform="translate(77.001953 0.015625)"/>
      <use xlink:href="#DejaVuSans-53" transform="translate(140.185547 0.015625)"/>
      <use xlink:href="#DejaVuSans-43" transform="translate(203.662109 0.015625)"/>
      <use xlink:href="#DejaVuSans-20" transform="translate(273.486328 0.015625)"/>
      <use xlink:href="#DejaVuSans-62" transform="translate(305.273438 0.015625)"/>
      <use xlink:href="#DejaVuSans-6f" transform="translate(368.75 0.015625)"/>
      <use xlink:href="#DejaVuSans-75" transform="translate(429.931641 0.015625)"/>
      <use xlink:href="#DejaVuSans-6e" transform="translate(493.310547 0.015625)"/>
      <use xlink:href="#DejaVuSans-64" transform="translate(556.689453 0.015625)"/>
      <use xlink:href="#DejaVuSans-61" transform="translate(620.166016 0.015625)"/>
      <use xlink:href="#DejaVuSans-72" transform="translate(681.445312 0.015625)"/>
      <use xlink:href="#DejaVuSans-79" transform="translate(722.558594 0.015625)"/>
     </g>
    </g>
    <g id="line2d_4">
     <path d="M 435.6 94.195312 
L 465.6 94.195312 
L 495.6 94.195312 
" style="fill: none; stroke-dasharray: 14.8,6.4; stroke-dashoffset: 0; stroke: #0000ff; stroke-width: 4; stroke-linecap: round"/>
    </g>
    <g id="text_2">
     <!-- UToL boundary -->
     <g transform="translate(519.6 104.695312) scale(0.3 -0.3)">
      <defs>
       <path id="DejaVuSans-55" d="M 556 4666 
L 1191 4666 
L 1191 1831 
Q 1191 1081 1462 751 
Q 1734 422 2344 422 
Q 2950 422 3222 751 
Q 3494 1081 3494 1831 
L 3494 4666 
L 4128 4666 
L 4128 1753 
Q 4128 841 3676 375 
Q 3225 -91 2344 -91 
Q 1459 -91 1007 375 
Q 556 841 556 1753 
L 556 4666 
z
" transform="scale(0.015625)"/>
       <path id="DejaVuSans-54" d="M -19 4666 
L 3928 4666 
L 3928 4134 
L 2272 4134 
L 2272 0 
L 1638 0 
L 1638 4134 
L -19 4134 
L -19 4666 
z
" transform="scale(0.015625)"/>
       <path id="DejaVuSans-4c" d="M 628 4666 
L 1259 4666 
L 1259 531 
L 3531 531 
L 3531 0 
L 628 0 
L 628 4666 
z
" transform="scale(0.015625)"/>
      </defs>
      <use xlink:href="#DejaVuSans-55"/>
      <use xlink:href="#DejaVuSans-54" x="73.193359"/>
      <use xlink:href="#DejaVuSans-6f" x="117.277344"/>
      <use xlink:href="#DejaVuSans-4c" x="178.458984"/>
      <use xlink:href="#DejaVuSans-20" x="234.171875"/>
      <use xlink:href="#DejaVuSans-62" x="265.958984"/>
      <use xlink:href="#DejaVuSans-6f" x="329.435547"/>
      <use xlink:href="#DejaVuSans-75" x="390.617188"/>
      <use xlink:href="#DejaVuSans-6e" x="453.996094"/>
      <use xlink:href="#DejaVuSans-64" x="517.375"/>
      <use xlink:href="#DejaVuSans-61" x="580.851562"/>
      <use xlink:href="#DejaVuSans-72" x="642.130859"/>
      <use xlink:href="#DejaVuSans-79" x="683.244141"/>
     </g>
    </g>
   </g>
  </g>
 </g>
 <defs>
  <clipPath id="p292dee6ad2">
   <rect x="10.8" y="10.8" width="770.4" height="770.4"/>
  </clipPath>
 </defs>
</svg>
