<?xml version="1.0" encoding="utf-8" standalone="no"?>
<!DOCTYPE svg PUBLIC "-//W3C//DTD SVG 1.1//EN"
  "http://www.w3.org/Graphics/SVG/1.1/DTD/svg11.dtd">
<svg xmlns:xlink="http://www.w3.org/1999/xlink" width="432pt" height="360pt" viewBox="0 0 432 360" xmlns="http://www.w3.org/2000/svg" version="1.1">
 <metadata>
  <rdf:RDF xmlns:dc="http://purl.org/dc/elements/1.1/" xmlns:cc="http://creativecommons.org/ns#" xmlns:rdf="http://www.w3.org/1999/02/22-rdf-syntax-ns#">
   <cc:Work>
    <dc:type rdf:resource="http://purl.org/dc/dcmitype/StillImage"/>
    <dc:date>2025-04-13T20:16:16.908312</dc:date>
    <dc:format>image/svg+xml</dc:format>
    <dc:creator>
     <cc:Agent>
      <dc:title>Matplotlib v3.9.2, https://matplotlib.org/</dc:title>
     </cc:Agent>
    </dc:creator>
   </cc:Work>
  </rdf:RDF>
 </metadata>
 <defs>
  <style type="text/css">*{stroke-linejoin: round; stroke-linecap: butt}</style>
 </defs>
 <g id="figure_1">
  <g id="patch_1">
   <path d="M 0 360 
L 432 360 
L 432 0 
L 0 0 
z
" style="fill: #ffffff"/>
  </g>
  <g id="axes_1">
   <g id="patch_2">
    <path d="M 107.665625 284.294375 
L 355.480625 284.294375 
L 355.480625 21.437813 
L 107.665625 21.437813 
z
" style="fill: #ffffff"/>
   </g>
   <g id="matplotlib.axis_1">
    <g id="xtick_1">
     <g id="line2d_1">
      <defs>
       <path id="mdc73829c40" d="M 0 0 
L 0 3.5 
" style="stroke: #000000; stroke-width: 0.8"/>
      </defs>
      <g>
       <use xlink:href="#mdc73829c40" x="107.665625" y="284.294375" style="stroke: #000000; stroke-width: 0.8"/>
      </g>
     </g>
     <g id="text_1">
      <!-- 0 -->
      <g transform="translate(98.758125 312.57) scale(0.28 -0.28)">
       <defs>
        <path id="DejaVuSerif-30" d="M 2034 219 
Q 2513 219 2750 744 
Q 2988 1269 2988 2328 
Q 2988 3391 2750 3916 
Q 2513 4441 2034 4441 
Q 1556 4441 1318 3916 
Q 1081 3391 1081 2328 
Q 1081 1269 1318 744 
Q 1556 219 2034 219 
z
M 2034 -91 
Q 1275 -91 848 546 
Q 422 1184 422 2328 
Q 422 3475 848 4112 
Q 1275 4750 2034 4750 
Q 2797 4750 3222 4112 
Q 3647 3475 3647 2328 
Q 3647 1184 3222 546 
Q 2797 -91 2034 -91 
z
" transform="scale(0.015625)"/>
       </defs>
       <use xlink:href="#DejaVuSerif-30"/>
      </g>
     </g>
    </g>
    <g id="xtick_2">
     <g id="line2d_2">
      <g>
       <use xlink:href="#mdc73829c40" x="169.619375" y="284.294375" style="stroke: #000000; stroke-width: 0.8"/>
      </g>
     </g>
     <g id="text_2">
      <!-- $\pi/4$ -->
      <g transform="translate(147.639375 312.294375) scale(0.28 -0.28)">
       <defs>
        <path id="Cmmi10-bc" d="M 647 109 
Q 647 144 672 213 
Q 850 584 1004 942 
Q 1159 1300 1282 1639 
Q 1406 1978 1509 2363 
L 1100 2363 
Q 866 2363 662 2216 
Q 459 2069 325 1844 
Q 313 1819 288 1819 
L 213 1819 
Q 153 1819 153 1881 
Q 153 1894 166 1919 
Q 375 2275 614 2517 
Q 853 2759 1153 2759 
L 3475 2759 
Q 3541 2759 3587 2715 
Q 3634 2672 3634 2597 
Q 3634 2503 3567 2433 
Q 3500 2363 3406 2363 
L 2591 2363 
Q 2488 1859 2478 1381 
Q 2478 766 2694 269 
Q 2713 231 2713 191 
Q 2713 122 2672 62 
Q 2631 3 2567 -34 
Q 2503 -72 2431 -72 
Q 2263 -72 2200 203 
Q 2138 478 2138 738 
Q 2138 1103 2200 1442 
Q 2263 1781 2400 2363 
L 1703 2363 
Q 1197 313 1094 103 
Q 1003 -72 844 -72 
Q 766 -72 706 -20 
Q 647 31 647 109 
z
" transform="scale(0.015625)"/>
        <path id="Cmmi10-3d" d="M 359 -1472 
Q 359 -1453 366 -1447 
L 2591 4722 
Q 2603 4759 2634 4779 
Q 2666 4800 2706 4800 
Q 2763 4800 2798 4765 
Q 2834 4731 2834 4672 
L 2834 4647 
L 609 -1522 
Q 572 -1600 488 -1600 
Q 434 -1600 396 -1562 
Q 359 -1525 359 -1472 
z
" transform="scale(0.015625)"/>
        <path id="Cmr10-34" d="M 178 1056 
L 178 1281 
L 2156 4231 
Q 2178 4263 2222 4263 
L 2316 4263 
Q 2388 4263 2388 4191 
L 2388 1281 
L 3016 1281 
L 3016 1056 
L 2388 1056 
L 2388 428 
Q 2388 297 2575 261 
Q 2763 225 3009 225 
L 3009 0 
L 1247 0 
L 1247 225 
Q 1494 225 1681 261 
Q 1869 297 1869 428 
L 1869 1056 
L 178 1056 
z
M 391 1281 
L 1906 1281 
L 1906 3547 
L 391 1281 
z
" transform="scale(0.015625)"/>
       </defs>
       <use xlink:href="#Cmmi10-bc"/>
       <use xlink:href="#Cmmi10-3d" transform="translate(56.982422 0)"/>
       <use xlink:href="#Cmr10-34" transform="translate(106.982422 0)"/>
      </g>
     </g>
    </g>
    <g id="xtick_3">
     <g id="line2d_3">
      <g>
       <use xlink:href="#mdc73829c40" x="231.573125" y="284.294375" style="stroke: #000000; stroke-width: 0.8"/>
      </g>
     </g>
     <g id="text_3">
      <!-- $\pi/2$ -->
      <g transform="translate(209.593125 312.294375) scale(0.28 -0.28)">
       <defs>
        <path id="Cmr10-32" d="M 319 0 
L 319 172 
Q 319 188 331 206 
L 1325 1306 
Q 1550 1550 1690 1715 
Q 1831 1881 1968 2097 
Q 2106 2313 2186 2536 
Q 2266 2759 2266 3009 
Q 2266 3272 2169 3511 
Q 2072 3750 1880 3894 
Q 1688 4038 1416 4038 
Q 1138 4038 916 3870 
Q 694 3703 603 3438 
Q 628 3444 672 3444 
Q 816 3444 917 3347 
Q 1019 3250 1019 3097 
Q 1019 2950 917 2848 
Q 816 2747 672 2747 
Q 522 2747 420 2851 
Q 319 2956 319 3097 
Q 319 3338 409 3548 
Q 500 3759 670 3923 
Q 841 4088 1055 4175 
Q 1269 4263 1509 4263 
Q 1875 4263 2190 4108 
Q 2506 3953 2690 3670 
Q 2875 3388 2875 3009 
Q 2875 2731 2753 2481 
Q 2631 2231 2440 2026 
Q 2250 1822 1953 1562 
Q 1656 1303 1563 1216 
L 838 519 
L 1453 519 
Q 1906 519 2211 526 
Q 2516 534 2534 550 
Q 2609 631 2688 1141 
L 2875 1141 
L 2694 0 
L 319 0 
z
" transform="scale(0.015625)"/>
       </defs>
       <use xlink:href="#Cmmi10-bc"/>
       <use xlink:href="#Cmmi10-3d" transform="translate(56.982422 0)"/>
       <use xlink:href="#Cmr10-32" transform="translate(106.982422 0)"/>
      </g>
     </g>
    </g>
    <g id="xtick_4">
     <g id="line2d_4">
      <g>
       <use xlink:href="#mdc73829c40" x="293.526875" y="284.294375" style="stroke: #000000; stroke-width: 0.8"/>
      </g>
     </g>
     <g id="text_4">
      <!-- $3\pi/4$ -->
      <g transform="translate(264.546875 312.294375) scale(0.28 -0.28)">
       <defs>
        <path id="Cmr10-33" d="M 609 494 
Q 759 275 1012 169 
Q 1266 63 1556 63 
Q 1928 63 2084 380 
Q 2241 697 2241 1100 
Q 2241 1281 2208 1462 
Q 2175 1644 2097 1800 
Q 2019 1956 1883 2050 
Q 1747 2144 1550 2144 
L 1125 2144 
Q 1069 2144 1069 2203 
L 1069 2259 
Q 1069 2309 1125 2309 
L 1478 2338 
Q 1703 2338 1851 2506 
Q 2000 2675 2069 2917 
Q 2138 3159 2138 3378 
Q 2138 3684 1994 3881 
Q 1850 4078 1556 4078 
Q 1313 4078 1091 3986 
Q 869 3894 738 3706 
Q 750 3709 759 3711 
Q 769 3713 781 3713 
Q 925 3713 1022 3613 
Q 1119 3513 1119 3372 
Q 1119 3234 1022 3134 
Q 925 3034 781 3034 
Q 641 3034 541 3134 
Q 441 3234 441 3372 
Q 441 3647 606 3850 
Q 772 4053 1033 4158 
Q 1294 4263 1556 4263 
Q 1750 4263 1965 4205 
Q 2181 4147 2356 4039 
Q 2531 3931 2642 3762 
Q 2753 3594 2753 3378 
Q 2753 3109 2633 2881 
Q 2513 2653 2303 2487 
Q 2094 2322 1844 2241 
Q 2122 2188 2372 2031 
Q 2622 1875 2773 1631 
Q 2925 1388 2925 1106 
Q 2925 753 2731 467 
Q 2538 181 2222 20 
Q 1906 -141 1556 -141 
Q 1256 -141 954 -26 
Q 653 88 461 316 
Q 269 544 269 863 
Q 269 1022 375 1128 
Q 481 1234 641 1234 
Q 744 1234 830 1186 
Q 916 1138 964 1050 
Q 1013 963 1013 863 
Q 1013 706 903 600 
Q 794 494 641 494 
L 609 494 
z
" transform="scale(0.015625)"/>
       </defs>
       <use xlink:href="#Cmr10-33"/>
       <use xlink:href="#Cmmi10-bc" transform="translate(50 0)"/>
       <use xlink:href="#Cmmi10-3d" transform="translate(106.982422 0)"/>
       <use xlink:href="#Cmr10-34" transform="translate(156.982422 0)"/>
      </g>
     </g>
    </g>
    <g id="xtick_5">
     <g id="line2d_5">
      <g>
       <use xlink:href="#mdc73829c40" x="355.480625" y="284.294375" style="stroke: #000000; stroke-width: 0.8"/>
      </g>
     </g>
     <g id="text_5">
      <!-- $\pi$ -->
      <g transform="translate(347.500625 312.57) scale(0.28 -0.28)">
       <use xlink:href="#Cmmi10-bc" transform="translate(0 0.890625)"/>
      </g>
     </g>
    </g>
    <g id="text_6">
     <!-- $\zeta_{\mathrm{Boozer}}$ -->
     <g transform="translate(187.373125 342.06) scale(0.34 -0.34)">
      <defs>
       <path id="Cmmi10-b3" d="M 1131 -997 
Q 1147 -922 1222 -922 
Q 1234 -922 1332 -986 
Q 1431 -1050 1542 -1098 
Q 1653 -1147 1784 -1147 
Q 1922 -1147 2014 -1019 
Q 2106 -891 2106 -744 
Q 2106 -597 2009 -494 
Q 1913 -391 1766 -341 
L 1113 -122 
Q 713 16 503 317 
Q 294 619 294 1050 
Q 294 1416 426 1831 
Q 559 2247 793 2637 
Q 1028 3028 1334 3339 
Q 1641 3650 1972 3822 
Q 1906 3953 1906 4128 
Q 1906 4475 2041 4475 
Q 2075 4475 2100 4450 
Q 2125 4425 2125 4391 
Q 2125 4344 2109 4245 
Q 2094 4147 2094 4122 
Q 2094 4006 2131 3897 
Q 2297 3963 2438 3963 
Q 3028 3963 3028 3781 
Q 3028 3566 2375 3566 
Q 2181 3566 2069 3681 
Q 1794 3525 1539 3244 
Q 1284 2963 1087 2613 
Q 891 2263 781 1906 
Q 672 1550 672 1228 
Q 672 538 1300 319 
L 1984 91 
Q 2200 25 2336 -139 
Q 2472 -303 2472 -531 
Q 2472 -716 2378 -898 
Q 2284 -1081 2125 -1197 
Q 1966 -1313 1772 -1313 
Q 1619 -1313 1375 -1211 
Q 1131 -1109 1131 -997 
z
M 2247 3763 
Q 2241 3763 2303 3738 
Q 2331 3738 2348 3736 
Q 2366 3734 2388 3731 
Q 2694 3731 2828 3769 
Q 2706 3794 2438 3794 
Q 2350 3794 2247 3763 
z
" transform="scale(0.015625)"/>
       <path id="Cmr10-42" d="M 219 0 
L 219 225 
Q 878 225 878 428 
L 878 3944 
Q 878 4147 219 4147 
L 219 4372 
L 2572 4372 
Q 2897 4372 3228 4245 
Q 3559 4119 3776 3870 
Q 3994 3622 3994 3284 
Q 3994 2894 3673 2630 
Q 3353 2366 2925 2284 
Q 3203 2284 3497 2131 
Q 3791 1978 3978 1722 
Q 4166 1466 4166 1178 
Q 4166 828 3958 559 
Q 3750 291 3419 145 
Q 3088 0 2753 0 
L 219 0 
z
M 1434 428 
Q 1434 291 1512 258 
Q 1591 225 1759 225 
L 2572 225 
Q 2822 225 3036 356 
Q 3250 488 3375 708 
Q 3500 928 3500 1178 
Q 3500 1422 3397 1655 
Q 3294 1888 3101 2038 
Q 2909 2188 2663 2188 
L 1434 2188 
L 1434 428 
z
M 1434 2356 
L 2394 2356 
Q 2588 2356 2758 2426 
Q 2928 2497 3064 2630 
Q 3200 2763 3273 2930 
Q 3347 3097 3347 3284 
Q 3347 3450 3292 3603 
Q 3238 3756 3131 3881 
Q 3025 4006 2881 4076 
Q 2738 4147 2572 4147 
L 1759 4147 
Q 1644 4147 1580 4137 
Q 1516 4128 1475 4083 
Q 1434 4038 1434 3944 
L 1434 2356 
z
" transform="scale(0.015625)"/>
       <path id="Cmr10-6f" d="M 1600 -72 
Q 1216 -72 887 123 
Q 559 319 368 647 
Q 178 975 178 1363 
Q 178 1656 283 1928 
Q 388 2200 583 2414 
Q 778 2628 1037 2748 
Q 1297 2869 1600 2869 
Q 1994 2869 2317 2661 
Q 2641 2453 2828 2104 
Q 3016 1756 3016 1363 
Q 3016 978 2825 648 
Q 2634 319 2307 123 
Q 1981 -72 1600 -72 
z
M 1600 116 
Q 2113 116 2284 487 
Q 2456 859 2456 1434 
Q 2456 1756 2422 1967 
Q 2388 2178 2272 2350 
Q 2200 2456 2089 2536 
Q 1978 2616 1854 2658 
Q 1731 2700 1600 2700 
Q 1400 2700 1220 2609 
Q 1041 2519 922 2350 
Q 803 2169 770 1951 
Q 738 1734 738 1434 
Q 738 1075 800 789 
Q 863 503 1052 309 
Q 1241 116 1600 116 
z
" transform="scale(0.015625)"/>
       <path id="Cmr10-7a" d="M 250 0 
Q 178 0 178 72 
L 178 122 
Q 178 147 197 166 
L 1984 2591 
L 1409 2591 
Q 1138 2591 961 2556 
Q 784 2522 670 2426 
Q 556 2331 504 2164 
Q 453 1997 453 1703 
L 269 1703 
L 341 2759 
L 2484 2759 
Q 2513 2759 2533 2739 
Q 2553 2719 2553 2688 
L 2553 2650 
Q 2553 2631 2541 2606 
L 750 184 
L 1363 184 
Q 1641 184 1827 218 
Q 2013 253 2144 384 
Q 2266 506 2311 712 
Q 2356 919 2381 1222 
L 2566 1222 
L 2456 0 
L 250 0 
z
" transform="scale(0.015625)"/>
       <path id="Cmr10-65" d="M 1594 -72 
Q 1203 -72 876 133 
Q 550 338 364 680 
Q 178 1022 178 1403 
Q 178 1778 348 2115 
Q 519 2453 823 2661 
Q 1128 2869 1503 2869 
Q 1797 2869 2014 2770 
Q 2231 2672 2372 2497 
Q 2513 2322 2584 2084 
Q 2656 1847 2656 1563 
Q 2656 1478 2591 1478 
L 738 1478 
L 738 1409 
Q 738 878 952 497 
Q 1166 116 1650 116 
Q 1847 116 2014 203 
Q 2181 291 2304 447 
Q 2428 603 2472 781 
Q 2478 803 2495 820 
Q 2513 838 2534 838 
L 2591 838 
Q 2656 838 2656 756 
Q 2566 394 2266 161 
Q 1966 -72 1594 -72 
z
M 744 1638 
L 2203 1638 
Q 2203 1878 2136 2125 
Q 2069 2372 1912 2536 
Q 1756 2700 1503 2700 
Q 1141 2700 942 2361 
Q 744 2022 744 1638 
z
" transform="scale(0.015625)"/>
       <path id="Cmr10-72" d="M 166 0 
L 166 225 
Q 384 225 525 259 
Q 666 294 666 428 
L 666 2175 
Q 666 2347 614 2423 
Q 563 2500 466 2517 
Q 369 2534 166 2534 
L 166 2759 
L 1081 2828 
L 1081 2203 
Q 1184 2481 1375 2654 
Q 1566 2828 1838 2828 
Q 2028 2828 2178 2715 
Q 2328 2603 2328 2419 
Q 2328 2303 2245 2217 
Q 2163 2131 2041 2131 
Q 1922 2131 1837 2215 
Q 1753 2300 1753 2419 
Q 1753 2591 1875 2663 
L 1838 2663 
Q 1578 2663 1414 2475 
Q 1250 2288 1181 2009 
Q 1113 1731 1113 1478 
L 1113 428 
Q 1113 225 1734 225 
L 1734 0 
L 166 0 
z
" transform="scale(0.015625)"/>
      </defs>
      <use xlink:href="#Cmmi10-b3" transform="translate(0 0.078125)"/>
      <use xlink:href="#Cmr10-42" transform="translate(43.701172 -16.928125) scale(0.7)"/>
      <use xlink:href="#Cmr10-6f" transform="translate(93.261719 -16.928125) scale(0.7)"/>
      <use xlink:href="#Cmr10-6f" transform="translate(128.261719 -16.928125) scale(0.7)"/>
      <use xlink:href="#Cmr10-7a" transform="translate(163.261719 -16.928125) scale(0.7)"/>
      <use xlink:href="#Cmr10-65" transform="translate(194.331055 -16.928125) scale(0.7)"/>
      <use xlink:href="#Cmr10-72" transform="translate(225.400391 -16.928125) scale(0.7)"/>
     </g>
    </g>
   </g>
   <g id="matplotlib.axis_2">
    <g id="ytick_1">
     <g id="line2d_6">
      <defs>
       <path id="m5665e99c94" d="M 0 0 
L -3.5 0 
" style="stroke: #000000; stroke-width: 0.8"/>
      </defs>
      <g>
       <use xlink:href="#m5665e99c94" x="107.665625" y="284.294375" style="stroke: #000000; stroke-width: 0.8"/>
      </g>
     </g>
     <g id="text_7">
      <!-- 0 -->
      <g transform="translate(82.850625 294.932187) scale(0.28 -0.28)">
       <use xlink:href="#DejaVuSerif-30"/>
      </g>
     </g>
    </g>
    <g id="ytick_2">
     <g id="line2d_7">
      <g>
       <use xlink:href="#m5665e99c94" x="107.665625" y="218.580234" style="stroke: #000000; stroke-width: 0.8"/>
      </g>
     </g>
     <g id="text_8">
      <!-- $\pi/2$ -->
      <g transform="translate(56.705625 229.080234) scale(0.28 -0.28)">
       <use xlink:href="#Cmmi10-bc"/>
       <use xlink:href="#Cmmi10-3d" transform="translate(56.982422 0)"/>
       <use xlink:href="#Cmr10-32" transform="translate(106.982422 0)"/>
      </g>
     </g>
    </g>
    <g id="ytick_3">
     <g id="line2d_8">
      <g>
       <use xlink:href="#m5665e99c94" x="107.665625" y="152.866094" style="stroke: #000000; stroke-width: 0.8"/>
      </g>
     </g>
     <g id="text_9">
      <!-- $\pi$ -->
      <g transform="translate(84.705625 163.503906) scale(0.28 -0.28)">
       <use xlink:href="#Cmmi10-bc" transform="translate(0 0.890625)"/>
      </g>
     </g>
    </g>
    <g id="ytick_4">
     <g id="line2d_9">
      <g>
       <use xlink:href="#m5665e99c94" x="107.665625" y="87.151953" style="stroke: #000000; stroke-width: 0.8"/>
      </g>
     </g>
     <g id="text_10">
      <!-- $3\pi/2$ -->
      <g transform="translate(42.705625 97.651953) scale(0.28 -0.28)">
       <use xlink:href="#Cmr10-33"/>
       <use xlink:href="#Cmmi10-bc" transform="translate(50 0)"/>
       <use xlink:href="#Cmmi10-3d" transform="translate(106.982422 0)"/>
       <use xlink:href="#Cmr10-32" transform="translate(156.982422 0)"/>
      </g>
     </g>
    </g>
    <g id="ytick_5">
     <g id="line2d_10">
      <g>
       <use xlink:href="#m5665e99c94" x="107.665625" y="21.437813" style="stroke: #000000; stroke-width: 0.8"/>
      </g>
     </g>
     <g id="text_11">
      <!-- $2\pi$ -->
      <g transform="translate(70.705625 32.075625) scale(0.28 -0.28)">
       <use xlink:href="#Cmr10-32" transform="translate(0 0.390625)"/>
       <use xlink:href="#Cmmi10-bc" transform="translate(50 0.390625)"/>
      </g>
     </g>
    </g>
    <g id="text_12">
     <!-- $\theta_{\mathrm{Boozer}}$ -->
     <g transform="translate(36.634687 197.576094) rotate(-90) scale(0.34 -0.34)">
      <defs>
       <path id="Cmmi10-b5" d="M 1031 -72 
Q 741 -72 566 140 
Q 391 353 323 653 
Q 256 953 256 1247 
L 256 1253 
Q 256 1572 317 1915 
Q 378 2259 493 2601 
Q 609 2944 744 3213 
Q 838 3400 986 3631 
Q 1134 3863 1317 4064 
Q 1500 4266 1711 4389 
Q 1922 4513 2138 4513 
L 2144 4513 
Q 2375 4513 2529 4384 
Q 2684 4256 2770 4056 
Q 2856 3856 2890 3628 
Q 2925 3400 2925 3194 
Q 2925 2709 2794 2204 
Q 2663 1700 2431 1228 
Q 2344 1050 2189 809 
Q 2034 569 1861 378 
Q 1688 188 1472 58 
Q 1256 -72 1038 -72 
L 1031 -72 
z
M 1044 97 
Q 1256 97 1451 323 
Q 1647 550 1794 873 
Q 1941 1197 2052 1536 
Q 2163 1875 2216 2113 
L 909 2113 
Q 809 1709 753 1417 
Q 697 1125 697 844 
Q 697 97 1044 97 
z
M 959 2338 
L 2272 2338 
Q 2341 2619 2381 2808 
Q 2422 2997 2450 3206 
Q 2478 3416 2478 3597 
Q 2478 4347 2138 4347 
Q 1731 4347 1436 3692 
Q 1141 3038 959 2338 
z
" transform="scale(0.015625)"/>
      </defs>
      <use xlink:href="#Cmmi10-b5" transform="translate(0 0.484375)"/>
      <use xlink:href="#Cmr10-42" transform="translate(46.923828 -16.521875) scale(0.7)"/>
      <use xlink:href="#Cmr10-6f" transform="translate(96.484375 -16.521875) scale(0.7)"/>
      <use xlink:href="#Cmr10-6f" transform="translate(131.484375 -16.521875) scale(0.7)"/>
      <use xlink:href="#Cmr10-7a" transform="translate(166.484375 -16.521875) scale(0.7)"/>
      <use xlink:href="#Cmr10-65" transform="translate(197.553711 -16.521875) scale(0.7)"/>
      <use xlink:href="#Cmr10-72" transform="translate(228.623047 -16.521875) scale(0.7)"/>
     </g>
    </g>
   </g>
   <g id="QuadContourSet_1">
    <path d="M 231.573125 152.866094 
L 231.573125 152.866094 
L 231.573125 152.866094 
L 231.573125 152.866094 
L 231.573125 152.866094 
z
" clip-path="url(#pfccfe3d74f)" style="fill: none; stroke: #000080"/>
    <path d="M 220.559432 284.294375 
L 222.794838 278.453118 
L 223.902353 275.53249 
L 225.028492 272.611861 
L 226.066125 269.533101 
L 227.172021 266.770604 
L 230.187723 258.008719 
L 233.619376 246.326205 
L 234.326625 242.946309 
L 234.988497 240.484948 
L 235.604381 237.564319 
L 236.072456 234.643691 
L 236.64678 228.802434 
L 236.795257 222.961177 
L 236.709441 220.040549 
L 236.508267 217.11992 
L 236.181317 214.199292 
L 235.715487 211.278663 
L 235.094715 208.358035 
L 232.749084 199.596149 
L 225.853815 179.15175 
L 221.567068 164.548608 
L 220.003884 158.707351 
L 215.004578 138.262951 
L 212.944912 129.501066 
L 209.338885 114.897924 
L 206.668199 103.21541 
L 205.797526 97.374153 
L 205.5621 94.453524 
L 205.530419 91.532896 
L 205.756549 88.612267 
L 206.281173 85.691639 
L 207.107097 82.77101 
L 211.142232 71.088497 
L 212.298625 66.293729 
L 213.001843 62.326611 
L 213.661039 56.485354 
L 214.619089 44.80284 
L 215.052125 41.452602 
L 215.494921 38.961583 
L 216.851431 33.120326 
L 217.805625 29.619777 
L 220.559432 21.437813 
M 242.586818 21.437813 
L 240.351412 27.279069 
L 239.243897 30.199698 
L 238.117758 33.120326 
L 237.080125 36.199087 
L 235.974229 38.961583 
L 232.958527 47.723469 
L 229.526874 59.405983 
L 228.819625 62.785879 
L 228.157753 65.24724 
L 227.541869 68.167868 
L 227.073794 71.088497 
L 226.49947 76.929753 
L 226.350993 82.77101 
L 226.436809 85.691639 
L 226.637983 88.612267 
L 226.964933 91.532896 
L 227.430763 94.453524 
L 228.051535 97.374153 
L 230.397166 106.136038 
L 237.292435 126.580438 
L 241.579182 141.18358 
L 243.142366 147.024837 
L 248.141672 167.469236 
L 250.201338 176.231122 
L 253.807365 190.834264 
L 256.478051 202.516778 
L 257.348724 208.358035 
L 257.58415 211.278663 
L 257.615831 214.199292 
L 257.389701 217.11992 
L 256.865077 220.040549 
L 256.039153 222.961177 
L 252.004018 234.643691 
L 250.847625 239.438458 
L 250.144407 243.405576 
L 249.485211 249.246833 
L 248.527161 260.929347 
L 248.094125 264.279585 
L 247.651329 266.770604 
L 246.294819 272.611861 
L 245.340625 276.112411 
L 242.586818 284.294375 
L 242.586818 284.294375 
" clip-path="url(#pfccfe3d74f)" style="fill: none; stroke: #0000a4"/>
    <path d="M 215.015592 284.294375 
L 219.612813 272.611861 
L 223.415464 260.929347 
L 225.132481 255.08809 
L 227.949093 243.405576 
L 229.52039 234.643691 
L 230.213035 228.802434 
L 230.394989 225.881806 
L 230.461241 222.961177 
L 230.405158 220.040549 
L 230.219316 217.11992 
L 229.89646 214.199292 
L 229.43045 211.278663 
L 228.181275 205.437406 
L 226.553463 199.596149 
L 220.003917 179.15175 
L 215.71643 164.548608 
L 214.08819 158.707351 
L 209.108704 141.18358 
L 206.791625 133.612471 
L 205.519251 129.501066 
L 198.531125 108.718055 
L 196.259429 100.294781 
L 195.603739 97.374153 
L 194.754915 91.532896 
L 194.482072 88.612267 
L 194.321824 85.691639 
L 194.278065 82.77101 
L 194.529649 76.929753 
L 195.160939 71.088497 
L 195.777625 66.930171 
L 196.989465 62.326611 
L 198.626858 56.485354 
L 201.284625 50.499985 
L 204.038125 45.584322 
L 207.453911 38.961583 
L 210.117129 33.120326 
L 213.864427 24.358441 
L 215.015592 21.437813 
M 248.130658 21.437812 
L 243.533437 33.120326 
L 239.730786 44.80284 
L 238.013769 50.644097 
L 235.197157 62.326611 
L 233.62586 71.088497 
L 232.933215 76.929753 
L 232.751261 79.850382 
L 232.685009 82.77101 
L 232.741092 85.691639 
L 232.926934 88.612267 
L 233.24979 91.532896 
L 233.7158 94.453524 
L 234.964975 100.294781 
L 236.592787 106.136038 
L 243.142333 126.580438 
L 247.42982 141.18358 
L 249.05806 147.024837 
L 254.037546 164.548608 
L 256.354625 172.119717 
L 257.626999 176.231122 
L 264.615125 197.014132 
L 266.886821 205.437406 
L 267.542511 208.358035 
L 268.391335 214.199292 
L 268.664178 217.11992 
L 268.824426 220.040549 
L 268.868185 222.961177 
L 268.616601 228.802434 
L 267.985311 234.643691 
L 267.368625 238.802017 
L 266.156785 243.405576 
L 264.519392 249.246833 
L 261.861625 255.232202 
L 259.108125 260.147865 
L 255.692339 266.770604 
L 253.029121 272.611861 
L 249.281823 281.373747 
L 248.130658 284.294375 
L 248.130658 284.294375 
" clip-path="url(#pfccfe3d74f)" style="fill: none; stroke: #0000cd"/>
    <path d="M 210.998711 284.294375 
L 214.688812 275.53249 
L 217.809219 266.770604 
L 219.67245 260.929347 
L 222.753756 249.246833 
L 225.197936 237.564319 
L 225.97066 231.723062 
L 226.415859 225.881806 
L 226.447809 222.961177 
L 226.336051 220.040549 
L 225.709598 214.199292 
L 225.206334 211.278663 
L 224.566203 208.358035 
L 222.951565 202.516778 
L 221.11468 196.675521 
L 217.805625 186.643863 
L 211.940917 167.469236 
L 207.615309 152.866094 
L 201.284625 133.19924 
L 199.02619 126.580438 
L 197.017512 120.739181 
L 195.041745 114.897924 
L 193.024125 108.369736 
L 191.732573 103.21541 
L 190.571443 97.374153 
L 190.152401 94.453524 
L 189.694928 88.612267 
L 189.662058 82.77101 
L 190.009228 76.929753 
L 190.308672 74.009125 
L 191.226477 68.167868 
L 192.953885 59.405983 
L 193.024125 59.102061 
L 195.777625 49.888563 
L 198.531125 43.694856 
L 208.15979 27.279069 
L 210.998711 21.437813 
M 252.147539 21.437813 
L 248.457438 30.199698 
L 245.337031 38.961583 
L 243.4738 44.80284 
L 240.392494 56.485354 
L 237.948314 68.167868 
L 237.17559 74.009125 
L 236.730391 79.850382 
L 236.698441 82.77101 
L 236.810199 85.691639 
L 237.436652 91.532896 
L 237.939916 94.453524 
L 238.580047 97.374153 
L 240.194685 103.21541 
L 242.03157 109.056667 
L 245.340625 119.088324 
L 251.205333 138.262951 
L 255.530941 152.866094 
L 261.861625 172.532947 
L 264.12006 179.15175 
L 266.128738 184.993007 
L 268.104505 190.834264 
L 270.122125 197.362452 
L 271.413677 202.516778 
L 272.574807 208.358035 
L 272.993849 211.278663 
L 273.451322 217.11992 
L 273.484192 222.961177 
L 273.137022 228.802434 
L 272.837578 231.723062 
L 271.919773 237.564319 
L 270.192365 246.326205 
L 270.122125 246.630127 
L 267.368625 255.843625 
L 264.615125 262.037331 
L 254.98646 278.453118 
L 252.147539 284.294375 
L 252.147539 284.294375 
" clip-path="url(#pfccfe3d74f)" style="fill: none; stroke: #0000f6"/>
    <path d="M 207.582173 284.294375 
L 210.339814 278.453118 
L 212.717809 272.611861 
L 213.815082 269.691233 
L 216.647766 260.929347 
L 219.044595 252.167462 
L 221.076046 243.405576 
L 222.205385 237.564319 
L 222.962046 231.723062 
L 223.182502 228.802434 
L 223.284135 225.881806 
L 223.255174 222.961177 
L 223.084636 220.040549 
L 222.764785 217.11992 
L 222.293356 214.199292 
L 221.674709 211.278663 
L 220.082618 205.437406 
L 217.805625 198.37584 
L 210.718963 176.231122 
L 206.267242 161.627979 
L 202.632876 149.945465 
L 197.751811 135.342323 
L 189.73248 111.977295 
L 188.121436 106.136038 
L 187.442306 103.21541 
L 186.437754 97.374153 
L 186.110128 94.453524 
L 185.902984 91.532896 
L 185.815282 88.612267 
L 185.979899 82.77101 
L 186.546662 76.929753 
L 187.517125 70.678995 
L 188.62661 65.24724 
L 190.270625 58.262289 
L 192.490408 50.644097 
L 193.494118 47.723469 
L 195.859418 41.882212 
L 199.025707 36.040955 
L 206.044346 24.358441 
L 207.582173 21.437812 
M 255.564077 21.437813 
L 252.806436 27.279069 
L 250.428441 33.120326 
L 249.331168 36.040955 
L 246.498484 44.80284 
L 244.101655 53.564726 
L 242.070204 62.326611 
L 240.940865 68.167868 
L 240.184204 74.009125 
L 239.963748 76.929753 
L 239.862115 79.850382 
L 239.891076 82.77101 
L 240.061614 85.691639 
L 240.381465 88.612267 
L 240.852894 91.532896 
L 241.471541 94.453524 
L 243.063632 100.294781 
L 245.340625 107.356348 
L 252.427287 129.501066 
L 256.879008 144.104208 
L 260.513374 155.786722 
L 265.394439 170.389865 
L 273.41377 193.754892 
L 275.024814 199.596149 
L 275.703944 202.516778 
L 276.708496 208.358035 
L 277.036122 211.278663 
L 277.243266 214.199292 
L 277.330968 217.11992 
L 277.166351 222.961177 
L 276.599588 228.802434 
L 275.629125 235.053193 
L 274.51964 240.484948 
L 272.875625 247.469899 
L 270.655842 255.08809 
L 269.652132 258.008719 
L 267.286832 263.849976 
L 264.120543 269.691233 
L 257.101904 281.373747 
L 255.564077 284.294375 
L 255.564077 284.294375 
" clip-path="url(#pfccfe3d74f)" style="fill: none; stroke: #000cff"/>
    <path d="M 204.575853 284.294375 
L 207.530343 278.453118 
L 210.029901 272.611861 
L 211.154544 269.691233 
L 214.04473 260.929347 
L 216.484378 252.167462 
L 218.55621 243.405576 
L 219.657587 237.564319 
L 220.362883 231.723062 
L 220.559125 227.554444 
L 220.559125 225.15782 
L 220.479401 222.961177 
L 220.215714 220.040549 
L 219.789532 217.11992 
L 219.205602 214.199292 
L 217.805625 208.961789 
L 216.735954 205.437406 
L 209.105635 182.072378 
L 201.874745 158.707351 
L 196.059183 141.18358 
L 190.270625 125.230143 
L 187.517125 117.626187 
L 185.657743 111.977295 
L 184.057006 106.136038 
L 183.417692 103.21541 
L 182.896805 100.294781 
L 182.501126 97.374153 
L 182.234626 94.453524 
L 182.098351 91.532896 
L 182.09053 88.612267 
L 182.206892 85.691639 
L 182.785353 79.850382 
L 183.767034 74.009125 
L 185.068635 68.167868 
L 186.576977 62.326611 
L 188.252701 56.485354 
L 190.270625 49.995029 
L 193.024125 42.533502 
L 194.670356 38.961583 
L 196.085612 36.040955 
L 199.446323 30.199698 
L 204.575853 21.437813 
M 258.570397 21.437813 
L 255.615907 27.279069 
L 253.116349 33.120326 
L 251.991706 36.040955 
L 249.10152 44.80284 
L 246.661872 53.564726 
L 244.59004 62.326611 
L 243.488663 68.167868 
L 242.783367 74.009125 
L 242.587125 78.177743 
L 242.587125 80.574367 
L 242.666849 82.77101 
L 242.930536 85.691639 
L 243.356718 88.612267 
L 243.940648 91.532896 
L 245.340625 96.770399 
L 246.410296 100.294781 
L 254.040615 123.659809 
L 261.271505 147.024837 
L 267.087067 164.548608 
L 272.875625 180.502045 
L 275.629125 188.106 
L 277.488507 193.754892 
L 279.089244 199.596149 
L 279.728558 202.516778 
L 280.249445 205.437406 
L 280.645124 208.358035 
L 280.911624 211.278663 
L 281.047899 214.199292 
L 281.05572 217.11992 
L 280.939358 220.040549 
L 280.360897 225.881806 
L 279.379216 231.723062 
L 278.077615 237.564319 
L 276.569273 243.405576 
L 274.893549 249.246833 
L 272.875625 255.737159 
L 270.122125 263.198685 
L 268.475894 266.770604 
L 267.060638 269.691233 
L 263.699927 275.53249 
L 258.570397 284.294375 
L 258.570397 284.294375 
" clip-path="url(#pfccfe3d74f)" style="fill: none; stroke: #0030ff"/>
    <path d="M 201.893295 284.294375 
L 204.98156 278.453118 
L 207.598177 272.611861 
L 209.791814 266.770604 
L 211.707043 260.929347 
L 214.202028 252.167462 
L 216.315629 243.405576 
L 217.374337 237.564319 
L 218.027943 231.723062 
L 218.156832 228.802434 
L 218.122187 225.881806 
L 217.805625 222.114758 
L 217.538182 220.040549 
L 216.997352 217.11992 
L 216.30237 214.199292 
L 214.568593 208.358035 
L 204.038125 175.755354 
L 199.619642 161.627979 
L 195.73322 149.945465 
L 192.612868 141.18358 
L 189.271056 132.421694 
L 183.594868 117.818552 
L 181.641523 111.977295 
L 180.094049 106.136038 
L 179.256625 101.7967 
L 179.018813 100.294781 
L 178.677743 97.374153 
L 178.462706 94.453524 
L 178.376197 91.532896 
L 178.419732 88.612267 
L 178.593664 85.691639 
L 179.256625 80.335993 
L 179.326967 79.850382 
L 180.527611 74.009125 
L 182.115418 68.167868 
L 183.919998 62.326611 
L 188.924482 47.723469 
L 191.188089 41.882212 
L 193.024125 37.593047 
L 195.777625 32.069177 
L 201.893295 21.437813 
M 261.252955 21.437813 
L 258.16469 27.279069 
L 255.548073 33.120326 
L 253.354436 38.961583 
L 251.439207 44.80284 
L 248.944222 53.564726 
L 246.830621 62.326611 
L 245.771913 68.167868 
L 245.118307 74.009125 
L 244.989418 76.929753 
L 245.024063 79.850382 
L 245.340625 83.617429 
L 245.608068 85.691639 
L 246.148898 88.612267 
L 246.84388 91.532896 
L 248.577657 97.374153 
L 259.108125 129.976833 
L 263.526608 144.104208 
L 267.41303 155.786722 
L 270.533382 164.548608 
L 273.875194 173.310493 
L 279.551382 187.913635 
L 281.504727 193.754892 
L 283.052201 199.596149 
L 283.889625 203.935487 
L 284.127437 205.437406 
L 284.468507 208.358035 
L 284.683544 211.278663 
L 284.770053 214.199292 
L 284.726518 217.11992 
L 284.552586 220.040549 
L 283.889625 225.396195 
L 283.819283 225.881806 
L 282.618639 231.723062 
L 281.030832 237.564319 
L 279.226252 243.405576 
L 274.221768 258.008719 
L 271.958161 263.849976 
L 270.122125 268.139141 
L 267.368625 273.66301 
L 261.252955 284.294375 
L 261.252955 284.294375 
" clip-path="url(#pfccfe3d74f)" style="fill: none; stroke: #0050ff"/>
    <path d="M 199.47892 284.294375 
L 202.61714 278.453118 
L 205.330722 272.611861 
L 207.609691 266.770604 
L 209.545125 260.928405 
L 211.309948 255.08809 
L 213.598161 246.326205 
L 214.799461 240.484948 
L 215.632781 234.643691 
L 215.844711 231.723062 
L 215.893682 228.802434 
L 215.766081 225.881806 
L 215.45338 222.961177 
L 214.957071 220.040549 
L 214.298618 217.11992 
L 212.60002 211.278663 
L 203.098011 182.072378 
L 197.545035 164.548608 
L 194.600489 155.786722 
L 191.440405 147.024837 
L 189.177201 141.18358 
L 185.555013 132.421694 
L 180.704019 120.739181 
L 178.625679 114.897924 
L 176.956584 109.056667 
L 176.289527 106.136038 
L 175.748346 103.21541 
L 175.320439 100.294781 
L 175.010106 97.374153 
L 174.821905 94.453524 
L 174.760439 91.532896 
L 174.829954 88.612267 
L 175.033878 85.691639 
L 175.374355 82.77101 
L 175.851801 79.850382 
L 176.503125 76.781235 
L 177.207141 74.009125 
L 179.036544 68.167868 
L 184.763625 53.157724 
L 188.02473 44.80284 
L 190.43875 38.961583 
L 193.122837 33.120326 
L 196.184158 27.279069 
L 199.47892 21.437813 
M 263.66733 21.437813 
L 260.52911 27.279069 
L 257.815528 33.120326 
L 255.536559 38.961583 
L 253.601125 44.803783 
L 251.836302 50.644097 
L 249.548089 59.405983 
L 248.346789 65.24724 
L 247.513469 71.088497 
L 247.301539 74.009125 
L 247.252568 76.929753 
L 247.380169 79.850382 
L 247.69287 82.77101 
L 248.189179 85.691639 
L 248.847632 88.612267 
L 250.54623 94.453524 
L 260.048239 123.659809 
L 265.601215 141.18358 
L 268.545761 149.945465 
L 271.705845 158.707351 
L 273.969049 164.548608 
L 277.591237 173.310493 
L 282.442231 184.993007 
L 284.520571 190.834264 
L 286.189666 196.675521 
L 286.856723 199.596149 
L 287.397904 202.516778 
L 287.825811 205.437406 
L 288.136144 208.358035 
L 288.324345 211.278663 
L 288.385811 214.199292 
L 288.316296 217.11992 
L 288.112372 220.040549 
L 287.771895 222.961177 
L 287.294449 225.881806 
L 286.643125 228.950952 
L 285.939109 231.723062 
L 284.109706 237.564319 
L 278.382625 252.574463 
L 275.12152 260.929347 
L 272.7075 266.770604 
L 270.023413 272.611861 
L 266.962092 278.453118 
L 263.66733 284.294375 
L 263.66733 284.294375 
" clip-path="url(#pfccfe3d74f)" style="fill: none; stroke: #0074ff"/>
    <path d="M 197.269617 284.294375 
L 201.831587 275.53249 
L 204.393792 269.691233 
L 206.557957 263.849976 
L 208.46036 258.008719 
L 210.933689 249.246833 
L 212.298625 243.297559 
L 212.842738 240.484948 
L 213.282678 237.564319 
L 213.58105 234.643691 
L 213.719177 231.723062 
L 213.678643 228.802434 
L 213.446087 225.881806 
L 213.018638 222.961177 
L 212.298625 219.613995 
L 210.755937 214.199292 
L 192.535261 158.707351 
L 189.236659 149.945465 
L 186.852084 144.104208 
L 182.99181 135.342323 
L 179.102707 126.580438 
L 176.503125 119.971332 
L 174.834557 114.897924 
L 173.285201 109.056667 
L 172.154237 103.21541 
L 171.745877 100.294781 
L 171.449828 97.374153 
L 171.272938 94.453524 
L 171.222427 91.532896 
L 171.305182 88.612267 
L 171.527018 85.691639 
L 171.89206 82.77101 
L 172.402313 79.850382 
L 173.057592 76.929753 
L 173.855946 74.009125 
L 174.791478 71.088497 
L 177.024958 65.24724 
L 179.591867 59.405983 
L 186.0556 44.80284 
L 190.270625 35.181037 
L 193.024125 29.406357 
L 197.269617 21.437813 
M 265.876633 21.437813 
L 261.314663 30.199698 
L 258.752458 36.040955 
L 256.588293 41.882212 
L 254.68589 47.723469 
L 252.212561 56.485354 
L 250.847625 62.434628 
L 250.303512 65.24724 
L 249.863572 68.167868 
L 249.5652 71.088497 
L 249.427073 74.009125 
L 249.467607 76.929753 
L 249.700163 79.850382 
L 250.127612 82.77101 
L 250.847625 86.118192 
L 252.390313 91.532896 
L 270.610989 147.024837 
L 273.909591 155.786722 
L 276.294166 161.627979 
L 280.15444 170.389865 
L 284.043543 179.15175 
L 286.643125 185.760855 
L 288.311693 190.834264 
L 289.861049 196.675521 
L 290.992013 202.516778 
L 291.400373 205.437406 
L 291.696422 208.358035 
L 291.873312 211.278663 
L 291.923823 214.199292 
L 291.841068 217.11992 
L 291.619232 220.040549 
L 291.25419 222.961177 
L 290.743937 225.881806 
L 290.088658 228.802434 
L 289.290304 231.723062 
L 288.354772 234.643691 
L 286.121292 240.484948 
L 283.554383 246.326205 
L 277.09065 260.929347 
L 272.875625 270.55115 
L 270.122125 276.325831 
L 265.876633 284.294375 
L 265.876633 284.294375 
" clip-path="url(#pfccfe3d74f)" style="fill: none; stroke: #0098ff"/>
    <path d="M 195.20457 284.294375 
L 201.284625 272.156426 
L 203.510788 266.770604 
L 205.591661 260.929347 
L 207.427772 255.08809 
L 209.051698 249.246833 
L 210.407653 243.405576 
L 210.930082 240.484948 
L 211.319916 237.564319 
L 211.554454 234.643691 
L 211.609263 231.723062 
L 211.464233 228.802434 
L 211.111286 225.881806 
L 210.559838 222.961177 
L 209.545125 219.0268 
L 208.025333 214.199292 
L 200.254785 190.834264 
L 194.56716 173.310493 
L 191.516501 164.548608 
L 189.332341 158.707351 
L 186.99261 152.866094 
L 184.467166 147.024837 
L 175.171613 126.580438 
L 172.994322 120.739181 
L 171.17612 114.897924 
L 169.702315 109.056667 
L 168.588204 103.21541 
L 167.872619 97.374153 
L 167.692707 94.453524 
L 167.649225 91.532896 
L 167.750462 88.612267 
L 168.242625 83.963823 
L 168.403301 82.77101 
L 168.951412 79.850382 
L 169.651775 76.929753 
L 170.996125 72.576597 
L 171.497355 71.088497 
L 172.629109 68.167868 
L 175.264182 62.326611 
L 184.763625 43.332848 
L 189.4217 33.120326 
L 193.024125 25.639484 
L 195.20457 21.437813 
M 267.94168 21.437813 
L 261.861625 33.575762 
L 259.635462 38.961583 
L 257.554589 44.80284 
L 255.718478 50.644097 
L 254.094552 56.485354 
L 252.738597 62.326611 
L 252.216168 65.24724 
L 251.826334 68.167868 
L 251.591796 71.088497 
L 251.536987 74.009125 
L 251.682017 76.929753 
L 252.034964 79.850382 
L 252.586412 82.77101 
L 253.601125 86.705387 
L 255.120917 91.532896 
L 262.891465 114.897924 
L 268.57909 132.421694 
L 271.629749 141.18358 
L 273.813909 147.024837 
L 276.15364 152.866094 
L 278.679084 158.707351 
L 287.974637 179.15175 
L 290.151928 184.993007 
L 291.97013 190.834264 
L 293.443935 196.675521 
L 294.558046 202.516778 
L 295.273631 208.358035 
L 295.453543 211.278663 
L 295.497025 214.199292 
L 295.395788 217.11992 
L 294.903625 221.768365 
L 294.742949 222.961177 
L 294.194838 225.881806 
L 293.494475 228.802434 
L 292.150125 233.15559 
L 291.648895 234.643691 
L 290.517141 237.564319 
L 287.882068 243.405576 
L 278.382625 262.399339 
L 273.72455 272.611861 
L 270.122125 280.092703 
L 267.94168 284.294375 
L 267.94168 284.294375 
" clip-path="url(#pfccfe3d74f)" style="fill: none; stroke: #00bcff"/>
    <path d="M 193.257297 284.294375 
L 198.531125 273.717154 
L 200.341829 269.691233 
L 202.643065 263.849976 
L 204.65018 258.008719 
L 206.791625 250.812054 
L 207.928811 246.326205 
L 208.537916 243.405576 
L 209.025776 240.484948 
L 209.365676 237.564319 
L 209.526196 234.643691 
L 209.478418 231.723062 
L 209.20638 228.802434 
L 208.715681 225.881806 
L 208.034673 222.961177 
L 206.265379 217.11992 
L 197.406103 190.834264 
L 192.551697 176.231122 
L 189.380748 167.469236 
L 187.098622 161.627979 
L 184.626669 155.786722 
L 180.531794 147.024837 
L 174.956631 135.342323 
L 172.458215 129.501066 
L 170.265233 123.659809 
L 168.242625 117.342182 
L 166.753726 111.977295 
L 165.431297 106.136038 
L 164.434649 100.294781 
L 164.118118 97.374153 
L 163.94212 94.453524 
L 163.917963 91.532896 
L 164.05304 88.612267 
L 164.350751 85.691639 
L 164.811351 82.77101 
L 165.489125 79.644583 
L 166.194737 76.929753 
L 167.10932 74.009125 
L 168.242625 70.93369 
L 169.373655 68.167868 
L 172.17422 62.326611 
L 175.395132 56.485354 
L 179.256625 49.819762 
L 183.424883 41.882212 
L 186.257594 36.040955 
L 193.257297 21.437813 
M 269.888953 21.437813 
L 264.615125 32.015033 
L 262.804421 36.040955 
L 260.503185 41.882212 
L 258.49607 47.723469 
L 256.354625 54.920133 
L 255.217439 59.405983 
L 254.608334 62.326611 
L 254.120474 65.24724 
L 253.780574 68.167868 
L 253.620054 71.088497 
L 253.667832 74.009125 
L 253.93987 76.929753 
L 254.430569 79.850382 
L 255.111577 82.77101 
L 256.880871 88.612267 
L 265.740147 114.897924 
L 270.594553 129.501066 
L 273.765502 138.262951 
L 276.047628 144.104208 
L 278.519581 149.945465 
L 282.614456 158.707351 
L 288.189619 170.389865 
L 290.688035 176.231122 
L 292.881017 182.072378 
L 294.903625 188.390005 
L 296.392524 193.754892 
L 297.714953 199.596149 
L 298.711601 205.437406 
L 299.028132 208.358035 
L 299.20413 211.278663 
L 299.228287 214.199292 
L 299.09321 217.11992 
L 298.795499 220.040549 
L 298.334899 222.961177 
L 297.657125 226.087605 
L 296.951513 228.802434 
L 296.03693 231.723062 
L 294.903625 234.798497 
L 293.772595 237.564319 
L 290.97203 243.405576 
L 287.751118 249.246833 
L 283.889625 255.912426 
L 279.721367 263.849976 
L 276.888656 269.691233 
L 269.888953 284.294375 
L 269.888953 284.294375 
" clip-path="url(#pfccfe3d74f)" style="fill: none; stroke: #00e0fb"/>
    <path d="M 191.382419 284.294375 
L 198.531125 269.23934 
L 200.696279 263.849976 
L 202.760679 258.008719 
L 204.578662 252.167462 
L 206.06978 246.326205 
L 206.791625 242.553481 
L 207.098082 240.484948 
L 207.352389 237.564319 
L 207.406197 234.643691 
L 207.239562 231.723062 
L 206.791625 228.519367 
L 206.20963 225.881806 
L 204.479009 220.040549 
L 202.430206 214.199292 
L 196.369807 196.675521 
L 193.024125 186.665983 
L 188.218916 173.310493 
L 187.086493 170.389865 
L 184.679215 164.548608 
L 180.64274 155.786722 
L 170.904906 135.342323 
L 168.242625 128.621193 
L 166.478483 123.659809 
L 163.737904 114.897924 
L 162.166878 109.056667 
L 160.892023 103.21541 
L 160.434446 100.294781 
L 160.122313 97.374153 
L 159.970058 94.453524 
L 159.987898 91.532896 
L 160.178576 88.612267 
L 160.541613 85.691639 
L 161.073574 82.77101 
L 161.770344 79.850382 
L 162.735625 76.627123 
L 163.62226 74.009125 
L 165.489125 69.481086 
L 166.054068 68.167868 
L 168.242625 63.819255 
L 169.018848 62.326611 
L 172.445844 56.485354 
L 177.937708 47.723469 
L 179.695042 44.80284 
L 182.90356 38.961583 
L 185.829856 33.120326 
L 191.382419 21.437813 
M 271.763831 21.437813 
L 264.615125 36.492848 
L 262.449971 41.882212 
L 260.385571 47.723469 
L 258.567588 53.564726 
L 257.07647 59.405983 
L 256.354625 63.178707 
L 256.048168 65.24724 
L 255.793861 68.167868 
L 255.740053 71.088497 
L 255.906688 74.009125 
L 256.354625 77.212821 
L 256.93662 79.850382 
L 258.667241 85.691639 
L 260.716044 91.532896 
L 266.776443 109.056667 
L 270.122125 119.066204 
L 274.927334 132.421694 
L 276.059757 135.342323 
L 278.467035 141.18358 
L 282.50351 149.945465 
L 292.241344 170.389865 
L 294.903625 177.110995 
L 296.667767 182.072378 
L 299.408346 190.834264 
L 300.979372 196.675521 
L 302.254227 202.516778 
L 302.711804 205.437406 
L 303.023937 208.358035 
L 303.176192 211.278663 
L 303.158352 214.199292 
L 302.967674 217.11992 
L 302.604637 220.040549 
L 302.072676 222.961177 
L 301.375906 225.881806 
L 300.410625 229.105065 
L 299.52399 231.723062 
L 297.657125 236.251101 
L 297.092182 237.564319 
L 294.903625 241.912933 
L 294.127402 243.405576 
L 290.700406 249.246833 
L 285.208542 258.008719 
L 283.451208 260.929347 
L 280.24269 266.770604 
L 277.316394 272.611861 
L 271.763831 284.294375 
L 271.763831 284.294375 
" clip-path="url(#pfccfe3d74f)" style="fill: none; stroke: #19ffde"/>
    <path d="M 189.514949 284.294375 
L 197.538311 266.770604 
L 199.805688 260.929347 
L 201.806481 255.08809 
L 203.481238 249.246833 
L 204.176361 246.326205 
L 204.702428 243.405576 
L 205.062852 240.484948 
L 205.224484 237.564319 
L 205.157927 234.643691 
L 204.849165 231.723062 
L 204.038125 227.700755 
L 203.53628 225.881806 
L 201.284625 219.146648 
L 197.290987 208.358035 
L 186.887595 179.15175 
L 184.54135 173.310493 
L 180.600587 164.548608 
L 177.753251 158.707351 
L 170.591668 144.104208 
L 168.026451 138.262951 
L 165.489125 131.872028 
L 163.548327 126.580438 
L 159.670354 114.897924 
L 157.959359 109.056667 
L 157.228625 106.06526 
L 156.644881 103.21541 
L 156.202186 100.294781 
L 155.930167 97.374153 
L 155.836666 94.453524 
L 155.923278 91.532896 
L 156.187256 88.612267 
L 156.623677 85.691639 
L 157.228625 82.766523 
L 157.997146 79.850382 
L 158.926351 76.929753 
L 160.013889 74.009125 
L 161.238355 71.088497 
L 164.122563 65.24724 
L 167.524509 59.405983 
L 173.749625 50.068463 
L 179.256625 41.656818 
L 182.44213 36.040955 
L 185.409884 30.199698 
L 189.514949 21.437813 
M 273.631301 21.437813 
L 265.607939 38.961583 
L 263.340562 44.80284 
L 261.339769 50.644097 
L 259.665012 56.485354 
L 258.969889 59.405983 
L 258.443822 62.326611 
L 258.083398 65.24724 
L 257.921766 68.167868 
L 257.988323 71.088497 
L 258.297085 74.009125 
L 259.108125 78.031432 
L 259.60997 79.850382 
L 261.861625 86.585539 
L 265.855263 97.374153 
L 276.258655 126.580438 
L 278.6049 132.421694 
L 282.545663 141.18358 
L 285.392999 147.024837 
L 292.554582 161.627979 
L 295.119799 167.469236 
L 297.657125 173.86016 
L 299.597923 179.15175 
L 303.475896 190.834264 
L 305.186891 196.675521 
L 305.917625 199.666927 
L 306.501369 202.516778 
L 306.944064 205.437406 
L 307.216083 208.358035 
L 307.309584 211.278663 
L 307.222972 214.199292 
L 306.958994 217.11992 
L 306.522573 220.040549 
L 305.917625 222.965664 
L 305.149104 225.881806 
L 304.219899 228.802434 
L 303.132361 231.723062 
L 301.907895 234.643691 
L 299.023687 240.484948 
L 295.621741 246.326205 
L 289.396625 255.663725 
L 283.889625 264.075369 
L 280.70412 269.691233 
L 277.736366 275.53249 
L 273.631301 284.294375 
L 273.631301 284.294375 
" clip-path="url(#pfccfe3d74f)" style="fill: none; stroke: #33ffc4"/>
    <path d="M 187.643879 284.294375 
L 196.644465 263.849976 
L 198.846074 258.008719 
L 200.712744 252.167462 
L 201.511845 249.246833 
L 202.140824 246.326205 
L 202.614994 243.405576 
L 202.894257 240.484948 
L 202.938839 237.564319 
L 202.723105 234.643691 
L 202.249047 231.723062 
L 201.284625 227.890934 
L 199.581917 222.961177 
L 197.326997 217.11992 
L 191.796684 202.516778 
L 187.517125 190.662244 
L 184.154065 182.072378 
L 181.668524 176.231122 
L 177.532893 167.469236 
L 173.127451 158.707351 
L 168.837833 149.945465 
L 166.202375 144.104208 
L 163.769377 138.262951 
L 159.982125 128.242646 
L 157.228625 120.553016 
L 155.291585 114.897924 
L 153.572107 109.056667 
L 152.890874 106.136038 
L 152.359749 103.21541 
L 151.994574 100.294781 
L 151.803794 97.374153 
L 151.789251 94.453524 
L 151.94809 91.532896 
L 152.274957 88.612267 
L 152.763943 85.691639 
L 153.41009 82.77101 
L 154.475125 79.045899 
L 155.180531 76.929753 
L 157.228625 71.936309 
L 157.599602 71.088497 
L 159.982125 66.471986 
L 160.639295 65.24724 
L 164.228861 59.405983 
L 168.271085 53.564726 
L 176.663183 41.882212 
L 180.315099 36.040955 
L 182.010125 33.09146 
L 184.951421 27.279069 
L 187.643879 21.437813 
M 275.502371 21.437813 
L 266.501785 41.882212 
L 264.300176 47.723469 
L 262.433506 53.564726 
L 261.634405 56.485354 
L 261.005426 59.405983 
L 260.531256 62.326611 
L 260.251993 65.24724 
L 260.207411 68.167868 
L 260.423145 71.088497 
L 260.897203 74.009125 
L 261.861625 77.841253 
L 263.564333 82.77101 
L 265.819253 88.612267 
L 271.349566 103.21541 
L 275.629125 115.069944 
L 278.992185 123.659809 
L 281.477726 129.501066 
L 285.613357 138.262951 
L 290.018799 147.024837 
L 294.308417 155.786722 
L 296.943875 161.627979 
L 299.376873 167.469236 
L 303.164125 177.489541 
L 305.917625 185.179171 
L 307.854665 190.834264 
L 309.574143 196.675521 
L 310.255376 199.596149 
L 310.786501 202.516778 
L 311.151676 205.437406 
L 311.342456 208.358035 
L 311.356999 211.278663 
L 311.19816 214.199292 
L 310.871293 217.11992 
L 310.382307 220.040549 
L 309.73616 222.961177 
L 308.671125 226.686289 
L 307.965719 228.802434 
L 305.917625 233.795879 
L 305.546648 234.643691 
L 303.164125 239.260202 
L 302.506955 240.484948 
L 298.917389 246.326205 
L 294.875165 252.167462 
L 286.483067 263.849976 
L 282.831151 269.691233 
L 281.136125 272.640728 
L 278.194829 278.453118 
L 275.502371 284.294375 
L 275.502371 284.294375 
" clip-path="url(#pfccfe3d74f)" style="fill: none; stroke: #50ffa7"/>
    <path d="M 185.685306 284.294375 
L 193.2606 266.770604 
L 195.777625 260.542298 
L 197.689801 255.08809 
L 198.617356 252.167462 
L 199.352771 249.246833 
L 199.946459 246.326205 
L 200.352264 243.405576 
L 200.520417 240.484948 
L 200.412253 237.564319 
L 200.01706 234.643691 
L 199.360887 231.723062 
L 198.497332 228.802434 
L 195.777625 221.779622 
L 192.586171 214.199292 
L 189.103326 205.437406 
L 183.500273 190.834264 
L 181.075417 184.993007 
L 178.45411 179.15175 
L 174.175983 170.389865 
L 165.489125 152.843249 
L 162.735625 146.647963 
L 159.982125 139.943664 
L 157.093344 132.421694 
L 152.805559 120.739181 
L 150.865594 114.897924 
L 150.029879 111.977295 
L 148.968125 107.354776 
L 148.743438 106.136038 
L 148.34392 103.21541 
L 148.096198 100.294781 
L 148.001526 97.374153 
L 148.057846 94.453524 
L 148.26136 91.532896 
L 148.968125 86.454691 
L 149.102188 85.691639 
L 149.764268 82.77101 
L 150.568244 79.850382 
L 151.721625 76.380114 
L 152.643926 74.009125 
L 154.475125 69.998894 
L 155.396602 68.167868 
L 157.228625 64.932736 
L 159.982125 60.614887 
L 160.774074 59.405983 
L 165.489125 52.968294 
L 176.503125 38.36388 
L 179.812663 33.120326 
L 182.010125 29.187055 
L 184.763625 23.519873 
L 185.685306 21.437813 
M 277.460944 21.437813 
L 269.88565 38.961583 
L 267.368625 45.18989 
L 265.456449 50.644097 
L 264.528894 53.564726 
L 263.793479 56.485354 
L 263.199791 59.405983 
L 262.793986 62.326611 
L 262.625833 65.24724 
L 262.733997 68.167868 
L 263.12919 71.088497 
L 263.785363 74.009125 
L 264.648918 76.929753 
L 267.368625 83.952565 
L 270.560079 91.532896 
L 274.042924 100.294781 
L 279.645977 114.897924 
L 282.070833 120.739181 
L 284.69214 126.580438 
L 288.970267 135.342323 
L 297.657125 152.888938 
L 300.410625 159.084225 
L 303.164125 165.788524 
L 306.052906 173.310493 
L 310.340691 184.993007 
L 312.280656 190.834264 
L 313.116371 193.754892 
L 314.178125 198.377411 
L 314.402812 199.596149 
L 314.80233 202.516778 
L 315.050052 205.437406 
L 315.144724 208.358035 
L 315.088404 211.278663 
L 314.88489 214.199292 
L 314.178125 219.277496 
L 314.044062 220.040549 
L 313.381982 222.961177 
L 312.578006 225.881806 
L 311.424625 229.352074 
L 310.502324 231.723062 
L 308.671125 235.733293 
L 307.749648 237.564319 
L 305.917625 240.799452 
L 303.164125 245.117301 
L 302.372176 246.326205 
L 297.657125 252.763893 
L 286.643125 267.368307 
L 283.333587 272.611861 
L 281.136125 276.545133 
L 278.382625 282.212314 
L 277.460944 284.294375 
L 277.460944 284.294375 
" clip-path="url(#pfccfe3d74f)" style="fill: none; stroke: #6dff8a"/>
    <path d="M 183.623153 284.294375 
L 186.079946 278.453118 
L 193.26772 260.929347 
L 195.777625 253.829014 
L 196.263286 252.167462 
L 196.976691 249.246833 
L 197.514148 246.326205 
L 197.817206 243.405576 
L 197.8343 240.484948 
L 197.53917 237.564319 
L 196.944226 234.643691 
L 195.777625 230.789311 
L 193.774644 225.881806 
L 192.472049 222.961177 
L 188.534538 214.199292 
L 183.790672 202.516778 
L 180.245587 193.754892 
L 177.703623 187.913635 
L 174.970459 182.072378 
L 170.586134 173.310493 
L 164.673619 161.627979 
L 161.894725 155.786722 
L 159.299812 149.945465 
L 156.892159 144.104208 
L 153.545076 135.342323 
L 149.3598 123.659809 
L 148.394324 120.739181 
L 146.680157 114.897924 
L 145.979284 111.977295 
L 145.424766 109.056667 
L 144.997582 106.136038 
L 144.704466 103.21541 
L 144.547782 100.294781 
L 144.526683 97.374153 
L 144.638401 94.453524 
L 144.87942 91.532896 
L 145.246453 88.612267 
L 146.214625 83.422155 
L 146.359742 82.77101 
L 147.143978 79.850382 
L 148.058919 76.929753 
L 149.116845 74.009125 
L 150.369385 71.088497 
L 151.776423 68.167868 
L 154.475125 63.477855 
L 155.18829 62.326611 
L 157.228625 59.329506 
L 161.567867 53.564726 
L 171.07675 41.882212 
L 175.449453 36.040955 
L 177.417665 33.120326 
L 179.256625 30.182804 
L 182.307174 24.358441 
L 183.623153 21.437813 
M 279.523097 21.437813 
L 277.066304 27.279069 
L 269.87853 44.80284 
L 267.368625 51.903174 
L 266.882964 53.564726 
L 266.169559 56.485354 
L 265.632102 59.405983 
L 265.329044 62.326611 
L 265.31195 65.24724 
L 265.60708 68.167868 
L 266.202024 71.088497 
L 267.368625 74.942876 
L 269.371606 79.850382 
L 270.674201 82.77101 
L 274.611712 91.532896 
L 279.355578 103.21541 
L 282.900663 111.977295 
L 285.442627 117.818552 
L 288.175791 123.659809 
L 292.560116 132.421694 
L 298.472631 144.104208 
L 301.251525 149.945465 
L 303.846438 155.786722 
L 306.254091 161.627979 
L 309.601174 170.389865 
L 313.78645 182.072378 
L 314.751926 184.993007 
L 316.466093 190.834264 
L 317.166966 193.754892 
L 317.721484 196.675521 
L 318.148668 199.596149 
L 318.441784 202.516778 
L 318.598468 205.437406 
L 318.619567 208.358035 
L 318.507849 211.278663 
L 318.26683 214.199292 
L 317.899797 217.11992 
L 316.931625 222.310033 
L 316.786508 222.961177 
L 316.002272 225.881806 
L 315.087331 228.802434 
L 314.029405 231.723062 
L 312.776865 234.643691 
L 311.369827 237.564319 
L 308.671125 242.254332 
L 307.95796 243.405576 
L 305.917625 246.402681 
L 301.578383 252.167462 
L 292.0695 263.849976 
L 287.696797 269.691233 
L 285.728585 272.611861 
L 283.889625 275.549384 
L 280.839076 281.373747 
L 279.523097 284.294375 
L 279.523097 284.294375 
" clip-path="url(#pfccfe3d74f)" style="fill: none; stroke: #8aff6d"/>
    <path d="M 181.406122 284.294375 
L 182.657799 281.373747 
L 190.654174 260.929347 
L 193.024125 254.274156 
L 193.624546 252.167462 
L 194.290249 249.246833 
L 194.734709 246.326205 
L 194.894366 243.405576 
L 194.725969 240.484948 
L 194.222994 237.564319 
L 193.024125 233.502511 
L 192.326165 231.723062 
L 189.64699 225.881806 
L 185.439496 217.11992 
L 181.689106 208.358035 
L 176.503125 195.967273 
L 172.777389 187.913635 
L 168.242625 178.898553 
L 160.841622 164.548608 
L 157.228625 156.942773 
L 155.43403 152.866094 
L 153.073296 147.024837 
L 150.910999 141.18358 
L 147.904017 132.421694 
L 145.126788 123.659809 
L 143.461125 117.559757 
L 142.334656 111.977295 
L 141.8993 109.056667 
L 141.579779 106.136038 
L 141.379643 103.21541 
L 141.299397 100.294781 
L 141.337513 97.374153 
L 141.491407 94.453524 
L 142.135778 88.612267 
L 143.218675 82.77101 
L 143.954383 79.850382 
L 144.823828 76.929753 
L 146.214625 72.973732 
L 146.982159 71.088497 
L 148.968125 66.876079 
L 149.836103 65.24724 
L 151.721625 62.068627 
L 154.475125 58.053322 
L 157.228625 54.460062 
L 160.365538 50.644097 
L 170.287712 38.961583 
L 172.587759 36.040955 
L 174.739343 33.120326 
L 176.728349 30.199698 
L 179.256625 25.860191 
L 181.406122 21.437813 
M 281.740128 21.437813 
L 280.488451 24.358441 
L 272.492076 44.80284 
L 270.122125 51.458032 
L 269.521704 53.564726 
L 268.856001 56.485354 
L 268.411541 59.405983 
L 268.251884 62.326611 
L 268.420281 65.24724 
L 268.923256 68.167868 
L 270.122125 72.229677 
L 270.820085 74.009125 
L 273.49926 79.850382 
L 277.706754 88.612267 
L 281.457144 97.374153 
L 286.643125 109.764914 
L 290.368861 117.818552 
L 294.903625 126.833634 
L 302.304628 141.18358 
L 305.917625 148.789414 
L 307.71222 152.866094 
L 310.072954 158.707351 
L 312.235251 164.548608 
L 315.242233 173.310493 
L 318.019462 182.072378 
L 319.685125 188.17243 
L 320.811594 193.754892 
L 321.24695 196.675521 
L 321.566471 199.596149 
L 321.766607 202.516778 
L 321.846853 205.437406 
L 321.808737 208.358035 
L 321.654843 211.278663 
L 321.010472 217.11992 
L 319.927575 222.961177 
L 319.191867 225.881806 
L 318.322422 228.802434 
L 316.931625 232.758456 
L 316.164091 234.643691 
L 314.178125 238.856109 
L 313.310147 240.484948 
L 311.424625 243.66356 
L 308.671125 247.678866 
L 305.917625 251.272125 
L 302.780712 255.08809 
L 292.858538 266.770604 
L 290.558491 269.691233 
L 288.406907 272.611861 
L 286.417901 275.53249 
L 283.889625 279.871996 
L 281.740128 284.294375 
L 281.740128 284.294375 
" clip-path="url(#pfccfe3d74f)" style="fill: none; stroke: #a7ff50"/>
    <path d="M 178.93845 284.294375 
L 180.193258 281.373747 
L 182.41265 275.53249 
L 185.530622 266.770604 
L 188.802993 258.008719 
L 190.270625 253.457298 
L 190.622323 252.167462 
L 191.203046 249.246833 
L 191.515806 246.326205 
L 191.499716 243.405576 
L 191.125743 240.484948 
L 190.270625 237.154721 
L 189.328559 234.643691 
L 187.517125 230.662589 
L 182.010125 219.595181 
L 179.256625 213.358412 
L 173.349798 199.596149 
L 170.613269 193.754892 
L 167.686218 187.913635 
L 162.735625 178.588433 
L 157.228625 168.28668 
L 155.333179 164.548608 
L 152.614021 158.707351 
L 150.215845 152.866094 
L 148.107179 147.024837 
L 145.312383 138.262951 
L 142.761734 129.501066 
L 140.707625 121.545742 
L 139.928691 117.818552 
L 138.980719 111.977295 
L 138.423448 106.136038 
L 138.283877 100.294781 
L 138.556408 94.453524 
L 139.225436 88.612267 
L 140.283002 82.77101 
L 140.973529 79.850382 
L 142.725944 74.009125 
L 143.795359 71.088497 
L 146.214625 65.685569 
L 146.435101 65.24724 
L 148.968125 60.81532 
L 149.869062 59.405983 
L 151.90755 56.485354 
L 154.475125 53.189335 
L 159.154058 47.723469 
L 165.489125 40.616914 
L 170.996125 34.04717 
L 173.873622 30.199698 
L 176.503125 26.080712 
L 178.93845 21.437813 
M 284.2078 21.437813 
L 282.952992 24.358441 
L 280.7336 30.199698 
L 277.615628 38.961583 
L 274.343257 47.723469 
L 272.875625 52.27489 
L 272.523927 53.564726 
L 271.943204 56.485354 
L 271.630444 59.405983 
L 271.646534 62.326611 
L 272.020507 65.24724 
L 272.875625 68.577466 
L 273.817691 71.088497 
L 275.629125 75.069599 
L 281.136125 86.137006 
L 283.889625 92.373775 
L 289.796452 106.136038 
L 292.532981 111.977295 
L 295.460032 117.818552 
L 300.410625 127.143755 
L 305.917625 137.445508 
L 307.813071 141.18358 
L 310.532229 147.024837 
L 312.930405 152.866094 
L 315.039071 158.707351 
L 317.833867 167.469236 
L 320.384516 176.231122 
L 322.438625 184.186446 
L 323.217559 187.913635 
L 324.165531 193.754892 
L 324.722802 199.596149 
L 324.862373 205.437406 
L 324.589842 211.278663 
L 323.920814 217.11992 
L 322.863248 222.961177 
L 322.172721 225.881806 
L 320.420306 231.723062 
L 319.350891 234.643691 
L 316.931625 240.046619 
L 316.711149 240.484948 
L 314.178125 244.916867 
L 313.277188 246.326205 
L 311.2387 249.246833 
L 308.671125 252.542853 
L 303.992192 258.008719 
L 297.657125 265.115274 
L 292.150125 271.685018 
L 289.272628 275.53249 
L 286.643125 279.651476 
L 284.2078 284.294375 
L 284.2078 284.294375 
" clip-path="url(#pfccfe3d74f)" style="fill: none; stroke: #c4ff33"/>
    <path d="M 176.076482 284.294375 
L 177.397623 281.373747 
L 179.256625 276.518739 
L 186.430931 255.08809 
L 187.187627 252.167462 
L 187.675534 249.246833 
L 187.826058 246.326205 
L 187.517125 242.904491 
L 186.991416 240.484948 
L 186.007561 237.564319 
L 184.758905 234.643691 
L 177.67196 220.040549 
L 168.576947 199.596149 
L 165.489125 193.504268 
L 160.811365 184.993007 
L 151.721625 168.683398 
L 149.719713 164.548608 
L 148.437354 161.627979 
L 146.173331 155.786722 
L 144.272275 149.945465 
L 142.593093 144.104208 
L 140.30276 135.342323 
L 137.954125 125.327064 
L 137.064936 120.739181 
L 136.168641 114.897924 
L 135.600767 109.056667 
L 135.395625 103.21541 
L 135.556488 97.374153 
L 136.072807 91.532896 
L 136.935496 85.691639 
L 138.156338 79.850382 
L 139.804812 74.009125 
L 140.792062 71.088497 
L 141.943008 68.167868 
L 143.461125 64.75879 
L 144.70828 62.326611 
L 146.368833 59.405983 
L 148.968125 55.4848 
L 151.721625 51.867887 
L 155.236145 47.723469 
L 168.244031 33.120326 
L 170.996125 29.596033 
L 173.749625 25.575784 
L 174.477887 24.358441 
L 176.076482 21.437813 
M 287.069768 21.437813 
L 285.748627 24.358441 
L 283.889625 29.213449 
L 276.715319 50.644097 
L 275.958623 53.564726 
L 275.470716 56.485354 
L 275.320192 59.405983 
L 275.629125 62.827696 
L 276.154834 65.24724 
L 277.138689 68.167868 
L 278.387345 71.088497 
L 285.47429 85.691639 
L 294.569303 106.136038 
L 297.657125 112.22792 
L 302.334885 120.739181 
L 311.424625 137.048789 
L 313.426537 141.18358 
L 314.708896 144.104208 
L 316.972919 149.945465 
L 318.873975 155.786722 
L 320.553157 161.627979 
L 322.84349 170.389865 
L 325.192125 180.405124 
L 326.081314 184.993007 
L 326.977609 190.834264 
L 327.545483 196.675521 
L 327.750625 202.516778 
L 327.589762 208.358035 
L 327.073443 214.199292 
L 326.210754 220.040549 
L 324.989912 225.881806 
L 323.341438 231.723062 
L 322.354188 234.643691 
L 321.203242 237.564319 
L 319.685125 240.973397 
L 318.43797 243.405576 
L 316.777417 246.326205 
L 314.178125 250.247387 
L 311.424625 253.8643 
L 307.910105 258.008719 
L 294.902219 272.611861 
L 292.150125 276.136154 
L 289.396625 280.156404 
L 288.668363 281.373747 
L 287.069768 284.294375 
L 287.069768 284.294375 
" clip-path="url(#pfccfe3d74f)" style="fill: none; stroke: #deff19"/>
    <path d="M 172.645084 284.294375 
L 174.115186 281.373747 
L 176.336572 275.53249 
L 177.219278 272.611861 
L 179.943572 263.849976 
L 182.010125 257.514537 
L 182.686036 255.08809 
L 183.30931 252.167462 
L 183.646845 249.246833 
L 183.618841 246.326205 
L 183.18886 243.405576 
L 182.010125 239.516316 
L 181.246584 237.564319 
L 177.157728 228.802434 
L 174.542294 222.961177 
L 168.113163 208.358035 
L 165.243059 202.516778 
L 162.111014 196.675521 
L 158.730682 190.834264 
L 148.345267 173.310493 
L 146.214625 168.991003 
L 144.327633 164.548608 
L 143.228709 161.627979 
L 141.355749 155.786722 
L 139.77338 149.945465 
L 137.70313 141.18358 
L 135.200625 129.207173 
L 134.22139 123.659809 
L 133.392067 117.818552 
L 132.836802 111.977295 
L 132.594707 106.136038 
L 132.677031 100.294781 
L 133.079005 94.453524 
L 133.792432 88.612267 
L 134.816047 82.77101 
L 136.188214 76.929753 
L 137.954125 71.033928 
L 138.998749 68.167868 
L 140.707625 64.064506 
L 141.52799 62.326611 
L 143.461125 58.658698 
L 146.214625 54.252868 
L 148.845447 50.644097 
L 151.216077 47.723469 
L 154.475125 43.989068 
L 164.223044 33.120326 
L 168.242625 28.167078 
L 170.996125 24.294351 
L 172.645084 21.437813 
M 290.501166 21.437813 
L 289.031064 24.358441 
L 286.809678 30.199698 
L 285.926972 33.120326 
L 283.202678 41.882212 
L 281.136125 48.21765 
L 280.460214 50.644097 
L 279.83694 53.564726 
L 279.499405 56.485354 
L 279.527409 59.405983 
L 279.95739 62.326611 
L 281.136125 66.215872 
L 281.899666 68.167868 
L 285.988522 76.929753 
L 288.603956 82.77101 
L 295.033087 97.374153 
L 297.903191 103.21541 
L 301.035236 109.056667 
L 304.415568 114.897924 
L 314.800983 132.421694 
L 316.931625 136.741184 
L 318.818617 141.18358 
L 319.917541 144.104208 
L 321.790501 149.945465 
L 323.37287 155.786722 
L 325.44312 164.548608 
L 327.945625 176.525015 
L 328.92486 182.072378 
L 329.754183 187.913635 
L 330.309448 193.754892 
L 330.551543 199.596149 
L 330.469219 205.437406 
L 330.067245 211.278663 
L 329.353818 217.11992 
L 328.330203 222.961177 
L 326.958036 228.802434 
L 325.192125 234.698259 
L 324.147501 237.564319 
L 322.438625 241.667682 
L 321.61826 243.405576 
L 319.685125 247.07349 
L 316.931625 251.479319 
L 314.300803 255.08809 
L 311.930173 258.008719 
L 308.671125 261.743119 
L 298.923206 272.611861 
L 294.903625 277.565109 
L 292.150125 281.437836 
L 290.501166 284.294375 
L 290.501166 284.294375 
" clip-path="url(#pfccfe3d74f)" style="fill: none; stroke: #fbf100"/>
    <path d="M 168.48513 284.294375 
L 170.038715 281.373747 
L 171.348931 278.453118 
L 173.33093 272.611861 
L 177.77848 258.008719 
L 178.525004 255.08809 
L 179.039231 252.167462 
L 179.220733 249.246833 
L 179.012072 246.326205 
L 178.420055 243.405576 
L 177.511895 240.484948 
L 175.176881 234.643691 
L 166.387863 214.199292 
L 163.514146 208.358035 
L 161.961373 205.437406 
L 158.611471 199.596149 
L 154.968186 193.754892 
L 151.145318 187.913635 
L 147.437834 182.072378 
L 145.733318 179.15175 
L 143.461125 174.803951 
L 141.497462 170.389865 
L 140.362644 167.469236 
L 138.453761 161.627979 
L 137.633784 158.707351 
L 136.208649 152.866094 
L 134.377991 144.104208 
L 132.247153 132.421694 
L 130.929295 123.659809 
L 130.287299 117.818552 
L 129.897111 111.977295 
L 129.78743 106.136038 
L 129.966503 100.294781 
L 130.430875 94.453524 
L 131.174726 88.612267 
L 132.198171 82.77101 
L 133.524367 76.929753 
L 135.200625 71.021573 
L 137.256849 65.24724 
L 138.4817 62.326611 
L 140.707625 57.7498 
L 141.4005 56.485354 
L 143.461125 53.033928 
L 146.214625 49.032657 
L 149.545226 44.80284 
L 154.608157 38.961583 
L 159.982125 32.813355 
L 164.466558 27.279069 
L 166.587156 24.358441 
L 168.48513 21.437813 
M 294.66112 21.437813 
L 293.107535 24.358441 
L 291.797319 27.279069 
L 289.81532 33.120326 
L 285.36777 47.723469 
L 284.621246 50.644097 
L 284.107019 53.564726 
L 283.925517 56.485354 
L 284.134178 59.405983 
L 284.726195 62.326611 
L 285.634355 65.24724 
L 287.969369 71.088497 
L 296.758387 91.532896 
L 299.632104 97.374153 
L 301.184877 100.294781 
L 304.534779 106.136038 
L 308.178064 111.977295 
L 312.000932 117.818552 
L 315.708416 123.659809 
L 317.412932 126.580438 
L 319.685125 130.928236 
L 321.648788 135.342323 
L 322.783606 138.262951 
L 324.692489 144.104208 
L 325.512466 147.024837 
L 326.937601 152.866094 
L 328.768259 161.627979 
L 330.899097 173.310493 
L 332.216955 182.072378 
L 332.858951 187.913635 
L 333.249139 193.754892 
L 333.35882 199.596149 
L 333.179747 205.437406 
L 332.715375 211.278663 
L 331.971524 217.11992 
L 330.948079 222.961177 
L 329.621883 228.802434 
L 327.945625 234.710615 
L 325.889401 240.484948 
L 324.66455 243.405576 
L 322.438625 247.982387 
L 321.74575 249.246833 
L 319.685125 252.698259 
L 316.931625 256.69953 
L 313.601024 260.929347 
L 308.538093 266.770604 
L 303.164125 272.918833 
L 298.679692 278.453118 
L 296.559094 281.373747 
L 294.66112 284.294375 
L 294.66112 284.294375 
" clip-path="url(#pfccfe3d74f)" style="fill: none; stroke: #ffd000"/>
    <path d="M 163.316787 284.294375 
L 165.489125 280.369819 
L 166.383671 278.453118 
L 168.242625 273.672758 
L 172.371198 260.929347 
L 173.234877 258.008719 
L 173.91705 255.08809 
L 174.315605 252.167462 
L 174.385444 249.246833 
L 174.100617 246.326205 
L 173.496483 243.405576 
L 172.662678 240.484948 
L 170.628112 234.643691 
L 168.242625 228.398603 
L 165.489125 221.762111 
L 162.735625 215.858965 
L 159.982125 210.622604 
L 156.929533 205.437406 
L 153.124687 199.596149 
L 143.314805 184.993007 
L 140.707625 180.264995 
L 138.81713 176.231122 
L 137.615454 173.310493 
L 135.605112 167.469236 
L 134.753638 164.548608 
L 133.293054 158.707351 
L 132.060076 152.866094 
L 130.485547 144.104208 
L 129.109075 135.342323 
L 127.957565 126.580438 
L 127.390919 120.739181 
L 127.037735 114.897924 
L 126.940125 108.212028 
L 127.075322 103.21541 
L 127.481024 97.374153 
L 128.141068 91.532896 
L 129.052767 85.691639 
L 130.217364 79.850382 
L 131.649608 74.009125 
L 133.398297 68.167868 
L 135.528426 62.326611 
L 137.954125 56.880135 
L 139.689996 53.564726 
L 141.396703 50.644097 
L 143.461125 47.454 
L 146.214625 43.629375 
L 151.721625 36.772674 
L 154.750005 33.120326 
L 159.3171 27.279069 
L 162.735625 22.335442 
L 163.316787 21.437813 
M 299.829463 21.437813 
L 297.657125 25.362369 
L 296.762579 27.279069 
L 294.903625 32.05943 
L 290.775052 44.80284 
L 289.911373 47.723469 
L 289.2292 50.644097 
L 288.830645 53.564726 
L 288.760806 56.485354 
L 289.045633 59.405983 
L 289.649767 62.326611 
L 290.483572 65.24724 
L 292.518138 71.088497 
L 294.903625 77.333584 
L 297.657125 83.970076 
L 300.410625 89.873223 
L 303.164125 95.109583 
L 306.216717 100.294781 
L 310.021563 106.136038 
L 319.831445 120.739181 
L 322.438625 125.467192 
L 324.32912 129.501066 
L 325.530796 132.421694 
L 327.541138 138.262951 
L 328.392612 141.18358 
L 329.853196 147.024837 
L 331.086174 152.866094 
L 332.660703 161.627979 
L 334.037175 170.389865 
L 335.188685 179.15175 
L 335.755331 184.993007 
L 336.108515 190.834264 
L 336.206125 197.520159 
L 336.070928 202.516778 
L 335.665226 208.358035 
L 335.005182 214.199292 
L 334.093483 220.040549 
L 332.928886 225.881806 
L 331.496642 231.723062 
L 329.747953 237.564319 
L 327.617824 243.405576 
L 325.192125 248.852053 
L 323.456254 252.167462 
L 321.749547 255.08809 
L 319.685125 258.278187 
L 316.931625 262.102812 
L 311.424625 268.959514 
L 308.396245 272.611861 
L 303.82915 278.453118 
L 300.410625 283.396745 
L 299.829463 284.294375 
L 299.829463 284.294375 
" clip-path="url(#pfccfe3d74f)" style="fill: none; stroke: #ffae00"/>
    <path d="M 157.28108 284.294375 
L 159.982125 279.234586 
L 160.36796 278.453118 
L 162.876931 272.611861 
L 167.244095 260.929347 
L 168.242625 257.645493 
L 168.832824 255.08809 
L 169.234957 252.167462 
L 169.321772 249.246833 
L 169.101408 246.326205 
L 168.62199 243.405576 
L 167.145466 237.564319 
L 165.232167 231.723062 
L 162.735625 225.365054 
L 159.982125 219.474936 
L 157.099664 214.199292 
L 153.419007 208.358035 
L 149.33006 202.516778 
L 141.095298 190.834264 
L 139.329474 187.913635 
L 137.715958 184.993007 
L 135.200625 179.658994 
L 133.836031 176.231122 
L 131.879927 170.389865 
L 130.303427 164.548608 
L 128.999817 158.707351 
L 127.902536 152.866094 
L 126.52401 144.104208 
L 125.369651 135.342323 
L 124.496046 126.580438 
L 124.1111 120.739181 
L 123.918015 114.897924 
L 123.957292 109.056667 
L 124.236856 103.21541 
L 124.737589 97.374153 
L 125.468443 91.532896 
L 126.427153 85.691639 
L 127.599542 79.850382 
L 128.997955 74.009125 
L 130.656136 68.167868 
L 132.621772 62.326611 
L 134.970127 56.485354 
L 136.321228 53.564726 
L 137.954125 50.356517 
L 140.707625 45.587093 
L 143.461125 41.38405 
L 149.437733 33.120326 
L 153.569762 27.279069 
L 157.28108 21.437813 
M 305.86517 21.437813 
L 303.164125 26.497601 
L 302.77829 27.279069 
L 300.269319 33.120326 
L 295.902155 44.80284 
L 294.903625 48.086695 
L 294.313426 50.644097 
L 293.911293 53.564726 
L 293.824478 56.485354 
L 294.044842 59.405983 
L 294.52426 62.326611 
L 296.000784 68.167868 
L 297.914083 74.009125 
L 300.410625 80.367133 
L 303.164125 86.257252 
L 306.046586 91.532896 
L 309.727243 97.374153 
L 313.81619 103.21541 
L 322.050952 114.897924 
L 323.816776 117.818552 
L 325.430292 120.739181 
L 327.945625 126.073194 
L 329.310219 129.501066 
L 331.266323 135.342323 
L 332.842823 141.18358 
L 334.146433 147.024837 
L 335.243714 152.866094 
L 336.62224 161.627979 
L 337.776599 170.389865 
L 338.650204 179.15175 
L 339.03515 184.993007 
L 339.228235 190.834264 
L 339.188958 196.675521 
L 338.909394 202.516778 
L 338.408661 208.358035 
L 337.677807 214.199292 
L 336.719097 220.040549 
L 335.546708 225.881806 
L 334.148295 231.723062 
L 332.490114 237.564319 
L 330.524478 243.405576 
L 328.176123 249.246833 
L 326.825022 252.167462 
L 325.192125 255.375671 
L 322.438625 260.145094 
L 319.685125 264.348137 
L 313.708517 272.611861 
L 309.576488 278.453118 
L 305.86517 284.294375 
L 305.86517 284.294375 
" clip-path="url(#pfccfe3d74f)" style="fill: none; stroke: #ff8d00"/>
    <path d="M 150.595242 284.294375 
L 154.475125 276.575973 
L 159.982125 264.835035 
L 161.613884 260.929347 
L 162.735625 257.726613 
L 163.456411 255.08809 
L 163.979967 252.167462 
L 164.206722 249.246833 
L 164.152236 246.326205 
L 163.852858 243.405576 
L 163.348933 240.484948 
L 162.673691 237.564319 
L 161.837061 234.643691 
L 159.982125 229.41436 
L 159.739791 228.802434 
L 157.228625 223.335365 
L 155.43482 220.040549 
L 153.691175 217.11992 
L 151.721625 214.070152 
L 147.613433 208.358035 
L 140.707625 199.106184 
L 137.13821 193.754892 
L 135.200625 190.460391 
L 133.841088 187.913635 
L 132.423659 184.993007 
L 131.142053 182.072378 
L 128.948748 176.231122 
L 127.171313 170.389865 
L 125.68174 164.548608 
L 124.481533 158.707351 
L 122.998776 149.945465 
L 122.230914 144.104208 
L 121.349793 135.342323 
L 120.901481 129.501066 
L 120.624332 123.659809 
L 120.534475 117.818552 
L 120.649476 111.977295 
L 120.982322 106.136038 
L 121.530667 100.294781 
L 122.252953 94.453524 
L 123.181233 88.612267 
L 124.308511 82.77101 
L 125.588872 76.929753 
L 127.080946 71.088497 
L 128.767538 65.24724 
L 130.712658 59.405983 
L 132.96507 53.564726 
L 135.593952 47.723469 
L 138.651366 41.882212 
L 142.081289 36.040955 
L 149.031064 24.358441 
L 150.595242 21.437813 
M 312.551008 21.437813 
L 308.671125 29.156215 
L 303.164125 40.897152 
L 301.532366 44.80284 
L 300.410625 48.005574 
L 299.689839 50.644097 
L 299.166283 53.564726 
L 298.939528 56.485354 
L 298.994014 59.405983 
L 299.293392 62.326611 
L 299.797317 65.24724 
L 300.472559 68.167868 
L 301.309189 71.088497 
L 303.164125 76.317828 
L 303.406459 76.929753 
L 305.917625 82.396823 
L 307.71143 85.691639 
L 309.455075 88.612267 
L 311.424625 91.662035 
L 315.532817 97.374153 
L 322.438625 106.626003 
L 326.00804 111.977295 
L 327.945625 115.271796 
L 329.305162 117.818552 
L 330.722591 120.739181 
L 332.004197 123.659809 
L 334.197502 129.501066 
L 335.974937 135.342323 
L 337.46451 141.18358 
L 338.664717 147.024837 
L 340.147474 155.786722 
L 340.915336 161.627979 
L 341.796457 170.389865 
L 342.244769 176.231122 
L 342.521918 182.072378 
L 342.611775 187.913635 
L 342.496774 193.754892 
L 342.163928 199.596149 
L 341.615583 205.437406 
L 340.893297 211.278663 
L 339.965017 217.11992 
L 338.837739 222.961177 
L 337.557378 228.802434 
L 336.065304 234.643691 
L 334.378712 240.484948 
L 332.433592 246.326205 
L 330.18118 252.167462 
L 327.552298 258.008719 
L 324.494884 263.849976 
L 321.064961 269.691233 
L 314.115186 281.373747 
L 312.551008 284.294375 
L 312.551008 284.294375 
" clip-path="url(#pfccfe3d74f)" style="fill: none; stroke: #ff6c00"/>
    <path d="M 143.225462 284.294375 
L 146.214625 278.28211 
L 149.351096 272.611861 
L 154.475125 263.504781 
L 155.742992 260.929347 
L 157.228625 257.349174 
L 157.994318 255.08809 
L 158.706439 252.167462 
L 159.119788 249.246833 
L 159.243366 246.326205 
L 159.097829 243.405576 
L 158.706929 240.484948 
L 158.093335 237.564319 
L 157.228625 234.501149 
L 156.225434 231.723062 
L 154.475125 227.71963 
L 153.535105 225.881806 
L 151.721625 222.661274 
L 148.968125 218.437904 
L 145.886145 214.199292 
L 137.030479 202.516778 
L 135.02116 199.596149 
L 132.447125 195.496969 
L 131.418556 193.754892 
L 128.36565 187.913635 
L 125.79754 182.072378 
L 123.651044 176.231122 
L 122.686982 173.310493 
L 121.046757 167.469236 
L 119.635002 161.627979 
L 118.562983 155.786722 
L 117.636218 149.945465 
L 117.009865 144.104208 
L 116.615904 138.262951 
L 116.409155 132.421694 
L 116.3669 126.580438 
L 116.485665 120.739181 
L 116.774646 114.897924 
L 117.247383 109.056667 
L 117.914443 103.21541 
L 119.225842 94.453524 
L 120.27419 88.612267 
L 122.130395 79.850382 
L 123.525998 74.009125 
L 125.870804 65.24724 
L 128.553338 56.485354 
L 130.56553 50.644097 
L 132.800038 44.80284 
L 135.269761 38.961583 
L 139.214223 30.199698 
L 143.225462 21.437813 
M 319.920788 21.437813 
L 316.931625 27.450077 
L 313.795154 33.120326 
L 308.671125 42.227407 
L 307.403258 44.80284 
L 305.917625 48.383013 
L 305.151932 50.644097 
L 304.439811 53.564726 
L 304.026462 56.485354 
L 303.902884 59.405983 
L 304.048421 62.326611 
L 304.439321 65.24724 
L 305.052915 68.167868 
L 305.917625 71.231038 
L 306.920816 74.009125 
L 308.671125 78.012557 
L 309.611145 79.850382 
L 311.424625 83.070913 
L 314.178125 87.294284 
L 317.260105 91.532896 
L 326.115771 103.21541 
L 328.12509 106.136038 
L 330.699125 110.235218 
L 331.727694 111.977295 
L 334.7806 117.818552 
L 337.34871 123.659809 
L 339.495206 129.501066 
L 340.459268 132.421694 
L 342.099493 138.262951 
L 343.511248 144.104208 
L 344.583267 149.945465 
L 345.510032 155.786722 
L 346.136385 161.627979 
L 346.530346 167.469236 
L 346.737095 173.310493 
L 346.77935 179.15175 
L 346.660585 184.993007 
L 346.371604 190.834264 
L 345.898867 196.675521 
L 345.231807 202.516778 
L 343.920408 211.278663 
L 342.87206 217.11992 
L 341.015855 225.881806 
L 339.620252 231.723062 
L 337.275446 240.484948 
L 334.592912 249.246833 
L 332.58072 255.08809 
L 330.346212 260.929347 
L 327.876489 266.770604 
L 323.932027 275.53249 
L 319.920788 284.294375 
L 319.920788 284.294375 
" clip-path="url(#pfccfe3d74f)" style="fill: none; stroke: #ff4e00"/>
    <path d="M 133.307809 284.294375 
L 135.200625 280.907478 
L 136.746442 278.453118 
L 137.954125 277.007826 
L 138.988853 275.53249 
L 141.345569 272.611861 
L 143.677516 269.691233 
L 146.214625 266.317522 
L 148.968125 262.162125 
L 149.693367 260.929347 
L 151.721625 256.88959 
L 152.465392 255.08809 
L 153.378657 252.167462 
L 153.969189 249.246833 
L 154.235916 246.326205 
L 154.185694 243.405576 
L 153.831011 240.484948 
L 153.189643 237.564319 
L 151.721625 233.200934 
L 151.098423 231.723062 
L 148.968125 227.578654 
L 147.951784 225.881806 
L 146.05203 222.961177 
L 141.740952 217.11992 
L 135.007143 208.358035 
L 130.824834 202.516778 
L 126.940125 196.464701 
L 125.279748 193.754892 
L 119.005801 182.072378 
L 118.679625 181.321396 
L 117.439432 179.15175 
L 115.926125 175.898094 
L 114.321372 173.310493 
L 113.172625 170.913192 
L 112.577363 170.389865 
L 110.419125 167.695221 
L 107.665625 169.880209 
M 348.306779 284.294375 
L 350.066184 281.373747 
L 352.727125 279.651355 
L 355.480625 278.547185 
M 107.665625 278.547185 
L 110.419125 278.477252 
L 113.172625 279.922144 
L 114.534934 281.373747 
L 114.839471 284.294375 
M 355.480625 169.880209 
L 352.674079 182.072378 
L 351.255576 190.834264 
L 348.552802 205.437406 
L 346.06853 217.11992 
L 343.304942 228.802434 
L 339.536557 243.405576 
L 335.711227 258.008719 
L 333.452625 267.63137 
L 332.510774 272.611861 
L 331.505183 278.453118 
L 330.699125 281.575248 
L 329.838441 284.294375 
M 107.665625 135.851978 
L 110.472171 123.659809 
L 111.890674 114.897924 
L 114.593448 100.294781 
L 117.07772 88.612267 
L 119.841308 76.929753 
L 123.609693 62.326611 
L 127.435023 47.723469 
L 129.693625 38.100818 
L 130.635476 33.120326 
L 131.641067 27.279069 
L 132.447125 24.15694 
L 133.307809 21.437813 
M 355.480625 27.185002 
L 352.727125 27.254936 
L 349.973625 25.810044 
L 348.611316 24.358441 
L 348.306779 21.437813 
M 114.839471 21.437813 
L 113.080066 24.358441 
L 110.419125 26.080832 
L 107.665625 27.185002 
M 329.838441 21.437813 
L 327.945625 24.82471 
L 326.399808 27.279069 
L 325.192125 28.724362 
L 324.157397 30.199698 
L 321.800681 33.120326 
L 319.468734 36.040955 
L 316.931625 39.414666 
L 314.178125 43.570062 
L 313.452883 44.80284 
L 311.424625 48.842598 
L 310.680858 50.644097 
L 309.767593 53.564726 
L 309.177061 56.485354 
L 308.910334 59.405983 
L 308.960556 62.326611 
L 309.315239 65.24724 
L 309.956607 68.167868 
L 311.424625 72.531254 
L 312.047827 74.009125 
L 314.178125 78.153533 
L 315.194466 79.850382 
L 317.09422 82.77101 
L 321.405298 88.612267 
L 328.139107 97.374153 
L 332.321416 103.21541 
L 336.206125 109.267486 
L 337.866502 111.977295 
L 344.140449 123.659809 
L 344.466625 124.410791 
L 345.706818 126.580438 
L 347.220125 129.834094 
L 348.824878 132.421694 
L 349.973625 134.818995 
L 350.568887 135.342323 
L 352.727125 138.036967 
L 355.480625 135.851978 
L 355.480625 135.851978 
" clip-path="url(#pfccfe3d74f)" style="fill: none; stroke: #ff2d00"/>
    <path d="M 107.665625 268.986165 
L 110.419125 268.768423 
L 113.172625 268.766253 
L 115.926125 269.039828 
L 119.182988 269.691233 
L 121.433125 270.323592 
L 124.186625 270.957362 
L 126.940125 271.182594 
L 129.693625 270.826531 
L 132.662148 269.691233 
L 135.200625 268.303198 
L 137.954125 266.214646 
L 140.707625 263.593451 
L 143.461125 260.275335 
L 144.968736 258.008719 
L 146.561473 255.08809 
L 147.698116 252.167462 
L 148.456938 249.246833 
L 148.825671 246.326205 
L 148.802456 243.405576 
L 148.398828 240.484948 
L 147.640926 237.564319 
L 146.214625 233.877497 
L 145.144316 231.723062 
L 143.461125 228.783821 
L 140.707625 224.707915 
L 137.265152 220.040549 
L 126.940125 206.634008 
L 121.265589 199.596149 
L 118.502575 196.675521 
L 115.926125 194.628774 
L 113.172625 193.930324 
L 110.419125 195.460994 
L 107.665625 199.958761 
M 355.480625 199.958761 
L 352.400161 208.358035 
L 348.974522 220.040549 
L 345.817727 231.723062 
L 343.603767 240.484948 
L 341.681929 249.246833 
L 340.830762 255.08809 
L 340.602655 258.008719 
L 340.594764 260.929347 
L 340.937913 263.849976 
L 341.960935 266.770604 
L 344.466625 269.096069 
L 347.220125 269.712781 
L 349.973625 269.634608 
L 355.480625 268.986165 
M 107.665625 105.773427 
L 110.746089 97.374153 
L 114.171728 85.691639 
L 117.328523 74.009125 
L 119.542483 65.24724 
L 121.464321 56.485354 
L 122.315488 50.644097 
L 122.543595 47.723469 
L 122.551486 44.80284 
L 122.208337 41.882212 
L 121.185315 38.961583 
L 118.679625 36.636119 
L 115.926125 36.019407 
L 113.172625 36.097579 
L 107.665625 36.746023 
M 355.480625 36.746023 
L 352.727125 36.963765 
L 349.973625 36.965935 
L 347.220125 36.692359 
L 343.963262 36.040955 
L 341.713125 35.408596 
L 338.959625 34.774825 
L 336.206125 34.549594 
L 333.452625 34.905657 
L 330.484102 36.040955 
L 327.945625 37.42899 
L 325.192125 39.517542 
L 322.438625 42.138736 
L 319.685125 45.456852 
L 318.177514 47.723469 
L 316.584777 50.644097 
L 315.448134 53.564726 
L 314.689312 56.485354 
L 314.320579 59.405983 
L 314.343794 62.326611 
L 314.747422 65.24724 
L 315.505324 68.167868 
L 316.931625 71.85469 
L 318.001934 74.009125 
L 319.685125 76.948367 
L 322.438625 81.024272 
L 325.881098 85.691639 
L 336.206125 99.098179 
L 341.880661 106.136038 
L 344.643675 109.056667 
L 347.220125 111.103414 
L 349.973625 111.801863 
L 352.727125 110.271194 
L 355.480625 105.773427 
L 355.480625 105.773427 
" clip-path="url(#pfccfe3d74f)" style="fill: none; stroke: #f60b00"/>
    <path d="M 107.665625 261.918352 
L 113.172625 261.873788 
L 118.679625 261.915276 
L 124.186625 262.214368 
L 126.940125 262.176931 
L 129.693625 261.763219 
L 132.447125 260.819159 
L 135.200625 259.1486 
L 136.540125 258.008719 
L 137.954125 256.586222 
L 139.123308 255.08809 
L 140.851903 252.167462 
L 141.838067 249.246833 
L 142.316314 246.326205 
L 142.295862 243.405576 
L 141.815683 240.484948 
L 140.707625 237.017452 
L 139.651853 234.643691 
L 137.954125 231.480838 
L 135.200625 227.174299 
L 132.221258 222.961177 
L 129.693625 219.681325 
L 126.940125 216.376565 
L 124.186625 213.394986 
L 121.433125 210.866804 
L 118.679625 209.008276 
L 115.926125 208.147128 
L 113.172625 208.691078 
L 110.280922 211.278663 
L 107.665625 215.482772 
M 355.480625 215.482772 
L 352.381803 222.961177 
L 349.560565 231.723062 
L 348.0309 237.564319 
L 347.220125 241.042197 
L 346.356698 246.326205 
L 346.085627 249.246833 
L 346.047554 252.167462 
L 346.372519 255.08809 
L 347.329935 258.008719 
L 349.973625 260.702619 
L 350.496673 260.929347 
L 352.727125 261.634801 
L 355.480625 261.918352 
M 107.665625 90.249416 
L 110.764447 82.77101 
L 113.585685 74.009125 
L 115.11535 68.167868 
L 115.926125 64.689991 
L 116.789552 59.405983 
L 117.060623 56.485354 
L 117.098696 53.564726 
L 116.773731 50.644097 
L 115.816315 47.723469 
L 113.172625 45.029568 
L 112.649577 44.80284 
L 110.419125 44.097386 
L 107.665625 43.813835 
M 355.480625 43.813835 
L 349.973625 43.858399 
L 344.466625 43.816911 
L 338.959625 43.517819 
L 336.206125 43.555257 
L 333.452625 43.968968 
L 330.699125 44.913029 
L 327.945625 46.583588 
L 326.606125 47.723469 
L 325.192125 49.145965 
L 324.022942 50.644097 
L 322.294347 53.564726 
L 321.308183 56.485354 
L 320.829936 59.405983 
L 320.850388 62.326611 
L 321.330567 65.24724 
L 322.438625 68.714736 
L 323.494397 71.088497 
L 325.192125 74.251349 
L 327.945625 78.557889 
L 330.924992 82.77101 
L 333.452625 86.050862 
L 336.206125 89.355622 
L 338.959625 92.337202 
L 341.713125 94.865383 
L 344.466625 96.723912 
L 347.220125 97.58506 
L 349.973625 97.041109 
L 352.865328 94.453524 
L 355.480625 90.249416 
L 355.480625 90.249416 
" clip-path="url(#pfccfe3d74f)" style="fill: none; stroke: #cd0000"/>
    <path d="M 107.665625 253.605904 
L 110.419125 254.536591 
L 113.172625 254.770314 
L 115.926125 254.655701 
L 118.679625 254.353398 
L 121.433125 253.917454 
L 124.186625 253.313702 
L 126.940125 252.417903 
L 127.479845 252.167462 
L 129.693625 250.712511 
L 131.174599 249.246833 
L 132.447125 246.997691 
L 132.730107 246.326205 
L 133.191392 243.405576 
L 132.995764 240.484948 
L 132.447125 238.185856 
L 132.297854 237.564319 
L 131.161384 234.643691 
L 129.728769 231.723062 
L 129.693625 231.664142 
L 127.888264 228.802434 
L 126.940125 227.468655 
L 125.654306 225.881806 
L 124.186625 224.220555 
L 122.759431 222.961177 
L 121.433125 221.845866 
L 118.679625 220.418349 
L 115.926125 220.150875 
L 113.172625 221.337652 
L 111.603638 222.961177 
L 110.419125 224.266381 
L 109.492395 225.881806 
L 107.909805 228.802434 
L 107.665625 229.291842 
M 355.480625 229.291842 
L 354.572196 231.723062 
L 353.574853 234.643691 
L 352.727125 237.463235 
L 352.702097 237.564319 
L 352.149525 240.484948 
L 351.79911 243.405576 
L 351.750792 246.326205 
L 352.176552 249.246833 
L 352.727125 250.698137 
L 353.706742 252.167462 
L 355.480625 253.605904 
M 107.665625 76.440345 
L 108.574054 74.009125 
L 109.571397 71.088497 
L 110.419125 68.268952 
L 110.444153 68.167868 
L 110.996725 65.24724 
L 111.34714 62.326611 
L 111.395458 59.405983 
L 110.969698 56.485354 
L 110.419125 55.03405 
L 109.439508 53.564726 
L 107.665625 52.126284 
M 355.480625 52.126284 
L 352.727125 51.195597 
L 349.973625 50.961873 
L 347.220125 51.076487 
L 344.466625 51.37879 
L 341.713125 51.814733 
L 338.959625 52.418485 
L 336.206125 53.314284 
L 335.666405 53.564726 
L 333.452625 55.019677 
L 331.971651 56.485354 
L 330.699125 58.734496 
L 330.416143 59.405983 
L 329.954858 62.326611 
L 330.150486 65.24724 
L 330.699125 67.546331 
L 330.848396 68.167868 
L 331.984866 71.088497 
L 333.417481 74.009125 
L 333.452625 74.068045 
L 335.257986 76.929753 
L 336.206125 78.263532 
L 337.491944 79.850382 
L 338.959625 81.511632 
L 340.386819 82.77101 
L 341.713125 83.886322 
L 344.466625 85.313838 
L 347.220125 85.581313 
L 349.973625 84.394535 
L 351.542612 82.77101 
L 352.727125 81.465806 
L 353.653855 79.850382 
L 355.236445 76.929753 
L 355.480625 76.440345 
" clip-path="url(#pfccfe3d74f)" style="fill: none; stroke: #a40000"/>
    <path clip-path="url(#pfccfe3d74f)" style="fill: none; stroke: #800000"/>
   </g>
   <g id="patch_3">
    <path d="M 107.665625 284.294375 
L 107.665625 21.437813 
" style="fill: none; stroke: #000000; stroke-width: 0.8; stroke-linejoin: miter; stroke-linecap: square"/>
   </g>
   <g id="patch_4">
    <path d="M 107.665625 284.294375 
L 355.480625 284.294375 
" style="fill: none; stroke: #000000; stroke-width: 0.8; stroke-linejoin: miter; stroke-linecap: square"/>
   </g>
  </g>
  <g id="axes_2">
   <g id="patch_5">
    <path d="M 370.969063 284.294375 
L 384.111891 284.294375 
L 384.111891 21.437813 
L 370.969063 21.437813 
z
" style="fill: #ffffff"/>
   </g>
   <g id="matplotlib.axis_3"/>
   <g id="matplotlib.axis_4">
    <g id="ytick_6">
     <g id="line2d_11">
      <defs>
       <path id="m49a97ebb7b" d="M 0 0 
L 3.5 0 
" style="stroke: #000000; stroke-width: 0.8"/>
      </defs>
      <g>
       <use xlink:href="#m49a97ebb7b" x="384.111891" y="248.783882" style="stroke: #000000; stroke-width: 0.8"/>
      </g>
     </g>
     <g id="text_13">
      <!-- 0.8 -->
      <g transform="translate(391.111891 255.622476) scale(0.18 -0.18)">
       <defs>
        <path id="DejaVuSerif-2e" d="M 603 325 
Q 603 500 722 622 
Q 841 744 1019 744 
Q 1191 744 1312 622 
Q 1434 500 1434 325 
Q 1434 153 1312 31 
Q 1191 -91 1019 -91 
Q 841 -91 722 29 
Q 603 150 603 325 
z
" transform="scale(0.015625)"/>
        <path id="DejaVuSerif-38" d="M 2981 1275 
Q 2981 1775 2732 2051 
Q 2484 2328 2034 2328 
Q 1584 2328 1336 2051 
Q 1088 1775 1088 1275 
Q 1088 772 1336 495 
Q 1584 219 2034 219 
Q 2484 219 2732 495 
Q 2981 772 2981 1275 
z
M 2853 3541 
Q 2853 3966 2637 4203 
Q 2422 4441 2034 4441 
Q 1650 4441 1433 4203 
Q 1216 3966 1216 3541 
Q 1216 3113 1433 2875 
Q 1650 2638 2034 2638 
Q 2422 2638 2637 2875 
Q 2853 3113 2853 3541 
z
M 2516 2484 
Q 3047 2413 3344 2092 
Q 3641 1772 3641 1275 
Q 3641 619 3225 264 
Q 2809 -91 2034 -91 
Q 1263 -91 845 264 
Q 428 619 428 1275 
Q 428 1772 725 2092 
Q 1022 2413 1556 2484 
Q 1084 2569 832 2842 
Q 581 3116 581 3541 
Q 581 4103 968 4426 
Q 1356 4750 2034 4750 
Q 2713 4750 3100 4426 
Q 3488 4103 3488 3541 
Q 3488 3116 3236 2842 
Q 2984 2569 2516 2484 
z
" transform="scale(0.015625)"/>
       </defs>
       <use xlink:href="#DejaVuSerif-30"/>
       <use xlink:href="#DejaVuSerif-2e" x="63.623047"/>
       <use xlink:href="#DejaVuSerif-38" x="95.410156"/>
      </g>
     </g>
    </g>
    <g id="ytick_7">
     <g id="line2d_12">
      <g>
       <use xlink:href="#m49a97ebb7b" x="384.111891" y="205.263746" style="stroke: #000000; stroke-width: 0.8"/>
      </g>
     </g>
     <g id="text_14">
      <!-- 0.9 -->
      <g transform="translate(391.111891 212.10234) scale(0.18 -0.18)">
       <defs>
        <path id="DejaVuSerif-39" d="M 2994 2091 
Q 2784 1856 2512 1740 
Q 2241 1625 1900 1625 
Q 1206 1625 804 2044 
Q 403 2463 403 3188 
Q 403 3897 839 4323 
Q 1275 4750 2003 4750 
Q 2794 4750 3217 4161 
Q 3641 3572 3641 2478 
Q 3641 1253 3137 581 
Q 2634 -91 1722 -91 
Q 1475 -91 1203 -44 
Q 931 3 647 97 
L 647 872 
L 997 872 
Q 1038 556 1241 387 
Q 1444 219 1784 219 
Q 2391 219 2687 676 
Q 2984 1134 2994 2091 
z
M 1978 4441 
Q 1534 4441 1298 4117 
Q 1063 3794 1063 3188 
Q 1063 2581 1298 2256 
Q 1534 1931 1978 1931 
Q 2422 1931 2658 2245 
Q 2894 2559 2894 3150 
Q 2894 3772 2656 4106 
Q 2419 4441 1978 4441 
z
" transform="scale(0.015625)"/>
       </defs>
       <use xlink:href="#DejaVuSerif-30"/>
       <use xlink:href="#DejaVuSerif-2e" x="63.623047"/>
       <use xlink:href="#DejaVuSerif-39" x="95.410156"/>
      </g>
     </g>
    </g>
    <g id="ytick_8">
     <g id="line2d_13">
      <g>
       <use xlink:href="#m49a97ebb7b" x="384.111891" y="161.74361" style="stroke: #000000; stroke-width: 0.8"/>
      </g>
     </g>
     <g id="text_15">
      <!-- 1.0 -->
      <g transform="translate(391.111891 168.582204) scale(0.18 -0.18)">
       <defs>
        <path id="DejaVuSerif-31" d="M 909 0 
L 909 331 
L 1722 331 
L 1722 4213 
L 781 3603 
L 781 4013 
L 1919 4750 
L 2350 4750 
L 2350 331 
L 3163 331 
L 3163 0 
L 909 0 
z
" transform="scale(0.015625)"/>
       </defs>
       <use xlink:href="#DejaVuSerif-31"/>
       <use xlink:href="#DejaVuSerif-2e" x="63.623047"/>
       <use xlink:href="#DejaVuSerif-30" x="95.410156"/>
      </g>
     </g>
    </g>
    <g id="ytick_9">
     <g id="line2d_14">
      <g>
       <use xlink:href="#m49a97ebb7b" x="384.111891" y="118.223475" style="stroke: #000000; stroke-width: 0.8"/>
      </g>
     </g>
     <g id="text_16">
      <!-- 1.1 -->
      <g transform="translate(391.111891 125.062069) scale(0.18 -0.18)">
       <use xlink:href="#DejaVuSerif-31"/>
       <use xlink:href="#DejaVuSerif-2e" x="63.623047"/>
       <use xlink:href="#DejaVuSerif-31" x="95.410156"/>
      </g>
     </g>
    </g>
    <g id="ytick_10">
     <g id="line2d_15">
      <g>
       <use xlink:href="#m49a97ebb7b" x="384.111891" y="74.703339" style="stroke: #000000; stroke-width: 0.8"/>
      </g>
     </g>
     <g id="text_17">
      <!-- 1.2 -->
      <g transform="translate(391.111891 81.541933) scale(0.18 -0.18)">
       <defs>
        <path id="DejaVuSerif-32" d="M 819 3553 
L 469 3553 
L 469 4384 
Q 803 4563 1142 4656 
Q 1481 4750 1806 4750 
Q 2534 4750 2956 4397 
Q 3378 4044 3378 3438 
Q 3378 2753 2422 1800 
Q 2347 1728 2309 1691 
L 1131 513 
L 3078 513 
L 3078 1088 
L 3444 1088 
L 3444 0 
L 434 0 
L 434 341 
L 1850 1753 
Q 2319 2222 2519 2614 
Q 2719 3006 2719 3438 
Q 2719 3909 2473 4175 
Q 2228 4441 1797 4441 
Q 1350 4441 1106 4219 
Q 863 3997 819 3553 
z
" transform="scale(0.015625)"/>
       </defs>
       <use xlink:href="#DejaVuSerif-31"/>
       <use xlink:href="#DejaVuSerif-2e" x="63.623047"/>
       <use xlink:href="#DejaVuSerif-32" x="95.410156"/>
      </g>
     </g>
    </g>
    <g id="ytick_11">
     <g id="line2d_16">
      <g>
       <use xlink:href="#m49a97ebb7b" x="384.111891" y="31.183203" style="stroke: #000000; stroke-width: 0.8"/>
      </g>
     </g>
     <g id="text_18">
      <!-- 1.3 -->
      <g transform="translate(391.111891 38.021797) scale(0.18 -0.18)">
       <defs>
        <path id="DejaVuSerif-33" d="M 622 4469 
Q 988 4606 1323 4678 
Q 1659 4750 1953 4750 
Q 2638 4750 3022 4454 
Q 3406 4159 3406 3634 
Q 3406 3213 3140 2930 
Q 2875 2647 2388 2547 
Q 2963 2466 3280 2130 
Q 3597 1794 3597 1259 
Q 3597 606 3158 257 
Q 2719 -91 1894 -91 
Q 1528 -91 1179 -12 
Q 831 66 488 225 
L 488 1131 
L 838 1131 
Q 869 681 1141 450 
Q 1413 219 1906 219 
Q 2384 219 2661 495 
Q 2938 772 2938 1253 
Q 2938 1803 2653 2086 
Q 2369 2369 1819 2369 
L 1522 2369 
L 1522 2688 
L 1678 2688 
Q 2225 2688 2498 2914 
Q 2772 3141 2772 3597 
Q 2772 4006 2547 4223 
Q 2322 4441 1900 4441 
Q 1478 4441 1245 4241 
Q 1013 4041 972 3647 
L 622 3647 
L 622 4469 
z
" transform="scale(0.015625)"/>
       </defs>
       <use xlink:href="#DejaVuSerif-31"/>
       <use xlink:href="#DejaVuSerif-2e" x="63.623047"/>
       <use xlink:href="#DejaVuSerif-33" x="95.410156"/>
      </g>
     </g>
    </g>
   </g>
   <g id="LineCollection_1"/>
   <g id="LineCollection_2">
    <path d="M 370.969063 284.294375 
L 384.111891 284.294375 
" clip-path="url(#p8232c56dd6)" style="fill: none; stroke: #000080"/>
    <path d="M 370.969063 275.230356 
L 384.111891 275.230356 
" clip-path="url(#p8232c56dd6)" style="fill: none; stroke: #0000a4"/>
    <path d="M 370.969063 266.166336 
L 384.111891 266.166336 
" clip-path="url(#p8232c56dd6)" style="fill: none; stroke: #0000cd"/>
    <path d="M 370.969063 257.102317 
L 384.111891 257.102317 
" clip-path="url(#p8232c56dd6)" style="fill: none; stroke: #0000f6"/>
    <path d="M 370.969063 248.038297 
L 384.111891 248.038297 
" clip-path="url(#p8232c56dd6)" style="fill: none; stroke: #000cff"/>
    <path d="M 370.969063 238.974278 
L 384.111891 238.974278 
" clip-path="url(#p8232c56dd6)" style="fill: none; stroke: #0030ff"/>
    <path d="M 370.969063 229.910259 
L 384.111891 229.910259 
" clip-path="url(#p8232c56dd6)" style="fill: none; stroke: #0050ff"/>
    <path d="M 370.969063 220.846239 
L 384.111891 220.846239 
" clip-path="url(#p8232c56dd6)" style="fill: none; stroke: #0074ff"/>
    <path d="M 370.969063 211.78222 
L 384.111891 211.78222 
" clip-path="url(#p8232c56dd6)" style="fill: none; stroke: #0098ff"/>
    <path d="M 370.969063 202.7182 
L 384.111891 202.7182 
" clip-path="url(#p8232c56dd6)" style="fill: none; stroke: #00bcff"/>
    <path d="M 370.969063 193.654181 
L 384.111891 193.654181 
" clip-path="url(#p8232c56dd6)" style="fill: none; stroke: #00e0fb"/>
    <path d="M 370.969063 184.590162 
L 384.111891 184.590162 
" clip-path="url(#p8232c56dd6)" style="fill: none; stroke: #19ffde"/>
    <path d="M 370.969063 175.526142 
L 384.111891 175.526142 
" clip-path="url(#p8232c56dd6)" style="fill: none; stroke: #33ffc4"/>
    <path d="M 370.969063 166.462123 
L 384.111891 166.462123 
" clip-path="url(#p8232c56dd6)" style="fill: none; stroke: #50ffa7"/>
    <path d="M 370.969063 157.398103 
L 384.111891 157.398103 
" clip-path="url(#p8232c56dd6)" style="fill: none; stroke: #6dff8a"/>
    <path d="M 370.969063 148.334084 
L 384.111891 148.334084 
" clip-path="url(#p8232c56dd6)" style="fill: none; stroke: #8aff6d"/>
    <path d="M 370.969063 139.270065 
L 384.111891 139.270065 
" clip-path="url(#p8232c56dd6)" style="fill: none; stroke: #a7ff50"/>
    <path d="M 370.969063 130.206045 
L 384.111891 130.206045 
" clip-path="url(#p8232c56dd6)" style="fill: none; stroke: #c4ff33"/>
    <path d="M 370.969063 121.142026 
L 384.111891 121.142026 
" clip-path="url(#p8232c56dd6)" style="fill: none; stroke: #deff19"/>
    <path d="M 370.969063 112.078006 
L 384.111891 112.078006 
" clip-path="url(#p8232c56dd6)" style="fill: none; stroke: #fbf100"/>
    <path d="M 370.969063 103.013987 
L 384.111891 103.013987 
" clip-path="url(#p8232c56dd6)" style="fill: none; stroke: #ffd000"/>
    <path d="M 370.969063 93.949968 
L 384.111891 93.949968 
" clip-path="url(#p8232c56dd6)" style="fill: none; stroke: #ffae00"/>
    <path d="M 370.969063 84.885948 
L 384.111891 84.885948 
" clip-path="url(#p8232c56dd6)" style="fill: none; stroke: #ff8d00"/>
    <path d="M 370.969063 75.821929 
L 384.111891 75.821929 
" clip-path="url(#p8232c56dd6)" style="fill: none; stroke: #ff6c00"/>
    <path d="M 370.969063 66.757909 
L 384.111891 66.757909 
" clip-path="url(#p8232c56dd6)" style="fill: none; stroke: #ff4e00"/>
    <path d="M 370.969063 57.69389 
L 384.111891 57.69389 
" clip-path="url(#p8232c56dd6)" style="fill: none; stroke: #ff2d00"/>
    <path d="M 370.969063 48.629871 
L 384.111891 48.629871 
" clip-path="url(#p8232c56dd6)" style="fill: none; stroke: #f60b00"/>
    <path d="M 370.969063 39.565851 
L 384.111891 39.565851 
" clip-path="url(#p8232c56dd6)" style="fill: none; stroke: #cd0000"/>
    <path d="M 370.969063 30.501832 
L 384.111891 30.501832 
" clip-path="url(#p8232c56dd6)" style="fill: none; stroke: #a40000"/>
    <path d="M 370.969063 21.437813 
L 384.111891 21.437813 
" clip-path="url(#p8232c56dd6)" style="fill: none; stroke: #800000"/>
   </g>
   <g id="patch_6">
    <path d="M 370.969063 284.294375 
L 377.540477 284.294375 
L 384.111891 284.294375 
L 384.111891 21.437813 
L 377.540477 21.437813 
L 370.969063 21.437813 
L 370.969063 284.294375 
z
" style="fill: none; stroke: #000000; stroke-width: 0.8; stroke-linejoin: miter; stroke-linecap: square"/>
   </g>
  </g>
 </g>
 <defs>
  <clipPath id="pfccfe3d74f">
   <rect x="107.665625" y="21.437813" width="247.815" height="262.856562"/>
  </clipPath>
  <clipPath id="p8232c56dd6">
   <path d="M 370.969063 285.242631 
L 384.111891 285.242631 
L 384.111891 20.489557 
L 370.969063 20.489557 
z
"/>
  </clipPath>
 </defs>
</svg>
