<?xml version="1.0" encoding="utf-8" standalone="no"?>
<!DOCTYPE svg PUBLIC "-//W3C//DTD SVG 1.1//EN"
  "http://www.w3.org/Graphics/SVG/1.1/DTD/svg11.dtd">
<svg xmlns:xlink="http://www.w3.org/1999/xlink" width="432pt" height="360pt" viewBox="0 0 432 360" xmlns="http://www.w3.org/2000/svg" version="1.1">
 <metadata>
  <rdf:RDF xmlns:dc="http://purl.org/dc/elements/1.1/" xmlns:cc="http://creativecommons.org/ns#" xmlns:rdf="http://www.w3.org/1999/02/22-rdf-syntax-ns#">
   <cc:Work>
    <dc:type rdf:resource="http://purl.org/dc/dcmitype/StillImage"/>
    <dc:date>2025-04-13T22:44:07.661709</dc:date>
    <dc:format>image/svg+xml</dc:format>
    <dc:creator>
     <cc:Agent>
      <dc:title>Matplotlib v3.9.2, https://matplotlib.org/</dc:title>
     </cc:Agent>
    </dc:creator>
   </cc:Work>
  </rdf:RDF>
 </metadata>
 <defs>
  <style type="text/css">*{stroke-linejoin: round; stroke-linecap: butt}</style>
 </defs>
 <g id="figure_1">
  <g id="patch_1">
   <path d="M 0 360 
L 432 360 
L 432 0 
L 0 0 
z
" style="fill: #ffffff"/>
  </g>
  <g id="axes_1">
   <g id="patch_2">
    <path d="M 107.665625 284.294375 
L 346.318625 284.294375 
L 346.318625 21.437813 
L 107.665625 21.437813 
z
" style="fill: #ffffff"/>
   </g>
   <g id="matplotlib.axis_1">
    <g id="xtick_1">
     <g id="line2d_1">
      <defs>
       <path id="m54b41856a1" d="M 0 0 
L 0 3.5 
" style="stroke: #000000; stroke-width: 0.8"/>
      </defs>
      <g>
       <use xlink:href="#m54b41856a1" x="107.665625" y="284.294375" style="stroke: #000000; stroke-width: 0.8"/>
      </g>
     </g>
     <g id="text_1">
      <!-- 0 -->
      <g transform="translate(98.758125 312.57) scale(0.28 -0.28)">
       <defs>
        <path id="DejaVuSerif-30" d="M 2034 219 
Q 2513 219 2750 744 
Q 2988 1269 2988 2328 
Q 2988 3391 2750 3916 
Q 2513 4441 2034 4441 
Q 1556 4441 1318 3916 
Q 1081 3391 1081 2328 
Q 1081 1269 1318 744 
Q 1556 219 2034 219 
z
M 2034 -91 
Q 1275 -91 848 546 
Q 422 1184 422 2328 
Q 422 3475 848 4112 
Q 1275 4750 2034 4750 
Q 2797 4750 3222 4112 
Q 3647 3475 3647 2328 
Q 3647 1184 3222 546 
Q 2797 -91 2034 -91 
z
" transform="scale(0.015625)"/>
       </defs>
       <use xlink:href="#DejaVuSerif-30"/>
      </g>
     </g>
    </g>
    <g id="xtick_2">
     <g id="line2d_2">
      <g>
       <use xlink:href="#m54b41856a1" x="167.328875" y="284.294375" style="stroke: #000000; stroke-width: 0.8"/>
      </g>
     </g>
     <g id="text_2">
      <!-- $\pi/4$ -->
      <g transform="translate(145.348875 312.294375) scale(0.28 -0.28)">
       <defs>
        <path id="Cmmi10-bc" d="M 647 109 
Q 647 144 672 213 
Q 850 584 1004 942 
Q 1159 1300 1282 1639 
Q 1406 1978 1509 2363 
L 1100 2363 
Q 866 2363 662 2216 
Q 459 2069 325 1844 
Q 313 1819 288 1819 
L 213 1819 
Q 153 1819 153 1881 
Q 153 1894 166 1919 
Q 375 2275 614 2517 
Q 853 2759 1153 2759 
L 3475 2759 
Q 3541 2759 3587 2715 
Q 3634 2672 3634 2597 
Q 3634 2503 3567 2433 
Q 3500 2363 3406 2363 
L 2591 2363 
Q 2488 1859 2478 1381 
Q 2478 766 2694 269 
Q 2713 231 2713 191 
Q 2713 122 2672 62 
Q 2631 3 2567 -34 
Q 2503 -72 2431 -72 
Q 2263 -72 2200 203 
Q 2138 478 2138 738 
Q 2138 1103 2200 1442 
Q 2263 1781 2400 2363 
L 1703 2363 
Q 1197 313 1094 103 
Q 1003 -72 844 -72 
Q 766 -72 706 -20 
Q 647 31 647 109 
z
" transform="scale(0.015625)"/>
        <path id="Cmmi10-3d" d="M 359 -1472 
Q 359 -1453 366 -1447 
L 2591 4722 
Q 2603 4759 2634 4779 
Q 2666 4800 2706 4800 
Q 2763 4800 2798 4765 
Q 2834 4731 2834 4672 
L 2834 4647 
L 609 -1522 
Q 572 -1600 488 -1600 
Q 434 -1600 396 -1562 
Q 359 -1525 359 -1472 
z
" transform="scale(0.015625)"/>
        <path id="Cmr10-34" d="M 178 1056 
L 178 1281 
L 2156 4231 
Q 2178 4263 2222 4263 
L 2316 4263 
Q 2388 4263 2388 4191 
L 2388 1281 
L 3016 1281 
L 3016 1056 
L 2388 1056 
L 2388 428 
Q 2388 297 2575 261 
Q 2763 225 3009 225 
L 3009 0 
L 1247 0 
L 1247 225 
Q 1494 225 1681 261 
Q 1869 297 1869 428 
L 1869 1056 
L 178 1056 
z
M 391 1281 
L 1906 1281 
L 1906 3547 
L 391 1281 
z
" transform="scale(0.015625)"/>
       </defs>
       <use xlink:href="#Cmmi10-bc"/>
       <use xlink:href="#Cmmi10-3d" transform="translate(56.982422 0)"/>
       <use xlink:href="#Cmr10-34" transform="translate(106.982422 0)"/>
      </g>
     </g>
    </g>
    <g id="xtick_3">
     <g id="line2d_3">
      <g>
       <use xlink:href="#m54b41856a1" x="226.992125" y="284.294375" style="stroke: #000000; stroke-width: 0.8"/>
      </g>
     </g>
     <g id="text_3">
      <!-- $\pi/2$ -->
      <g transform="translate(205.012125 312.294375) scale(0.28 -0.28)">
       <defs>
        <path id="Cmr10-32" d="M 319 0 
L 319 172 
Q 319 188 331 206 
L 1325 1306 
Q 1550 1550 1690 1715 
Q 1831 1881 1968 2097 
Q 2106 2313 2186 2536 
Q 2266 2759 2266 3009 
Q 2266 3272 2169 3511 
Q 2072 3750 1880 3894 
Q 1688 4038 1416 4038 
Q 1138 4038 916 3870 
Q 694 3703 603 3438 
Q 628 3444 672 3444 
Q 816 3444 917 3347 
Q 1019 3250 1019 3097 
Q 1019 2950 917 2848 
Q 816 2747 672 2747 
Q 522 2747 420 2851 
Q 319 2956 319 3097 
Q 319 3338 409 3548 
Q 500 3759 670 3923 
Q 841 4088 1055 4175 
Q 1269 4263 1509 4263 
Q 1875 4263 2190 4108 
Q 2506 3953 2690 3670 
Q 2875 3388 2875 3009 
Q 2875 2731 2753 2481 
Q 2631 2231 2440 2026 
Q 2250 1822 1953 1562 
Q 1656 1303 1563 1216 
L 838 519 
L 1453 519 
Q 1906 519 2211 526 
Q 2516 534 2534 550 
Q 2609 631 2688 1141 
L 2875 1141 
L 2694 0 
L 319 0 
z
" transform="scale(0.015625)"/>
       </defs>
       <use xlink:href="#Cmmi10-bc"/>
       <use xlink:href="#Cmmi10-3d" transform="translate(56.982422 0)"/>
       <use xlink:href="#Cmr10-32" transform="translate(106.982422 0)"/>
      </g>
     </g>
    </g>
    <g id="xtick_4">
     <g id="line2d_4">
      <g>
       <use xlink:href="#m54b41856a1" x="286.655375" y="284.294375" style="stroke: #000000; stroke-width: 0.8"/>
      </g>
     </g>
     <g id="text_4">
      <!-- $3\pi/4$ -->
      <g transform="translate(257.675375 312.294375) scale(0.28 -0.28)">
       <defs>
        <path id="Cmr10-33" d="M 609 494 
Q 759 275 1012 169 
Q 1266 63 1556 63 
Q 1928 63 2084 380 
Q 2241 697 2241 1100 
Q 2241 1281 2208 1462 
Q 2175 1644 2097 1800 
Q 2019 1956 1883 2050 
Q 1747 2144 1550 2144 
L 1125 2144 
Q 1069 2144 1069 2203 
L 1069 2259 
Q 1069 2309 1125 2309 
L 1478 2338 
Q 1703 2338 1851 2506 
Q 2000 2675 2069 2917 
Q 2138 3159 2138 3378 
Q 2138 3684 1994 3881 
Q 1850 4078 1556 4078 
Q 1313 4078 1091 3986 
Q 869 3894 738 3706 
Q 750 3709 759 3711 
Q 769 3713 781 3713 
Q 925 3713 1022 3613 
Q 1119 3513 1119 3372 
Q 1119 3234 1022 3134 
Q 925 3034 781 3034 
Q 641 3034 541 3134 
Q 441 3234 441 3372 
Q 441 3647 606 3850 
Q 772 4053 1033 4158 
Q 1294 4263 1556 4263 
Q 1750 4263 1965 4205 
Q 2181 4147 2356 4039 
Q 2531 3931 2642 3762 
Q 2753 3594 2753 3378 
Q 2753 3109 2633 2881 
Q 2513 2653 2303 2487 
Q 2094 2322 1844 2241 
Q 2122 2188 2372 2031 
Q 2622 1875 2773 1631 
Q 2925 1388 2925 1106 
Q 2925 753 2731 467 
Q 2538 181 2222 20 
Q 1906 -141 1556 -141 
Q 1256 -141 954 -26 
Q 653 88 461 316 
Q 269 544 269 863 
Q 269 1022 375 1128 
Q 481 1234 641 1234 
Q 744 1234 830 1186 
Q 916 1138 964 1050 
Q 1013 963 1013 863 
Q 1013 706 903 600 
Q 794 494 641 494 
L 609 494 
z
" transform="scale(0.015625)"/>
       </defs>
       <use xlink:href="#Cmr10-33"/>
       <use xlink:href="#Cmmi10-bc" transform="translate(50 0)"/>
       <use xlink:href="#Cmmi10-3d" transform="translate(106.982422 0)"/>
       <use xlink:href="#Cmr10-34" transform="translate(156.982422 0)"/>
      </g>
     </g>
    </g>
    <g id="xtick_5">
     <g id="line2d_5">
      <g>
       <use xlink:href="#m54b41856a1" x="346.318625" y="284.294375" style="stroke: #000000; stroke-width: 0.8"/>
      </g>
     </g>
     <g id="text_5">
      <!-- $\pi$ -->
      <g transform="translate(338.338625 312.57) scale(0.28 -0.28)">
       <use xlink:href="#Cmmi10-bc" transform="translate(0 0.890625)"/>
      </g>
     </g>
    </g>
    <g id="text_6">
     <!-- $\zeta_{\mathrm{Boozer}}$ -->
     <g transform="translate(182.792125 342.06) scale(0.34 -0.34)">
      <defs>
       <path id="Cmmi10-b3" d="M 1131 -997 
Q 1147 -922 1222 -922 
Q 1234 -922 1332 -986 
Q 1431 -1050 1542 -1098 
Q 1653 -1147 1784 -1147 
Q 1922 -1147 2014 -1019 
Q 2106 -891 2106 -744 
Q 2106 -597 2009 -494 
Q 1913 -391 1766 -341 
L 1113 -122 
Q 713 16 503 317 
Q 294 619 294 1050 
Q 294 1416 426 1831 
Q 559 2247 793 2637 
Q 1028 3028 1334 3339 
Q 1641 3650 1972 3822 
Q 1906 3953 1906 4128 
Q 1906 4475 2041 4475 
Q 2075 4475 2100 4450 
Q 2125 4425 2125 4391 
Q 2125 4344 2109 4245 
Q 2094 4147 2094 4122 
Q 2094 4006 2131 3897 
Q 2297 3963 2438 3963 
Q 3028 3963 3028 3781 
Q 3028 3566 2375 3566 
Q 2181 3566 2069 3681 
Q 1794 3525 1539 3244 
Q 1284 2963 1087 2613 
Q 891 2263 781 1906 
Q 672 1550 672 1228 
Q 672 538 1300 319 
L 1984 91 
Q 2200 25 2336 -139 
Q 2472 -303 2472 -531 
Q 2472 -716 2378 -898 
Q 2284 -1081 2125 -1197 
Q 1966 -1313 1772 -1313 
Q 1619 -1313 1375 -1211 
Q 1131 -1109 1131 -997 
z
M 2247 3763 
Q 2241 3763 2303 3738 
Q 2331 3738 2348 3736 
Q 2366 3734 2388 3731 
Q 2694 3731 2828 3769 
Q 2706 3794 2438 3794 
Q 2350 3794 2247 3763 
z
" transform="scale(0.015625)"/>
       <path id="Cmr10-42" d="M 219 0 
L 219 225 
Q 878 225 878 428 
L 878 3944 
Q 878 4147 219 4147 
L 219 4372 
L 2572 4372 
Q 2897 4372 3228 4245 
Q 3559 4119 3776 3870 
Q 3994 3622 3994 3284 
Q 3994 2894 3673 2630 
Q 3353 2366 2925 2284 
Q 3203 2284 3497 2131 
Q 3791 1978 3978 1722 
Q 4166 1466 4166 1178 
Q 4166 828 3958 559 
Q 3750 291 3419 145 
Q 3088 0 2753 0 
L 219 0 
z
M 1434 428 
Q 1434 291 1512 258 
Q 1591 225 1759 225 
L 2572 225 
Q 2822 225 3036 356 
Q 3250 488 3375 708 
Q 3500 928 3500 1178 
Q 3500 1422 3397 1655 
Q 3294 1888 3101 2038 
Q 2909 2188 2663 2188 
L 1434 2188 
L 1434 428 
z
M 1434 2356 
L 2394 2356 
Q 2588 2356 2758 2426 
Q 2928 2497 3064 2630 
Q 3200 2763 3273 2930 
Q 3347 3097 3347 3284 
Q 3347 3450 3292 3603 
Q 3238 3756 3131 3881 
Q 3025 4006 2881 4076 
Q 2738 4147 2572 4147 
L 1759 4147 
Q 1644 4147 1580 4137 
Q 1516 4128 1475 4083 
Q 1434 4038 1434 3944 
L 1434 2356 
z
" transform="scale(0.015625)"/>
       <path id="Cmr10-6f" d="M 1600 -72 
Q 1216 -72 887 123 
Q 559 319 368 647 
Q 178 975 178 1363 
Q 178 1656 283 1928 
Q 388 2200 583 2414 
Q 778 2628 1037 2748 
Q 1297 2869 1600 2869 
Q 1994 2869 2317 2661 
Q 2641 2453 2828 2104 
Q 3016 1756 3016 1363 
Q 3016 978 2825 648 
Q 2634 319 2307 123 
Q 1981 -72 1600 -72 
z
M 1600 116 
Q 2113 116 2284 487 
Q 2456 859 2456 1434 
Q 2456 1756 2422 1967 
Q 2388 2178 2272 2350 
Q 2200 2456 2089 2536 
Q 1978 2616 1854 2658 
Q 1731 2700 1600 2700 
Q 1400 2700 1220 2609 
Q 1041 2519 922 2350 
Q 803 2169 770 1951 
Q 738 1734 738 1434 
Q 738 1075 800 789 
Q 863 503 1052 309 
Q 1241 116 1600 116 
z
" transform="scale(0.015625)"/>
       <path id="Cmr10-7a" d="M 250 0 
Q 178 0 178 72 
L 178 122 
Q 178 147 197 166 
L 1984 2591 
L 1409 2591 
Q 1138 2591 961 2556 
Q 784 2522 670 2426 
Q 556 2331 504 2164 
Q 453 1997 453 1703 
L 269 1703 
L 341 2759 
L 2484 2759 
Q 2513 2759 2533 2739 
Q 2553 2719 2553 2688 
L 2553 2650 
Q 2553 2631 2541 2606 
L 750 184 
L 1363 184 
Q 1641 184 1827 218 
Q 2013 253 2144 384 
Q 2266 506 2311 712 
Q 2356 919 2381 1222 
L 2566 1222 
L 2456 0 
L 250 0 
z
" transform="scale(0.015625)"/>
       <path id="Cmr10-65" d="M 1594 -72 
Q 1203 -72 876 133 
Q 550 338 364 680 
Q 178 1022 178 1403 
Q 178 1778 348 2115 
Q 519 2453 823 2661 
Q 1128 2869 1503 2869 
Q 1797 2869 2014 2770 
Q 2231 2672 2372 2497 
Q 2513 2322 2584 2084 
Q 2656 1847 2656 1563 
Q 2656 1478 2591 1478 
L 738 1478 
L 738 1409 
Q 738 878 952 497 
Q 1166 116 1650 116 
Q 1847 116 2014 203 
Q 2181 291 2304 447 
Q 2428 603 2472 781 
Q 2478 803 2495 820 
Q 2513 838 2534 838 
L 2591 838 
Q 2656 838 2656 756 
Q 2566 394 2266 161 
Q 1966 -72 1594 -72 
z
M 744 1638 
L 2203 1638 
Q 2203 1878 2136 2125 
Q 2069 2372 1912 2536 
Q 1756 2700 1503 2700 
Q 1141 2700 942 2361 
Q 744 2022 744 1638 
z
" transform="scale(0.015625)"/>
       <path id="Cmr10-72" d="M 166 0 
L 166 225 
Q 384 225 525 259 
Q 666 294 666 428 
L 666 2175 
Q 666 2347 614 2423 
Q 563 2500 466 2517 
Q 369 2534 166 2534 
L 166 2759 
L 1081 2828 
L 1081 2203 
Q 1184 2481 1375 2654 
Q 1566 2828 1838 2828 
Q 2028 2828 2178 2715 
Q 2328 2603 2328 2419 
Q 2328 2303 2245 2217 
Q 2163 2131 2041 2131 
Q 1922 2131 1837 2215 
Q 1753 2300 1753 2419 
Q 1753 2591 1875 2663 
L 1838 2663 
Q 1578 2663 1414 2475 
Q 1250 2288 1181 2009 
Q 1113 1731 1113 1478 
L 1113 428 
Q 1113 225 1734 225 
L 1734 0 
L 166 0 
z
" transform="scale(0.015625)"/>
      </defs>
      <use xlink:href="#Cmmi10-b3" transform="translate(0 0.078125)"/>
      <use xlink:href="#Cmr10-42" transform="translate(43.701172 -16.928125) scale(0.7)"/>
      <use xlink:href="#Cmr10-6f" transform="translate(93.261719 -16.928125) scale(0.7)"/>
      <use xlink:href="#Cmr10-6f" transform="translate(128.261719 -16.928125) scale(0.7)"/>
      <use xlink:href="#Cmr10-7a" transform="translate(163.261719 -16.928125) scale(0.7)"/>
      <use xlink:href="#Cmr10-65" transform="translate(194.331055 -16.928125) scale(0.7)"/>
      <use xlink:href="#Cmr10-72" transform="translate(225.400391 -16.928125) scale(0.7)"/>
     </g>
    </g>
   </g>
   <g id="matplotlib.axis_2">
    <g id="ytick_1">
     <g id="line2d_6">
      <defs>
       <path id="m51f4f7d8fd" d="M 0 0 
L -3.5 0 
" style="stroke: #000000; stroke-width: 0.8"/>
      </defs>
      <g>
       <use xlink:href="#m51f4f7d8fd" x="107.665625" y="284.294375" style="stroke: #000000; stroke-width: 0.8"/>
      </g>
     </g>
     <g id="text_7">
      <!-- 0 -->
      <g transform="translate(82.850625 294.932187) scale(0.28 -0.28)">
       <use xlink:href="#DejaVuSerif-30"/>
      </g>
     </g>
    </g>
    <g id="ytick_2">
     <g id="line2d_7">
      <g>
       <use xlink:href="#m51f4f7d8fd" x="107.665625" y="218.580234" style="stroke: #000000; stroke-width: 0.8"/>
      </g>
     </g>
     <g id="text_8">
      <!-- $\pi/2$ -->
      <g transform="translate(56.705625 229.080234) scale(0.28 -0.28)">
       <use xlink:href="#Cmmi10-bc"/>
       <use xlink:href="#Cmmi10-3d" transform="translate(56.982422 0)"/>
       <use xlink:href="#Cmr10-32" transform="translate(106.982422 0)"/>
      </g>
     </g>
    </g>
    <g id="ytick_3">
     <g id="line2d_8">
      <g>
       <use xlink:href="#m51f4f7d8fd" x="107.665625" y="152.866094" style="stroke: #000000; stroke-width: 0.8"/>
      </g>
     </g>
     <g id="text_9">
      <!-- $\pi$ -->
      <g transform="translate(84.705625 163.503906) scale(0.28 -0.28)">
       <use xlink:href="#Cmmi10-bc" transform="translate(0 0.890625)"/>
      </g>
     </g>
    </g>
    <g id="ytick_4">
     <g id="line2d_9">
      <g>
       <use xlink:href="#m51f4f7d8fd" x="107.665625" y="87.151953" style="stroke: #000000; stroke-width: 0.8"/>
      </g>
     </g>
     <g id="text_10">
      <!-- $3\pi/2$ -->
      <g transform="translate(42.705625 97.651953) scale(0.28 -0.28)">
       <use xlink:href="#Cmr10-33"/>
       <use xlink:href="#Cmmi10-bc" transform="translate(50 0)"/>
       <use xlink:href="#Cmmi10-3d" transform="translate(106.982422 0)"/>
       <use xlink:href="#Cmr10-32" transform="translate(156.982422 0)"/>
      </g>
     </g>
    </g>
    <g id="ytick_5">
     <g id="line2d_10">
      <g>
       <use xlink:href="#m51f4f7d8fd" x="107.665625" y="21.437813" style="stroke: #000000; stroke-width: 0.8"/>
      </g>
     </g>
     <g id="text_11">
      <!-- $2\pi$ -->
      <g transform="translate(70.705625 32.075625) scale(0.28 -0.28)">
       <use xlink:href="#Cmr10-32" transform="translate(0 0.390625)"/>
       <use xlink:href="#Cmmi10-bc" transform="translate(50 0.390625)"/>
      </g>
     </g>
    </g>
    <g id="text_12">
     <!-- $\theta_{\mathrm{Boozer}}$ -->
     <g transform="translate(36.634687 197.576094) rotate(-90) scale(0.34 -0.34)">
      <defs>
       <path id="Cmmi10-b5" d="M 1031 -72 
Q 741 -72 566 140 
Q 391 353 323 653 
Q 256 953 256 1247 
L 256 1253 
Q 256 1572 317 1915 
Q 378 2259 493 2601 
Q 609 2944 744 3213 
Q 838 3400 986 3631 
Q 1134 3863 1317 4064 
Q 1500 4266 1711 4389 
Q 1922 4513 2138 4513 
L 2144 4513 
Q 2375 4513 2529 4384 
Q 2684 4256 2770 4056 
Q 2856 3856 2890 3628 
Q 2925 3400 2925 3194 
Q 2925 2709 2794 2204 
Q 2663 1700 2431 1228 
Q 2344 1050 2189 809 
Q 2034 569 1861 378 
Q 1688 188 1472 58 
Q 1256 -72 1038 -72 
L 1031 -72 
z
M 1044 97 
Q 1256 97 1451 323 
Q 1647 550 1794 873 
Q 1941 1197 2052 1536 
Q 2163 1875 2216 2113 
L 909 2113 
Q 809 1709 753 1417 
Q 697 1125 697 844 
Q 697 97 1044 97 
z
M 959 2338 
L 2272 2338 
Q 2341 2619 2381 2808 
Q 2422 2997 2450 3206 
Q 2478 3416 2478 3597 
Q 2478 4347 2138 4347 
Q 1731 4347 1436 3692 
Q 1141 3038 959 2338 
z
" transform="scale(0.015625)"/>
      </defs>
      <use xlink:href="#Cmmi10-b5" transform="translate(0 0.484375)"/>
      <use xlink:href="#Cmr10-42" transform="translate(46.923828 -16.521875) scale(0.7)"/>
      <use xlink:href="#Cmr10-6f" transform="translate(96.484375 -16.521875) scale(0.7)"/>
      <use xlink:href="#Cmr10-6f" transform="translate(131.484375 -16.521875) scale(0.7)"/>
      <use xlink:href="#Cmr10-7a" transform="translate(166.484375 -16.521875) scale(0.7)"/>
      <use xlink:href="#Cmr10-65" transform="translate(197.553711 -16.521875) scale(0.7)"/>
      <use xlink:href="#Cmr10-72" transform="translate(228.623047 -16.521875) scale(0.7)"/>
     </g>
    </g>
   </g>
   <g id="QuadContourSet_1">
    <path d="M 226.992125 152.866094 
L 226.992125 152.866094 
L 226.992125 152.866094 
L 226.992125 152.866094 
L 226.992125 152.866094 
z
" clip-path="url(#pd84a8cf182)" style="fill: none; stroke: #000080"/>
    <path d="M 217.062218 284.294375 
L 220.738634 263.849976 
L 223.430992 246.326205 
L 224.053301 240.484948 
L 224.98343 228.802434 
L 225.165984 222.961177 
L 225.126906 217.11992 
L 224.861066 211.278663 
L 224.101033 202.516778 
L 223.460989 196.675521 
L 222.639845 190.834264 
L 219.721411 173.310493 
L 218.677669 167.469236 
L 216.668562 155.786722 
L 216.174379 152.866094 
L 212.695823 129.501066 
L 211.293654 117.818552 
L 210.777622 111.977295 
L 210.29112 103.21541 
L 210.162057 97.374153 
L 210.199685 91.532896 
L 210.530109 82.77101 
L 211.081925 73.941935 
L 213.375795 47.723469 
L 214.010955 41.882212 
L 215.625756 30.199698 
L 216.513641 24.358441 
L 217.062218 21.437813 
M 236.922032 21.437813 
L 233.245616 41.882212 
L 230.553258 59.405983 
L 229.930949 65.24724 
L 229.00082 76.929753 
L 228.818266 82.77101 
L 228.857344 88.612267 
L 229.123184 94.453524 
L 229.883217 103.21541 
L 230.523261 109.056667 
L 231.344405 114.897924 
L 234.262839 132.421694 
L 235.306581 138.262951 
L 237.315688 149.945465 
L 237.809871 152.866094 
L 241.288427 176.231122 
L 242.690596 187.913635 
L 243.206628 193.754892 
L 243.69313 202.516778 
L 243.822193 208.358035 
L 243.784565 214.199292 
L 243.454141 222.961177 
L 242.902325 231.790253 
L 240.608455 258.008719 
L 239.973295 263.849976 
L 238.358494 275.53249 
L 237.470609 281.373747 
L 236.922032 284.294375 
L 236.922032 284.294375 
" clip-path="url(#pd84a8cf182)" style="fill: none; stroke: #0000a4"/>
    <path d="M 212.353904 284.294375 
L 215.65098 266.770604 
L 218.023348 252.167462 
L 219.093513 243.405576 
L 219.743824 237.564319 
L 220.206072 231.723062 
L 220.477054 225.881806 
L 220.550208 220.040549 
L 220.418642 214.199292 
L 220.078213 208.358035 
L 219.529569 202.516778 
L 218.036714 190.834264 
L 216.597723 182.072378 
L 210.317485 147.024837 
L 207.299249 129.501066 
L 205.517856 117.818552 
L 204.483001 109.056667 
L 203.963546 103.21541 
L 203.627657 97.374153 
L 203.504632 91.532896 
L 203.603218 85.691639 
L 203.907246 79.850382 
L 204.665387 71.088497 
L 205.778525 61.33215 
L 207.251148 50.644097 
L 208.586516 41.882212 
L 211.187051 27.279069 
L 212.353904 21.437813 
M 241.630346 21.437813 
L 238.33327 38.961583 
L 235.960902 53.564726 
L 234.890737 62.326611 
L 234.240426 68.167868 
L 233.778178 74.009125 
L 233.507196 79.850382 
L 233.434042 85.691639 
L 233.565608 91.532896 
L 233.906037 97.374153 
L 234.454681 103.21541 
L 235.947536 114.897924 
L 237.386527 123.659809 
L 243.666765 158.707351 
L 246.685001 176.231122 
L 248.466394 187.913635 
L 249.501249 196.675521 
L 250.020704 202.516778 
L 250.356593 208.358035 
L 250.479618 214.199292 
L 250.381032 220.040549 
L 250.077004 225.881806 
L 249.318863 234.643691 
L 248.205725 244.400037 
L 246.733102 255.08809 
L 245.397734 263.849976 
L 242.797199 278.453118 
L 241.630346 284.294375 
L 241.630346 284.294375 
" clip-path="url(#pd84a8cf182)" style="fill: none; stroke: #0000cd"/>
    <path d="M 208.716878 284.294375 
L 210.569374 275.53249 
L 213.302421 260.929347 
L 215.501768 246.326205 
L 216.411471 237.564319 
L 216.889951 231.723062 
L 217.161981 225.881806 
L 217.217705 220.040549 
L 217.049996 214.199292 
L 216.657648 208.358035 
L 215.754814 199.596149 
L 214.960342 193.754892 
L 213.517149 184.993007 
L 211.959251 176.231122 
L 203.960548 135.342323 
L 202.306239 126.580438 
L 200.308456 114.897924 
L 199.155448 106.136038 
L 198.574803 100.294781 
L 198.193169 94.453524 
L 198.044134 88.612267 
L 198.145999 82.77101 
L 198.496334 76.929753 
L 199.071263 71.088497 
L 199.830737 65.24724 
L 200.751734 59.405983 
L 202.982339 47.723469 
L 205.778525 34.740923 
L 208.716878 21.437813 
M 245.267372 21.437813 
L 243.414876 30.199698 
L 240.681829 44.80284 
L 238.482482 59.405983 
L 237.572779 68.167868 
L 237.094299 74.009125 
L 236.822269 79.850382 
L 236.766545 85.691639 
L 236.934254 91.532896 
L 237.326602 97.374153 
L 238.229436 106.136038 
L 239.023908 111.977295 
L 240.467101 120.739181 
L 242.024999 129.501066 
L 250.023702 170.389865 
L 251.678011 179.15175 
L 253.675794 190.834264 
L 254.828802 199.596149 
L 255.409447 205.437406 
L 255.791081 211.278663 
L 255.940116 217.11992 
L 255.838251 222.961177 
L 255.487916 228.802434 
L 254.912987 234.643691 
L 254.153513 240.484948 
L 253.232516 246.326205 
L 251.001911 258.008719 
L 248.205725 270.991265 
L 245.267372 284.294375 
L 245.267372 284.294375 
" clip-path="url(#pd84a8cf182)" style="fill: none; stroke: #0000f6"/>
    <path d="M 205.615212 284.294375 
L 208.256797 272.611861 
L 210.529686 260.929347 
L 212.396547 249.246833 
L 213.134469 243.405576 
L 213.970983 234.643691 
L 214.330767 228.802434 
L 214.467571 222.961177 
L 214.371398 217.11992 
L 214.03952 211.278663 
L 213.175014 202.516778 
L 212.386184 196.675521 
L 210.926608 187.913635 
L 209.310959 179.15175 
L 205.125471 158.707351 
L 197.218424 120.739181 
L 195.730441 111.977295 
L 194.910888 106.136038 
L 194.306168 100.294781 
L 193.896899 94.453524 
L 193.708468 88.612267 
L 193.755582 82.77101 
L 194.039387 76.929753 
L 194.546596 71.088497 
L 195.266688 65.24724 
L 196.297076 59.405983 
L 197.823425 51.955095 
L 199.599439 44.80284 
L 201.901113 36.040955 
L 205.615212 21.437813 
M 248.369038 21.437813 
L 245.727453 33.120326 
L 243.454564 44.80284 
L 241.587703 56.485354 
L 240.849781 62.326611 
L 240.013267 71.088497 
L 239.653483 76.929753 
L 239.516679 82.77101 
L 239.612852 88.612267 
L 239.94473 94.453524 
L 240.809236 103.21541 
L 241.598066 109.056667 
L 243.057642 117.818552 
L 244.673291 126.580438 
L 248.858779 147.024837 
L 256.765826 184.993007 
L 258.253809 193.754892 
L 259.073362 199.596149 
L 259.678082 205.437406 
L 260.087351 211.278663 
L 260.275782 217.11992 
L 260.228668 222.961177 
L 259.944863 228.802434 
L 259.437654 234.643691 
L 258.717562 240.484948 
L 257.687174 246.326205 
L 256.160825 253.777092 
L 254.384811 260.929347 
L 252.083137 269.691233 
L 248.369038 284.294375 
L 248.369038 284.294375 
" clip-path="url(#pd84a8cf182)" style="fill: none; stroke: #000cff"/>
    <path d="M 202.821826 284.294375 
L 205.030549 275.53249 
L 207.531781 263.849976 
L 209.56738 252.167462 
L 210.394052 246.326205 
L 211.359704 237.564319 
L 211.801042 231.723062 
L 212.016611 225.881806 
L 211.99242 220.040549 
L 211.722448 214.199292 
L 211.081925 207.218744 
L 210.519121 202.516778 
L 209.653423 196.675521 
L 208.096737 187.913635 
L 206.367667 179.15175 
L 201.955463 158.707351 
L 194.798547 126.580438 
L 192.575566 114.897924 
L 191.693758 109.056667 
L 190.981633 103.21541 
L 190.466849 97.374153 
L 190.174379 91.532896 
L 190.119673 85.691639 
L 190.306693 79.850382 
L 190.727352 74.009125 
L 191.362973 68.167868 
L 192.520025 60.306306 
L 193.289122 56.485354 
L 195.299374 47.723469 
L 198.646223 36.040955 
L 202.041568 24.358441 
L 202.821826 21.437813 
M 251.162424 21.437813 
L 248.953701 30.199698 
L 246.452469 41.882212 
L 244.41687 53.564726 
L 243.590198 59.405983 
L 242.624546 68.167868 
L 242.183208 74.009125 
L 241.967639 79.850382 
L 241.99183 85.691639 
L 242.261802 91.532896 
L 242.902325 98.513443 
L 243.465129 103.21541 
L 244.330827 109.056667 
L 245.887513 117.818552 
L 247.616583 126.580438 
L 252.028787 147.024837 
L 259.185703 179.15175 
L 261.408684 190.834264 
L 262.290492 196.675521 
L 263.002617 202.516778 
L 263.517401 208.358035 
L 263.809871 214.199292 
L 263.864577 220.040549 
L 263.677557 225.881806 
L 263.256898 231.723062 
L 262.621277 237.564319 
L 261.464225 245.425881 
L 260.695128 249.246833 
L 258.684876 258.008719 
L 255.338027 269.691233 
L 251.942682 281.373747 
L 251.162424 284.294375 
L 251.162424 284.294375 
" clip-path="url(#pd84a8cf182)" style="fill: none; stroke: #0030ff"/>
    <path d="M 200.224627 284.294375 
L 202.603283 275.53249 
L 204.648869 266.770604 
L 206.372549 258.008719 
L 207.369843 252.167462 
L 208.577724 243.405576 
L 209.204991 237.564319 
L 209.615791 231.723062 
L 209.790127 225.881806 
L 209.71219 220.040549 
L 209.3777 214.199292 
L 208.798029 208.358035 
L 208.015014 202.516778 
L 207.071175 196.675521 
L 205.412096 187.913635 
L 202.945334 176.231122 
L 199.652677 161.627979 
L 190.952215 123.659809 
L 189.304454 114.897924 
L 188.415297 109.056667 
L 187.716548 103.21541 
L 187.216625 97.003224 
L 187.003642 91.532896 
L 187.007246 85.691639 
L 187.239276 79.850382 
L 187.712474 74.009125 
L 188.393521 68.167868 
L 189.25841 62.326611 
L 190.337416 56.485354 
L 192.339337 47.723469 
L 193.139479 44.80284 
L 195.729762 36.040955 
L 199.376299 24.358441 
L 200.224627 21.437813 
M 253.759623 21.437813 
L 251.380967 30.199698 
L 249.335381 38.961583 
L 247.611701 47.723469 
L 246.614407 53.564726 
L 245.406526 62.326611 
L 244.779259 68.167868 
L 244.368459 74.009125 
L 244.194123 79.850382 
L 244.27206 85.691639 
L 244.60655 91.532896 
L 245.186221 97.374153 
L 245.969236 103.21541 
L 246.913075 109.056667 
L 248.572154 117.818552 
L 251.038916 129.501066 
L 254.331573 144.104208 
L 263.032035 182.072378 
L 264.679796 190.834264 
L 265.568953 196.675521 
L 266.267702 202.516778 
L 266.767625 208.728964 
L 266.980608 214.199292 
L 266.977004 220.040549 
L 266.744974 225.881806 
L 266.271776 231.723062 
L 265.590729 237.564319 
L 264.72584 243.405576 
L 263.646834 249.246833 
L 261.644913 258.008719 
L 260.844771 260.929347 
L 258.254488 269.691233 
L 254.607951 281.373747 
L 253.759623 284.294375 
L 253.759623 284.294375 
" clip-path="url(#pd84a8cf182)" style="fill: none; stroke: #0050ff"/>
    <path d="M 197.77706 284.294375 
L 200.307205 275.53249 
L 201.797683 269.691233 
L 203.714058 260.929347 
L 204.814114 255.08809 
L 206.178701 246.326205 
L 206.888313 240.484948 
L 207.383405 234.643691 
L 207.639746 228.802434 
L 207.635088 222.961177 
L 207.359691 217.11992 
L 206.823457 211.278663 
L 206.054222 205.437406 
L 204.575812 196.675521 
L 202.821233 187.913635 
L 200.250753 176.231122 
L 196.839236 161.627979 
L 187.836902 123.659809 
L 186.683623 117.818552 
L 185.699779 111.977295 
L 184.917296 106.136038 
L 184.366128 100.294781 
L 184.066503 94.453524 
L 184.019759 88.612267 
L 184.218719 82.77101 
L 184.650043 76.929753 
L 185.304143 71.088497 
L 186.149086 65.24724 
L 187.216625 59.130682 
L 189.065468 50.644097 
L 190.557735 44.80284 
L 193.1269 36.040955 
L 197.77706 21.437813 
M 256.20719 21.437813 
L 253.677045 30.199698 
L 252.186567 36.040955 
L 250.270192 44.80284 
L 249.170136 50.644097 
L 247.805549 59.405983 
L 247.095937 65.24724 
L 246.600845 71.088497 
L 246.344504 76.929753 
L 246.349162 82.77101 
L 246.624559 88.612267 
L 247.160793 94.453524 
L 247.930028 100.294781 
L 249.408438 109.056667 
L 251.163017 117.818552 
L 253.733497 129.501066 
L 257.145014 144.104208 
L 266.147348 182.072378 
L 267.300627 187.913635 
L 268.284471 193.754892 
L 269.066954 199.596149 
L 269.618122 205.437406 
L 269.917747 211.278663 
L 269.964491 217.11992 
L 269.765531 222.961177 
L 269.334207 228.802434 
L 268.680107 234.643691 
L 267.835164 240.484948 
L 266.767625 246.601505 
L 264.918782 255.08809 
L 263.426515 260.929347 
L 260.85735 269.691233 
L 256.20719 284.294375 
L 256.20719 284.294375 
" clip-path="url(#pd84a8cf182)" style="fill: none; stroke: #0074ff"/>
    <path d="M 195.462176 284.294375 
L 197.823425 276.523572 
L 198.916688 272.611861 
L 200.475125 266.347046 
L 201.685964 260.929347 
L 203.126825 253.313604 
L 203.80315 249.246833 
L 204.603434 243.405576 
L 205.191387 237.564319 
L 205.538266 231.723062 
L 205.61398 225.881806 
L 205.401701 220.040549 
L 204.909185 214.199292 
L 204.168155 208.358035 
L 203.126825 201.987467 
L 201.536291 193.754892 
L 198.985427 182.072378 
L 195.171725 165.969855 
L 190.43024 147.024837 
L 186.068852 129.501066 
L 184.145447 120.739181 
L 183.056454 114.897924 
L 182.179743 109.056667 
L 181.541458 103.21541 
L 181.165095 97.374153 
L 181.05852 91.532896 
L 181.21766 85.691639 
L 181.630214 79.850382 
L 182.274857 74.009125 
L 183.124161 68.167868 
L 184.564925 60.261705 
L 185.356261 56.485354 
L 187.430325 47.723469 
L 189.868325 38.904583 
L 193.574691 27.279069 
L 195.462176 21.437813 
M 258.522074 21.437813 
L 256.160825 29.208615 
L 255.067562 33.120326 
L 253.509125 39.385142 
L 252.298286 44.80284 
L 250.857425 52.418583 
L 250.1811 56.485354 
L 249.380816 62.326611 
L 248.792863 68.167868 
L 248.445984 74.009125 
L 248.37027 79.850382 
L 248.582549 85.691639 
L 249.075065 91.532896 
L 249.816095 97.374153 
L 250.857425 103.74472 
L 252.447959 111.977295 
L 254.998823 123.659809 
L 258.812525 139.762332 
L 263.55401 158.707351 
L 267.915398 176.231122 
L 269.838803 184.993007 
L 270.927796 190.834264 
L 271.804507 196.675521 
L 272.442792 202.516778 
L 272.819155 208.358035 
L 272.92573 214.199292 
L 272.76659 220.040549 
L 272.354036 225.881806 
L 271.709393 231.723062 
L 270.860089 237.564319 
L 269.419325 245.470483 
L 268.627989 249.246833 
L 266.553925 258.008719 
L 264.115925 266.827605 
L 260.409559 278.453118 
L 258.522074 284.294375 
L 258.522074 284.294375 
" clip-path="url(#pd84a8cf182)" style="fill: none; stroke: #0098ff"/>
    <path d="M 193.239253 284.294375 
L 195.968184 275.53249 
L 197.823425 268.795633 
L 199.041494 263.849976 
L 200.475125 257.159151 
L 201.404989 252.167462 
L 202.309265 246.326205 
L 203.003211 240.484948 
L 203.449636 234.643691 
L 203.610759 228.802434 
L 203.469684 222.961177 
L 203.029066 217.11992 
L 202.313575 211.278663 
L 201.383066 205.437406 
L 199.691964 196.675521 
L 197.113978 184.993007 
L 193.609014 170.389865 
L 189.868325 155.735189 
L 182.978491 129.501066 
L 180.998625 120.739181 
L 179.907843 114.897924 
L 179.050554 109.056667 
L 178.4506 103.21541 
L 178.128309 97.374153 
L 178.087864 91.532896 
L 178.326177 85.691639 
L 178.833522 79.850382 
L 179.586696 74.009125 
L 180.550161 68.167868 
L 181.913225 61.399812 
L 183.70589 53.564726 
L 185.990599 44.80284 
L 188.54188 36.040955 
L 191.329737 27.279069 
L 193.239253 21.437813 
M 260.744997 21.437813 
L 258.016066 30.199698 
L 256.160825 36.936554 
L 254.942756 41.882212 
L 253.509125 48.573037 
L 252.579261 53.564726 
L 251.674985 59.405983 
L 250.981039 65.24724 
L 250.534614 71.088497 
L 250.373491 76.929753 
L 250.514566 82.77101 
L 250.955184 88.612267 
L 251.670675 94.453524 
L 252.601184 100.294781 
L 254.292286 109.056667 
L 256.870272 120.739181 
L 260.375236 135.342323 
L 264.115925 149.996999 
L 271.005759 176.231122 
L 272.985625 184.993007 
L 274.076407 190.834264 
L 274.933696 196.675521 
L 275.53365 202.516778 
L 275.855941 208.358035 
L 275.896386 214.199292 
L 275.658073 220.040549 
L 275.150728 225.881806 
L 274.397554 231.723062 
L 273.434089 237.564319 
L 272.071025 244.332376 
L 270.27836 252.167462 
L 267.993651 260.929347 
L 265.44237 269.691233 
L 262.654513 278.453118 
L 260.744997 284.294375 
L 260.744997 284.294375 
" clip-path="url(#pd84a8cf182)" style="fill: none; stroke: #00bcff"/>
    <path d="M 191.074236 284.294375 
L 193.847193 275.53249 
L 195.533903 269.691233 
L 197.036259 263.849976 
L 198.357667 258.008719 
L 199.479528 252.167462 
L 200.475125 245.777989 
L 201.082256 240.484948 
L 201.485148 234.643691 
L 201.583091 228.802434 
L 201.361385 222.961177 
L 200.834759 217.11992 
L 200.033327 211.278663 
L 199.021691 205.437406 
L 197.243295 196.675521 
L 194.574924 184.993007 
L 190.947174 170.389865 
L 187.844629 158.707351 
L 184.564925 146.921357 
L 181.317398 135.342323 
L 179.077117 126.580438 
L 177.778862 120.739181 
L 176.609825 114.25259 
L 175.883237 109.056667 
L 175.331019 103.21541 
L 175.061689 97.374153 
L 175.080237 91.532896 
L 175.387162 85.691639 
L 175.978174 79.850382 
L 176.836962 74.009125 
L 177.919201 68.167868 
L 179.261525 62.142344 
L 181.400418 53.564726 
L 184.657895 41.882212 
L 187.302989 33.120326 
L 191.074236 21.437813 
M 262.910014 21.437813 
L 260.137057 30.199698 
L 258.450347 36.040955 
L 256.947991 41.882212 
L 255.626583 47.723469 
L 254.504722 53.564726 
L 253.509125 59.954198 
L 252.901994 65.24724 
L 252.499102 71.088497 
L 252.401159 76.929753 
L 252.622865 82.77101 
L 253.149491 88.612267 
L 253.950923 94.453524 
L 254.962559 100.294781 
L 256.740955 109.056667 
L 259.409326 120.739181 
L 263.037076 135.342323 
L 266.139621 147.024837 
L 269.419325 158.81083 
L 272.666852 170.389865 
L 274.907133 179.15175 
L 276.205388 184.993007 
L 277.374425 191.479597 
L 278.101013 196.675521 
L 278.653231 202.516778 
L 278.922561 208.358035 
L 278.904013 214.199292 
L 278.597088 220.040549 
L 278.006076 225.881806 
L 277.147288 231.723062 
L 276.065049 237.564319 
L 274.722725 243.589843 
L 272.583832 252.167462 
L 269.326355 263.849976 
L 266.681261 272.611861 
L 262.910014 284.294375 
L 262.910014 284.294375 
" clip-path="url(#pd84a8cf182)" style="fill: none; stroke: #00e0fb"/>
    <path d="M 188.939348 284.294375 
L 192.614361 272.611861 
L 195.017848 263.849976 
L 196.37323 258.008719 
L 197.823425 250.509767 
L 198.459848 246.326205 
L 199.11619 240.484948 
L 199.476051 234.643691 
L 199.504077 228.802434 
L 199.192789 222.961177 
L 198.572754 217.11992 
L 197.69681 211.278663 
L 196.013282 202.516778 
L 194.075151 193.754892 
L 191.248398 182.072378 
L 188.197825 170.389865 
L 185.75622 161.627979 
L 181.913225 148.511162 
L 178.865923 138.262951 
L 176.609825 129.981754 
L 175.765668 126.580438 
L 174.496543 120.739181 
L 173.462717 114.897924 
L 172.685092 109.056667 
L 172.180348 103.21541 
L 171.957405 97.374153 
L 172.024023 91.532896 
L 172.386018 85.691639 
L 173.045972 79.850382 
L 174.000428 74.009125 
L 175.193621 68.167868 
L 176.628422 62.326611 
L 178.192642 56.485354 
L 182.50196 41.882212 
L 187.053791 27.279069 
L 188.939348 21.437813 
M 265.044902 21.437813 
L 261.369889 33.120326 
L 258.966402 41.882212 
L 257.61102 47.723469 
L 256.160825 55.22242 
L 255.524402 59.405983 
L 254.86806 65.24724 
L 254.508199 71.088497 
L 254.480173 76.929753 
L 254.791461 82.77101 
L 255.411496 88.612267 
L 256.28744 94.453524 
L 257.970968 103.21541 
L 259.909099 111.977295 
L 262.735852 123.659809 
L 265.786425 135.342323 
L 268.22803 144.104208 
L 272.071025 157.221026 
L 275.118327 167.469236 
L 277.374425 175.750433 
L 278.218582 179.15175 
L 279.487707 184.993007 
L 280.521533 190.834264 
L 281.299158 196.675521 
L 281.803902 202.516778 
L 282.026845 208.358035 
L 281.960227 214.199292 
L 281.598232 220.040549 
L 280.938278 225.881806 
L 279.983822 231.723062 
L 278.790629 237.564319 
L 277.355828 243.405576 
L 275.791608 249.246833 
L 271.48229 263.849976 
L 266.930459 278.453118 
L 265.044902 284.294375 
L 265.044902 284.294375 
" clip-path="url(#pd84a8cf182)" style="fill: none; stroke: #19ffde"/>
    <path d="M 186.809604 284.294375 
L 190.474246 272.611861 
L 192.935707 263.849976 
L 194.333569 258.008719 
L 195.526647 252.167462 
L 196.44373 246.326205 
L 197.084237 240.484948 
L 197.3958 234.643691 
L 197.343508 228.802434 
L 196.933747 222.961177 
L 196.216566 217.11992 
L 195.171725 210.771575 
L 193.477645 202.516778 
L 191.45701 193.754892 
L 188.507513 182.072378 
L 186.119751 173.310493 
L 183.572881 164.548608 
L 179.261525 150.603827 
L 176.609825 142.118857 
L 174.615243 135.342323 
L 173.075747 129.501066 
L 171.742101 123.659809 
L 170.634126 117.818552 
L 169.772489 111.977295 
L 169.173302 106.136038 
L 168.846574 100.294781 
L 168.803971 94.453524 
L 169.057721 88.612267 
L 169.61863 82.77101 
L 170.493839 76.929753 
L 171.669726 71.088497 
L 173.099522 65.24724 
L 175.630138 56.485354 
L 186.809604 21.437813 
M 267.174646 21.437813 
L 263.510004 33.120326 
L 261.048543 41.882212 
L 259.650681 47.723469 
L 258.457603 53.564726 
L 257.54052 59.405983 
L 256.900013 65.24724 
L 256.58845 71.088497 
L 256.640742 76.929753 
L 257.050503 82.77101 
L 257.767684 88.612267 
L 258.812525 94.960612 
L 260.506605 103.21541 
L 262.52724 111.977295 
L 265.476737 123.659809 
L 267.864499 132.421694 
L 270.411369 141.18358 
L 274.722725 155.12836 
L 277.374425 163.613331 
L 279.369007 170.389865 
L 280.908503 176.231122 
L 282.242149 182.072378 
L 283.350124 187.913635 
L 284.211761 193.754892 
L 284.810948 199.596149 
L 285.137676 205.437406 
L 285.180279 211.278663 
L 284.926529 217.11992 
L 284.36562 222.961177 
L 283.490411 228.802434 
L 282.314524 234.643691 
L 280.884728 240.484948 
L 278.354112 249.246833 
L 267.174646 284.294375 
L 267.174646 284.294375 
" clip-path="url(#pd84a8cf182)" style="fill: none; stroke: #33ffc4"/>
    <path d="M 184.654696 284.294375 
L 189.138231 269.691233 
L 190.759861 263.849976 
L 192.520025 256.62064 
L 193.402107 252.167462 
L 194.329956 246.326205 
L 194.950847 240.484948 
L 195.201039 234.643691 
L 195.060459 228.802434 
L 194.546756 222.961177 
L 193.731839 217.11992 
L 192.520025 210.355826 
L 190.809581 202.516778 
L 188.689357 193.754892 
L 186.390451 184.993007 
L 183.912029 176.231122 
L 180.308725 164.548608 
L 176.489629 152.866094 
L 173.653859 144.104208 
L 171.306425 136.138967 
L 170.306763 132.421694 
L 168.654725 125.308654 
L 167.741136 120.739181 
L 166.796271 114.897924 
L 166.100912 109.056667 
L 165.651751 103.21541 
L 165.485228 97.374153 
L 165.625205 91.532896 
L 166.087007 85.691639 
L 166.857467 79.850382 
L 167.962141 74.009125 
L 169.368581 68.167868 
L 171.306425 61.53496 
L 172.915556 56.485354 
L 180.897803 33.120326 
L 184.654696 21.437813 
M 269.329554 21.437813 
L 264.846019 36.040955 
L 263.224389 41.882212 
L 261.464225 49.111547 
L 260.582143 53.564726 
L 259.654294 59.405983 
L 259.033403 65.24724 
L 258.783211 71.088497 
L 258.923791 76.929753 
L 259.437494 82.77101 
L 260.252411 88.612267 
L 261.464225 95.376362 
L 263.174669 103.21541 
L 265.294893 111.977295 
L 267.593799 120.739181 
L 270.072221 129.501066 
L 273.675525 141.18358 
L 277.494621 152.866094 
L 280.330391 161.627979 
L 282.677825 169.593221 
L 283.677487 173.310493 
L 285.329525 180.423534 
L 286.243114 184.993007 
L 287.187979 190.834264 
L 287.883338 196.675521 
L 288.332499 202.516778 
L 288.499022 208.358035 
L 288.359045 214.199292 
L 287.897243 220.040549 
L 287.126783 225.881806 
L 286.022109 231.723062 
L 284.615669 237.564319 
L 282.677825 244.197227 
L 281.068694 249.246833 
L 273.086447 272.611861 
L 269.329554 284.294375 
L 269.329554 284.294375 
" clip-path="url(#pd84a8cf182)" style="fill: none; stroke: #50ffa7"/>
    <path d="M 182.420717 284.294375 
L 187.216625 268.442346 
L 189.230084 260.929347 
L 190.573355 255.08809 
L 191.646682 249.246833 
L 192.417937 243.405576 
L 192.652323 240.484948 
L 192.819194 234.643691 
L 192.599711 228.802434 
L 192.340056 225.881806 
L 191.563456 220.040549 
L 190.541582 214.199292 
L 189.322316 208.358035 
L 187.216625 199.454289 
L 184.107467 187.913635 
L 180.593653 176.231122 
L 177.731691 167.469236 
L 169.054048 141.18358 
L 167.421692 135.342323 
L 165.990303 129.501066 
L 164.733458 123.659809 
L 163.704605 117.818552 
L 162.889211 111.977295 
L 162.315337 106.136038 
L 162.021361 100.294781 
L 162.032054 94.453524 
L 162.371237 88.612267 
L 163.058423 82.77101 
L 164.072 76.929753 
L 165.424579 71.088497 
L 167.074461 65.24724 
L 168.998337 59.405983 
L 171.306425 53.057096 
L 175.484315 41.882212 
L 177.595522 36.040955 
L 180.551309 27.279069 
L 182.420717 21.437813 
M 271.563533 21.437813 
L 266.767625 37.289841 
L 264.754166 44.80284 
L 263.410895 50.644097 
L 262.337568 56.485354 
L 261.566313 62.326611 
L 261.331927 65.24724 
L 261.165056 71.088497 
L 261.384539 76.929753 
L 261.644194 79.850382 
L 262.420794 85.691639 
L 263.442668 91.532896 
L 264.661934 97.374153 
L 266.767625 106.277898 
L 269.876783 117.818552 
L 273.390597 129.501066 
L 276.252559 138.262951 
L 284.930202 164.548608 
L 286.562558 170.389865 
L 287.993947 176.231122 
L 289.250792 182.072378 
L 290.279645 187.913635 
L 291.095039 193.754892 
L 291.668913 199.596149 
L 291.962889 205.437406 
L 291.952196 211.278663 
L 291.613013 217.11992 
L 290.925827 222.961177 
L 289.91225 228.802434 
L 288.559671 234.643691 
L 286.909789 240.484948 
L 284.985913 246.326205 
L 282.677825 252.675091 
L 278.499935 263.849976 
L 276.388728 269.691233 
L 273.432941 278.453118 
L 271.563533 284.294375 
L 271.563533 284.294375 
" clip-path="url(#pd84a8cf182)" style="fill: none; stroke: #6dff8a"/>
    <path d="M 180.079521 284.294375 
L 183.594467 272.611861 
L 185.254982 266.770604 
L 187.506669 258.008719 
L 188.70805 252.167462 
L 189.628814 246.326205 
L 189.945328 243.405576 
L 190.244233 237.564319 
L 190.132535 231.723062 
L 189.61502 225.881806 
L 188.738236 220.040549 
L 187.216625 212.24701 
L 185.587375 205.437406 
L 184.078372 199.596149 
L 181.601984 190.834264 
L 177.91659 179.15175 
L 174.926261 170.389865 
L 166.932099 147.024837 
L 164.374014 138.262951 
L 162.193071 129.501066 
L 160.699625 122.150174 
L 159.934916 117.818552 
L 159.117912 111.977295 
L 158.559228 106.136038 
L 158.287191 100.294781 
L 158.330989 94.453524 
L 158.715711 88.612267 
L 159.459504 82.77101 
L 160.57389 76.929753 
L 162.009462 71.088497 
L 163.782789 65.24724 
L 166.003025 58.967017 
L 168.075282 53.564726 
L 171.644424 44.80284 
L 175.080695 36.040955 
L 177.201546 30.199698 
L 180.079521 21.437813 
M 273.904729 21.437813 
L 270.389783 33.120326 
L 268.729268 38.961583 
L 266.477581 47.723469 
L 265.2762 53.564726 
L 264.355436 59.405983 
L 264.038922 62.326611 
L 263.740017 68.167868 
L 263.851715 74.009125 
L 264.36923 79.850382 
L 265.246014 85.691639 
L 266.767625 93.485177 
L 268.396875 100.294781 
L 269.905878 106.136038 
L 272.382266 114.897924 
L 276.06766 126.580438 
L 279.057989 135.342323 
L 287.052151 158.707351 
L 289.610236 167.469236 
L 291.791179 176.231122 
L 293.284625 183.582014 
L 294.049334 187.913635 
L 294.866338 193.754892 
L 295.425022 199.596149 
L 295.697059 205.437406 
L 295.653261 211.278663 
L 295.268539 217.11992 
L 294.524746 222.961177 
L 293.41036 228.802434 
L 291.974788 234.643691 
L 290.201461 240.484948 
L 287.981225 246.76517 
L 285.908968 252.167462 
L 282.339826 260.929347 
L 278.903555 269.691233 
L 276.782704 275.53249 
L 273.904729 284.294375 
L 273.904729 284.294375 
" clip-path="url(#pd84a8cf182)" style="fill: none; stroke: #8aff6d"/>
    <path d="M 177.585628 284.294375 
L 180.227446 275.53249 
L 182.67488 266.770604 
L 184.880487 258.008719 
L 186.063215 252.167462 
L 186.948512 246.326205 
L 187.242123 243.405576 
L 187.471759 237.564319 
L 187.269197 231.723062 
L 186.998596 228.802434 
L 186.17283 222.961177 
L 185.069722 217.11992 
L 183.726495 211.278663 
L 181.423789 202.516778 
L 178.832221 193.754892 
L 175.984194 184.993007 
L 171.306425 171.70242 
L 167.667792 161.627979 
L 164.670195 152.866094 
L 161.946149 144.104208 
L 159.555032 135.342323 
L 158.047925 128.926271 
L 156.937629 123.659809 
L 155.91124 117.818552 
L 155.110714 111.977295 
L 154.568491 106.136038 
L 154.331009 100.294781 
L 154.426058 94.453524 
L 154.873921 88.612267 
L 155.683824 82.77101 
L 156.856611 76.929753 
L 158.394179 71.088497 
L 160.262361 65.24724 
L 163.351325 57.11883 
L 164.804301 53.564726 
L 171.306425 38.612283 
L 174.602901 30.199698 
L 176.662851 24.358441 
L 177.585628 21.437813 
M 276.398622 21.437813 
L 273.756804 30.199698 
L 271.30937 38.961583 
L 269.103763 47.723469 
L 267.921035 53.564726 
L 267.035738 59.405983 
L 266.742127 62.326611 
L 266.512491 68.167868 
L 266.715053 74.009125 
L 266.985654 76.929753 
L 267.81142 82.77101 
L 268.914528 88.612267 
L 270.257755 94.453524 
L 272.560461 103.21541 
L 275.152029 111.977295 
L 278.000056 120.739181 
L 282.677825 134.029767 
L 286.316458 144.104208 
L 289.314055 152.866094 
L 292.038101 161.627979 
L 294.429218 170.389865 
L 295.936325 176.805916 
L 297.046621 182.072378 
L 298.07301 187.913635 
L 298.873536 193.754892 
L 299.415759 199.596149 
L 299.653241 205.437406 
L 299.558192 211.278663 
L 299.110329 217.11992 
L 298.300426 222.961177 
L 297.127639 228.802434 
L 295.590071 234.643691 
L 293.721889 240.484948 
L 290.632925 248.613358 
L 289.179949 252.167462 
L 282.677825 267.119905 
L 279.381349 275.53249 
L 277.321399 281.373747 
L 276.398622 284.294375 
L 276.398622 284.294375 
" clip-path="url(#pd84a8cf182)" style="fill: none; stroke: #a7ff50"/>
    <path d="M 174.879287 284.294375 
L 176.711954 278.453118 
L 179.917092 266.770604 
L 182.052074 258.008719 
L 183.186914 252.167462 
L 184.011288 246.326205 
L 184.268889 243.405576 
L 184.408983 240.484948 
L 184.426402 237.564319 
L 184.321185 234.643691 
L 183.767485 228.802434 
L 182.832574 222.961177 
L 181.606701 217.11992 
L 179.261525 208.046622 
L 176.609825 199.191639 
L 172.821909 187.913635 
L 168.593703 176.231122 
L 164.290211 164.548608 
L 160.283933 152.866094 
L 158.047925 145.610148 
L 156.77292 141.18358 
L 154.538635 132.421694 
L 153.255466 126.580438 
L 152.164242 120.739181 
L 151.293814 114.897924 
L 150.680671 109.056667 
L 150.356599 103.21541 
L 150.348551 97.374153 
L 150.675589 91.532896 
L 151.349527 85.691639 
L 152.378154 79.850382 
L 153.771998 74.009125 
L 155.530832 68.167868 
L 157.624322 62.326611 
L 160.699625 54.925574 
L 162.601778 50.644097 
L 168.010865 38.961583 
L 169.308921 36.040955 
L 171.745048 30.199698 
L 173.958125 24.26103 
L 174.879287 21.437813 
M 279.104963 21.437813 
L 277.272296 27.279069 
L 274.067158 38.961583 
L 271.932176 47.723469 
L 270.797336 53.564726 
L 269.972962 59.405983 
L 269.715361 62.326611 
L 269.575267 65.24724 
L 269.557848 68.167868 
L 269.663065 71.088497 
L 270.216765 76.929753 
L 271.151676 82.77101 
L 272.377549 88.612267 
L 274.722725 97.685565 
L 277.374425 106.540549 
L 281.162341 117.818552 
L 285.390547 129.501066 
L 289.694039 141.18358 
L 293.700317 152.866094 
L 295.936325 160.12204 
L 297.21133 164.548608 
L 299.445615 173.310493 
L 300.728784 179.15175 
L 301.820008 184.993007 
L 302.690436 190.834264 
L 303.303579 196.675521 
L 303.627651 202.516778 
L 303.635699 208.358035 
L 303.308661 214.199292 
L 302.634723 220.040549 
L 301.606096 225.881806 
L 300.212252 231.723062 
L 298.453418 237.564319 
L 296.359928 243.405576 
L 293.284625 250.806614 
L 291.382472 255.08809 
L 285.973385 266.770604 
L 284.675329 269.691233 
L 282.239202 275.53249 
L 280.026125 281.471158 
L 279.104963 284.294375 
L 279.104963 284.294375 
" clip-path="url(#pd84a8cf182)" style="fill: none; stroke: #c4ff33"/>
    <path d="M 171.887052 284.294375 
L 173.958125 277.830929 
L 176.609825 268.12034 
L 178.335184 260.929347 
L 179.566997 255.08809 
L 180.484868 249.246833 
L 180.805131 246.326205 
L 181.013177 243.405576 
L 181.099286 240.484948 
L 181.059093 237.564319 
L 180.893918 234.643691 
L 180.219255 228.802434 
L 179.163966 222.961177 
L 177.769715 217.11992 
L 176.179208 211.278663 
L 173.474572 202.516778 
L 170.481503 193.754892 
L 166.003025 181.590468 
L 160.678506 167.469236 
L 157.550061 158.707351 
L 154.705324 149.945465 
L 152.744525 143.169614 
L 151.45113 138.262951 
L 150.074022 132.421694 
L 148.884685 126.580438 
L 147.893623 120.739181 
L 147.135955 114.897924 
L 146.639738 109.056667 
L 146.415959 103.21541 
L 146.482361 97.374153 
L 146.851197 91.532896 
L 147.534857 85.691639 
L 148.569028 79.850382 
L 149.939932 74.009125 
L 150.766015 71.088497 
L 152.744525 65.088661 
L 154.949867 59.405983 
L 158.047925 52.412368 
L 160.699625 46.852838 
L 167.249996 33.120326 
L 168.654725 29.957736 
L 171.306425 23.137097 
L 171.887052 21.437813 
M 282.097198 21.437813 
L 280.026125 27.901258 
L 277.374425 37.611847 
L 275.649066 44.80284 
L 274.417253 50.644097 
L 273.499382 56.485354 
L 273.179119 59.405983 
L 272.971073 62.326611 
L 272.884964 65.24724 
L 272.925157 68.167868 
L 273.090332 71.088497 
L 273.764995 76.929753 
L 274.820284 82.77101 
L 276.214535 88.612267 
L 277.805042 94.453524 
L 280.509678 103.21541 
L 283.502747 111.977295 
L 287.981225 124.141719 
L 293.305744 138.262951 
L 296.434189 147.024837 
L 299.278926 155.786722 
L 301.239725 162.562573 
L 302.53312 167.469236 
L 303.910228 173.310493 
L 305.099565 179.15175 
L 306.090627 184.993007 
L 306.848295 190.834264 
L 307.344512 196.675521 
L 307.568291 202.516778 
L 307.501889 208.358035 
L 307.133053 214.199292 
L 306.449393 220.040549 
L 305.415222 225.881806 
L 304.044318 231.723062 
L 303.218235 234.643691 
L 301.239725 240.643527 
L 299.034383 246.326205 
L 295.936325 253.319819 
L 293.284625 258.87935 
L 286.734254 272.611861 
L 285.329525 275.774451 
L 282.677825 282.59509 
L 282.097198 284.294375 
L 282.097198 284.294375 
" clip-path="url(#pd84a8cf182)" style="fill: none; stroke: #deff19"/>
    <path d="M 168.515346 284.294375 
L 169.51676 281.373747 
L 171.366374 275.53249 
L 173.958125 265.686509 
L 175.64503 258.008719 
L 176.682663 252.167462 
L 177.314565 246.326205 
L 177.462792 243.405576 
L 177.485715 240.484948 
L 177.380368 237.564319 
L 177.149775 234.643691 
L 176.609825 230.474955 
L 175.762146 225.881806 
L 174.394865 220.040549 
L 172.769429 214.199292 
L 170.97024 208.358035 
L 167.987134 199.596149 
L 164.747823 190.834264 
L 159.057959 176.231122 
L 154.641343 164.548608 
L 152.613338 158.707351 
L 150.092825 150.668145 
L 148.289818 144.104208 
L 146.87991 138.262951 
L 145.65442 132.421694 
L 144.611723 126.580438 
L 143.789133 120.739181 
L 143.179052 114.897924 
L 142.80239 109.056667 
L 142.676395 103.21541 
L 142.813446 97.374153 
L 143.222199 91.532896 
L 143.910147 85.691639 
L 144.890284 79.850382 
L 146.212852 74.009125 
L 147.864466 68.167868 
L 150.092825 61.768417 
L 152.239735 56.485354 
L 154.89379 50.644097 
L 159.208051 41.882212 
L 163.554596 33.120326 
L 166.19912 27.279069 
L 168.515346 21.437813 
M 285.468904 21.437813 
L 284.46749 24.358441 
L 282.617876 30.199698 
L 280.026125 40.045678 
L 278.33922 47.723469 
L 277.301587 53.564726 
L 276.669685 59.405983 
L 276.521458 62.326611 
L 276.498535 65.24724 
L 276.603882 68.167868 
L 276.834475 71.088497 
L 277.374425 75.257232 
L 278.222104 79.850382 
L 279.589385 85.691639 
L 281.214821 91.532896 
L 283.01401 97.374153 
L 285.997116 106.136038 
L 289.236427 114.897924 
L 294.926291 129.501066 
L 299.342907 141.18358 
L 301.370912 147.024837 
L 303.891425 155.064042 
L 305.694432 161.627979 
L 307.10434 167.469236 
L 308.32983 173.310493 
L 309.372527 179.15175 
L 310.195117 184.993007 
L 310.805198 190.834264 
L 311.18186 196.675521 
L 311.307855 202.516778 
L 311.170804 208.358035 
L 310.762051 214.199292 
L 310.074103 220.040549 
L 309.093966 225.881806 
L 307.771398 231.723062 
L 306.119784 237.564319 
L 303.891425 243.96377 
L 301.744515 249.246833 
L 299.09046 255.08809 
L 294.776199 263.849976 
L 290.429654 272.611861 
L 287.78513 278.453118 
L 285.468904 284.294375 
L 285.468904 284.294375 
" clip-path="url(#pd84a8cf182)" style="fill: none; stroke: #fbf100"/>
    <path d="M 164.609847 284.294375 
L 166.003025 280.605624 
L 167.646142 275.53249 
L 169.307598 269.691233 
L 171.41536 260.929347 
L 172.500346 255.08809 
L 173.267588 249.246833 
L 173.486152 246.326205 
L 173.576332 243.405576 
L 173.531643 240.484948 
L 173.352341 237.564319 
L 173.04486 234.643691 
L 172.092603 228.802434 
L 170.768355 222.961177 
L 168.654725 215.418441 
L 166.376681 208.358035 
L 164.311304 202.516778 
L 160.978375 193.754892 
L 157.440721 184.993007 
L 152.733019 173.310493 
L 150.092825 166.247722 
L 148.509266 161.627979 
L 146.697774 155.786722 
L 144.789425 148.758091 
L 143.693996 144.104208 
L 142.137725 136.514806 
L 141.436047 132.421694 
L 140.582785 126.580438 
L 139.911749 120.739181 
L 139.441078 114.897924 
L 139.192588 109.056667 
L 139.159888 103.21541 
L 139.350959 97.374153 
L 139.784115 91.532896 
L 140.468664 85.691639 
L 141.408009 79.850382 
L 142.632545 74.009125 
L 144.171406 68.167868 
L 146.044831 62.326611 
L 148.256059 56.485354 
L 150.785435 50.644097 
L 153.561851 44.80284 
L 160.812396 30.199698 
L 163.443775 24.358441 
L 164.609847 21.437813 
M 289.374403 21.437813 
L 287.981225 25.126563 
L 286.338108 30.199698 
L 284.676652 36.040955 
L 282.56889 44.80284 
L 281.483904 50.644097 
L 280.716662 56.485354 
L 280.498098 59.405983 
L 280.407918 62.326611 
L 280.452607 65.24724 
L 280.631909 68.167868 
L 280.93939 71.088497 
L 281.891647 76.929753 
L 283.215895 82.77101 
L 285.329525 90.313747 
L 287.607569 97.374153 
L 289.672946 103.21541 
L 293.005875 111.977295 
L 296.543529 120.739181 
L 301.251231 132.421694 
L 303.891425 139.484465 
L 305.474984 144.104208 
L 307.286476 149.945465 
L 309.194825 156.974096 
L 310.290254 161.627979 
L 311.846525 169.217381 
L 312.548203 173.310493 
L 313.401465 179.15175 
L 314.072501 184.993007 
L 314.543172 190.834264 
L 314.791662 196.675521 
L 314.824362 202.516778 
L 314.633291 208.358035 
L 314.200135 214.199292 
L 313.515586 220.040549 
L 312.576241 225.881806 
L 311.351705 231.723063 
L 309.812844 237.564319 
L 307.939419 243.405576 
L 305.728191 249.246833 
L 303.198815 255.08809 
L 300.422399 260.929347 
L 293.171854 275.53249 
L 290.540475 281.373747 
L 289.374403 284.294375 
L 289.374403 284.294375 
" clip-path="url(#pd84a8cf182)" style="fill: none; stroke: #ffd000"/>
    <path d="M 160.186903 284.294375 
L 161.346832 281.373747 
L 163.434755 275.53249 
L 165.175815 269.691233 
L 166.67515 263.849976 
L 167.910243 258.008719 
L 168.820424 252.167462 
L 169.102339 249.246833 
L 169.265285 246.326205 
L 169.299462 243.405576 
L 169.201238 240.484948 
L 168.654725 234.906086 
L 168.146455 231.723062 
L 166.913523 225.881806 
L 165.371021 220.040549 
L 163.351325 213.503074 
L 160.699625 205.956528 
L 158.047925 199.122193 
L 152.744525 186.470646 
L 149.681851 179.15175 
L 147.396624 173.310493 
L 144.789425 165.828107 
L 143.504302 161.627979 
L 141.901851 155.786722 
L 140.525677 149.945465 
L 139.323453 144.104208 
L 138.311638 138.262951 
L 137.455439 132.421694 
L 136.762981 126.580438 
L 136.256461 120.739181 
L 135.926798 114.897924 
L 135.782248 109.056667 
L 135.82934 103.21541 
L 136.07334 97.374153 
L 136.519503 91.532896 
L 137.184379 85.691639 
L 138.080557 79.850382 
L 139.486025 72.784483 
L 140.624501 68.167868 
L 142.319784 62.326611 
L 144.336193 56.485354 
L 145.461044 53.564726 
L 147.923516 47.723469 
L 150.616479 41.882212 
L 158.935826 24.358441 
L 160.186903 21.437813 
M 293.797347 21.437813 
L 292.637418 24.358441 
L 290.549495 30.199698 
L 288.808435 36.040955 
L 287.3091 41.882212 
L 286.074007 47.723469 
L 285.163826 53.564726 
L 284.881911 56.485354 
L 284.718965 59.405983 
L 284.684788 62.326611 
L 284.783012 65.24724 
L 285.329525 70.826102 
L 285.837795 74.009125 
L 287.070727 79.850382 
L 288.613229 85.691639 
L 290.632925 92.229113 
L 293.284625 99.775659 
L 295.936325 106.609994 
L 301.239725 119.261541 
L 304.302399 126.580438 
L 306.587626 132.421694 
L 309.194825 139.90408 
L 310.479948 144.104208 
L 312.082399 149.945465 
L 313.458573 155.786722 
L 314.660797 161.627979 
L 315.672612 167.469236 
L 316.528811 173.310493 
L 317.221269 179.15175 
L 317.727789 184.993007 
L 318.057452 190.834264 
L 318.202002 196.675521 
L 318.15491 202.516778 
L 317.91091 208.358035 
L 317.464747 214.199292 
L 316.799871 220.040549 
L 315.903693 225.881806 
L 314.498225 232.947705 
L 313.359749 237.564319 
L 311.664466 243.405576 
L 309.648057 249.246833 
L 308.523206 252.167462 
L 306.060734 258.008719 
L 303.367771 263.849976 
L 295.048424 281.373747 
L 293.797347 284.294375 
L 293.797347 284.294375 
" clip-path="url(#pd84a8cf182)" style="fill: none; stroke: #ffae00"/>
    <path d="M 155.241799 284.294375 
L 157.552865 278.453118 
L 158.602833 275.53249 
L 160.699625 268.984411 
L 162.069009 263.849976 
L 163.36384 258.008719 
L 164.237259 252.167462 
L 164.506462 249.246833 
L 164.648001 246.326205 
L 164.656194 243.405576 
L 164.531095 240.484948 
L 164.277795 237.564319 
L 163.423387 231.723062 
L 162.152802 225.881806 
L 160.560819 220.040549 
L 158.672875 214.199292 
L 156.53469 208.358035 
L 154.185557 202.516778 
L 150.092825 193.04047 
L 146.613452 184.993007 
L 144.274516 179.15175 
L 142.137725 173.215484 
L 140.339099 167.469236 
L 138.746559 161.627979 
L 137.374165 155.786722 
L 136.195931 149.945465 
L 135.192323 144.104208 
L 134.182625 137.010234 
L 133.367862 129.501066 
L 132.91348 123.659809 
L 132.618704 117.818552 
L 132.487717 111.977295 
L 132.524052 106.136038 
L 132.730742 100.294781 
L 133.110981 94.453524 
L 133.669223 88.612267 
L 134.415963 82.77101 
L 135.366115 76.929753 
L 136.834325 69.716228 
L 137.928684 65.24724 
L 139.581858 59.405983 
L 141.514841 53.564726 
L 143.713467 47.723469 
L 146.142475 41.882212 
L 151.383446 30.199698 
L 155.241799 21.437813 
M 298.742451 21.437813 
L 296.431385 27.279069 
L 295.381417 30.199698 
L 293.284625 36.747776 
L 291.915241 41.882212 
L 290.62041 47.723469 
L 289.746991 53.564726 
L 289.477788 56.485354 
L 289.336249 59.405983 
L 289.328056 62.326611 
L 289.453155 65.24724 
L 289.706455 68.167868 
L 290.560863 74.009125 
L 291.831448 79.850382 
L 293.423431 85.691639 
L 295.311375 91.532896 
L 297.44956 97.374153 
L 299.798693 103.21541 
L 303.891425 112.691718 
L 307.370798 120.739181 
L 309.709734 126.580438 
L 311.846525 132.516703 
L 313.645151 138.262951 
L 315.237691 144.104208 
L 316.610085 149.945465 
L 317.788319 155.786722 
L 318.791927 161.627979 
L 319.801625 168.721954 
L 320.616388 176.231122 
L 321.07077 182.072378 
L 321.365546 187.913635 
L 321.496533 193.754892 
L 321.460198 199.596149 
L 321.253508 205.437406 
L 320.873269 211.278663 
L 320.315027 217.11992 
L 319.568287 222.961177 
L 318.618135 228.802434 
L 317.149925 236.01596 
L 316.055566 240.484948 
L 314.402392 246.326205 
L 312.469409 252.167462 
L 310.270783 258.008719 
L 307.841775 263.849976 
L 302.600804 275.53249 
L 298.742451 284.294375 
L 298.742451 284.294375 
" clip-path="url(#pd84a8cf182)" style="fill: none; stroke: #ff8d00"/>
    <path d="M 149.900714 284.294375 
L 152.744525 276.969778 
L 154.290949 272.611861 
L 156.142981 266.770604 
L 157.689577 260.929347 
L 158.323253 258.008719 
L 159.25426 252.167462 
L 159.539083 249.246833 
L 159.691582 246.326205 
L 159.708477 243.405576 
L 159.590911 240.484948 
L 159.3436 237.564319 
L 158.973699 234.643691 
L 157.89708 228.802434 
L 156.400833 222.961177 
L 154.54988 217.11992 
L 152.386936 211.278663 
L 149.968123 205.437406 
L 142.137725 187.437695 
L 139.486025 180.38612 
L 138.108355 176.231122 
L 136.379167 170.389865 
L 134.891462 164.548608 
L 133.60754 158.707351 
L 132.511554 152.866094 
L 131.530925 146.667383 
L 130.807317 141.18358 
L 130.186612 135.342323 
L 129.715973 129.501066 
L 129.287807 120.739181 
L 129.191051 111.977295 
L 129.425746 103.21541 
L 129.767552 97.374153 
L 130.259807 91.532896 
L 130.906354 85.691639 
L 131.713795 79.850382 
L 132.688653 74.009125 
L 134.182625 66.6347 
L 135.199936 62.326611 
L 136.834325 56.249629 
L 138.557569 50.644097 
L 140.566473 44.80284 
L 143.919243 36.040955 
L 149.900714 21.437813 
M 304.083536 21.437813 
L 301.239725 28.76241 
L 299.693301 33.120326 
L 297.841269 38.961583 
L 296.294673 44.80284 
L 295.660997 47.723469 
L 294.72999 53.564726 
L 294.445167 56.485354 
L 294.292668 59.405983 
L 294.275773 62.326611 
L 294.393339 65.24724 
L 294.64065 68.167868 
L 295.010551 71.088497 
L 296.08717 76.929753 
L 297.583417 82.77101 
L 299.43437 88.612267 
L 301.597314 94.453524 
L 304.016127 100.294781 
L 311.846525 118.294492 
L 314.498225 125.346068 
L 315.875895 129.501066 
L 317.605083 135.342323 
L 319.092788 141.18358 
L 320.37671 147.024837 
L 321.472696 152.866094 
L 322.453325 159.064804 
L 323.176933 164.548608 
L 323.797638 170.389865 
L 324.268277 176.231122 
L 324.696443 184.993007 
L 324.793199 193.754892 
L 324.558504 202.516778 
L 324.216698 208.358035 
L 323.724443 214.199292 
L 323.077896 220.040549 
L 322.270455 225.881806 
L 321.295597 231.723062 
L 319.801625 239.097487 
L 318.784314 243.405576 
L 317.149925 249.482558 
L 315.426681 255.08809 
L 313.417777 260.929347 
L 310.065007 269.691233 
L 304.083536 284.294375 
L 304.083536 284.294375 
" clip-path="url(#pd84a8cf182)" style="fill: none; stroke: #ff6c00"/>
    <path d="M 144.235539 284.294375 
L 148.570365 272.611861 
L 150.538202 266.770604 
L 152.210654 260.929347 
L 152.909064 258.008719 
L 153.486327 255.08809 
L 153.944522 252.167462 
L 154.272548 249.246833 
L 154.462913 246.326205 
L 154.511903 243.405576 
L 154.419302 240.484948 
L 154.187852 237.564319 
L 153.822623 234.643691 
L 153.330434 231.723062 
L 152.718529 228.802434 
L 151.123377 222.961177 
L 149.124534 217.11992 
L 146.796986 211.278663 
L 138.092063 190.834264 
L 135.968435 184.993007 
L 134.090579 179.15175 
L 132.452164 173.310493 
L 131.023525 167.469236 
L 129.790387 161.627979 
L 128.741407 155.786722 
L 127.849413 149.945465 
L 127.129932 144.104208 
L 126.572857 138.262951 
L 126.01383 129.501066 
L 125.77421 120.739181 
L 125.845549 111.977295 
L 126.227525 103.014714 
L 126.854352 94.453524 
L 127.778824 85.691639 
L 128.997088 76.929753 
L 130.501402 68.167868 
L 132.337148 59.405983 
L 134.182625 51.933487 
L 136.19154 44.80284 
L 138.014433 38.961583 
L 141.008788 30.199698 
L 144.235539 21.437813 
M 309.748711 21.437813 
L 305.413885 33.120326 
L 303.446048 38.961583 
L 301.773596 44.80284 
L 301.075186 47.723469 
L 300.497923 50.644097 
L 300.039728 53.564726 
L 299.711702 56.485354 
L 299.521337 59.405983 
L 299.472347 62.326611 
L 299.564948 65.24724 
L 299.796398 68.167868 
L 300.161627 71.088497 
L 300.653816 74.009125 
L 301.265721 76.929753 
L 302.860873 82.77101 
L 304.859716 88.612267 
L 307.187264 94.453524 
L 315.892187 114.897924 
L 318.015815 120.739181 
L 319.893671 126.580438 
L 321.532086 132.421694 
L 322.960725 138.262951 
L 324.193863 144.104208 
L 325.242843 149.945465 
L 326.134837 155.786722 
L 326.854318 161.627979 
L 327.411393 167.469236 
L 327.97042 176.231122 
L 328.21004 184.993007 
L 328.138701 193.754892 
L 327.756725 202.717474 
L 327.129898 211.278663 
L 326.205426 220.040549 
L 324.987162 228.802434 
L 323.482848 237.564319 
L 321.647102 246.326205 
L 319.801625 253.7987 
L 317.79271 260.929347 
L 315.969817 266.770604 
L 312.975462 275.53249 
L 309.748711 284.294375 
L 309.748711 284.294375 
" clip-path="url(#pd84a8cf182)" style="fill: none; stroke: #ff4e00"/>
    <path d="M 138.061794 284.294375 
L 141.240749 275.53249 
L 143.422709 269.691233 
L 145.44596 263.849976 
L 147.126298 258.008719 
L 147.792035 255.08809 
L 148.319019 252.167462 
L 148.70694 249.246833 
L 148.946286 246.326205 
L 149.031351 243.405576 
L 148.960109 240.484948 
L 148.733989 237.564319 
L 148.357572 234.643691 
L 147.441125 229.946664 
L 147.174772 228.802434 
L 145.455403 222.961177 
L 143.321298 217.11992 
L 139.693307 208.358035 
L 136.834325 201.513475 
L 133.843811 193.754892 
L 131.530925 186.98857 
L 130.013624 182.072378 
L 128.403143 176.231122 
L 126.977881 170.389865 
L 125.176226 161.627979 
L 124.213122 155.786722 
L 123.102469 147.024837 
L 122.577322 141.18358 
L 122.233353 135.342323 
L 122.05066 129.501066 
L 122.041411 120.739181 
L 122.312362 111.977295 
L 122.838506 103.21541 
L 123.606208 94.453524 
L 124.555288 85.691639 
L 125.726348 76.929753 
L 127.576284 65.24724 
L 129.194652 56.485354 
L 130.992989 47.723469 
L 133.009197 38.961583 
L 135.323525 30.199698 
L 137.109642 24.358441 
L 138.061794 21.437813 
M 315.922456 21.437813 
L 312.743501 30.199698 
L 310.561541 36.040955 
L 308.53829 41.882212 
L 306.857952 47.723469 
L 306.192215 50.644097 
L 305.665231 53.564726 
L 305.27731 56.485354 
L 305.037964 59.405983 
L 304.952899 62.326611 
L 305.024141 65.24724 
L 305.250261 68.167868 
L 305.626678 71.088497 
L 306.543125 75.785524 
L 306.809478 76.929753 
L 308.528847 82.77101 
L 310.662952 88.612267 
L 314.290943 97.374153 
L 317.149925 104.218712 
L 320.140439 111.977295 
L 322.453325 118.743618 
L 323.970626 123.659809 
L 325.581107 129.501066 
L 327.006369 135.342323 
L 328.808024 144.104208 
L 329.771128 149.945465 
L 330.881781 158.707351 
L 331.406928 164.548608 
L 331.750897 170.389865 
L 331.93359 176.231122 
L 331.942839 184.993007 
L 331.671888 193.754892 
L 331.145744 202.516778 
L 330.378042 211.278663 
L 329.428962 220.040549 
L 328.257902 228.802434 
L 326.407966 240.484948 
L 324.789598 249.246833 
L 322.991261 258.008719 
L 320.975053 266.770604 
L 318.660725 275.53249 
L 316.874608 281.373747 
L 315.922456 284.294375 
L 315.922456 284.294375 
" clip-path="url(#pd84a8cf182)" style="fill: none; stroke: #ff2d00"/>
    <path d="M 130.519648 284.294375 
L 132.525545 278.453118 
L 136.244829 269.691233 
L 137.488966 266.770604 
L 139.754733 260.929347 
L 140.688156 258.008719 
L 141.50196 255.08809 
L 142.167467 252.167462 
L 142.63404 249.246833 
L 142.933267 246.326205 
L 143.057651 243.405576 
L 143.005054 240.484948 
L 142.778492 237.564319 
L 142.137725 233.324666 
L 141.823132 231.723062 
L 141.106681 228.802434 
L 139.329375 222.961177 
L 136.834325 216.175452 
L 130.477379 199.596149 
L 127.450258 190.834264 
L 124.744535 182.072378 
L 122.374225 173.310493 
L 120.924125 166.853004 
L 119.824199 161.627979 
L 118.885529 155.786722 
L 118.209524 149.945465 
L 117.705123 144.104208 
L 117.458015 138.262951 
L 117.419503 132.421694 
L 117.666906 123.659809 
L 118.198847 114.897924 
L 119.430626 100.294781 
L 120.404767 91.532896 
L 122.650989 74.009125 
L 126.268399 47.723469 
L 128.114605 33.120326 
L 129.125567 27.279069 
L 129.742124 24.358441 
L 130.519648 21.437813 
M 323.464602 21.437813 
L 321.458705 27.279069 
L 317.739421 36.040955 
L 316.495284 38.961583 
L 314.229517 44.80284 
L 313.296094 47.723469 
L 312.48229 50.644097 
L 311.816783 53.564726 
L 311.35021 56.485354 
L 311.050983 59.405983 
L 310.926599 62.326611 
L 310.979196 65.24724 
L 311.205758 68.167868 
L 311.846525 72.407522 
L 312.161118 74.009125 
L 312.877569 76.929753 
L 314.654875 82.77101 
L 317.149925 89.556735 
L 323.506871 106.136038 
L 326.533992 114.897924 
L 329.239715 123.659809 
L 331.610025 132.421694 
L 333.060125 138.879184 
L 334.160051 144.104208 
L 335.098721 149.945465 
L 335.774726 155.786722 
L 336.279127 161.627979 
L 336.526235 167.469236 
L 336.564747 173.310493 
L 336.317344 182.072378 
L 335.785403 190.834264 
L 334.553624 205.437406 
L 333.579483 214.199292 
L 331.333261 231.723062 
L 327.715851 258.008719 
L 325.869645 272.611861 
L 324.858683 278.453118 
L 324.242126 281.373747 
L 323.464602 284.294375 
L 323.464602 284.294375 
" clip-path="url(#pd84a8cf182)" style="fill: none; stroke: #f60b00"/>
    <path d="M 107.665625 278.869306 
L 110.345528 278.453118 
L 112.969025 277.924739 
L 115.620725 276.965458 
L 118.272425 275.400951 
L 120.924125 273.521181 
L 121.813917 272.611861 
L 123.575825 271.092935 
L 127.225628 266.770604 
L 129.32101 263.849976 
L 131.530925 260.109141 
L 132.517632 258.008719 
L 134.182625 253.812651 
L 134.680775 252.167462 
L 135.369144 249.246833 
L 135.83846 246.326205 
L 136.083057 243.405576 
L 136.108548 240.484948 
L 135.929569 237.564319 
L 135.566982 234.643691 
L 135.045069 231.723062 
L 134.182625 228.028897 
L 132.728788 222.961177 
L 130.801764 217.11992 
L 126.227525 204.339111 
L 122.310373 193.754892 
L 118.272425 182.630426 
L 116.839163 179.15175 
L 115.620725 175.677576 
L 114.502514 173.310493 
L 112.969025 169.210667 
L 111.856005 167.469236 
L 110.317325 164.028923 
L 107.665625 163.676107 
M 346.318625 163.676107 
L 345.357733 167.469236 
L 343.666925 174.041947 
L 342.411534 182.072378 
L 340.539742 193.754892 
L 334.893934 234.643691 
L 334.002636 243.405576 
L 333.589347 249.246833 
L 333.42725 255.08809 
L 333.482569 258.008719 
L 333.658976 260.929347 
L 333.984468 263.849976 
L 334.490123 266.770604 
L 335.711825 271.37688 
L 336.341084 272.611861 
L 338.363525 275.970224 
L 341.015225 278.014235 
L 343.666925 278.772822 
L 346.318625 278.869306 
M 107.665625 142.056081 
L 108.626517 138.262951 
L 110.317325 131.690241 
L 111.572716 123.659809 
L 113.444508 111.977295 
L 119.090316 71.088497 
L 119.981614 62.326611 
L 120.394903 56.485354 
L 120.557 50.644097 
L 120.501681 47.723469 
L 120.325274 44.80284 
L 119.999782 41.882212 
L 119.494127 38.961583 
L 118.272425 34.355307 
L 117.643166 33.120326 
L 115.620725 29.761963 
L 112.969025 27.717953 
L 110.317325 26.959365 
L 107.665625 26.862881 
M 346.318625 26.862881 
L 343.638722 27.279069 
L 341.015225 27.807448 
L 338.363525 28.76673 
L 335.711825 30.331237 
L 333.060125 32.211006 
L 332.170333 33.120326 
L 330.408425 34.639252 
L 326.758622 38.961583 
L 324.66324 41.882212 
L 322.453325 45.623046 
L 321.466618 47.723469 
L 319.801625 51.919537 
L 319.303475 53.564726 
L 318.615106 56.485354 
L 318.14579 59.405983 
L 317.901193 62.326611 
L 317.875702 65.24724 
L 318.054681 68.167868 
L 318.417268 71.088497 
L 318.939181 74.009125 
L 319.801625 77.70329 
L 321.255462 82.77101 
L 323.182486 88.612267 
L 327.756725 101.393076 
L 331.673877 111.977295 
L 335.711825 123.101762 
L 337.145087 126.580438 
L 338.363525 130.054611 
L 339.481736 132.421694 
L 341.015225 136.521521 
L 342.128245 138.262951 
L 343.666925 141.703264 
L 346.318625 142.056081 
L 346.318625 142.056081 
" clip-path="url(#pd84a8cf182)" style="fill: none; stroke: #cd0000"/>
    <path d="M 107.665625 259.085562 
L 110.317325 259.407675 
L 112.969025 259.04797 
L 115.940469 258.008719 
L 118.272425 256.760817 
L 120.924125 254.728957 
L 123.575825 251.678414 
L 124.999879 249.246833 
L 126.25682 246.326205 
L 127.007221 243.405576 
L 127.435696 240.484948 
L 127.582983 237.564319 
L 127.490801 234.643691 
L 127.198614 231.723062 
L 126.742319 228.802434 
L 126.146668 225.881806 
L 124.540175 220.040549 
L 123.575825 216.943781 
L 120.924125 209.9736 
L 118.272425 204.356309 
L 115.620725 200.205309 
L 112.969025 197.992048 
L 110.317325 198.471484 
L 107.665625 202.525424 
M 346.318625 202.525424 
L 343.666925 210.851435 
L 341.801657 220.040549 
L 340.805815 225.881806 
L 340.110069 231.723062 
L 339.632074 237.564319 
L 339.515012 240.484948 
L 339.511495 243.405576 
L 339.656319 246.326205 
L 339.99719 249.246833 
L 340.600651 252.167462 
L 341.015225 253.518227 
L 341.801006 255.08809 
L 343.666925 257.640272 
L 344.248267 258.008719 
L 346.318625 259.085562 
M 107.665625 103.206764 
L 110.317325 94.880753 
L 112.182593 85.691639 
L 113.178435 79.850382 
L 113.874181 74.009125 
L 114.352176 68.167868 
L 114.469238 65.24724 
L 114.472755 62.326611 
L 114.327931 59.405983 
L 113.98706 56.485354 
L 113.383599 53.564726 
L 112.969025 52.21396 
L 112.183244 50.644097 
L 110.317325 48.091916 
L 109.735983 47.723469 
L 107.665625 46.646626 
M 346.318625 46.646626 
L 343.666925 46.324513 
L 341.015225 46.684218 
L 338.043781 47.723469 
L 335.711825 48.971371 
L 333.060125 51.00323 
L 330.408425 54.053773 
L 328.984371 56.485354 
L 327.72743 59.405983 
L 326.977029 62.326611 
L 326.548554 65.24724 
L 326.401267 68.167868 
L 326.493449 71.088497 
L 326.785636 74.009125 
L 327.241931 76.929753 
L 327.837582 79.850382 
L 329.444075 85.691639 
L 330.408425 88.788406 
L 333.060125 95.758587 
L 335.711825 101.375878 
L 338.363525 105.526879 
L 341.015225 107.74014 
L 343.666925 107.260704 
L 346.318625 103.206764 
L 346.318625 103.206764 
" clip-path="url(#pd84a8cf182)" style="fill: none; stroke: #a40000"/>
    <path clip-path="url(#pd84a8cf182)" style="fill: none; stroke: #800000"/>
   </g>
   <g id="patch_3">
    <path d="M 107.665625 284.294375 
L 107.665625 21.437813 
" style="fill: none; stroke: #000000; stroke-width: 0.8; stroke-linejoin: miter; stroke-linecap: square"/>
   </g>
   <g id="patch_4">
    <path d="M 107.665625 284.294375 
L 346.318625 284.294375 
" style="fill: none; stroke: #000000; stroke-width: 0.8; stroke-linejoin: miter; stroke-linecap: square"/>
   </g>
  </g>
  <g id="axes_2">
   <g id="patch_5">
    <path d="M 361.234437 284.294375 
L 374.377266 284.294375 
L 374.377266 21.437813 
L 361.234437 21.437813 
z
" style="fill: #ffffff"/>
   </g>
   <g id="matplotlib.axis_3"/>
   <g id="matplotlib.axis_4">
    <g id="ytick_6">
     <g id="line2d_11">
      <defs>
       <path id="m7b913924ed" d="M 0 0 
L 3.5 0 
" style="stroke: #000000; stroke-width: 0.8"/>
      </defs>
      <g>
       <use xlink:href="#m7b913924ed" x="374.377266" y="251.438103" style="stroke: #000000; stroke-width: 0.8"/>
      </g>
     </g>
     <g id="text_13">
      <!-- 0.80 -->
      <g transform="translate(381.377266 258.276696) scale(0.18 -0.18)">
       <defs>
        <path id="DejaVuSerif-2e" d="M 603 325 
Q 603 500 722 622 
Q 841 744 1019 744 
Q 1191 744 1312 622 
Q 1434 500 1434 325 
Q 1434 153 1312 31 
Q 1191 -91 1019 -91 
Q 841 -91 722 29 
Q 603 150 603 325 
z
" transform="scale(0.015625)"/>
        <path id="DejaVuSerif-38" d="M 2981 1275 
Q 2981 1775 2732 2051 
Q 2484 2328 2034 2328 
Q 1584 2328 1336 2051 
Q 1088 1775 1088 1275 
Q 1088 772 1336 495 
Q 1584 219 2034 219 
Q 2484 219 2732 495 
Q 2981 772 2981 1275 
z
M 2853 3541 
Q 2853 3966 2637 4203 
Q 2422 4441 2034 4441 
Q 1650 4441 1433 4203 
Q 1216 3966 1216 3541 
Q 1216 3113 1433 2875 
Q 1650 2638 2034 2638 
Q 2422 2638 2637 2875 
Q 2853 3113 2853 3541 
z
M 2516 2484 
Q 3047 2413 3344 2092 
Q 3641 1772 3641 1275 
Q 3641 619 3225 264 
Q 2809 -91 2034 -91 
Q 1263 -91 845 264 
Q 428 619 428 1275 
Q 428 1772 725 2092 
Q 1022 2413 1556 2484 
Q 1084 2569 832 2842 
Q 581 3116 581 3541 
Q 581 4103 968 4426 
Q 1356 4750 2034 4750 
Q 2713 4750 3100 4426 
Q 3488 4103 3488 3541 
Q 3488 3116 3236 2842 
Q 2984 2569 2516 2484 
z
" transform="scale(0.015625)"/>
       </defs>
       <use xlink:href="#DejaVuSerif-30"/>
       <use xlink:href="#DejaVuSerif-2e" x="63.623047"/>
       <use xlink:href="#DejaVuSerif-38" x="95.410156"/>
       <use xlink:href="#DejaVuSerif-30" x="159.033203"/>
      </g>
     </g>
    </g>
    <g id="ytick_7">
     <g id="line2d_12">
      <g>
       <use xlink:href="#m7b913924ed" x="374.377266" y="213.583071" style="stroke: #000000; stroke-width: 0.8"/>
      </g>
     </g>
     <g id="text_14">
      <!-- 0.88 -->
      <g transform="translate(381.377266 220.421665) scale(0.18 -0.18)">
       <use xlink:href="#DejaVuSerif-30"/>
       <use xlink:href="#DejaVuSerif-2e" x="63.623047"/>
       <use xlink:href="#DejaVuSerif-38" x="95.410156"/>
       <use xlink:href="#DejaVuSerif-38" x="159.033203"/>
      </g>
     </g>
    </g>
    <g id="ytick_8">
     <g id="line2d_13">
      <g>
       <use xlink:href="#m7b913924ed" x="374.377266" y="175.728039" style="stroke: #000000; stroke-width: 0.8"/>
      </g>
     </g>
     <g id="text_15">
      <!-- 0.96 -->
      <g transform="translate(381.377266 182.566633) scale(0.18 -0.18)">
       <defs>
        <path id="DejaVuSerif-39" d="M 2994 2091 
Q 2784 1856 2512 1740 
Q 2241 1625 1900 1625 
Q 1206 1625 804 2044 
Q 403 2463 403 3188 
Q 403 3897 839 4323 
Q 1275 4750 2003 4750 
Q 2794 4750 3217 4161 
Q 3641 3572 3641 2478 
Q 3641 1253 3137 581 
Q 2634 -91 1722 -91 
Q 1475 -91 1203 -44 
Q 931 3 647 97 
L 647 872 
L 997 872 
Q 1038 556 1241 387 
Q 1444 219 1784 219 
Q 2391 219 2687 676 
Q 2984 1134 2994 2091 
z
M 1978 4441 
Q 1534 4441 1298 4117 
Q 1063 3794 1063 3188 
Q 1063 2581 1298 2256 
Q 1534 1931 1978 1931 
Q 2422 1931 2658 2245 
Q 2894 2559 2894 3150 
Q 2894 3772 2656 4106 
Q 2419 4441 1978 4441 
z
" transform="scale(0.015625)"/>
        <path id="DejaVuSerif-36" d="M 2094 219 
Q 2534 219 2771 542 
Q 3009 866 3009 1472 
Q 3009 2078 2771 2401 
Q 2534 2725 2094 2725 
Q 1647 2725 1412 2412 
Q 1178 2100 1178 1509 
Q 1178 888 1415 553 
Q 1653 219 2094 219 
z
M 1075 2569 
Q 1288 2803 1556 2918 
Q 1825 3034 2163 3034 
Q 2859 3034 3264 2615 
Q 3669 2197 3669 1472 
Q 3669 763 3233 336 
Q 2797 -91 2069 -91 
Q 1278 -91 853 498 
Q 428 1088 428 2181 
Q 428 3406 931 4078 
Q 1434 4750 2350 4750 
Q 2597 4750 2869 4703 
Q 3141 4656 3425 4563 
L 3425 3794 
L 3072 3794 
Q 3034 4109 2831 4275 
Q 2628 4441 2284 4441 
Q 1678 4441 1381 3981 
Q 1084 3522 1075 2569 
z
" transform="scale(0.015625)"/>
       </defs>
       <use xlink:href="#DejaVuSerif-30"/>
       <use xlink:href="#DejaVuSerif-2e" x="63.623047"/>
       <use xlink:href="#DejaVuSerif-39" x="95.410156"/>
       <use xlink:href="#DejaVuSerif-36" x="159.033203"/>
      </g>
     </g>
    </g>
    <g id="ytick_9">
     <g id="line2d_14">
      <g>
       <use xlink:href="#m7b913924ed" x="374.377266" y="137.873008" style="stroke: #000000; stroke-width: 0.8"/>
      </g>
     </g>
     <g id="text_16">
      <!-- 1.04 -->
      <g transform="translate(381.377266 144.711602) scale(0.18 -0.18)">
       <defs>
        <path id="DejaVuSerif-31" d="M 909 0 
L 909 331 
L 1722 331 
L 1722 4213 
L 781 3603 
L 781 4013 
L 1919 4750 
L 2350 4750 
L 2350 331 
L 3163 331 
L 3163 0 
L 909 0 
z
" transform="scale(0.015625)"/>
        <path id="DejaVuSerif-34" d="M 2234 1581 
L 2234 4063 
L 641 1581 
L 2234 1581 
z
M 3609 0 
L 1484 0 
L 1484 331 
L 2234 331 
L 2234 1247 
L 197 1247 
L 197 1588 
L 2241 4750 
L 2859 4750 
L 2859 1581 
L 3750 1581 
L 3750 1247 
L 2859 1247 
L 2859 331 
L 3609 331 
L 3609 0 
z
" transform="scale(0.015625)"/>
       </defs>
       <use xlink:href="#DejaVuSerif-31"/>
       <use xlink:href="#DejaVuSerif-2e" x="63.623047"/>
       <use xlink:href="#DejaVuSerif-30" x="95.410156"/>
       <use xlink:href="#DejaVuSerif-34" x="159.033203"/>
      </g>
     </g>
    </g>
    <g id="ytick_10">
     <g id="line2d_15">
      <g>
       <use xlink:href="#m7b913924ed" x="374.377266" y="100.017976" style="stroke: #000000; stroke-width: 0.8"/>
      </g>
     </g>
     <g id="text_17">
      <!-- 1.12 -->
      <g transform="translate(381.377266 106.85657) scale(0.18 -0.18)">
       <defs>
        <path id="DejaVuSerif-32" d="M 819 3553 
L 469 3553 
L 469 4384 
Q 803 4563 1142 4656 
Q 1481 4750 1806 4750 
Q 2534 4750 2956 4397 
Q 3378 4044 3378 3438 
Q 3378 2753 2422 1800 
Q 2347 1728 2309 1691 
L 1131 513 
L 3078 513 
L 3078 1088 
L 3444 1088 
L 3444 0 
L 434 0 
L 434 341 
L 1850 1753 
Q 2319 2222 2519 2614 
Q 2719 3006 2719 3438 
Q 2719 3909 2473 4175 
Q 2228 4441 1797 4441 
Q 1350 4441 1106 4219 
Q 863 3997 819 3553 
z
" transform="scale(0.015625)"/>
       </defs>
       <use xlink:href="#DejaVuSerif-31"/>
       <use xlink:href="#DejaVuSerif-2e" x="63.623047"/>
       <use xlink:href="#DejaVuSerif-31" x="95.410156"/>
       <use xlink:href="#DejaVuSerif-32" x="159.033203"/>
      </g>
     </g>
    </g>
    <g id="ytick_11">
     <g id="line2d_16">
      <g>
       <use xlink:href="#m7b913924ed" x="374.377266" y="62.162945" style="stroke: #000000; stroke-width: 0.8"/>
      </g>
     </g>
     <g id="text_18">
      <!-- 1.20 -->
      <g transform="translate(381.377266 69.001538) scale(0.18 -0.18)">
       <use xlink:href="#DejaVuSerif-31"/>
       <use xlink:href="#DejaVuSerif-2e" x="63.623047"/>
       <use xlink:href="#DejaVuSerif-32" x="95.410156"/>
       <use xlink:href="#DejaVuSerif-30" x="159.033203"/>
      </g>
     </g>
    </g>
    <g id="ytick_12">
     <g id="line2d_17">
      <g>
       <use xlink:href="#m7b913924ed" x="374.377266" y="24.307913" style="stroke: #000000; stroke-width: 0.8"/>
      </g>
     </g>
     <g id="text_19">
      <!-- 1.28 -->
      <g transform="translate(381.377266 31.146507) scale(0.18 -0.18)">
       <use xlink:href="#DejaVuSerif-31"/>
       <use xlink:href="#DejaVuSerif-2e" x="63.623047"/>
       <use xlink:href="#DejaVuSerif-32" x="95.410156"/>
       <use xlink:href="#DejaVuSerif-38" x="159.033203"/>
      </g>
     </g>
    </g>
   </g>
   <g id="LineCollection_1"/>
   <g id="LineCollection_2">
    <path d="M 361.234437 284.294375 
L 374.377266 284.294375 
" clip-path="url(#p559fd32831)" style="fill: none; stroke: #000080"/>
    <path d="M 361.234437 275.230356 
L 374.377266 275.230356 
" clip-path="url(#p559fd32831)" style="fill: none; stroke: #0000a4"/>
    <path d="M 361.234437 266.166336 
L 374.377266 266.166336 
" clip-path="url(#p559fd32831)" style="fill: none; stroke: #0000cd"/>
    <path d="M 361.234437 257.102317 
L 374.377266 257.102317 
" clip-path="url(#p559fd32831)" style="fill: none; stroke: #0000f6"/>
    <path d="M 361.234437 248.038297 
L 374.377266 248.038297 
" clip-path="url(#p559fd32831)" style="fill: none; stroke: #000cff"/>
    <path d="M 361.234437 238.974278 
L 374.377266 238.974278 
" clip-path="url(#p559fd32831)" style="fill: none; stroke: #0030ff"/>
    <path d="M 361.234437 229.910259 
L 374.377266 229.910259 
" clip-path="url(#p559fd32831)" style="fill: none; stroke: #0050ff"/>
    <path d="M 361.234437 220.846239 
L 374.377266 220.846239 
" clip-path="url(#p559fd32831)" style="fill: none; stroke: #0074ff"/>
    <path d="M 361.234437 211.78222 
L 374.377266 211.78222 
" clip-path="url(#p559fd32831)" style="fill: none; stroke: #0098ff"/>
    <path d="M 361.234437 202.7182 
L 374.377266 202.7182 
" clip-path="url(#p559fd32831)" style="fill: none; stroke: #00bcff"/>
    <path d="M 361.234437 193.654181 
L 374.377266 193.654181 
" clip-path="url(#p559fd32831)" style="fill: none; stroke: #00e0fb"/>
    <path d="M 361.234437 184.590162 
L 374.377266 184.590162 
" clip-path="url(#p559fd32831)" style="fill: none; stroke: #19ffde"/>
    <path d="M 361.234437 175.526142 
L 374.377266 175.526142 
" clip-path="url(#p559fd32831)" style="fill: none; stroke: #33ffc4"/>
    <path d="M 361.234437 166.462123 
L 374.377266 166.462123 
" clip-path="url(#p559fd32831)" style="fill: none; stroke: #50ffa7"/>
    <path d="M 361.234437 157.398103 
L 374.377266 157.398103 
" clip-path="url(#p559fd32831)" style="fill: none; stroke: #6dff8a"/>
    <path d="M 361.234437 148.334084 
L 374.377266 148.334084 
" clip-path="url(#p559fd32831)" style="fill: none; stroke: #8aff6d"/>
    <path d="M 361.234437 139.270065 
L 374.377266 139.270065 
" clip-path="url(#p559fd32831)" style="fill: none; stroke: #a7ff50"/>
    <path d="M 361.234437 130.206045 
L 374.377266 130.206045 
" clip-path="url(#p559fd32831)" style="fill: none; stroke: #c4ff33"/>
    <path d="M 361.234437 121.142026 
L 374.377266 121.142026 
" clip-path="url(#p559fd32831)" style="fill: none; stroke: #deff19"/>
    <path d="M 361.234437 112.078006 
L 374.377266 112.078006 
" clip-path="url(#p559fd32831)" style="fill: none; stroke: #fbf100"/>
    <path d="M 361.234437 103.013987 
L 374.377266 103.013987 
" clip-path="url(#p559fd32831)" style="fill: none; stroke: #ffd000"/>
    <path d="M 361.234437 93.949968 
L 374.377266 93.949968 
" clip-path="url(#p559fd32831)" style="fill: none; stroke: #ffae00"/>
    <path d="M 361.234437 84.885948 
L 374.377266 84.885948 
" clip-path="url(#p559fd32831)" style="fill: none; stroke: #ff8d00"/>
    <path d="M 361.234437 75.821929 
L 374.377266 75.821929 
" clip-path="url(#p559fd32831)" style="fill: none; stroke: #ff6c00"/>
    <path d="M 361.234437 66.757909 
L 374.377266 66.757909 
" clip-path="url(#p559fd32831)" style="fill: none; stroke: #ff4e00"/>
    <path d="M 361.234437 57.69389 
L 374.377266 57.69389 
" clip-path="url(#p559fd32831)" style="fill: none; stroke: #ff2d00"/>
    <path d="M 361.234437 48.629871 
L 374.377266 48.629871 
" clip-path="url(#p559fd32831)" style="fill: none; stroke: #f60b00"/>
    <path d="M 361.234437 39.565851 
L 374.377266 39.565851 
" clip-path="url(#p559fd32831)" style="fill: none; stroke: #cd0000"/>
    <path d="M 361.234437 30.501832 
L 374.377266 30.501832 
" clip-path="url(#p559fd32831)" style="fill: none; stroke: #a40000"/>
    <path d="M 361.234437 21.437813 
L 374.377266 21.437813 
" clip-path="url(#p559fd32831)" style="fill: none; stroke: #800000"/>
   </g>
   <g id="patch_6">
    <path d="M 361.234437 284.294375 
L 367.805852 284.294375 
L 374.377266 284.294375 
L 374.377266 21.437813 
L 367.805852 21.437813 
L 361.234437 21.437813 
L 361.234437 284.294375 
z
" style="fill: none; stroke: #000000; stroke-width: 0.8; stroke-linejoin: miter; stroke-linecap: square"/>
   </g>
  </g>
 </g>
 <defs>
  <clipPath id="pd84a8cf182">
   <rect x="107.665625" y="21.437813" width="238.653" height="262.856562"/>
  </clipPath>
  <clipPath id="p559fd32831">
   <path d="M 361.234437 285.242631 
L 374.377266 285.242631 
L 374.377266 20.489557 
L 361.234437 20.489557 
z
"/>
  </clipPath>
 </defs>
</svg>
