<?xml version="1.0" encoding="utf-8" standalone="no"?>
<!DOCTYPE svg PUBLIC "-//W3C//DTD SVG 1.1//EN"
  "http://www.w3.org/Graphics/SVG/1.1/DTD/svg11.dtd">
<svg xmlns:xlink="http://www.w3.org/1999/xlink" width="432pt" height="360pt" viewBox="0 0 432 360" xmlns="http://www.w3.org/2000/svg" version="1.1">
 <metadata>
  <rdf:RDF xmlns:dc="http://purl.org/dc/elements/1.1/" xmlns:cc="http://creativecommons.org/ns#" xmlns:rdf="http://www.w3.org/1999/02/22-rdf-syntax-ns#">
   <cc:Work>
    <dc:type rdf:resource="http://purl.org/dc/dcmitype/StillImage"/>
    <dc:date>2025-04-13T22:48:34.893162</dc:date>
    <dc:format>image/svg+xml</dc:format>
    <dc:creator>
     <cc:Agent>
      <dc:title>Matplotlib v3.9.2, https://matplotlib.org/</dc:title>
     </cc:Agent>
    </dc:creator>
   </cc:Work>
  </rdf:RDF>
 </metadata>
 <defs>
  <style type="text/css">*{stroke-linejoin: round; stroke-linecap: butt}</style>
 </defs>
 <g id="figure_1">
  <g id="patch_1">
   <path d="M 0 360 
L 432 360 
L 432 0 
L 0 0 
z
" style="fill: #ffffff"/>
  </g>
  <g id="axes_1">
   <g id="patch_2">
    <path d="M 107.665625 284.294375 
L 355.480625 284.294375 
L 355.480625 21.437813 
L 107.665625 21.437813 
z
" style="fill: #ffffff"/>
   </g>
   <g id="matplotlib.axis_1">
    <g id="xtick_1">
     <g id="line2d_1">
      <defs>
       <path id="mb7070a9688" d="M 0 0 
L 0 3.5 
" style="stroke: #000000; stroke-width: 0.8"/>
      </defs>
      <g>
       <use xlink:href="#mb7070a9688" x="107.665625" y="284.294375" style="stroke: #000000; stroke-width: 0.8"/>
      </g>
     </g>
     <g id="text_1">
      <!-- 0 -->
      <g transform="translate(98.758125 312.57) scale(0.28 -0.28)">
       <defs>
        <path id="DejaVuSerif-30" d="M 2034 219 
Q 2513 219 2750 744 
Q 2988 1269 2988 2328 
Q 2988 3391 2750 3916 
Q 2513 4441 2034 4441 
Q 1556 4441 1318 3916 
Q 1081 3391 1081 2328 
Q 1081 1269 1318 744 
Q 1556 219 2034 219 
z
M 2034 -91 
Q 1275 -91 848 546 
Q 422 1184 422 2328 
Q 422 3475 848 4112 
Q 1275 4750 2034 4750 
Q 2797 4750 3222 4112 
Q 3647 3475 3647 2328 
Q 3647 1184 3222 546 
Q 2797 -91 2034 -91 
z
" transform="scale(0.015625)"/>
       </defs>
       <use xlink:href="#DejaVuSerif-30"/>
      </g>
     </g>
    </g>
    <g id="xtick_2">
     <g id="line2d_2">
      <g>
       <use xlink:href="#mb7070a9688" x="169.619375" y="284.294375" style="stroke: #000000; stroke-width: 0.8"/>
      </g>
     </g>
     <g id="text_2">
      <!-- $\pi/4$ -->
      <g transform="translate(147.639375 312.294375) scale(0.28 -0.28)">
       <defs>
        <path id="Cmmi10-bc" d="M 647 109 
Q 647 144 672 213 
Q 850 584 1004 942 
Q 1159 1300 1282 1639 
Q 1406 1978 1509 2363 
L 1100 2363 
Q 866 2363 662 2216 
Q 459 2069 325 1844 
Q 313 1819 288 1819 
L 213 1819 
Q 153 1819 153 1881 
Q 153 1894 166 1919 
Q 375 2275 614 2517 
Q 853 2759 1153 2759 
L 3475 2759 
Q 3541 2759 3587 2715 
Q 3634 2672 3634 2597 
Q 3634 2503 3567 2433 
Q 3500 2363 3406 2363 
L 2591 2363 
Q 2488 1859 2478 1381 
Q 2478 766 2694 269 
Q 2713 231 2713 191 
Q 2713 122 2672 62 
Q 2631 3 2567 -34 
Q 2503 -72 2431 -72 
Q 2263 -72 2200 203 
Q 2138 478 2138 738 
Q 2138 1103 2200 1442 
Q 2263 1781 2400 2363 
L 1703 2363 
Q 1197 313 1094 103 
Q 1003 -72 844 -72 
Q 766 -72 706 -20 
Q 647 31 647 109 
z
" transform="scale(0.015625)"/>
        <path id="Cmmi10-3d" d="M 359 -1472 
Q 359 -1453 366 -1447 
L 2591 4722 
Q 2603 4759 2634 4779 
Q 2666 4800 2706 4800 
Q 2763 4800 2798 4765 
Q 2834 4731 2834 4672 
L 2834 4647 
L 609 -1522 
Q 572 -1600 488 -1600 
Q 434 -1600 396 -1562 
Q 359 -1525 359 -1472 
z
" transform="scale(0.015625)"/>
        <path id="Cmr10-34" d="M 178 1056 
L 178 1281 
L 2156 4231 
Q 2178 4263 2222 4263 
L 2316 4263 
Q 2388 4263 2388 4191 
L 2388 1281 
L 3016 1281 
L 3016 1056 
L 2388 1056 
L 2388 428 
Q 2388 297 2575 261 
Q 2763 225 3009 225 
L 3009 0 
L 1247 0 
L 1247 225 
Q 1494 225 1681 261 
Q 1869 297 1869 428 
L 1869 1056 
L 178 1056 
z
M 391 1281 
L 1906 1281 
L 1906 3547 
L 391 1281 
z
" transform="scale(0.015625)"/>
       </defs>
       <use xlink:href="#Cmmi10-bc"/>
       <use xlink:href="#Cmmi10-3d" transform="translate(56.982422 0)"/>
       <use xlink:href="#Cmr10-34" transform="translate(106.982422 0)"/>
      </g>
     </g>
    </g>
    <g id="xtick_3">
     <g id="line2d_3">
      <g>
       <use xlink:href="#mb7070a9688" x="231.573125" y="284.294375" style="stroke: #000000; stroke-width: 0.8"/>
      </g>
     </g>
     <g id="text_3">
      <!-- $\pi/2$ -->
      <g transform="translate(209.593125 312.294375) scale(0.28 -0.28)">
       <defs>
        <path id="Cmr10-32" d="M 319 0 
L 319 172 
Q 319 188 331 206 
L 1325 1306 
Q 1550 1550 1690 1715 
Q 1831 1881 1968 2097 
Q 2106 2313 2186 2536 
Q 2266 2759 2266 3009 
Q 2266 3272 2169 3511 
Q 2072 3750 1880 3894 
Q 1688 4038 1416 4038 
Q 1138 4038 916 3870 
Q 694 3703 603 3438 
Q 628 3444 672 3444 
Q 816 3444 917 3347 
Q 1019 3250 1019 3097 
Q 1019 2950 917 2848 
Q 816 2747 672 2747 
Q 522 2747 420 2851 
Q 319 2956 319 3097 
Q 319 3338 409 3548 
Q 500 3759 670 3923 
Q 841 4088 1055 4175 
Q 1269 4263 1509 4263 
Q 1875 4263 2190 4108 
Q 2506 3953 2690 3670 
Q 2875 3388 2875 3009 
Q 2875 2731 2753 2481 
Q 2631 2231 2440 2026 
Q 2250 1822 1953 1562 
Q 1656 1303 1563 1216 
L 838 519 
L 1453 519 
Q 1906 519 2211 526 
Q 2516 534 2534 550 
Q 2609 631 2688 1141 
L 2875 1141 
L 2694 0 
L 319 0 
z
" transform="scale(0.015625)"/>
       </defs>
       <use xlink:href="#Cmmi10-bc"/>
       <use xlink:href="#Cmmi10-3d" transform="translate(56.982422 0)"/>
       <use xlink:href="#Cmr10-32" transform="translate(106.982422 0)"/>
      </g>
     </g>
    </g>
    <g id="xtick_4">
     <g id="line2d_4">
      <g>
       <use xlink:href="#mb7070a9688" x="293.526875" y="284.294375" style="stroke: #000000; stroke-width: 0.8"/>
      </g>
     </g>
     <g id="text_4">
      <!-- $3\pi/4$ -->
      <g transform="translate(264.546875 312.294375) scale(0.28 -0.28)">
       <defs>
        <path id="Cmr10-33" d="M 609 494 
Q 759 275 1012 169 
Q 1266 63 1556 63 
Q 1928 63 2084 380 
Q 2241 697 2241 1100 
Q 2241 1281 2208 1462 
Q 2175 1644 2097 1800 
Q 2019 1956 1883 2050 
Q 1747 2144 1550 2144 
L 1125 2144 
Q 1069 2144 1069 2203 
L 1069 2259 
Q 1069 2309 1125 2309 
L 1478 2338 
Q 1703 2338 1851 2506 
Q 2000 2675 2069 2917 
Q 2138 3159 2138 3378 
Q 2138 3684 1994 3881 
Q 1850 4078 1556 4078 
Q 1313 4078 1091 3986 
Q 869 3894 738 3706 
Q 750 3709 759 3711 
Q 769 3713 781 3713 
Q 925 3713 1022 3613 
Q 1119 3513 1119 3372 
Q 1119 3234 1022 3134 
Q 925 3034 781 3034 
Q 641 3034 541 3134 
Q 441 3234 441 3372 
Q 441 3647 606 3850 
Q 772 4053 1033 4158 
Q 1294 4263 1556 4263 
Q 1750 4263 1965 4205 
Q 2181 4147 2356 4039 
Q 2531 3931 2642 3762 
Q 2753 3594 2753 3378 
Q 2753 3109 2633 2881 
Q 2513 2653 2303 2487 
Q 2094 2322 1844 2241 
Q 2122 2188 2372 2031 
Q 2622 1875 2773 1631 
Q 2925 1388 2925 1106 
Q 2925 753 2731 467 
Q 2538 181 2222 20 
Q 1906 -141 1556 -141 
Q 1256 -141 954 -26 
Q 653 88 461 316 
Q 269 544 269 863 
Q 269 1022 375 1128 
Q 481 1234 641 1234 
Q 744 1234 830 1186 
Q 916 1138 964 1050 
Q 1013 963 1013 863 
Q 1013 706 903 600 
Q 794 494 641 494 
L 609 494 
z
" transform="scale(0.015625)"/>
       </defs>
       <use xlink:href="#Cmr10-33"/>
       <use xlink:href="#Cmmi10-bc" transform="translate(50 0)"/>
       <use xlink:href="#Cmmi10-3d" transform="translate(106.982422 0)"/>
       <use xlink:href="#Cmr10-34" transform="translate(156.982422 0)"/>
      </g>
     </g>
    </g>
    <g id="xtick_5">
     <g id="line2d_5">
      <g>
       <use xlink:href="#mb7070a9688" x="355.480625" y="284.294375" style="stroke: #000000; stroke-width: 0.8"/>
      </g>
     </g>
     <g id="text_5">
      <!-- $\pi$ -->
      <g transform="translate(347.500625 312.57) scale(0.28 -0.28)">
       <use xlink:href="#Cmmi10-bc" transform="translate(0 0.890625)"/>
      </g>
     </g>
    </g>
    <g id="text_6">
     <!-- $\zeta_{\mathrm{Boozer}}$ -->
     <g transform="translate(187.373125 342.06) scale(0.34 -0.34)">
      <defs>
       <path id="Cmmi10-b3" d="M 1131 -997 
Q 1147 -922 1222 -922 
Q 1234 -922 1332 -986 
Q 1431 -1050 1542 -1098 
Q 1653 -1147 1784 -1147 
Q 1922 -1147 2014 -1019 
Q 2106 -891 2106 -744 
Q 2106 -597 2009 -494 
Q 1913 -391 1766 -341 
L 1113 -122 
Q 713 16 503 317 
Q 294 619 294 1050 
Q 294 1416 426 1831 
Q 559 2247 793 2637 
Q 1028 3028 1334 3339 
Q 1641 3650 1972 3822 
Q 1906 3953 1906 4128 
Q 1906 4475 2041 4475 
Q 2075 4475 2100 4450 
Q 2125 4425 2125 4391 
Q 2125 4344 2109 4245 
Q 2094 4147 2094 4122 
Q 2094 4006 2131 3897 
Q 2297 3963 2438 3963 
Q 3028 3963 3028 3781 
Q 3028 3566 2375 3566 
Q 2181 3566 2069 3681 
Q 1794 3525 1539 3244 
Q 1284 2963 1087 2613 
Q 891 2263 781 1906 
Q 672 1550 672 1228 
Q 672 538 1300 319 
L 1984 91 
Q 2200 25 2336 -139 
Q 2472 -303 2472 -531 
Q 2472 -716 2378 -898 
Q 2284 -1081 2125 -1197 
Q 1966 -1313 1772 -1313 
Q 1619 -1313 1375 -1211 
Q 1131 -1109 1131 -997 
z
M 2247 3763 
Q 2241 3763 2303 3738 
Q 2331 3738 2348 3736 
Q 2366 3734 2388 3731 
Q 2694 3731 2828 3769 
Q 2706 3794 2438 3794 
Q 2350 3794 2247 3763 
z
" transform="scale(0.015625)"/>
       <path id="Cmr10-42" d="M 219 0 
L 219 225 
Q 878 225 878 428 
L 878 3944 
Q 878 4147 219 4147 
L 219 4372 
L 2572 4372 
Q 2897 4372 3228 4245 
Q 3559 4119 3776 3870 
Q 3994 3622 3994 3284 
Q 3994 2894 3673 2630 
Q 3353 2366 2925 2284 
Q 3203 2284 3497 2131 
Q 3791 1978 3978 1722 
Q 4166 1466 4166 1178 
Q 4166 828 3958 559 
Q 3750 291 3419 145 
Q 3088 0 2753 0 
L 219 0 
z
M 1434 428 
Q 1434 291 1512 258 
Q 1591 225 1759 225 
L 2572 225 
Q 2822 225 3036 356 
Q 3250 488 3375 708 
Q 3500 928 3500 1178 
Q 3500 1422 3397 1655 
Q 3294 1888 3101 2038 
Q 2909 2188 2663 2188 
L 1434 2188 
L 1434 428 
z
M 1434 2356 
L 2394 2356 
Q 2588 2356 2758 2426 
Q 2928 2497 3064 2630 
Q 3200 2763 3273 2930 
Q 3347 3097 3347 3284 
Q 3347 3450 3292 3603 
Q 3238 3756 3131 3881 
Q 3025 4006 2881 4076 
Q 2738 4147 2572 4147 
L 1759 4147 
Q 1644 4147 1580 4137 
Q 1516 4128 1475 4083 
Q 1434 4038 1434 3944 
L 1434 2356 
z
" transform="scale(0.015625)"/>
       <path id="Cmr10-6f" d="M 1600 -72 
Q 1216 -72 887 123 
Q 559 319 368 647 
Q 178 975 178 1363 
Q 178 1656 283 1928 
Q 388 2200 583 2414 
Q 778 2628 1037 2748 
Q 1297 2869 1600 2869 
Q 1994 2869 2317 2661 
Q 2641 2453 2828 2104 
Q 3016 1756 3016 1363 
Q 3016 978 2825 648 
Q 2634 319 2307 123 
Q 1981 -72 1600 -72 
z
M 1600 116 
Q 2113 116 2284 487 
Q 2456 859 2456 1434 
Q 2456 1756 2422 1967 
Q 2388 2178 2272 2350 
Q 2200 2456 2089 2536 
Q 1978 2616 1854 2658 
Q 1731 2700 1600 2700 
Q 1400 2700 1220 2609 
Q 1041 2519 922 2350 
Q 803 2169 770 1951 
Q 738 1734 738 1434 
Q 738 1075 800 789 
Q 863 503 1052 309 
Q 1241 116 1600 116 
z
" transform="scale(0.015625)"/>
       <path id="Cmr10-7a" d="M 250 0 
Q 178 0 178 72 
L 178 122 
Q 178 147 197 166 
L 1984 2591 
L 1409 2591 
Q 1138 2591 961 2556 
Q 784 2522 670 2426 
Q 556 2331 504 2164 
Q 453 1997 453 1703 
L 269 1703 
L 341 2759 
L 2484 2759 
Q 2513 2759 2533 2739 
Q 2553 2719 2553 2688 
L 2553 2650 
Q 2553 2631 2541 2606 
L 750 184 
L 1363 184 
Q 1641 184 1827 218 
Q 2013 253 2144 384 
Q 2266 506 2311 712 
Q 2356 919 2381 1222 
L 2566 1222 
L 2456 0 
L 250 0 
z
" transform="scale(0.015625)"/>
       <path id="Cmr10-65" d="M 1594 -72 
Q 1203 -72 876 133 
Q 550 338 364 680 
Q 178 1022 178 1403 
Q 178 1778 348 2115 
Q 519 2453 823 2661 
Q 1128 2869 1503 2869 
Q 1797 2869 2014 2770 
Q 2231 2672 2372 2497 
Q 2513 2322 2584 2084 
Q 2656 1847 2656 1563 
Q 2656 1478 2591 1478 
L 738 1478 
L 738 1409 
Q 738 878 952 497 
Q 1166 116 1650 116 
Q 1847 116 2014 203 
Q 2181 291 2304 447 
Q 2428 603 2472 781 
Q 2478 803 2495 820 
Q 2513 838 2534 838 
L 2591 838 
Q 2656 838 2656 756 
Q 2566 394 2266 161 
Q 1966 -72 1594 -72 
z
M 744 1638 
L 2203 1638 
Q 2203 1878 2136 2125 
Q 2069 2372 1912 2536 
Q 1756 2700 1503 2700 
Q 1141 2700 942 2361 
Q 744 2022 744 1638 
z
" transform="scale(0.015625)"/>
       <path id="Cmr10-72" d="M 166 0 
L 166 225 
Q 384 225 525 259 
Q 666 294 666 428 
L 666 2175 
Q 666 2347 614 2423 
Q 563 2500 466 2517 
Q 369 2534 166 2534 
L 166 2759 
L 1081 2828 
L 1081 2203 
Q 1184 2481 1375 2654 
Q 1566 2828 1838 2828 
Q 2028 2828 2178 2715 
Q 2328 2603 2328 2419 
Q 2328 2303 2245 2217 
Q 2163 2131 2041 2131 
Q 1922 2131 1837 2215 
Q 1753 2300 1753 2419 
Q 1753 2591 1875 2663 
L 1838 2663 
Q 1578 2663 1414 2475 
Q 1250 2288 1181 2009 
Q 1113 1731 1113 1478 
L 1113 428 
Q 1113 225 1734 225 
L 1734 0 
L 166 0 
z
" transform="scale(0.015625)"/>
      </defs>
      <use xlink:href="#Cmmi10-b3" transform="translate(0 0.078125)"/>
      <use xlink:href="#Cmr10-42" transform="translate(43.701172 -16.928125) scale(0.7)"/>
      <use xlink:href="#Cmr10-6f" transform="translate(93.261719 -16.928125) scale(0.7)"/>
      <use xlink:href="#Cmr10-6f" transform="translate(128.261719 -16.928125) scale(0.7)"/>
      <use xlink:href="#Cmr10-7a" transform="translate(163.261719 -16.928125) scale(0.7)"/>
      <use xlink:href="#Cmr10-65" transform="translate(194.331055 -16.928125) scale(0.7)"/>
      <use xlink:href="#Cmr10-72" transform="translate(225.400391 -16.928125) scale(0.7)"/>
     </g>
    </g>
   </g>
   <g id="matplotlib.axis_2">
    <g id="ytick_1">
     <g id="line2d_6">
      <defs>
       <path id="mc7cd930e6e" d="M 0 0 
L -3.5 0 
" style="stroke: #000000; stroke-width: 0.8"/>
      </defs>
      <g>
       <use xlink:href="#mc7cd930e6e" x="107.665625" y="284.294375" style="stroke: #000000; stroke-width: 0.8"/>
      </g>
     </g>
     <g id="text_7">
      <!-- 0 -->
      <g transform="translate(82.850625 294.932187) scale(0.28 -0.28)">
       <use xlink:href="#DejaVuSerif-30"/>
      </g>
     </g>
    </g>
    <g id="ytick_2">
     <g id="line2d_7">
      <g>
       <use xlink:href="#mc7cd930e6e" x="107.665625" y="218.580234" style="stroke: #000000; stroke-width: 0.8"/>
      </g>
     </g>
     <g id="text_8">
      <!-- $\pi/2$ -->
      <g transform="translate(56.705625 229.080234) scale(0.28 -0.28)">
       <use xlink:href="#Cmmi10-bc"/>
       <use xlink:href="#Cmmi10-3d" transform="translate(56.982422 0)"/>
       <use xlink:href="#Cmr10-32" transform="translate(106.982422 0)"/>
      </g>
     </g>
    </g>
    <g id="ytick_3">
     <g id="line2d_8">
      <g>
       <use xlink:href="#mc7cd930e6e" x="107.665625" y="152.866094" style="stroke: #000000; stroke-width: 0.8"/>
      </g>
     </g>
     <g id="text_9">
      <!-- $\pi$ -->
      <g transform="translate(84.705625 163.503906) scale(0.28 -0.28)">
       <use xlink:href="#Cmmi10-bc" transform="translate(0 0.890625)"/>
      </g>
     </g>
    </g>
    <g id="ytick_4">
     <g id="line2d_9">
      <g>
       <use xlink:href="#mc7cd930e6e" x="107.665625" y="87.151953" style="stroke: #000000; stroke-width: 0.8"/>
      </g>
     </g>
     <g id="text_10">
      <!-- $3\pi/2$ -->
      <g transform="translate(42.705625 97.651953) scale(0.28 -0.28)">
       <use xlink:href="#Cmr10-33"/>
       <use xlink:href="#Cmmi10-bc" transform="translate(50 0)"/>
       <use xlink:href="#Cmmi10-3d" transform="translate(106.982422 0)"/>
       <use xlink:href="#Cmr10-32" transform="translate(156.982422 0)"/>
      </g>
     </g>
    </g>
    <g id="ytick_5">
     <g id="line2d_10">
      <g>
       <use xlink:href="#mc7cd930e6e" x="107.665625" y="21.437813" style="stroke: #000000; stroke-width: 0.8"/>
      </g>
     </g>
     <g id="text_11">
      <!-- $2\pi$ -->
      <g transform="translate(70.705625 32.075625) scale(0.28 -0.28)">
       <use xlink:href="#Cmr10-32" transform="translate(0 0.390625)"/>
       <use xlink:href="#Cmmi10-bc" transform="translate(50 0.390625)"/>
      </g>
     </g>
    </g>
    <g id="text_12">
     <!-- $\theta_{\mathrm{Boozer}}$ -->
     <g transform="translate(36.634687 197.576094) rotate(-90) scale(0.34 -0.34)">
      <defs>
       <path id="Cmmi10-b5" d="M 1031 -72 
Q 741 -72 566 140 
Q 391 353 323 653 
Q 256 953 256 1247 
L 256 1253 
Q 256 1572 317 1915 
Q 378 2259 493 2601 
Q 609 2944 744 3213 
Q 838 3400 986 3631 
Q 1134 3863 1317 4064 
Q 1500 4266 1711 4389 
Q 1922 4513 2138 4513 
L 2144 4513 
Q 2375 4513 2529 4384 
Q 2684 4256 2770 4056 
Q 2856 3856 2890 3628 
Q 2925 3400 2925 3194 
Q 2925 2709 2794 2204 
Q 2663 1700 2431 1228 
Q 2344 1050 2189 809 
Q 2034 569 1861 378 
Q 1688 188 1472 58 
Q 1256 -72 1038 -72 
L 1031 -72 
z
M 1044 97 
Q 1256 97 1451 323 
Q 1647 550 1794 873 
Q 1941 1197 2052 1536 
Q 2163 1875 2216 2113 
L 909 2113 
Q 809 1709 753 1417 
Q 697 1125 697 844 
Q 697 97 1044 97 
z
M 959 2338 
L 2272 2338 
Q 2341 2619 2381 2808 
Q 2422 2997 2450 3206 
Q 2478 3416 2478 3597 
Q 2478 4347 2138 4347 
Q 1731 4347 1436 3692 
Q 1141 3038 959 2338 
z
" transform="scale(0.015625)"/>
      </defs>
      <use xlink:href="#Cmmi10-b5" transform="translate(0 0.484375)"/>
      <use xlink:href="#Cmr10-42" transform="translate(46.923828 -16.521875) scale(0.7)"/>
      <use xlink:href="#Cmr10-6f" transform="translate(96.484375 -16.521875) scale(0.7)"/>
      <use xlink:href="#Cmr10-6f" transform="translate(131.484375 -16.521875) scale(0.7)"/>
      <use xlink:href="#Cmr10-7a" transform="translate(166.484375 -16.521875) scale(0.7)"/>
      <use xlink:href="#Cmr10-65" transform="translate(197.553711 -16.521875) scale(0.7)"/>
      <use xlink:href="#Cmr10-72" transform="translate(228.623047 -16.521875) scale(0.7)"/>
     </g>
    </g>
   </g>
   <g id="QuadContourSet_1">
    <path d="M 231.573125 152.866094 
L 231.573125 152.866094 
L 231.573125 152.866094 
L 231.573125 152.866094 
L 231.573125 152.866094 
z
" clip-path="url(#p3474c2d7ce)" style="fill: none; stroke: #000080"/>
    <path d="M 220.76195 284.294375 
L 222.741437 278.453118 
L 223.712165 275.53249 
L 225.672222 269.691233 
L 226.066125 268.347169 
L 227.618695 263.849976 
L 231.007256 252.167462 
L 231.695023 249.246833 
L 232.504599 246.326205 
L 233.170098 243.405576 
L 234.158627 237.564319 
L 234.612925 234.643691 
L 235.018883 231.723062 
L 235.296456 228.802434 
L 235.455649 225.881806 
L 235.500357 222.961177 
L 235.429643 220.040549 
L 235.238636 217.11992 
L 234.919073 214.199292 
L 233.445863 205.437406 
L 232.779081 202.516778 
L 229.478868 190.834264 
L 228.556141 187.913635 
L 226.815337 182.072378 
L 225.897289 179.15175 
L 220.357678 158.707351 
L 214.315116 132.421694 
L 209.93921 111.977295 
L 208.925071 106.136038 
L 208.206394 100.294781 
L 208.00535 97.374153 
L 207.946398 94.453524 
L 208.050629 91.532896 
L 208.326978 88.612267 
L 208.767497 85.691639 
L 210.024493 79.850382 
L 212.048596 71.088497 
L 213.140994 65.24724 
L 213.917606 59.405983 
L 214.725481 50.644097 
L 215.323518 44.80284 
L 216.219586 38.961583 
L 217.407034 33.120326 
L 218.147937 30.199698 
L 220.76195 21.437813 
M 242.3843 21.437813 
L 240.404813 27.279069 
L 239.434085 30.199698 
L 237.474028 36.040955 
L 237.080125 37.385019 
L 235.527555 41.882212 
L 232.138994 53.564726 
L 231.451227 56.485354 
L 230.641651 59.405983 
L 229.976152 62.326611 
L 228.987623 68.167868 
L 228.533325 71.088497 
L 228.127367 74.009125 
L 227.849794 76.929753 
L 227.690601 79.850382 
L 227.645893 82.77101 
L 227.716607 85.691639 
L 227.907614 88.612267 
L 228.227177 91.532896 
L 229.700387 100.294781 
L 230.367169 103.21541 
L 233.667382 114.897924 
L 234.590109 117.818552 
L 236.330913 123.659809 
L 237.248961 126.580438 
L 242.788572 147.024837 
L 248.831134 173.310493 
L 253.20704 193.754892 
L 254.221179 199.596149 
L 254.939856 205.437406 
L 255.1409 208.358035 
L 255.199852 211.278663 
L 255.095621 214.199292 
L 254.819272 217.11992 
L 254.378753 220.040549 
L 253.121757 225.881806 
L 251.097654 234.643691 
L 250.005256 240.484948 
L 249.228644 246.326205 
L 248.420769 255.08809 
L 247.822732 260.929347 
L 246.926664 266.770604 
L 245.739216 272.611861 
L 244.998313 275.53249 
L 242.3843 284.294375 
L 242.3843 284.294375 
" clip-path="url(#p3474c2d7ce)" style="fill: none; stroke: #0000a4"/>
    <path d="M 215.339417 284.294375 
L 217.440422 278.453118 
L 222.189303 263.849976 
L 225.250836 252.167462 
L 227.700346 240.484948 
L 228.555279 234.643691 
L 229.18033 228.802434 
L 229.369546 225.881806 
L 229.446381 222.961177 
L 229.406521 220.040549 
L 229.24511 217.11992 
L 228.590592 211.278663 
L 227.577808 205.437406 
L 226.138225 199.596149 
L 214.646885 158.707351 
L 210.740962 144.104208 
L 205.719243 126.580438 
L 200.487279 109.056667 
L 198.531125 101.39208 
L 197.805946 97.374153 
L 197.032149 91.532896 
L 196.792184 88.612267 
L 196.665604 85.691639 
L 196.659867 82.77101 
L 196.777221 79.850382 
L 197.356582 74.009125 
L 198.28841 68.167868 
L 198.531125 66.900867 
L 200.820185 59.405983 
L 201.284625 57.94532 
L 207.733444 41.882212 
L 214.29094 24.358441 
L 215.339417 21.437813 
M 247.806833 21.437813 
L 245.705828 27.279069 
L 240.956947 41.882212 
L 237.895414 53.564726 
L 235.445904 65.24724 
L 234.590971 71.088497 
L 233.96592 76.929753 
L 233.776704 79.850382 
L 233.699869 82.77101 
L 233.739729 85.691639 
L 233.90114 88.612267 
L 234.555658 94.453524 
L 235.568442 100.294781 
L 237.008025 106.136038 
L 248.499365 147.024837 
L 252.405288 161.627979 
L 257.427007 179.15175 
L 262.658971 196.675521 
L 264.615125 204.340107 
L 265.340304 208.358035 
L 266.114101 214.199292 
L 266.354066 217.11992 
L 266.480646 220.040549 
L 266.486383 222.961177 
L 266.369029 225.881806 
L 265.789668 231.723062 
L 264.85784 237.564319 
L 264.615125 238.831321 
L 262.326065 246.326205 
L 261.861625 247.786868 
L 255.412806 263.849976 
L 248.85531 281.373747 
L 247.806833 284.294375 
L 247.806833 284.294375 
" clip-path="url(#p3474c2d7ce)" style="fill: none; stroke: #0000cd"/>
    <path d="M 211.348742 284.294375 
L 214.684528 275.53249 
L 217.805625 265.912257 
L 219.287837 260.929347 
L 221.501891 252.167462 
L 222.781244 246.326205 
L 224.416442 237.564319 
L 225.165852 231.723062 
L 225.546221 225.881806 
L 225.510258 220.040549 
L 225.320473 217.11992 
L 225.010404 214.199292 
L 224.5791 211.278663 
L 224.028869 208.358035 
L 222.674693 202.516778 
L 221.073643 196.675521 
L 215.017058 176.231122 
L 210.026216 158.707351 
L 203.048149 135.342323 
L 195.647645 111.977295 
L 194.155453 106.136038 
L 192.885954 100.294781 
L 192.062591 94.453524 
L 191.614853 88.612267 
L 191.560271 82.77101 
L 191.874202 76.929753 
L 192.495248 71.088497 
L 193.024125 67.361797 
L 194.084472 62.326611 
L 195.777625 55.265876 
L 198.531125 47.586878 
L 202.973852 38.961583 
L 207.470051 30.199698 
L 210.111846 24.358441 
L 211.348742 21.437813 
M 251.797508 21.437813 
L 248.461722 30.199698 
L 245.340625 39.81993 
L 243.858413 44.80284 
L 241.644359 53.564726 
L 240.365006 59.405983 
L 238.729808 68.167868 
L 237.980398 74.009125 
L 237.600029 79.850382 
L 237.635992 85.691639 
L 237.825777 88.612267 
L 238.135846 91.532896 
L 238.56715 94.453524 
L 239.117381 97.374153 
L 240.471557 103.21541 
L 242.072607 109.056667 
L 248.129192 129.501066 
L 253.120034 147.024837 
L 260.098101 170.389865 
L 267.498605 193.754892 
L 268.990797 199.596149 
L 270.260296 205.437406 
L 271.083659 211.278663 
L 271.531397 217.11992 
L 271.585979 222.961177 
L 271.272048 228.802434 
L 270.651002 234.643691 
L 270.122125 238.370391 
L 269.061778 243.405576 
L 267.368625 250.466312 
L 264.615125 258.145309 
L 260.172398 266.770604 
L 255.676199 275.53249 
L 253.034404 281.373747 
L 251.797508 284.294375 
L 251.797508 284.294375 
" clip-path="url(#p3474c2d7ce)" style="fill: none; stroke: #0000f6"/>
    <path d="M 207.964888 284.294375 
L 210.458535 278.453118 
L 212.629967 272.611861 
L 214.56312 266.770604 
L 217.06564 258.008719 
L 219.835881 246.326205 
L 221.45826 237.564319 
L 222.186966 231.723062 
L 222.50818 225.881806 
L 222.497328 222.961177 
L 222.362578 220.040549 
L 222.099138 217.11992 
L 221.705725 214.199292 
L 221.185281 211.278663 
L 219.857203 205.437406 
L 218.242231 199.596149 
L 209.495616 170.389865 
L 206.068554 158.707351 
L 202.510768 147.024837 
L 191.313896 111.977295 
L 189.83768 106.136038 
L 188.722689 100.294781 
L 187.993326 94.453524 
L 187.684841 88.612267 
L 187.790863 82.77101 
L 188.268641 76.929753 
L 189.051396 71.088497 
L 190.270625 64.233968 
L 191.393572 59.405983 
L 193.024125 53.057411 
L 195.914684 44.80284 
L 198.647778 38.961583 
L 205.112539 27.279069 
L 207.964888 21.437813 
M 255.181362 21.437813 
L 252.687715 27.279069 
L 250.516283 33.120326 
L 248.58313 38.961583 
L 246.08061 47.723469 
L 243.310369 59.405983 
L 241.68799 68.167868 
L 240.959284 74.009125 
L 240.63807 79.850382 
L 240.648922 82.77101 
L 240.783672 85.691639 
L 241.047112 88.612267 
L 241.440525 91.532896 
L 241.960969 94.453524 
L 243.289047 100.294781 
L 244.904019 106.136038 
L 253.650634 135.342323 
L 257.077696 147.024837 
L 260.635482 158.707351 
L 271.832354 193.754892 
L 273.30857 199.596149 
L 274.423561 205.437406 
L 275.152924 211.278663 
L 275.461409 217.11992 
L 275.355387 222.961177 
L 274.877609 228.802434 
L 274.094854 234.643691 
L 272.875625 241.498219 
L 271.752678 246.326205 
L 270.122125 252.674777 
L 267.231566 260.929347 
L 264.498472 266.770604 
L 258.033711 278.453118 
L 255.181362 284.294375 
L 255.181362 284.294375 
" clip-path="url(#p3474c2d7ce)" style="fill: none; stroke: #000cff"/>
    <path d="M 204.963286 284.294375 
L 207.649153 278.453118 
L 209.94602 272.611861 
L 211.936304 266.770604 
L 214.491891 258.008719 
L 217.310019 246.326205 
L 218.941703 237.564319 
L 219.61731 231.723062 
L 219.793792 228.802434 
L 219.850255 225.881806 
L 219.77768 222.961177 
L 219.569365 220.040549 
L 219.222776 217.11992 
L 218.740755 214.199292 
L 217.430447 208.358035 
L 215.820311 202.516778 
L 203.452884 161.627979 
L 199.828967 149.945465 
L 194.996313 135.342323 
L 189.087263 117.818552 
L 187.350037 111.977295 
L 185.911855 106.136038 
L 184.854364 100.294781 
L 184.492355 97.374153 
L 184.244404 94.453524 
L 184.109737 91.532896 
L 184.171906 85.691639 
L 184.645395 79.850382 
L 185.47481 74.009125 
L 186.583641 68.167868 
L 187.920461 62.326611 
L 190.270625 53.517311 
L 193.181575 44.80284 
L 195.777625 38.64478 
L 200.273922 30.199698 
L 204.963286 21.437813 
M 258.182964 21.437813 
L 255.497097 27.279069 
L 253.20023 33.120326 
L 251.209946 38.961583 
L 248.654359 47.723469 
L 245.836231 59.405983 
L 244.204547 68.167868 
L 243.52894 74.009125 
L 243.352458 76.929753 
L 243.295995 79.850382 
L 243.36857 82.77101 
L 243.576885 85.691639 
L 243.923474 88.612267 
L 244.405495 91.532896 
L 245.715803 97.374153 
L 247.325939 103.21541 
L 259.693366 144.104208 
L 263.317283 155.786722 
L 268.149937 170.389865 
L 274.058987 187.913635 
L 275.796213 193.754892 
L 277.234395 199.596149 
L 278.291886 205.437406 
L 278.653895 208.358035 
L 278.901846 211.278663 
L 279.036513 214.199292 
L 278.974344 220.040549 
L 278.500855 225.881806 
L 277.67144 231.723062 
L 276.562609 237.564319 
L 275.225789 243.405576 
L 272.875625 252.214877 
L 269.964675 260.929347 
L 267.368625 267.087407 
L 262.872328 275.53249 
L 258.182964 284.294375 
L 258.182964 284.294375 
" clip-path="url(#p3474c2d7ce)" style="fill: none; stroke: #0030ff"/>
    <path d="M 202.258234 284.294375 
L 205.089754 278.453118 
L 207.509787 272.611861 
L 209.553927 266.770604 
L 211.377063 260.929347 
L 213.724717 252.167462 
L 215.052125 246.297789 
L 216.222708 240.484948 
L 217.037967 234.643691 
L 217.287354 231.723062 
L 217.416019 228.802434 
L 217.412106 225.881806 
L 217.265997 222.961177 
L 216.972955 220.040549 
L 216.535069 217.11992 
L 215.961609 214.199292 
L 214.495003 208.358035 
L 212.298625 200.991186 
L 198.531125 156.141211 
L 195.546995 147.024837 
L 192.518865 138.262951 
L 184.763625 116.260015 
L 183.486229 111.977295 
L 182.068553 106.136038 
L 181.524038 103.21541 
L 181.092513 100.294781 
L 180.776779 97.374153 
L 180.579053 94.453524 
L 180.50002 91.532896 
L 180.538859 88.612267 
L 180.693328 85.691639 
L 181.333851 79.850382 
L 182.371664 74.009125 
L 183.715927 68.167868 
L 185.29424 62.326611 
L 187.930608 53.564726 
L 190.270625 46.580109 
L 193.024125 39.474064 
L 195.990963 33.120326 
L 202.258234 21.437813 
M 260.888016 21.437813 
L 258.056496 27.279069 
L 255.636463 33.120326 
L 253.592323 38.961583 
L 251.769187 44.80284 
L 249.421533 53.564726 
L 248.094125 59.434399 
L 246.923542 65.24724 
L 246.108283 71.088497 
L 245.858896 74.009125 
L 245.730231 76.929753 
L 245.734144 79.850382 
L 245.880253 82.77101 
L 246.173295 85.691639 
L 246.611181 88.612267 
L 247.184641 91.532896 
L 248.651247 97.374153 
L 250.847625 104.741002 
L 264.615125 149.590976 
L 267.599255 158.707351 
L 270.627385 167.469236 
L 278.382625 189.472172 
L 279.660021 193.754892 
L 281.077697 199.596149 
L 281.622212 202.516778 
L 282.053737 205.437406 
L 282.369471 208.358035 
L 282.567197 211.278663 
L 282.64623 214.199292 
L 282.607391 217.11992 
L 282.452922 220.040549 
L 281.812399 225.881806 
L 280.774586 231.723062 
L 279.430323 237.564319 
L 277.85201 243.405576 
L 275.215642 252.167462 
L 272.875625 259.152078 
L 270.122125 266.258124 
L 267.155287 272.611861 
L 260.888016 284.294375 
L 260.888016 284.294375 
" clip-path="url(#p3474c2d7ce)" style="fill: none; stroke: #0050ff"/>
    <path d="M 199.797752 284.294375 
L 202.70652 278.453118 
L 205.232047 272.611861 
L 207.370716 266.770604 
L 209.215217 260.929347 
L 211.626447 252.167462 
L 213.616036 243.405576 
L 214.571138 237.564319 
L 215.052125 232.445293 
L 215.106704 231.723062 
L 215.180767 228.802434 
L 215.052125 225.257686 
L 214.867257 222.961177 
L 214.478118 220.040549 
L 213.942899 217.11992 
L 212.510124 211.278663 
L 210.797387 205.437406 
L 201.284625 174.562992 
L 197.250226 161.627979 
L 193.352427 149.945465 
L 190.197412 141.18358 
L 181.406713 117.818552 
L 179.658326 111.977295 
L 178.933382 109.056667 
L 177.816877 103.21541 
L 177.424138 100.294781 
L 177.146305 97.374153 
L 176.986013 94.453524 
L 176.945192 91.532896 
L 177.024959 88.612267 
L 177.2255 85.691639 
L 177.545941 82.77101 
L 177.984212 79.850382 
L 179.199595 74.009125 
L 180.781149 68.167868 
L 183.613897 59.405983 
L 187.752106 47.723469 
L 190.270625 41.137674 
L 193.024125 34.699391 
L 196.712714 27.279069 
L 199.797752 21.437813 
M 263.348498 21.437813 
L 260.43973 27.279069 
L 257.914203 33.120326 
L 255.775534 38.961583 
L 253.931033 44.80284 
L 251.519803 53.564726 
L 249.530214 62.326611 
L 248.575112 68.167868 
L 248.094125 73.286895 
L 248.039546 74.009125 
L 247.965483 76.929753 
L 248.094125 80.474501 
L 248.278993 82.77101 
L 248.668132 85.691639 
L 249.203351 88.612267 
L 250.636126 94.453524 
L 252.348863 100.294781 
L 261.861625 131.169195 
L 265.896024 144.104208 
L 269.793823 155.786722 
L 272.948838 164.548608 
L 281.739537 187.913635 
L 283.487924 193.754892 
L 284.212868 196.675521 
L 285.329373 202.516778 
L 285.722112 205.437406 
L 285.999945 208.358035 
L 286.160237 211.278663 
L 286.201058 214.199292 
L 286.121291 217.11992 
L 285.92075 220.040549 
L 285.600309 222.961177 
L 285.162038 225.881806 
L 283.946655 231.723062 
L 282.365101 237.564319 
L 279.532353 246.326205 
L 275.394144 258.008719 
L 272.875625 264.594513 
L 270.122125 271.032796 
L 266.433536 278.453118 
L 263.348498 284.294375 
L 263.348498 284.294375 
" clip-path="url(#p3474c2d7ce)" style="fill: none; stroke: #0074ff"/>
    <path d="M 197.529714 284.294375 
L 201.801031 275.53249 
L 204.20453 269.691233 
L 206.262991 263.849976 
L 208.065296 258.008719 
L 209.647885 252.167462 
L 211.057041 246.326205 
L 212.156851 240.484948 
L 212.866023 234.643691 
L 213.01742 231.723062 
L 213.014459 228.802434 
L 212.847986 225.881806 
L 212.298625 221.645305 
L 212.021345 220.040549 
L 210.639991 214.199292 
L 208.927444 208.358035 
L 195.239666 164.548608 
L 192.260262 155.786722 
L 189.036188 147.024837 
L 185.542969 138.262951 
L 179.256625 122.673436 
L 177.596776 117.818552 
L 175.942549 111.977295 
L 174.699818 106.136038 
L 173.869594 100.294781 
L 173.619394 97.374153 
L 173.482864 94.453524 
L 173.463033 91.532896 
L 173.749625 86.212522 
L 173.789748 85.691639 
L 174.14219 82.77101 
L 174.62125 79.850382 
L 175.225927 76.929753 
L 176.503125 72.125675 
L 177.736645 68.167868 
L 179.864626 62.326611 
L 184.501936 50.644097 
L 185.660763 47.723469 
L 189.220693 38.961583 
L 191.775268 33.120326 
L 193.106944 30.199698 
L 197.529714 21.437813 
M 265.616536 21.437813 
L 261.345219 30.199698 
L 258.94172 36.040955 
L 256.883259 41.882212 
L 255.080954 47.723469 
L 253.498365 53.564726 
L 252.089209 59.405983 
L 250.989399 65.24724 
L 250.280227 71.088497 
L 250.12883 74.009125 
L 250.131791 76.929753 
L 250.298264 79.850382 
L 250.847625 84.086882 
L 251.124905 85.691639 
L 252.506259 91.532896 
L 254.218806 97.374153 
L 267.906584 141.18358 
L 270.885988 149.945465 
L 274.110062 158.707351 
L 277.603281 167.469236 
L 283.889625 183.058751 
L 285.549474 187.913635 
L 287.203701 193.754892 
L 288.446432 199.596149 
L 289.276656 205.437406 
L 289.526856 208.358035 
L 289.663386 211.278663 
L 289.683217 214.199292 
L 289.396625 219.519666 
L 289.356502 220.040549 
L 289.00406 222.961177 
L 288.525 225.881806 
L 287.920323 228.802434 
L 286.643125 233.606513 
L 285.409605 237.564319 
L 283.281624 243.405576 
L 278.644314 255.08809 
L 277.485487 258.008719 
L 273.925557 266.770604 
L 271.370982 272.611861 
L 270.039306 275.53249 
L 265.616536 284.294375 
L 265.616536 284.294375 
" clip-path="url(#p3474c2d7ce)" style="fill: none; stroke: #0098ff"/>
    <path d="M 195.404156 284.294375 
L 200.953335 272.611861 
L 203.24973 266.770604 
L 205.229565 260.929347 
L 206.964305 255.08809 
L 208.497183 249.246833 
L 209.753882 243.405576 
L 210.247329 240.484948 
L 210.619123 237.564319 
L 210.853126 234.643691 
L 210.932575 231.723062 
L 210.843532 228.802434 
L 210.579357 225.881806 
L 210.144288 222.961177 
L 209.545125 220.002737 
L 208.00383 214.199292 
L 205.286201 205.437406 
L 192.24462 164.548608 
L 189.066026 155.786722 
L 186.777399 149.945465 
L 183.067342 141.18358 
L 178.031578 129.501066 
L 175.792486 123.659809 
L 173.749625 117.349692 
L 172.343291 111.977295 
L 171.167711 106.136038 
L 170.372316 100.294781 
L 170.130867 97.374153 
L 170.002539 94.453524 
L 169.993855 91.532896 
L 170.110731 88.612267 
L 170.357972 85.691639 
L 170.996125 81.323842 
L 171.252312 79.850382 
L 171.896589 76.929753 
L 172.673958 74.009125 
L 174.604989 68.167868 
L 176.962484 62.326611 
L 180.895843 53.564726 
L 183.513744 47.723469 
L 187.517125 38.510398 
L 191.198594 30.199698 
L 193.972298 24.358441 
L 195.404156 21.437813 
M 267.742094 21.437813 
L 262.192915 33.120326 
L 259.89652 38.961583 
L 257.916685 44.80284 
L 256.181945 50.644097 
L 254.649067 56.485354 
L 253.392368 62.326611 
L 252.898921 65.24724 
L 252.527127 68.167868 
L 252.293124 71.088497 
L 252.213675 74.009125 
L 252.302718 76.929753 
L 252.566893 79.850382 
L 253.001962 82.77101 
L 253.601125 85.72945 
L 255.14242 91.532896 
L 257.860049 100.294781 
L 270.90163 141.18358 
L 274.080224 149.945465 
L 276.368851 155.786722 
L 280.078908 164.548608 
L 285.114672 176.231122 
L 287.353764 182.072378 
L 289.396625 188.382496 
L 290.802959 193.754892 
L 291.978539 199.596149 
L 292.773934 205.437406 
L 293.015383 208.358035 
L 293.143711 211.278663 
L 293.152395 214.199292 
L 293.035519 217.11992 
L 292.788278 220.040549 
L 292.150125 224.408346 
L 291.893938 225.881806 
L 291.249661 228.802434 
L 290.472292 231.723062 
L 288.541261 237.564319 
L 286.183766 243.405576 
L 282.250407 252.167462 
L 279.632506 258.008719 
L 275.629125 267.221789 
L 271.947656 275.53249 
L 269.173952 281.373747 
L 267.742094 284.294375 
L 267.742094 284.294375 
" clip-path="url(#p3474c2d7ce)" style="fill: none; stroke: #00bcff"/>
    <path d="M 193.402096 284.294375 
L 197.591069 275.53249 
L 200.117223 269.691233 
L 202.310157 263.849976 
L 204.220891 258.008719 
L 205.892962 252.167462 
L 207.306501 246.326205 
L 208.331765 240.484948 
L 208.655663 237.564319 
L 208.825735 234.643691 
L 208.821948 231.723062 
L 208.631947 228.802434 
L 208.256564 225.881806 
L 207.711759 222.961177 
L 206.791625 219.164807 
L 205.334161 214.199292 
L 199.740044 196.675521 
L 194.154367 179.15175 
L 191.193705 170.389865 
L 189.081379 164.548608 
L 186.833178 158.707351 
L 184.419185 152.866094 
L 179.172256 141.18358 
L 176.503125 135.21798 
L 173.749625 128.450304 
L 172.040005 123.659809 
L 170.246242 117.818552 
L 168.769327 111.977295 
L 167.604266 106.136038 
L 166.79798 100.294781 
L 166.555305 97.374153 
L 166.431642 94.453524 
L 166.435282 91.532896 
L 166.573006 88.612267 
L 166.849638 85.691639 
L 167.268027 82.77101 
L 168.242625 78.145035 
L 168.526829 76.929753 
L 169.353871 74.009125 
L 170.996125 69.304477 
L 171.414052 68.167868 
L 173.950752 62.326611 
L 176.83089 56.485354 
L 182.686229 44.80284 
L 187.517125 34.261234 
L 192.018292 24.358441 
L 193.402096 21.437813 
M 269.744154 21.437813 
L 265.555181 30.199698 
L 263.029027 36.040955 
L 260.836093 41.882212 
L 258.925359 47.723469 
L 257.253288 53.564726 
L 255.839749 59.405983 
L 254.814485 65.24724 
L 254.490587 68.167868 
L 254.320515 71.088497 
L 254.324302 74.009125 
L 254.514303 76.929753 
L 254.889686 79.850382 
L 255.434491 82.77101 
L 256.354625 86.567381 
L 257.812089 91.532896 
L 263.406206 109.056667 
L 268.991883 126.580438 
L 271.952545 135.342323 
L 274.064871 141.18358 
L 276.313072 147.024837 
L 278.727065 152.866094 
L 283.973994 164.548608 
L 286.643125 170.514208 
L 289.396625 177.281883 
L 291.106245 182.072378 
L 292.900008 187.913635 
L 294.376923 193.754892 
L 295.541984 199.596149 
L 296.34827 205.437406 
L 296.590945 208.358035 
L 296.714608 211.278663 
L 296.710968 214.199292 
L 296.573244 217.11992 
L 296.296612 220.040549 
L 295.878223 222.961177 
L 294.903625 227.587153 
L 294.619421 228.802434 
L 293.792379 231.723062 
L 292.150125 236.42771 
L 291.732198 237.564319 
L 289.195498 243.405576 
L 286.31536 249.246833 
L 280.460021 260.929347 
L 275.629125 271.470954 
L 271.127958 281.373747 
L 269.744154 284.294375 
L 269.744154 284.294375 
" clip-path="url(#p3474c2d7ce)" style="fill: none; stroke: #00e0fb"/>
    <path d="M 191.460468 284.294375 
L 196.842677 272.611861 
L 199.252577 266.770604 
L 201.365534 260.929347 
L 203.197375 255.08809 
L 204.771375 249.246833 
L 205.970304 243.405576 
L 206.392987 240.484948 
L 206.663743 237.564319 
L 206.755369 234.643691 
L 206.647999 231.723062 
L 206.336997 228.802434 
L 205.836818 225.881806 
L 205.178342 222.961177 
L 203.520765 217.11992 
L 197.811523 199.596149 
L 191.08784 179.15175 
L 189.009816 173.310493 
L 186.808054 167.469236 
L 184.441426 161.627979 
L 180.530602 152.866094 
L 172.563772 135.342323 
L 170.293178 129.501066 
L 168.242625 123.457499 
L 166.563753 117.818552 
L 165.083881 111.977295 
L 163.867955 106.136038 
L 163.035057 100.294781 
L 162.735625 95.929415 
L 162.676163 94.453524 
L 162.735625 91.016647 
L 162.876838 88.612267 
L 163.197269 85.691639 
L 163.667245 82.77101 
L 164.286243 79.850382 
L 165.489125 75.546585 
L 165.953198 74.009125 
L 166.982617 71.088497 
L 169.435702 65.24724 
L 172.348697 59.405983 
L 182.010125 41.824931 
L 186.150495 33.120326 
L 191.460468 21.437813 
M 271.685782 21.437813 
L 266.303573 33.120326 
L 263.893673 38.961583 
L 261.780716 44.80284 
L 259.948875 50.644097 
L 258.374875 56.485354 
L 257.175946 62.326611 
L 256.753263 65.24724 
L 256.482507 68.167868 
L 256.390881 71.088497 
L 256.498251 74.009125 
L 256.809253 76.929753 
L 257.309432 79.850382 
L 257.967908 82.77101 
L 259.625485 88.612267 
L 265.334727 106.136038 
L 272.05841 126.580438 
L 274.136434 132.421694 
L 276.338196 138.262951 
L 278.704824 144.104208 
L 282.615648 152.866094 
L 290.582478 170.389865 
L 292.853072 176.231122 
L 294.903625 182.274688 
L 296.582497 187.913635 
L 298.062369 193.754892 
L 299.278295 199.596149 
L 300.111193 205.437406 
L 300.410625 209.802772 
L 300.470087 211.278663 
L 300.410625 214.715541 
L 300.269412 217.11992 
L 299.948981 220.040549 
L 299.479005 222.961177 
L 298.860007 225.881806 
L 297.657125 230.185602 
L 297.193052 231.723063 
L 296.163633 234.643691 
L 293.710548 240.484948 
L 290.797553 246.326205 
L 281.136125 263.907256 
L 276.995755 272.611861 
L 271.685782 284.294375 
L 271.685782 284.294375 
" clip-path="url(#p3474c2d7ce)" style="fill: none; stroke: #19ffde"/>
    <path d="M 189.529814 284.294375 
L 196.027416 269.691233 
L 198.531125 263.32697 
L 200.35454 258.008719 
L 202.10469 252.167462 
L 203.492784 246.326205 
L 204.038125 243.289649 
L 204.374151 240.484948 
L 204.552951 237.564319 
L 204.540625 234.643691 
L 204.326072 231.723062 
L 203.902619 228.802434 
L 203.269021 225.881806 
L 201.636276 220.040549 
L 199.703423 214.199292 
L 189.846521 184.993007 
L 186.630763 176.231122 
L 184.315224 170.389865 
L 180.468248 161.627979 
L 176.503125 153.225132 
L 173.558348 147.024837 
L 170.94144 141.18358 
L 168.242625 134.535622 
L 166.392879 129.501066 
L 163.556578 120.739181 
L 161.1438 111.977295 
L 159.872629 106.136038 
L 159.369285 103.21541 
L 158.99384 100.294781 
L 158.759644 97.374153 
L 158.676273 94.453524 
L 158.749206 91.532896 
L 158.98035 88.612267 
L 159.369093 85.691639 
L 159.982125 82.488007 
L 160.600345 79.850382 
L 161.435641 76.929753 
L 162.735625 73.203276 
L 163.530073 71.088497 
L 165.489125 66.682577 
L 166.148657 65.24724 
L 169.235388 59.405983 
L 172.690682 53.564726 
L 176.503125 47.406728 
L 179.716876 41.882212 
L 182.799993 36.040955 
L 185.599491 30.199698 
L 189.529814 21.437813 
M 273.616436 21.437813 
L 267.118834 36.040955 
L 264.615125 42.405218 
L 262.79171 47.723469 
L 261.04156 53.564726 
L 259.653466 59.405983 
L 259.108125 62.442539 
L 258.772099 65.24724 
L 258.593299 68.167868 
L 258.605625 71.088497 
L 258.820178 74.009125 
L 259.243631 76.929753 
L 259.877229 79.850382 
L 261.509974 85.691639 
L 263.442827 91.532896 
L 273.299729 120.739181 
L 276.515487 129.501066 
L 278.831026 135.342323 
L 282.678002 144.104208 
L 286.643125 152.507056 
L 289.587902 158.707351 
L 292.20481 164.548608 
L 294.903625 171.196566 
L 296.753371 176.231122 
L 299.589672 184.993007 
L 302.00245 193.754892 
L 303.273621 199.596149 
L 303.776965 202.516778 
L 304.15241 205.437406 
L 304.386606 208.358035 
L 304.469977 211.278663 
L 304.397044 214.199292 
L 304.1659 217.11992 
L 303.777157 220.040549 
L 303.164125 223.244181 
L 302.545905 225.881806 
L 301.710609 228.802434 
L 300.410625 232.528911 
L 299.616177 234.643691 
L 297.657125 239.04961 
L 296.997593 240.484948 
L 293.910862 246.326205 
L 290.455568 252.167462 
L 286.643125 258.325459 
L 283.429374 263.849976 
L 280.346257 269.691233 
L 277.546759 275.53249 
L 273.616436 284.294375 
L 273.616436 284.294375 
" clip-path="url(#p3474c2d7ce)" style="fill: none; stroke: #33ffc4"/>
    <path d="M 187.594178 284.294375 
L 196.238419 263.849976 
L 198.531125 257.413744 
L 200.087451 252.167462 
L 201.284625 247.219158 
L 201.468 246.326205 
L 201.915952 243.405576 
L 202.196269 240.484948 
L 202.281231 237.564319 
L 202.151758 234.643691 
L 201.805832 231.723062 
L 201.260275 228.802434 
L 199.614065 222.961177 
L 197.642282 217.11992 
L 185.145779 182.072378 
L 183.976477 179.15175 
L 181.527374 173.310493 
L 177.496427 164.548608 
L 167.923344 144.104208 
L 165.489125 138.107794 
L 163.361201 132.421694 
L 159.982125 122.358264 
L 158.559082 117.818552 
L 156.929183 111.977295 
L 155.61648 106.136038 
L 155.139758 103.21541 
L 154.803848 100.294781 
L 154.619463 97.374153 
L 154.592553 94.453524 
L 154.724879 91.532896 
L 155.015212 88.612267 
L 155.46075 85.691639 
L 156.058466 82.77101 
L 157.228625 78.482979 
L 157.702869 76.929753 
L 158.747241 74.009125 
L 159.982125 71.000911 
L 161.259499 68.167868 
L 164.296215 62.326611 
L 168.242625 55.794217 
L 171.578575 50.644097 
L 176.503125 43.166335 
L 180.653797 36.040955 
L 182.213606 33.120326 
L 185.012097 27.279069 
L 187.594178 21.437813 
M 275.552072 21.437813 
L 266.907831 41.882212 
L 264.615125 48.318444 
L 263.058799 53.564726 
L 261.861625 58.51303 
L 261.67825 59.405983 
L 261.230298 62.326611 
L 260.949981 65.24724 
L 260.865019 68.167868 
L 260.994492 71.088497 
L 261.340418 74.009125 
L 261.885975 76.929753 
L 263.532185 82.77101 
L 265.503968 88.612267 
L 278.000471 123.659809 
L 279.169773 126.580438 
L 281.618876 132.421694 
L 285.649823 141.18358 
L 295.222906 161.627979 
L 297.657125 167.624393 
L 299.785049 173.310493 
L 303.164125 183.373924 
L 304.587168 187.913635 
L 306.217067 193.754892 
L 307.52977 199.596149 
L 308.006492 202.516778 
L 308.342402 205.437406 
L 308.526787 208.358035 
L 308.553697 211.278663 
L 308.421371 214.199292 
L 308.131038 217.11992 
L 307.6855 220.040549 
L 307.087784 222.961177 
L 305.917625 227.249209 
L 305.443381 228.802434 
L 304.399009 231.723062 
L 303.164125 234.731277 
L 301.886751 237.564319 
L 298.850035 243.405576 
L 294.903625 249.937971 
L 291.567675 255.08809 
L 286.643125 262.565852 
L 282.492453 269.691233 
L 280.932644 272.611861 
L 278.134153 278.453118 
L 275.552072 284.294375 
L 275.552072 284.294375 
" clip-path="url(#p3474c2d7ce)" style="fill: none; stroke: #50ffa7"/>
    <path d="M 185.570953 284.294375 
L 193.024125 266.389842 
L 196.152023 258.008719 
L 197.94158 252.167462 
L 198.686663 249.246833 
L 199.240242 246.326205 
L 199.631257 243.405576 
L 199.82471 240.484948 
L 199.792536 237.564319 
L 199.523953 234.643691 
L 199.032093 231.723062 
L 198.33365 228.802434 
L 196.456663 222.961177 
L 195.409291 220.040549 
L 188.875581 202.516778 
L 184.558852 190.834264 
L 180.995311 182.072378 
L 178.413631 176.231122 
L 173.749625 166.438698 
L 168.599632 155.786722 
L 165.489125 148.875488 
L 162.735625 142.227482 
L 161.188039 138.262951 
L 158.020084 129.501066 
L 154.475125 118.773619 
L 153.331557 114.897924 
L 151.899242 109.056667 
L 151.36723 106.136038 
L 150.974045 103.21541 
L 150.721706 100.294781 
L 150.614544 97.374153 
L 150.65353 94.453524 
L 150.837408 91.532896 
L 151.163875 88.612267 
L 151.721625 85.256555 
L 152.258625 82.77101 
L 153.032385 79.850382 
L 154.475125 75.482118 
L 155.017465 74.009125 
L 157.228625 69.002518 
L 157.61854 68.167868 
L 159.982125 63.784778 
L 160.79802 62.326611 
L 164.467536 56.485354 
L 176.559961 38.961583 
L 180.000051 33.120326 
L 182.010125 29.302078 
L 184.763625 23.335617 
L 185.570953 21.437813 
M 277.575297 21.437813 
L 270.122125 39.342345 
L 266.994227 47.723469 
L 265.20467 53.564726 
L 264.459587 56.485354 
L 263.906008 59.405983 
L 263.514993 62.326611 
L 263.32154 65.24724 
L 263.353714 68.167868 
L 263.622297 71.088497 
L 264.114157 74.009125 
L 264.8126 76.929753 
L 266.689587 82.77101 
L 267.736959 85.691639 
L 274.270669 103.21541 
L 278.587398 114.897924 
L 282.150939 123.659809 
L 284.732619 129.501066 
L 289.396625 139.29349 
L 294.546618 149.945465 
L 297.657125 156.8567 
L 300.410625 163.504706 
L 301.958211 167.469236 
L 305.126166 176.231122 
L 308.671125 186.958568 
L 309.814693 190.834264 
L 311.247008 196.675521 
L 311.77902 199.596149 
L 312.172205 202.516778 
L 312.424544 205.437406 
L 312.531706 208.358035 
L 312.49272 211.278663 
L 312.308842 214.199292 
L 311.982375 217.11992 
L 311.424625 220.475632 
L 310.887625 222.961177 
L 310.113865 225.881806 
L 308.671125 230.25007 
L 308.128785 231.723062 
L 305.917625 236.729669 
L 305.52771 237.564319 
L 303.164125 241.94741 
L 302.34823 243.405576 
L 298.678714 249.246833 
L 286.586289 266.770604 
L 283.146199 272.611861 
L 281.136125 276.430109 
L 278.382625 282.396571 
L 277.575297 284.294375 
L 277.575297 284.294375 
" clip-path="url(#p3474c2d7ce)" style="fill: none; stroke: #6dff8a"/>
    <path d="M 183.438462 284.294375 
L 185.822072 278.453118 
L 193.024125 260.146854 
L 194.716227 255.08809 
L 195.777625 251.416472 
L 196.27469 249.246833 
L 196.78297 246.326205 
L 197.095762 243.405576 
L 197.175729 240.484948 
L 197.001482 237.564319 
L 196.576644 234.643691 
L 195.777625 231.163652 
L 194.026923 225.881806 
L 191.755833 220.040549 
L 184.763625 202.210938 
L 180.228181 190.834264 
L 177.705322 184.993007 
L 175.013105 179.15175 
L 170.753922 170.389865 
L 165.489125 159.536557 
L 162.459354 152.866094 
L 159.982125 146.988237 
L 157.228625 139.934709 
L 154.475125 132.339714 
L 151.543907 123.659809 
L 149.789444 117.818552 
L 148.968125 114.717267 
L 147.812127 109.056667 
L 147.385432 106.136038 
L 147.085661 103.21541 
L 146.917402 100.294781 
L 146.882093 97.374153 
L 146.978954 94.453524 
L 147.206004 91.532896 
L 147.561002 88.612267 
L 148.042193 85.691639 
L 148.968125 81.503308 
L 149.404481 79.850382 
L 150.310048 76.929753 
L 151.721625 73.093795 
L 152.559932 71.088497 
L 154.475125 67.11992 
L 155.462306 65.24724 
L 157.228625 62.218995 
L 160.966628 56.485354 
L 167.361892 47.723469 
L 170.996125 42.887032 
L 175.761063 36.040955 
L 177.577258 33.120326 
L 179.285559 30.199698 
L 182.182992 24.358441 
L 183.438462 21.437813 
M 279.707788 21.437813 
L 277.324178 27.279069 
L 270.122125 45.585333 
L 268.430023 50.644097 
L 267.368625 54.315715 
L 266.87156 56.485354 
L 266.36328 59.405983 
L 266.050488 62.326611 
L 265.970521 65.24724 
L 266.144768 68.167868 
L 266.569606 71.088497 
L 267.368625 74.568536 
L 269.119327 79.850382 
L 271.390417 85.691639 
L 278.382625 103.521249 
L 282.918069 114.897924 
L 285.440928 120.739181 
L 288.133145 126.580438 
L 292.392328 135.342323 
L 297.657125 146.19563 
L 300.686896 152.866094 
L 303.164125 158.743951 
L 305.917625 165.797478 
L 308.671125 173.392473 
L 311.602343 182.072378 
L 313.356806 187.913635 
L 314.178125 191.014921 
L 315.334123 196.675521 
L 315.760818 199.596149 
L 316.060589 202.516778 
L 316.228848 205.437406 
L 316.264157 208.358035 
L 316.167296 211.278663 
L 315.940246 214.199292 
L 315.585248 217.11992 
L 315.104057 220.040549 
L 314.178125 224.228879 
L 313.741769 225.881806 
L 312.836202 228.802434 
L 311.424625 232.638392 
L 310.586318 234.643691 
L 308.671125 238.612268 
L 307.683944 240.484948 
L 305.917625 243.513192 
L 302.179622 249.246833 
L 295.784358 258.008719 
L 292.150125 262.845155 
L 287.385187 269.691233 
L 285.568992 272.611861 
L 283.860691 275.53249 
L 280.963258 281.373747 
L 279.707788 284.294375 
L 279.707788 284.294375 
" clip-path="url(#p3474c2d7ce)" style="fill: none; stroke: #8aff6d"/>
    <path d="M 181.143555 284.294375 
L 182.371914 281.373747 
L 190.270625 260.485729 
L 192.079826 255.08809 
L 193.024125 251.795776 
L 193.572316 249.246833 
L 194.011181 246.326205 
L 194.217749 243.405576 
L 194.158683 240.484948 
L 193.824671 237.564319 
L 193.024125 233.859015 
L 192.375852 231.723062 
L 190.198528 225.881806 
L 184.011882 211.278663 
L 176.503125 193.007657 
L 172.825862 184.993007 
L 168.242625 175.648315 
L 162.735625 164.527569 
L 159.982125 158.662493 
L 157.228625 152.372306 
L 154.475125 145.483409 
L 151.721625 137.89576 
L 148.933611 129.501066 
L 146.368165 120.739181 
L 145.651595 117.818552 
L 144.482422 111.977295 
L 143.721138 106.136038 
L 143.461125 101.611158 
L 143.447676 97.374153 
L 143.589696 94.453524 
L 143.847295 91.532896 
L 144.700402 85.691639 
L 145.295065 82.77101 
L 146.214625 79.103693 
L 146.864022 76.929753 
L 147.861878 74.009125 
L 148.992038 71.088497 
L 150.315309 68.167868 
L 151.789028 65.24724 
L 154.475125 60.700775 
L 155.294698 59.405983 
L 159.428112 53.564726 
L 172.885259 36.040955 
L 174.873043 33.120326 
L 176.72688 30.199698 
L 179.256625 25.553417 
L 181.143555 21.437813 
M 282.002695 21.437813 
L 280.774336 24.358441 
L 272.875625 45.246458 
L 271.066424 50.644097 
L 270.122125 53.936411 
L 269.573934 56.485354 
L 269.135069 59.405983 
L 268.928501 62.326611 
L 268.987567 65.24724 
L 269.321579 68.167868 
L 270.122125 71.873173 
L 270.770398 74.009125 
L 272.947722 79.850382 
L 279.134368 94.453524 
L 286.643125 112.72453 
L 290.320388 120.739181 
L 294.903625 130.083872 
L 300.410625 141.204619 
L 303.164125 147.069695 
L 305.917625 153.359882 
L 308.671125 160.248778 
L 311.424625 167.836428 
L 314.212639 176.231122 
L 316.778085 184.993007 
L 317.494655 187.913635 
L 318.663828 193.754892 
L 319.425112 199.596149 
L 319.685125 204.12103 
L 319.698574 208.358035 
L 319.556554 211.278663 
L 319.298955 214.199292 
L 318.445848 220.040549 
L 317.851185 222.961177 
L 316.931625 226.628495 
L 316.282228 228.802434 
L 315.284372 231.723062 
L 314.154212 234.643691 
L 312.830941 237.564319 
L 311.357222 240.484948 
L 308.671125 245.031413 
L 307.851552 246.326205 
L 303.718138 252.167462 
L 290.260991 269.691233 
L 288.273207 272.611861 
L 286.41937 275.53249 
L 283.889625 280.17877 
L 282.002695 284.294375 
L 282.002695 284.294375 
" clip-path="url(#p3474c2d7ce)" style="fill: none; stroke: #a7ff50"/>
    <path d="M 178.595058 284.294375 
L 179.836305 281.373747 
L 182.028225 275.53249 
L 185.082042 266.770604 
L 188.189546 258.008719 
L 189.913261 252.167462 
L 190.509817 249.246833 
L 190.850897 246.326205 
L 190.926078 243.405576 
L 190.710241 240.484948 
L 190.2017 237.564319 
L 189.37878 234.643691 
L 187.517125 229.624172 
L 184.763625 223.388278 
L 181.989035 217.11992 
L 171.977052 193.754892 
L 168.242625 186.011398 
L 155.987052 161.627979 
L 153.422582 155.786722 
L 151.1206 149.945465 
L 148.968125 143.861646 
L 146.214625 135.128178 
L 143.833074 126.580438 
L 143.105722 123.659809 
L 141.859705 117.818552 
L 140.918325 111.977295 
L 140.592964 109.056667 
L 140.251573 103.21541 
L 140.298291 97.374153 
L 140.730855 91.532896 
L 141.58517 85.691639 
L 142.83929 79.850382 
L 143.631645 76.929753 
L 144.573156 74.009125 
L 146.214625 69.660601 
L 146.855474 68.167868 
L 148.968125 63.867794 
L 149.81532 62.326611 
L 151.721625 59.175143 
L 154.475125 55.165803 
L 157.902777 50.644097 
L 170.996125 34.271305 
L 173.836704 30.199698 
L 176.503125 25.701995 
L 178.595058 21.437813 
M 284.551192 21.437812 
L 283.309945 24.358441 
L 281.118025 30.199698 
L 278.064208 38.961583 
L 274.956704 47.723469 
L 273.232989 53.564726 
L 272.636433 56.485354 
L 272.295353 59.405983 
L 272.220172 62.326611 
L 272.436009 65.24724 
L 272.94455 68.167868 
L 273.76747 71.088497 
L 275.629125 76.108016 
L 278.382625 82.34391 
L 281.157215 88.612267 
L 291.169198 111.977295 
L 294.903625 119.720789 
L 307.159198 144.104208 
L 309.723668 149.945465 
L 312.02565 155.786722 
L 314.178125 161.870542 
L 316.931625 170.604009 
L 319.313176 179.15175 
L 320.040528 182.072378 
L 321.286545 187.913635 
L 322.227925 193.754892 
L 322.553286 196.675521 
L 322.894677 202.516778 
L 322.847959 208.358035 
L 322.415395 214.199292 
L 321.56108 220.040549 
L 320.30696 225.881806 
L 319.514605 228.802434 
L 318.573094 231.723062 
L 316.931625 236.071587 
L 316.290776 237.564319 
L 314.178125 241.864394 
L 313.33093 243.405576 
L 311.424625 246.557045 
L 308.671125 250.566385 
L 305.243473 255.08809 
L 292.150125 271.460883 
L 289.309546 275.53249 
L 286.643125 280.030192 
L 284.551192 284.294375 
L 284.551192 284.294375 
" clip-path="url(#p3474c2d7ce)" style="fill: none; stroke: #c4ff33"/>
    <path d="M 175.662583 284.294375 
L 176.974424 281.373747 
L 179.256625 275.204237 
L 182.963954 263.849976 
L 184.931796 258.008719 
L 185.78295 255.08809 
L 186.501743 252.167462 
L 187.013253 249.246833 
L 187.251237 246.326205 
L 187.170537 243.405576 
L 186.758354 240.484948 
L 186.039122 237.564319 
L 184.763625 233.859344 
L 182.605292 228.802434 
L 177.440636 217.11992 
L 170.996125 202.133043 
L 168.242625 196.268028 
L 164.005255 187.913635 
L 159.303312 179.15175 
L 154.475125 170.041506 
L 151.721625 164.372668 
L 148.968125 157.900978 
L 147.123279 152.866094 
L 145.239203 147.024837 
L 143.461125 140.890128 
L 140.707625 130.014507 
L 139.36179 123.659809 
L 138.343132 117.818552 
L 137.627983 111.977295 
L 137.253294 106.136038 
L 137.219692 100.294781 
L 137.528175 94.453524 
L 138.183934 88.612267 
L 139.208936 82.77101 
L 140.598521 76.929753 
L 141.474632 74.009125 
L 143.461125 68.45899 
L 144.869362 65.24724 
L 146.304518 62.326611 
L 148.968125 57.740439 
L 149.775203 56.485354 
L 151.796038 53.564726 
L 156.334724 47.723469 
L 168.333361 33.120326 
L 170.996125 29.450523 
L 173.749625 25.111494 
L 174.170413 24.358441 
L 175.662583 21.437813 
M 287.483667 21.437813 
L 286.171826 24.358441 
L 283.889625 30.527951 
L 280.182296 41.882212 
L 278.214454 47.723469 
L 277.3633 50.644097 
L 276.644507 53.564726 
L 276.132997 56.485354 
L 275.895013 59.405983 
L 275.975713 62.326611 
L 276.387896 65.24724 
L 277.107128 68.167868 
L 278.382625 71.872844 
L 280.540958 76.929753 
L 285.705614 88.612267 
L 292.150125 103.599145 
L 294.903625 109.464159 
L 299.140995 117.818552 
L 303.842938 126.580438 
L 308.671125 135.690682 
L 311.424625 141.35952 
L 314.178125 147.83121 
L 316.022971 152.866094 
L 317.907047 158.707351 
L 319.685125 164.84206 
L 322.438625 175.71768 
L 323.78446 182.072378 
L 324.803118 187.913635 
L 325.518267 193.754892 
L 325.892956 199.596149 
L 325.926558 205.437406 
L 325.618075 211.278663 
L 324.962316 217.11992 
L 323.937314 222.961177 
L 322.547729 228.802434 
L 321.671618 231.723062 
L 319.685125 237.273198 
L 318.276888 240.484948 
L 316.841732 243.405576 
L 314.178125 247.991748 
L 313.371047 249.246833 
L 311.350212 252.167462 
L 306.811526 258.008719 
L 294.812889 272.611861 
L 292.150125 276.281664 
L 289.396625 280.620693 
L 288.975837 281.373747 
L 287.483667 284.294375 
L 287.483667 284.294375 
" clip-path="url(#p3474c2d7ce)" style="fill: none; stroke: #deff19"/>
    <path d="M 172.192699 284.294375 
L 173.749625 281.101812 
L 175.8176 275.53249 
L 176.767357 272.611861 
L 179.487483 263.849976 
L 182.110073 255.08809 
L 182.719682 252.167462 
L 183.098912 249.246833 
L 183.183403 246.326205 
L 182.937834 243.405576 
L 182.365794 240.484948 
L 181.493644 237.564319 
L 179.256625 231.887822 
L 177.926412 228.802434 
L 172.947252 217.11992 
L 169.142257 208.358035 
L 166.396717 202.516778 
L 163.435206 196.675521 
L 159.982125 190.315859 
L 151.721625 175.792752 
L 148.930431 170.389865 
L 146.214625 164.290516 
L 144.145672 158.707351 
L 143.186447 155.786722 
L 141.499796 149.945465 
L 140.010627 144.104208 
L 137.954125 135.034331 
L 136.328973 126.580438 
L 135.200625 119.139511 
L 134.740528 114.897924 
L 134.356085 109.056667 
L 134.270653 103.21541 
L 134.489738 97.374153 
L 135.011091 91.532896 
L 135.850956 85.691639 
L 137.01149 79.850382 
L 138.532078 74.009125 
L 140.480722 68.167868 
L 141.659786 65.24724 
L 143.461125 61.336094 
L 144.467555 59.405983 
L 146.214625 56.343178 
L 148.968125 52.150275 
L 152.278788 47.723469 
L 157.228625 41.703827 
L 164.309388 33.120326 
L 166.563023 30.199698 
L 168.676919 27.279069 
L 170.996125 23.642708 
L 172.192699 21.437813 
M 290.953551 21.437813 
L 289.396625 24.630375 
L 287.32865 30.199698 
L 286.378893 33.120326 
L 283.658767 41.882212 
L 281.036177 50.644097 
L 280.426568 53.564726 
L 280.047338 56.485354 
L 279.962847 59.405983 
L 280.208416 62.326611 
L 280.780456 65.24724 
L 281.652606 68.167868 
L 283.889625 73.844365 
L 285.219838 76.929753 
L 290.198998 88.612267 
L 294.003993 97.374153 
L 296.749533 103.21541 
L 299.711044 109.056667 
L 303.164125 115.416329 
L 311.424625 129.939435 
L 314.215819 135.342323 
L 316.931625 141.441671 
L 319.000578 147.024837 
L 319.959803 149.945465 
L 321.646454 155.786722 
L 323.135623 161.627979 
L 325.192125 170.697856 
L 326.817277 179.15175 
L 327.945625 186.592677 
L 328.405722 190.834264 
L 328.790165 196.675521 
L 328.875597 202.516778 
L 328.656512 208.358035 
L 328.135159 214.199292 
L 327.295294 220.040549 
L 326.13476 225.881806 
L 324.614172 231.723062 
L 322.665528 237.564319 
L 321.486464 240.484948 
L 319.685125 244.396093 
L 318.678695 246.326205 
L 316.931625 249.389009 
L 314.178125 253.581912 
L 310.867462 258.008719 
L 305.917625 264.028361 
L 298.836862 272.611861 
L 296.583227 275.53249 
L 294.469331 278.453118 
L 292.150125 282.089479 
L 290.953551 284.294375 
L 290.953551 284.294375 
" clip-path="url(#p3474c2d7ce)" style="fill: none; stroke: #fbf100"/>
    <path d="M 168.026132 284.294375 
L 169.518684 281.373747 
L 170.996125 278.044769 
L 172.855024 272.611861 
L 175.549606 263.849976 
L 177.287102 258.008719 
L 178.00334 255.08809 
L 178.531204 252.167462 
L 178.790278 249.246833 
L 178.727309 246.326205 
L 178.332081 243.405576 
L 177.639777 240.484948 
L 176.503125 236.987926 
L 174.504291 231.723062 
L 168.242625 216.507866 
L 165.489125 210.433215 
L 162.735625 204.880637 
L 159.878982 199.596149 
L 156.468063 193.754892 
L 147.719123 179.15175 
L 146.160497 176.231122 
L 143.43357 170.389865 
L 141.210089 164.548608 
L 140.251627 161.627979 
L 138.588099 155.786722 
L 137.169203 149.945465 
L 135.200625 140.515338 
L 133.755635 132.421694 
L 132.858138 126.580438 
L 132.138071 120.739181 
L 131.642615 114.897924 
L 131.398968 109.056667 
L 131.423385 103.21541 
L 131.719903 97.374153 
L 132.287144 91.532896 
L 133.132427 85.691639 
L 134.259997 79.850382 
L 135.702131 74.009125 
L 137.514621 68.167868 
L 138.589501 65.24724 
L 140.707625 60.292152 
L 142.637597 56.485354 
L 144.314115 53.564726 
L 146.214625 50.569344 
L 148.968125 46.672415 
L 152.707525 41.882212 
L 162.735625 29.326338 
L 165.489125 25.470642 
L 166.231412 24.358441 
L 168.026132 21.437813 
M 295.120118 21.437813 
L 293.627566 24.358441 
L 292.150125 27.687418 
L 290.291226 33.120326 
L 287.596644 41.882212 
L 285.859148 47.723469 
L 285.14291 50.644097 
L 284.615046 53.564726 
L 284.355972 56.485354 
L 284.418941 59.405983 
L 284.814169 62.326611 
L 285.506473 65.24724 
L 286.643125 68.744262 
L 288.641959 74.009125 
L 294.903625 89.224321 
L 297.657125 95.298972 
L 300.410625 100.851551 
L 303.267268 106.136038 
L 306.678187 111.977295 
L 315.427127 126.580438 
L 316.985753 129.501066 
L 319.71268 135.342323 
L 321.936161 141.18358 
L 322.894623 144.104208 
L 324.558151 149.945465 
L 325.977047 155.786722 
L 327.945625 165.216849 
L 329.390615 173.310493 
L 330.288112 179.15175 
L 331.008179 184.993007 
L 331.503635 190.834264 
L 331.747282 196.675521 
L 331.722865 202.516778 
L 331.426347 208.358035 
L 330.859106 214.199292 
L 330.013823 220.040549 
L 328.886253 225.881806 
L 327.444119 231.723062 
L 325.631629 237.564319 
L 324.556749 240.484948 
L 322.438625 245.440036 
L 320.508653 249.246833 
L 318.832135 252.167462 
L 316.931625 255.162843 
L 314.178125 259.059773 
L 310.438725 263.849976 
L 300.410625 276.40585 
L 297.657125 280.261546 
L 296.914838 281.373747 
L 295.120118 284.294375 
L 295.120118 284.294375 
" clip-path="url(#p3474c2d7ce)" style="fill: none; stroke: #ffd000"/>
    <path d="M 162.94356 284.294375 
L 165.489125 279.441936 
L 165.944198 278.453118 
L 168.242625 272.555741 
L 171.978137 260.929347 
L 172.800659 258.008719 
L 173.479233 255.08809 
L 173.920709 252.167462 
L 174.075145 249.246833 
L 173.925759 246.326205 
L 173.481002 243.405576 
L 172.796618 240.484948 
L 170.973218 234.643691 
L 168.242625 227.194739 
L 166.562095 222.961177 
L 164.020537 217.11992 
L 161.174225 211.278663 
L 159.629533 208.358035 
L 156.257197 202.516778 
L 151.721625 195.317153 
L 146.951289 187.913635 
L 145.196414 184.993007 
L 143.461125 181.906377 
L 140.686454 176.231122 
L 138.367487 170.389865 
L 137.378 167.469236 
L 135.674324 161.627979 
L 134.257016 155.786722 
L 133.042463 149.945465 
L 131.477607 141.18358 
L 130.167284 132.421694 
L 129.454362 126.580438 
L 128.909803 120.739181 
L 128.571262 114.897924 
L 128.461977 109.056667 
L 128.594054 103.21541 
L 128.97077 97.374153 
L 129.693625 90.792475 
L 130.45078 85.691639 
L 131.558838 79.850382 
L 132.93996 74.009125 
L 134.632738 68.167868 
L 135.617945 65.24724 
L 137.954125 59.315761 
L 139.263169 56.485354 
L 140.743948 53.564726 
L 143.461125 48.865315 
L 146.214625 44.707318 
L 150.425032 38.961583 
L 159.14485 27.279069 
L 162.735625 21.776611 
L 162.94356 21.437812 
M 300.20269 21.437813 
L 297.657125 26.290252 
L 297.202052 27.279069 
L 294.903625 33.176447 
L 291.168113 44.80284 
L 290.345591 47.723469 
L 289.667017 50.644097 
L 289.225541 53.564726 
L 289.071105 56.485354 
L 289.220491 59.405983 
L 289.665248 62.326611 
L 290.349632 65.24724 
L 292.173032 71.088497 
L 294.903625 78.537448 
L 296.584155 82.77101 
L 299.125713 88.612267 
L 301.972025 94.453524 
L 303.516717 97.374153 
L 306.889053 103.21541 
L 311.424625 110.415035 
L 316.194961 117.818552 
L 317.949836 120.739181 
L 319.685125 123.82581 
L 322.459796 129.501066 
L 324.778763 135.342323 
L 325.76825 138.262951 
L 327.471926 144.104208 
L 328.889234 149.945465 
L 330.103787 155.786722 
L 331.668643 164.548608 
L 332.978966 173.310493 
L 333.691888 179.15175 
L 334.236447 184.993007 
L 334.574988 190.834264 
L 334.684273 196.675521 
L 334.552196 202.516778 
L 334.17548 208.358035 
L 333.452625 214.939712 
L 332.69547 220.040549 
L 331.587412 225.881806 
L 330.20629 231.723062 
L 328.513512 237.564319 
L 327.528305 240.484948 
L 325.192125 246.416426 
L 323.883081 249.246833 
L 322.402302 252.167462 
L 319.685125 256.866873 
L 316.931625 261.024869 
L 312.721218 266.770604 
L 304.0014 278.453118 
L 300.410625 283.955577 
L 300.20269 284.294375 
L 300.20269 284.294375 
" clip-path="url(#p3474c2d7ce)" style="fill: none; stroke: #ffae00"/>
    <path d="M 157.072156 284.294375 
L 160.123879 278.453118 
L 162.735625 272.427583 
L 165.945131 263.849976 
L 167.790809 258.008719 
L 168.467286 255.08809 
L 168.894921 252.167462 
L 169.050997 249.246833 
L 168.929111 246.326205 
L 168.556656 243.405576 
L 167.981874 240.484948 
L 167.255114 237.564319 
L 165.466703 231.723062 
L 163.308902 225.881806 
L 162.088397 222.961177 
L 159.342256 217.11992 
L 156.15234 211.278663 
L 154.408882 208.358035 
L 150.600663 202.516778 
L 142.838704 190.834264 
L 140.707625 187.19264 
L 138.088304 182.072378 
L 136.798397 179.15175 
L 134.571575 173.310493 
L 132.762875 167.469236 
L 131.269148 161.627979 
L 129.693625 154.054669 
L 128.465573 147.024837 
L 127.222453 138.262951 
L 126.248273 129.501066 
L 125.788227 123.659809 
L 125.510081 117.818552 
L 125.432989 111.977295 
L 125.569869 106.136038 
L 125.926578 100.294781 
L 126.50392 94.453524 
L 127.291649 88.612267 
L 128.284362 82.77101 
L 129.693625 76.136321 
L 130.960632 71.088497 
L 132.698867 65.24724 
L 134.774205 59.405983 
L 135.965289 56.485354 
L 137.954125 52.117892 
L 140.707625 46.90356 
L 143.759303 41.882212 
L 148.968125 34.067149 
L 151.721625 30.024053 
L 155.341998 24.358441 
L 157.072156 21.437813 
M 306.074094 21.437813 
L 303.022371 27.279069 
L 300.410625 33.304604 
L 297.201119 41.882212 
L 295.355441 47.723469 
L 294.678964 50.644097 
L 294.251329 53.564726 
L 294.095253 56.485354 
L 294.217139 59.405983 
L 294.589594 62.326611 
L 295.164376 65.24724 
L 295.891136 68.167868 
L 297.679547 74.009125 
L 299.837348 79.850382 
L 301.057853 82.77101 
L 303.803994 88.612267 
L 306.99391 94.453524 
L 308.737368 97.374153 
L 312.545587 103.21541 
L 320.307546 114.897924 
L 322.438625 118.539547 
L 325.057946 123.659809 
L 326.347853 126.580438 
L 328.574675 132.421694 
L 330.383375 138.262951 
L 331.877102 144.104208 
L 333.452625 151.677519 
L 334.680677 158.707351 
L 335.923797 167.469236 
L 336.897977 176.231122 
L 337.358023 182.072378 
L 337.636169 187.913635 
L 337.713261 193.754892 
L 337.576381 199.596149 
L 337.219672 205.437406 
L 336.64233 211.278663 
L 335.854601 217.11992 
L 334.861888 222.961177 
L 333.452625 229.595866 
L 332.185618 234.643691 
L 330.447383 240.484948 
L 328.372045 246.326205 
L 327.180961 249.246833 
L 325.192125 253.614295 
L 322.438625 258.828628 
L 319.386947 263.849976 
L 314.178125 271.665038 
L 311.424625 275.708134 
L 307.804252 281.373747 
L 306.074094 284.294375 
L 306.074094 284.294375 
" clip-path="url(#p3474c2d7ce)" style="fill: none; stroke: #ff8d00"/>
    <path d="M 150.631898 284.294375 
L 154.475125 276.619185 
L 157.699159 269.691233 
L 160.229216 263.849976 
L 161.354414 260.929347 
L 162.735625 256.519013 
L 163.106438 255.08809 
L 163.631603 252.167462 
L 163.893455 249.246833 
L 163.895534 246.326205 
L 163.661798 243.405576 
L 163.22443 240.484948 
L 162.612961 237.564319 
L 161.842301 234.643691 
L 159.982125 229.047047 
L 159.892229 228.802434 
L 157.376631 222.961177 
L 155.889509 220.040549 
L 154.288795 217.11992 
L 150.644063 211.278663 
L 146.214625 204.853067 
L 142.546573 199.596149 
L 140.611876 196.675521 
L 137.954125 192.295357 
L 135.603242 187.913635 
L 134.210086 184.993007 
L 131.794327 179.15175 
L 129.811673 173.310493 
L 128.152906 167.469236 
L 126.791143 161.627979 
L 125.619519 155.786722 
L 124.663825 149.945465 
L 123.507237 141.18358 
L 122.922951 135.342323 
L 122.498086 129.501066 
L 122.23448 123.659809 
L 122.141394 117.818552 
L 122.230575 111.977295 
L 122.511744 106.136038 
L 122.990139 100.294781 
L 123.66685 94.453524 
L 125.011084 85.691639 
L 126.13046 79.850382 
L 127.439041 74.009125 
L 128.940859 68.167868 
L 130.677116 62.326611 
L 132.689793 56.485354 
L 135.200625 50.241406 
L 137.954125 44.379793 
L 140.840641 38.961583 
L 150.631898 21.437813 
M 312.514352 21.437813 
L 308.671125 29.113003 
L 305.447091 36.040955 
L 302.917034 41.882212 
L 301.791836 44.80284 
L 300.410625 49.213174 
L 300.039812 50.644097 
L 299.514647 53.564726 
L 299.252795 56.485354 
L 299.250716 59.405983 
L 299.484452 62.326611 
L 299.92182 65.24724 
L 300.533289 68.167868 
L 301.303949 71.088497 
L 303.164125 76.685141 
L 303.254021 76.929753 
L 305.769619 82.77101 
L 307.256741 85.691639 
L 308.857455 88.612267 
L 312.502187 94.453524 
L 316.931625 100.87912 
L 320.599677 106.136038 
L 322.534374 109.056667 
L 325.192125 113.43683 
L 327.543008 117.818552 
L 328.936164 120.739181 
L 331.351923 126.580438 
L 333.334577 132.421694 
L 334.993344 138.262951 
L 336.355107 144.104208 
L 337.526731 149.945465 
L 338.482425 155.786722 
L 339.639013 164.548608 
L 340.223299 170.389865 
L 340.648164 176.231122 
L 340.91177 182.072378 
L 341.004856 187.913635 
L 340.915675 193.754892 
L 340.634506 199.596149 
L 340.156111 205.437406 
L 339.4794 211.278663 
L 338.135166 220.040549 
L 337.01579 225.881806 
L 335.707209 231.723062 
L 334.205391 237.564319 
L 332.469134 243.405576 
L 330.456457 249.246833 
L 327.945625 255.490782 
L 325.192125 261.352395 
L 322.305609 266.770604 
L 312.514352 284.294375 
L 312.514352 284.294375 
" clip-path="url(#p3474c2d7ce)" style="fill: none; stroke: #ff6c00"/>
    <path d="M 143.608785 284.294375 
L 146.467585 278.453118 
L 151.144249 269.691233 
L 152.689596 266.770604 
L 154.475125 263.188165 
L 155.496489 260.929347 
L 156.65864 258.008719 
L 157.599091 255.08809 
L 158.284225 252.167462 
L 158.70184 249.246833 
L 158.853314 246.326205 
L 158.752513 243.405576 
L 158.418717 240.484948 
L 157.872153 237.564319 
L 157.127762 234.643691 
L 156.167277 231.723062 
L 154.475125 227.529627 
L 153.702522 225.881806 
L 151.721625 222.108577 
L 148.658665 217.11992 
L 144.609364 211.278663 
L 138.455365 202.516778 
L 136.566359 199.596149 
L 134.795758 196.675521 
L 131.635878 190.834264 
L 128.951165 184.993007 
L 126.690703 179.15175 
L 124.759633 173.310493 
L 122.398257 164.548608 
L 120.611298 155.786722 
L 119.711002 149.945465 
L 119.067567 144.104208 
L 118.460416 135.342323 
L 118.267973 129.501066 
L 118.254211 123.659809 
L 118.413003 117.818552 
L 118.951284 109.056667 
L 119.500723 103.21541 
L 120.22429 97.374153 
L 121.433125 89.770044 
L 122.13873 85.691639 
L 123.296124 79.850382 
L 125.291694 71.088497 
L 126.940125 64.768093 
L 128.458829 59.405983 
L 130.298703 53.564726 
L 132.447125 47.426804 
L 135.200625 40.372696 
L 139.620754 30.199698 
L 143.608785 21.437813 
M 319.537465 21.437813 
L 316.678665 27.279069 
L 312.002001 36.040955 
L 310.456654 38.961583 
L 308.671125 42.544022 
L 307.649761 44.80284 
L 306.48761 47.723469 
L 305.547159 50.644097 
L 304.862025 53.564726 
L 304.44441 56.485354 
L 304.292936 59.405983 
L 304.393737 62.326611 
L 304.727533 65.24724 
L 305.274097 68.167868 
L 306.018488 71.088497 
L 306.978973 74.009125 
L 308.671125 78.202561 
L 309.443728 79.850382 
L 311.424625 83.62361 
L 314.487585 88.612267 
L 318.536886 94.453524 
L 324.690885 103.21541 
L 326.579891 106.136038 
L 328.350492 109.056667 
L 331.510372 114.897924 
L 334.195085 120.739181 
L 336.455547 126.580438 
L 338.386617 132.421694 
L 340.747993 141.18358 
L 342.534952 149.945465 
L 343.435248 155.786722 
L 344.078683 161.627979 
L 344.685834 170.389865 
L 344.878277 176.231122 
L 344.892039 182.072378 
L 344.733247 187.913635 
L 344.194966 196.675521 
L 343.645527 202.516778 
L 342.92196 208.358035 
L 341.713125 215.962143 
L 341.00752 220.040549 
L 339.850126 225.881806 
L 337.854556 234.643691 
L 336.206125 240.964095 
L 334.687421 246.326205 
L 332.847547 252.167462 
L 330.699125 258.305383 
L 327.945625 265.359491 
L 323.525496 275.53249 
L 319.537465 284.294375 
L 319.537465 284.294375 
" clip-path="url(#p3474c2d7ce)" style="fill: none; stroke: #ff4e00"/>
    <path d="M 134.790595 284.294375 
L 135.200625 283.496394 
L 136.166384 281.373747 
L 139.82047 275.53249 
L 140.707625 274.36266 
L 141.872412 272.611861 
L 143.945185 269.691233 
L 146.214625 266.344936 
L 148.968125 261.743109 
L 149.403684 260.929347 
L 150.813006 258.008719 
L 151.974007 255.08809 
L 152.836023 252.167462 
L 153.408447 249.246833 
L 153.686445 246.326205 
L 153.67401 243.405576 
L 153.381274 240.484948 
L 152.823323 237.564319 
L 151.721625 233.794495 
L 150.942523 231.723062 
L 148.968125 227.487683 
L 148.096338 225.881806 
L 146.214625 222.71806 
L 142.430633 217.11992 
L 135.200625 206.814174 
L 132.415582 202.516778 
L 128.943893 196.675521 
L 125.841806 190.834264 
L 123.06438 184.993007 
L 119.404494 176.231122 
L 118.317004 173.310493 
L 117.1948 170.389865 
L 114.358786 161.627979 
L 113.658224 158.707351 
L 113.099617 155.786722 
L 112.47905 152.866094 
L 112.095692 149.945465 
L 111.890129 147.024837 
L 111.850653 141.18358 
L 112.131567 135.342323 
L 112.610114 129.501066 
L 114.144756 114.897924 
L 115.373675 106.136038 
L 117.874829 91.532896 
L 120.937687 76.929753 
L 125.866339 56.485354 
L 129.507904 41.882212 
L 132.862992 27.279069 
L 133.672035 24.358441 
L 134.790595 21.437813 
M 328.355655 21.437813 
L 327.945625 22.235794 
L 326.979866 24.358441 
L 323.32578 30.199698 
L 322.438625 31.369527 
L 321.273838 33.120326 
L 319.201065 36.040955 
L 316.931625 39.387251 
L 314.178125 43.989079 
L 313.742566 44.80284 
L 312.333244 47.723469 
L 311.172243 50.644097 
L 310.310227 53.564726 
L 309.737803 56.485354 
L 309.459805 59.405983 
L 309.47224 62.326611 
L 309.764976 65.24724 
L 310.322927 68.167868 
L 311.424625 71.937692 
L 312.203727 74.009125 
L 314.178125 78.244505 
L 315.049912 79.850382 
L 316.931625 83.014127 
L 320.715617 88.612267 
L 327.945625 98.918013 
L 330.730668 103.21541 
L 334.202357 109.056667 
L 337.304444 114.897924 
L 340.08187 120.739181 
L 343.741756 129.501066 
L 344.829246 132.421694 
L 345.95145 135.342323 
L 348.787464 144.104208 
L 349.488026 147.024837 
L 350.046633 149.945465 
L 350.6672 152.866094 
L 351.050558 155.786722 
L 351.256121 158.707351 
L 351.295597 164.548608 
L 351.014683 170.389865 
L 350.536136 176.231122 
L 349.001494 190.834264 
L 347.772575 199.596149 
L 345.271421 214.199292 
L 342.208563 228.802434 
L 337.279911 249.246833 
L 333.638346 263.849976 
L 330.283258 278.453118 
L 329.474215 281.373747 
L 328.355655 284.294375 
L 328.355655 284.294375 
" clip-path="url(#p3474c2d7ce)" style="fill: none; stroke: #ff2d00"/>
    <path d="M 107.665625 270.983062 
L 110.419125 270.75215 
L 113.172625 270.776447 
L 115.926125 271.106737 
L 124.186625 272.815311 
L 126.940125 272.765031 
L 129.693625 272.074248 
L 132.447125 270.735981 
L 135.200625 268.81152 
L 137.954125 266.373295 
L 140.707625 263.383925 
L 143.461125 259.611528 
L 144.424136 258.008719 
L 146.214625 254.327501 
L 146.996857 252.167462 
L 147.721316 249.246833 
L 148.096227 246.326205 
L 148.11932 243.405576 
L 147.799442 240.484948 
L 147.156931 237.564319 
L 146.214625 234.625409 
L 144.94348 231.723062 
L 143.450716 228.802434 
L 140.707625 224.31875 
L 137.852719 220.040549 
L 127.819828 205.437406 
L 123.960761 199.596149 
L 118.679625 191.954789 
L 117.599947 190.834264 
L 115.926125 188.816669 
L 114.391087 187.913635 
L 113.172625 187.056363 
L 110.419125 187.710981 
L 108.309494 190.834264 
L 107.665625 191.846654 
M 355.480625 191.846654 
L 352.727125 199.795877 
L 346.880652 222.961177 
L 341.713125 245.715165 
L 341.073151 249.246833 
L 340.234992 255.08809 
L 339.971686 258.008719 
L 339.875353 260.929347 
L 340.032127 263.849976 
L 340.595708 266.770604 
L 341.945359 269.691233 
L 344.466625 271.553884 
L 347.220125 271.95902 
L 349.973625 271.760536 
L 355.480625 270.983062 
M 107.665625 113.885534 
L 110.419125 105.936311 
L 116.265598 82.77101 
L 121.433125 60.017023 
L 122.073099 56.485354 
L 122.911258 50.644097 
L 123.174564 47.723469 
L 123.270897 44.80284 
L 123.114123 41.882212 
L 122.550542 38.961583 
L 121.200891 36.040955 
L 118.679625 34.178304 
L 115.926125 33.773167 
L 113.172625 33.971652 
L 107.665625 34.749125 
M 355.480625 34.749125 
L 352.727125 34.980037 
L 349.973625 34.95574 
L 347.220125 34.625451 
L 338.959625 32.916876 
L 336.206125 32.967157 
L 333.452625 33.65794 
L 330.699125 34.996207 
L 327.945625 36.920667 
L 325.192125 39.358892 
L 322.438625 42.348263 
L 319.685125 46.120659 
L 318.722114 47.723469 
L 316.931625 51.404686 
L 316.149393 53.564726 
L 315.424934 56.485354 
L 315.050023 59.405983 
L 315.02693 62.326611 
L 315.346808 65.24724 
L 315.989319 68.167868 
L 316.931625 71.106779 
L 318.20277 74.009125 
L 319.695534 76.929753 
L 322.438625 81.413438 
L 325.293531 85.691639 
L 335.326422 100.294781 
L 339.185489 106.136038 
L 344.466625 113.777399 
L 345.546303 114.897924 
L 347.220125 116.915518 
L 348.755163 117.818552 
L 349.973625 118.675825 
L 352.727125 118.021207 
L 354.836756 114.897924 
L 355.480625 113.885534 
L 355.480625 113.885534 
" clip-path="url(#p3474c2d7ce)" style="fill: none; stroke: #f60b00"/>
    <path d="M 107.665625 262.885252 
L 113.172625 262.782282 
L 118.679625 262.729279 
L 124.186625 262.773362 
L 126.940125 262.523936 
L 129.693625 261.850345 
L 132.447125 260.595275 
L 135.200625 258.582687 
L 135.785 258.008719 
L 138.251008 255.08809 
L 139.853495 252.167462 
L 140.915088 249.246833 
L 141.410274 246.326205 
L 141.466389 243.405576 
L 141.111228 240.484948 
L 140.361231 237.564319 
L 139.256623 234.643691 
L 137.909152 231.723062 
L 135.200625 226.930503 
L 132.722761 222.961177 
L 129.693625 218.49382 
L 126.559314 214.199292 
L 124.186625 211.158388 
L 121.433125 208.063619 
L 118.31268 205.437406 
L 115.926125 204.160524 
L 113.172625 204.194603 
L 110.419125 206.24372 
L 107.665625 210.671443 
M 355.480625 210.671443 
L 352.727125 217.462698 
L 349.973625 226.309617 
L 347.190807 237.564319 
L 346.162161 243.405576 
L 345.780332 246.326205 
L 345.540573 249.246833 
L 345.509796 252.167462 
L 345.797587 255.08809 
L 346.598775 258.008719 
L 347.220125 259.246043 
L 348.759745 260.929347 
L 349.973625 261.783247 
L 352.727125 262.638879 
L 355.480625 262.885252 
M 107.665625 95.060745 
L 110.419125 88.269489 
L 113.172625 79.42257 
L 115.955443 68.167868 
L 116.984089 62.326611 
L 117.365918 59.405983 
L 117.605677 56.485354 
L 117.636454 53.564726 
L 117.348663 50.644097 
L 116.547475 47.723469 
L 115.926125 46.486144 
L 114.386505 44.80284 
L 113.172625 43.948941 
L 110.419125 43.093308 
L 107.665625 42.846936 
M 355.480625 42.846936 
L 349.973625 42.949905 
L 344.466625 43.002909 
L 338.959625 42.958826 
L 336.206125 43.208252 
L 333.452625 43.881843 
L 330.699125 45.136913 
L 327.945625 47.1495 
L 327.36125 47.723469 
L 324.895242 50.644097 
L 323.292755 53.564726 
L 322.231162 56.485354 
L 321.735976 59.405983 
L 321.679861 62.326611 
L 322.035022 65.24724 
L 322.785019 68.167868 
L 323.889627 71.088497 
L 325.237098 74.009125 
L 327.945625 78.801684 
L 330.423489 82.77101 
L 333.452625 87.238368 
L 336.586936 91.532896 
L 338.959625 94.573799 
L 341.713125 97.668568 
L 344.83357 100.294781 
L 347.220125 101.571663 
L 349.973625 101.537584 
L 352.727125 99.488467 
L 355.480625 95.060745 
L 355.480625 95.060745 
" clip-path="url(#p3474c2d7ce)" style="fill: none; stroke: #cd0000"/>
    <path d="M 107.665625 254.000278 
L 110.419125 254.849566 
L 113.172625 255.013465 
L 115.926125 254.818579 
L 118.679625 254.409566 
L 121.433125 253.822401 
L 124.186625 253.002079 
L 126.168067 252.167462 
L 126.940125 251.73061 
L 129.693625 249.480614 
L 129.900486 249.246833 
L 131.528295 246.326205 
L 132.205121 243.405576 
L 132.190449 240.484948 
L 131.673253 237.564319 
L 130.782312 234.643691 
L 129.693625 231.950698 
L 129.598582 231.723062 
L 128.072092 228.802434 
L 126.940125 226.886716 
L 126.278776 225.881806 
L 124.186625 222.982741 
L 124.167353 222.961177 
L 121.433125 220.076064 
L 121.382677 220.040549 
L 118.679625 218.180271 
L 115.926125 217.476358 
L 113.172625 218.324599 
L 111.411885 220.040549 
L 110.419125 221.070352 
L 109.341313 222.961177 
L 107.763344 225.881806 
L 107.665625 226.075905 
M 355.480625 226.075905 
L 354.483424 228.802434 
L 353.487786 231.723062 
L 352.727125 234.188366 
L 352.613696 234.643691 
L 352.007276 237.564319 
L 351.540891 240.484948 
L 351.274479 243.405576 
L 351.304217 246.326205 
L 351.792662 249.246833 
L 352.727125 251.537214 
L 353.183645 252.167462 
L 355.480625 254.000278 
M 107.665625 79.656282 
L 108.662826 76.929753 
L 109.658464 74.009125 
L 110.419125 71.543822 
L 110.532554 71.088497 
L 111.138974 68.167868 
L 111.605359 65.24724 
L 111.871771 62.326611 
L 111.842033 59.405983 
L 111.353588 56.485354 
L 110.419125 54.194974 
L 109.962605 53.564726 
L 107.665625 51.73191 
M 355.480625 51.73191 
L 352.727125 50.882622 
L 349.973625 50.718722 
L 347.220125 50.913608 
L 344.466625 51.322621 
L 341.713125 51.909786 
L 338.959625 52.730109 
L 336.978183 53.564726 
L 336.206125 54.001577 
L 333.452625 56.251573 
L 333.245764 56.485354 
L 331.617955 59.405983 
L 330.941129 62.326611 
L 330.955801 65.24724 
L 331.472997 68.167868 
L 332.363938 71.088497 
L 333.452625 73.781489 
L 333.547668 74.009125 
L 335.074158 76.929753 
L 336.206125 78.845472 
L 336.867474 79.850382 
L 338.959625 82.749447 
L 338.978897 82.77101 
L 341.713125 85.656124 
L 341.763573 85.691639 
L 344.466625 87.551916 
L 347.220125 88.255829 
L 349.973625 87.407588 
L 351.734365 85.691639 
L 352.727125 84.661835 
L 353.804937 82.77101 
L 355.382906 79.850382 
L 355.480625 79.656282 
" clip-path="url(#p3474c2d7ce)" style="fill: none; stroke: #a40000"/>
    <path clip-path="url(#p3474c2d7ce)" style="fill: none; stroke: #800000"/>
   </g>
   <g id="patch_3">
    <path d="M 107.665625 284.294375 
L 107.665625 21.437813 
" style="fill: none; stroke: #000000; stroke-width: 0.8; stroke-linejoin: miter; stroke-linecap: square"/>
   </g>
   <g id="patch_4">
    <path d="M 107.665625 284.294375 
L 355.480625 284.294375 
" style="fill: none; stroke: #000000; stroke-width: 0.8; stroke-linejoin: miter; stroke-linecap: square"/>
   </g>
  </g>
  <g id="axes_2">
   <g id="patch_5">
    <path d="M 370.969063 284.294375 
L 384.111891 284.294375 
L 384.111891 21.437813 
L 370.969063 21.437813 
z
" style="fill: #ffffff"/>
   </g>
   <g id="matplotlib.axis_3"/>
   <g id="matplotlib.axis_4">
    <g id="ytick_6">
     <g id="line2d_11">
      <defs>
       <path id="m5aeecb548a" d="M 0 0 
L 3.5 0 
" style="stroke: #000000; stroke-width: 0.8"/>
      </defs>
      <g>
       <use xlink:href="#m5aeecb548a" x="384.111891" y="249.31551" style="stroke: #000000; stroke-width: 0.8"/>
      </g>
     </g>
     <g id="text_13">
      <!-- 0.8 -->
      <g transform="translate(391.111891 256.154103) scale(0.18 -0.18)">
       <defs>
        <path id="DejaVuSerif-2e" d="M 603 325 
Q 603 500 722 622 
Q 841 744 1019 744 
Q 1191 744 1312 622 
Q 1434 500 1434 325 
Q 1434 153 1312 31 
Q 1191 -91 1019 -91 
Q 841 -91 722 29 
Q 603 150 603 325 
z
" transform="scale(0.015625)"/>
        <path id="DejaVuSerif-38" d="M 2981 1275 
Q 2981 1775 2732 2051 
Q 2484 2328 2034 2328 
Q 1584 2328 1336 2051 
Q 1088 1775 1088 1275 
Q 1088 772 1336 495 
Q 1584 219 2034 219 
Q 2484 219 2732 495 
Q 2981 772 2981 1275 
z
M 2853 3541 
Q 2853 3966 2637 4203 
Q 2422 4441 2034 4441 
Q 1650 4441 1433 4203 
Q 1216 3966 1216 3541 
Q 1216 3113 1433 2875 
Q 1650 2638 2034 2638 
Q 2422 2638 2637 2875 
Q 2853 3113 2853 3541 
z
M 2516 2484 
Q 3047 2413 3344 2092 
Q 3641 1772 3641 1275 
Q 3641 619 3225 264 
Q 2809 -91 2034 -91 
Q 1263 -91 845 264 
Q 428 619 428 1275 
Q 428 1772 725 2092 
Q 1022 2413 1556 2484 
Q 1084 2569 832 2842 
Q 581 3116 581 3541 
Q 581 4103 968 4426 
Q 1356 4750 2034 4750 
Q 2713 4750 3100 4426 
Q 3488 4103 3488 3541 
Q 3488 3116 3236 2842 
Q 2984 2569 2516 2484 
z
" transform="scale(0.015625)"/>
       </defs>
       <use xlink:href="#DejaVuSerif-30"/>
       <use xlink:href="#DejaVuSerif-2e" x="63.623047"/>
       <use xlink:href="#DejaVuSerif-38" x="95.410156"/>
      </g>
     </g>
    </g>
    <g id="ytick_7">
     <g id="line2d_12">
      <g>
       <use xlink:href="#m5aeecb548a" x="384.111891" y="205.159084" style="stroke: #000000; stroke-width: 0.8"/>
      </g>
     </g>
     <g id="text_14">
      <!-- 0.9 -->
      <g transform="translate(391.111891 211.997678) scale(0.18 -0.18)">
       <defs>
        <path id="DejaVuSerif-39" d="M 2994 2091 
Q 2784 1856 2512 1740 
Q 2241 1625 1900 1625 
Q 1206 1625 804 2044 
Q 403 2463 403 3188 
Q 403 3897 839 4323 
Q 1275 4750 2003 4750 
Q 2794 4750 3217 4161 
Q 3641 3572 3641 2478 
Q 3641 1253 3137 581 
Q 2634 -91 1722 -91 
Q 1475 -91 1203 -44 
Q 931 3 647 97 
L 647 872 
L 997 872 
Q 1038 556 1241 387 
Q 1444 219 1784 219 
Q 2391 219 2687 676 
Q 2984 1134 2994 2091 
z
M 1978 4441 
Q 1534 4441 1298 4117 
Q 1063 3794 1063 3188 
Q 1063 2581 1298 2256 
Q 1534 1931 1978 1931 
Q 2422 1931 2658 2245 
Q 2894 2559 2894 3150 
Q 2894 3772 2656 4106 
Q 2419 4441 1978 4441 
z
" transform="scale(0.015625)"/>
       </defs>
       <use xlink:href="#DejaVuSerif-30"/>
       <use xlink:href="#DejaVuSerif-2e" x="63.623047"/>
       <use xlink:href="#DejaVuSerif-39" x="95.410156"/>
      </g>
     </g>
    </g>
    <g id="ytick_8">
     <g id="line2d_13">
      <g>
       <use xlink:href="#m5aeecb548a" x="384.111891" y="161.002659" style="stroke: #000000; stroke-width: 0.8"/>
      </g>
     </g>
     <g id="text_15">
      <!-- 1.0 -->
      <g transform="translate(391.111891 167.841253) scale(0.18 -0.18)">
       <defs>
        <path id="DejaVuSerif-31" d="M 909 0 
L 909 331 
L 1722 331 
L 1722 4213 
L 781 3603 
L 781 4013 
L 1919 4750 
L 2350 4750 
L 2350 331 
L 3163 331 
L 3163 0 
L 909 0 
z
" transform="scale(0.015625)"/>
       </defs>
       <use xlink:href="#DejaVuSerif-31"/>
       <use xlink:href="#DejaVuSerif-2e" x="63.623047"/>
       <use xlink:href="#DejaVuSerif-30" x="95.410156"/>
      </g>
     </g>
    </g>
    <g id="ytick_9">
     <g id="line2d_14">
      <g>
       <use xlink:href="#m5aeecb548a" x="384.111891" y="116.846233" style="stroke: #000000; stroke-width: 0.8"/>
      </g>
     </g>
     <g id="text_16">
      <!-- 1.1 -->
      <g transform="translate(391.111891 123.684827) scale(0.18 -0.18)">
       <use xlink:href="#DejaVuSerif-31"/>
       <use xlink:href="#DejaVuSerif-2e" x="63.623047"/>
       <use xlink:href="#DejaVuSerif-31" x="95.410156"/>
      </g>
     </g>
    </g>
    <g id="ytick_10">
     <g id="line2d_15">
      <g>
       <use xlink:href="#m5aeecb548a" x="384.111891" y="72.689808" style="stroke: #000000; stroke-width: 0.8"/>
      </g>
     </g>
     <g id="text_17">
      <!-- 1.2 -->
      <g transform="translate(391.111891 79.528402) scale(0.18 -0.18)">
       <defs>
        <path id="DejaVuSerif-32" d="M 819 3553 
L 469 3553 
L 469 4384 
Q 803 4563 1142 4656 
Q 1481 4750 1806 4750 
Q 2534 4750 2956 4397 
Q 3378 4044 3378 3438 
Q 3378 2753 2422 1800 
Q 2347 1728 2309 1691 
L 1131 513 
L 3078 513 
L 3078 1088 
L 3444 1088 
L 3444 0 
L 434 0 
L 434 341 
L 1850 1753 
Q 2319 2222 2519 2614 
Q 2719 3006 2719 3438 
Q 2719 3909 2473 4175 
Q 2228 4441 1797 4441 
Q 1350 4441 1106 4219 
Q 863 3997 819 3553 
z
" transform="scale(0.015625)"/>
       </defs>
       <use xlink:href="#DejaVuSerif-31"/>
       <use xlink:href="#DejaVuSerif-2e" x="63.623047"/>
       <use xlink:href="#DejaVuSerif-32" x="95.410156"/>
      </g>
     </g>
    </g>
    <g id="ytick_11">
     <g id="line2d_16">
      <g>
       <use xlink:href="#m5aeecb548a" x="384.111891" y="28.533383" style="stroke: #000000; stroke-width: 0.8"/>
      </g>
     </g>
     <g id="text_18">
      <!-- 1.3 -->
      <g transform="translate(391.111891 35.371976) scale(0.18 -0.18)">
       <defs>
        <path id="DejaVuSerif-33" d="M 622 4469 
Q 988 4606 1323 4678 
Q 1659 4750 1953 4750 
Q 2638 4750 3022 4454 
Q 3406 4159 3406 3634 
Q 3406 3213 3140 2930 
Q 2875 2647 2388 2547 
Q 2963 2466 3280 2130 
Q 3597 1794 3597 1259 
Q 3597 606 3158 257 
Q 2719 -91 1894 -91 
Q 1528 -91 1179 -12 
Q 831 66 488 225 
L 488 1131 
L 838 1131 
Q 869 681 1141 450 
Q 1413 219 1906 219 
Q 2384 219 2661 495 
Q 2938 772 2938 1253 
Q 2938 1803 2653 2086 
Q 2369 2369 1819 2369 
L 1522 2369 
L 1522 2688 
L 1678 2688 
Q 2225 2688 2498 2914 
Q 2772 3141 2772 3597 
Q 2772 4006 2547 4223 
Q 2322 4441 1900 4441 
Q 1478 4441 1245 4241 
Q 1013 4041 972 3647 
L 622 3647 
L 622 4469 
z
" transform="scale(0.015625)"/>
       </defs>
       <use xlink:href="#DejaVuSerif-31"/>
       <use xlink:href="#DejaVuSerif-2e" x="63.623047"/>
       <use xlink:href="#DejaVuSerif-33" x="95.410156"/>
      </g>
     </g>
    </g>
   </g>
   <g id="LineCollection_1"/>
   <g id="LineCollection_2">
    <path d="M 370.969063 284.294375 
L 384.111891 284.294375 
" clip-path="url(#pdbf079606a)" style="fill: none; stroke: #000080"/>
    <path d="M 370.969063 275.230356 
L 384.111891 275.230356 
" clip-path="url(#pdbf079606a)" style="fill: none; stroke: #0000a4"/>
    <path d="M 370.969063 266.166336 
L 384.111891 266.166336 
" clip-path="url(#pdbf079606a)" style="fill: none; stroke: #0000cd"/>
    <path d="M 370.969063 257.102317 
L 384.111891 257.102317 
" clip-path="url(#pdbf079606a)" style="fill: none; stroke: #0000f6"/>
    <path d="M 370.969063 248.038297 
L 384.111891 248.038297 
" clip-path="url(#pdbf079606a)" style="fill: none; stroke: #000cff"/>
    <path d="M 370.969063 238.974278 
L 384.111891 238.974278 
" clip-path="url(#pdbf079606a)" style="fill: none; stroke: #0030ff"/>
    <path d="M 370.969063 229.910259 
L 384.111891 229.910259 
" clip-path="url(#pdbf079606a)" style="fill: none; stroke: #0050ff"/>
    <path d="M 370.969063 220.846239 
L 384.111891 220.846239 
" clip-path="url(#pdbf079606a)" style="fill: none; stroke: #0074ff"/>
    <path d="M 370.969063 211.78222 
L 384.111891 211.78222 
" clip-path="url(#pdbf079606a)" style="fill: none; stroke: #0098ff"/>
    <path d="M 370.969063 202.7182 
L 384.111891 202.7182 
" clip-path="url(#pdbf079606a)" style="fill: none; stroke: #00bcff"/>
    <path d="M 370.969063 193.654181 
L 384.111891 193.654181 
" clip-path="url(#pdbf079606a)" style="fill: none; stroke: #00e0fb"/>
    <path d="M 370.969063 184.590162 
L 384.111891 184.590162 
" clip-path="url(#pdbf079606a)" style="fill: none; stroke: #19ffde"/>
    <path d="M 370.969063 175.526142 
L 384.111891 175.526142 
" clip-path="url(#pdbf079606a)" style="fill: none; stroke: #33ffc4"/>
    <path d="M 370.969063 166.462123 
L 384.111891 166.462123 
" clip-path="url(#pdbf079606a)" style="fill: none; stroke: #50ffa7"/>
    <path d="M 370.969063 157.398103 
L 384.111891 157.398103 
" clip-path="url(#pdbf079606a)" style="fill: none; stroke: #6dff8a"/>
    <path d="M 370.969063 148.334084 
L 384.111891 148.334084 
" clip-path="url(#pdbf079606a)" style="fill: none; stroke: #8aff6d"/>
    <path d="M 370.969063 139.270065 
L 384.111891 139.270065 
" clip-path="url(#pdbf079606a)" style="fill: none; stroke: #a7ff50"/>
    <path d="M 370.969063 130.206045 
L 384.111891 130.206045 
" clip-path="url(#pdbf079606a)" style="fill: none; stroke: #c4ff33"/>
    <path d="M 370.969063 121.142026 
L 384.111891 121.142026 
" clip-path="url(#pdbf079606a)" style="fill: none; stroke: #deff19"/>
    <path d="M 370.969063 112.078006 
L 384.111891 112.078006 
" clip-path="url(#pdbf079606a)" style="fill: none; stroke: #fbf100"/>
    <path d="M 370.969063 103.013987 
L 384.111891 103.013987 
" clip-path="url(#pdbf079606a)" style="fill: none; stroke: #ffd000"/>
    <path d="M 370.969063 93.949968 
L 384.111891 93.949968 
" clip-path="url(#pdbf079606a)" style="fill: none; stroke: #ffae00"/>
    <path d="M 370.969063 84.885948 
L 384.111891 84.885948 
" clip-path="url(#pdbf079606a)" style="fill: none; stroke: #ff8d00"/>
    <path d="M 370.969063 75.821929 
L 384.111891 75.821929 
" clip-path="url(#pdbf079606a)" style="fill: none; stroke: #ff6c00"/>
    <path d="M 370.969063 66.757909 
L 384.111891 66.757909 
" clip-path="url(#pdbf079606a)" style="fill: none; stroke: #ff4e00"/>
    <path d="M 370.969063 57.69389 
L 384.111891 57.69389 
" clip-path="url(#pdbf079606a)" style="fill: none; stroke: #ff2d00"/>
    <path d="M 370.969063 48.629871 
L 384.111891 48.629871 
" clip-path="url(#pdbf079606a)" style="fill: none; stroke: #f60b00"/>
    <path d="M 370.969063 39.565851 
L 384.111891 39.565851 
" clip-path="url(#pdbf079606a)" style="fill: none; stroke: #cd0000"/>
    <path d="M 370.969063 30.501832 
L 384.111891 30.501832 
" clip-path="url(#pdbf079606a)" style="fill: none; stroke: #a40000"/>
    <path d="M 370.969063 21.437813 
L 384.111891 21.437813 
" clip-path="url(#pdbf079606a)" style="fill: none; stroke: #800000"/>
   </g>
   <g id="patch_6">
    <path d="M 370.969063 284.294375 
L 377.540477 284.294375 
L 384.111891 284.294375 
L 384.111891 21.437813 
L 377.540477 21.437813 
L 370.969063 21.437813 
L 370.969063 284.294375 
z
" style="fill: none; stroke: #000000; stroke-width: 0.8; stroke-linejoin: miter; stroke-linecap: square"/>
   </g>
  </g>
 </g>
 <defs>
  <clipPath id="p3474c2d7ce">
   <rect x="107.665625" y="21.437813" width="247.815" height="262.856562"/>
  </clipPath>
  <clipPath id="pdbf079606a">
   <path d="M 370.969063 285.242631 
L 384.111891 285.242631 
L 384.111891 20.489557 
L 370.969063 20.489557 
z
"/>
  </clipPath>
 </defs>
</svg>
