<?xml version="1.0" encoding="utf-8" standalone="no"?>
<!DOCTYPE svg PUBLIC "-//W3C//DTD SVG 1.1//EN"
  "http://www.w3.org/Graphics/SVG/1.1/DTD/svg11.dtd">
<svg xmlns:xlink="http://www.w3.org/1999/xlink" width="432pt" height="360pt" viewBox="0 0 432 360" xmlns="http://www.w3.org/2000/svg" version="1.1">
 <metadata>
  <rdf:RDF xmlns:dc="http://purl.org/dc/elements/1.1/" xmlns:cc="http://creativecommons.org/ns#" xmlns:rdf="http://www.w3.org/1999/02/22-rdf-syntax-ns#">
   <cc:Work>
    <dc:type rdf:resource="http://purl.org/dc/dcmitype/StillImage"/>
    <dc:date>2025-05-05T00:33:06.469229</dc:date>
    <dc:format>image/svg+xml</dc:format>
    <dc:creator>
     <cc:Agent>
      <dc:title>Matplotlib v3.9.2, https://matplotlib.org/</dc:title>
     </cc:Agent>
    </dc:creator>
   </cc:Work>
  </rdf:RDF>
 </metadata>
 <defs>
  <style type="text/css">*{stroke-linejoin: round; stroke-linecap: butt}</style>
 </defs>
 <g id="figure_1">
  <g id="patch_1">
   <path d="M 0 360 
L 432 360 
L 432 0 
L 0 0 
z
" style="fill: #ffffff"/>
  </g>
  <g id="axes_1">
   <g id="patch_2">
    <path d="M 107.665625 284.294375 
L 346.318625 284.294375 
L 346.318625 21.437813 
L 107.665625 21.437813 
z
" style="fill: #ffffff"/>
   </g>
   <g id="matplotlib.axis_1">
    <g id="xtick_1">
     <g id="line2d_1">
      <defs>
       <path id="mff8c0e8f5d" d="M 0 0 
L 0 3.5 
" style="stroke: #000000; stroke-width: 0.8"/>
      </defs>
      <g>
       <use xlink:href="#mff8c0e8f5d" x="107.665625" y="284.294375" style="stroke: #000000; stroke-width: 0.8"/>
      </g>
     </g>
     <g id="text_1">
      <!-- 0 -->
      <g transform="translate(98.758125 312.57) scale(0.28 -0.28)">
       <defs>
        <path id="DejaVuSerif-30" d="M 2034 219 
Q 2513 219 2750 744 
Q 2988 1269 2988 2328 
Q 2988 3391 2750 3916 
Q 2513 4441 2034 4441 
Q 1556 4441 1318 3916 
Q 1081 3391 1081 2328 
Q 1081 1269 1318 744 
Q 1556 219 2034 219 
z
M 2034 -91 
Q 1275 -91 848 546 
Q 422 1184 422 2328 
Q 422 3475 848 4112 
Q 1275 4750 2034 4750 
Q 2797 4750 3222 4112 
Q 3647 3475 3647 2328 
Q 3647 1184 3222 546 
Q 2797 -91 2034 -91 
z
" transform="scale(0.015625)"/>
       </defs>
       <use xlink:href="#DejaVuSerif-30"/>
      </g>
     </g>
    </g>
    <g id="xtick_2">
     <g id="line2d_2">
      <g>
       <use xlink:href="#mff8c0e8f5d" x="167.328875" y="284.294375" style="stroke: #000000; stroke-width: 0.8"/>
      </g>
     </g>
     <g id="text_2">
      <!-- $\pi/2$ -->
      <g transform="translate(145.348875 312.294375) scale(0.28 -0.28)">
       <defs>
        <path id="Cmmi10-bc" d="M 647 109 
Q 647 144 672 213 
Q 850 584 1004 942 
Q 1159 1300 1282 1639 
Q 1406 1978 1509 2363 
L 1100 2363 
Q 866 2363 662 2216 
Q 459 2069 325 1844 
Q 313 1819 288 1819 
L 213 1819 
Q 153 1819 153 1881 
Q 153 1894 166 1919 
Q 375 2275 614 2517 
Q 853 2759 1153 2759 
L 3475 2759 
Q 3541 2759 3587 2715 
Q 3634 2672 3634 2597 
Q 3634 2503 3567 2433 
Q 3500 2363 3406 2363 
L 2591 2363 
Q 2488 1859 2478 1381 
Q 2478 766 2694 269 
Q 2713 231 2713 191 
Q 2713 122 2672 62 
Q 2631 3 2567 -34 
Q 2503 -72 2431 -72 
Q 2263 -72 2200 203 
Q 2138 478 2138 738 
Q 2138 1103 2200 1442 
Q 2263 1781 2400 2363 
L 1703 2363 
Q 1197 313 1094 103 
Q 1003 -72 844 -72 
Q 766 -72 706 -20 
Q 647 31 647 109 
z
" transform="scale(0.015625)"/>
        <path id="Cmmi10-3d" d="M 359 -1472 
Q 359 -1453 366 -1447 
L 2591 4722 
Q 2603 4759 2634 4779 
Q 2666 4800 2706 4800 
Q 2763 4800 2798 4765 
Q 2834 4731 2834 4672 
L 2834 4647 
L 609 -1522 
Q 572 -1600 488 -1600 
Q 434 -1600 396 -1562 
Q 359 -1525 359 -1472 
z
" transform="scale(0.015625)"/>
        <path id="Cmr10-32" d="M 319 0 
L 319 172 
Q 319 188 331 206 
L 1325 1306 
Q 1550 1550 1690 1715 
Q 1831 1881 1968 2097 
Q 2106 2313 2186 2536 
Q 2266 2759 2266 3009 
Q 2266 3272 2169 3511 
Q 2072 3750 1880 3894 
Q 1688 4038 1416 4038 
Q 1138 4038 916 3870 
Q 694 3703 603 3438 
Q 628 3444 672 3444 
Q 816 3444 917 3347 
Q 1019 3250 1019 3097 
Q 1019 2950 917 2848 
Q 816 2747 672 2747 
Q 522 2747 420 2851 
Q 319 2956 319 3097 
Q 319 3338 409 3548 
Q 500 3759 670 3923 
Q 841 4088 1055 4175 
Q 1269 4263 1509 4263 
Q 1875 4263 2190 4108 
Q 2506 3953 2690 3670 
Q 2875 3388 2875 3009 
Q 2875 2731 2753 2481 
Q 2631 2231 2440 2026 
Q 2250 1822 1953 1562 
Q 1656 1303 1563 1216 
L 838 519 
L 1453 519 
Q 1906 519 2211 526 
Q 2516 534 2534 550 
Q 2609 631 2688 1141 
L 2875 1141 
L 2694 0 
L 319 0 
z
" transform="scale(0.015625)"/>
       </defs>
       <use xlink:href="#Cmmi10-bc"/>
       <use xlink:href="#Cmmi10-3d" transform="translate(56.982422 0)"/>
       <use xlink:href="#Cmr10-32" transform="translate(106.982422 0)"/>
      </g>
     </g>
    </g>
    <g id="xtick_3">
     <g id="line2d_3">
      <g>
       <use xlink:href="#mff8c0e8f5d" x="226.992125" y="284.294375" style="stroke: #000000; stroke-width: 0.8"/>
      </g>
     </g>
     <g id="text_3">
      <!-- $\pi$ -->
      <g transform="translate(219.012125 312.57) scale(0.28 -0.28)">
       <use xlink:href="#Cmmi10-bc" transform="translate(0 0.890625)"/>
      </g>
     </g>
    </g>
    <g id="xtick_4">
     <g id="line2d_4">
      <g>
       <use xlink:href="#mff8c0e8f5d" x="286.655375" y="284.294375" style="stroke: #000000; stroke-width: 0.8"/>
      </g>
     </g>
     <g id="text_4">
      <!-- $3\pi/2$ -->
      <g transform="translate(257.675375 312.294375) scale(0.28 -0.28)">
       <defs>
        <path id="Cmr10-33" d="M 609 494 
Q 759 275 1012 169 
Q 1266 63 1556 63 
Q 1928 63 2084 380 
Q 2241 697 2241 1100 
Q 2241 1281 2208 1462 
Q 2175 1644 2097 1800 
Q 2019 1956 1883 2050 
Q 1747 2144 1550 2144 
L 1125 2144 
Q 1069 2144 1069 2203 
L 1069 2259 
Q 1069 2309 1125 2309 
L 1478 2338 
Q 1703 2338 1851 2506 
Q 2000 2675 2069 2917 
Q 2138 3159 2138 3378 
Q 2138 3684 1994 3881 
Q 1850 4078 1556 4078 
Q 1313 4078 1091 3986 
Q 869 3894 738 3706 
Q 750 3709 759 3711 
Q 769 3713 781 3713 
Q 925 3713 1022 3613 
Q 1119 3513 1119 3372 
Q 1119 3234 1022 3134 
Q 925 3034 781 3034 
Q 641 3034 541 3134 
Q 441 3234 441 3372 
Q 441 3647 606 3850 
Q 772 4053 1033 4158 
Q 1294 4263 1556 4263 
Q 1750 4263 1965 4205 
Q 2181 4147 2356 4039 
Q 2531 3931 2642 3762 
Q 2753 3594 2753 3378 
Q 2753 3109 2633 2881 
Q 2513 2653 2303 2487 
Q 2094 2322 1844 2241 
Q 2122 2188 2372 2031 
Q 2622 1875 2773 1631 
Q 2925 1388 2925 1106 
Q 2925 753 2731 467 
Q 2538 181 2222 20 
Q 1906 -141 1556 -141 
Q 1256 -141 954 -26 
Q 653 88 461 316 
Q 269 544 269 863 
Q 269 1022 375 1128 
Q 481 1234 641 1234 
Q 744 1234 830 1186 
Q 916 1138 964 1050 
Q 1013 963 1013 863 
Q 1013 706 903 600 
Q 794 494 641 494 
L 609 494 
z
" transform="scale(0.015625)"/>
       </defs>
       <use xlink:href="#Cmr10-33"/>
       <use xlink:href="#Cmmi10-bc" transform="translate(50 0)"/>
       <use xlink:href="#Cmmi10-3d" transform="translate(106.982422 0)"/>
       <use xlink:href="#Cmr10-32" transform="translate(156.982422 0)"/>
      </g>
     </g>
    </g>
    <g id="xtick_5">
     <g id="line2d_5">
      <g>
       <use xlink:href="#mff8c0e8f5d" x="346.318625" y="284.294375" style="stroke: #000000; stroke-width: 0.8"/>
      </g>
     </g>
     <g id="text_5">
      <!-- $2\pi$ -->
      <g transform="translate(331.338625 312.57) scale(0.28 -0.28)">
       <use xlink:href="#Cmr10-32" transform="translate(0 0.390625)"/>
       <use xlink:href="#Cmmi10-bc" transform="translate(50 0.390625)"/>
      </g>
     </g>
    </g>
    <g id="text_6">
     <!-- $\zeta_{\mathrm{Boozer}}$ -->
     <g transform="translate(182.792125 342.06) scale(0.34 -0.34)">
      <defs>
       <path id="Cmmi10-b3" d="M 1131 -997 
Q 1147 -922 1222 -922 
Q 1234 -922 1332 -986 
Q 1431 -1050 1542 -1098 
Q 1653 -1147 1784 -1147 
Q 1922 -1147 2014 -1019 
Q 2106 -891 2106 -744 
Q 2106 -597 2009 -494 
Q 1913 -391 1766 -341 
L 1113 -122 
Q 713 16 503 317 
Q 294 619 294 1050 
Q 294 1416 426 1831 
Q 559 2247 793 2637 
Q 1028 3028 1334 3339 
Q 1641 3650 1972 3822 
Q 1906 3953 1906 4128 
Q 1906 4475 2041 4475 
Q 2075 4475 2100 4450 
Q 2125 4425 2125 4391 
Q 2125 4344 2109 4245 
Q 2094 4147 2094 4122 
Q 2094 4006 2131 3897 
Q 2297 3963 2438 3963 
Q 3028 3963 3028 3781 
Q 3028 3566 2375 3566 
Q 2181 3566 2069 3681 
Q 1794 3525 1539 3244 
Q 1284 2963 1087 2613 
Q 891 2263 781 1906 
Q 672 1550 672 1228 
Q 672 538 1300 319 
L 1984 91 
Q 2200 25 2336 -139 
Q 2472 -303 2472 -531 
Q 2472 -716 2378 -898 
Q 2284 -1081 2125 -1197 
Q 1966 -1313 1772 -1313 
Q 1619 -1313 1375 -1211 
Q 1131 -1109 1131 -997 
z
M 2247 3763 
Q 2241 3763 2303 3738 
Q 2331 3738 2348 3736 
Q 2366 3734 2388 3731 
Q 2694 3731 2828 3769 
Q 2706 3794 2438 3794 
Q 2350 3794 2247 3763 
z
" transform="scale(0.015625)"/>
       <path id="Cmr10-42" d="M 219 0 
L 219 225 
Q 878 225 878 428 
L 878 3944 
Q 878 4147 219 4147 
L 219 4372 
L 2572 4372 
Q 2897 4372 3228 4245 
Q 3559 4119 3776 3870 
Q 3994 3622 3994 3284 
Q 3994 2894 3673 2630 
Q 3353 2366 2925 2284 
Q 3203 2284 3497 2131 
Q 3791 1978 3978 1722 
Q 4166 1466 4166 1178 
Q 4166 828 3958 559 
Q 3750 291 3419 145 
Q 3088 0 2753 0 
L 219 0 
z
M 1434 428 
Q 1434 291 1512 258 
Q 1591 225 1759 225 
L 2572 225 
Q 2822 225 3036 356 
Q 3250 488 3375 708 
Q 3500 928 3500 1178 
Q 3500 1422 3397 1655 
Q 3294 1888 3101 2038 
Q 2909 2188 2663 2188 
L 1434 2188 
L 1434 428 
z
M 1434 2356 
L 2394 2356 
Q 2588 2356 2758 2426 
Q 2928 2497 3064 2630 
Q 3200 2763 3273 2930 
Q 3347 3097 3347 3284 
Q 3347 3450 3292 3603 
Q 3238 3756 3131 3881 
Q 3025 4006 2881 4076 
Q 2738 4147 2572 4147 
L 1759 4147 
Q 1644 4147 1580 4137 
Q 1516 4128 1475 4083 
Q 1434 4038 1434 3944 
L 1434 2356 
z
" transform="scale(0.015625)"/>
       <path id="Cmr10-6f" d="M 1600 -72 
Q 1216 -72 887 123 
Q 559 319 368 647 
Q 178 975 178 1363 
Q 178 1656 283 1928 
Q 388 2200 583 2414 
Q 778 2628 1037 2748 
Q 1297 2869 1600 2869 
Q 1994 2869 2317 2661 
Q 2641 2453 2828 2104 
Q 3016 1756 3016 1363 
Q 3016 978 2825 648 
Q 2634 319 2307 123 
Q 1981 -72 1600 -72 
z
M 1600 116 
Q 2113 116 2284 487 
Q 2456 859 2456 1434 
Q 2456 1756 2422 1967 
Q 2388 2178 2272 2350 
Q 2200 2456 2089 2536 
Q 1978 2616 1854 2658 
Q 1731 2700 1600 2700 
Q 1400 2700 1220 2609 
Q 1041 2519 922 2350 
Q 803 2169 770 1951 
Q 738 1734 738 1434 
Q 738 1075 800 789 
Q 863 503 1052 309 
Q 1241 116 1600 116 
z
" transform="scale(0.015625)"/>
       <path id="Cmr10-7a" d="M 250 0 
Q 178 0 178 72 
L 178 122 
Q 178 147 197 166 
L 1984 2591 
L 1409 2591 
Q 1138 2591 961 2556 
Q 784 2522 670 2426 
Q 556 2331 504 2164 
Q 453 1997 453 1703 
L 269 1703 
L 341 2759 
L 2484 2759 
Q 2513 2759 2533 2739 
Q 2553 2719 2553 2688 
L 2553 2650 
Q 2553 2631 2541 2606 
L 750 184 
L 1363 184 
Q 1641 184 1827 218 
Q 2013 253 2144 384 
Q 2266 506 2311 712 
Q 2356 919 2381 1222 
L 2566 1222 
L 2456 0 
L 250 0 
z
" transform="scale(0.015625)"/>
       <path id="Cmr10-65" d="M 1594 -72 
Q 1203 -72 876 133 
Q 550 338 364 680 
Q 178 1022 178 1403 
Q 178 1778 348 2115 
Q 519 2453 823 2661 
Q 1128 2869 1503 2869 
Q 1797 2869 2014 2770 
Q 2231 2672 2372 2497 
Q 2513 2322 2584 2084 
Q 2656 1847 2656 1563 
Q 2656 1478 2591 1478 
L 738 1478 
L 738 1409 
Q 738 878 952 497 
Q 1166 116 1650 116 
Q 1847 116 2014 203 
Q 2181 291 2304 447 
Q 2428 603 2472 781 
Q 2478 803 2495 820 
Q 2513 838 2534 838 
L 2591 838 
Q 2656 838 2656 756 
Q 2566 394 2266 161 
Q 1966 -72 1594 -72 
z
M 744 1638 
L 2203 1638 
Q 2203 1878 2136 2125 
Q 2069 2372 1912 2536 
Q 1756 2700 1503 2700 
Q 1141 2700 942 2361 
Q 744 2022 744 1638 
z
" transform="scale(0.015625)"/>
       <path id="Cmr10-72" d="M 166 0 
L 166 225 
Q 384 225 525 259 
Q 666 294 666 428 
L 666 2175 
Q 666 2347 614 2423 
Q 563 2500 466 2517 
Q 369 2534 166 2534 
L 166 2759 
L 1081 2828 
L 1081 2203 
Q 1184 2481 1375 2654 
Q 1566 2828 1838 2828 
Q 2028 2828 2178 2715 
Q 2328 2603 2328 2419 
Q 2328 2303 2245 2217 
Q 2163 2131 2041 2131 
Q 1922 2131 1837 2215 
Q 1753 2300 1753 2419 
Q 1753 2591 1875 2663 
L 1838 2663 
Q 1578 2663 1414 2475 
Q 1250 2288 1181 2009 
Q 1113 1731 1113 1478 
L 1113 428 
Q 1113 225 1734 225 
L 1734 0 
L 166 0 
z
" transform="scale(0.015625)"/>
      </defs>
      <use xlink:href="#Cmmi10-b3" transform="translate(0 0.078125)"/>
      <use xlink:href="#Cmr10-42" transform="translate(43.701172 -16.928125) scale(0.7)"/>
      <use xlink:href="#Cmr10-6f" transform="translate(93.261719 -16.928125) scale(0.7)"/>
      <use xlink:href="#Cmr10-6f" transform="translate(128.261719 -16.928125) scale(0.7)"/>
      <use xlink:href="#Cmr10-7a" transform="translate(163.261719 -16.928125) scale(0.7)"/>
      <use xlink:href="#Cmr10-65" transform="translate(194.331055 -16.928125) scale(0.7)"/>
      <use xlink:href="#Cmr10-72" transform="translate(225.400391 -16.928125) scale(0.7)"/>
     </g>
    </g>
   </g>
   <g id="matplotlib.axis_2">
    <g id="ytick_1">
     <g id="line2d_6">
      <defs>
       <path id="m6e420b1b5c" d="M 0 0 
L -3.5 0 
" style="stroke: #000000; stroke-width: 0.8"/>
      </defs>
      <g>
       <use xlink:href="#m6e420b1b5c" x="107.665625" y="284.294375" style="stroke: #000000; stroke-width: 0.8"/>
      </g>
     </g>
     <g id="text_7">
      <!-- 0 -->
      <g transform="translate(82.850625 294.932187) scale(0.28 -0.28)">
       <use xlink:href="#DejaVuSerif-30"/>
      </g>
     </g>
    </g>
    <g id="ytick_2">
     <g id="line2d_7">
      <g>
       <use xlink:href="#m6e420b1b5c" x="107.665625" y="218.580234" style="stroke: #000000; stroke-width: 0.8"/>
      </g>
     </g>
     <g id="text_8">
      <!-- $\pi/2$ -->
      <g transform="translate(56.705625 229.080234) scale(0.28 -0.28)">
       <use xlink:href="#Cmmi10-bc"/>
       <use xlink:href="#Cmmi10-3d" transform="translate(56.982422 0)"/>
       <use xlink:href="#Cmr10-32" transform="translate(106.982422 0)"/>
      </g>
     </g>
    </g>
    <g id="ytick_3">
     <g id="line2d_8">
      <g>
       <use xlink:href="#m6e420b1b5c" x="107.665625" y="152.866094" style="stroke: #000000; stroke-width: 0.8"/>
      </g>
     </g>
     <g id="text_9">
      <!-- $\pi$ -->
      <g transform="translate(84.705625 163.503906) scale(0.28 -0.28)">
       <use xlink:href="#Cmmi10-bc" transform="translate(0 0.890625)"/>
      </g>
     </g>
    </g>
    <g id="ytick_4">
     <g id="line2d_9">
      <g>
       <use xlink:href="#m6e420b1b5c" x="107.665625" y="87.151953" style="stroke: #000000; stroke-width: 0.8"/>
      </g>
     </g>
     <g id="text_10">
      <!-- $3\pi/2$ -->
      <g transform="translate(42.705625 97.651953) scale(0.28 -0.28)">
       <use xlink:href="#Cmr10-33"/>
       <use xlink:href="#Cmmi10-bc" transform="translate(50 0)"/>
       <use xlink:href="#Cmmi10-3d" transform="translate(106.982422 0)"/>
       <use xlink:href="#Cmr10-32" transform="translate(156.982422 0)"/>
      </g>
     </g>
    </g>
    <g id="ytick_5">
     <g id="line2d_10">
      <g>
       <use xlink:href="#m6e420b1b5c" x="107.665625" y="21.437813" style="stroke: #000000; stroke-width: 0.8"/>
      </g>
     </g>
     <g id="text_11">
      <!-- $2\pi$ -->
      <g transform="translate(70.705625 32.075625) scale(0.28 -0.28)">
       <use xlink:href="#Cmr10-32" transform="translate(0 0.390625)"/>
       <use xlink:href="#Cmmi10-bc" transform="translate(50 0.390625)"/>
      </g>
     </g>
    </g>
    <g id="text_12">
     <!-- $\theta_{\mathrm{Boozer}}$ -->
     <g transform="translate(36.634687 197.576094) rotate(-90) scale(0.34 -0.34)">
      <defs>
       <path id="Cmmi10-b5" d="M 1031 -72 
Q 741 -72 566 140 
Q 391 353 323 653 
Q 256 953 256 1247 
L 256 1253 
Q 256 1572 317 1915 
Q 378 2259 493 2601 
Q 609 2944 744 3213 
Q 838 3400 986 3631 
Q 1134 3863 1317 4064 
Q 1500 4266 1711 4389 
Q 1922 4513 2138 4513 
L 2144 4513 
Q 2375 4513 2529 4384 
Q 2684 4256 2770 4056 
Q 2856 3856 2890 3628 
Q 2925 3400 2925 3194 
Q 2925 2709 2794 2204 
Q 2663 1700 2431 1228 
Q 2344 1050 2189 809 
Q 2034 569 1861 378 
Q 1688 188 1472 58 
Q 1256 -72 1038 -72 
L 1031 -72 
z
M 1044 97 
Q 1256 97 1451 323 
Q 1647 550 1794 873 
Q 1941 1197 2052 1536 
Q 2163 1875 2216 2113 
L 909 2113 
Q 809 1709 753 1417 
Q 697 1125 697 844 
Q 697 97 1044 97 
z
M 959 2338 
L 2272 2338 
Q 2341 2619 2381 2808 
Q 2422 2997 2450 3206 
Q 2478 3416 2478 3597 
Q 2478 4347 2138 4347 
Q 1731 4347 1436 3692 
Q 1141 3038 959 2338 
z
" transform="scale(0.015625)"/>
      </defs>
      <use xlink:href="#Cmmi10-b5" transform="translate(0 0.484375)"/>
      <use xlink:href="#Cmr10-42" transform="translate(46.923828 -16.521875) scale(0.7)"/>
      <use xlink:href="#Cmr10-6f" transform="translate(96.484375 -16.521875) scale(0.7)"/>
      <use xlink:href="#Cmr10-6f" transform="translate(131.484375 -16.521875) scale(0.7)"/>
      <use xlink:href="#Cmr10-7a" transform="translate(166.484375 -16.521875) scale(0.7)"/>
      <use xlink:href="#Cmr10-65" transform="translate(197.553711 -16.521875) scale(0.7)"/>
      <use xlink:href="#Cmr10-72" transform="translate(228.623047 -16.521875) scale(0.7)"/>
     </g>
    </g>
   </g>
   <g id="QuadContourSet_1">
    <path d="M 107.665625 284.294375 
L 107.665625 284.294375 
z
M 107.665625 21.437813 
L 107.665625 21.437813 
z
M 346.318625 21.437813 
L 346.318625 21.437813 
z
" clip-path="url(#p394940ffa1)" style="fill: none; stroke: #000080"/>
    <path d="M 289.188494 284.294375 
L 287.981225 283.045423 
L 285.329525 281.611824 
L 284.747053 281.373747 
L 285.329525 281.255368 
L 287.981225 280.995365 
L 290.632925 280.893756 
L 293.284625 280.763284 
L 295.936325 280.519726 
L 298.588025 280.226758 
L 301.239725 279.829827 
L 303.891425 279.199877 
L 306.53153 278.453118 
L 306.543125 278.451202 
L 309.194825 278.057549 
L 311.846525 277.799641 
L 314.498225 277.642293 
L 317.149925 277.457164 
L 319.801625 277.117374 
L 322.453325 276.531408 
L 324.98757 275.53249 
L 325.105025 275.481869 
L 327.756725 273.905079 
L 329.605328 272.611861 
L 330.408425 272.094082 
L 333.060125 270.53005 
L 334.685178 269.691233 
L 335.711825 269.255965 
L 338.363525 268.34576 
L 341.015225 267.725211 
L 343.666925 267.423326 
L 346.318625 267.243331 
M 107.665625 267.243331 
L 110.317325 266.898281 
L 111.101962 266.770604 
L 112.969025 266.52826 
L 115.620725 266.434267 
L 118.272425 266.635649 
L 119.219069 266.770604 
L 120.924125 267.060821 
L 123.575825 267.673731 
L 126.227525 268.464836 
L 128.879225 269.383516 
L 129.726104 269.691233 
L 131.530925 270.494891 
L 134.182625 271.583487 
L 136.834325 272.579814 
L 136.924782 272.611861 
L 139.486025 273.77222 
L 142.137725 274.89871 
L 143.676489 275.53249 
L 144.789425 276.156916 
L 147.441125 277.506488 
L 149.65171 278.453118 
L 150.092825 278.739277 
L 152.744525 280.130959 
L 155.396225 281.196438 
L 156.002527 281.373747 
L 158.047925 282.58806 
L 160.699625 283.490038 
L 163.351325 284.029019 
L 164.795756 284.294375 
M 346.318625 38.488856 
L 343.666925 38.833906 
L 342.882288 38.961583 
L 341.015225 39.203928 
L 338.363525 39.29792 
L 335.711825 39.096538 
L 334.765181 38.961583 
L 333.060125 38.671366 
L 330.408425 38.058457 
L 327.756725 37.267352 
L 325.105025 36.348672 
L 324.258146 36.040955 
L 322.453325 35.237296 
L 319.801625 34.148701 
L 317.149925 33.152374 
L 317.059468 33.120326 
L 314.498225 31.959968 
L 311.846525 30.833477 
L 310.307761 30.199698 
L 309.194825 29.575271 
L 306.543125 28.2257 
L 304.33254 27.279069 
L 303.891425 26.992911 
L 301.239725 25.601229 
L 298.588025 24.535749 
L 297.981723 24.358441 
L 295.936325 23.144127 
L 293.284625 22.242149 
L 290.632925 21.703168 
L 289.188494 21.437813 
M 164.795756 21.437813 
L 166.003025 22.686764 
L 168.654725 24.120363 
L 169.237197 24.358441 
L 168.654725 24.476819 
L 166.003025 24.736823 
L 163.351325 24.838432 
L 160.699625 24.968903 
L 158.047925 25.212461 
L 155.396225 25.50543 
L 152.744525 25.90236 
L 150.092825 26.532311 
L 147.45272 27.279069 
L 147.441125 27.280986 
L 144.789425 27.674638 
L 142.137725 27.932547 
L 139.486025 28.089895 
L 136.834325 28.275023 
L 134.182625 28.614814 
L 131.530925 29.200779 
L 128.99668 30.199698 
L 128.879225 30.250319 
L 126.227525 31.827108 
L 124.378922 33.120326 
L 123.575825 33.638106 
L 120.924125 35.202138 
L 119.299072 36.040955 
L 118.272425 36.476223 
L 115.620725 37.386428 
L 112.969025 38.006977 
L 110.317325 38.308861 
L 107.665625 38.488856 
" clip-path="url(#p394940ffa1)" style="fill: none; stroke: #0000a4"/>
    <path d="M 107.665625 260.3048 
L 110.317325 260.142038 
L 112.969025 260.168563 
L 115.620725 260.502715 
L 118.272425 261.092392 
L 126.227525 263.479119 
L 142.137725 268.676646 
L 150.092825 271.054882 
L 152.744525 271.672439 
L 155.396225 272.144114 
L 160.699625 272.783944 
L 166.003025 273.291251 
L 181.913225 274.020722 
L 184.564925 274.120786 
L 192.520025 274.751505 
L 197.823425 274.835893 
L 203.126825 274.693859 
L 211.081925 274.016937 
L 216.385325 273.302101 
L 234.947225 270.224846 
L 237.598925 269.666534 
L 242.902325 268.861515 
L 250.857425 267.873889 
L 256.160825 267.569617 
L 261.464225 267.459208 
L 269.419325 267.544897 
L 272.071025 267.805839 
L 285.329525 269.745213 
L 290.632925 270.948767 
L 293.284625 271.446627 
L 295.936325 271.804183 
L 298.588025 272.018686 
L 301.239725 272.095284 
L 306.543125 271.894584 
L 311.846525 271.503953 
L 314.498225 271.099963 
L 317.149925 270.390975 
L 319.801625 269.319596 
L 322.453325 267.820747 
L 325.105025 266.068366 
L 328.99682 263.849976 
L 330.408425 263.233066 
L 333.060125 262.299111 
L 335.711825 261.548156 
L 338.792125 260.929347 
L 341.015225 260.667537 
L 346.318625 260.3048 
M 346.318625 45.427387 
L 343.666925 45.59015 
L 341.015225 45.563625 
L 338.363525 45.229473 
L 335.711825 44.639796 
L 327.756725 42.253069 
L 311.846525 37.055541 
L 303.891425 34.677305 
L 301.239725 34.059749 
L 298.588025 33.588074 
L 293.284625 32.948243 
L 287.981225 32.440937 
L 272.071025 31.711465 
L 269.419325 31.611401 
L 261.464225 30.980683 
L 256.160825 30.896295 
L 250.857425 31.038329 
L 242.902325 31.71525 
L 237.598925 32.430087 
L 219.037025 35.507341 
L 216.385325 36.065654 
L 211.081925 36.870673 
L 203.126825 37.858299 
L 197.823425 38.162571 
L 192.520025 38.272979 
L 184.564925 38.187291 
L 181.913225 37.926348 
L 168.654725 35.986974 
L 163.351325 34.783421 
L 160.699625 34.28556 
L 158.047925 33.928005 
L 155.396225 33.713501 
L 152.744525 33.636903 
L 147.441125 33.837603 
L 142.137725 34.228235 
L 139.486025 34.632225 
L 136.834325 35.341212 
L 134.182625 36.412591 
L 131.530925 37.911441 
L 128.879225 39.663822 
L 124.98743 41.882212 
L 123.575825 42.499121 
L 120.924125 43.433077 
L 118.272425 44.184031 
L 115.192125 44.80284 
L 112.969025 45.064651 
L 107.665625 45.427387 
L 107.665625 45.427387 
" clip-path="url(#p394940ffa1)" style="fill: none; stroke: #0000cd"/>
    <path d="M 107.665625 255.211254 
L 110.317325 255.385575 
L 112.969025 255.776195 
L 115.620725 256.389989 
L 121.195604 258.008719 
L 128.879225 260.482541 
L 142.137725 264.140892 
L 147.441125 265.451739 
L 152.744525 266.400937 
L 156.30731 266.770604 
L 160.699625 267.013185 
L 168.654725 267.40804 
L 192.520025 267.541548 
L 200.475125 266.989122 
L 208.430225 266.205654 
L 213.733625 265.559436 
L 234.947225 262.171848 
L 240.250625 261.538666 
L 245.554025 261.106835 
L 250.857425 260.908126 
L 258.812525 260.994885 
L 264.115925 261.250288 
L 266.767625 261.458249 
L 269.419325 261.783066 
L 274.722725 262.793113 
L 285.329525 265.084148 
L 290.632925 266.323846 
L 295.936325 267.189823 
L 298.588025 267.385187 
L 301.239725 267.438698 
L 303.891425 267.350142 
L 306.543125 267.120454 
L 309.194825 266.7375 
L 311.846525 266.085899 
L 314.498225 265.053105 
L 317.149925 263.636687 
L 322.453325 260.271149 
L 325.105025 258.836884 
L 327.756725 257.729268 
L 330.408425 256.937079 
L 333.060125 256.315055 
L 335.711825 255.816846 
L 338.363525 255.443253 
L 341.015225 255.231795 
L 346.318625 255.211254 
M 346.318625 50.520933 
L 343.666925 50.346613 
L 341.015225 49.955993 
L 338.363525 49.342199 
L 332.788646 47.723469 
L 325.105025 45.249647 
L 311.846525 41.591296 
L 306.543125 40.280449 
L 301.239725 39.33125 
L 297.67694 38.961583 
L 293.284625 38.719003 
L 285.329525 38.324148 
L 261.464225 38.190639 
L 253.509125 38.743065 
L 245.554025 39.526534 
L 240.250625 40.172751 
L 219.037025 43.56034 
L 213.733625 44.193522 
L 208.430225 44.625352 
L 203.126825 44.824062 
L 195.171725 44.737302 
L 189.868325 44.481899 
L 187.216625 44.273939 
L 184.564925 43.949122 
L 179.261525 42.939074 
L 168.654725 40.64804 
L 163.351325 39.408341 
L 158.047925 38.542364 
L 155.396225 38.347 
L 152.744525 38.293489 
L 150.092825 38.382045 
L 147.441125 38.611734 
L 144.789425 38.994688 
L 142.137725 39.646289 
L 139.486025 40.679082 
L 136.834325 42.0955 
L 131.530925 45.461038 
L 128.879225 46.895304 
L 126.227525 48.002919 
L 123.575825 48.795109 
L 120.924125 49.417133 
L 118.272425 49.915342 
L 115.620725 50.288935 
L 112.969025 50.500393 
L 107.665625 50.520933 
L 107.665625 50.520933 
" clip-path="url(#p394940ffa1)" style="fill: none; stroke: #0000f6"/>
    <path d="M 107.665625 251.23387 
L 110.317325 251.6588 
L 112.969025 252.220835 
L 118.272425 253.810304 
L 128.879225 257.044315 
L 139.486025 259.672743 
L 144.789425 260.85269 
L 150.092825 261.660432 
L 155.396225 262.110919 
L 163.351325 262.436786 
L 171.306425 262.477234 
L 187.216625 262.206318 
L 192.520025 261.949226 
L 200.475125 261.110137 
L 213.733625 259.541509 
L 222.900602 258.008719 
L 229.643825 256.997523 
L 234.947225 256.328439 
L 240.250625 255.970179 
L 245.554025 255.80708 
L 253.509125 255.969347 
L 261.464225 256.495608 
L 266.767625 257.092966 
L 272.071025 258.113009 
L 280.026125 260.160766 
L 285.329525 261.468747 
L 290.632925 262.737501 
L 293.284625 263.165138 
L 295.936325 263.418046 
L 298.588025 263.505818 
L 301.239725 263.431214 
L 303.891425 263.147055 
L 306.543125 262.58883 
L 309.194825 261.705502 
L 311.846525 260.454806 
L 315.779098 258.008719 
L 319.801625 255.441451 
L 322.453325 254.105927 
L 325.105025 253.055536 
L 328.247619 252.167462 
L 333.060125 251.354065 
L 335.711825 251.024215 
L 338.363525 250.812898 
L 341.015225 250.780063 
L 343.666925 250.93263 
L 346.318625 251.23387 
M 346.318625 54.498318 
L 343.666925 54.073387 
L 341.015225 53.511353 
L 335.711825 51.921883 
L 325.105025 48.687873 
L 314.498225 46.059445 
L 309.194825 44.879497 
L 303.891425 44.071756 
L 298.588025 43.621268 
L 290.632925 43.295402 
L 282.677825 43.254953 
L 266.767625 43.52587 
L 261.464225 43.782962 
L 253.509125 44.62205 
L 240.250625 46.190679 
L 231.083648 47.723469 
L 224.340425 48.734665 
L 219.037025 49.403749 
L 213.733625 49.762008 
L 208.430225 49.925108 
L 200.475125 49.76284 
L 192.520025 49.23658 
L 187.216625 48.639221 
L 181.913225 47.619178 
L 173.958125 45.571421 
L 168.654725 44.263441 
L 163.351325 42.994687 
L 160.699625 42.567049 
L 158.047925 42.314141 
L 155.396225 42.226369 
L 152.744525 42.300973 
L 150.092825 42.585132 
L 147.441125 43.143357 
L 144.789425 44.026685 
L 142.137725 45.277382 
L 138.205152 47.723469 
L 134.182625 50.290736 
L 131.530925 51.626261 
L 128.879225 52.676652 
L 125.736631 53.564726 
L 120.924125 54.378122 
L 118.272425 54.707973 
L 115.620725 54.919289 
L 112.969025 54.952124 
L 110.317325 54.799557 
L 107.665625 54.498318 
L 107.665625 54.498318 
" clip-path="url(#p394940ffa1)" style="fill: none; stroke: #000cff"/>
    <path d="M 107.665625 247.883817 
L 113.285696 249.246833 
L 126.227525 253.177861 
L 131.530925 254.448597 
L 142.137725 256.727717 
L 147.441125 257.464016 
L 152.744525 257.825101 
L 163.351325 258.16588 
L 168.654725 258.128173 
L 179.261525 257.783893 
L 187.216625 257.516902 
L 192.520025 257.084762 
L 203.126825 255.816939 
L 211.081925 254.753583 
L 229.643825 251.936387 
L 234.947225 251.513373 
L 242.902325 251.33134 
L 248.205725 251.468358 
L 253.509125 251.792556 
L 258.812525 252.300416 
L 264.115925 253.022899 
L 269.419325 254.147109 
L 274.722725 255.5889 
L 280.026125 257.058207 
L 287.981225 259.038174 
L 290.632925 259.533503 
L 293.284625 259.843397 
L 295.936325 259.961875 
L 298.588025 259.877367 
L 301.239725 259.540435 
L 303.891425 258.875744 
L 306.543125 257.832618 
L 309.194825 256.393732 
L 311.846525 254.647495 
L 315.463028 252.167462 
L 317.149925 251.163062 
L 319.801625 249.874993 
L 322.453325 248.882552 
L 325.105025 248.153313 
L 327.756725 247.625797 
L 333.060125 246.980522 
L 335.711825 246.801071 
L 338.363525 246.780059 
L 341.015225 246.979986 
L 343.666925 247.374581 
L 346.318625 247.883817 
M 346.318625 57.848371 
L 340.698554 56.485354 
L 327.756725 52.554326 
L 322.453325 51.28359 
L 311.846525 49.00447 
L 306.543125 48.268172 
L 301.239725 47.907087 
L 290.632925 47.566308 
L 285.329525 47.604014 
L 274.722725 47.948295 
L 266.767625 48.215286 
L 261.464225 48.647426 
L 250.857425 49.915249 
L 242.902325 50.978604 
L 224.340425 53.795801 
L 219.037025 54.218815 
L 211.081925 54.400848 
L 205.778525 54.26383 
L 200.475125 53.939632 
L 195.171725 53.431772 
L 189.868325 52.709288 
L 184.564925 51.585079 
L 179.261525 50.143287 
L 173.958125 48.67398 
L 166.003025 46.694013 
L 163.351325 46.198684 
L 160.699625 45.888791 
L 158.047925 45.770312 
L 155.396225 45.854821 
L 152.744525 46.191752 
L 150.092825 46.856444 
L 147.441125 47.89957 
L 144.789425 49.338455 
L 142.137725 51.084692 
L 138.521222 53.564726 
L 136.834325 54.569126 
L 134.182625 55.857195 
L 131.530925 56.849635 
L 128.879225 57.578875 
L 126.227525 58.106391 
L 120.924125 58.751666 
L 118.272425 58.931117 
L 115.620725 58.952129 
L 112.969025 58.752202 
L 110.317325 58.357607 
L 107.665625 57.848371 
L 107.665625 57.848371 
" clip-path="url(#p394940ffa1)" style="fill: none; stroke: #0030ff"/>
    <path d="M 107.665625 244.9219 
L 112.969025 246.350175 
L 122.551002 249.246833 
L 126.227525 250.186155 
L 134.182625 251.843911 
L 142.137725 253.268341 
L 147.441125 253.789941 
L 152.744525 254.008464 
L 163.351325 254.177208 
L 168.654725 254.059888 
L 184.564925 253.316648 
L 189.868325 252.890218 
L 197.823425 251.929246 
L 211.081925 250.077206 
L 221.688725 248.318579 
L 226.992125 247.728857 
L 232.295525 247.336474 
L 237.598925 247.293246 
L 245.554025 247.426393 
L 250.857425 247.839365 
L 256.160825 248.457095 
L 261.464225 249.256124 
L 266.767625 250.467806 
L 272.725194 252.167462 
L 277.374425 253.58699 
L 285.329525 255.610273 
L 287.981225 256.149765 
L 290.632925 256.50025 
L 293.284625 256.635741 
L 295.936325 256.543717 
L 298.588025 256.1688 
L 302.07955 255.08809 
L 303.891425 254.230232 
L 307.261005 252.167462 
L 311.846525 248.857472 
L 314.498225 247.17936 
L 317.149925 245.873019 
L 319.801625 244.963487 
L 322.453325 244.307828 
L 327.756725 243.412225 
L 330.408425 243.162885 
L 333.060125 243.049279 
L 335.711825 243.061495 
L 339.383123 243.405576 
L 341.015225 243.671123 
L 346.318625 244.9219 
M 346.318625 60.810287 
L 341.015225 59.382013 
L 331.433248 56.485354 
L 327.756725 55.546033 
L 319.801625 53.888276 
L 311.846525 52.463847 
L 306.543125 51.942247 
L 301.239725 51.723724 
L 290.632925 51.55498 
L 285.329525 51.6723 
L 269.419325 52.41554 
L 264.115925 52.84197 
L 256.160825 53.802941 
L 242.902325 55.654982 
L 232.295525 57.413609 
L 226.992125 58.00333 
L 221.688725 58.395713 
L 216.385325 58.438941 
L 208.430225 58.305795 
L 203.126825 57.892823 
L 197.823425 57.275092 
L 192.520025 56.476064 
L 187.216625 55.264381 
L 181.259056 53.564726 
L 176.609825 52.145198 
L 168.654725 50.121915 
L 166.003025 49.582423 
L 163.351325 49.231938 
L 160.699625 49.096447 
L 158.047925 49.18847 
L 155.396225 49.563387 
L 151.9047 50.644097 
L 150.092825 51.501955 
L 146.723245 53.564726 
L 142.137725 56.874715 
L 139.486025 58.552828 
L 136.834325 59.859169 
L 134.182625 60.7687 
L 131.530925 61.424359 
L 126.227525 62.319963 
L 123.575825 62.569303 
L 120.924125 62.682908 
L 118.272425 62.670692 
L 114.601127 62.326611 
L 112.969025 62.061065 
L 107.665625 60.810287 
L 107.665625 60.810287 
" clip-path="url(#p394940ffa1)" style="fill: none; stroke: #0050ff"/>
    <path d="M 107.665625 242.170234 
L 115.620725 244.497875 
L 122.125092 246.326205 
L 126.227525 247.269273 
L 134.182625 248.736941 
L 139.486025 249.574762 
L 144.789425 250.090819 
L 150.092825 250.308172 
L 158.047925 250.385902 
L 166.003025 250.292103 
L 173.958125 249.924021 
L 184.564925 249.1512 
L 189.868325 248.672082 
L 197.823425 247.64523 
L 206.674449 246.326205 
L 216.385325 244.793816 
L 221.688725 244.029553 
L 226.992125 243.588622 
L 232.295525 243.364589 
L 237.598925 243.468774 
L 245.554025 243.827104 
L 250.857425 244.413116 
L 256.160825 245.249924 
L 261.637481 246.326205 
L 266.767625 247.733476 
L 280.026125 251.714359 
L 285.329525 252.910932 
L 287.981225 253.305703 
L 290.632925 253.459287 
L 293.284625 253.348443 
L 295.936325 252.948389 
L 298.609987 252.167462 
L 301.239725 250.870893 
L 303.891425 249.153977 
L 309.194825 245.16119 
L 311.89952 243.405576 
L 314.498225 242.145872 
L 317.149925 241.210552 
L 320.343841 240.484948 
L 325.105025 239.812211 
L 327.756725 239.546214 
L 330.408425 239.447082 
L 333.060125 239.535173 
L 335.711825 239.778128 
L 339.846586 240.484948 
L 341.015225 240.739971 
L 346.318625 242.170234 
M 346.318625 63.561953 
L 338.363525 61.234312 
L 331.859158 59.405983 
L 327.756725 58.462915 
L 319.801625 56.995247 
L 314.498225 56.157425 
L 309.194825 55.641368 
L 303.891425 55.424016 
L 295.936325 55.346285 
L 287.981225 55.440084 
L 280.026125 55.808166 
L 269.419325 56.580987 
L 264.115925 57.060106 
L 256.160825 58.086957 
L 247.309801 59.405983 
L 237.598925 60.938371 
L 232.295525 61.702635 
L 226.992125 62.143565 
L 221.688725 62.367598 
L 216.385325 62.263414 
L 208.430225 61.905083 
L 203.126825 61.319072 
L 197.823425 60.482263 
L 192.346769 59.405983 
L 187.216625 57.998712 
L 173.958125 54.017828 
L 168.654725 52.821256 
L 166.003025 52.426485 
L 163.351325 52.272901 
L 160.699625 52.383745 
L 158.047925 52.783798 
L 155.374263 53.564726 
L 152.744525 54.861294 
L 150.092825 56.578211 
L 144.789425 60.570997 
L 142.08473 62.326611 
L 139.486025 63.586315 
L 136.834325 64.521635 
L 133.640409 65.24724 
L 128.879225 65.919977 
L 126.227525 66.185973 
L 123.575825 66.285106 
L 120.924125 66.197015 
L 118.272425 65.95406 
L 114.137664 65.24724 
L 112.969025 64.992216 
L 107.665625 63.561953 
L 107.665625 63.561953 
" clip-path="url(#p394940ffa1)" style="fill: none; stroke: #0074ff"/>
    <path d="M 107.665625 239.538169 
L 118.272425 242.596659 
L 123.575825 243.867365 
L 128.879225 244.834882 
L 136.834325 246.012456 
L 142.137725 246.520707 
L 147.441125 246.743206 
L 155.396225 246.814465 
L 166.003025 246.580095 
L 171.306425 246.291909 
L 179.261525 245.677655 
L 192.520025 244.24973 
L 208.430225 241.827189 
L 216.385325 240.653752 
L 221.688725 240.051281 
L 226.992125 239.788057 
L 232.295525 239.752621 
L 237.598925 239.947148 
L 242.902325 240.260304 
L 248.205725 240.861668 
L 253.509125 241.783793 
L 258.812525 242.937961 
L 261.464225 243.613685 
L 266.767625 245.231182 
L 277.374425 248.587809 
L 282.677825 249.755674 
L 285.329525 250.166694 
L 287.981225 250.363701 
L 290.632925 250.251632 
L 293.284625 249.798661 
L 295.936325 248.960183 
L 298.588025 247.632484 
L 301.239725 245.856788 
L 306.543125 241.664577 
L 309.194825 239.872674 
L 311.846525 238.543559 
L 314.628929 237.564319 
L 317.149925 236.976807 
L 319.801625 236.556527 
L 325.105025 236.049072 
L 327.756725 235.959934 
L 330.408425 236.071805 
L 333.060125 236.378246 
L 335.711825 236.825986 
L 341.015225 238.055294 
L 346.318625 239.538169 
M 346.318625 66.194018 
L 335.711825 63.135528 
L 330.408425 61.864822 
L 325.105025 60.897305 
L 317.149925 59.719732 
L 311.846525 59.21148 
L 306.543125 58.988981 
L 298.588025 58.917723 
L 287.981225 59.152093 
L 282.677825 59.440279 
L 274.722725 60.054532 
L 261.464225 61.482457 
L 245.554025 63.904998 
L 237.598925 65.078435 
L 232.295525 65.680906 
L 226.992125 65.944131 
L 221.688725 65.979567 
L 216.385325 65.78504 
L 211.081925 65.471884 
L 205.778525 64.870519 
L 200.475125 63.948394 
L 195.171725 62.794227 
L 192.520025 62.118503 
L 187.216625 60.501006 
L 176.609825 57.144379 
L 171.306425 55.976513 
L 168.654725 55.565494 
L 166.003025 55.368486 
L 163.351325 55.480556 
L 160.699625 55.933527 
L 158.047925 56.772004 
L 155.396225 58.099704 
L 152.744525 59.875399 
L 147.441125 64.06761 
L 144.789425 65.859513 
L 142.137725 67.188628 
L 139.355321 68.167868 
L 136.834325 68.75538 
L 134.182625 69.175661 
L 128.879225 69.683115 
L 126.227525 69.772254 
L 123.575825 69.660383 
L 120.924125 69.353942 
L 118.272425 68.906201 
L 112.969025 67.676893 
L 107.665625 66.194018 
L 107.665625 66.194018 
" clip-path="url(#p394940ffa1)" style="fill: none; stroke: #0098ff"/>
    <path d="M 107.665625 236.979505 
L 115.620725 239.215775 
L 120.924125 240.50171 
L 126.227525 241.476632 
L 131.530925 242.240298 
L 136.834325 242.832514 
L 142.137725 243.193252 
L 150.092825 243.330754 
L 158.047925 243.245481 
L 168.654725 242.773335 
L 176.609825 242.086723 
L 187.216625 240.936507 
L 192.520025 240.263493 
L 213.733625 237.058742 
L 219.037025 236.511696 
L 224.340425 236.230941 
L 229.643825 236.244381 
L 234.947225 236.470517 
L 242.902325 237.114018 
L 248.205725 237.88869 
L 253.509125 238.995211 
L 259.252163 240.484948 
L 264.115925 242.005687 
L 274.722725 245.517762 
L 278.02522 246.326205 
L 280.026125 246.723269 
L 282.677825 247.094258 
L 285.329525 247.298049 
L 287.981225 247.225924 
L 290.632925 246.763495 
L 293.284625 245.832955 
L 295.936325 244.431883 
L 298.588025 242.601032 
L 304.92451 237.564319 
L 306.543125 236.452117 
L 309.194825 235.023032 
L 311.846525 234.080382 
L 314.498225 233.467901 
L 317.149925 233.041688 
L 319.801625 232.752743 
L 322.453325 232.580442 
L 325.105025 232.530821 
L 327.756725 232.666701 
L 330.408425 233.017414 
L 335.711825 234.095637 
L 341.015225 235.475053 
L 346.318625 236.979505 
M 346.318625 68.752682 
L 338.363525 66.516412 
L 333.060125 65.230477 
L 327.756725 64.255556 
L 322.453325 63.49189 
L 317.149925 62.899673 
L 311.846525 62.538935 
L 303.891425 62.401433 
L 295.936325 62.486707 
L 285.329525 62.958852 
L 277.374425 63.645465 
L 266.767625 64.795681 
L 261.464225 65.468695 
L 240.250625 68.673445 
L 234.947225 69.220491 
L 229.643825 69.501246 
L 224.340425 69.487807 
L 219.037025 69.261671 
L 211.081925 68.618169 
L 205.778525 67.843498 
L 200.475125 66.736976 
L 194.732087 65.24724 
L 189.868325 63.7265 
L 179.261525 60.214425 
L 175.95903 59.405983 
L 173.958125 59.008918 
L 171.306425 58.63793 
L 168.654725 58.434139 
L 166.003025 58.506263 
L 163.351325 58.968693 
L 160.699625 59.899233 
L 158.047925 61.300305 
L 155.396225 63.131156 
L 149.05974 68.167868 
L 147.441125 69.280071 
L 144.789425 70.709156 
L 142.137725 71.651805 
L 139.486025 72.264286 
L 136.834325 72.690499 
L 134.182625 72.979445 
L 131.530925 73.151745 
L 128.879225 73.201367 
L 126.227525 73.065486 
L 123.575825 72.714774 
L 118.272425 71.63655 
L 112.969025 70.257135 
L 107.665625 68.752682 
L 107.665625 68.752682 
" clip-path="url(#p394940ffa1)" style="fill: none; stroke: #00bcff"/>
    <path d="M 107.665625 234.449936 
L 115.620725 236.547202 
L 120.924125 237.710142 
L 126.227525 238.552969 
L 131.530925 239.202827 
L 136.834325 239.646993 
L 142.137725 239.878037 
L 150.092825 239.911898 
L 158.047925 239.72088 
L 168.654725 239.108689 
L 179.261525 238.004679 
L 189.868325 236.733998 
L 195.171725 235.884728 
L 205.778525 234.145922 
L 211.081925 233.493836 
L 216.385325 233.039684 
L 221.688725 232.770358 
L 226.992125 232.794529 
L 232.295525 233.053544 
L 237.598925 233.518693 
L 242.902325 234.149287 
L 248.205725 235.086516 
L 253.509125 236.384721 
L 258.812525 237.945339 
L 274.722725 243.216368 
L 277.374425 243.787782 
L 280.026125 244.134594 
L 282.677825 244.283877 
L 285.329525 244.203655 
L 287.981225 243.772977 
L 290.632925 242.821164 
L 293.284625 241.334205 
L 295.936325 239.40355 
L 301.77027 234.643691 
L 303.891425 233.14075 
L 306.543125 231.630839 
L 309.194825 230.620861 
L 311.846525 229.986519 
L 314.498225 229.584938 
L 317.149925 229.316838 
L 319.801625 229.168201 
L 322.453325 229.145777 
L 325.105025 229.284772 
L 327.756725 229.644818 
L 333.060125 230.837154 
L 341.015225 232.935578 
L 346.318625 234.449936 
M 346.318625 71.282252 
L 338.363525 69.184986 
L 333.060125 68.022046 
L 327.756725 67.179219 
L 322.453325 66.52936 
L 317.149925 66.085195 
L 311.846525 65.85415 
L 303.891425 65.820289 
L 295.936325 66.011307 
L 285.329525 66.623498 
L 274.722725 67.727509 
L 264.115925 68.998189 
L 258.812525 69.84746 
L 248.205725 71.586266 
L 242.902325 72.238352 
L 237.598925 72.692503 
L 232.295525 72.96183 
L 226.992125 72.937658 
L 221.688725 72.678643 
L 216.385325 72.213494 
L 211.081925 71.5829 
L 205.778525 70.645672 
L 200.475125 69.347467 
L 195.171725 67.786849 
L 179.261525 62.51582 
L 176.609825 61.944406 
L 173.958125 61.597593 
L 171.306425 61.448311 
L 168.654725 61.528532 
L 166.003025 61.959211 
L 163.351325 62.911024 
L 160.699625 64.397982 
L 158.047925 66.328637 
L 152.21398 71.088497 
L 150.092825 72.591438 
L 147.441125 74.101349 
L 144.789425 75.111326 
L 142.137725 75.745669 
L 139.486025 76.147249 
L 136.834325 76.41535 
L 134.182625 76.563987 
L 131.530925 76.586411 
L 128.879225 76.447415 
L 126.227525 76.087369 
L 120.924125 74.895033 
L 112.969025 72.79661 
L 107.665625 71.282252 
L 107.665625 71.282252 
" clip-path="url(#p394940ffa1)" style="fill: none; stroke: #00e0fb"/>
    <path d="M 107.665625 231.9041 
L 112.969025 233.245796 
L 119.568715 234.643691 
L 123.575825 235.279102 
L 131.530925 236.125996 
L 136.834325 236.439848 
L 142.137725 236.560241 
L 150.092825 236.49484 
L 158.047925 236.179216 
L 166.003025 235.678349 
L 171.306425 235.138447 
L 189.868325 232.83771 
L 208.430225 229.956041 
L 213.733625 229.530144 
L 219.037025 229.342055 
L 224.340425 229.364627 
L 229.643825 229.678363 
L 234.947225 230.186389 
L 240.250625 230.895898 
L 245.554025 231.816911 
L 250.857425 233.142006 
L 256.160825 234.750363 
L 272.071025 240.208672 
L 274.722725 240.86565 
L 277.374425 241.259288 
L 280.026125 241.374569 
L 282.677825 241.221253 
L 285.329525 240.758508 
L 286.207694 240.484948 
L 287.981225 239.80381 
L 290.632925 238.283948 
L 291.649215 237.564319 
L 295.187921 234.643691 
L 298.600535 231.723062 
L 301.239725 229.809339 
L 303.891425 228.292621 
L 306.543125 227.216562 
L 309.194825 226.522879 
L 311.846525 226.118965 
L 314.498225 225.881765 
L 317.149925 225.773067 
L 321.065992 225.881806 
L 322.453325 225.970348 
L 325.105025 226.312568 
L 327.756725 226.841638 
L 335.711825 228.976646 
L 346.318625 231.9041 
M 346.318625 73.828087 
L 341.015225 72.486391 
L 334.415535 71.088497 
L 330.408425 70.453086 
L 322.453325 69.606191 
L 317.149925 69.29234 
L 311.846525 69.171946 
L 303.891425 69.237347 
L 295.936325 69.552971 
L 287.981225 70.053838 
L 282.677825 70.593741 
L 264.115925 72.894478 
L 245.554025 75.776147 
L 240.250625 76.202044 
L 234.947225 76.390132 
L 229.643825 76.367561 
L 224.340425 76.053825 
L 219.037025 75.545798 
L 213.733625 74.83629 
L 208.430225 73.915276 
L 203.126825 72.590181 
L 197.823425 70.981824 
L 181.913225 65.523515 
L 179.261525 64.866537 
L 176.609825 64.4729 
L 173.958125 64.357619 
L 171.306425 64.510935 
L 168.654725 64.973679 
L 167.776556 65.24724 
L 166.003025 65.928377 
L 163.351325 67.44824 
L 162.335035 68.167868 
L 158.796329 71.088497 
L 155.383715 74.009125 
L 152.744525 75.922849 
L 150.092825 77.439566 
L 147.441125 78.515626 
L 144.789425 79.209309 
L 142.137725 79.613223 
L 139.486025 79.850423 
L 136.834325 79.959121 
L 132.918258 79.850382 
L 131.530925 79.76184 
L 128.879225 79.41962 
L 126.227525 78.890549 
L 118.272425 76.755541 
L 107.665625 73.828087 
L 107.665625 73.828087 
" clip-path="url(#p394940ffa1)" style="fill: none; stroke: #19ffde"/>
    <path d="M 107.665625 229.336096 
L 112.969025 230.579041 
L 119.107888 231.723062 
L 123.575825 232.324759 
L 131.530925 233.00641 
L 136.834325 233.188288 
L 144.789425 233.176013 
L 152.744525 232.921506 
L 163.351325 232.262543 
L 168.746854 231.723062 
L 190.608964 228.802434 
L 205.778525 226.48433 
L 211.081925 226.04809 
L 216.385325 225.889496 
L 221.688725 225.948699 
L 226.992125 226.264459 
L 232.295525 226.840916 
L 237.598925 227.617143 
L 243.789511 228.802434 
L 248.205725 229.912801 
L 253.923217 231.723062 
L 270.814853 237.564319 
L 272.071025 237.91078 
L 274.722725 238.389628 
L 277.374425 238.546771 
L 280.026125 238.345069 
L 283.410959 237.564319 
L 285.329525 236.791493 
L 288.795591 234.643691 
L 292.225899 231.723062 
L 295.936325 228.399992 
L 299.468831 225.881806 
L 301.239725 224.913737 
L 303.891425 223.818175 
L 307.227953 222.961177 
L 309.194825 222.653673 
L 311.846525 222.430406 
L 314.498225 222.348985 
L 317.149925 222.421746 
L 319.801625 222.659028 
L 322.453325 223.036191 
L 325.105025 223.549052 
L 330.408425 224.917025 
L 338.363525 227.176656 
L 346.318625 229.336096 
M 346.318625 76.396091 
L 341.015225 75.153147 
L 334.876362 74.009125 
L 330.408425 73.407428 
L 322.453325 72.725778 
L 317.149925 72.5439 
L 309.194825 72.556174 
L 301.239725 72.810682 
L 290.632925 73.469645 
L 285.237396 74.009125 
L 263.375286 76.929753 
L 248.205725 79.247857 
L 242.902325 79.684097 
L 237.598925 79.842692 
L 232.295525 79.783488 
L 226.992125 79.467728 
L 221.688725 78.891272 
L 216.385325 78.115045 
L 210.194739 76.929753 
L 205.778525 75.819386 
L 200.061033 74.009125 
L 183.169397 68.167868 
L 181.913225 67.821407 
L 179.261525 67.342559 
L 176.609825 67.185417 
L 173.958125 67.387118 
L 170.573291 68.167868 
L 168.654725 68.940695 
L 165.188659 71.088497 
L 161.758351 74.009125 
L 158.047925 77.332196 
L 154.515419 79.850382 
L 152.744525 80.818451 
L 150.092825 81.914013 
L 146.756297 82.77101 
L 144.789425 83.078515 
L 142.137725 83.301782 
L 139.486025 83.383202 
L 136.834325 83.310441 
L 134.182625 83.073159 
L 131.530925 82.695997 
L 128.879225 82.183136 
L 123.575825 80.815162 
L 115.620725 78.555532 
L 107.665625 76.396091 
L 107.665625 76.396091 
" clip-path="url(#p394940ffa1)" style="fill: none; stroke: #33ffc4"/>
    <path d="M 107.665625 226.717612 
L 112.969025 227.840675 
L 119.072184 228.802434 
L 123.575825 229.285694 
L 131.530925 229.809749 
L 136.834325 229.882478 
L 144.789425 229.724884 
L 152.744525 229.378112 
L 160.935136 228.802434 
L 166.003025 228.302332 
L 179.261525 226.532356 
L 192.520025 224.553651 
L 203.651046 222.961177 
L 208.430225 222.586585 
L 213.733625 222.440385 
L 219.037025 222.530711 
L 224.340425 222.836208 
L 229.643825 223.434095 
L 234.947225 224.277471 
L 240.250625 225.325992 
L 245.554025 226.685888 
L 250.857425 228.389475 
L 266.767625 234.178434 
L 269.419325 234.939635 
L 272.071025 235.483019 
L 274.722725 235.724612 
L 277.374425 235.543807 
L 280.791075 234.643691 
L 282.677825 233.790216 
L 285.914841 231.723062 
L 289.268226 228.802434 
L 293.284625 225.045896 
L 295.983656 222.961177 
L 298.588025 221.493732 
L 301.239725 220.401092 
L 303.891425 219.657846 
L 306.543125 219.204714 
L 309.194825 218.974366 
L 311.846525 218.910173 
L 314.498225 218.998463 
L 317.149925 219.267751 
L 321.380743 220.040549 
L 325.105025 220.894194 
L 330.408425 222.362062 
L 338.363525 224.626922 
L 346.318625 226.717612 
M 346.318625 79.014575 
L 341.015225 77.891513 
L 334.912066 76.929753 
L 330.408425 76.446493 
L 322.453325 75.922438 
L 317.149925 75.84971 
L 309.194825 76.007304 
L 301.239725 76.354076 
L 293.049114 76.929753 
L 287.981225 77.429855 
L 274.722725 79.199831 
L 261.464225 81.178537 
L 250.333204 82.77101 
L 245.554025 83.145602 
L 240.250625 83.291803 
L 234.947225 83.201477 
L 229.643825 82.895979 
L 224.340425 82.298093 
L 219.037025 81.454717 
L 213.733625 80.406196 
L 208.430225 79.046299 
L 203.126825 77.342713 
L 187.216625 71.553754 
L 184.564925 70.792553 
L 181.913225 70.249169 
L 179.261525 70.007575 
L 176.609825 70.188381 
L 173.193175 71.088497 
L 171.306425 71.941972 
L 168.069409 74.009125 
L 164.716024 76.929753 
L 160.699625 80.686292 
L 158.000594 82.77101 
L 155.396225 84.238455 
L 152.744525 85.331096 
L 150.092825 86.074341 
L 147.441125 86.527474 
L 144.789425 86.757821 
L 142.137725 86.822015 
L 139.486025 86.733725 
L 136.834325 86.464436 
L 132.603507 85.691639 
L 128.879225 84.837993 
L 123.575825 83.370126 
L 115.620725 81.105266 
L 107.665625 79.014575 
L 107.665625 79.014575 
" clip-path="url(#p394940ffa1)" style="fill: none; stroke: #50ffa7"/>
    <path d="M 107.665625 223.98812 
L 112.969025 224.972279 
L 118.272425 225.702157 
L 123.575825 226.152248 
L 128.879225 226.426437 
L 134.182625 226.517016 
L 139.486025 226.411683 
L 151.08096 225.881806 
L 158.047925 225.347587 
L 166.003025 224.488382 
L 179.261525 222.617195 
L 200.475125 219.519983 
L 205.778525 219.096057 
L 211.081925 218.955492 
L 216.385325 219.081062 
L 221.688725 219.409063 
L 227.15842 220.040549 
L 232.295525 220.901796 
L 237.598925 221.99789 
L 242.902325 223.411626 
L 248.205725 225.163943 
L 257.687582 228.802434 
L 261.464225 230.228241 
L 265.97581 231.723062 
L 266.767625 231.965081 
L 269.419325 232.549896 
L 272.071025 232.863784 
L 274.722725 232.756047 
L 277.374425 232.092928 
L 278.278554 231.723062 
L 280.026125 230.802225 
L 282.959109 228.802434 
L 286.231533 225.881806 
L 290.632925 221.610642 
L 293.284625 219.495411 
L 295.936325 217.983604 
L 298.588025 216.927367 
L 301.239725 216.212118 
L 303.891425 215.740352 
L 306.543125 215.493837 
L 309.194825 215.447544 
L 311.846525 215.557673 
L 314.498225 215.83164 
L 317.149925 216.28843 
L 322.453325 217.571779 
L 330.408425 219.813199 
L 335.711825 221.331591 
L 343.666925 223.390296 
L 346.318625 223.98812 
M 346.318625 81.744068 
L 341.015225 80.759908 
L 335.711825 80.030031 
L 330.408425 79.57994 
L 325.105025 79.30575 
L 319.801625 79.215172 
L 314.498225 79.320505 
L 302.90329 79.850382 
L 295.936325 80.3846 
L 287.981225 81.243806 
L 274.722725 83.114993 
L 253.509125 86.212205 
L 248.205725 86.636131 
L 242.902325 86.776695 
L 237.598925 86.651125 
L 232.295525 86.323124 
L 226.82583 85.691639 
L 221.688725 84.830391 
L 216.385325 83.734297 
L 211.081925 82.320562 
L 205.778525 80.568244 
L 196.296668 76.929753 
L 192.520025 75.503947 
L 188.00844 74.009125 
L 187.216625 73.767106 
L 184.564925 73.182292 
L 181.913225 72.868403 
L 179.261525 72.976141 
L 176.609825 73.63926 
L 175.705696 74.009125 
L 173.958125 74.929963 
L 171.025141 76.929753 
L 167.752717 79.850382 
L 163.351325 84.121546 
L 160.699625 86.236777 
L 158.047925 87.748583 
L 155.396225 88.804821 
L 152.744525 89.52007 
L 150.092825 89.991836 
L 147.441125 90.238351 
L 144.789425 90.284644 
L 142.137725 90.174514 
L 139.486025 89.900548 
L 136.834325 89.443758 
L 131.530925 88.160409 
L 123.575825 85.918988 
L 118.272425 84.400597 
L 110.317325 82.341891 
L 107.665625 81.744068 
L 107.665625 81.744068 
" clip-path="url(#p394940ffa1)" style="fill: none; stroke: #6dff8a"/>
    <path d="M 107.665625 221.100407 
L 112.969025 221.942896 
L 118.272425 222.546192 
L 125.490693 222.961177 
L 128.879225 223.03606 
L 136.930367 222.961177 
L 147.441125 222.435615 
L 155.396225 221.823875 
L 163.351325 220.929984 
L 171.306425 219.786809 
L 197.823425 215.897812 
L 203.126825 215.505191 
L 208.430225 215.413383 
L 213.733625 215.572099 
L 219.037025 215.948158 
L 224.340425 216.597081 
L 229.643825 217.500739 
L 234.947225 218.671811 
L 240.250625 220.093784 
L 245.554025 221.902058 
L 250.857425 223.964991 
L 258.812525 227.134388 
L 264.115925 228.959745 
L 266.767625 229.595398 
L 269.419325 229.965976 
L 272.071025 229.9383 
L 274.722725 229.311016 
L 275.845648 228.802434 
L 277.374425 227.89188 
L 280.026125 225.864424 
L 283.098735 222.961177 
L 287.981225 218.050099 
L 290.632925 215.88979 
L 293.623036 214.199292 
L 295.936325 213.34156 
L 298.588025 212.66846 
L 301.239725 212.212488 
L 303.891425 211.949975 
L 306.543125 211.907866 
L 309.194825 212.057543 
L 311.846525 212.360937 
L 314.498225 212.823336 
L 319.801625 214.150108 
L 333.060125 217.976423 
L 341.20758 220.040549 
L 346.318625 221.100407 
M 346.318625 84.63178 
L 341.015225 83.789291 
L 335.711825 83.185996 
L 328.493557 82.77101 
L 325.105025 82.696128 
L 317.053883 82.77101 
L 306.543125 83.296572 
L 298.588025 83.908313 
L 290.632925 84.802204 
L 282.677825 85.945378 
L 256.160825 89.834376 
L 250.857425 90.226996 
L 245.554025 90.318804 
L 240.250625 90.160089 
L 234.947225 89.784029 
L 229.643825 89.135106 
L 224.340425 88.231448 
L 219.037025 87.060377 
L 213.733625 85.638404 
L 208.430225 83.83013 
L 203.126825 81.767197 
L 195.171725 78.5978 
L 189.868325 76.772443 
L 187.216625 76.136789 
L 184.564925 75.766211 
L 181.913225 75.793888 
L 179.261525 76.421171 
L 178.138602 76.929753 
L 176.609825 77.840308 
L 173.958125 79.867764 
L 170.885515 82.77101 
L 166.003025 87.682088 
L 163.351325 89.842398 
L 160.361214 91.532896 
L 158.047925 92.390627 
L 155.396225 93.063727 
L 152.744525 93.519699 
L 150.092825 93.782212 
L 147.441125 93.824321 
L 144.789425 93.674644 
L 142.137725 93.371251 
L 139.486025 92.908852 
L 134.182625 91.58208 
L 120.924125 87.755764 
L 112.77667 85.691639 
L 107.665625 84.63178 
L 107.665625 84.63178 
" clip-path="url(#p394940ffa1)" style="fill: none; stroke: #8aff6d"/>
    <path d="M 107.665625 218.035806 
L 112.969025 218.753214 
L 118.272425 219.223421 
L 123.575825 219.448052 
L 128.879225 219.471592 
L 136.834325 219.264699 
L 147.441125 218.654793 
L 152.744525 218.215631 
L 160.699625 217.282829 
L 168.654725 216.100018 
L 189.868325 212.803805 
L 195.171725 212.185696 
L 200.475125 211.779148 
L 205.778525 211.740953 
L 211.081925 211.976289 
L 216.385325 212.417651 
L 221.688725 213.118353 
L 227.600765 214.199292 
L 232.295525 215.282914 
L 237.598925 216.773956 
L 242.902325 218.589116 
L 248.205725 220.698588 
L 256.160825 223.996864 
L 261.464225 225.907433 
L 264.115925 226.60064 
L 266.767625 227.036445 
L 269.419325 227.084325 
L 272.071025 226.531608 
L 273.456915 225.881806 
L 274.722725 225.078004 
L 277.374425 222.788149 
L 285.470181 214.199292 
L 287.981225 212.1706 
L 290.632925 210.641346 
L 293.284625 209.649567 
L 295.936325 209.009413 
L 298.588025 208.591063 
L 301.239725 208.335223 
L 304.93021 208.358035 
L 306.543125 208.463815 
L 309.194825 208.822122 
L 311.846525 209.322072 
L 317.149925 210.651383 
L 330.408425 214.537878 
L 335.711825 215.911473 
L 341.105396 217.11992 
L 346.318625 218.035806 
M 346.318625 87.696381 
L 341.015225 86.978974 
L 335.711825 86.508766 
L 330.408425 86.284135 
L 325.105025 86.260595 
L 317.149925 86.467488 
L 306.543125 87.077394 
L 301.239725 87.516556 
L 293.284625 88.449358 
L 285.329525 89.632169 
L 264.115925 92.928382 
L 258.812525 93.546492 
L 253.509125 93.953039 
L 248.205725 93.991235 
L 242.902325 93.755899 
L 237.598925 93.314536 
L 232.295525 92.613835 
L 226.383485 91.532896 
L 221.688725 90.449273 
L 216.385325 88.958231 
L 211.081925 87.143071 
L 205.778525 85.033599 
L 197.823425 81.735324 
L 192.520025 79.824754 
L 189.868325 79.131548 
L 187.216625 78.695743 
L 184.564925 78.647863 
L 181.913225 79.200579 
L 180.527335 79.850382 
L 179.261525 80.654184 
L 176.609825 82.944038 
L 168.514069 91.532896 
L 166.003025 93.561588 
L 163.351325 95.090842 
L 160.699625 96.08262 
L 158.047925 96.722775 
L 155.396225 97.141124 
L 152.744525 97.396965 
L 149.05404 97.374153 
L 147.441125 97.268373 
L 144.789425 96.910065 
L 142.137725 96.410116 
L 136.834325 95.080805 
L 123.575825 91.194309 
L 118.272425 89.820714 
L 112.878854 88.612267 
L 107.665625 87.696381 
L 107.665625 87.696381 
" clip-path="url(#p394940ffa1)" style="fill: none; stroke: #a7ff50"/>
    <path d="M 107.665625 214.78613 
L 112.969025 215.378062 
L 118.272425 215.703771 
L 123.575825 215.804768 
L 128.879225 215.715647 
L 139.486025 215.233378 
L 150.092825 214.471937 
L 155.396225 213.855157 
L 166.003025 212.292139 
L 189.868325 208.607293 
L 195.171725 208.128732 
L 200.475125 207.90505 
L 205.778525 208.034956 
L 211.081925 208.488095 
L 216.385325 209.126024 
L 221.688725 210.019608 
L 227.504254 211.278663 
L 232.295525 212.557557 
L 237.598925 214.248099 
L 242.902325 216.257092 
L 256.160825 221.831101 
L 259.389634 222.961177 
L 261.464225 223.554275 
L 264.115925 224.060195 
L 266.767625 224.193246 
L 269.419325 223.729828 
L 271.071918 222.961177 
L 272.071025 222.304611 
L 274.722725 219.796971 
L 279.312117 214.199292 
L 280.026125 213.285508 
L 282.677825 210.402354 
L 285.329525 208.263566 
L 287.981225 206.818364 
L 290.632925 205.842368 
L 293.284625 205.234711 
L 295.936325 204.866152 
L 298.588025 204.647081 
L 301.239725 204.609185 
L 303.891425 204.796759 
L 307.736355 205.437406 
L 309.194825 205.73544 
L 314.498225 207.106418 
L 330.408425 211.718552 
L 335.711825 212.950078 
L 342.326019 214.199292 
L 346.318625 214.78613 
M 346.318625 90.946057 
L 341.015225 90.354126 
L 335.711825 90.028416 
L 330.408425 89.927419 
L 325.105025 90.016541 
L 314.498225 90.498809 
L 303.891425 91.260251 
L 298.588025 91.87703 
L 287.981225 93.440049 
L 264.115925 97.124895 
L 258.812525 97.603455 
L 253.509125 97.827138 
L 248.205725 97.697232 
L 242.902325 97.244093 
L 237.598925 96.606163 
L 232.295525 95.712579 
L 226.479996 94.453524 
L 221.688725 93.17463 
L 216.385325 91.484089 
L 211.081925 89.475096 
L 197.823425 83.901087 
L 194.594616 82.77101 
L 192.520025 82.177913 
L 189.868325 81.671993 
L 187.216625 81.538941 
L 184.564925 82.002359 
L 182.912332 82.77101 
L 181.913225 83.427577 
L 179.261525 85.935216 
L 174.672133 91.532896 
L 173.958125 92.44668 
L 171.306425 95.329834 
L 168.654725 97.468621 
L 166.003025 98.913823 
L 163.351325 99.88982 
L 160.699625 100.497476 
L 158.047925 100.866036 
L 155.396225 101.085107 
L 152.744525 101.123003 
L 150.092825 100.935428 
L 146.247895 100.294781 
L 144.789425 99.996748 
L 139.486025 98.62577 
L 123.575825 94.013636 
L 118.272425 92.78211 
L 111.658231 91.532896 
L 107.665625 90.946057 
L 107.665625 90.946057 
" clip-path="url(#p394940ffa1)" style="fill: none; stroke: #c4ff33"/>
    <path d="M 107.665625 211.342358 
L 112.969025 211.793228 
L 118.272425 211.941963 
L 126.227525 211.877145 
L 134.182625 211.505659 
L 144.789425 210.76035 
L 150.092825 210.236818 
L 158.047925 209.107681 
L 168.654725 207.454777 
L 180.623382 205.437406 
L 184.564925 204.857054 
L 189.868325 204.302166 
L 195.171725 204.010854 
L 200.475125 204.015418 
L 205.778525 204.331594 
L 211.081925 205.000261 
L 216.385325 205.819976 
L 221.688725 206.90393 
L 227.421888 208.358035 
L 232.295525 209.864349 
L 237.598925 211.754755 
L 243.469408 214.199292 
L 253.509125 218.560724 
L 257.587899 220.040549 
L 258.812525 220.429114 
L 261.464225 221.0107 
L 264.115925 221.236366 
L 266.767625 220.873403 
L 268.606224 220.040549 
L 269.419325 219.498633 
L 272.071025 216.797576 
L 274.722725 213.244307 
L 278.221926 208.358035 
L 280.026125 206.258791 
L 280.970469 205.437406 
L 282.677825 204.183144 
L 286.11713 202.516778 
L 287.981225 201.893815 
L 290.632925 201.316464 
L 293.284625 200.984967 
L 295.936325 200.812405 
L 298.588025 200.804552 
L 301.239725 201.013499 
L 303.891425 201.435431 
L 308.395009 202.516778 
L 311.846525 203.47605 
L 327.756725 208.061531 
L 333.060125 209.244466 
L 338.363525 210.221036 
L 343.666925 211.016213 
L 346.318625 211.342358 
M 346.318625 94.38983 
L 341.015225 93.93896 
L 335.711825 93.790224 
L 327.756725 93.855043 
L 319.801625 94.226528 
L 309.194825 94.971838 
L 303.891425 95.495369 
L 295.936325 96.624507 
L 285.329525 98.277411 
L 273.360868 100.294781 
L 269.419325 100.875133 
L 264.115925 101.430022 
L 258.812525 101.721333 
L 253.509125 101.71677 
L 248.205725 101.400593 
L 242.902325 100.731927 
L 237.598925 99.912212 
L 232.295525 98.828257 
L 226.562362 97.374153 
L 221.688725 95.867838 
L 216.385325 93.977432 
L 210.514842 91.532896 
L 200.475125 87.171463 
L 196.396351 85.691639 
L 195.171725 85.303074 
L 192.520025 84.721488 
L 189.868325 84.495822 
L 187.216625 84.858784 
L 185.378026 85.691639 
L 184.564925 86.233555 
L 181.913225 88.934611 
L 179.261525 92.487881 
L 175.762324 97.374153 
L 173.958125 99.473397 
L 173.013781 100.294781 
L 171.306425 101.549044 
L 167.86712 103.21541 
L 166.003025 103.838372 
L 163.351325 104.415724 
L 160.699625 104.74722 
L 158.047925 104.919783 
L 155.396225 104.927635 
L 152.744525 104.718689 
L 150.092825 104.296756 
L 145.589241 103.21541 
L 142.137725 102.256138 
L 126.227525 97.670657 
L 120.924125 96.487722 
L 115.620725 95.511152 
L 110.317325 94.715974 
L 107.665625 94.38983 
L 107.665625 94.38983 
" clip-path="url(#p394940ffa1)" style="fill: none; stroke: #deff19"/>
    <path d="M 107.665625 207.629532 
L 112.969025 207.938567 
L 120.924125 207.872367 
L 126.227525 207.728003 
L 134.182625 207.243874 
L 147.441125 206.070771 
L 152.744525 205.304308 
L 171.306425 202.267052 
L 179.261525 200.947215 
L 184.564925 200.28116 
L 189.868325 199.899981 
L 195.171725 199.835703 
L 200.475125 200.043763 
L 203.126825 200.265746 
L 208.430225 201.015995 
L 213.733625 201.932352 
L 219.037025 203.076349 
L 224.340425 204.492731 
L 229.643825 206.191544 
L 235.320957 208.358035 
L 240.250625 210.405707 
L 250.857425 215.171126 
L 255.986721 217.11992 
L 256.160825 217.180931 
L 258.812525 217.846438 
L 261.464225 218.174029 
L 264.115925 217.927648 
L 266.004909 217.11992 
L 266.767625 216.63294 
L 269.419325 213.775294 
L 272.071025 209.888083 
L 274.84553 205.437406 
L 277.374425 202.046028 
L 280.026125 199.895171 
L 280.591459 199.596149 
L 282.677825 198.638924 
L 285.329525 197.784731 
L 287.981225 197.212942 
L 290.632925 196.898153 
L 293.284625 196.77812 
L 295.936325 196.826988 
L 298.588025 197.076313 
L 301.239725 197.53658 
L 306.543125 198.888833 
L 322.453325 203.609584 
L 327.756725 204.806294 
L 333.060125 205.850324 
L 338.363525 206.703779 
L 343.666925 207.362589 
L 346.318625 207.629532 
M 346.318625 98.102655 
L 341.015225 97.793621 
L 333.060125 97.859821 
L 327.756725 98.004184 
L 319.801625 98.488314 
L 306.543125 99.661416 
L 301.239725 100.42788 
L 282.677825 103.465135 
L 274.722725 104.784972 
L 269.419325 105.451027 
L 264.115925 105.832207 
L 258.812525 105.896485 
L 253.509125 105.688424 
L 250.857425 105.466441 
L 245.554025 104.716192 
L 240.250625 103.799836 
L 234.947225 102.655838 
L 229.643825 101.239457 
L 224.340425 99.540644 
L 218.663293 97.374153 
L 213.733625 95.326481 
L 203.126825 90.561061 
L 197.997529 88.612267 
L 197.823425 88.551257 
L 195.171725 87.88575 
L 192.520025 87.558159 
L 189.868325 87.80454 
L 187.979341 88.612267 
L 187.216625 89.099247 
L 184.564925 91.956893 
L 181.913225 95.844105 
L 179.13872 100.294781 
L 176.609825 103.68616 
L 173.958125 105.837016 
L 173.392791 106.136038 
L 171.306425 107.093264 
L 168.654725 107.947456 
L 166.003025 108.519246 
L 163.351325 108.834034 
L 160.699625 108.954068 
L 158.047925 108.905199 
L 155.396225 108.655875 
L 152.744525 108.195608 
L 147.441125 106.843355 
L 131.530925 102.122603 
L 126.227525 100.925894 
L 120.924125 99.881863 
L 115.620725 99.028409 
L 110.317325 98.369599 
L 107.665625 98.102655 
L 107.665625 98.102655 
" clip-path="url(#p394940ffa1)" style="fill: none; stroke: #fbf100"/>
    <path d="M 107.665625 203.581402 
L 112.969025 203.67684 
L 123.575825 203.413163 
L 131.530925 202.923441 
L 139.486025 202.184393 
L 144.789425 201.596848 
L 152.744525 200.351643 
L 163.351325 198.641159 
L 179.261525 195.990994 
L 184.564925 195.527371 
L 189.868325 195.355026 
L 195.171725 195.518955 
L 200.475125 195.964328 
L 205.778525 196.770716 
L 213.733625 198.398822 
L 219.037025 199.785169 
L 224.340425 201.442271 
L 229.643825 203.371056 
L 237.598925 206.752884 
L 250.857425 212.747901 
L 253.509125 213.755982 
L 256.160825 214.542412 
L 258.812525 214.976251 
L 261.464225 214.87676 
L 263.291303 214.199292 
L 264.115925 213.745499 
L 266.767625 210.809596 
L 268.33188 208.358035 
L 272.071025 201.6438 
L 273.381037 199.596149 
L 274.722725 197.81822 
L 275.905935 196.675521 
L 277.374425 195.503309 
L 280.026125 194.200313 
L 282.677825 193.40929 
L 285.329525 192.880144 
L 287.981225 192.567634 
L 290.632925 192.491094 
L 293.284625 192.640396 
L 295.936325 192.979241 
L 299.64957 193.754892 
L 303.891425 194.88427 
L 319.801625 199.604811 
L 325.105025 200.730533 
L 333.060125 202.134999 
L 338.363525 202.893659 
L 343.666925 203.406556 
L 346.318625 203.581402 
M 346.318625 102.150786 
L 341.015225 102.055348 
L 330.408425 102.319024 
L 322.453325 102.808747 
L 314.498225 103.547795 
L 309.194825 104.135339 
L 301.239725 105.380545 
L 290.632925 107.091029 
L 274.722725 109.741194 
L 269.419325 110.204817 
L 264.115925 110.377161 
L 258.812525 110.213232 
L 253.509125 109.767859 
L 248.205725 108.961471 
L 240.250625 107.333366 
L 234.947225 105.947018 
L 229.643825 104.289917 
L 224.340425 102.361131 
L 216.385325 98.979304 
L 203.126825 92.984286 
L 200.475125 91.976205 
L 197.823425 91.189775 
L 195.171725 90.755937 
L 192.520025 90.855428 
L 190.692947 91.532896 
L 189.868325 91.986689 
L 187.216625 94.922591 
L 185.65237 97.374153 
L 181.913225 104.088388 
L 180.603213 106.136038 
L 179.261525 107.913967 
L 178.078315 109.056667 
L 176.609825 110.228878 
L 173.958125 111.531875 
L 171.306425 112.322898 
L 168.654725 112.852043 
L 166.003025 113.164554 
L 163.351325 113.241093 
L 160.699625 113.091791 
L 158.047925 112.752947 
L 154.33468 111.977295 
L 150.092825 110.847918 
L 134.182625 106.127376 
L 128.879225 105.001655 
L 120.924125 103.597189 
L 115.620725 102.838528 
L 110.317325 102.325631 
L 107.665625 102.150786 
L 107.665625 102.150786 
" clip-path="url(#p394940ffa1)" style="fill: none; stroke: #ffd000"/>
    <path d="M 107.665625 199.047598 
L 115.620725 198.88333 
L 123.575825 198.603634 
L 131.530925 197.948744 
L 136.834325 197.434486 
L 144.789425 196.392134 
L 152.744525 195.016852 
L 160.699625 193.72869 
L 173.958125 191.404736 
L 179.261525 190.780893 
L 184.564925 190.557131 
L 189.868325 190.632836 
L 195.171725 191.017892 
L 200.475125 191.747714 
L 205.778525 192.784926 
L 213.733625 194.778291 
L 219.037025 196.436311 
L 226.992125 199.427874 
L 237.598925 204.178952 
L 246.514746 208.358035 
L 250.857425 210.133108 
L 253.509125 211.030222 
L 256.160825 211.592162 
L 258.812525 211.655617 
L 260.191634 211.278663 
L 261.464225 210.766753 
L 264.115925 207.968212 
L 265.547732 205.437406 
L 269.77115 196.675521 
L 272.071025 193.349773 
L 275.008248 190.834264 
L 277.374425 189.556118 
L 280.026125 188.654477 
L 282.677825 188.1589 
L 285.378314 187.913635 
L 288.526729 187.913635 
L 290.632925 188.079639 
L 293.284625 188.552766 
L 298.588025 189.885728 
L 314.498225 194.537723 
L 319.801625 195.802431 
L 325.105025 196.84712 
L 333.060125 197.997184 
L 338.363525 198.644859 
L 343.666925 198.99271 
L 346.318625 199.047598 
M 346.318625 106.68459 
L 338.363525 106.848857 
L 330.408425 107.128554 
L 322.453325 107.783443 
L 317.149925 108.297702 
L 309.194825 109.340053 
L 301.239725 110.715336 
L 293.284625 112.003498 
L 280.026125 114.327451 
L 274.722725 114.951294 
L 269.419325 115.175056 
L 264.115925 115.099352 
L 258.812525 114.714296 
L 253.509125 113.984474 
L 248.205725 112.947262 
L 240.250625 110.953897 
L 234.947225 109.295876 
L 226.992125 106.304313 
L 216.385325 101.553236 
L 207.469504 97.374153 
L 203.126825 95.599079 
L 200.475125 94.701966 
L 197.823425 94.140026 
L 195.171725 94.076571 
L 193.792616 94.453524 
L 192.520025 94.965434 
L 189.868325 97.763976 
L 188.436518 100.294781 
L 184.2131 109.056667 
L 181.913225 112.382415 
L 178.976002 114.897924 
L 176.609825 116.17607 
L 173.958125 117.07771 
L 171.306425 117.573287 
L 168.605936 117.818552 
L 165.457521 117.818552 
L 163.351325 117.652549 
L 160.699625 117.179422 
L 155.396225 115.84646 
L 139.486025 111.194465 
L 134.182625 109.929756 
L 128.879225 108.885067 
L 120.924125 107.735003 
L 115.620725 107.087328 
L 110.317325 106.739478 
L 107.665625 106.68459 
L 107.665625 106.68459 
" clip-path="url(#p394940ffa1)" style="fill: none; stroke: #ffae00"/>
    <path d="M 107.665625 193.906842 
L 118.272425 193.519165 
L 123.575825 193.209767 
L 134.182625 192.149149 
L 142.137725 191.040993 
L 160.699625 187.763388 
L 166.003025 186.704666 
L 171.306425 185.931151 
L 176.609825 185.374542 
L 181.913225 185.239953 
L 187.216625 185.382102 
L 192.520025 185.838532 
L 197.823425 186.724087 
L 203.126825 187.924105 
L 208.430225 189.386189 
L 213.733625 191.08172 
L 219.037025 193.010044 
L 224.340425 195.214909 
L 232.295525 198.941099 
L 240.250625 202.798542 
L 246.029387 205.437406 
L 248.205725 206.304948 
L 250.857425 207.220148 
L 253.509125 207.885032 
L 256.160825 208.088218 
L 258.812525 207.418866 
L 261.464225 205.019837 
L 262.862798 202.516778 
L 264.15751 199.596149 
L 266.767625 192.832488 
L 267.823799 190.834264 
L 269.419325 188.411683 
L 269.917919 187.913635 
L 272.071025 186.121127 
L 274.722725 184.678414 
L 277.374425 183.617089 
L 280.026125 182.948574 
L 282.677825 182.715434 
L 285.329525 182.837565 
L 287.981225 183.193967 
L 290.632925 183.752788 
L 298.588025 186.045948 
L 309.194825 189.129665 
L 314.498225 190.436455 
L 319.801625 191.446391 
L 325.105025 192.394946 
L 330.408425 193.092837 
L 335.711825 193.623226 
L 341.015225 193.896686 
L 346.318625 193.906842 
M 346.318625 111.825346 
L 335.711825 112.213023 
L 330.408425 112.52242 
L 319.801625 113.583038 
L 311.846525 114.691194 
L 293.284625 117.968799 
L 287.981225 119.027521 
L 282.677825 119.801036 
L 277.374425 120.357645 
L 272.071025 120.492235 
L 266.767625 120.350086 
L 261.464225 119.893656 
L 256.160825 119.0081 
L 250.857425 117.808082 
L 245.554025 116.345998 
L 240.250625 114.650467 
L 234.947225 112.722144 
L 229.643825 110.517278 
L 221.688725 106.791089 
L 213.733625 102.933646 
L 207.954863 100.294781 
L 205.778525 99.42724 
L 203.126825 98.51204 
L 200.475125 97.847156 
L 197.823425 97.64397 
L 195.171725 98.313321 
L 192.520025 100.712351 
L 191.121452 103.21541 
L 189.82674 106.136038 
L 187.216625 112.899699 
L 186.160451 114.897924 
L 184.564925 117.320505 
L 184.066331 117.818552 
L 181.913225 119.61106 
L 179.261525 121.053774 
L 176.609825 122.115098 
L 173.958125 122.783614 
L 171.306425 123.016754 
L 168.654725 122.894622 
L 166.003025 122.53822 
L 163.351325 121.9794 
L 155.396225 119.686239 
L 144.789425 116.602523 
L 139.486025 115.295733 
L 134.182625 114.285797 
L 128.879225 113.337241 
L 123.575825 112.63935 
L 118.272425 112.108961 
L 112.969025 111.835502 
L 107.665625 111.825346 
L 107.665625 111.825346 
" clip-path="url(#p394940ffa1)" style="fill: none; stroke: #ff8d00"/>
    <path d="M 107.665625 187.978275 
L 115.620725 187.648489 
L 120.924125 187.171034 
L 131.530925 186.052471 
L 142.137725 184.427955 
L 166.003025 179.976949 
L 171.306425 179.389886 
L 176.609825 179.132902 
L 181.913225 179.251924 
L 187.216625 179.636467 
L 189.868325 180.004653 
L 195.171725 181.08365 
L 200.475125 182.500072 
L 205.778525 184.192647 
L 213.733625 187.220732 
L 221.688725 190.702369 
L 239.502579 199.596149 
L 242.902325 201.156159 
L 246.208103 202.516778 
L 248.205725 203.192504 
L 250.857425 203.849675 
L 253.509125 204.097783 
L 256.160825 203.592249 
L 257.80042 202.516778 
L 258.812525 201.574911 
L 260.073293 199.596149 
L 261.46914 196.675521 
L 263.346812 190.834264 
L 264.294076 187.913635 
L 265.679674 184.993007 
L 266.767625 183.220714 
L 267.84098 182.072378 
L 269.419325 180.570394 
L 272.071025 178.994706 
L 274.722725 177.965256 
L 277.374425 177.271613 
L 280.026125 176.94166 
L 282.677825 177.163393 
L 287.981225 178.418522 
L 301.239725 182.447841 
L 306.543125 183.790615 
L 314.498225 185.498335 
L 327.756725 187.520064 
L 330.408425 187.780309 
L 335.711825 187.953823 
L 343.666925 188.03672 
L 346.318625 187.978275 
M 346.318625 117.753912 
L 338.363525 118.083699 
L 333.060125 118.561154 
L 322.453325 119.679716 
L 311.846525 121.304233 
L 287.981225 125.755239 
L 282.677825 126.342301 
L 277.374425 126.599286 
L 272.071025 126.480264 
L 266.767625 126.09572 
L 264.115925 125.727535 
L 258.812525 124.648538 
L 253.509125 123.232115 
L 248.205725 121.53954 
L 240.250625 118.511455 
L 232.295525 115.029818 
L 214.481671 106.136038 
L 211.081925 104.576029 
L 207.776147 103.21541 
L 205.778525 102.539684 
L 203.126825 101.882513 
L 200.475125 101.634405 
L 197.823425 102.139939 
L 196.18383 103.21541 
L 195.171725 104.157277 
L 193.910957 106.136038 
L 192.51511 109.056667 
L 190.637438 114.897924 
L 189.690174 117.818552 
L 188.304576 120.739181 
L 187.216625 122.511474 
L 186.14327 123.659809 
L 184.564925 125.161794 
L 181.913225 126.737482 
L 179.261525 127.766931 
L 176.609825 128.460575 
L 173.958125 128.790527 
L 171.306425 128.568795 
L 166.003025 127.313665 
L 152.744525 123.284346 
L 147.441125 121.941572 
L 139.486025 120.233852 
L 126.227525 118.212124 
L 123.575825 117.951879 
L 118.272425 117.778365 
L 110.317325 117.695468 
L 107.665625 117.753912 
L 107.665625 117.753912 
" clip-path="url(#p394940ffa1)" style="fill: none; stroke: #ff6c00"/>
    <path d="M 107.665625 180.765364 
L 118.272425 179.967934 
L 128.879225 178.67301 
L 134.182625 177.818126 
L 142.464626 176.231122 
L 150.092825 174.619018 
L 160.699625 172.618961 
L 166.003025 172.056415 
L 171.306425 171.720578 
L 176.609825 171.745852 
L 179.261525 171.836967 
L 181.913225 172.058642 
L 184.564925 172.459828 
L 189.868325 173.695937 
L 195.171725 175.278274 
L 200.475125 177.171737 
L 205.778525 179.370743 
L 211.081925 181.777212 
L 213.733625 183.028303 
L 219.037025 185.710203 
L 240.250625 196.820679 
L 242.902325 197.913737 
L 245.554025 198.853949 
L 248.721174 199.596149 
L 250.857425 199.788323 
L 253.509125 199.317752 
L 256.160825 197.47819 
L 256.785079 196.675521 
L 258.443714 193.754892 
L 258.812525 192.861946 
L 259.47712 190.834264 
L 261.983681 182.072378 
L 263.276471 179.15175 
L 264.115925 177.608029 
L 266.767625 174.305571 
L 269.419325 172.05588 
L 272.071025 170.881599 
L 275.103275 170.389865 
L 277.374425 170.278914 
L 280.026125 170.630624 
L 285.329525 172.137541 
L 298.934265 176.231122 
L 303.891425 177.316038 
L 317.149925 179.606174 
L 322.453325 180.209247 
L 327.756725 180.63655 
L 333.060125 180.814949 
L 346.318625 180.765364 
M 346.318625 124.966823 
L 335.711825 125.764253 
L 325.105025 127.059178 
L 319.801625 127.914062 
L 311.519624 129.501066 
L 303.891425 131.11317 
L 293.284625 133.113227 
L 287.981225 133.675772 
L 282.677825 134.011609 
L 277.374425 133.986336 
L 274.722725 133.895221 
L 272.071025 133.673546 
L 269.419325 133.272359 
L 264.115925 132.036251 
L 258.812525 130.453913 
L 253.509125 128.56045 
L 248.205725 126.361445 
L 242.902325 123.954975 
L 240.250625 122.703884 
L 234.947225 120.021985 
L 213.733625 108.911509 
L 211.081925 107.81845 
L 208.430225 106.878239 
L 205.263076 106.136038 
L 203.126825 105.943865 
L 200.475125 106.414435 
L 197.823425 108.253997 
L 197.199171 109.056667 
L 195.540536 111.977295 
L 195.171725 112.870241 
L 194.50713 114.897924 
L 192.000569 123.659809 
L 190.707779 126.580438 
L 189.868325 128.124159 
L 187.216625 131.426616 
L 184.564925 133.676307 
L 181.913225 134.850588 
L 178.880975 135.342323 
L 176.609825 135.453274 
L 173.958125 135.101563 
L 168.654725 133.594646 
L 155.049985 129.501066 
L 150.092825 128.416149 
L 136.834325 126.126014 
L 131.530925 125.522941 
L 126.227525 125.095637 
L 120.924125 124.917238 
L 107.665625 124.966823 
L 107.665625 124.966823 
" clip-path="url(#p394940ffa1)" style="fill: none; stroke: #ff4e00"/>
    <path d="M 107.665625 170.606269 
L 112.969025 170.229555 
L 120.924125 169.395157 
L 126.227525 168.34201 
L 134.182625 166.618608 
L 150.092825 162.215593 
L 155.396225 161.52335 
L 160.699625 160.770497 
L 163.351325 160.572895 
L 173.958125 160.365413 
L 176.609825 160.784225 
L 181.913225 162.174309 
L 184.564925 163.044705 
L 192.520025 166.461872 
L 205.778525 173.677648 
L 213.733625 178.359929 
L 216.385325 179.977599 
L 221.688725 183.194461 
L 229.747774 187.913635 
L 235.094175 190.834264 
L 240.250625 193.155488 
L 242.902325 194.081425 
L 245.554025 194.646901 
L 248.205725 194.810929 
L 250.857425 194.326923 
L 251.897952 193.754892 
L 253.509125 192.524466 
L 254.697488 190.834264 
L 256.160825 187.79743 
L 256.941929 184.993007 
L 258.926887 176.231122 
L 259.904256 173.310493 
L 261.464225 169.742771 
L 264.71124 164.548608 
L 266.767625 162.113287 
L 269.419325 160.853518 
L 272.071025 160.659488 
L 274.722725 160.90029 
L 280.026125 161.911549 
L 282.677825 162.588345 
L 288.498047 164.548608 
L 293.284625 165.557975 
L 301.10778 167.469236 
L 311.846525 169.22335 
L 314.498225 169.58138 
L 325.105025 170.333394 
L 341.015225 170.821714 
L 343.666925 170.770184 
L 346.318625 170.606269 
M 346.318625 135.125918 
L 341.015225 135.502633 
L 333.060125 136.337031 
L 327.756725 137.390177 
L 319.801625 139.11358 
L 303.891425 143.516594 
L 298.588025 144.208837 
L 293.284625 144.961691 
L 290.632925 145.159292 
L 280.026125 145.366775 
L 277.374425 144.947963 
L 272.071025 143.557878 
L 269.419325 142.687483 
L 261.464225 139.270316 
L 248.205725 132.05454 
L 240.250625 127.372259 
L 237.598925 125.754588 
L 232.295525 122.537726 
L 224.236476 117.818552 
L 218.890075 114.897924 
L 213.733625 112.5767 
L 211.081925 111.650763 
L 208.430225 111.085287 
L 205.778525 110.921258 
L 203.126825 111.405264 
L 202.086298 111.977295 
L 200.475125 113.207722 
L 199.286762 114.897924 
L 197.823425 117.934757 
L 197.042321 120.739181 
L 195.057363 129.501066 
L 194.079994 132.421694 
L 192.520025 135.989416 
L 189.27301 141.18358 
L 187.216625 143.6189 
L 184.564925 144.87867 
L 181.913225 145.0727 
L 179.261525 144.831898 
L 173.958125 143.820639 
L 171.306425 143.143842 
L 165.486203 141.18358 
L 160.699625 140.174212 
L 152.87647 138.262951 
L 142.137725 136.508837 
L 139.486025 136.150807 
L 128.879225 135.398793 
L 112.969025 134.910474 
L 110.317325 134.962004 
L 107.665625 135.125918 
L 107.665625 135.125918 
" clip-path="url(#p394940ffa1)" style="fill: none; stroke: #ff2d00"/>
    <path d="M 240.250625 188.591261 
L 242.902325 189.074207 
L 245.554025 189.076522 
L 248.205725 188.377789 
L 248.947928 187.913635 
L 250.857425 186.218803 
L 251.632611 184.993007 
L 252.897936 182.072378 
L 253.509125 179.933357 
L 253.68376 179.15175 
L 254.17234 176.231122 
L 254.584541 173.310493 
L 255.035624 170.389865 
L 255.535024 167.469236 
L 256.016705 164.548608 
L 256.160825 163.494499 
L 256.475556 161.627979 
L 256.82781 158.707351 
L 256.911705 155.786722 
L 256.539908 152.866094 
L 256.160825 151.63323 
L 255.693211 149.945465 
L 254.340954 147.024837 
L 253.509125 145.853654 
L 252.41132 144.104208 
L 250.857425 142.342756 
L 249.912372 141.18358 
L 248.205725 139.549738 
L 246.919403 138.262951 
L 245.554025 137.130498 
L 243.470522 135.342323 
L 242.902325 134.924625 
L 240.250625 132.856421 
L 239.729094 132.421694 
L 237.598925 130.844197 
L 235.863266 129.501066 
L 234.947225 128.863985 
L 232.295525 127.016316 
L 231.661157 126.580438 
L 229.643825 125.318591 
L 227.064884 123.659809 
L 226.992125 123.616669 
L 224.340425 122.046951 
L 222.132502 120.739181 
L 221.688725 120.4932 
L 219.037025 119.163573 
L 216.385325 117.97512 
L 215.901283 117.818552 
L 213.733625 117.140927 
L 211.081925 116.657981 
L 208.430225 116.655665 
L 205.778525 117.354398 
L 205.036322 117.818552 
L 203.126825 119.513384 
L 202.351639 120.739181 
L 201.086314 123.659809 
L 200.475125 125.798831 
L 200.30049 126.580438 
L 199.81191 129.501066 
L 199.399709 132.421694 
L 198.948626 135.342323 
L 198.449226 138.262951 
L 197.967545 141.18358 
L 197.823425 142.237688 
L 197.508694 144.104208 
L 197.15644 147.024837 
L 197.072545 149.945465 
L 197.444342 152.866094 
L 197.823425 154.098958 
L 198.291039 155.786722 
L 199.643296 158.707351 
L 200.475125 159.878533 
L 201.57293 161.627979 
L 203.126825 163.389431 
L 204.071878 164.548608 
L 205.778525 166.18245 
L 207.064847 167.469236 
L 208.430225 168.601689 
L 210.513728 170.389865 
L 211.081925 170.807563 
L 213.733625 172.875766 
L 214.255156 173.310493 
L 216.385325 174.887991 
L 218.120984 176.231122 
L 219.037025 176.868202 
L 221.688725 178.715871 
L 222.323093 179.15175 
L 224.340425 180.413596 
L 226.919366 182.072378 
L 226.992125 182.115519 
L 229.643825 183.685237 
L 231.851748 184.993007 
L 232.295525 185.238988 
L 234.947225 186.568614 
L 237.598925 187.757067 
L 238.082967 187.913635 
L 240.250625 188.591261 
z
" clip-path="url(#p394940ffa1)" style="fill: none; stroke: #f60b00"/>
    <path d="M 237.598925 182.174027 
L 240.250625 182.449235 
L 242.902325 182.133526 
L 243.060778 182.072378 
L 245.554025 180.709996 
L 246.94911 179.15175 
L 248.205725 176.88826 
L 248.443757 176.231122 
L 249.101179 173.310493 
L 249.445199 170.389865 
L 249.603274 167.469236 
L 249.649132 164.548608 
L 249.58756 161.627979 
L 249.365308 158.707351 
L 248.910654 155.786722 
L 248.205725 153.06246 
L 248.154111 152.866094 
L 247.070572 149.945465 
L 245.580842 147.024837 
L 245.554025 146.983513 
L 243.704832 144.104208 
L 242.902325 143.099273 
L 241.396765 141.18358 
L 240.250625 139.958607 
L 238.682429 138.262951 
L 237.598925 137.241899 
L 235.601907 135.342323 
L 234.947225 134.787146 
L 232.295525 132.559528 
L 232.124469 132.421694 
L 229.643825 130.61637 
L 228.076963 129.501066 
L 226.992125 128.791228 
L 224.340425 127.097845 
L 223.453792 126.580438 
L 221.688725 125.612942 
L 219.037025 124.395922 
L 216.719548 123.659809 
L 216.385325 123.55816 
L 213.733625 123.282953 
L 211.081925 123.598661 
L 210.923472 123.659809 
L 208.430225 125.022191 
L 207.03514 126.580438 
L 205.778525 128.843928 
L 205.540493 129.501066 
L 204.883071 132.421694 
L 204.539051 135.342323 
L 204.380976 138.262951 
L 204.335118 141.18358 
L 204.39669 144.104208 
L 204.618942 147.024837 
L 205.073596 149.945465 
L 205.778525 152.669727 
L 205.830139 152.866094 
L 206.913678 155.786722 
L 208.403408 158.707351 
L 208.430225 158.748674 
L 210.279418 161.627979 
L 211.081925 162.632914 
L 212.587485 164.548608 
L 213.733625 165.773581 
L 215.301821 167.469236 
L 216.385325 168.490289 
L 218.382343 170.389865 
L 219.037025 170.945041 
L 221.688725 173.172659 
L 221.859781 173.310493 
L 224.340425 175.115817 
L 225.907287 176.231122 
L 226.992125 176.94096 
L 229.643825 178.634343 
L 230.530458 179.15175 
L 232.295525 180.119245 
L 234.947225 181.336266 
L 237.264702 182.072378 
L 237.598925 182.174027 
z
" clip-path="url(#p394940ffa1)" style="fill: none; stroke: #cd0000"/>
    <path d="M 234.947225 173.7927 
L 237.598925 173.698754 
L 238.514019 173.310493 
L 240.250625 172.146075 
L 241.498335 170.389865 
L 242.502118 167.469236 
L 242.781062 164.548608 
L 242.655728 161.627979 
L 242.251421 158.707351 
L 241.593537 155.786722 
L 240.662761 152.866094 
L 240.250625 151.897072 
L 239.371329 149.945465 
L 237.745737 147.024837 
L 237.598925 146.805785 
L 235.701513 144.104208 
L 234.947225 143.174418 
L 233.237456 141.18358 
L 232.295525 140.209259 
L 230.247084 138.262951 
L 229.643825 137.743524 
L 226.992125 135.698671 
L 226.455502 135.342323 
L 224.340425 134.037504 
L 221.688725 132.669046 
L 220.829443 132.421694 
L 219.037025 131.939487 
L 216.385325 132.033433 
L 215.470231 132.421694 
L 213.733625 133.586112 
L 212.485915 135.342323 
L 211.482132 138.262951 
L 211.203188 141.18358 
L 211.328522 144.104208 
L 211.732829 147.024837 
L 212.390713 149.945465 
L 213.321489 152.866094 
L 213.733625 153.835116 
L 214.612921 155.786722 
L 216.238513 158.707351 
L 216.385325 158.926403 
L 218.282737 161.627979 
L 219.037025 162.557769 
L 220.746794 164.548608 
L 221.688725 165.522928 
L 223.737166 167.469236 
L 224.340425 167.988664 
L 226.992125 170.033517 
L 227.528748 170.389865 
L 229.643825 171.694684 
L 232.295525 173.063142 
L 233.154807 173.310493 
L 234.947225 173.7927 
z
" clip-path="url(#p394940ffa1)" style="fill: none; stroke: #a40000"/>
    <path clip-path="url(#p394940ffa1)" style="fill: none; stroke: #800000"/>
   </g>
   <g id="patch_3">
    <path d="M 107.665625 284.294375 
L 107.665625 21.437813 
" style="fill: none; stroke: #000000; stroke-width: 0.8; stroke-linejoin: miter; stroke-linecap: square"/>
   </g>
   <g id="patch_4">
    <path d="M 107.665625 284.294375 
L 346.318625 284.294375 
" style="fill: none; stroke: #000000; stroke-width: 0.8; stroke-linejoin: miter; stroke-linecap: square"/>
   </g>
  </g>
  <g id="axes_2">
   <g id="patch_5">
    <path d="M 361.234437 284.294375 
L 374.377266 284.294375 
L 374.377266 21.437813 
L 361.234437 21.437813 
z
" style="fill: #ffffff"/>
   </g>
   <g id="matplotlib.axis_3"/>
   <g id="matplotlib.axis_4">
    <g id="ytick_6">
     <g id="line2d_11">
      <defs>
       <path id="m3969bbc2bf" d="M 0 0 
L 3.5 0 
" style="stroke: #000000; stroke-width: 0.8"/>
      </defs>
      <g>
       <use xlink:href="#m3969bbc2bf" x="374.377266" y="265.984174" style="stroke: #000000; stroke-width: 0.8"/>
      </g>
     </g>
     <g id="text_13">
      <!-- 0.36 -->
      <g transform="translate(381.377266 272.822767) scale(0.18 -0.18)">
       <defs>
        <path id="DejaVuSerif-2e" d="M 603 325 
Q 603 500 722 622 
Q 841 744 1019 744 
Q 1191 744 1312 622 
Q 1434 500 1434 325 
Q 1434 153 1312 31 
Q 1191 -91 1019 -91 
Q 841 -91 722 29 
Q 603 150 603 325 
z
" transform="scale(0.015625)"/>
        <path id="DejaVuSerif-33" d="M 622 4469 
Q 988 4606 1323 4678 
Q 1659 4750 1953 4750 
Q 2638 4750 3022 4454 
Q 3406 4159 3406 3634 
Q 3406 3213 3140 2930 
Q 2875 2647 2388 2547 
Q 2963 2466 3280 2130 
Q 3597 1794 3597 1259 
Q 3597 606 3158 257 
Q 2719 -91 1894 -91 
Q 1528 -91 1179 -12 
Q 831 66 488 225 
L 488 1131 
L 838 1131 
Q 869 681 1141 450 
Q 1413 219 1906 219 
Q 2384 219 2661 495 
Q 2938 772 2938 1253 
Q 2938 1803 2653 2086 
Q 2369 2369 1819 2369 
L 1522 2369 
L 1522 2688 
L 1678 2688 
Q 2225 2688 2498 2914 
Q 2772 3141 2772 3597 
Q 2772 4006 2547 4223 
Q 2322 4441 1900 4441 
Q 1478 4441 1245 4241 
Q 1013 4041 972 3647 
L 622 3647 
L 622 4469 
z
" transform="scale(0.015625)"/>
        <path id="DejaVuSerif-36" d="M 2094 219 
Q 2534 219 2771 542 
Q 3009 866 3009 1472 
Q 3009 2078 2771 2401 
Q 2534 2725 2094 2725 
Q 1647 2725 1412 2412 
Q 1178 2100 1178 1509 
Q 1178 888 1415 553 
Q 1653 219 2094 219 
z
M 1075 2569 
Q 1288 2803 1556 2918 
Q 1825 3034 2163 3034 
Q 2859 3034 3264 2615 
Q 3669 2197 3669 1472 
Q 3669 763 3233 336 
Q 2797 -91 2069 -91 
Q 1278 -91 853 498 
Q 428 1088 428 2181 
Q 428 3406 931 4078 
Q 1434 4750 2350 4750 
Q 2597 4750 2869 4703 
Q 3141 4656 3425 4563 
L 3425 3794 
L 3072 3794 
Q 3034 4109 2831 4275 
Q 2628 4441 2284 4441 
Q 1678 4441 1381 3981 
Q 1084 3522 1075 2569 
z
" transform="scale(0.015625)"/>
       </defs>
       <use xlink:href="#DejaVuSerif-30"/>
       <use xlink:href="#DejaVuSerif-2e" x="63.623047"/>
       <use xlink:href="#DejaVuSerif-33" x="95.410156"/>
       <use xlink:href="#DejaVuSerif-36" x="159.033203"/>
      </g>
     </g>
    </g>
    <g id="ytick_7">
     <g id="line2d_12">
      <g>
       <use xlink:href="#m3969bbc2bf" x="374.377266" y="223.963954" style="stroke: #000000; stroke-width: 0.8"/>
      </g>
     </g>
     <g id="text_14">
      <!-- 0.38 -->
      <g transform="translate(381.377266 230.802548) scale(0.18 -0.18)">
       <defs>
        <path id="DejaVuSerif-38" d="M 2981 1275 
Q 2981 1775 2732 2051 
Q 2484 2328 2034 2328 
Q 1584 2328 1336 2051 
Q 1088 1775 1088 1275 
Q 1088 772 1336 495 
Q 1584 219 2034 219 
Q 2484 219 2732 495 
Q 2981 772 2981 1275 
z
M 2853 3541 
Q 2853 3966 2637 4203 
Q 2422 4441 2034 4441 
Q 1650 4441 1433 4203 
Q 1216 3966 1216 3541 
Q 1216 3113 1433 2875 
Q 1650 2638 2034 2638 
Q 2422 2638 2637 2875 
Q 2853 3113 2853 3541 
z
M 2516 2484 
Q 3047 2413 3344 2092 
Q 3641 1772 3641 1275 
Q 3641 619 3225 264 
Q 2809 -91 2034 -91 
Q 1263 -91 845 264 
Q 428 619 428 1275 
Q 428 1772 725 2092 
Q 1022 2413 1556 2484 
Q 1084 2569 832 2842 
Q 581 3116 581 3541 
Q 581 4103 968 4426 
Q 1356 4750 2034 4750 
Q 2713 4750 3100 4426 
Q 3488 4103 3488 3541 
Q 3488 3116 3236 2842 
Q 2984 2569 2516 2484 
z
" transform="scale(0.015625)"/>
       </defs>
       <use xlink:href="#DejaVuSerif-30"/>
       <use xlink:href="#DejaVuSerif-2e" x="63.623047"/>
       <use xlink:href="#DejaVuSerif-33" x="95.410156"/>
       <use xlink:href="#DejaVuSerif-38" x="159.033203"/>
      </g>
     </g>
    </g>
    <g id="ytick_8">
     <g id="line2d_13">
      <g>
       <use xlink:href="#m3969bbc2bf" x="374.377266" y="181.943735" style="stroke: #000000; stroke-width: 0.8"/>
      </g>
     </g>
     <g id="text_15">
      <!-- 0.40 -->
      <g transform="translate(381.377266 188.782329) scale(0.18 -0.18)">
       <defs>
        <path id="DejaVuSerif-34" d="M 2234 1581 
L 2234 4063 
L 641 1581 
L 2234 1581 
z
M 3609 0 
L 1484 0 
L 1484 331 
L 2234 331 
L 2234 1247 
L 197 1247 
L 197 1588 
L 2241 4750 
L 2859 4750 
L 2859 1581 
L 3750 1581 
L 3750 1247 
L 2859 1247 
L 2859 331 
L 3609 331 
L 3609 0 
z
" transform="scale(0.015625)"/>
       </defs>
       <use xlink:href="#DejaVuSerif-30"/>
       <use xlink:href="#DejaVuSerif-2e" x="63.623047"/>
       <use xlink:href="#DejaVuSerif-34" x="95.410156"/>
       <use xlink:href="#DejaVuSerif-30" x="159.033203"/>
      </g>
     </g>
    </g>
    <g id="ytick_9">
     <g id="line2d_14">
      <g>
       <use xlink:href="#m3969bbc2bf" x="374.377266" y="139.923516" style="stroke: #000000; stroke-width: 0.8"/>
      </g>
     </g>
     <g id="text_16">
      <!-- 0.42 -->
      <g transform="translate(381.377266 146.762109) scale(0.18 -0.18)">
       <defs>
        <path id="DejaVuSerif-32" d="M 819 3553 
L 469 3553 
L 469 4384 
Q 803 4563 1142 4656 
Q 1481 4750 1806 4750 
Q 2534 4750 2956 4397 
Q 3378 4044 3378 3438 
Q 3378 2753 2422 1800 
Q 2347 1728 2309 1691 
L 1131 513 
L 3078 513 
L 3078 1088 
L 3444 1088 
L 3444 0 
L 434 0 
L 434 341 
L 1850 1753 
Q 2319 2222 2519 2614 
Q 2719 3006 2719 3438 
Q 2719 3909 2473 4175 
Q 2228 4441 1797 4441 
Q 1350 4441 1106 4219 
Q 863 3997 819 3553 
z
" transform="scale(0.015625)"/>
       </defs>
       <use xlink:href="#DejaVuSerif-30"/>
       <use xlink:href="#DejaVuSerif-2e" x="63.623047"/>
       <use xlink:href="#DejaVuSerif-34" x="95.410156"/>
       <use xlink:href="#DejaVuSerif-32" x="159.033203"/>
      </g>
     </g>
    </g>
    <g id="ytick_10">
     <g id="line2d_15">
      <g>
       <use xlink:href="#m3969bbc2bf" x="374.377266" y="97.903296" style="stroke: #000000; stroke-width: 0.8"/>
      </g>
     </g>
     <g id="text_17">
      <!-- 0.44 -->
      <g transform="translate(381.377266 104.74189) scale(0.18 -0.18)">
       <use xlink:href="#DejaVuSerif-30"/>
       <use xlink:href="#DejaVuSerif-2e" x="63.623047"/>
       <use xlink:href="#DejaVuSerif-34" x="95.410156"/>
       <use xlink:href="#DejaVuSerif-34" x="159.033203"/>
      </g>
     </g>
    </g>
    <g id="ytick_11">
     <g id="line2d_16">
      <g>
       <use xlink:href="#m3969bbc2bf" x="374.377266" y="55.883077" style="stroke: #000000; stroke-width: 0.8"/>
      </g>
     </g>
     <g id="text_18">
      <!-- 0.46 -->
      <g transform="translate(381.377266 62.721671) scale(0.18 -0.18)">
       <use xlink:href="#DejaVuSerif-30"/>
       <use xlink:href="#DejaVuSerif-2e" x="63.623047"/>
       <use xlink:href="#DejaVuSerif-34" x="95.410156"/>
       <use xlink:href="#DejaVuSerif-36" x="159.033203"/>
      </g>
     </g>
    </g>
   </g>
   <g id="LineCollection_1"/>
   <g id="LineCollection_2">
    <path d="M 361.234437 284.294375 
L 374.377266 284.294375 
" clip-path="url(#pf6cd0fa591)" style="fill: none; stroke: #000080"/>
    <path d="M 361.234437 275.230356 
L 374.377266 275.230356 
" clip-path="url(#pf6cd0fa591)" style="fill: none; stroke: #0000a4"/>
    <path d="M 361.234437 266.166336 
L 374.377266 266.166336 
" clip-path="url(#pf6cd0fa591)" style="fill: none; stroke: #0000cd"/>
    <path d="M 361.234437 257.102317 
L 374.377266 257.102317 
" clip-path="url(#pf6cd0fa591)" style="fill: none; stroke: #0000f6"/>
    <path d="M 361.234437 248.038297 
L 374.377266 248.038297 
" clip-path="url(#pf6cd0fa591)" style="fill: none; stroke: #000cff"/>
    <path d="M 361.234437 238.974278 
L 374.377266 238.974278 
" clip-path="url(#pf6cd0fa591)" style="fill: none; stroke: #0030ff"/>
    <path d="M 361.234437 229.910259 
L 374.377266 229.910259 
" clip-path="url(#pf6cd0fa591)" style="fill: none; stroke: #0050ff"/>
    <path d="M 361.234437 220.846239 
L 374.377266 220.846239 
" clip-path="url(#pf6cd0fa591)" style="fill: none; stroke: #0074ff"/>
    <path d="M 361.234437 211.78222 
L 374.377266 211.78222 
" clip-path="url(#pf6cd0fa591)" style="fill: none; stroke: #0098ff"/>
    <path d="M 361.234437 202.7182 
L 374.377266 202.7182 
" clip-path="url(#pf6cd0fa591)" style="fill: none; stroke: #00bcff"/>
    <path d="M 361.234437 193.654181 
L 374.377266 193.654181 
" clip-path="url(#pf6cd0fa591)" style="fill: none; stroke: #00e0fb"/>
    <path d="M 361.234437 184.590162 
L 374.377266 184.590162 
" clip-path="url(#pf6cd0fa591)" style="fill: none; stroke: #19ffde"/>
    <path d="M 361.234437 175.526142 
L 374.377266 175.526142 
" clip-path="url(#pf6cd0fa591)" style="fill: none; stroke: #33ffc4"/>
    <path d="M 361.234437 166.462123 
L 374.377266 166.462123 
" clip-path="url(#pf6cd0fa591)" style="fill: none; stroke: #50ffa7"/>
    <path d="M 361.234437 157.398103 
L 374.377266 157.398103 
" clip-path="url(#pf6cd0fa591)" style="fill: none; stroke: #6dff8a"/>
    <path d="M 361.234437 148.334084 
L 374.377266 148.334084 
" clip-path="url(#pf6cd0fa591)" style="fill: none; stroke: #8aff6d"/>
    <path d="M 361.234437 139.270065 
L 374.377266 139.270065 
" clip-path="url(#pf6cd0fa591)" style="fill: none; stroke: #a7ff50"/>
    <path d="M 361.234437 130.206045 
L 374.377266 130.206045 
" clip-path="url(#pf6cd0fa591)" style="fill: none; stroke: #c4ff33"/>
    <path d="M 361.234437 121.142026 
L 374.377266 121.142026 
" clip-path="url(#pf6cd0fa591)" style="fill: none; stroke: #deff19"/>
    <path d="M 361.234437 112.078006 
L 374.377266 112.078006 
" clip-path="url(#pf6cd0fa591)" style="fill: none; stroke: #fbf100"/>
    <path d="M 361.234437 103.013987 
L 374.377266 103.013987 
" clip-path="url(#pf6cd0fa591)" style="fill: none; stroke: #ffd000"/>
    <path d="M 361.234437 93.949968 
L 374.377266 93.949968 
" clip-path="url(#pf6cd0fa591)" style="fill: none; stroke: #ffae00"/>
    <path d="M 361.234437 84.885948 
L 374.377266 84.885948 
" clip-path="url(#pf6cd0fa591)" style="fill: none; stroke: #ff8d00"/>
    <path d="M 361.234437 75.821929 
L 374.377266 75.821929 
" clip-path="url(#pf6cd0fa591)" style="fill: none; stroke: #ff6c00"/>
    <path d="M 361.234437 66.757909 
L 374.377266 66.757909 
" clip-path="url(#pf6cd0fa591)" style="fill: none; stroke: #ff4e00"/>
    <path d="M 361.234437 57.69389 
L 374.377266 57.69389 
" clip-path="url(#pf6cd0fa591)" style="fill: none; stroke: #ff2d00"/>
    <path d="M 361.234437 48.629871 
L 374.377266 48.629871 
" clip-path="url(#pf6cd0fa591)" style="fill: none; stroke: #f60b00"/>
    <path d="M 361.234437 39.565851 
L 374.377266 39.565851 
" clip-path="url(#pf6cd0fa591)" style="fill: none; stroke: #cd0000"/>
    <path d="M 361.234437 30.501832 
L 374.377266 30.501832 
" clip-path="url(#pf6cd0fa591)" style="fill: none; stroke: #a40000"/>
    <path d="M 361.234437 21.437813 
L 374.377266 21.437813 
" clip-path="url(#pf6cd0fa591)" style="fill: none; stroke: #800000"/>
   </g>
   <g id="patch_6">
    <path d="M 361.234437 284.294375 
L 367.805852 284.294375 
L 374.377266 284.294375 
L 374.377266 21.437813 
L 367.805852 21.437813 
L 361.234437 21.437813 
L 361.234437 284.294375 
z
" style="fill: none; stroke: #000000; stroke-width: 0.8; stroke-linejoin: miter; stroke-linecap: square"/>
   </g>
  </g>
 </g>
 <defs>
  <clipPath id="p394940ffa1">
   <rect x="107.665625" y="21.437813" width="238.653" height="262.856562"/>
  </clipPath>
  <clipPath id="pf6cd0fa591">
   <path d="M 361.234437 285.242631 
L 374.377266 285.242631 
L 374.377266 20.489557 
L 361.234437 20.489557 
z
"/>
  </clipPath>
 </defs>
</svg>
