<?xml version="1.0" encoding="utf-8" standalone="no"?>
<!DOCTYPE svg PUBLIC "-//W3C//DTD SVG 1.1//EN"
  "http://www.w3.org/Graphics/SVG/1.1/DTD/svg11.dtd">
<svg xmlns:xlink="http://www.w3.org/1999/xlink" width="432pt" height="360pt" viewBox="0 0 432 360" xmlns="http://www.w3.org/2000/svg" version="1.1">
 <metadata>
  <rdf:RDF xmlns:dc="http://purl.org/dc/elements/1.1/" xmlns:cc="http://creativecommons.org/ns#" xmlns:rdf="http://www.w3.org/1999/02/22-rdf-syntax-ns#">
   <cc:Work>
    <dc:type rdf:resource="http://purl.org/dc/dcmitype/StillImage"/>
    <dc:date>2025-05-05T00:31:14.147330</dc:date>
    <dc:format>image/svg+xml</dc:format>
    <dc:creator>
     <cc:Agent>
      <dc:title>Matplotlib v3.9.2, https://matplotlib.org/</dc:title>
     </cc:Agent>
    </dc:creator>
   </cc:Work>
  </rdf:RDF>
 </metadata>
 <defs>
  <style type="text/css">*{stroke-linejoin: round; stroke-linecap: butt}</style>
 </defs>
 <g id="figure_1">
  <g id="patch_1">
   <path d="M 0 360 
L 432 360 
L 432 0 
L 0 0 
z
" style="fill: #ffffff"/>
  </g>
  <g id="axes_1">
   <g id="patch_2">
    <path d="M 107.665625 284.294375 
L 346.318625 284.294375 
L 346.318625 21.437813 
L 107.665625 21.437813 
z
" style="fill: #ffffff"/>
   </g>
   <g id="matplotlib.axis_1">
    <g id="xtick_1">
     <g id="line2d_1">
      <defs>
       <path id="m8cfe546825" d="M 0 0 
L 0 3.5 
" style="stroke: #000000; stroke-width: 0.8"/>
      </defs>
      <g>
       <use xlink:href="#m8cfe546825" x="107.665625" y="284.294375" style="stroke: #000000; stroke-width: 0.8"/>
      </g>
     </g>
     <g id="text_1">
      <!-- 0 -->
      <g transform="translate(98.758125 312.57) scale(0.28 -0.28)">
       <defs>
        <path id="DejaVuSerif-30" d="M 2034 219 
Q 2513 219 2750 744 
Q 2988 1269 2988 2328 
Q 2988 3391 2750 3916 
Q 2513 4441 2034 4441 
Q 1556 4441 1318 3916 
Q 1081 3391 1081 2328 
Q 1081 1269 1318 744 
Q 1556 219 2034 219 
z
M 2034 -91 
Q 1275 -91 848 546 
Q 422 1184 422 2328 
Q 422 3475 848 4112 
Q 1275 4750 2034 4750 
Q 2797 4750 3222 4112 
Q 3647 3475 3647 2328 
Q 3647 1184 3222 546 
Q 2797 -91 2034 -91 
z
" transform="scale(0.015625)"/>
       </defs>
       <use xlink:href="#DejaVuSerif-30"/>
      </g>
     </g>
    </g>
    <g id="xtick_2">
     <g id="line2d_2">
      <g>
       <use xlink:href="#m8cfe546825" x="167.328875" y="284.294375" style="stroke: #000000; stroke-width: 0.8"/>
      </g>
     </g>
     <g id="text_2">
      <!-- $\pi/2$ -->
      <g transform="translate(145.348875 312.294375) scale(0.28 -0.28)">
       <defs>
        <path id="Cmmi10-bc" d="M 647 109 
Q 647 144 672 213 
Q 850 584 1004 942 
Q 1159 1300 1282 1639 
Q 1406 1978 1509 2363 
L 1100 2363 
Q 866 2363 662 2216 
Q 459 2069 325 1844 
Q 313 1819 288 1819 
L 213 1819 
Q 153 1819 153 1881 
Q 153 1894 166 1919 
Q 375 2275 614 2517 
Q 853 2759 1153 2759 
L 3475 2759 
Q 3541 2759 3587 2715 
Q 3634 2672 3634 2597 
Q 3634 2503 3567 2433 
Q 3500 2363 3406 2363 
L 2591 2363 
Q 2488 1859 2478 1381 
Q 2478 766 2694 269 
Q 2713 231 2713 191 
Q 2713 122 2672 62 
Q 2631 3 2567 -34 
Q 2503 -72 2431 -72 
Q 2263 -72 2200 203 
Q 2138 478 2138 738 
Q 2138 1103 2200 1442 
Q 2263 1781 2400 2363 
L 1703 2363 
Q 1197 313 1094 103 
Q 1003 -72 844 -72 
Q 766 -72 706 -20 
Q 647 31 647 109 
z
" transform="scale(0.015625)"/>
        <path id="Cmmi10-3d" d="M 359 -1472 
Q 359 -1453 366 -1447 
L 2591 4722 
Q 2603 4759 2634 4779 
Q 2666 4800 2706 4800 
Q 2763 4800 2798 4765 
Q 2834 4731 2834 4672 
L 2834 4647 
L 609 -1522 
Q 572 -1600 488 -1600 
Q 434 -1600 396 -1562 
Q 359 -1525 359 -1472 
z
" transform="scale(0.015625)"/>
        <path id="Cmr10-32" d="M 319 0 
L 319 172 
Q 319 188 331 206 
L 1325 1306 
Q 1550 1550 1690 1715 
Q 1831 1881 1968 2097 
Q 2106 2313 2186 2536 
Q 2266 2759 2266 3009 
Q 2266 3272 2169 3511 
Q 2072 3750 1880 3894 
Q 1688 4038 1416 4038 
Q 1138 4038 916 3870 
Q 694 3703 603 3438 
Q 628 3444 672 3444 
Q 816 3444 917 3347 
Q 1019 3250 1019 3097 
Q 1019 2950 917 2848 
Q 816 2747 672 2747 
Q 522 2747 420 2851 
Q 319 2956 319 3097 
Q 319 3338 409 3548 
Q 500 3759 670 3923 
Q 841 4088 1055 4175 
Q 1269 4263 1509 4263 
Q 1875 4263 2190 4108 
Q 2506 3953 2690 3670 
Q 2875 3388 2875 3009 
Q 2875 2731 2753 2481 
Q 2631 2231 2440 2026 
Q 2250 1822 1953 1562 
Q 1656 1303 1563 1216 
L 838 519 
L 1453 519 
Q 1906 519 2211 526 
Q 2516 534 2534 550 
Q 2609 631 2688 1141 
L 2875 1141 
L 2694 0 
L 319 0 
z
" transform="scale(0.015625)"/>
       </defs>
       <use xlink:href="#Cmmi10-bc"/>
       <use xlink:href="#Cmmi10-3d" transform="translate(56.982422 0)"/>
       <use xlink:href="#Cmr10-32" transform="translate(106.982422 0)"/>
      </g>
     </g>
    </g>
    <g id="xtick_3">
     <g id="line2d_3">
      <g>
       <use xlink:href="#m8cfe546825" x="226.992125" y="284.294375" style="stroke: #000000; stroke-width: 0.8"/>
      </g>
     </g>
     <g id="text_3">
      <!-- $\pi$ -->
      <g transform="translate(219.012125 312.57) scale(0.28 -0.28)">
       <use xlink:href="#Cmmi10-bc" transform="translate(0 0.890625)"/>
      </g>
     </g>
    </g>
    <g id="xtick_4">
     <g id="line2d_4">
      <g>
       <use xlink:href="#m8cfe546825" x="286.655375" y="284.294375" style="stroke: #000000; stroke-width: 0.8"/>
      </g>
     </g>
     <g id="text_4">
      <!-- $3\pi/2$ -->
      <g transform="translate(257.675375 312.294375) scale(0.28 -0.28)">
       <defs>
        <path id="Cmr10-33" d="M 609 494 
Q 759 275 1012 169 
Q 1266 63 1556 63 
Q 1928 63 2084 380 
Q 2241 697 2241 1100 
Q 2241 1281 2208 1462 
Q 2175 1644 2097 1800 
Q 2019 1956 1883 2050 
Q 1747 2144 1550 2144 
L 1125 2144 
Q 1069 2144 1069 2203 
L 1069 2259 
Q 1069 2309 1125 2309 
L 1478 2338 
Q 1703 2338 1851 2506 
Q 2000 2675 2069 2917 
Q 2138 3159 2138 3378 
Q 2138 3684 1994 3881 
Q 1850 4078 1556 4078 
Q 1313 4078 1091 3986 
Q 869 3894 738 3706 
Q 750 3709 759 3711 
Q 769 3713 781 3713 
Q 925 3713 1022 3613 
Q 1119 3513 1119 3372 
Q 1119 3234 1022 3134 
Q 925 3034 781 3034 
Q 641 3034 541 3134 
Q 441 3234 441 3372 
Q 441 3647 606 3850 
Q 772 4053 1033 4158 
Q 1294 4263 1556 4263 
Q 1750 4263 1965 4205 
Q 2181 4147 2356 4039 
Q 2531 3931 2642 3762 
Q 2753 3594 2753 3378 
Q 2753 3109 2633 2881 
Q 2513 2653 2303 2487 
Q 2094 2322 1844 2241 
Q 2122 2188 2372 2031 
Q 2622 1875 2773 1631 
Q 2925 1388 2925 1106 
Q 2925 753 2731 467 
Q 2538 181 2222 20 
Q 1906 -141 1556 -141 
Q 1256 -141 954 -26 
Q 653 88 461 316 
Q 269 544 269 863 
Q 269 1022 375 1128 
Q 481 1234 641 1234 
Q 744 1234 830 1186 
Q 916 1138 964 1050 
Q 1013 963 1013 863 
Q 1013 706 903 600 
Q 794 494 641 494 
L 609 494 
z
" transform="scale(0.015625)"/>
       </defs>
       <use xlink:href="#Cmr10-33"/>
       <use xlink:href="#Cmmi10-bc" transform="translate(50 0)"/>
       <use xlink:href="#Cmmi10-3d" transform="translate(106.982422 0)"/>
       <use xlink:href="#Cmr10-32" transform="translate(156.982422 0)"/>
      </g>
     </g>
    </g>
    <g id="xtick_5">
     <g id="line2d_5">
      <g>
       <use xlink:href="#m8cfe546825" x="346.318625" y="284.294375" style="stroke: #000000; stroke-width: 0.8"/>
      </g>
     </g>
     <g id="text_5">
      <!-- $2\pi$ -->
      <g transform="translate(331.338625 312.57) scale(0.28 -0.28)">
       <use xlink:href="#Cmr10-32" transform="translate(0 0.390625)"/>
       <use xlink:href="#Cmmi10-bc" transform="translate(50 0.390625)"/>
      </g>
     </g>
    </g>
    <g id="text_6">
     <!-- $\zeta_{\mathrm{Boozer}}$ -->
     <g transform="translate(182.792125 342.06) scale(0.34 -0.34)">
      <defs>
       <path id="Cmmi10-b3" d="M 1131 -997 
Q 1147 -922 1222 -922 
Q 1234 -922 1332 -986 
Q 1431 -1050 1542 -1098 
Q 1653 -1147 1784 -1147 
Q 1922 -1147 2014 -1019 
Q 2106 -891 2106 -744 
Q 2106 -597 2009 -494 
Q 1913 -391 1766 -341 
L 1113 -122 
Q 713 16 503 317 
Q 294 619 294 1050 
Q 294 1416 426 1831 
Q 559 2247 793 2637 
Q 1028 3028 1334 3339 
Q 1641 3650 1972 3822 
Q 1906 3953 1906 4128 
Q 1906 4475 2041 4475 
Q 2075 4475 2100 4450 
Q 2125 4425 2125 4391 
Q 2125 4344 2109 4245 
Q 2094 4147 2094 4122 
Q 2094 4006 2131 3897 
Q 2297 3963 2438 3963 
Q 3028 3963 3028 3781 
Q 3028 3566 2375 3566 
Q 2181 3566 2069 3681 
Q 1794 3525 1539 3244 
Q 1284 2963 1087 2613 
Q 891 2263 781 1906 
Q 672 1550 672 1228 
Q 672 538 1300 319 
L 1984 91 
Q 2200 25 2336 -139 
Q 2472 -303 2472 -531 
Q 2472 -716 2378 -898 
Q 2284 -1081 2125 -1197 
Q 1966 -1313 1772 -1313 
Q 1619 -1313 1375 -1211 
Q 1131 -1109 1131 -997 
z
M 2247 3763 
Q 2241 3763 2303 3738 
Q 2331 3738 2348 3736 
Q 2366 3734 2388 3731 
Q 2694 3731 2828 3769 
Q 2706 3794 2438 3794 
Q 2350 3794 2247 3763 
z
" transform="scale(0.015625)"/>
       <path id="Cmr10-42" d="M 219 0 
L 219 225 
Q 878 225 878 428 
L 878 3944 
Q 878 4147 219 4147 
L 219 4372 
L 2572 4372 
Q 2897 4372 3228 4245 
Q 3559 4119 3776 3870 
Q 3994 3622 3994 3284 
Q 3994 2894 3673 2630 
Q 3353 2366 2925 2284 
Q 3203 2284 3497 2131 
Q 3791 1978 3978 1722 
Q 4166 1466 4166 1178 
Q 4166 828 3958 559 
Q 3750 291 3419 145 
Q 3088 0 2753 0 
L 219 0 
z
M 1434 428 
Q 1434 291 1512 258 
Q 1591 225 1759 225 
L 2572 225 
Q 2822 225 3036 356 
Q 3250 488 3375 708 
Q 3500 928 3500 1178 
Q 3500 1422 3397 1655 
Q 3294 1888 3101 2038 
Q 2909 2188 2663 2188 
L 1434 2188 
L 1434 428 
z
M 1434 2356 
L 2394 2356 
Q 2588 2356 2758 2426 
Q 2928 2497 3064 2630 
Q 3200 2763 3273 2930 
Q 3347 3097 3347 3284 
Q 3347 3450 3292 3603 
Q 3238 3756 3131 3881 
Q 3025 4006 2881 4076 
Q 2738 4147 2572 4147 
L 1759 4147 
Q 1644 4147 1580 4137 
Q 1516 4128 1475 4083 
Q 1434 4038 1434 3944 
L 1434 2356 
z
" transform="scale(0.015625)"/>
       <path id="Cmr10-6f" d="M 1600 -72 
Q 1216 -72 887 123 
Q 559 319 368 647 
Q 178 975 178 1363 
Q 178 1656 283 1928 
Q 388 2200 583 2414 
Q 778 2628 1037 2748 
Q 1297 2869 1600 2869 
Q 1994 2869 2317 2661 
Q 2641 2453 2828 2104 
Q 3016 1756 3016 1363 
Q 3016 978 2825 648 
Q 2634 319 2307 123 
Q 1981 -72 1600 -72 
z
M 1600 116 
Q 2113 116 2284 487 
Q 2456 859 2456 1434 
Q 2456 1756 2422 1967 
Q 2388 2178 2272 2350 
Q 2200 2456 2089 2536 
Q 1978 2616 1854 2658 
Q 1731 2700 1600 2700 
Q 1400 2700 1220 2609 
Q 1041 2519 922 2350 
Q 803 2169 770 1951 
Q 738 1734 738 1434 
Q 738 1075 800 789 
Q 863 503 1052 309 
Q 1241 116 1600 116 
z
" transform="scale(0.015625)"/>
       <path id="Cmr10-7a" d="M 250 0 
Q 178 0 178 72 
L 178 122 
Q 178 147 197 166 
L 1984 2591 
L 1409 2591 
Q 1138 2591 961 2556 
Q 784 2522 670 2426 
Q 556 2331 504 2164 
Q 453 1997 453 1703 
L 269 1703 
L 341 2759 
L 2484 2759 
Q 2513 2759 2533 2739 
Q 2553 2719 2553 2688 
L 2553 2650 
Q 2553 2631 2541 2606 
L 750 184 
L 1363 184 
Q 1641 184 1827 218 
Q 2013 253 2144 384 
Q 2266 506 2311 712 
Q 2356 919 2381 1222 
L 2566 1222 
L 2456 0 
L 250 0 
z
" transform="scale(0.015625)"/>
       <path id="Cmr10-65" d="M 1594 -72 
Q 1203 -72 876 133 
Q 550 338 364 680 
Q 178 1022 178 1403 
Q 178 1778 348 2115 
Q 519 2453 823 2661 
Q 1128 2869 1503 2869 
Q 1797 2869 2014 2770 
Q 2231 2672 2372 2497 
Q 2513 2322 2584 2084 
Q 2656 1847 2656 1563 
Q 2656 1478 2591 1478 
L 738 1478 
L 738 1409 
Q 738 878 952 497 
Q 1166 116 1650 116 
Q 1847 116 2014 203 
Q 2181 291 2304 447 
Q 2428 603 2472 781 
Q 2478 803 2495 820 
Q 2513 838 2534 838 
L 2591 838 
Q 2656 838 2656 756 
Q 2566 394 2266 161 
Q 1966 -72 1594 -72 
z
M 744 1638 
L 2203 1638 
Q 2203 1878 2136 2125 
Q 2069 2372 1912 2536 
Q 1756 2700 1503 2700 
Q 1141 2700 942 2361 
Q 744 2022 744 1638 
z
" transform="scale(0.015625)"/>
       <path id="Cmr10-72" d="M 166 0 
L 166 225 
Q 384 225 525 259 
Q 666 294 666 428 
L 666 2175 
Q 666 2347 614 2423 
Q 563 2500 466 2517 
Q 369 2534 166 2534 
L 166 2759 
L 1081 2828 
L 1081 2203 
Q 1184 2481 1375 2654 
Q 1566 2828 1838 2828 
Q 2028 2828 2178 2715 
Q 2328 2603 2328 2419 
Q 2328 2303 2245 2217 
Q 2163 2131 2041 2131 
Q 1922 2131 1837 2215 
Q 1753 2300 1753 2419 
Q 1753 2591 1875 2663 
L 1838 2663 
Q 1578 2663 1414 2475 
Q 1250 2288 1181 2009 
Q 1113 1731 1113 1478 
L 1113 428 
Q 1113 225 1734 225 
L 1734 0 
L 166 0 
z
" transform="scale(0.015625)"/>
      </defs>
      <use xlink:href="#Cmmi10-b3" transform="translate(0 0.078125)"/>
      <use xlink:href="#Cmr10-42" transform="translate(43.701172 -16.928125) scale(0.7)"/>
      <use xlink:href="#Cmr10-6f" transform="translate(93.261719 -16.928125) scale(0.7)"/>
      <use xlink:href="#Cmr10-6f" transform="translate(128.261719 -16.928125) scale(0.7)"/>
      <use xlink:href="#Cmr10-7a" transform="translate(163.261719 -16.928125) scale(0.7)"/>
      <use xlink:href="#Cmr10-65" transform="translate(194.331055 -16.928125) scale(0.7)"/>
      <use xlink:href="#Cmr10-72" transform="translate(225.400391 -16.928125) scale(0.7)"/>
     </g>
    </g>
   </g>
   <g id="matplotlib.axis_2">
    <g id="ytick_1">
     <g id="line2d_6">
      <defs>
       <path id="m73c70ef1df" d="M 0 0 
L -3.5 0 
" style="stroke: #000000; stroke-width: 0.8"/>
      </defs>
      <g>
       <use xlink:href="#m73c70ef1df" x="107.665625" y="284.294375" style="stroke: #000000; stroke-width: 0.8"/>
      </g>
     </g>
     <g id="text_7">
      <!-- 0 -->
      <g transform="translate(82.850625 294.932187) scale(0.28 -0.28)">
       <use xlink:href="#DejaVuSerif-30"/>
      </g>
     </g>
    </g>
    <g id="ytick_2">
     <g id="line2d_7">
      <g>
       <use xlink:href="#m73c70ef1df" x="107.665625" y="218.580234" style="stroke: #000000; stroke-width: 0.8"/>
      </g>
     </g>
     <g id="text_8">
      <!-- $\pi/2$ -->
      <g transform="translate(56.705625 229.080234) scale(0.28 -0.28)">
       <use xlink:href="#Cmmi10-bc"/>
       <use xlink:href="#Cmmi10-3d" transform="translate(56.982422 0)"/>
       <use xlink:href="#Cmr10-32" transform="translate(106.982422 0)"/>
      </g>
     </g>
    </g>
    <g id="ytick_3">
     <g id="line2d_8">
      <g>
       <use xlink:href="#m73c70ef1df" x="107.665625" y="152.866094" style="stroke: #000000; stroke-width: 0.8"/>
      </g>
     </g>
     <g id="text_9">
      <!-- $\pi$ -->
      <g transform="translate(84.705625 163.503906) scale(0.28 -0.28)">
       <use xlink:href="#Cmmi10-bc" transform="translate(0 0.890625)"/>
      </g>
     </g>
    </g>
    <g id="ytick_4">
     <g id="line2d_9">
      <g>
       <use xlink:href="#m73c70ef1df" x="107.665625" y="87.151953" style="stroke: #000000; stroke-width: 0.8"/>
      </g>
     </g>
     <g id="text_10">
      <!-- $3\pi/2$ -->
      <g transform="translate(42.705625 97.651953) scale(0.28 -0.28)">
       <use xlink:href="#Cmr10-33"/>
       <use xlink:href="#Cmmi10-bc" transform="translate(50 0)"/>
       <use xlink:href="#Cmmi10-3d" transform="translate(106.982422 0)"/>
       <use xlink:href="#Cmr10-32" transform="translate(156.982422 0)"/>
      </g>
     </g>
    </g>
    <g id="ytick_5">
     <g id="line2d_10">
      <g>
       <use xlink:href="#m73c70ef1df" x="107.665625" y="21.437813" style="stroke: #000000; stroke-width: 0.8"/>
      </g>
     </g>
     <g id="text_11">
      <!-- $2\pi$ -->
      <g transform="translate(70.705625 32.075625) scale(0.28 -0.28)">
       <use xlink:href="#Cmr10-32" transform="translate(0 0.390625)"/>
       <use xlink:href="#Cmmi10-bc" transform="translate(50 0.390625)"/>
      </g>
     </g>
    </g>
    <g id="text_12">
     <!-- $\theta_{\mathrm{Boozer}}$ -->
     <g transform="translate(36.634687 197.576094) rotate(-90) scale(0.34 -0.34)">
      <defs>
       <path id="Cmmi10-b5" d="M 1031 -72 
Q 741 -72 566 140 
Q 391 353 323 653 
Q 256 953 256 1247 
L 256 1253 
Q 256 1572 317 1915 
Q 378 2259 493 2601 
Q 609 2944 744 3213 
Q 838 3400 986 3631 
Q 1134 3863 1317 4064 
Q 1500 4266 1711 4389 
Q 1922 4513 2138 4513 
L 2144 4513 
Q 2375 4513 2529 4384 
Q 2684 4256 2770 4056 
Q 2856 3856 2890 3628 
Q 2925 3400 2925 3194 
Q 2925 2709 2794 2204 
Q 2663 1700 2431 1228 
Q 2344 1050 2189 809 
Q 2034 569 1861 378 
Q 1688 188 1472 58 
Q 1256 -72 1038 -72 
L 1031 -72 
z
M 1044 97 
Q 1256 97 1451 323 
Q 1647 550 1794 873 
Q 1941 1197 2052 1536 
Q 2163 1875 2216 2113 
L 909 2113 
Q 809 1709 753 1417 
Q 697 1125 697 844 
Q 697 97 1044 97 
z
M 959 2338 
L 2272 2338 
Q 2341 2619 2381 2808 
Q 2422 2997 2450 3206 
Q 2478 3416 2478 3597 
Q 2478 4347 2138 4347 
Q 1731 4347 1436 3692 
Q 1141 3038 959 2338 
z
" transform="scale(0.015625)"/>
      </defs>
      <use xlink:href="#Cmmi10-b5" transform="translate(0 0.484375)"/>
      <use xlink:href="#Cmr10-42" transform="translate(46.923828 -16.521875) scale(0.7)"/>
      <use xlink:href="#Cmr10-6f" transform="translate(96.484375 -16.521875) scale(0.7)"/>
      <use xlink:href="#Cmr10-6f" transform="translate(131.484375 -16.521875) scale(0.7)"/>
      <use xlink:href="#Cmr10-7a" transform="translate(166.484375 -16.521875) scale(0.7)"/>
      <use xlink:href="#Cmr10-65" transform="translate(197.553711 -16.521875) scale(0.7)"/>
      <use xlink:href="#Cmr10-72" transform="translate(228.623047 -16.521875) scale(0.7)"/>
     </g>
    </g>
   </g>
   <g id="QuadContourSet_1">
    <path d="M 110.317325 284.294375 
L 110.317325 284.294375 
L 110.317325 284.294375 
z
M 110.317325 21.437813 
L 110.317325 21.437813 
L 110.317325 21.437813 
z
" clip-path="url(#pb97e23b9b6)" style="fill: none; stroke: #000080"/>
    <path d="M 281.266034 284.294375 
L 282.677825 283.885614 
L 285.329525 283.448975 
L 289.487826 281.373747 
L 290.632925 281.1402 
L 293.291423 281.373747 
L 295.936325 283.72847 
L 298.588025 283.593069 
L 300.020707 281.373747 
L 301.239725 280.647355 
L 303.891425 279.482531 
L 309.194825 278.295645 
L 311.846525 277.993263 
L 317.149925 277.779306 
L 319.801625 277.458862 
L 322.453325 276.501742 
L 327.756725 272.036771 
L 330.408425 270.899361 
L 333.060125 270.535635 
L 335.711825 270.406557 
L 338.363525 270.437585 
L 341.015225 270.836604 
L 346.318625 272.391075 
M 107.665625 272.391075 
L 118.272425 275.251484 
L 123.575825 276.057266 
L 128.879225 276.226171 
L 134.182625 277.013458 
L 136.834325 277.028084 
L 139.486025 277.225782 
L 143.121952 278.453118 
L 144.789425 279.312331 
L 147.441125 279.583242 
L 150.092825 279.430317 
L 152.744525 280.296042 
L 154.839901 281.373747 
L 155.396225 282.809199 
L 158.047925 282.164064 
L 158.337394 281.373747 
L 160.699625 280.54511 
L 163.351325 280.632648 
L 167.690362 281.373747 
L 168.654725 282.183094 
L 171.306425 283.67368 
L 172.718216 284.294375 
M 346.318625 33.341113 
L 335.711825 30.480703 
L 330.408425 29.674921 
L 325.105025 29.506016 
L 319.801625 28.71873 
L 317.149925 28.704104 
L 314.498225 28.506406 
L 310.862298 27.279069 
L 309.194825 26.419856 
L 306.543125 26.148946 
L 303.891425 26.301871 
L 301.239725 25.436146 
L 299.144349 24.358441 
L 298.588025 22.922988 
L 295.936325 23.568123 
L 295.646856 24.358441 
L 293.284625 25.187077 
L 290.632925 25.09954 
L 286.293888 24.358441 
L 285.329525 23.549094 
L 282.677825 22.058508 
L 281.266034 21.437813 
M 172.718216 21.437813 
L 171.306425 21.846573 
L 168.654725 22.283212 
L 164.496424 24.358441 
L 163.351325 24.591988 
L 160.692827 24.358441 
L 158.047925 22.003718 
L 155.396225 22.139118 
L 153.963543 24.358441 
L 152.744525 25.084832 
L 150.092825 26.249656 
L 144.789425 27.436542 
L 142.137725 27.738924 
L 136.834325 27.952881 
L 134.182625 28.273326 
L 131.530925 29.230445 
L 126.227525 33.695416 
L 123.575825 34.832826 
L 120.924125 35.196553 
L 118.272425 35.325631 
L 115.620725 35.294602 
L 112.969025 34.895584 
L 107.665625 33.341113 
L 107.665625 33.341113 
" clip-path="url(#pb97e23b9b6)" style="fill: none; stroke: #0000a4"/>
    <path d="M 107.665625 266.872409 
L 110.317325 267.312802 
L 115.620725 267.756459 
L 123.575825 268.293259 
L 128.879225 268.485806 
L 134.182625 268.875325 
L 139.486025 269.209084 
L 142.137725 269.392551 
L 144.789425 269.335157 
L 147.441125 269.143254 
L 150.092825 269.126161 
L 168.654725 270.286737 
L 173.958125 270.604572 
L 184.564925 270.941335 
L 195.171725 271.694535 
L 208.430225 271.890016 
L 221.688725 272.020609 
L 224.340425 272.247563 
L 226.992125 272.340875 
L 232.295525 272.229031 
L 237.598925 272.359866 
L 258.812525 271.952507 
L 269.419325 271.489224 
L 274.722725 271.408079 
L 280.026125 271.058108 
L 287.981225 271.164347 
L 295.936325 270.587879 
L 301.239725 270.183908 
L 311.846525 269.494839 
L 314.498225 269.053699 
L 317.149925 268.357772 
L 319.801625 267.448105 
L 325.105025 265.217631 
L 327.756725 264.413072 
L 330.408425 264.206959 
L 333.060125 264.409954 
L 338.363525 265.278552 
L 346.318625 266.872409 
M 346.318625 38.859778 
L 343.666925 38.419386 
L 338.363525 37.975728 
L 330.408425 37.438928 
L 325.105025 37.246381 
L 319.801625 36.856862 
L 314.498225 36.523104 
L 311.846525 36.339636 
L 309.194825 36.397031 
L 306.543125 36.588934 
L 303.891425 36.606027 
L 285.329525 35.445451 
L 280.026125 35.127615 
L 269.419325 34.790853 
L 258.812525 34.037652 
L 245.554025 33.842171 
L 232.295525 33.711578 
L 229.643825 33.484624 
L 226.992125 33.391312 
L 221.688725 33.503157 
L 216.385325 33.372321 
L 195.171725 33.779681 
L 184.564925 34.242963 
L 179.261525 34.324108 
L 173.958125 34.674079 
L 166.003025 34.56784 
L 158.047925 35.144308 
L 152.744525 35.54828 
L 142.137725 36.237348 
L 139.486025 36.678488 
L 136.834325 37.374415 
L 134.182625 38.284082 
L 128.879225 40.514557 
L 126.227525 41.319116 
L 123.575825 41.525228 
L 120.924125 41.322233 
L 115.620725 40.453635 
L 107.665625 38.859778 
L 107.665625 38.859778 
" clip-path="url(#pb97e23b9b6)" style="fill: none; stroke: #0000cd"/>
    <path d="M 107.665625 262.138212 
L 110.317325 262.426553 
L 115.620725 262.658679 
L 128.879225 263.240889 
L 134.182625 263.42769 
L 139.486025 263.36706 
L 144.789425 263.436887 
L 150.092825 263.388878 
L 160.699625 264.02874 
L 168.654725 264.463285 
L 184.564925 264.911786 
L 192.520025 265.323757 
L 203.126825 265.46168 
L 208.430225 265.380922 
L 216.385325 265.686054 
L 221.688725 265.689602 
L 226.992125 265.900822 
L 240.250625 265.883159 
L 245.554025 265.804678 
L 250.857425 265.854012 
L 256.160825 265.736477 
L 264.115925 265.620549 
L 272.071025 265.463686 
L 277.374425 265.404004 
L 282.677825 265.298888 
L 287.981225 265.232834 
L 306.543125 264.484718 
L 309.194825 264.252485 
L 311.846525 263.774935 
L 314.498225 262.844586 
L 317.149925 261.668464 
L 319.801625 260.757383 
L 322.453325 260.1747 
L 325.105025 259.785152 
L 327.756725 259.669371 
L 330.408425 259.82279 
L 333.060125 260.197166 
L 338.363525 261.186533 
L 346.318625 262.138212 
M 346.318625 43.593976 
L 343.666925 43.305635 
L 338.363525 43.073509 
L 325.105025 42.491299 
L 319.801625 42.304498 
L 314.498225 42.365128 
L 309.194825 42.295301 
L 303.891425 42.343309 
L 293.284625 41.703448 
L 285.329525 41.268903 
L 269.419325 40.820402 
L 261.464225 40.408431 
L 250.857425 40.270507 
L 245.554025 40.351265 
L 237.598925 40.046133 
L 232.295525 40.042586 
L 226.992125 39.831366 
L 213.733625 39.849029 
L 208.430225 39.92751 
L 203.126825 39.878175 
L 197.823425 39.99571 
L 189.868325 40.111638 
L 181.913225 40.268501 
L 176.609825 40.328184 
L 171.306425 40.433299 
L 166.003025 40.499354 
L 147.441125 41.24747 
L 144.789425 41.479703 
L 142.137725 41.957253 
L 139.486025 42.887601 
L 136.834325 44.063724 
L 134.182625 44.974804 
L 131.530925 45.557488 
L 128.879225 45.947036 
L 126.227525 46.062817 
L 123.575825 45.909398 
L 120.924125 45.535022 
L 115.620725 44.545655 
L 107.665625 43.593976 
L 107.665625 43.593976 
" clip-path="url(#pb97e23b9b6)" style="fill: none; stroke: #0000f6"/>
    <path d="M 107.665625 257.983622 
L 112.969025 258.297706 
L 120.924125 258.475333 
L 131.530925 258.837983 
L 139.486025 258.675502 
L 158.047925 259.292393 
L 166.003025 259.631417 
L 189.868325 260.425769 
L 192.520025 260.513417 
L 197.823425 260.379544 
L 216.385325 260.760722 
L 240.250625 260.894713 
L 245.554025 260.895634 
L 253.509125 260.955445 
L 258.812525 260.879551 
L 264.115925 260.907121 
L 269.419325 260.735757 
L 274.722725 260.821461 
L 301.239725 260.338378 
L 306.543125 259.813267 
L 309.194825 259.364581 
L 311.846525 258.526282 
L 314.498225 257.342528 
L 317.149925 256.365038 
L 319.801625 255.785381 
L 322.453325 255.578009 
L 325.105025 255.644043 
L 330.408425 256.170612 
L 338.363525 257.441997 
L 346.318625 257.983622 
M 346.318625 47.748566 
L 341.015225 47.434481 
L 333.060125 47.256854 
L 322.453325 46.894205 
L 314.498225 47.056685 
L 295.936325 46.439795 
L 287.981225 46.100771 
L 264.115925 45.306418 
L 261.464225 45.218771 
L 256.160825 45.352643 
L 237.598925 44.971466 
L 213.733625 44.837474 
L 208.430225 44.836553 
L 200.475125 44.776743 
L 195.171725 44.852636 
L 189.868325 44.825067 
L 184.564925 44.996431 
L 179.261525 44.910727 
L 152.744525 45.393809 
L 147.441125 45.91892 
L 144.789425 46.367606 
L 142.137725 47.205906 
L 139.486025 48.38966 
L 136.834325 49.36715 
L 134.182625 49.946806 
L 131.530925 50.154179 
L 128.879225 50.088145 
L 123.575825 49.561576 
L 115.620725 48.290191 
L 107.665625 47.748566 
L 107.665625 47.748566 
" clip-path="url(#pb97e23b9b6)" style="fill: none; stroke: #000cff"/>
    <path d="M 107.665625 254.250277 
L 118.272425 254.495686 
L 128.879225 254.712701 
L 139.486025 254.575454 
L 147.441125 254.84643 
L 173.958125 255.721013 
L 192.520025 256.284427 
L 197.823425 256.181294 
L 216.385325 256.621975 
L 224.340425 256.652265 
L 237.598925 256.698514 
L 242.902325 256.671072 
L 264.115925 256.825526 
L 269.419325 256.71544 
L 274.722725 256.803201 
L 295.936325 256.549925 
L 298.588025 256.493292 
L 301.239725 256.293523 
L 303.891425 255.861097 
L 307.138456 255.08809 
L 309.194825 254.481266 
L 314.498225 252.593136 
L 317.149925 251.931954 
L 319.801625 251.703319 
L 322.453325 251.837981 
L 338.363525 253.809636 
L 346.318625 254.250277 
M 346.318625 51.48191 
L 335.711825 51.236502 
L 325.105025 51.019487 
L 314.498225 51.156733 
L 306.543125 50.885758 
L 280.026125 50.011174 
L 261.464225 49.447761 
L 256.160825 49.550894 
L 237.598925 49.110213 
L 229.643825 49.079922 
L 216.385325 49.033673 
L 211.081925 49.061115 
L 189.868325 48.906661 
L 184.564925 49.016748 
L 179.261525 48.928987 
L 158.047925 49.182262 
L 155.396225 49.238895 
L 152.744525 49.438665 
L 150.092825 49.87109 
L 146.845794 50.644097 
L 144.789425 51.250922 
L 139.486025 53.139051 
L 136.834325 53.800233 
L 134.182625 54.028868 
L 131.530925 53.894207 
L 115.620725 51.922551 
L 107.665625 51.48191 
L 107.665625 51.48191 
" clip-path="url(#pb97e23b9b6)" style="fill: none; stroke: #0030ff"/>
    <path d="M 107.665625 250.677177 
L 115.620725 250.802194 
L 126.227525 250.941595 
L 139.486025 250.907289 
L 160.699625 251.636897 
L 168.654725 251.886679 
L 176.609825 252.030086 
L 189.868325 252.388283 
L 200.475125 252.441461 
L 211.081925 252.743847 
L 216.385325 252.777938 
L 221.688725 252.781407 
L 232.295525 252.888252 
L 256.160825 252.993179 
L 264.115925 253.0919 
L 269.419325 253.069541 
L 277.374425 253.187956 
L 282.677825 253.201904 
L 298.588025 252.782067 
L 301.985548 252.167462 
L 303.891425 251.61126 
L 309.194825 249.816261 
L 311.846525 249.050696 
L 314.498225 248.495924 
L 317.149925 248.227505 
L 319.801625 248.297388 
L 326.322805 249.246833 
L 327.756725 249.445998 
L 338.363525 250.324395 
L 343.666925 250.622677 
L 346.318625 250.677177 
M 346.318625 55.055011 
L 338.363525 54.929994 
L 327.756725 54.790592 
L 314.498225 54.824898 
L 293.284625 54.09529 
L 285.329525 53.845509 
L 277.374425 53.702101 
L 264.115925 53.343905 
L 253.509125 53.290727 
L 242.902325 52.988341 
L 237.598925 52.954249 
L 232.295525 52.950781 
L 221.688725 52.843936 
L 197.823425 52.739008 
L 189.868325 52.640288 
L 184.564925 52.662646 
L 176.609825 52.544232 
L 171.306425 52.530284 
L 155.396225 52.95012 
L 151.998702 53.564726 
L 150.092825 54.120927 
L 144.789425 55.915927 
L 142.137725 56.681491 
L 139.486025 57.236263 
L 136.834325 57.504683 
L 134.182625 57.4348 
L 127.661445 56.485354 
L 126.227525 56.286189 
L 115.620725 55.407793 
L 110.317325 55.109511 
L 107.665625 55.055011 
L 107.665625 55.055011 
" clip-path="url(#pb97e23b9b6)" style="fill: none; stroke: #0050ff"/>
    <path d="M 107.665625 247.237459 
L 112.969025 247.25371 
L 120.924125 247.386649 
L 136.834325 247.400079 
L 158.047925 248.044766 
L 168.654725 248.395537 
L 179.261525 248.61464 
L 187.216625 248.793033 
L 195.171725 248.802263 
L 200.475125 248.905523 
L 211.081925 249.157381 
L 234.947225 249.27722 
L 256.160825 249.479388 
L 264.115925 249.63365 
L 269.419325 249.678662 
L 277.374425 249.838108 
L 282.677825 249.864769 
L 295.936325 249.45995 
L 298.588025 249.095423 
L 301.239725 248.348922 
L 306.543125 246.302813 
L 309.194825 245.566509 
L 311.846525 245.111978 
L 314.498225 244.928517 
L 317.149925 244.985026 
L 319.801625 245.252465 
L 325.105025 246.085217 
L 327.756725 246.353823 
L 335.711825 246.813865 
L 341.015225 247.135243 
L 346.318625 247.237459 
M 346.318625 58.494728 
L 341.015225 58.478478 
L 333.060125 58.345539 
L 317.149925 58.332108 
L 295.936325 57.687422 
L 285.329525 57.336651 
L 274.722725 57.117548 
L 266.767625 56.939154 
L 258.812525 56.929925 
L 253.509125 56.826664 
L 242.902325 56.574806 
L 219.037025 56.454967 
L 197.823425 56.2528 
L 189.868325 56.098537 
L 184.564925 56.053526 
L 176.609825 55.89408 
L 171.306425 55.867419 
L 158.047925 56.272238 
L 155.396225 56.636765 
L 152.744525 57.383265 
L 147.441125 59.429375 
L 144.789425 60.165678 
L 142.137725 60.620209 
L 139.486025 60.803671 
L 136.834325 60.747161 
L 134.182625 60.479722 
L 128.879225 59.64697 
L 126.227525 59.378364 
L 118.272425 58.918322 
L 112.969025 58.596944 
L 107.665625 58.494728 
L 107.665625 58.494728 
" clip-path="url(#pb97e23b9b6)" style="fill: none; stroke: #0074ff"/>
    <path d="M 107.665625 243.886001 
L 112.969025 243.922473 
L 118.272425 244.009693 
L 131.530925 244.022015 
L 139.486025 244.14535 
L 160.699625 244.852383 
L 171.306425 245.093908 
L 205.778525 245.652819 
L 211.081925 245.754667 
L 219.037025 245.801165 
L 240.250625 245.882426 
L 245.554025 245.883437 
L 264.115925 246.345334 
L 269.419325 246.471519 
L 277.374425 246.639039 
L 282.677825 246.670498 
L 293.284625 246.225512 
L 295.936325 245.834291 
L 298.588025 245.16298 
L 306.543125 242.271799 
L 309.194825 241.782619 
L 311.846525 241.649537 
L 314.498225 241.780735 
L 319.801625 242.391465 
L 325.105025 243.031234 
L 341.015225 243.835288 
L 346.318625 243.886001 
M 346.318625 61.846186 
L 341.015225 61.809715 
L 335.711825 61.722495 
L 322.453325 61.710173 
L 314.498225 61.586837 
L 293.284625 60.879805 
L 282.677825 60.63828 
L 248.205725 60.079368 
L 242.902325 59.977521 
L 234.947225 59.931023 
L 213.733625 59.849762 
L 208.430225 59.848751 
L 189.868325 59.386853 
L 184.564925 59.260669 
L 176.609825 59.093148 
L 171.306425 59.06169 
L 160.699625 59.506675 
L 158.047925 59.897897 
L 155.396225 60.569207 
L 147.441125 63.460388 
L 144.789425 63.949568 
L 142.137725 64.08265 
L 139.486025 63.951452 
L 134.182625 63.340723 
L 128.879225 62.700953 
L 112.969025 61.896899 
L 107.665625 61.846186 
L 107.665625 61.846186 
" clip-path="url(#pb97e23b9b6)" style="fill: none; stroke: #0098ff"/>
    <path d="M 107.665625 240.613947 
L 142.137725 241.059015 
L 150.092825 241.299722 
L 187.216625 242.102811 
L 203.126825 242.314361 
L 213.733625 242.469212 
L 242.902325 242.616434 
L 248.205725 242.740577 
L 258.812525 243.160271 
L 266.767625 243.286891 
L 272.071025 243.495893 
L 282.677825 243.504493 
L 287.981225 243.354072 
L 290.632925 243.11809 
L 293.284625 242.635816 
L 295.936325 241.935494 
L 303.891425 239.177179 
L 306.543125 238.621422 
L 309.194825 238.422092 
L 311.846525 238.567808 
L 322.453325 239.818224 
L 335.711825 240.424183 
L 346.318625 240.613947 
M 346.318625 65.11824 
L 311.846525 64.673173 
L 303.891425 64.432465 
L 266.767625 63.629376 
L 250.857425 63.417827 
L 240.250625 63.262975 
L 211.081925 63.115753 
L 205.778525 62.991611 
L 195.171725 62.571916 
L 187.216625 62.445296 
L 181.913225 62.236295 
L 171.306425 62.227695 
L 166.003025 62.378116 
L 163.351325 62.614098 
L 160.699625 63.096372 
L 158.047925 63.796693 
L 150.092825 66.555008 
L 147.441125 67.110766 
L 144.789425 67.310096 
L 142.137725 67.16438 
L 131.530925 65.913964 
L 118.272425 65.308005 
L 107.665625 65.11824 
L 107.665625 65.11824 
" clip-path="url(#pb97e23b9b6)" style="fill: none; stroke: #00bcff"/>
    <path d="M 107.665625 237.45291 
L 139.486025 237.838593 
L 160.699625 238.497628 
L 211.081925 239.252508 
L 240.250625 239.424387 
L 248.205725 239.642349 
L 272.071025 240.527585 
L 280.026125 240.454477 
L 285.329525 240.328502 
L 287.981225 240.119543 
L 290.632925 239.609412 
L 293.284625 238.831915 
L 301.239725 236.095556 
L 303.891425 235.548691 
L 306.543125 235.306462 
L 309.194825 235.378934 
L 319.801625 236.699318 
L 327.756725 237.024099 
L 341.015225 237.406798 
L 346.318625 237.45291 
M 346.318625 68.279277 
L 314.498225 67.893595 
L 293.284625 67.234559 
L 242.902325 66.479679 
L 213.733625 66.307801 
L 205.778525 66.089839 
L 181.913225 65.204602 
L 173.958125 65.27771 
L 168.654725 65.403685 
L 166.003025 65.612645 
L 163.351325 66.122776 
L 160.699625 66.900273 
L 152.744525 69.636632 
L 150.092825 70.183496 
L 147.441125 70.425725 
L 144.789425 70.353253 
L 134.182625 69.03287 
L 126.227525 68.708088 
L 112.969025 68.325389 
L 107.665625 68.279277 
L 107.665625 68.279277 
" clip-path="url(#pb97e23b9b6)" style="fill: none; stroke: #00e0fb"/>
    <path d="M 107.665625 234.350846 
L 120.924125 234.385804 
L 131.530925 234.59426 
L 155.396225 235.209736 
L 160.699625 235.381648 
L 176.609825 235.601594 
L 211.081925 236.054092 
L 237.598925 236.227537 
L 242.902325 236.397817 
L 256.160825 236.999538 
L 264.115925 237.330951 
L 270.037004 237.564319 
L 274.722725 237.609444 
L 282.677825 237.339812 
L 285.329525 237.121397 
L 287.981225 236.618295 
L 290.632925 235.81857 
L 298.588025 232.98883 
L 301.239725 232.426272 
L 303.891425 232.227678 
L 306.543125 232.282343 
L 309.194825 232.556149 
L 314.498225 233.369722 
L 319.801625 233.703467 
L 330.408425 234.071608 
L 346.318625 234.350846 
M 346.318625 71.381342 
L 333.060125 71.346384 
L 322.453325 71.137928 
L 298.588025 70.522451 
L 293.284625 70.35054 
L 277.374425 70.130593 
L 242.902325 69.678095 
L 216.385325 69.50465 
L 211.081925 69.334371 
L 197.823425 68.73265 
L 189.868325 68.401237 
L 183.947246 68.167868 
L 179.261525 68.122744 
L 171.306425 68.392375 
L 168.654725 68.610791 
L 166.003025 69.113892 
L 163.351325 69.913617 
L 155.396225 72.743357 
L 152.744525 73.305915 
L 150.092825 73.504509 
L 147.441125 73.449844 
L 144.789425 73.176039 
L 139.486025 72.362465 
L 134.182625 72.02872 
L 123.575825 71.66058 
L 107.665625 71.381342 
L 107.665625 71.381342 
" clip-path="url(#pb97e23b9b6)" style="fill: none; stroke: #19ffde"/>
    <path d="M 107.665625 231.235204 
L 118.272425 231.235359 
L 131.530925 231.492231 
L 150.092825 231.963488 
L 173.958125 232.415355 
L 208.430225 232.890588 
L 221.688725 232.90889 
L 240.250625 233.210804 
L 245.554025 233.565629 
L 256.160825 234.035585 
L 269.419325 234.655774 
L 274.722725 234.692387 
L 280.026125 234.438167 
L 282.677825 234.139829 
L 285.329525 233.579062 
L 287.981225 232.758055 
L 295.936325 229.933326 
L 298.588025 229.297358 
L 301.239725 229.107402 
L 303.891425 229.231002 
L 309.194825 229.822896 
L 314.498225 230.482719 
L 327.756725 230.950236 
L 343.666925 231.294055 
L 346.318625 231.235204 
M 346.318625 74.496983 
L 335.711825 74.496828 
L 322.453325 74.239956 
L 303.891425 73.768699 
L 280.026125 73.316832 
L 245.554025 72.841599 
L 232.295525 72.823297 
L 213.733625 72.521384 
L 208.430225 72.166559 
L 197.823425 71.696602 
L 184.564925 71.076414 
L 179.261525 71.0398 
L 173.958125 71.294021 
L 171.306425 71.592358 
L 168.654725 72.153126 
L 166.003025 72.974132 
L 158.047925 75.798861 
L 155.396225 76.434829 
L 152.744525 76.624785 
L 150.092825 76.501185 
L 144.789425 75.909291 
L 139.486025 75.249468 
L 126.227525 74.781952 
L 110.317325 74.438132 
L 107.665625 74.496983 
L 107.665625 74.496983 
" clip-path="url(#pb97e23b9b6)" style="fill: none; stroke: #33ffc4"/>
    <path d="M 107.665625 228.098357 
L 128.879225 228.309267 
L 142.137725 228.730101 
L 166.003025 229.246881 
L 184.564925 229.454597 
L 192.520025 229.579223 
L 237.598925 230.04618 
L 266.767625 231.758802 
L 272.071025 231.826982 
L 277.374425 231.563999 
L 280.026125 231.211181 
L 282.677825 230.57361 
L 287.981225 228.728463 
L 293.284625 226.863164 
L 295.936325 226.211773 
L 298.588025 225.976255 
L 301.239725 226.134014 
L 311.846525 227.301802 
L 317.149925 227.570533 
L 330.408425 227.957037 
L 346.318625 228.098357 
M 346.318625 77.63383 
L 325.105025 77.42292 
L 311.846525 77.002086 
L 287.981225 76.485306 
L 269.419325 76.277591 
L 261.464225 76.152965 
L 216.385325 75.686008 
L 187.216625 73.973386 
L 181.913225 73.905206 
L 176.609825 74.168189 
L 173.958125 74.521007 
L 171.306425 75.158577 
L 166.003025 77.003725 
L 160.699625 78.869024 
L 158.047925 79.520414 
L 155.396225 79.755933 
L 152.744525 79.598173 
L 142.137725 78.430385 
L 136.834325 78.161654 
L 123.575825 77.77515 
L 107.665625 77.63383 
L 107.665625 77.63383 
" clip-path="url(#pb97e23b9b6)" style="fill: none; stroke: #50ffa7"/>
    <path d="M 107.665625 224.956584 
L 112.969025 224.994589 
L 118.272425 225.018946 
L 123.575825 225.146671 
L 131.530925 225.313205 
L 152.744525 225.836535 
L 168.654725 226.102263 
L 234.947225 226.918888 
L 242.902325 227.431257 
L 250.857425 227.921194 
L 264.115925 228.872907 
L 269.419325 228.980455 
L 273.29282 228.802434 
L 274.722725 228.686718 
L 277.374425 228.290126 
L 280.026125 227.589802 
L 285.329525 225.666406 
L 290.632925 223.73019 
L 293.284625 223.096985 
L 295.936325 222.866144 
L 298.588025 222.994519 
L 303.891425 223.680135 
L 309.194825 224.087478 
L 317.149925 224.503477 
L 325.105025 224.717917 
L 341.015225 225.037213 
L 346.318625 224.956584 
M 346.318625 80.775603 
L 341.015225 80.737598 
L 335.711825 80.713241 
L 330.408425 80.585517 
L 322.453325 80.418983 
L 301.239725 79.895653 
L 285.329525 79.629925 
L 219.037025 78.813299 
L 211.081925 78.30093 
L 203.126825 77.810993 
L 189.868325 76.85928 
L 184.564925 76.751733 
L 180.69143 76.929753 
L 179.261525 77.04547 
L 176.609825 77.442061 
L 173.958125 78.142385 
L 168.654725 80.065782 
L 163.351325 82.001998 
L 160.699625 82.635202 
L 158.047925 82.866043 
L 155.396225 82.737668 
L 150.092825 82.052052 
L 144.789425 81.64471 
L 136.834325 81.228711 
L 128.879225 81.014271 
L 112.969025 80.694975 
L 107.665625 80.775603 
L 107.665625 80.775603 
" clip-path="url(#pb97e23b9b6)" style="fill: none; stroke: #6dff8a"/>
    <path d="M 107.665625 221.791579 
L 126.227525 222.066969 
L 163.351325 222.910447 
L 173.958125 222.987609 
L 192.520025 223.265832 
L 200.475125 223.286192 
L 205.778525 223.356356 
L 216.385325 223.388398 
L 224.340425 223.493458 
L 229.643825 223.604984 
L 237.598925 224.082871 
L 250.857425 225.029123 
L 258.812525 225.793374 
L 264.115925 226.054461 
L 266.767625 226.106875 
L 271.45385 225.881806 
L 272.071025 225.828242 
L 274.722725 225.394069 
L 277.374425 224.618689 
L 285.329525 221.492472 
L 287.981225 220.577774 
L 290.632925 219.930708 
L 293.284625 219.71678 
L 295.936325 219.846258 
L 303.891425 220.783061 
L 319.801625 221.484702 
L 341.015225 221.835601 
L 346.318625 221.791579 
M 346.318625 83.940609 
L 327.756725 83.665219 
L 290.632925 82.82174 
L 280.026125 82.744578 
L 261.464225 82.466355 
L 253.509125 82.445995 
L 248.205725 82.375831 
L 237.598925 82.34379 
L 229.643825 82.238729 
L 224.340425 82.127203 
L 216.385325 81.649317 
L 203.126825 80.703064 
L 195.171725 79.938814 
L 189.868325 79.677727 
L 187.216625 79.625313 
L 182.5304 79.850382 
L 181.913225 79.903946 
L 179.261525 80.338119 
L 176.609825 81.113499 
L 168.654725 84.239716 
L 166.003025 85.154414 
L 163.351325 85.80148 
L 160.699625 86.015407 
L 158.047925 85.88593 
L 150.092825 84.949127 
L 134.182625 84.247485 
L 112.969025 83.896586 
L 107.665625 83.940609 
L 107.665625 83.940609 
" clip-path="url(#pb97e23b9b6)" style="fill: none; stroke: #8aff6d"/>
    <path d="M 107.665625 218.567855 
L 112.969025 218.614222 
L 120.924125 218.784555 
L 136.834325 219.138399 
L 163.351325 219.673747 
L 173.958125 219.754552 
L 181.913225 219.892096 
L 226.992125 220.377045 
L 232.295525 220.661799 
L 250.857425 222.145935 
L 256.160825 222.760595 
L 261.464225 223.105481 
L 264.115925 223.180634 
L 266.767625 223.143045 
L 269.419325 222.94286 
L 272.071025 222.494849 
L 274.722725 221.688334 
L 282.677825 218.17312 
L 286.093669 217.11992 
L 287.981225 216.715745 
L 290.632925 216.496489 
L 293.284625 216.631358 
L 301.239725 217.587148 
L 317.149925 218.223462 
L 322.453325 218.300668 
L 327.756725 218.421957 
L 333.060125 218.585457 
L 346.318625 218.567855 
M 346.318625 87.164332 
L 341.015225 87.117965 
L 333.060125 86.947633 
L 317.149925 86.593789 
L 290.632925 86.05844 
L 280.026125 85.977635 
L 272.071025 85.840092 
L 226.992125 85.355142 
L 221.688725 85.070388 
L 203.126825 83.586252 
L 197.823425 82.971593 
L 192.520025 82.626706 
L 189.868325 82.551554 
L 187.216625 82.589143 
L 184.564925 82.789327 
L 181.913225 83.237339 
L 179.261525 84.043853 
L 171.306425 87.559067 
L 167.890581 88.612267 
L 166.003025 89.016443 
L 163.351325 89.235698 
L 160.699625 89.10083 
L 152.744525 88.145039 
L 136.834325 87.508725 
L 131.530925 87.43152 
L 126.227525 87.31023 
L 120.924125 87.14673 
L 107.665625 87.164332 
L 107.665625 87.164332 
" clip-path="url(#pb97e23b9b6)" style="fill: none; stroke: #a7ff50"/>
    <path d="M 107.665625 215.274972 
L 112.969025 215.361801 
L 120.924125 215.549479 
L 136.834325 215.880846 
L 152.744525 216.214083 
L 173.958125 216.470883 
L 181.913225 216.588343 
L 200.475125 216.737489 
L 216.385325 216.881951 
L 225.042278 217.11992 
L 232.295525 217.579886 
L 245.554025 218.634382 
L 250.857425 219.250631 
L 256.160825 219.901262 
L 261.464225 220.229216 
L 264.115925 220.228724 
L 266.767625 220.027117 
L 269.419325 219.521116 
L 272.071025 218.683696 
L 275.483507 217.11992 
L 277.374425 216.093703 
L 280.026125 214.796463 
L 282.677825 213.865957 
L 285.329525 213.359699 
L 287.981225 213.211854 
L 290.632925 213.350843 
L 298.588025 214.353802 
L 319.801625 214.988577 
L 325.105025 215.046856 
L 333.060125 215.276508 
L 346.318625 215.274972 
M 346.318625 90.457215 
L 341.015225 90.370386 
L 333.060125 90.182709 
L 317.149925 89.851341 
L 301.239725 89.518104 
L 280.026125 89.261304 
L 272.071025 89.143844 
L 253.509125 88.994699 
L 237.598925 88.850237 
L 228.941972 88.612267 
L 221.688725 88.152301 
L 208.430225 87.097805 
L 203.126825 86.481557 
L 197.823425 85.830926 
L 192.520025 85.502972 
L 189.868325 85.503463 
L 187.216625 85.70507 
L 184.564925 86.211072 
L 181.913225 87.048492 
L 178.500743 88.612267 
L 176.609825 89.638485 
L 173.958125 90.935724 
L 171.306425 91.86623 
L 168.654725 92.372489 
L 166.003025 92.520334 
L 163.351325 92.381344 
L 155.396225 91.378385 
L 134.182625 90.74361 
L 128.879225 90.685332 
L 120.924125 90.45568 
L 107.665625 90.457215 
L 107.665625 90.457215 
" clip-path="url(#pb97e23b9b6)" style="fill: none; stroke: #c4ff33"/>
    <path d="M 107.665625 211.903067 
L 112.969025 212.005267 
L 120.924125 212.208033 
L 142.137725 212.636161 
L 179.261525 213.163316 
L 211.081925 213.385874 
L 221.688725 213.667822 
L 226.992125 214.012398 
L 245.554025 215.636687 
L 256.160825 216.973788 
L 258.812525 217.189271 
L 261.464225 217.290725 
L 264.237055 217.11992 
L 266.767625 216.541587 
L 269.419325 215.52751 
L 272.313697 214.199292 
L 277.886849 211.278663 
L 280.026125 210.41525 
L 282.677825 209.866875 
L 285.329525 209.808124 
L 287.981225 210.017793 
L 295.936325 210.992279 
L 311.846525 211.487835 
L 325.105025 211.709746 
L 333.060125 211.846771 
L 341.015225 211.86338 
L 346.318625 211.903067 
M 346.318625 93.82912 
L 341.015225 93.726921 
L 333.060125 93.524154 
L 311.846525 93.096027 
L 274.722725 92.568872 
L 242.902325 92.346313 
L 232.295525 92.064365 
L 226.992125 91.71979 
L 208.430225 90.0955 
L 197.823425 88.758399 
L 195.171725 88.542917 
L 192.520025 88.441463 
L 189.747195 88.612267 
L 187.216625 89.190601 
L 184.564925 90.204677 
L 181.670553 91.532896 
L 176.097401 94.453524 
L 173.958125 95.316938 
L 171.306425 95.865313 
L 168.654725 95.924063 
L 166.003025 95.714395 
L 158.047925 94.739908 
L 142.137725 94.244352 
L 128.879225 94.022441 
L 120.924125 93.885417 
L 112.969025 93.868808 
L 107.665625 93.82912 
L 107.665625 93.82912 
" clip-path="url(#pb97e23b9b6)" style="fill: none; stroke: #deff19"/>
    <path d="M 107.665625 208.395987 
L 112.969025 208.52025 
L 118.272425 208.675282 
L 126.227525 208.84829 
L 160.699625 209.415554 
L 187.216625 209.670429 
L 195.171725 209.729555 
L 213.733625 209.94799 
L 224.340425 210.494069 
L 242.902325 212.226726 
L 253.509125 213.714292 
L 258.812525 214.187628 
L 261.474442 214.199292 
L 264.115925 213.657789 
L 266.767625 212.426775 
L 274.722725 208.103064 
L 277.374425 206.979296 
L 280.026125 206.327709 
L 282.677825 206.260259 
L 287.981225 206.923829 
L 293.284625 207.474854 
L 309.194825 207.957662 
L 317.149925 208.043907 
L 322.453325 208.22052 
L 346.318625 208.395987 
M 346.318625 97.3362 
L 341.015225 97.211938 
L 335.711825 97.056906 
L 327.756725 96.883897 
L 293.284625 96.316633 
L 266.767625 96.061758 
L 258.812525 96.002632 
L 240.250625 95.784198 
L 229.643825 95.238119 
L 211.081925 93.505461 
L 200.475125 92.017895 
L 195.171725 91.54456 
L 192.509808 91.532896 
L 189.868325 92.074399 
L 187.216625 93.305412 
L 179.261525 97.629123 
L 176.609825 98.752892 
L 173.958125 99.404478 
L 171.306425 99.471928 
L 166.003025 98.808359 
L 160.699625 98.257333 
L 144.789425 97.774525 
L 136.834325 97.688281 
L 131.530925 97.511667 
L 107.665625 97.3362 
L 107.665625 97.3362 
" clip-path="url(#pb97e23b9b6)" style="fill: none; stroke: #fbf100"/>
    <path d="M 107.665625 204.704155 
L 136.834325 205.481956 
L 150.092825 205.663908 
L 163.351325 205.801296 
L 211.081925 206.225992 
L 219.037025 206.696251 
L 226.992125 207.296214 
L 234.947225 208.089877 
L 240.250625 208.690761 
L 253.509125 210.668726 
L 258.812525 210.998818 
L 261.464225 210.676193 
L 264.115925 209.50493 
L 266.767625 207.66959 
L 270.119193 205.437406 
L 272.071025 204.374381 
L 274.722725 203.333274 
L 277.374425 202.713699 
L 280.026125 202.623788 
L 285.329525 203.341351 
L 287.981225 203.666835 
L 293.284625 203.927407 
L 301.239725 204.107154 
L 309.194825 204.299209 
L 314.498225 204.314003 
L 322.453325 204.543352 
L 327.756725 204.580047 
L 333.060125 204.611149 
L 343.666925 204.684702 
L 346.318625 204.704155 
M 346.318625 101.028033 
L 317.149925 100.250232 
L 303.891425 100.06828 
L 290.632925 99.930892 
L 242.902325 99.506195 
L 234.947225 99.035936 
L 226.992125 98.435973 
L 219.037025 97.64231 
L 213.733625 97.041426 
L 200.475125 95.063461 
L 195.171725 94.73337 
L 192.520025 95.055995 
L 189.868325 96.227258 
L 187.216625 98.062597 
L 183.865057 100.294781 
L 181.913225 101.357806 
L 179.261525 102.398913 
L 176.609825 103.018488 
L 173.958125 103.1084 
L 168.654725 102.390836 
L 166.003025 102.065353 
L 160.699625 101.804781 
L 152.744525 101.625034 
L 144.789425 101.432978 
L 139.486025 101.418185 
L 131.530925 101.188835 
L 126.227525 101.152141 
L 120.924125 101.121039 
L 110.317325 101.047485 
L 107.665625 101.028033 
L 107.665625 101.028033 
" clip-path="url(#pb97e23b9b6)" style="fill: none; stroke: #ffd000"/>
    <path d="M 107.665625 200.897451 
L 115.620725 201.130424 
L 123.575825 201.322569 
L 136.834325 201.668161 
L 155.396225 201.849266 
L 166.003025 201.989318 
L 184.564925 202.040884 
L 195.171725 202.154927 
L 208.430225 202.370276 
L 213.733625 202.641681 
L 232.295525 204.307413 
L 242.902325 205.880728 
L 250.857425 207.245148 
L 253.509125 207.525227 
L 256.160825 207.604441 
L 258.812525 207.35793 
L 261.464225 206.41941 
L 262.979451 205.437406 
L 264.115925 204.565601 
L 266.767625 202.3436 
L 269.419325 200.515536 
L 272.071025 199.38193 
L 274.722725 198.916752 
L 277.374425 198.925784 
L 287.981225 200.047751 
L 301.239725 200.304581 
L 346.318625 200.897451 
M 346.318625 104.834737 
L 338.363525 104.601764 
L 330.408425 104.409618 
L 317.149925 104.064026 
L 298.588025 103.882921 
L 287.981225 103.74287 
L 269.419325 103.691304 
L 258.812525 103.577261 
L 245.554025 103.361912 
L 240.250625 103.090506 
L 221.688725 101.424774 
L 211.081925 99.851459 
L 203.126825 98.487039 
L 200.475125 98.20696 
L 197.823425 98.127747 
L 195.171725 98.374258 
L 192.520025 99.312777 
L 191.004799 100.294781 
L 189.868325 101.166587 
L 187.216625 103.388588 
L 184.564925 105.216652 
L 181.913225 106.350258 
L 179.261525 106.815436 
L 176.609825 106.806404 
L 166.003025 105.684437 
L 152.744525 105.427607 
L 107.665625 104.834737 
L 107.665625 104.834737 
" clip-path="url(#pb97e23b9b6)" style="fill: none; stroke: #ffae00"/>
    <path d="M 107.665625 196.898845 
L 123.575825 197.30837 
L 142.137725 197.575898 
L 173.958125 197.861511 
L 184.564925 197.892555 
L 192.520025 198.000407 
L 200.475125 198.05173 
L 208.430225 198.366143 
L 213.733625 198.748434 
L 222.897606 199.596149 
L 226.992125 199.957499 
L 232.295525 200.713672 
L 240.250625 202.131831 
L 245.554025 202.962611 
L 250.857425 203.95531 
L 253.509125 204.135689 
L 256.160825 203.862593 
L 258.812525 202.967425 
L 259.588832 202.516778 
L 261.464225 201.15476 
L 264.115925 198.759728 
L 266.767625 196.655898 
L 269.419325 195.38385 
L 272.071025 194.88859 
L 274.722725 194.978443 
L 280.026125 195.690967 
L 282.677825 195.921102 
L 295.936325 196.230349 
L 303.891425 196.235002 
L 319.801625 196.516241 
L 325.105025 196.546488 
L 330.408425 196.583211 
L 336.981631 196.675521 
L 346.318625 196.898845 
M 346.318625 108.833342 
L 330.408425 108.423817 
L 311.846525 108.156289 
L 280.026125 107.870676 
L 269.419325 107.839633 
L 261.464225 107.73178 
L 253.509125 107.680457 
L 245.554025 107.366044 
L 240.250625 106.983753 
L 231.086644 106.136038 
L 226.992125 105.774688 
L 221.688725 105.018516 
L 213.733625 103.600356 
L 208.430225 102.769576 
L 203.126825 101.776877 
L 200.475125 101.596499 
L 197.823425 101.869595 
L 195.171725 102.764762 
L 194.395418 103.21541 
L 192.520025 104.577428 
L 189.868325 106.972459 
L 187.216625 109.076289 
L 184.564925 110.348337 
L 181.913225 110.843598 
L 179.261525 110.753744 
L 173.958125 110.041221 
L 171.306425 109.811085 
L 158.047925 109.501838 
L 150.092825 109.497186 
L 134.182625 109.215946 
L 128.879225 109.1857 
L 123.575825 109.148976 
L 117.002619 109.056667 
L 107.665625 108.833342 
L 107.665625 108.833342 
" clip-path="url(#pb97e23b9b6)" style="fill: none; stroke: #ff8d00"/>
    <path d="M 107.665625 192.497378 
L 134.182625 193.140812 
L 142.137725 193.136096 
L 168.654725 193.379493 
L 176.609825 193.363917 
L 203.132126 193.754892 
L 208.430225 194.112436 
L 221.688725 195.409035 
L 226.992125 196.088716 
L 232.295525 197.06418 
L 237.598925 198.127191 
L 250.857425 200.348456 
L 253.509125 200.261048 
L 256.160825 199.408242 
L 258.812525 197.469883 
L 259.660718 196.675521 
L 261.464225 194.730331 
L 264.115925 192.421673 
L 266.767625 191.230468 
L 269.419325 190.777638 
L 272.207964 190.834264 
L 277.374425 191.462918 
L 280.026125 191.593427 
L 293.284625 191.757037 
L 333.060125 192.161551 
L 341.015225 192.346381 
L 346.318625 192.497378 
M 346.318625 113.23481 
L 319.801625 112.591375 
L 311.846525 112.596092 
L 285.329525 112.352695 
L 277.374425 112.368271 
L 250.852124 111.977295 
L 245.554025 111.619751 
L 232.295525 110.323153 
L 226.992125 109.643472 
L 221.688725 108.668007 
L 216.385325 107.604997 
L 203.126825 105.383731 
L 200.475125 105.47114 
L 197.823425 106.323946 
L 195.171725 108.262305 
L 194.323532 109.056667 
L 192.520025 111.001857 
L 189.868325 113.310515 
L 187.216625 114.50172 
L 184.564925 114.95455 
L 181.776286 114.897924 
L 176.609825 114.26927 
L 173.958125 114.138761 
L 160.699625 113.975151 
L 120.924125 113.570636 
L 112.969025 113.385806 
L 107.665625 113.23481 
L 107.665625 113.23481 
" clip-path="url(#pb97e23b9b6)" style="fill: none; stroke: #ff6c00"/>
    <path d="M 107.665625 187.690812 
L 112.969025 187.756352 
L 120.924125 188.082224 
L 134.182625 188.253902 
L 142.137725 188.275119 
L 155.396225 188.510092 
L 189.868325 188.396919 
L 197.823425 188.742745 
L 203.126825 188.99807 
L 208.430225 189.518945 
L 216.385325 190.403713 
L 221.688725 191.067641 
L 226.992125 192.06181 
L 240.250625 194.73345 
L 245.554025 195.652272 
L 248.205725 196.023343 
L 250.857425 196.119038 
L 253.509125 195.490295 
L 256.160825 193.713232 
L 261.249283 187.913635 
L 261.464225 187.714684 
L 264.115925 186.560397 
L 266.767625 186.331665 
L 269.419325 186.41322 
L 274.722725 186.79485 
L 301.239725 186.880415 
L 306.543125 186.93829 
L 311.846525 186.878297 
L 319.801625 186.983493 
L 325.105025 187.124128 
L 330.408425 187.255395 
L 346.318625 187.690812 
M 346.318625 118.041376 
L 341.015225 117.975835 
L 333.060125 117.649963 
L 319.801625 117.478285 
L 311.846525 117.457069 
L 298.588025 117.222096 
L 264.115925 117.335268 
L 256.160825 116.989442 
L 250.857425 116.734118 
L 245.554025 116.213242 
L 237.598925 115.328474 
L 232.295525 114.664547 
L 226.992125 113.670377 
L 213.733625 110.998737 
L 208.430225 110.079915 
L 205.778525 109.708845 
L 203.126825 109.613149 
L 200.475125 110.241892 
L 197.823425 112.018956 
L 192.734967 117.818552 
L 192.520025 118.017504 
L 189.868325 119.171791 
L 187.216625 119.400522 
L 184.564925 119.318967 
L 179.261525 118.937337 
L 152.744525 118.851773 
L 147.441125 118.793898 
L 142.137725 118.85389 
L 134.182625 118.748695 
L 128.879225 118.608059 
L 123.575825 118.476792 
L 107.665625 118.041376 
L 107.665625 118.041376 
" clip-path="url(#pb97e23b9b6)" style="fill: none; stroke: #ff4e00"/>
    <path d="M 107.665625 182.256892 
L 120.924125 182.520755 
L 128.879225 182.646797 
L 136.834325 182.64499 
L 144.789425 182.825106 
L 179.261525 182.6783 
L 187.216625 182.691857 
L 192.520025 182.908173 
L 200.475125 183.471642 
L 205.778525 184.072364 
L 213.733625 185.118045 
L 216.385325 185.461992 
L 221.688725 186.494632 
L 234.947225 189.412538 
L 242.902325 191.040604 
L 245.554025 191.316873 
L 248.205725 191.301458 
L 250.857425 190.748353 
L 253.509125 189.044072 
L 254.570872 187.913635 
L 258.812525 182.766478 
L 260.049602 182.072378 
L 261.464225 181.47856 
L 264.115925 181.247193 
L 272.071025 181.601277 
L 280.026125 181.178165 
L 287.981225 181.270747 
L 295.936325 181.088102 
L 303.891425 181.317488 
L 311.846525 181.091746 
L 319.801625 181.364975 
L 330.408425 181.64788 
L 346.318625 182.256892 
M 346.318625 123.475296 
L 333.060125 123.211433 
L 325.105025 123.08539 
L 317.149925 123.087198 
L 309.194825 122.907082 
L 274.722725 123.053888 
L 266.767625 123.04033 
L 261.464225 122.824015 
L 253.509125 122.260545 
L 248.205725 121.659823 
L 240.250625 120.614142 
L 237.598925 120.270195 
L 232.295525 119.237555 
L 219.037025 116.319649 
L 211.081925 114.691583 
L 208.430225 114.415314 
L 205.778525 114.430729 
L 203.126825 114.983834 
L 200.475125 116.688115 
L 199.413378 117.818552 
L 195.171725 122.96571 
L 193.934648 123.659809 
L 192.520025 124.253627 
L 189.868325 124.484994 
L 181.913225 124.130911 
L 173.958125 124.554022 
L 166.003025 124.461441 
L 158.047925 124.644085 
L 150.092825 124.4147 
L 142.137725 124.640441 
L 134.182625 124.367213 
L 123.575825 124.084308 
L 107.665625 123.475296 
L 107.665625 123.475296 
" clip-path="url(#pb97e23b9b6)" style="fill: none; stroke: #ff2d00"/>
    <path d="M 107.665625 175.662393 
L 110.317325 175.766036 
L 115.620725 175.669652 
L 120.924125 175.899668 
L 128.879225 175.712726 
L 134.182625 175.764207 
L 139.486025 176.095743 
L 150.092825 176.088657 
L 160.699625 175.910991 
L 163.351325 175.939493 
L 168.654725 175.783704 
L 173.958125 175.780137 
L 179.261525 175.4356 
L 181.913225 175.465395 
L 189.868325 176.003596 
L 195.171725 176.421737 
L 203.126825 177.507428 
L 211.081925 178.87094 
L 219.037025 180.806677 
L 237.598925 185.233891 
L 240.250625 185.737241 
L 242.902325 186.058437 
L 245.554025 185.966944 
L 248.456838 184.993007 
L 250.857425 183.021403 
L 251.675377 182.072378 
L 253.762428 179.15175 
L 256.160825 176.618598 
L 257.211019 176.231122 
L 258.812525 175.778663 
L 264.115925 175.439381 
L 272.071025 174.928548 
L 277.374425 174.445029 
L 285.329525 174.286427 
L 293.284625 174.149609 
L 298.588025 174.361057 
L 301.239725 174.317661 
L 306.543125 174.062223 
L 309.194825 174.114757 
L 314.498225 174.455094 
L 322.453325 174.467839 
L 327.756725 174.862031 
L 343.666925 175.40906 
L 346.318625 175.662393 
M 346.318625 130.069794 
L 343.666925 129.966152 
L 338.363525 130.062536 
L 333.060125 129.83252 
L 325.105025 130.019462 
L 319.801625 129.967981 
L 314.498225 129.636445 
L 303.891425 129.643531 
L 293.284625 129.821197 
L 290.632925 129.792695 
L 285.329525 129.948484 
L 280.026125 129.95205 
L 274.722725 130.296588 
L 272.071025 130.266792 
L 264.115925 129.728592 
L 258.812525 129.310451 
L 250.857425 128.224759 
L 242.902325 126.861248 
L 234.947225 124.925511 
L 216.385325 120.498296 
L 213.733625 119.994946 
L 211.081925 119.673751 
L 208.430225 119.765243 
L 205.527412 120.739181 
L 203.126825 122.710784 
L 202.308873 123.659809 
L 200.221822 126.580438 
L 197.823425 129.113589 
L 196.773231 129.501066 
L 195.171725 129.953524 
L 189.868325 130.292806 
L 181.913225 130.803639 
L 176.609825 131.287159 
L 168.654725 131.445761 
L 160.699625 131.582579 
L 155.396225 131.371131 
L 152.744525 131.414527 
L 147.441125 131.669964 
L 144.789425 131.61743 
L 139.486025 131.277093 
L 131.530925 131.264349 
L 126.227525 130.870157 
L 110.317325 130.323128 
L 107.665625 130.069794 
L 107.665625 130.069794 
" clip-path="url(#pb97e23b9b6)" style="fill: none; stroke: #f60b00"/>
    <path d="M 107.665625 166.051143 
L 110.317325 165.837095 
L 115.620725 165.887181 
L 123.575825 165.900939 
L 128.879225 166.197408 
L 134.182625 166.106558 
L 136.834325 166.204457 
L 139.486025 166.148873 
L 142.137725 165.939164 
L 155.396225 165.687727 
L 158.047925 165.745211 
L 163.351325 165.484493 
L 168.654725 164.828521 
L 171.306425 164.73237 
L 181.913225 165.24598 
L 197.823425 168.104396 
L 203.126825 169.492096 
L 211.081925 171.833191 
L 216.385325 173.774192 
L 221.688725 175.200938 
L 226.992125 176.704051 
L 232.295525 178.334403 
L 235.565011 179.15175 
L 237.598925 179.521641 
L 240.250625 179.770303 
L 242.902325 179.554913 
L 243.931766 179.15175 
L 245.554025 178.22337 
L 247.397843 176.231122 
L 248.205725 175.002619 
L 249.153263 173.310493 
L 251.058987 170.389865 
L 253.509125 168.809909 
L 256.160825 168.262616 
L 258.812525 167.931303 
L 261.464225 167.307878 
L 264.115925 166.502382 
L 272.071025 165.129801 
L 277.374425 164.306849 
L 280.026125 163.831465 
L 282.677825 163.872853 
L 285.329525 164.143142 
L 287.981225 164.073454 
L 290.632925 163.766181 
L 295.936325 163.472928 
L 298.588025 163.523861 
L 303.891425 163.961353 
L 309.194825 163.92875 
L 317.149925 164.759001 
L 319.801625 164.844489 
L 325.105025 164.71965 
L 327.756725 164.942835 
L 330.408425 165.360177 
L 333.060125 165.559929 
L 335.711825 165.511411 
L 338.363525 165.625985 
L 341.015225 165.984779 
L 343.666925 166.194376 
L 346.318625 166.051143 
M 346.318625 139.681044 
L 343.666925 139.895093 
L 338.363525 139.845007 
L 330.408425 139.831249 
L 325.105025 139.53478 
L 319.801625 139.62563 
L 317.149925 139.52773 
L 314.498225 139.583315 
L 311.846525 139.793024 
L 298.588025 140.044461 
L 295.936325 139.986976 
L 290.632925 140.247695 
L 285.329525 140.903667 
L 282.677825 140.999818 
L 272.071025 140.486208 
L 256.160825 137.627792 
L 250.857425 136.240092 
L 242.902325 133.898996 
L 237.598925 131.957995 
L 232.295525 130.53125 
L 226.992125 129.028136 
L 221.688725 127.397784 
L 218.419239 126.580438 
L 216.385325 126.210547 
L 213.733625 125.961884 
L 211.081925 126.177274 
L 210.052484 126.580438 
L 208.430225 127.508818 
L 206.586407 129.501066 
L 205.778525 130.729568 
L 204.830987 132.421694 
L 202.925263 135.342323 
L 200.475125 136.922279 
L 197.823425 137.469571 
L 195.171725 137.800884 
L 192.520025 138.42431 
L 189.868325 139.229806 
L 181.913225 140.602386 
L 176.609825 141.425338 
L 173.958125 141.900723 
L 171.306425 141.859334 
L 168.654725 141.589045 
L 166.003025 141.658733 
L 163.351325 141.966006 
L 158.047925 142.259259 
L 155.396225 142.208327 
L 150.092825 141.770834 
L 144.789425 141.803437 
L 136.834325 140.973187 
L 134.182625 140.887698 
L 128.879225 141.012537 
L 126.227525 140.789352 
L 123.575825 140.372011 
L 120.924125 140.172259 
L 118.272425 140.220776 
L 115.620725 140.106202 
L 112.969025 139.747409 
L 110.317325 139.537811 
L 107.665625 139.681044 
L 107.665625 139.681044 
" clip-path="url(#pb97e23b9b6)" style="fill: none; stroke: #cd0000"/>
    <path d="M 232.295525 171.069927 
L 234.947225 171.64211 
L 237.598925 171.577008 
L 240.046282 170.389865 
L 240.250625 170.216515 
L 241.931571 167.469236 
L 242.895588 164.548608 
L 242.902325 164.519037 
L 243.818174 161.627979 
L 245.307937 158.707351 
L 245.554025 158.273531 
L 247.572611 155.786722 
L 248.205725 153.570401 
L 248.403474 152.866094 
L 248.205725 152.070298 
L 247.725646 149.945465 
L 245.619131 147.024837 
L 245.554025 146.97244 
L 242.902325 144.961122 
L 241.732688 144.104208 
L 240.250625 143.301032 
L 237.598925 141.873244 
L 236.330573 141.18358 
L 234.947225 140.618412 
L 232.295525 139.402963 
L 230.06321 138.262951 
L 229.643825 138.090312 
L 226.992125 136.841245 
L 224.340425 135.616547 
L 223.635484 135.342323 
L 221.688725 134.66226 
L 219.037025 134.090078 
L 216.385325 134.15518 
L 213.937968 135.342323 
L 213.733625 135.515672 
L 212.052679 138.262951 
L 211.088662 141.18358 
L 211.081925 141.21315 
L 210.166076 144.104208 
L 208.676313 147.024837 
L 208.430225 147.458657 
L 206.411639 149.945465 
L 205.778525 152.161786 
L 205.580776 152.866094 
L 205.778525 153.66189 
L 206.258604 155.786722 
L 208.365119 158.707351 
L 208.430225 158.759747 
L 211.081925 160.771065 
L 212.251562 161.627979 
L 213.733625 162.431155 
L 216.385325 163.858944 
L 217.653677 164.548608 
L 219.037025 165.113775 
L 221.688725 166.329225 
L 223.92104 167.469236 
L 224.340425 167.641875 
L 226.992125 168.890943 
L 229.643825 170.11564 
L 230.348766 170.389865 
L 232.295525 171.069927 
z
" clip-path="url(#pb97e23b9b6)" style="fill: none; stroke: #a40000"/>
    <path clip-path="url(#pb97e23b9b6)" style="fill: none; stroke: #800000"/>
   </g>
   <g id="patch_3">
    <path d="M 107.665625 284.294375 
L 107.665625 21.437813 
" style="fill: none; stroke: #000000; stroke-width: 0.8; stroke-linejoin: miter; stroke-linecap: square"/>
   </g>
   <g id="patch_4">
    <path d="M 107.665625 284.294375 
L 346.318625 284.294375 
" style="fill: none; stroke: #000000; stroke-width: 0.8; stroke-linejoin: miter; stroke-linecap: square"/>
   </g>
  </g>
  <g id="axes_2">
   <g id="patch_5">
    <path d="M 361.234437 284.294375 
L 374.377266 284.294375 
L 374.377266 21.437813 
L 361.234437 21.437813 
z
" style="fill: #ffffff"/>
   </g>
   <g id="matplotlib.axis_3"/>
   <g id="matplotlib.axis_4">
    <g id="ytick_6">
     <g id="line2d_11">
      <defs>
       <path id="mc00a6d88d4" d="M 0 0 
L 3.5 0 
" style="stroke: #000000; stroke-width: 0.8"/>
      </defs>
      <g>
       <use xlink:href="#mc00a6d88d4" x="374.377266" y="245.824047" style="stroke: #000000; stroke-width: 0.8"/>
      </g>
     </g>
     <g id="text_13">
      <!-- 0.38 -->
      <g transform="translate(381.377266 252.662641) scale(0.18 -0.18)">
       <defs>
        <path id="DejaVuSerif-2e" d="M 603 325 
Q 603 500 722 622 
Q 841 744 1019 744 
Q 1191 744 1312 622 
Q 1434 500 1434 325 
Q 1434 153 1312 31 
Q 1191 -91 1019 -91 
Q 841 -91 722 29 
Q 603 150 603 325 
z
" transform="scale(0.015625)"/>
        <path id="DejaVuSerif-33" d="M 622 4469 
Q 988 4606 1323 4678 
Q 1659 4750 1953 4750 
Q 2638 4750 3022 4454 
Q 3406 4159 3406 3634 
Q 3406 3213 3140 2930 
Q 2875 2647 2388 2547 
Q 2963 2466 3280 2130 
Q 3597 1794 3597 1259 
Q 3597 606 3158 257 
Q 2719 -91 1894 -91 
Q 1528 -91 1179 -12 
Q 831 66 488 225 
L 488 1131 
L 838 1131 
Q 869 681 1141 450 
Q 1413 219 1906 219 
Q 2384 219 2661 495 
Q 2938 772 2938 1253 
Q 2938 1803 2653 2086 
Q 2369 2369 1819 2369 
L 1522 2369 
L 1522 2688 
L 1678 2688 
Q 2225 2688 2498 2914 
Q 2772 3141 2772 3597 
Q 2772 4006 2547 4223 
Q 2322 4441 1900 4441 
Q 1478 4441 1245 4241 
Q 1013 4041 972 3647 
L 622 3647 
L 622 4469 
z
" transform="scale(0.015625)"/>
        <path id="DejaVuSerif-38" d="M 2981 1275 
Q 2981 1775 2732 2051 
Q 2484 2328 2034 2328 
Q 1584 2328 1336 2051 
Q 1088 1775 1088 1275 
Q 1088 772 1336 495 
Q 1584 219 2034 219 
Q 2484 219 2732 495 
Q 2981 772 2981 1275 
z
M 2853 3541 
Q 2853 3966 2637 4203 
Q 2422 4441 2034 4441 
Q 1650 4441 1433 4203 
Q 1216 3966 1216 3541 
Q 1216 3113 1433 2875 
Q 1650 2638 2034 2638 
Q 2422 2638 2637 2875 
Q 2853 3113 2853 3541 
z
M 2516 2484 
Q 3047 2413 3344 2092 
Q 3641 1772 3641 1275 
Q 3641 619 3225 264 
Q 2809 -91 2034 -91 
Q 1263 -91 845 264 
Q 428 619 428 1275 
Q 428 1772 725 2092 
Q 1022 2413 1556 2484 
Q 1084 2569 832 2842 
Q 581 3116 581 3541 
Q 581 4103 968 4426 
Q 1356 4750 2034 4750 
Q 2713 4750 3100 4426 
Q 3488 4103 3488 3541 
Q 3488 3116 3236 2842 
Q 2984 2569 2516 2484 
z
" transform="scale(0.015625)"/>
       </defs>
       <use xlink:href="#DejaVuSerif-30"/>
       <use xlink:href="#DejaVuSerif-2e" x="63.623047"/>
       <use xlink:href="#DejaVuSerif-33" x="95.410156"/>
       <use xlink:href="#DejaVuSerif-38" x="159.033203"/>
      </g>
     </g>
    </g>
    <g id="ytick_7">
     <g id="line2d_12">
      <g>
       <use xlink:href="#mc00a6d88d4" x="374.377266" y="203.078941" style="stroke: #000000; stroke-width: 0.8"/>
      </g>
     </g>
     <g id="text_14">
      <!-- 0.40 -->
      <g transform="translate(381.377266 209.917535) scale(0.18 -0.18)">
       <defs>
        <path id="DejaVuSerif-34" d="M 2234 1581 
L 2234 4063 
L 641 1581 
L 2234 1581 
z
M 3609 0 
L 1484 0 
L 1484 331 
L 2234 331 
L 2234 1247 
L 197 1247 
L 197 1588 
L 2241 4750 
L 2859 4750 
L 2859 1581 
L 3750 1581 
L 3750 1247 
L 2859 1247 
L 2859 331 
L 3609 331 
L 3609 0 
z
" transform="scale(0.015625)"/>
       </defs>
       <use xlink:href="#DejaVuSerif-30"/>
       <use xlink:href="#DejaVuSerif-2e" x="63.623047"/>
       <use xlink:href="#DejaVuSerif-34" x="95.410156"/>
       <use xlink:href="#DejaVuSerif-30" x="159.033203"/>
      </g>
     </g>
    </g>
    <g id="ytick_8">
     <g id="line2d_13">
      <g>
       <use xlink:href="#mc00a6d88d4" x="374.377266" y="160.333834" style="stroke: #000000; stroke-width: 0.8"/>
      </g>
     </g>
     <g id="text_15">
      <!-- 0.42 -->
      <g transform="translate(381.377266 167.172428) scale(0.18 -0.18)">
       <defs>
        <path id="DejaVuSerif-32" d="M 819 3553 
L 469 3553 
L 469 4384 
Q 803 4563 1142 4656 
Q 1481 4750 1806 4750 
Q 2534 4750 2956 4397 
Q 3378 4044 3378 3438 
Q 3378 2753 2422 1800 
Q 2347 1728 2309 1691 
L 1131 513 
L 3078 513 
L 3078 1088 
L 3444 1088 
L 3444 0 
L 434 0 
L 434 341 
L 1850 1753 
Q 2319 2222 2519 2614 
Q 2719 3006 2719 3438 
Q 2719 3909 2473 4175 
Q 2228 4441 1797 4441 
Q 1350 4441 1106 4219 
Q 863 3997 819 3553 
z
" transform="scale(0.015625)"/>
       </defs>
       <use xlink:href="#DejaVuSerif-30"/>
       <use xlink:href="#DejaVuSerif-2e" x="63.623047"/>
       <use xlink:href="#DejaVuSerif-34" x="95.410156"/>
       <use xlink:href="#DejaVuSerif-32" x="159.033203"/>
      </g>
     </g>
    </g>
    <g id="ytick_9">
     <g id="line2d_14">
      <g>
       <use xlink:href="#mc00a6d88d4" x="374.377266" y="117.588728" style="stroke: #000000; stroke-width: 0.8"/>
      </g>
     </g>
     <g id="text_16">
      <!-- 0.44 -->
      <g transform="translate(381.377266 124.427321) scale(0.18 -0.18)">
       <use xlink:href="#DejaVuSerif-30"/>
       <use xlink:href="#DejaVuSerif-2e" x="63.623047"/>
       <use xlink:href="#DejaVuSerif-34" x="95.410156"/>
       <use xlink:href="#DejaVuSerif-34" x="159.033203"/>
      </g>
     </g>
    </g>
    <g id="ytick_10">
     <g id="line2d_15">
      <g>
       <use xlink:href="#mc00a6d88d4" x="374.377266" y="74.843621" style="stroke: #000000; stroke-width: 0.8"/>
      </g>
     </g>
     <g id="text_17">
      <!-- 0.46 -->
      <g transform="translate(381.377266 81.682215) scale(0.18 -0.18)">
       <defs>
        <path id="DejaVuSerif-36" d="M 2094 219 
Q 2534 219 2771 542 
Q 3009 866 3009 1472 
Q 3009 2078 2771 2401 
Q 2534 2725 2094 2725 
Q 1647 2725 1412 2412 
Q 1178 2100 1178 1509 
Q 1178 888 1415 553 
Q 1653 219 2094 219 
z
M 1075 2569 
Q 1288 2803 1556 2918 
Q 1825 3034 2163 3034 
Q 2859 3034 3264 2615 
Q 3669 2197 3669 1472 
Q 3669 763 3233 336 
Q 2797 -91 2069 -91 
Q 1278 -91 853 498 
Q 428 1088 428 2181 
Q 428 3406 931 4078 
Q 1434 4750 2350 4750 
Q 2597 4750 2869 4703 
Q 3141 4656 3425 4563 
L 3425 3794 
L 3072 3794 
Q 3034 4109 2831 4275 
Q 2628 4441 2284 4441 
Q 1678 4441 1381 3981 
Q 1084 3522 1075 2569 
z
" transform="scale(0.015625)"/>
       </defs>
       <use xlink:href="#DejaVuSerif-30"/>
       <use xlink:href="#DejaVuSerif-2e" x="63.623047"/>
       <use xlink:href="#DejaVuSerif-34" x="95.410156"/>
       <use xlink:href="#DejaVuSerif-36" x="159.033203"/>
      </g>
     </g>
    </g>
    <g id="ytick_11">
     <g id="line2d_16">
      <g>
       <use xlink:href="#mc00a6d88d4" x="374.377266" y="32.098515" style="stroke: #000000; stroke-width: 0.8"/>
      </g>
     </g>
     <g id="text_18">
      <!-- 0.48 -->
      <g transform="translate(381.377266 38.937108) scale(0.18 -0.18)">
       <use xlink:href="#DejaVuSerif-30"/>
       <use xlink:href="#DejaVuSerif-2e" x="63.623047"/>
       <use xlink:href="#DejaVuSerif-34" x="95.410156"/>
       <use xlink:href="#DejaVuSerif-38" x="159.033203"/>
      </g>
     </g>
    </g>
   </g>
   <g id="LineCollection_1"/>
   <g id="LineCollection_2">
    <path d="M 361.234437 284.294375 
L 374.377266 284.294375 
" clip-path="url(#p21130634ee)" style="fill: none; stroke: #000080"/>
    <path d="M 361.234437 275.230356 
L 374.377266 275.230356 
" clip-path="url(#p21130634ee)" style="fill: none; stroke: #0000a4"/>
    <path d="M 361.234437 266.166336 
L 374.377266 266.166336 
" clip-path="url(#p21130634ee)" style="fill: none; stroke: #0000cd"/>
    <path d="M 361.234437 257.102317 
L 374.377266 257.102317 
" clip-path="url(#p21130634ee)" style="fill: none; stroke: #0000f6"/>
    <path d="M 361.234437 248.038297 
L 374.377266 248.038297 
" clip-path="url(#p21130634ee)" style="fill: none; stroke: #000cff"/>
    <path d="M 361.234437 238.974278 
L 374.377266 238.974278 
" clip-path="url(#p21130634ee)" style="fill: none; stroke: #0030ff"/>
    <path d="M 361.234437 229.910259 
L 374.377266 229.910259 
" clip-path="url(#p21130634ee)" style="fill: none; stroke: #0050ff"/>
    <path d="M 361.234437 220.846239 
L 374.377266 220.846239 
" clip-path="url(#p21130634ee)" style="fill: none; stroke: #0074ff"/>
    <path d="M 361.234437 211.78222 
L 374.377266 211.78222 
" clip-path="url(#p21130634ee)" style="fill: none; stroke: #0098ff"/>
    <path d="M 361.234437 202.7182 
L 374.377266 202.7182 
" clip-path="url(#p21130634ee)" style="fill: none; stroke: #00bcff"/>
    <path d="M 361.234437 193.654181 
L 374.377266 193.654181 
" clip-path="url(#p21130634ee)" style="fill: none; stroke: #00e0fb"/>
    <path d="M 361.234437 184.590162 
L 374.377266 184.590162 
" clip-path="url(#p21130634ee)" style="fill: none; stroke: #19ffde"/>
    <path d="M 361.234437 175.526142 
L 374.377266 175.526142 
" clip-path="url(#p21130634ee)" style="fill: none; stroke: #33ffc4"/>
    <path d="M 361.234437 166.462123 
L 374.377266 166.462123 
" clip-path="url(#p21130634ee)" style="fill: none; stroke: #50ffa7"/>
    <path d="M 361.234437 157.398103 
L 374.377266 157.398103 
" clip-path="url(#p21130634ee)" style="fill: none; stroke: #6dff8a"/>
    <path d="M 361.234437 148.334084 
L 374.377266 148.334084 
" clip-path="url(#p21130634ee)" style="fill: none; stroke: #8aff6d"/>
    <path d="M 361.234437 139.270065 
L 374.377266 139.270065 
" clip-path="url(#p21130634ee)" style="fill: none; stroke: #a7ff50"/>
    <path d="M 361.234437 130.206045 
L 374.377266 130.206045 
" clip-path="url(#p21130634ee)" style="fill: none; stroke: #c4ff33"/>
    <path d="M 361.234437 121.142026 
L 374.377266 121.142026 
" clip-path="url(#p21130634ee)" style="fill: none; stroke: #deff19"/>
    <path d="M 361.234437 112.078006 
L 374.377266 112.078006 
" clip-path="url(#p21130634ee)" style="fill: none; stroke: #fbf100"/>
    <path d="M 361.234437 103.013987 
L 374.377266 103.013987 
" clip-path="url(#p21130634ee)" style="fill: none; stroke: #ffd000"/>
    <path d="M 361.234437 93.949968 
L 374.377266 93.949968 
" clip-path="url(#p21130634ee)" style="fill: none; stroke: #ffae00"/>
    <path d="M 361.234437 84.885948 
L 374.377266 84.885948 
" clip-path="url(#p21130634ee)" style="fill: none; stroke: #ff8d00"/>
    <path d="M 361.234437 75.821929 
L 374.377266 75.821929 
" clip-path="url(#p21130634ee)" style="fill: none; stroke: #ff6c00"/>
    <path d="M 361.234437 66.757909 
L 374.377266 66.757909 
" clip-path="url(#p21130634ee)" style="fill: none; stroke: #ff4e00"/>
    <path d="M 361.234437 57.69389 
L 374.377266 57.69389 
" clip-path="url(#p21130634ee)" style="fill: none; stroke: #ff2d00"/>
    <path d="M 361.234437 48.629871 
L 374.377266 48.629871 
" clip-path="url(#p21130634ee)" style="fill: none; stroke: #f60b00"/>
    <path d="M 361.234437 39.565851 
L 374.377266 39.565851 
" clip-path="url(#p21130634ee)" style="fill: none; stroke: #cd0000"/>
    <path d="M 361.234437 30.501832 
L 374.377266 30.501832 
" clip-path="url(#p21130634ee)" style="fill: none; stroke: #a40000"/>
    <path d="M 361.234437 21.437813 
L 374.377266 21.437813 
" clip-path="url(#p21130634ee)" style="fill: none; stroke: #800000"/>
   </g>
   <g id="patch_6">
    <path d="M 361.234437 284.294375 
L 367.805852 284.294375 
L 374.377266 284.294375 
L 374.377266 21.437813 
L 367.805852 21.437813 
L 361.234437 21.437813 
L 361.234437 284.294375 
z
" style="fill: none; stroke: #000000; stroke-width: 0.8; stroke-linejoin: miter; stroke-linecap: square"/>
   </g>
  </g>
 </g>
 <defs>
  <clipPath id="pb97e23b9b6">
   <rect x="107.665625" y="21.437813" width="238.653" height="262.856562"/>
  </clipPath>
  <clipPath id="p21130634ee">
   <path d="M 361.234437 285.242631 
L 374.377266 285.242631 
L 374.377266 20.489557 
L 361.234437 20.489557 
z
"/>
  </clipPath>
 </defs>
</svg>
