<?xml version="1.0" encoding="utf-8" standalone="no"?>
<!DOCTYPE svg PUBLIC "-//W3C//DTD SVG 1.1//EN"
  "http://www.w3.org/Graphics/SVG/1.1/DTD/svg11.dtd">
<svg xmlns:xlink="http://www.w3.org/1999/xlink" width="432pt" height="360pt" viewBox="0 0 432 360" xmlns="http://www.w3.org/2000/svg" version="1.1">
 <metadata>
  <rdf:RDF xmlns:dc="http://purl.org/dc/elements/1.1/" xmlns:cc="http://creativecommons.org/ns#" xmlns:rdf="http://www.w3.org/1999/02/22-rdf-syntax-ns#">
   <cc:Work>
    <dc:type rdf:resource="http://purl.org/dc/dcmitype/StillImage"/>
    <dc:date>2025-03-15T07:53:08.836638</dc:date>
    <dc:format>image/svg+xml</dc:format>
    <dc:creator>
     <cc:Agent>
      <dc:title>Matplotlib v3.9.2, https://matplotlib.org/</dc:title>
     </cc:Agent>
    </dc:creator>
   </cc:Work>
  </rdf:RDF>
 </metadata>
 <defs>
  <style type="text/css">*{stroke-linejoin: round; stroke-linecap: butt}</style>
 </defs>
 <g id="figure_1">
  <g id="patch_1">
   <path d="M 0 360 
L 432 360 
L 432 0 
L 0 0 
z
" style="fill: #ffffff"/>
  </g>
  <g id="axes_1">
   <g id="patch_2">
    <path d="M 107.665625 284.294375 
L 346.318625 284.294375 
L 346.318625 21.437813 
L 107.665625 21.437813 
z
" style="fill: #ffffff"/>
   </g>
   <g id="matplotlib.axis_1">
    <g id="xtick_1">
     <g id="line2d_1">
      <defs>
       <path id="ma1344b9e3b" d="M 0 0 
L 0 3.5 
" style="stroke: #000000; stroke-width: 0.8"/>
      </defs>
      <g>
       <use xlink:href="#ma1344b9e3b" x="107.665625" y="284.294375" style="stroke: #000000; stroke-width: 0.8"/>
      </g>
     </g>
     <g id="text_1">
      <!-- 0 -->
      <g transform="translate(98.758125 312.57) scale(0.28 -0.28)">
       <defs>
        <path id="DejaVuSerif-30" d="M 2034 219 
Q 2513 219 2750 744 
Q 2988 1269 2988 2328 
Q 2988 3391 2750 3916 
Q 2513 4441 2034 4441 
Q 1556 4441 1318 3916 
Q 1081 3391 1081 2328 
Q 1081 1269 1318 744 
Q 1556 219 2034 219 
z
M 2034 -91 
Q 1275 -91 848 546 
Q 422 1184 422 2328 
Q 422 3475 848 4112 
Q 1275 4750 2034 4750 
Q 2797 4750 3222 4112 
Q 3647 3475 3647 2328 
Q 3647 1184 3222 546 
Q 2797 -91 2034 -91 
z
" transform="scale(0.015625)"/>
       </defs>
       <use xlink:href="#DejaVuSerif-30"/>
      </g>
     </g>
    </g>
    <g id="xtick_2">
     <g id="line2d_2">
      <g>
       <use xlink:href="#ma1344b9e3b" x="167.328875" y="284.294375" style="stroke: #000000; stroke-width: 0.8"/>
      </g>
     </g>
     <g id="text_2">
      <!-- $\pi/2$ -->
      <g transform="translate(145.348875 312.294375) scale(0.28 -0.28)">
       <defs>
        <path id="Cmmi10-bc" d="M 647 109 
Q 647 144 672 213 
Q 850 584 1004 942 
Q 1159 1300 1282 1639 
Q 1406 1978 1509 2363 
L 1100 2363 
Q 866 2363 662 2216 
Q 459 2069 325 1844 
Q 313 1819 288 1819 
L 213 1819 
Q 153 1819 153 1881 
Q 153 1894 166 1919 
Q 375 2275 614 2517 
Q 853 2759 1153 2759 
L 3475 2759 
Q 3541 2759 3587 2715 
Q 3634 2672 3634 2597 
Q 3634 2503 3567 2433 
Q 3500 2363 3406 2363 
L 2591 2363 
Q 2488 1859 2478 1381 
Q 2478 766 2694 269 
Q 2713 231 2713 191 
Q 2713 122 2672 62 
Q 2631 3 2567 -34 
Q 2503 -72 2431 -72 
Q 2263 -72 2200 203 
Q 2138 478 2138 738 
Q 2138 1103 2200 1442 
Q 2263 1781 2400 2363 
L 1703 2363 
Q 1197 313 1094 103 
Q 1003 -72 844 -72 
Q 766 -72 706 -20 
Q 647 31 647 109 
z
" transform="scale(0.015625)"/>
        <path id="Cmmi10-3d" d="M 359 -1472 
Q 359 -1453 366 -1447 
L 2591 4722 
Q 2603 4759 2634 4779 
Q 2666 4800 2706 4800 
Q 2763 4800 2798 4765 
Q 2834 4731 2834 4672 
L 2834 4647 
L 609 -1522 
Q 572 -1600 488 -1600 
Q 434 -1600 396 -1562 
Q 359 -1525 359 -1472 
z
" transform="scale(0.015625)"/>
        <path id="Cmr10-32" d="M 319 0 
L 319 172 
Q 319 188 331 206 
L 1325 1306 
Q 1550 1550 1690 1715 
Q 1831 1881 1968 2097 
Q 2106 2313 2186 2536 
Q 2266 2759 2266 3009 
Q 2266 3272 2169 3511 
Q 2072 3750 1880 3894 
Q 1688 4038 1416 4038 
Q 1138 4038 916 3870 
Q 694 3703 603 3438 
Q 628 3444 672 3444 
Q 816 3444 917 3347 
Q 1019 3250 1019 3097 
Q 1019 2950 917 2848 
Q 816 2747 672 2747 
Q 522 2747 420 2851 
Q 319 2956 319 3097 
Q 319 3338 409 3548 
Q 500 3759 670 3923 
Q 841 4088 1055 4175 
Q 1269 4263 1509 4263 
Q 1875 4263 2190 4108 
Q 2506 3953 2690 3670 
Q 2875 3388 2875 3009 
Q 2875 2731 2753 2481 
Q 2631 2231 2440 2026 
Q 2250 1822 1953 1562 
Q 1656 1303 1563 1216 
L 838 519 
L 1453 519 
Q 1906 519 2211 526 
Q 2516 534 2534 550 
Q 2609 631 2688 1141 
L 2875 1141 
L 2694 0 
L 319 0 
z
" transform="scale(0.015625)"/>
       </defs>
       <use xlink:href="#Cmmi10-bc"/>
       <use xlink:href="#Cmmi10-3d" transform="translate(56.982422 0)"/>
       <use xlink:href="#Cmr10-32" transform="translate(106.982422 0)"/>
      </g>
     </g>
    </g>
    <g id="xtick_3">
     <g id="line2d_3">
      <g>
       <use xlink:href="#ma1344b9e3b" x="226.992125" y="284.294375" style="stroke: #000000; stroke-width: 0.8"/>
      </g>
     </g>
     <g id="text_3">
      <!-- $\pi$ -->
      <g transform="translate(219.012125 312.57) scale(0.28 -0.28)">
       <use xlink:href="#Cmmi10-bc" transform="translate(0 0.890625)"/>
      </g>
     </g>
    </g>
    <g id="xtick_4">
     <g id="line2d_4">
      <g>
       <use xlink:href="#ma1344b9e3b" x="286.655375" y="284.294375" style="stroke: #000000; stroke-width: 0.8"/>
      </g>
     </g>
     <g id="text_4">
      <!-- $3\pi/2$ -->
      <g transform="translate(257.675375 312.294375) scale(0.28 -0.28)">
       <defs>
        <path id="Cmr10-33" d="M 609 494 
Q 759 275 1012 169 
Q 1266 63 1556 63 
Q 1928 63 2084 380 
Q 2241 697 2241 1100 
Q 2241 1281 2208 1462 
Q 2175 1644 2097 1800 
Q 2019 1956 1883 2050 
Q 1747 2144 1550 2144 
L 1125 2144 
Q 1069 2144 1069 2203 
L 1069 2259 
Q 1069 2309 1125 2309 
L 1478 2338 
Q 1703 2338 1851 2506 
Q 2000 2675 2069 2917 
Q 2138 3159 2138 3378 
Q 2138 3684 1994 3881 
Q 1850 4078 1556 4078 
Q 1313 4078 1091 3986 
Q 869 3894 738 3706 
Q 750 3709 759 3711 
Q 769 3713 781 3713 
Q 925 3713 1022 3613 
Q 1119 3513 1119 3372 
Q 1119 3234 1022 3134 
Q 925 3034 781 3034 
Q 641 3034 541 3134 
Q 441 3234 441 3372 
Q 441 3647 606 3850 
Q 772 4053 1033 4158 
Q 1294 4263 1556 4263 
Q 1750 4263 1965 4205 
Q 2181 4147 2356 4039 
Q 2531 3931 2642 3762 
Q 2753 3594 2753 3378 
Q 2753 3109 2633 2881 
Q 2513 2653 2303 2487 
Q 2094 2322 1844 2241 
Q 2122 2188 2372 2031 
Q 2622 1875 2773 1631 
Q 2925 1388 2925 1106 
Q 2925 753 2731 467 
Q 2538 181 2222 20 
Q 1906 -141 1556 -141 
Q 1256 -141 954 -26 
Q 653 88 461 316 
Q 269 544 269 863 
Q 269 1022 375 1128 
Q 481 1234 641 1234 
Q 744 1234 830 1186 
Q 916 1138 964 1050 
Q 1013 963 1013 863 
Q 1013 706 903 600 
Q 794 494 641 494 
L 609 494 
z
" transform="scale(0.015625)"/>
       </defs>
       <use xlink:href="#Cmr10-33"/>
       <use xlink:href="#Cmmi10-bc" transform="translate(50 0)"/>
       <use xlink:href="#Cmmi10-3d" transform="translate(106.982422 0)"/>
       <use xlink:href="#Cmr10-32" transform="translate(156.982422 0)"/>
      </g>
     </g>
    </g>
    <g id="xtick_5">
     <g id="line2d_5">
      <g>
       <use xlink:href="#ma1344b9e3b" x="346.318625" y="284.294375" style="stroke: #000000; stroke-width: 0.8"/>
      </g>
     </g>
     <g id="text_5">
      <!-- $2\pi$ -->
      <g transform="translate(331.338625 312.57) scale(0.28 -0.28)">
       <use xlink:href="#Cmr10-32" transform="translate(0 0.390625)"/>
       <use xlink:href="#Cmmi10-bc" transform="translate(50 0.390625)"/>
      </g>
     </g>
    </g>
    <g id="text_6">
     <!-- $\zeta_{\mathrm{Boozer}}$ -->
     <g transform="translate(182.792125 342.06) scale(0.34 -0.34)">
      <defs>
       <path id="Cmmi10-b3" d="M 1131 -997 
Q 1147 -922 1222 -922 
Q 1234 -922 1332 -986 
Q 1431 -1050 1542 -1098 
Q 1653 -1147 1784 -1147 
Q 1922 -1147 2014 -1019 
Q 2106 -891 2106 -744 
Q 2106 -597 2009 -494 
Q 1913 -391 1766 -341 
L 1113 -122 
Q 713 16 503 317 
Q 294 619 294 1050 
Q 294 1416 426 1831 
Q 559 2247 793 2637 
Q 1028 3028 1334 3339 
Q 1641 3650 1972 3822 
Q 1906 3953 1906 4128 
Q 1906 4475 2041 4475 
Q 2075 4475 2100 4450 
Q 2125 4425 2125 4391 
Q 2125 4344 2109 4245 
Q 2094 4147 2094 4122 
Q 2094 4006 2131 3897 
Q 2297 3963 2438 3963 
Q 3028 3963 3028 3781 
Q 3028 3566 2375 3566 
Q 2181 3566 2069 3681 
Q 1794 3525 1539 3244 
Q 1284 2963 1087 2613 
Q 891 2263 781 1906 
Q 672 1550 672 1228 
Q 672 538 1300 319 
L 1984 91 
Q 2200 25 2336 -139 
Q 2472 -303 2472 -531 
Q 2472 -716 2378 -898 
Q 2284 -1081 2125 -1197 
Q 1966 -1313 1772 -1313 
Q 1619 -1313 1375 -1211 
Q 1131 -1109 1131 -997 
z
M 2247 3763 
Q 2241 3763 2303 3738 
Q 2331 3738 2348 3736 
Q 2366 3734 2388 3731 
Q 2694 3731 2828 3769 
Q 2706 3794 2438 3794 
Q 2350 3794 2247 3763 
z
" transform="scale(0.015625)"/>
       <path id="Cmr10-42" d="M 219 0 
L 219 225 
Q 878 225 878 428 
L 878 3944 
Q 878 4147 219 4147 
L 219 4372 
L 2572 4372 
Q 2897 4372 3228 4245 
Q 3559 4119 3776 3870 
Q 3994 3622 3994 3284 
Q 3994 2894 3673 2630 
Q 3353 2366 2925 2284 
Q 3203 2284 3497 2131 
Q 3791 1978 3978 1722 
Q 4166 1466 4166 1178 
Q 4166 828 3958 559 
Q 3750 291 3419 145 
Q 3088 0 2753 0 
L 219 0 
z
M 1434 428 
Q 1434 291 1512 258 
Q 1591 225 1759 225 
L 2572 225 
Q 2822 225 3036 356 
Q 3250 488 3375 708 
Q 3500 928 3500 1178 
Q 3500 1422 3397 1655 
Q 3294 1888 3101 2038 
Q 2909 2188 2663 2188 
L 1434 2188 
L 1434 428 
z
M 1434 2356 
L 2394 2356 
Q 2588 2356 2758 2426 
Q 2928 2497 3064 2630 
Q 3200 2763 3273 2930 
Q 3347 3097 3347 3284 
Q 3347 3450 3292 3603 
Q 3238 3756 3131 3881 
Q 3025 4006 2881 4076 
Q 2738 4147 2572 4147 
L 1759 4147 
Q 1644 4147 1580 4137 
Q 1516 4128 1475 4083 
Q 1434 4038 1434 3944 
L 1434 2356 
z
" transform="scale(0.015625)"/>
       <path id="Cmr10-6f" d="M 1600 -72 
Q 1216 -72 887 123 
Q 559 319 368 647 
Q 178 975 178 1363 
Q 178 1656 283 1928 
Q 388 2200 583 2414 
Q 778 2628 1037 2748 
Q 1297 2869 1600 2869 
Q 1994 2869 2317 2661 
Q 2641 2453 2828 2104 
Q 3016 1756 3016 1363 
Q 3016 978 2825 648 
Q 2634 319 2307 123 
Q 1981 -72 1600 -72 
z
M 1600 116 
Q 2113 116 2284 487 
Q 2456 859 2456 1434 
Q 2456 1756 2422 1967 
Q 2388 2178 2272 2350 
Q 2200 2456 2089 2536 
Q 1978 2616 1854 2658 
Q 1731 2700 1600 2700 
Q 1400 2700 1220 2609 
Q 1041 2519 922 2350 
Q 803 2169 770 1951 
Q 738 1734 738 1434 
Q 738 1075 800 789 
Q 863 503 1052 309 
Q 1241 116 1600 116 
z
" transform="scale(0.015625)"/>
       <path id="Cmr10-7a" d="M 250 0 
Q 178 0 178 72 
L 178 122 
Q 178 147 197 166 
L 1984 2591 
L 1409 2591 
Q 1138 2591 961 2556 
Q 784 2522 670 2426 
Q 556 2331 504 2164 
Q 453 1997 453 1703 
L 269 1703 
L 341 2759 
L 2484 2759 
Q 2513 2759 2533 2739 
Q 2553 2719 2553 2688 
L 2553 2650 
Q 2553 2631 2541 2606 
L 750 184 
L 1363 184 
Q 1641 184 1827 218 
Q 2013 253 2144 384 
Q 2266 506 2311 712 
Q 2356 919 2381 1222 
L 2566 1222 
L 2456 0 
L 250 0 
z
" transform="scale(0.015625)"/>
       <path id="Cmr10-65" d="M 1594 -72 
Q 1203 -72 876 133 
Q 550 338 364 680 
Q 178 1022 178 1403 
Q 178 1778 348 2115 
Q 519 2453 823 2661 
Q 1128 2869 1503 2869 
Q 1797 2869 2014 2770 
Q 2231 2672 2372 2497 
Q 2513 2322 2584 2084 
Q 2656 1847 2656 1563 
Q 2656 1478 2591 1478 
L 738 1478 
L 738 1409 
Q 738 878 952 497 
Q 1166 116 1650 116 
Q 1847 116 2014 203 
Q 2181 291 2304 447 
Q 2428 603 2472 781 
Q 2478 803 2495 820 
Q 2513 838 2534 838 
L 2591 838 
Q 2656 838 2656 756 
Q 2566 394 2266 161 
Q 1966 -72 1594 -72 
z
M 744 1638 
L 2203 1638 
Q 2203 1878 2136 2125 
Q 2069 2372 1912 2536 
Q 1756 2700 1503 2700 
Q 1141 2700 942 2361 
Q 744 2022 744 1638 
z
" transform="scale(0.015625)"/>
       <path id="Cmr10-72" d="M 166 0 
L 166 225 
Q 384 225 525 259 
Q 666 294 666 428 
L 666 2175 
Q 666 2347 614 2423 
Q 563 2500 466 2517 
Q 369 2534 166 2534 
L 166 2759 
L 1081 2828 
L 1081 2203 
Q 1184 2481 1375 2654 
Q 1566 2828 1838 2828 
Q 2028 2828 2178 2715 
Q 2328 2603 2328 2419 
Q 2328 2303 2245 2217 
Q 2163 2131 2041 2131 
Q 1922 2131 1837 2215 
Q 1753 2300 1753 2419 
Q 1753 2591 1875 2663 
L 1838 2663 
Q 1578 2663 1414 2475 
Q 1250 2288 1181 2009 
Q 1113 1731 1113 1478 
L 1113 428 
Q 1113 225 1734 225 
L 1734 0 
L 166 0 
z
" transform="scale(0.015625)"/>
      </defs>
      <use xlink:href="#Cmmi10-b3" transform="translate(0 0.078125)"/>
      <use xlink:href="#Cmr10-42" transform="translate(43.701172 -16.928125) scale(0.7)"/>
      <use xlink:href="#Cmr10-6f" transform="translate(93.261719 -16.928125) scale(0.7)"/>
      <use xlink:href="#Cmr10-6f" transform="translate(128.261719 -16.928125) scale(0.7)"/>
      <use xlink:href="#Cmr10-7a" transform="translate(163.261719 -16.928125) scale(0.7)"/>
      <use xlink:href="#Cmr10-65" transform="translate(194.331055 -16.928125) scale(0.7)"/>
      <use xlink:href="#Cmr10-72" transform="translate(225.400391 -16.928125) scale(0.7)"/>
     </g>
    </g>
   </g>
   <g id="matplotlib.axis_2">
    <g id="ytick_1">
     <g id="line2d_6">
      <defs>
       <path id="m19a6e76f49" d="M 0 0 
L -3.5 0 
" style="stroke: #000000; stroke-width: 0.8"/>
      </defs>
      <g>
       <use xlink:href="#m19a6e76f49" x="107.665625" y="284.294375" style="stroke: #000000; stroke-width: 0.8"/>
      </g>
     </g>
     <g id="text_7">
      <!-- 0 -->
      <g transform="translate(82.850625 294.932187) scale(0.28 -0.28)">
       <use xlink:href="#DejaVuSerif-30"/>
      </g>
     </g>
    </g>
    <g id="ytick_2">
     <g id="line2d_7">
      <g>
       <use xlink:href="#m19a6e76f49" x="107.665625" y="218.580234" style="stroke: #000000; stroke-width: 0.8"/>
      </g>
     </g>
     <g id="text_8">
      <!-- $\pi/2$ -->
      <g transform="translate(56.705625 229.080234) scale(0.28 -0.28)">
       <use xlink:href="#Cmmi10-bc"/>
       <use xlink:href="#Cmmi10-3d" transform="translate(56.982422 0)"/>
       <use xlink:href="#Cmr10-32" transform="translate(106.982422 0)"/>
      </g>
     </g>
    </g>
    <g id="ytick_3">
     <g id="line2d_8">
      <g>
       <use xlink:href="#m19a6e76f49" x="107.665625" y="152.866094" style="stroke: #000000; stroke-width: 0.8"/>
      </g>
     </g>
     <g id="text_9">
      <!-- $\pi$ -->
      <g transform="translate(84.705625 163.503906) scale(0.28 -0.28)">
       <use xlink:href="#Cmmi10-bc" transform="translate(0 0.890625)"/>
      </g>
     </g>
    </g>
    <g id="ytick_4">
     <g id="line2d_9">
      <g>
       <use xlink:href="#m19a6e76f49" x="107.665625" y="87.151953" style="stroke: #000000; stroke-width: 0.8"/>
      </g>
     </g>
     <g id="text_10">
      <!-- $3\pi/2$ -->
      <g transform="translate(42.705625 97.651953) scale(0.28 -0.28)">
       <use xlink:href="#Cmr10-33"/>
       <use xlink:href="#Cmmi10-bc" transform="translate(50 0)"/>
       <use xlink:href="#Cmmi10-3d" transform="translate(106.982422 0)"/>
       <use xlink:href="#Cmr10-32" transform="translate(156.982422 0)"/>
      </g>
     </g>
    </g>
    <g id="ytick_5">
     <g id="line2d_10">
      <g>
       <use xlink:href="#m19a6e76f49" x="107.665625" y="21.437813" style="stroke: #000000; stroke-width: 0.8"/>
      </g>
     </g>
     <g id="text_11">
      <!-- $2\pi$ -->
      <g transform="translate(70.705625 32.075625) scale(0.28 -0.28)">
       <use xlink:href="#Cmr10-32" transform="translate(0 0.390625)"/>
       <use xlink:href="#Cmmi10-bc" transform="translate(50 0.390625)"/>
      </g>
     </g>
    </g>
    <g id="text_12">
     <!-- $\theta_{\mathrm{Boozer}}$ -->
     <g transform="translate(36.634687 197.576094) rotate(-90) scale(0.34 -0.34)">
      <defs>
       <path id="Cmmi10-b5" d="M 1031 -72 
Q 741 -72 566 140 
Q 391 353 323 653 
Q 256 953 256 1247 
L 256 1253 
Q 256 1572 317 1915 
Q 378 2259 493 2601 
Q 609 2944 744 3213 
Q 838 3400 986 3631 
Q 1134 3863 1317 4064 
Q 1500 4266 1711 4389 
Q 1922 4513 2138 4513 
L 2144 4513 
Q 2375 4513 2529 4384 
Q 2684 4256 2770 4056 
Q 2856 3856 2890 3628 
Q 2925 3400 2925 3194 
Q 2925 2709 2794 2204 
Q 2663 1700 2431 1228 
Q 2344 1050 2189 809 
Q 2034 569 1861 378 
Q 1688 188 1472 58 
Q 1256 -72 1038 -72 
L 1031 -72 
z
M 1044 97 
Q 1256 97 1451 323 
Q 1647 550 1794 873 
Q 1941 1197 2052 1536 
Q 2163 1875 2216 2113 
L 909 2113 
Q 809 1709 753 1417 
Q 697 1125 697 844 
Q 697 97 1044 97 
z
M 959 2338 
L 2272 2338 
Q 2341 2619 2381 2808 
Q 2422 2997 2450 3206 
Q 2478 3416 2478 3597 
Q 2478 4347 2138 4347 
Q 1731 4347 1436 3692 
Q 1141 3038 959 2338 
z
" transform="scale(0.015625)"/>
      </defs>
      <use xlink:href="#Cmmi10-b5" transform="translate(0 0.484375)"/>
      <use xlink:href="#Cmr10-42" transform="translate(46.923828 -16.521875) scale(0.7)"/>
      <use xlink:href="#Cmr10-6f" transform="translate(96.484375 -16.521875) scale(0.7)"/>
      <use xlink:href="#Cmr10-6f" transform="translate(131.484375 -16.521875) scale(0.7)"/>
      <use xlink:href="#Cmr10-7a" transform="translate(166.484375 -16.521875) scale(0.7)"/>
      <use xlink:href="#Cmr10-65" transform="translate(197.553711 -16.521875) scale(0.7)"/>
      <use xlink:href="#Cmr10-72" transform="translate(228.623047 -16.521875) scale(0.7)"/>
     </g>
    </g>
   </g>
   <g id="QuadContourSet_1">
    <path d="M 107.665625 284.294375 
L 107.665625 284.294375 
z
M 107.665625 21.437813 
L 107.665625 21.437813 
z
M 346.318625 21.437813 
L 346.318625 21.437813 
z
" clip-path="url(#p5018c08972)" style="fill: none; stroke: #000080"/>
    <path d="M 310.570682 284.294375 
L 309.194825 283.462289 
L 306.543125 281.939698 
L 305.527285 281.373747 
L 303.891425 279.941205 
L 302.066316 278.453118 
L 301.239725 276.88799 
L 300.454 275.53249 
L 301.239725 273.209594 
L 301.503987 272.611861 
L 303.891425 271.313096 
L 306.543125 270.311971 
L 309.029798 269.691233 
L 309.194825 269.667564 
L 311.846525 269.396438 
L 314.498225 269.242468 
L 317.149925 269.186816 
L 319.801625 269.214712 
L 322.453325 269.314529 
L 325.105025 269.474406 
L 327.756725 269.686093 
L 327.807425 269.691233 
L 330.408425 270.024189 
L 333.060125 270.402936 
L 335.711825 270.813475 
L 338.363525 271.250287 
L 341.015225 271.70733 
L 343.666925 272.180075 
L 346.001771 272.611861 
L 346.318625 272.685311 
M 107.665625 272.685311 
L 110.317325 273.334003 
L 112.969025 273.980634 
L 115.620725 274.623319 
L 118.272425 275.266885 
L 119.330945 275.53249 
L 120.924125 276.027297 
L 123.575825 276.840854 
L 126.227525 277.634635 
L 128.879225 278.427533 
L 128.962188 278.453118 
L 131.530925 279.427632 
L 134.182625 280.392453 
L 136.834325 281.341801 
L 136.921873 281.373747 
L 139.486025 282.564021 
L 142.137725 283.736313 
L 143.413568 284.294375 
M 346.318625 33.046876 
L 343.666925 32.398185 
L 341.015225 31.751553 
L 338.363525 31.108869 
L 335.711825 30.465302 
L 334.653305 30.199698 
L 333.060125 29.70489 
L 330.408425 28.891333 
L 327.756725 28.097552 
L 325.105025 27.304655 
L 325.022062 27.279069 
L 322.453325 26.304555 
L 319.801625 25.339735 
L 317.149925 24.390387 
L 317.062377 24.358441 
L 314.498225 23.168167 
L 311.846525 21.995875 
L 310.570682 21.437813 
M 143.413568 21.437813 
L 144.789425 22.269899 
L 147.441125 23.792489 
L 148.456965 24.358441 
L 150.092825 25.790982 
L 151.917934 27.279069 
L 152.744525 28.844198 
L 153.53025 30.199698 
L 152.744525 32.522594 
L 152.480263 33.120326 
L 150.092825 34.419092 
L 147.441125 35.420216 
L 144.954452 36.040955 
L 144.789425 36.064624 
L 142.137725 36.33575 
L 139.486025 36.48972 
L 136.834325 36.545372 
L 134.182625 36.517475 
L 131.530925 36.417659 
L 128.879225 36.257781 
L 126.227525 36.046094 
L 126.176825 36.040955 
L 123.575825 35.707999 
L 120.924125 35.329252 
L 118.272425 34.918713 
L 115.620725 34.4819 
L 112.969025 34.024858 
L 110.317325 33.552112 
L 107.982479 33.120326 
L 107.665625 33.046876 
" clip-path="url(#p5018c08972)" style="fill: none; stroke: #0000a4"/>
    <path d="M 288.925686 284.294375 
L 287.981225 283.745996 
L 284.588735 281.373747 
L 282.677825 279.817015 
L 281.251977 278.453118 
L 278.840495 275.53249 
L 277.6324 272.611861 
L 277.932131 269.691233 
L 280.428966 266.770604 
L 282.677825 265.626947 
L 285.329525 264.546131 
L 287.981225 263.752161 
L 290.632925 263.303933 
L 295.936325 262.742643 
L 301.239725 262.547404 
L 306.543125 262.631238 
L 311.846525 262.926028 
L 319.801625 263.647191 
L 325.105025 264.356601 
L 338.363525 266.471576 
L 346.318625 267.980768 
M 107.665625 267.980768 
L 118.272425 270.136 
L 126.227525 271.868172 
L 136.834325 274.395775 
L 144.789425 276.511231 
L 152.744525 278.955955 
L 159.176066 281.373747 
L 160.699625 282.040041 
L 165.058564 284.294375 
M 346.318625 37.75142 
L 335.711825 35.596188 
L 327.756725 33.864016 
L 317.149925 31.336412 
L 309.194825 29.220957 
L 301.239725 26.776232 
L 294.808184 24.358441 
L 293.284625 23.692146 
L 288.925686 21.437813 
M 165.058564 21.437813 
L 166.003025 21.986192 
L 169.395515 24.358441 
L 171.306425 25.915173 
L 172.732273 27.279069 
L 175.143755 30.199698 
L 176.35185 33.120326 
L 176.052119 36.040955 
L 173.555284 38.961583 
L 171.306425 40.105241 
L 168.654725 41.186056 
L 166.003025 41.980027 
L 163.351325 42.428254 
L 158.047925 42.989545 
L 152.744525 43.184783 
L 147.441125 43.100949 
L 142.137725 42.806159 
L 134.182625 42.084996 
L 128.879225 41.375587 
L 115.620725 39.260611 
L 107.665625 37.75142 
L 107.665625 37.75142 
" clip-path="url(#p5018c08972)" style="fill: none; stroke: #0000cd"/>
    <path d="M 247.675034 284.294375 
L 245.446032 281.373747 
L 245.554025 280.947039 
L 246.054925 278.453118 
L 250.857425 275.282631 
L 253.509125 273.717668 
L 254.804847 272.611861 
L 256.519306 269.691233 
L 257.975562 266.770604 
L 260.44773 263.849976 
L 261.464225 263.131505 
L 265.017358 260.929347 
L 266.767625 260.256261 
L 269.419325 259.380674 
L 272.071025 258.659875 
L 275.125662 258.008719 
L 280.026125 257.447932 
L 285.329525 257.154496 
L 290.632925 257.123064 
L 295.936325 257.297304 
L 303.891425 257.843559 
L 309.194825 258.416425 
L 322.453325 260.156904 
L 346.318625 263.646716 
M 107.665625 263.646716 
L 118.272425 265.206698 
L 131.530925 267.32147 
L 150.092825 270.816227 
L 173.259279 275.53249 
L 179.261525 276.862572 
L 189.868325 279.196664 
L 198.845438 281.373747 
L 203.126825 282.956428 
L 206.309216 284.294375 
M 346.318625 42.085471 
L 335.711825 40.52549 
L 322.453325 38.410717 
L 303.891425 34.915961 
L 280.724971 30.199698 
L 274.722725 28.869616 
L 264.115925 26.535523 
L 255.138812 24.358441 
L 250.857425 22.775759 
L 247.675034 21.437813 
M 206.309216 21.437813 
L 208.538218 24.358441 
L 208.430225 24.785148 
L 207.929325 27.279069 
L 203.126825 30.449556 
L 200.475125 32.01452 
L 199.179403 33.120326 
L 197.464944 36.040955 
L 196.008688 38.961583 
L 193.53652 41.882212 
L 192.520025 42.600683 
L 188.966892 44.80284 
L 187.216625 45.475927 
L 184.564925 46.351514 
L 181.913225 47.072312 
L 178.858588 47.723469 
L 173.958125 48.284255 
L 168.654725 48.577692 
L 163.351325 48.609124 
L 158.047925 48.434883 
L 150.092825 47.888628 
L 144.789425 47.315763 
L 131.530925 45.575283 
L 107.665625 42.085471 
L 107.665625 42.085471 
" clip-path="url(#p5018c08972)" style="fill: none; stroke: #0000f6"/>
    <path d="M 107.665625 259.451951 
L 120.924125 261.305315 
L 152.744525 266.25937 
L 171.306425 268.774162 
L 184.564925 270.191211 
L 192.520025 270.83012 
L 197.823425 271.100027 
L 203.126825 271.197029 
L 208.430225 271.037591 
L 213.733625 270.513576 
L 221.688725 269.19349 
L 226.992125 268.236368 
L 232.295525 267.006865 
L 233.070546 266.770604 
L 234.947225 266.071965 
L 237.598925 264.714545 
L 240.250625 262.901671 
L 242.902325 260.846976 
L 247.328389 258.008719 
L 250.857425 256.420557 
L 254.328259 255.08809 
L 258.812525 253.981436 
L 264.115925 253.061321 
L 269.419325 252.512179 
L 274.722725 252.281574 
L 280.026125 252.311007 
L 285.329525 252.545357 
L 293.284625 253.174151 
L 303.891425 254.299104 
L 346.318625 259.451951 
M 346.318625 46.280237 
L 333.060125 44.426873 
L 301.239725 39.472818 
L 282.677825 36.958026 
L 269.419325 35.540977 
L 261.464225 34.902067 
L 256.160825 34.63216 
L 250.857425 34.535158 
L 245.554025 34.694596 
L 240.250625 35.218611 
L 232.295525 36.538697 
L 226.992125 37.495819 
L 221.688725 38.725323 
L 220.913704 38.961583 
L 219.037025 39.660223 
L 216.385325 41.017642 
L 213.733625 42.830517 
L 211.081925 44.885212 
L 206.655861 47.723469 
L 203.126825 49.31163 
L 199.655991 50.644097 
L 195.171725 51.750751 
L 189.868325 52.670867 
L 184.564925 53.220008 
L 179.261525 53.450614 
L 173.958125 53.421181 
L 168.654725 53.186831 
L 160.699625 52.558036 
L 150.092825 51.433084 
L 107.665625 46.280237 
L 107.665625 46.280237 
" clip-path="url(#p5018c08972)" style="fill: none; stroke: #000cff"/>
    <path d="M 107.665625 255.814887 
L 147.441125 261.278981 
L 158.047925 262.478074 
L 168.654725 263.443862 
L 176.609825 263.980636 
L 181.913225 264.187175 
L 187.216625 264.218427 
L 192.520025 264.03598 
L 200.475125 263.42608 
L 208.430225 262.61296 
L 213.733625 261.908963 
L 218.726299 260.929347 
L 219.037025 260.848629 
L 221.688725 259.998243 
L 224.340425 258.915626 
L 229.643825 256.230626 
L 232.295525 254.82351 
L 238.263804 252.167462 
L 242.902325 250.69922 
L 248.205725 249.393914 
L 250.857425 248.94778 
L 256.160825 248.341562 
L 261.464225 248.022801 
L 266.767625 247.948132 
L 272.071025 248.073064 
L 280.026125 248.539677 
L 287.981225 249.249294 
L 314.95001 252.167462 
L 327.756725 253.496672 
L 341.118296 255.08809 
L 346.318625 255.814887 
M 346.318625 49.9173 
L 306.543125 44.453206 
L 295.936325 43.254114 
L 285.329525 42.288325 
L 277.374425 41.751552 
L 272.071025 41.545012 
L 266.767625 41.51376 
L 261.464225 41.696208 
L 253.509125 42.306107 
L 245.554025 43.119227 
L 240.250625 43.823224 
L 235.257951 44.80284 
L 234.947225 44.883558 
L 232.295525 45.733944 
L 229.643825 46.816562 
L 224.340425 49.501562 
L 221.688725 50.908677 
L 215.720446 53.564726 
L 211.081925 55.032968 
L 205.778525 56.338273 
L 203.126825 56.784408 
L 197.823425 57.390626 
L 192.520025 57.709387 
L 187.216625 57.784055 
L 181.913225 57.659123 
L 173.958125 57.192511 
L 166.003025 56.482893 
L 139.03424 53.564726 
L 126.227525 52.235515 
L 112.865954 50.644097 
L 107.665625 49.9173 
L 107.665625 49.9173 
" clip-path="url(#p5018c08972)" style="fill: none; stroke: #0030ff"/>
    <path d="M 107.665625 252.547137 
L 128.879225 255.35878 
L 139.486025 256.597406 
L 150.092825 257.629642 
L 160.699625 258.411124 
L 168.654725 258.708676 
L 173.958125 258.721133 
L 181.913225 258.448527 
L 192.520025 257.752655 
L 197.823425 257.308466 
L 203.126825 256.643947 
L 205.778525 256.161383 
L 209.994606 255.08809 
L 211.081925 254.734319 
L 213.733625 253.753922 
L 226.992125 248.264499 
L 232.295525 246.578068 
L 234.947225 245.929885 
L 240.250625 244.950433 
L 245.554025 244.293894 
L 250.857425 243.93391 
L 256.160825 243.829709 
L 261.464225 243.937429 
L 269.419325 244.39423 
L 280.026125 245.311388 
L 327.756725 250.122496 
L 346.318625 252.547137 
M 346.318625 53.18505 
L 325.105025 50.373408 
L 314.498225 49.134782 
L 303.891425 48.102546 
L 293.284625 47.321063 
L 285.329525 47.023511 
L 280.026125 47.011054 
L 272.071025 47.28366 
L 261.464225 47.979532 
L 256.160825 48.423722 
L 250.857425 49.088241 
L 248.205725 49.570804 
L 243.989644 50.644097 
L 242.902325 50.997869 
L 240.250625 51.978265 
L 226.992125 57.467689 
L 221.688725 59.15412 
L 219.037025 59.802303 
L 213.733625 60.781754 
L 208.430225 61.438293 
L 203.126825 61.798277 
L 197.823425 61.902479 
L 192.520025 61.794758 
L 184.564925 61.337957 
L 173.958125 60.4208 
L 126.227525 55.609692 
L 107.665625 53.18505 
L 107.665625 53.18505 
" clip-path="url(#p5018c08972)" style="fill: none; stroke: #0050ff"/>
    <path d="M 107.665625 249.461378 
L 120.924125 251.120243 
L 131.530925 252.269419 
L 142.137725 253.216682 
L 150.092825 253.727352 
L 158.047925 253.986022 
L 166.003025 253.93341 
L 176.609825 253.522837 
L 184.564925 253.060097 
L 189.868325 252.585894 
L 193.020321 252.167462 
L 195.171725 251.775254 
L 197.823425 251.171916 
L 200.475125 250.441214 
L 205.778525 248.61886 
L 216.385325 244.588873 
L 219.972514 243.405576 
L 224.340425 242.284882 
L 229.643825 241.217732 
L 234.947225 240.478034 
L 240.250625 240.103779 
L 245.554025 239.963445 
L 250.857425 240.019286 
L 258.812525 240.385448 
L 266.767625 241.020427 
L 309.194825 244.838593 
L 322.453325 246.36196 
L 346.318625 249.461378 
M 346.318625 56.270809 
L 333.060125 54.611944 
L 322.453325 53.462769 
L 311.846525 52.515505 
L 303.891425 52.004836 
L 295.936325 51.746165 
L 287.981225 51.798778 
L 277.374425 52.209351 
L 269.419325 52.672091 
L 264.115925 53.146293 
L 260.963929 53.564726 
L 258.812525 53.956934 
L 256.160825 54.560271 
L 253.509125 55.290974 
L 248.205725 57.113328 
L 237.598925 61.143315 
L 234.011736 62.326611 
L 229.643825 63.447306 
L 224.340425 64.514456 
L 219.037025 65.254154 
L 213.733625 65.628409 
L 208.430225 65.768743 
L 203.126825 65.712901 
L 195.171725 65.34674 
L 187.216625 64.71176 
L 144.789425 60.893595 
L 131.530925 59.370227 
L 107.665625 56.270809 
L 107.665625 56.270809 
" clip-path="url(#p5018c08972)" style="fill: none; stroke: #0074ff"/>
    <path d="M 107.665625 246.478162 
L 120.924125 247.930761 
L 131.530925 248.870263 
L 139.486025 249.405832 
L 147.441125 249.672407 
L 155.396225 249.659547 
L 166.003025 249.350476 
L 173.958125 249.01489 
L 179.261525 248.605773 
L 184.564925 247.879541 
L 187.216625 247.361923 
L 191.338728 246.326205 
L 195.171725 245.098567 
L 208.430225 240.380798 
L 213.733625 238.902108 
L 219.037025 237.724178 
L 221.688725 237.29368 
L 226.992125 236.688863 
L 232.295525 236.354194 
L 237.598925 236.25549 
L 242.902325 236.346225 
L 250.857425 236.735053 
L 261.792425 237.564319 
L 301.239725 240.893489 
L 319.801625 243.122669 
L 346.318625 246.478162 
M 346.318625 59.254025 
L 333.060125 57.801426 
L 322.453325 56.861924 
L 314.498225 56.326355 
L 306.543125 56.059781 
L 298.588025 56.072641 
L 287.981225 56.381711 
L 280.026125 56.717298 
L 274.722725 57.126414 
L 269.419325 57.852647 
L 266.767625 58.370264 
L 262.645522 59.405983 
L 258.812525 60.633621 
L 245.554025 65.351389 
L 240.250625 66.830079 
L 234.947225 68.008009 
L 232.295525 68.438507 
L 226.992125 69.043325 
L 221.688725 69.377993 
L 216.385325 69.476698 
L 211.081925 69.385962 
L 203.126825 68.997135 
L 192.191825 68.167868 
L 152.744525 64.838699 
L 134.182625 62.609518 
L 107.665625 59.254025 
L 107.665625 59.254025 
" clip-path="url(#p5018c08972)" style="fill: none; stroke: #0098ff"/>
    <path d="M 107.665625 243.505925 
L 120.924125 244.730418 
L 128.879225 245.282135 
L 136.834325 245.613353 
L 144.789425 245.675548 
L 158.047925 245.429661 
L 166.003025 245.111799 
L 171.306425 244.672362 
L 176.609825 243.903757 
L 179.261525 243.366824 
L 184.564925 241.911159 
L 189.868325 240.144015 
L 197.823425 237.353984 
L 203.126825 235.765188 
L 208.430225 234.467184 
L 213.733625 233.580782 
L 219.037025 232.998296 
L 224.340425 232.694599 
L 229.643825 232.627353 
L 234.947225 232.746582 
L 242.902325 233.149581 
L 258.812525 234.266511 
L 282.677825 236.025583 
L 295.936325 237.370398 
L 306.543125 238.664203 
L 345.361092 243.405576 
L 346.318625 243.505925 
M 346.318625 62.226262 
L 333.060125 61.001769 
L 325.105025 60.450052 
L 317.149925 60.118835 
L 309.194825 60.056639 
L 295.936325 60.302526 
L 287.981225 60.620389 
L 282.677825 61.059825 
L 277.374425 61.828431 
L 274.722725 62.365363 
L 269.419325 63.821029 
L 264.115925 65.588172 
L 256.160825 68.378204 
L 250.857425 69.967 
L 245.554025 71.265004 
L 240.250625 72.151406 
L 234.947225 72.733892 
L 229.643825 73.037588 
L 224.340425 73.104835 
L 219.037025 72.985605 
L 211.081925 72.582607 
L 195.171725 71.465676 
L 171.306425 69.706604 
L 158.047925 68.361789 
L 147.441125 67.067984 
L 108.623158 62.326611 
L 107.665625 62.226262 
L 107.665625 62.226262 
" clip-path="url(#p5018c08972)" style="fill: none; stroke: #00bcff"/>
    <path d="M 107.665625 240.501168 
L 118.272425 241.324313 
L 126.227525 241.719436 
L 134.182625 241.866585 
L 144.789425 241.803469 
L 155.396225 241.575485 
L 160.699625 241.260231 
L 166.003025 240.663683 
L 168.654725 240.209845 
L 173.958125 238.963836 
L 179.261525 237.354522 
L 192.520025 232.874449 
L 197.823425 231.42154 
L 203.126825 230.365772 
L 208.430225 229.631076 
L 213.733625 229.202719 
L 219.037025 229.043198 
L 224.340425 229.10041 
L 232.295525 229.453384 
L 261.464225 231.266015 
L 272.071025 232.049485 
L 282.677825 233.083665 
L 296.251281 234.643691 
L 330.408425 238.877339 
L 343.666925 240.262104 
L 346.318625 240.501168 
M 346.318625 65.23102 
L 335.711825 64.407875 
L 327.756725 64.012752 
L 319.801625 63.865602 
L 309.194825 63.928718 
L 298.588025 64.156703 
L 293.284625 64.471956 
L 287.981225 65.068504 
L 285.329525 65.522342 
L 280.026125 66.768352 
L 274.722725 68.377666 
L 261.464225 72.857739 
L 256.160825 74.310648 
L 250.857425 75.366415 
L 245.554025 76.101111 
L 240.250625 76.529468 
L 234.947225 76.688989 
L 229.643825 76.631778 
L 221.688725 76.278803 
L 192.520025 74.466172 
L 181.913225 73.682702 
L 171.306425 72.648522 
L 157.732969 71.088497 
L 123.575825 66.854848 
L 110.317325 65.470084 
L 107.665625 65.23102 
L 107.665625 65.23102 
" clip-path="url(#p5018c08972)" style="fill: none; stroke: #00e0fb"/>
    <path d="M 107.665625 237.468394 
L 115.620725 237.936435 
L 123.575825 238.182413 
L 134.182625 238.219166 
L 144.789425 238.14723 
L 150.092825 237.96595 
L 155.396225 237.552374 
L 160.699625 236.734166 
L 166.003025 235.513902 
L 171.306425 233.916094 
L 187.216625 228.607996 
L 192.520025 227.343236 
L 197.823425 226.411596 
L 203.126825 225.825305 
L 208.430225 225.572495 
L 213.733625 225.541395 
L 221.688725 225.794989 
L 248.205725 227.286385 
L 261.464225 228.176433 
L 272.071025 229.139943 
L 287.981225 230.963471 
L 330.408425 236.048633 
L 341.015225 237.04913 
L 346.318625 237.468394 
M 346.318625 68.263794 
L 338.363525 67.795752 
L 330.408425 67.549775 
L 319.801625 67.513021 
L 309.194825 67.584958 
L 303.891425 67.766237 
L 298.588025 68.179814 
L 293.284625 68.998022 
L 287.981225 70.218285 
L 282.677825 71.816093 
L 266.767625 77.124192 
L 261.464225 78.388952 
L 256.160825 79.320591 
L 250.857425 79.906882 
L 245.554025 80.159693 
L 240.250625 80.190793 
L 232.295525 79.937198 
L 205.778525 78.445803 
L 192.520025 77.555754 
L 181.913225 76.592244 
L 166.003025 74.768716 
L 123.575825 69.683554 
L 112.969025 68.683057 
L 107.665625 68.263794 
L 107.665625 68.263794 
" clip-path="url(#p5018c08972)" style="fill: none; stroke: #19ffde"/>
    <path d="M 107.665625 234.353138 
L 116.927286 234.643691 
L 128.879225 234.74343 
L 139.486025 234.723599 
L 144.789425 234.474523 
L 150.092825 233.896623 
L 155.396225 232.93062 
L 160.699625 231.555667 
L 166.003025 229.799645 
L 177.225857 225.881806 
L 181.913225 224.559185 
L 187.216625 223.386637 
L 189.868325 222.937558 
L 195.171725 222.375448 
L 200.475125 222.110955 
L 205.778525 222.07928 
L 213.733625 222.314615 
L 240.250625 223.659843 
L 250.857425 224.352575 
L 261.464225 225.269161 
L 272.071025 226.41369 
L 295.936325 229.318762 
L 317.149925 231.849732 
L 330.408425 233.183601 
L 341.015225 234.045379 
L 346.318625 234.353138 
M 346.318625 71.37905 
L 337.056964 71.088497 
L 325.105025 70.988757 
L 314.498225 71.008588 
L 309.194825 71.257664 
L 303.891425 71.835564 
L 298.588025 72.801567 
L 293.284625 74.17652 
L 287.981225 75.932542 
L 276.758393 79.850382 
L 272.071025 81.173002 
L 266.767625 82.34555 
L 264.115925 82.794629 
L 258.812525 83.35674 
L 253.509125 83.621232 
L 248.205725 83.652908 
L 240.250625 83.417572 
L 213.733625 82.072344 
L 203.126825 81.379613 
L 192.520025 80.463027 
L 181.913225 79.318497 
L 158.047925 76.413425 
L 136.834325 73.882455 
L 123.575825 72.548586 
L 112.969025 71.686809 
L 107.665625 71.37905 
L 107.665625 71.37905 
" clip-path="url(#p5018c08972)" style="fill: none; stroke: #33ffc4"/>
    <path d="M 107.665625 231.147284 
L 126.227525 231.453211 
L 134.182625 231.3833 
L 139.486025 231.052223 
L 144.789425 230.35394 
L 150.092825 229.247925 
L 152.744525 228.529237 
L 158.047925 226.790364 
L 171.306425 222.074839 
L 176.609825 220.613301 
L 179.261525 220.020211 
L 184.564925 219.220857 
L 189.868325 218.775972 
L 195.171725 218.61773 
L 200.475125 218.665493 
L 211.081925 219.064592 
L 237.598925 220.349423 
L 248.205725 221.181613 
L 258.812525 222.232083 
L 272.071025 223.766618 
L 314.498225 228.802735 
L 327.756725 230.071548 
L 338.363525 230.824977 
L 346.318625 231.147284 
M 346.318625 74.584903 
L 327.756725 74.278977 
L 319.801625 74.348887 
L 314.498225 74.679964 
L 309.194825 75.378247 
L 303.891425 76.484262 
L 301.239725 77.20295 
L 295.936325 78.941823 
L 282.677825 83.657348 
L 277.374425 85.118887 
L 274.722725 85.711976 
L 269.419325 86.51133 
L 264.115925 86.956215 
L 258.812525 87.114458 
L 253.509125 87.066695 
L 242.902325 86.667595 
L 216.385325 85.382764 
L 205.778525 84.550575 
L 195.171725 83.500104 
L 181.913225 81.96557 
L 139.486025 76.929453 
L 126.227525 75.66064 
L 115.620725 74.907211 
L 107.665625 74.584903 
L 107.665625 74.584903 
" clip-path="url(#p5018c08972)" style="fill: none; stroke: #50ffa7"/>
    <path d="M 107.665625 227.949906 
L 123.575825 228.250847 
L 128.879225 228.121407 
L 134.182625 227.696864 
L 139.486025 226.893487 
L 143.951646 225.881806 
L 147.441125 224.828677 
L 152.786928 222.961177 
L 163.351325 219.001876 
L 168.654725 217.390794 
L 171.306425 216.762496 
L 176.609825 215.860718 
L 181.913225 215.351579 
L 187.216625 215.166608 
L 195.171725 215.262077 
L 213.733625 215.938923 
L 226.992125 216.559776 
L 235.218287 217.11992 
L 245.554025 218.082735 
L 258.812525 219.540165 
L 314.498225 226.032159 
L 325.105025 226.965097 
L 335.711825 227.606243 
L 343.666925 227.88843 
L 346.318625 227.949906 
M 346.318625 77.782281 
L 330.408425 77.481341 
L 325.105025 77.610781 
L 319.801625 78.035324 
L 314.498225 78.8387 
L 310.032604 79.850382 
L 306.543125 80.90351 
L 301.197322 82.77101 
L 290.632925 86.730311 
L 285.329525 88.341394 
L 282.677825 88.969691 
L 277.374425 89.87147 
L 272.071025 90.380609 
L 266.767625 90.565579 
L 258.812525 90.470111 
L 240.250625 89.793265 
L 226.992125 89.172412 
L 218.765963 88.612267 
L 208.430225 87.649452 
L 195.171725 86.192022 
L 139.486025 79.700028 
L 128.879225 78.767091 
L 118.272425 78.125944 
L 110.317325 77.843758 
L 107.665625 77.782281 
L 107.665625 77.782281 
" clip-path="url(#p5018c08972)" style="fill: none; stroke: #6dff8a"/>
    <path d="M 107.665625 224.885564 
L 118.272425 225.076964 
L 123.575825 224.911262 
L 128.879225 224.398345 
L 134.182625 223.485635 
L 136.834325 222.863926 
L 142.137725 221.204923 
L 147.441125 219.202047 
L 155.396225 216.054313 
L 160.908351 214.199292 
L 163.351325 213.559267 
L 166.003025 212.981715 
L 171.306425 212.176435 
L 176.609825 211.777611 
L 181.913225 211.681656 
L 189.868325 211.826744 
L 211.081925 212.495564 
L 221.688725 213.074392 
L 232.295525 213.922742 
L 242.902325 215.015283 
L 261.005022 217.11992 
L 306.543125 222.457204 
L 317.149925 223.448998 
L 325.105025 224.010004 
L 335.711825 224.515525 
L 346.318625 224.885564 
M 346.318625 80.846623 
L 335.711825 80.655224 
L 330.408425 80.820925 
L 325.105025 81.333843 
L 319.801625 82.246552 
L 317.149925 82.868262 
L 311.846525 84.527265 
L 306.543125 86.530141 
L 298.588025 89.677875 
L 293.075899 91.532896 
L 290.632925 92.172921 
L 287.981225 92.750473 
L 282.677825 93.555753 
L 277.374425 93.954576 
L 272.071025 94.050531 
L 264.115925 93.905443 
L 242.902325 93.236624 
L 232.295525 92.657796 
L 221.688725 91.809446 
L 211.081925 90.716905 
L 192.979228 88.612267 
L 147.441125 83.274983 
L 136.834325 82.28319 
L 128.879225 81.722184 
L 118.272425 81.216663 
L 107.665625 80.846623 
L 107.665625 80.846623 
" clip-path="url(#p5018c08972)" style="fill: none; stroke: #8aff6d"/>
    <path d="M 107.665625 221.903373 
L 112.969025 221.923216 
L 118.272425 221.708324 
L 123.575825 221.132552 
L 128.879225 220.113377 
L 131.530925 219.380035 
L 136.834325 217.607344 
L 139.486025 216.567722 
L 150.092825 212.162344 
L 152.744525 211.208439 
L 155.396225 210.40592 
L 158.047925 209.733844 
L 160.699625 209.192025 
L 163.351325 208.777224 
L 167.722599 208.358035 
L 171.306425 208.205434 
L 179.261525 208.207587 
L 200.475125 208.672907 
L 208.430225 209.026986 
L 216.385325 209.557566 
L 226.992125 210.49971 
L 240.250625 211.926913 
L 261.464225 214.439145 
L 301.239725 219.131711 
L 311.846525 220.134354 
L 322.453325 220.85082 
L 341.015225 221.740603 
L 346.318625 221.903373 
M 346.318625 83.828814 
L 341.015225 83.808972 
L 335.711825 84.023863 
L 330.408425 84.599635 
L 325.105025 85.618811 
L 322.453325 86.352152 
L 317.149925 88.124843 
L 314.498225 89.164465 
L 303.891425 93.569843 
L 301.239725 94.523749 
L 298.588025 95.326267 
L 295.936325 95.998344 
L 293.284625 96.540162 
L 290.632925 96.954963 
L 286.261651 97.374153 
L 282.677825 97.526754 
L 274.722725 97.5246 
L 253.509125 97.059281 
L 245.554025 96.705202 
L 237.598925 96.174621 
L 226.992125 95.232478 
L 213.733625 93.805274 
L 192.520025 91.293043 
L 152.744525 86.600476 
L 142.137725 85.597833 
L 131.530925 84.881367 
L 112.969025 83.991585 
L 107.665625 83.828814 
L 107.665625 83.828814 
" clip-path="url(#p5018c08972)" style="fill: none; stroke: #a7ff50"/>
    <path d="M 107.665625 218.775052 
L 112.969025 218.481503 
L 118.272425 217.838355 
L 121.993634 217.11992 
L 123.575825 216.710655 
L 128.879225 214.998462 
L 131.530925 213.981912 
L 139.486025 210.466887 
L 144.789425 208.216429 
L 147.441125 207.277097 
L 150.092825 206.484323 
L 154.877322 205.437406 
L 158.047925 205.027421 
L 163.351325 204.670149 
L 168.654725 204.568875 
L 181.913225 204.65307 
L 192.520025 204.866221 
L 200.475125 205.214913 
L 208.430225 205.767641 
L 219.037025 206.736607 
L 234.947225 208.470236 
L 256.160825 210.98251 
L 293.284625 215.47652 
L 303.891425 216.547208 
L 311.846525 217.182218 
L 330.408425 218.306692 
L 341.015225 218.777685 
L 346.318625 218.775052 
M 346.318625 86.957136 
L 341.015225 87.250684 
L 335.711825 87.893833 
L 331.990616 88.612267 
L 330.408425 89.021532 
L 325.105025 90.733726 
L 322.453325 91.750275 
L 314.498225 95.265301 
L 309.194825 97.515759 
L 306.543125 98.455091 
L 303.891425 99.247865 
L 299.106928 100.294781 
L 295.936325 100.704766 
L 290.632925 101.062039 
L 285.329525 101.163312 
L 272.071025 101.079118 
L 261.464225 100.865967 
L 253.509125 100.517274 
L 245.554025 99.964547 
L 234.947225 98.995581 
L 219.037025 97.261951 
L 197.823425 94.749678 
L 160.699625 90.255668 
L 150.092825 89.18498 
L 142.137725 88.54997 
L 123.575825 87.425495 
L 112.969025 86.954502 
L 107.665625 86.957136 
L 107.665625 86.957136 
" clip-path="url(#p5018c08972)" style="fill: none; stroke: #c4ff33"/>
    <path d="M 107.665625 215.240747 
L 112.969025 214.487588 
L 115.620725 213.929443 
L 118.272425 213.21852 
L 120.924125 212.384015 
L 123.944591 211.278663 
L 130.334892 208.358035 
L 134.182625 206.479873 
L 136.834325 205.265647 
L 139.486025 204.17193 
L 142.137725 203.22662 
L 144.789425 202.449271 
L 147.441125 201.889829 
L 150.092825 201.485492 
L 155.396225 201.030235 
L 160.699625 200.850236 
L 171.306425 200.758026 
L 181.913225 200.838346 
L 189.868325 201.141435 
L 197.823425 201.65081 
L 208.430225 202.596738 
L 224.340425 204.282481 
L 248.205725 207.090402 
L 295.936325 212.859954 
L 306.543125 213.790947 
L 327.756725 215.267107 
L 335.711825 215.592812 
L 341.015225 215.587716 
L 346.318625 215.240747 
M 346.318625 90.491441 
L 341.015225 91.244599 
L 338.363525 91.802745 
L 335.711825 92.513668 
L 333.060125 93.348172 
L 330.039659 94.453524 
L 323.649358 97.374153 
L 319.801625 99.252315 
L 317.149925 100.466541 
L 314.498225 101.560257 
L 311.846525 102.505567 
L 309.194825 103.282916 
L 306.543125 103.842358 
L 303.891425 104.246695 
L 298.588025 104.701953 
L 293.284625 104.881951 
L 282.677825 104.974162 
L 272.071025 104.893841 
L 264.115925 104.590752 
L 256.160825 104.081377 
L 245.554025 103.135449 
L 229.643825 101.449707 
L 205.778525 98.641786 
L 158.047925 92.872234 
L 147.441125 91.941241 
L 126.227525 90.46508 
L 118.272425 90.139376 
L 112.969025 90.144472 
L 107.665625 90.491441 
L 107.665625 90.491441 
" clip-path="url(#p5018c08972)" style="fill: none; stroke: #deff19"/>
    <path d="M 107.665625 211.08643 
L 110.317325 210.406867 
L 115.620725 208.712644 
L 118.272425 207.643217 
L 123.575825 205.116757 
L 128.879225 202.307007 
L 131.530925 201.015791 
L 135.001035 199.596149 
L 136.834325 198.999976 
L 139.486025 198.317649 
L 142.137725 197.811512 
L 144.789425 197.455061 
L 150.092825 197.066535 
L 160.699625 196.767858 
L 168.654725 196.649971 
L 176.609825 196.766549 
L 184.564925 197.168467 
L 195.171725 198.025137 
L 205.778525 199.090646 
L 226.992125 201.483569 
L 253.509125 204.751658 
L 282.677825 208.487726 
L 293.284625 209.589889 
L 309.194825 210.996878 
L 322.453325 212.044602 
L 327.756725 212.288851 
L 333.060125 212.350644 
L 338.363525 212.167947 
L 341.015225 211.938129 
L 345.413555 211.278663 
L 346.318625 211.08643 
M 346.318625 94.645757 
L 343.666925 95.325321 
L 338.363525 97.019544 
L 335.711825 98.08897 
L 330.408425 100.615431 
L 325.105025 103.425181 
L 322.453325 104.716397 
L 318.983215 106.136038 
L 317.149925 106.732212 
L 314.498225 107.414538 
L 311.846525 107.920675 
L 309.194825 108.277127 
L 303.891425 108.665652 
L 293.284625 108.964329 
L 285.329525 109.082216 
L 277.374425 108.965639 
L 269.419325 108.56372 
L 258.812525 107.70705 
L 248.205725 106.641541 
L 226.992125 104.248618 
L 200.475125 100.98053 
L 171.306425 97.244462 
L 160.699625 96.142298 
L 144.789425 94.73531 
L 131.530925 93.687586 
L 126.227525 93.443337 
L 120.924125 93.381543 
L 115.620725 93.564241 
L 112.969025 93.794059 
L 108.570695 94.453524 
L 107.665625 94.645757 
L 107.665625 94.645757 
" clip-path="url(#p5018c08972)" style="fill: none; stroke: #fbf100"/>
    <path d="M 107.665625 205.951588 
L 110.317325 204.873572 
L 115.620725 202.301497 
L 126.227525 196.504928 
L 128.879225 195.392941 
L 131.530925 194.531464 
L 135.07249 193.754892 
L 139.486025 193.206832 
L 144.789425 192.82506 
L 155.396225 192.36006 
L 163.351325 192.244712 
L 168.654725 192.365499 
L 176.609825 192.809138 
L 184.564925 193.472635 
L 200.475125 195.098351 
L 221.688725 197.598544 
L 242.902325 200.271227 
L 280.026125 205.102964 
L 293.284625 206.494547 
L 314.498225 208.533564 
L 319.801625 208.879555 
L 325.105025 209.030597 
L 330.408425 208.908669 
L 335.711825 208.483721 
L 338.363525 208.094378 
L 341.015225 207.543532 
L 343.666925 206.829235 
L 346.318625 205.951588 
M 346.318625 99.7806 
L 343.666925 100.858616 
L 338.363525 103.430691 
L 327.756725 109.22726 
L 325.105025 110.339247 
L 322.453325 111.200723 
L 318.91176 111.977295 
L 314.498225 112.525355 
L 309.194825 112.907128 
L 298.588025 113.372127 
L 290.632925 113.487476 
L 285.329525 113.366689 
L 277.374425 112.923049 
L 269.419325 112.259553 
L 253.509125 110.633836 
L 232.295525 108.133644 
L 211.081925 105.46096 
L 173.958125 100.629224 
L 160.699625 99.237641 
L 139.486025 97.198624 
L 134.182625 96.852632 
L 128.879225 96.701591 
L 123.575825 96.823519 
L 118.272425 97.248466 
L 115.620725 97.63781 
L 112.969025 98.188656 
L 110.317325 98.902952 
L 107.665625 99.7806 
L 107.665625 99.7806 
" clip-path="url(#p5018c08972)" style="fill: none; stroke: #ffd000"/>
    <path d="M 107.665625 199.478088 
L 118.272425 192.889105 
L 120.924125 191.57971 
L 123.575825 190.546905 
L 126.227525 189.809473 
L 128.879225 189.278184 
L 134.182625 188.625121 
L 144.789425 187.821962 
L 150.092825 187.553972 
L 155.396225 187.49164 
L 160.699625 187.622851 
L 168.654725 188.128637 
L 179.261525 189.082571 
L 192.520025 190.538834 
L 216.385325 193.487662 
L 240.250625 196.694169 
L 266.767625 200.303642 
L 285.537077 202.516778 
L 306.543125 204.845955 
L 314.498225 205.440527 
L 319.801625 205.580473 
L 325.105025 205.427836 
L 327.756725 205.176757 
L 333.060125 204.335537 
L 335.711825 203.744305 
L 339.887735 202.516778 
L 341.015225 202.075094 
L 343.666925 200.867999 
L 346.318625 199.478088 
M 346.318625 106.2541 
L 335.711825 112.843083 
L 333.060125 114.152478 
L 330.408425 115.185283 
L 327.756725 115.922714 
L 325.105025 116.454003 
L 319.801625 117.107066 
L 309.194825 117.910226 
L 303.891425 118.178215 
L 298.588025 118.240548 
L 293.284625 118.109336 
L 285.329525 117.603551 
L 274.722725 116.649616 
L 261.464225 115.193354 
L 237.598925 112.244526 
L 213.733625 109.038018 
L 187.216625 105.428545 
L 168.447173 103.21541 
L 147.441125 100.886232 
L 139.486025 100.291661 
L 134.182625 100.151715 
L 128.879225 100.304352 
L 126.227525 100.555431 
L 120.924125 101.396651 
L 118.272425 101.987883 
L 114.096515 103.21541 
L 112.969025 103.657093 
L 110.317325 104.864188 
L 107.665625 106.2541 
L 107.665625 106.2541 
" clip-path="url(#p5018c08972)" style="fill: none; stroke: #ffae00"/>
    <path d="M 107.665625 190.900918 
L 111.873831 187.913635 
L 112.969025 187.279346 
L 115.620725 186.08153 
L 119.304188 184.993007 
L 123.575825 184.20983 
L 131.530925 183.174977 
L 136.834325 182.650236 
L 142.137725 182.320123 
L 147.441125 182.255494 
L 152.744525 182.443146 
L 160.699625 182.994524 
L 171.306425 184.011642 
L 184.564925 185.556013 
L 200.475125 187.633866 
L 229.643825 191.754799 
L 256.160825 195.556015 
L 277.374425 198.293492 
L 298.588025 200.949613 
L 306.543125 201.644212 
L 311.846525 201.865271 
L 317.149925 201.812104 
L 319.801625 201.652261 
L 322.453325 201.378169 
L 325.105025 200.970351 
L 327.756725 200.41906 
L 330.847442 199.596149 
L 333.060125 198.794741 
L 335.711825 197.696356 
L 338.363525 196.406735 
L 342.563517 193.754892 
L 346.318625 190.900918 
M 346.318625 114.831269 
L 342.110419 117.818552 
L 341.015225 118.452841 
L 338.363525 119.650657 
L 334.680062 120.739181 
L 330.408425 121.522358 
L 322.453325 122.55721 
L 317.149925 123.081951 
L 311.846525 123.412064 
L 306.543125 123.476694 
L 301.239725 123.289041 
L 293.284625 122.737663 
L 282.677825 121.720546 
L 269.419325 120.176175 
L 253.509125 118.098322 
L 224.340425 113.977389 
L 197.823425 110.176173 
L 176.609825 107.438695 
L 155.396225 104.782575 
L 147.441125 104.087975 
L 142.137725 103.866916 
L 136.834325 103.920083 
L 134.182625 104.079927 
L 131.530925 104.354018 
L 128.879225 104.761837 
L 126.227525 105.313128 
L 123.136808 106.136038 
L 120.924125 106.937446 
L 118.272425 108.035831 
L 115.620725 109.325453 
L 111.420733 111.977295 
L 107.665625 114.831269 
L 107.665625 114.831269 
" clip-path="url(#p5018c08972)" style="fill: none; stroke: #ff8d00"/>
    <path d="M 107.665625 181.00543 
L 110.317325 180.016063 
L 113.811625 179.15175 
L 118.272425 178.260665 
L 126.227525 176.923094 
L 131.530925 176.380874 
L 136.834325 176.245707 
L 142.137725 176.405069 
L 150.092825 176.931989 
L 158.047925 177.682161 
L 168.654725 178.943452 
L 192.520025 182.290208 
L 208.430225 184.745108 
L 232.295525 188.526336 
L 253.509125 191.610178 
L 280.026125 195.424293 
L 290.632925 196.864709 
L 298.588025 197.627153 
L 303.891425 197.922272 
L 309.194825 197.949204 
L 314.498225 197.617863 
L 317.149925 197.293696 
L 320.573096 196.675521 
L 322.453325 196.171708 
L 325.105025 195.277984 
L 328.685905 193.754892 
L 330.408425 192.769006 
L 333.468381 190.834264 
L 337.138045 187.913635 
L 341.015225 184.474898 
L 344.265302 182.072378 
L 346.318625 181.00543 
M 346.318625 124.726757 
L 343.666925 125.716124 
L 340.172625 126.580438 
L 335.711825 127.471523 
L 327.756725 128.809094 
L 322.453325 129.351313 
L 317.149925 129.48648 
L 311.846525 129.327118 
L 303.891425 128.800199 
L 295.936325 128.050027 
L 285.329525 126.788735 
L 261.464225 123.44198 
L 245.554025 120.987079 
L 221.688725 117.205851 
L 200.475125 114.122009 
L 173.958125 110.307895 
L 163.351325 108.867478 
L 155.396225 108.105034 
L 150.092825 107.809916 
L 144.789425 107.782983 
L 139.486025 108.114325 
L 136.834325 108.438492 
L 133.411154 109.056667 
L 131.530925 109.560479 
L 128.879225 110.454203 
L 125.298345 111.977295 
L 123.575825 112.963181 
L 120.515869 114.897924 
L 116.846205 117.818552 
L 112.969025 121.25729 
L 109.718948 123.659809 
L 107.665625 124.726757 
L 107.665625 124.726757 
" clip-path="url(#p5018c08972)" style="fill: none; stroke: #ff6c00"/>
    <path d="M 107.665625 171.685349 
L 112.969025 170.017277 
L 115.620725 169.354846 
L 118.272425 168.915025 
L 120.924125 168.65683 
L 126.227525 168.511671 
L 131.530925 168.680667 
L 136.834325 169.06177 
L 144.789425 169.913007 
L 158.047925 171.752107 
L 171.306425 173.914221 
L 184.564925 176.243865 
L 226.992125 183.707229 
L 248.205725 187.067714 
L 282.677825 192.464273 
L 290.632925 193.353711 
L 296.710234 193.754892 
L 301.239725 193.823621 
L 303.891425 193.75094 
L 306.543125 193.556695 
L 309.194825 193.228139 
L 311.846525 192.752618 
L 314.498225 192.115233 
L 318.420649 190.834264 
L 319.801625 190.18658 
L 323.728919 187.913635 
L 325.105025 186.800314 
L 327.756725 184.332601 
L 330.408425 181.27599 
L 333.060125 178.217441 
L 335.711825 175.970929 
L 338.363525 174.559515 
L 343.666925 172.604197 
L 346.318625 171.685349 
M 346.318625 134.046839 
L 341.015225 135.71491 
L 338.363525 136.377342 
L 335.711825 136.817162 
L 333.060125 137.075358 
L 327.756725 137.220516 
L 322.453325 137.05152 
L 317.149925 136.670418 
L 309.194825 135.81918 
L 295.936325 133.980081 
L 282.677825 131.817967 
L 269.419325 129.488323 
L 226.992125 122.024959 
L 205.778525 118.664474 
L 171.306425 113.267914 
L 163.351325 112.378476 
L 157.274016 111.977295 
L 152.744525 111.908567 
L 150.092825 111.981247 
L 147.441125 112.175493 
L 144.789425 112.504048 
L 142.137725 112.979569 
L 139.486025 113.616954 
L 135.563601 114.897924 
L 134.182625 115.545608 
L 130.255331 117.818552 
L 128.879225 118.931873 
L 126.227525 121.399587 
L 123.575825 124.456197 
L 120.924125 127.514746 
L 118.272425 129.761259 
L 115.620725 131.172672 
L 110.317325 133.127991 
L 107.665625 134.046839 
L 107.665625 134.046839 
" clip-path="url(#p5018c08972)" style="fill: none; stroke: #ff4e00"/>
    <path d="M 277.374425 188.157939 
L 280.026125 188.450575 
L 282.677825 188.705661 
L 285.329525 188.917111 
L 287.981225 189.07579 
L 290.632925 189.169725 
L 293.284625 189.188389 
L 295.936325 189.117445 
L 298.588025 188.944341 
L 301.239725 188.650394 
L 303.891425 188.215469 
L 305.27587 187.913635 
L 306.543125 187.554877 
L 309.194825 186.594365 
L 311.846525 185.378212 
L 312.564915 184.993007 
L 314.498225 183.586143 
L 316.313028 182.072378 
L 317.149925 181.082105 
L 318.672195 179.15175 
L 319.801625 177.106811 
L 320.285903 176.231122 
L 321.551129 173.310493 
L 322.453325 171.32675 
L 322.986494 170.389865 
L 325.105025 167.831518 
L 325.52336 167.469236 
L 327.756725 165.467167 
L 328.908005 164.548608 
L 330.408425 162.34171 
L 330.933544 161.627979 
L 331.598891 158.707351 
L 331.071417 155.786722 
L 330.408425 154.896773 
L 328.691156 152.866094 
L 327.756725 152.317705 
L 325.105025 150.790385 
L 323.534008 149.945465 
L 322.453325 149.538675 
L 319.801625 148.509169 
L 317.149925 147.514002 
L 315.846905 147.024837 
L 314.498225 146.616439 
L 311.846525 145.785755 
L 309.194825 144.96208 
L 306.543125 144.153672 
L 306.387863 144.104208 
L 303.891425 143.410944 
L 301.239725 142.67769 
L 298.588025 141.949206 
L 295.936325 141.223939 
L 295.794107 141.18358 
L 293.284625 140.543727 
L 290.632925 139.872012 
L 287.981225 139.201881 
L 285.329525 138.528554 
L 284.301355 138.262951 
L 282.677825 137.881993 
L 280.026125 137.259004 
L 277.374425 136.637348 
L 274.722725 136.012452 
L 272.071025 135.38308 
L 271.901159 135.342323 
L 269.419325 134.801284 
L 266.767625 134.225411 
L 264.115925 133.648532 
L 261.464225 133.069572 
L 258.812525 132.487071 
L 258.514159 132.421694 
L 256.160825 131.951272 
L 253.509125 131.421176 
L 250.857425 130.889691 
L 248.205725 130.357707 
L 245.554025 129.827785 
L 243.898532 129.501066 
L 242.902325 129.318448 
L 240.250625 128.82929 
L 237.598925 128.33576 
L 234.947225 127.838368 
L 232.295525 127.34301 
L 229.643825 126.853958 
L 228.147994 126.580438 
L 226.992125 126.37401 
L 224.340425 125.886331 
L 221.688725 125.393733 
L 219.037025 124.900841 
L 216.385325 124.411327 
L 213.733625 123.922916 
L 212.328967 123.659809 
L 211.081925 123.426433 
L 208.430225 122.925977 
L 205.778525 122.431292 
L 203.126825 121.94146 
L 200.475125 121.452433 
L 197.823425 120.961107 
L 196.631013 120.739181 
L 195.171725 120.478467 
L 192.520025 120.020002 
L 189.868325 119.573324 
L 187.216625 119.137719 
L 184.564925 118.712397 
L 181.913225 118.301964 
L 179.261525 117.907934 
L 178.596872 117.818552 
L 176.609825 117.574248 
L 173.958125 117.281612 
L 171.306425 117.026526 
L 168.654725 116.815076 
L 166.003025 116.656398 
L 163.351325 116.562463 
L 160.699625 116.543799 
L 158.047925 116.614743 
L 155.396225 116.787846 
L 152.744525 117.081794 
L 150.092825 117.516718 
L 148.70838 117.818552 
L 147.441125 118.177311 
L 144.789425 119.137823 
L 142.137725 120.353976 
L 141.419335 120.739181 
L 139.486025 122.146044 
L 137.671222 123.659809 
L 136.834325 124.650083 
L 135.312055 126.580438 
L 134.182625 128.625376 
L 133.698347 129.501066 
L 132.433121 132.421694 
L 131.530925 134.405438 
L 130.997756 135.342323 
L 128.879225 137.900669 
L 128.46089 138.262951 
L 126.227525 140.26502 
L 125.076245 141.18358 
L 123.575825 143.390477 
L 123.050706 144.104208 
L 122.385359 147.024837 
L 122.912833 149.945465 
L 123.575825 150.835415 
L 125.293094 152.866094 
L 126.227525 153.414482 
L 128.879225 154.941802 
L 130.450242 155.786722 
L 131.530925 156.193512 
L 134.182625 157.223018 
L 136.834325 158.218186 
L 138.137345 158.707351 
L 139.486025 159.115749 
L 142.137725 159.946433 
L 144.789425 160.770108 
L 147.441125 161.578515 
L 147.596387 161.627979 
L 150.092825 162.321244 
L 152.744525 163.054497 
L 155.396225 163.782982 
L 158.047925 164.508248 
L 158.190143 164.548608 
L 160.699625 165.188461 
L 163.351325 165.860175 
L 166.003025 166.530306 
L 168.654725 167.203633 
L 169.682895 167.469236 
L 171.306425 167.850194 
L 173.958125 168.473183 
L 176.609825 169.094839 
L 179.261525 169.719736 
L 181.913225 170.349108 
L 182.083091 170.389865 
L 184.564925 170.930904 
L 187.216625 171.506777 
L 189.868325 172.083655 
L 192.520025 172.662616 
L 195.171725 173.245116 
L 195.470091 173.310493 
L 197.823425 173.780916 
L 200.475125 174.311012 
L 203.126825 174.842496 
L 205.778525 175.374481 
L 208.430225 175.904403 
L 210.085718 176.231122 
L 211.081925 176.41374 
L 213.733625 176.902898 
L 216.385325 177.396428 
L 219.037025 177.893819 
L 221.688725 178.389178 
L 224.340425 178.878229 
L 225.836256 179.15175 
L 226.992125 179.358178 
L 229.643825 179.845856 
L 232.295525 180.338454 
L 234.947225 180.831346 
L 237.598925 181.32086 
L 240.250625 181.809272 
L 241.655283 182.072378 
L 242.902325 182.305754 
L 245.554025 182.806211 
L 248.205725 183.300896 
L 250.857425 183.790727 
L 253.509125 184.279754 
L 256.160825 184.77108 
L 257.353237 184.993007 
L 258.812525 185.253721 
L 261.464225 185.712186 
L 264.115925 186.158863 
L 266.767625 186.594468 
L 269.419325 187.019791 
L 272.071025 187.430223 
L 274.722725 187.824253 
L 275.387378 187.913635 
L 277.374425 188.157939 
z
" clip-path="url(#p5018c08972)" style="fill: none; stroke: #ff2d00"/>
    <path d="M 264.115925 182.343408 
L 266.767625 182.709111 
L 269.419325 183.046085 
L 272.071025 183.349689 
L 274.722725 183.611877 
L 277.374425 183.82478 
L 280.026125 183.978202 
L 282.677825 184.06138 
L 285.329525 184.059485 
L 287.981225 183.952538 
L 290.632925 183.721573 
L 293.284625 183.341287 
L 295.936325 182.786726 
L 298.460216 182.072378 
L 298.588025 182.021867 
L 301.239725 180.716334 
L 303.711832 179.15175 
L 303.891425 178.974251 
L 306.25627 176.231122 
L 306.543125 175.592076 
L 307.484655 173.310493 
L 307.858036 170.389865 
L 307.60579 167.469236 
L 306.875294 164.548608 
L 306.543125 163.555987 
L 305.821611 161.627979 
L 304.406559 158.707351 
L 303.891425 157.957136 
L 302.262743 155.786722 
L 301.239725 154.903022 
L 298.796655 152.866094 
L 298.588025 152.744497 
L 295.936325 151.180881 
L 293.800263 149.945465 
L 293.284625 149.716362 
L 290.632925 148.531742 
L 287.981225 147.349409 
L 287.238432 147.024837 
L 285.329525 146.338403 
L 282.677825 145.375646 
L 280.026125 144.419314 
L 279.138851 144.104208 
L 277.374425 143.564575 
L 274.722725 142.746695 
L 272.071025 141.931965 
L 269.575373 141.18358 
L 269.419325 141.14185 
L 266.767625 140.424199 
L 264.115925 139.699885 
L 261.464225 138.984521 
L 258.812525 138.291328 
L 258.703863 138.262951 
L 256.160825 137.628879 
L 253.509125 136.963239 
L 250.857425 136.307208 
L 248.205725 135.667834 
L 246.847546 135.342323 
L 245.554025 135.036845 
L 242.902325 134.400824 
L 240.250625 133.774915 
L 237.598925 133.161624 
L 234.947225 132.556903 
L 234.367217 132.421694 
L 232.295525 131.942119 
L 229.643825 131.336121 
L 226.992125 130.742069 
L 224.340425 130.153751 
L 221.688725 129.561295 
L 221.423247 129.501066 
L 219.037025 128.978493 
L 216.385325 128.411672 
L 213.733625 127.853766 
L 211.081925 127.298033 
L 208.430225 126.73899 
L 207.672327 126.580438 
L 205.778525 126.210414 
L 203.126825 125.706836 
L 200.475125 125.214447 
L 197.823425 124.730704 
L 195.171725 124.257264 
L 192.520025 123.794071 
L 191.699413 123.659809 
L 189.868325 123.38878 
L 187.216625 123.023077 
L 184.564925 122.686102 
L 181.913225 122.382498 
L 179.261525 122.120311 
L 176.609825 121.907408 
L 173.958125 121.753986 
L 171.306425 121.670807 
L 168.654725 121.672702 
L 166.003025 121.779649 
L 163.351325 122.010614 
L 160.699625 122.390901 
L 158.047925 122.945461 
L 155.524034 123.659809 
L 155.396225 123.710321 
L 152.744525 125.015853 
L 150.272418 126.580438 
L 150.092825 126.757937 
L 147.72798 129.501066 
L 147.441125 130.140112 
L 146.499595 132.421694 
L 146.126214 135.342323 
L 146.37846 138.262951 
L 147.108956 141.18358 
L 147.441125 142.176201 
L 148.162639 144.104208 
L 149.577691 147.024837 
L 150.092825 147.775051 
L 151.721507 149.945465 
L 152.744525 150.829166 
L 155.187595 152.866094 
L 155.396225 152.98769 
L 158.047925 154.551306 
L 160.183987 155.786722 
L 160.699625 156.015825 
L 163.351325 157.200445 
L 166.003025 158.382779 
L 166.745818 158.707351 
L 168.654725 159.393784 
L 171.306425 160.356542 
L 173.958125 161.312873 
L 174.845399 161.627979 
L 176.609825 162.167613 
L 179.261525 162.985493 
L 181.913225 163.800222 
L 184.408877 164.548608 
L 184.564925 164.590338 
L 187.216625 165.307988 
L 189.868325 166.032302 
L 192.520025 166.747667 
L 195.171725 167.44086 
L 195.280387 167.469236 
L 197.823425 168.103308 
L 200.475125 168.768949 
L 203.126825 169.424979 
L 205.778525 170.064354 
L 207.136704 170.389865 
L 208.430225 170.695343 
L 211.081925 171.331363 
L 213.733625 171.957273 
L 216.385325 172.570563 
L 219.037025 173.175285 
L 219.617033 173.310493 
L 221.688725 173.790069 
L 224.340425 174.396067 
L 226.992125 174.990119 
L 229.643825 175.578436 
L 232.295525 176.170892 
L 232.561003 176.231122 
L 234.947225 176.753695 
L 237.598925 177.320516 
L 240.250625 177.878421 
L 242.902325 178.434154 
L 245.554025 178.993197 
L 246.311923 179.15175 
L 248.205725 179.521774 
L 250.857425 180.025351 
L 253.509125 180.517741 
L 256.160825 181.001483 
L 258.812525 181.474923 
L 261.464225 181.938117 
L 262.284837 182.072378 
L 264.115925 182.343408 
z
" clip-path="url(#p5018c08972)" style="fill: none; stroke: #f60b00"/>
    <path d="M 256.160825 176.61483 
L 258.812525 176.973227 
L 261.464225 177.297254 
L 264.115925 177.580284 
L 266.767625 177.814559 
L 269.419325 177.987961 
L 272.071025 178.086253 
L 274.722725 178.089851 
L 277.374425 177.980502 
L 280.026125 177.730937 
L 282.677825 177.311866 
L 285.329525 176.685452 
L 286.737673 176.231122 
L 287.981225 175.597173 
L 290.632925 173.77847 
L 291.174834 173.310493 
L 292.704303 170.389865 
L 292.746831 167.469236 
L 291.691772 164.548608 
L 290.632925 162.991715 
L 289.702281 161.627979 
L 287.981225 159.867639 
L 286.825509 158.707351 
L 285.329525 157.530725 
L 283.026387 155.786722 
L 282.677825 155.561537 
L 280.026125 153.910677 
L 278.284852 152.866094 
L 277.374425 152.380074 
L 274.722725 151.027626 
L 272.51522 149.945465 
L 272.071025 149.745017 
L 269.419325 148.581565 
L 266.767625 147.474364 
L 265.6864 147.024837 
L 264.115925 146.418687 
L 261.464225 145.433477 
L 258.812525 144.477081 
L 257.780555 144.104208 
L 256.160825 143.556828 
L 253.509125 142.684895 
L 250.857425 141.832117 
L 248.846627 141.18358 
L 248.205725 140.989501 
L 245.554025 140.201057 
L 242.902325 139.429191 
L 240.250625 138.658932 
L 238.89996 138.262951 
L 237.598925 137.90965 
L 234.947225 137.204733 
L 232.295525 136.506587 
L 229.643825 135.806232 
L 227.897966 135.342323 
L 226.992125 135.122355 
L 224.340425 134.4941 
L 221.688725 133.871275 
L 219.037025 133.24935 
L 216.385325 132.624573 
L 215.506291 132.421694 
L 213.733625 132.055327 
L 211.081925 131.523153 
L 208.430225 131.002093 
L 205.778525 130.49094 
L 203.126825 129.991726 
L 200.475125 129.505357 
L 200.449393 129.501066 
L 197.823425 129.117358 
L 195.171725 128.75896 
L 192.520025 128.434934 
L 189.868325 128.151904 
L 187.216625 127.917628 
L 184.564925 127.744226 
L 181.913225 127.645934 
L 179.261525 127.642337 
L 176.609825 127.751686 
L 173.958125 128.00125 
L 171.306425 128.420321 
L 168.654725 129.046735 
L 167.246577 129.501066 
L 166.003025 130.135014 
L 163.351325 131.953717 
L 162.809416 132.421694 
L 161.279947 135.342323 
L 161.237419 138.262951 
L 162.292478 141.18358 
L 163.351325 142.740473 
L 164.281969 144.104208 
L 166.003025 145.864548 
L 167.158741 147.024837 
L 168.654725 148.201462 
L 170.957863 149.945465 
L 171.306425 150.170651 
L 173.958125 151.82151 
L 175.699398 152.866094 
L 176.609825 153.352114 
L 179.261525 154.704562 
L 181.46903 155.786722 
L 181.913225 155.987171 
L 184.564925 157.150623 
L 187.216625 158.257823 
L 188.29785 158.707351 
L 189.868325 159.3135 
L 192.520025 160.298711 
L 195.171725 161.255106 
L 196.203695 161.627979 
L 197.823425 162.175359 
L 200.475125 163.047292 
L 203.126825 163.900071 
L 205.137623 164.548608 
L 205.778525 164.742687 
L 208.430225 165.531131 
L 211.081925 166.302996 
L 213.733625 167.073256 
L 215.08429 167.469236 
L 216.385325 167.822537 
L 219.037025 168.527455 
L 221.688725 169.225601 
L 224.340425 169.925956 
L 226.086284 170.389865 
L 226.992125 170.609833 
L 229.643825 171.238087 
L 232.295525 171.860912 
L 234.947225 172.482837 
L 237.598925 173.107614 
L 238.477959 173.310493 
L 240.250625 173.67686 
L 242.902325 174.209034 
L 245.554025 174.730095 
L 248.205725 175.241248 
L 250.857425 175.740461 
L 253.509125 176.22683 
L 253.534857 176.231122 
L 256.160825 176.61483 
z
" clip-path="url(#p5018c08972)" style="fill: none; stroke: #cd0000"/>
    <path d="M 256.160825 170.466482 
L 258.812525 170.559994 
L 261.464225 170.551943 
L 264.115925 170.418855 
L 264.404404 170.389865 
L 266.767625 169.996623 
L 269.419325 169.1974 
L 272.071025 167.873355 
L 272.650891 167.469236 
L 273.753695 164.548608 
L 272.696325 161.627979 
L 272.071025 160.935885 
L 270.169062 158.707351 
L 269.419325 158.144155 
L 266.767625 156.075071 
L 266.410793 155.786722 
L 264.115925 154.458516 
L 261.504912 152.866094 
L 261.464225 152.846673 
L 258.812525 151.592368 
L 256.160825 150.290591 
L 255.467166 149.945465 
L 253.509125 149.16516 
L 250.857425 148.096073 
L 248.295251 147.024837 
L 248.205725 146.993786 
L 245.554025 146.093982 
L 242.902325 145.177496 
L 240.250625 144.233648 
L 239.883156 144.104208 
L 237.598925 143.436521 
L 234.947225 142.658964 
L 232.295525 141.868788 
L 230.032334 141.18358 
L 229.643825 141.084471 
L 226.992125 140.435997 
L 224.340425 139.788886 
L 221.688725 139.142263 
L 219.037025 138.494729 
L 218.044156 138.262951 
L 216.385325 137.94007 
L 213.733625 137.451362 
L 211.081925 136.984055 
L 208.430225 136.543661 
L 205.778525 136.137069 
L 203.126825 135.774712 
L 200.475125 135.467551 
L 198.966821 135.342323 
L 197.823425 135.265706 
L 195.171725 135.172194 
L 192.520025 135.180244 
L 189.868325 135.313332 
L 189.579846 135.342323 
L 187.216625 135.735565 
L 184.564925 136.534787 
L 181.913225 137.858833 
L 181.333359 138.262951 
L 180.230555 141.18358 
L 181.287925 144.104208 
L 181.913225 144.796303 
L 183.815188 147.024837 
L 184.564925 147.588032 
L 187.216625 149.657116 
L 187.573457 149.945465 
L 189.868325 151.273672 
L 192.479338 152.866094 
L 192.520025 152.885515 
L 195.171725 154.13982 
L 197.823425 155.441596 
L 198.517084 155.786722 
L 200.475125 156.567027 
L 203.126825 157.636115 
L 205.688999 158.707351 
L 205.778525 158.738402 
L 208.430225 159.638206 
L 211.081925 160.554692 
L 213.733625 161.498539 
L 214.101094 161.627979 
L 216.385325 162.295666 
L 219.037025 163.073223 
L 221.688725 163.8634 
L 223.951916 164.548608 
L 224.340425 164.647717 
L 226.992125 165.296191 
L 229.643825 165.943302 
L 232.295525 166.589924 
L 234.947225 167.237458 
L 235.940094 167.469236 
L 237.598925 167.792117 
L 240.250625 168.280825 
L 242.902325 168.748133 
L 245.554025 169.188526 
L 248.205725 169.595118 
L 250.857425 169.957476 
L 253.509125 170.264636 
L 255.017429 170.389865 
L 256.160825 170.466482 
z
" clip-path="url(#p5018c08972)" style="fill: none; stroke: #a40000"/>
    <path clip-path="url(#p5018c08972)" style="fill: none; stroke: #800000"/>
   </g>
   <g id="patch_3">
    <path d="M 107.665625 284.294375 
L 107.665625 21.437813 
" style="fill: none; stroke: #000000; stroke-width: 0.8; stroke-linejoin: miter; stroke-linecap: square"/>
   </g>
   <g id="patch_4">
    <path d="M 107.665625 284.294375 
L 346.318625 284.294375 
" style="fill: none; stroke: #000000; stroke-width: 0.8; stroke-linejoin: miter; stroke-linecap: square"/>
   </g>
  </g>
  <g id="axes_2">
   <g id="patch_5">
    <path d="M 361.234437 284.294375 
L 374.377266 284.294375 
L 374.377266 21.437813 
L 361.234437 21.437813 
z
" style="fill: #ffffff"/>
   </g>
   <g id="matplotlib.axis_3"/>
   <g id="matplotlib.axis_4">
    <g id="ytick_6">
     <g id="line2d_11">
      <defs>
       <path id="m338b4eeab0" d="M 0 0 
L 3.5 0 
" style="stroke: #000000; stroke-width: 0.8"/>
      </defs>
      <g>
       <use xlink:href="#m338b4eeab0" x="374.377266" y="239.856948" style="stroke: #000000; stroke-width: 0.8"/>
      </g>
     </g>
     <g id="text_13">
      <!-- 1.40 -->
      <g transform="translate(381.377266 246.695542) scale(0.18 -0.18)">
       <defs>
        <path id="DejaVuSerif-31" d="M 909 0 
L 909 331 
L 1722 331 
L 1722 4213 
L 781 3603 
L 781 4013 
L 1919 4750 
L 2350 4750 
L 2350 331 
L 3163 331 
L 3163 0 
L 909 0 
z
" transform="scale(0.015625)"/>
        <path id="DejaVuSerif-2e" d="M 603 325 
Q 603 500 722 622 
Q 841 744 1019 744 
Q 1191 744 1312 622 
Q 1434 500 1434 325 
Q 1434 153 1312 31 
Q 1191 -91 1019 -91 
Q 841 -91 722 29 
Q 603 150 603 325 
z
" transform="scale(0.015625)"/>
        <path id="DejaVuSerif-34" d="M 2234 1581 
L 2234 4063 
L 641 1581 
L 2234 1581 
z
M 3609 0 
L 1484 0 
L 1484 331 
L 2234 331 
L 2234 1247 
L 197 1247 
L 197 1588 
L 2241 4750 
L 2859 4750 
L 2859 1581 
L 3750 1581 
L 3750 1247 
L 2859 1247 
L 2859 331 
L 3609 331 
L 3609 0 
z
" transform="scale(0.015625)"/>
       </defs>
       <use xlink:href="#DejaVuSerif-31"/>
       <use xlink:href="#DejaVuSerif-2e" x="63.623047"/>
       <use xlink:href="#DejaVuSerif-34" x="95.410156"/>
       <use xlink:href="#DejaVuSerif-30" x="159.033203"/>
      </g>
     </g>
    </g>
    <g id="ytick_7">
     <g id="line2d_12">
      <g>
       <use xlink:href="#m338b4eeab0" x="374.377266" y="194.881191" style="stroke: #000000; stroke-width: 0.8"/>
      </g>
     </g>
     <g id="text_14">
      <!-- 1.45 -->
      <g transform="translate(381.377266 201.719785) scale(0.18 -0.18)">
       <defs>
        <path id="DejaVuSerif-35" d="M 3219 4666 
L 3219 4153 
L 1081 4153 
L 1081 2816 
Q 1244 2928 1461 2984 
Q 1678 3041 1947 3041 
Q 2703 3041 3140 2622 
Q 3578 2203 3578 1478 
Q 3578 738 3136 323 
Q 2694 -91 1894 -91 
Q 1572 -91 1234 -12 
Q 897 66 544 225 
L 544 1131 
L 897 1131 
Q 925 688 1179 453 
Q 1434 219 1894 219 
Q 2388 219 2653 544 
Q 2919 869 2919 1478 
Q 2919 2084 2655 2407 
Q 2391 2731 1894 2731 
Q 1613 2731 1398 2631 
Q 1184 2531 1019 2322 
L 750 2322 
L 750 4666 
L 3219 4666 
z
" transform="scale(0.015625)"/>
       </defs>
       <use xlink:href="#DejaVuSerif-31"/>
       <use xlink:href="#DejaVuSerif-2e" x="63.623047"/>
       <use xlink:href="#DejaVuSerif-34" x="95.410156"/>
       <use xlink:href="#DejaVuSerif-35" x="159.033203"/>
      </g>
     </g>
    </g>
    <g id="ytick_8">
     <g id="line2d_13">
      <g>
       <use xlink:href="#m338b4eeab0" x="374.377266" y="149.905434" style="stroke: #000000; stroke-width: 0.8"/>
      </g>
     </g>
     <g id="text_15">
      <!-- 1.50 -->
      <g transform="translate(381.377266 156.744028) scale(0.18 -0.18)">
       <use xlink:href="#DejaVuSerif-31"/>
       <use xlink:href="#DejaVuSerif-2e" x="63.623047"/>
       <use xlink:href="#DejaVuSerif-35" x="95.410156"/>
       <use xlink:href="#DejaVuSerif-30" x="159.033203"/>
      </g>
     </g>
    </g>
    <g id="ytick_9">
     <g id="line2d_14">
      <g>
       <use xlink:href="#m338b4eeab0" x="374.377266" y="104.929677" style="stroke: #000000; stroke-width: 0.8"/>
      </g>
     </g>
     <g id="text_16">
      <!-- 1.55 -->
      <g transform="translate(381.377266 111.768271) scale(0.18 -0.18)">
       <use xlink:href="#DejaVuSerif-31"/>
       <use xlink:href="#DejaVuSerif-2e" x="63.623047"/>
       <use xlink:href="#DejaVuSerif-35" x="95.410156"/>
       <use xlink:href="#DejaVuSerif-35" x="159.033203"/>
      </g>
     </g>
    </g>
    <g id="ytick_10">
     <g id="line2d_15">
      <g>
       <use xlink:href="#m338b4eeab0" x="374.377266" y="59.95392" style="stroke: #000000; stroke-width: 0.8"/>
      </g>
     </g>
     <g id="text_17">
      <!-- 1.60 -->
      <g transform="translate(381.377266 66.792513) scale(0.18 -0.18)">
       <defs>
        <path id="DejaVuSerif-36" d="M 2094 219 
Q 2534 219 2771 542 
Q 3009 866 3009 1472 
Q 3009 2078 2771 2401 
Q 2534 2725 2094 2725 
Q 1647 2725 1412 2412 
Q 1178 2100 1178 1509 
Q 1178 888 1415 553 
Q 1653 219 2094 219 
z
M 1075 2569 
Q 1288 2803 1556 2918 
Q 1825 3034 2163 3034 
Q 2859 3034 3264 2615 
Q 3669 2197 3669 1472 
Q 3669 763 3233 336 
Q 2797 -91 2069 -91 
Q 1278 -91 853 498 
Q 428 1088 428 2181 
Q 428 3406 931 4078 
Q 1434 4750 2350 4750 
Q 2597 4750 2869 4703 
Q 3141 4656 3425 4563 
L 3425 3794 
L 3072 3794 
Q 3034 4109 2831 4275 
Q 2628 4441 2284 4441 
Q 1678 4441 1381 3981 
Q 1084 3522 1075 2569 
z
" transform="scale(0.015625)"/>
       </defs>
       <use xlink:href="#DejaVuSerif-31"/>
       <use xlink:href="#DejaVuSerif-2e" x="63.623047"/>
       <use xlink:href="#DejaVuSerif-36" x="95.410156"/>
       <use xlink:href="#DejaVuSerif-30" x="159.033203"/>
      </g>
     </g>
    </g>
   </g>
   <g id="LineCollection_1"/>
   <g id="LineCollection_2">
    <path d="M 361.234437 284.294375 
L 374.377266 284.294375 
" clip-path="url(#p862fa5411c)" style="fill: none; stroke: #000080"/>
    <path d="M 361.234437 275.230356 
L 374.377266 275.230356 
" clip-path="url(#p862fa5411c)" style="fill: none; stroke: #0000a4"/>
    <path d="M 361.234437 266.166336 
L 374.377266 266.166336 
" clip-path="url(#p862fa5411c)" style="fill: none; stroke: #0000cd"/>
    <path d="M 361.234437 257.102317 
L 374.377266 257.102317 
" clip-path="url(#p862fa5411c)" style="fill: none; stroke: #0000f6"/>
    <path d="M 361.234437 248.038297 
L 374.377266 248.038297 
" clip-path="url(#p862fa5411c)" style="fill: none; stroke: #000cff"/>
    <path d="M 361.234437 238.974278 
L 374.377266 238.974278 
" clip-path="url(#p862fa5411c)" style="fill: none; stroke: #0030ff"/>
    <path d="M 361.234437 229.910259 
L 374.377266 229.910259 
" clip-path="url(#p862fa5411c)" style="fill: none; stroke: #0050ff"/>
    <path d="M 361.234437 220.846239 
L 374.377266 220.846239 
" clip-path="url(#p862fa5411c)" style="fill: none; stroke: #0074ff"/>
    <path d="M 361.234437 211.78222 
L 374.377266 211.78222 
" clip-path="url(#p862fa5411c)" style="fill: none; stroke: #0098ff"/>
    <path d="M 361.234437 202.7182 
L 374.377266 202.7182 
" clip-path="url(#p862fa5411c)" style="fill: none; stroke: #00bcff"/>
    <path d="M 361.234437 193.654181 
L 374.377266 193.654181 
" clip-path="url(#p862fa5411c)" style="fill: none; stroke: #00e0fb"/>
    <path d="M 361.234437 184.590162 
L 374.377266 184.590162 
" clip-path="url(#p862fa5411c)" style="fill: none; stroke: #19ffde"/>
    <path d="M 361.234437 175.526142 
L 374.377266 175.526142 
" clip-path="url(#p862fa5411c)" style="fill: none; stroke: #33ffc4"/>
    <path d="M 361.234437 166.462123 
L 374.377266 166.462123 
" clip-path="url(#p862fa5411c)" style="fill: none; stroke: #50ffa7"/>
    <path d="M 361.234437 157.398103 
L 374.377266 157.398103 
" clip-path="url(#p862fa5411c)" style="fill: none; stroke: #6dff8a"/>
    <path d="M 361.234437 148.334084 
L 374.377266 148.334084 
" clip-path="url(#p862fa5411c)" style="fill: none; stroke: #8aff6d"/>
    <path d="M 361.234437 139.270065 
L 374.377266 139.270065 
" clip-path="url(#p862fa5411c)" style="fill: none; stroke: #a7ff50"/>
    <path d="M 361.234437 130.206045 
L 374.377266 130.206045 
" clip-path="url(#p862fa5411c)" style="fill: none; stroke: #c4ff33"/>
    <path d="M 361.234437 121.142026 
L 374.377266 121.142026 
" clip-path="url(#p862fa5411c)" style="fill: none; stroke: #deff19"/>
    <path d="M 361.234437 112.078006 
L 374.377266 112.078006 
" clip-path="url(#p862fa5411c)" style="fill: none; stroke: #fbf100"/>
    <path d="M 361.234437 103.013987 
L 374.377266 103.013987 
" clip-path="url(#p862fa5411c)" style="fill: none; stroke: #ffd000"/>
    <path d="M 361.234437 93.949968 
L 374.377266 93.949968 
" clip-path="url(#p862fa5411c)" style="fill: none; stroke: #ffae00"/>
    <path d="M 361.234437 84.885948 
L 374.377266 84.885948 
" clip-path="url(#p862fa5411c)" style="fill: none; stroke: #ff8d00"/>
    <path d="M 361.234437 75.821929 
L 374.377266 75.821929 
" clip-path="url(#p862fa5411c)" style="fill: none; stroke: #ff6c00"/>
    <path d="M 361.234437 66.757909 
L 374.377266 66.757909 
" clip-path="url(#p862fa5411c)" style="fill: none; stroke: #ff4e00"/>
    <path d="M 361.234437 57.69389 
L 374.377266 57.69389 
" clip-path="url(#p862fa5411c)" style="fill: none; stroke: #ff2d00"/>
    <path d="M 361.234437 48.629871 
L 374.377266 48.629871 
" clip-path="url(#p862fa5411c)" style="fill: none; stroke: #f60b00"/>
    <path d="M 361.234437 39.565851 
L 374.377266 39.565851 
" clip-path="url(#p862fa5411c)" style="fill: none; stroke: #cd0000"/>
    <path d="M 361.234437 30.501832 
L 374.377266 30.501832 
" clip-path="url(#p862fa5411c)" style="fill: none; stroke: #a40000"/>
    <path d="M 361.234437 21.437813 
L 374.377266 21.437813 
" clip-path="url(#p862fa5411c)" style="fill: none; stroke: #800000"/>
   </g>
   <g id="patch_6">
    <path d="M 361.234437 284.294375 
L 367.805852 284.294375 
L 374.377266 284.294375 
L 374.377266 21.437813 
L 367.805852 21.437813 
L 361.234437 21.437813 
L 361.234437 284.294375 
z
" style="fill: none; stroke: #000000; stroke-width: 0.8; stroke-linejoin: miter; stroke-linecap: square"/>
   </g>
  </g>
 </g>
 <defs>
  <clipPath id="p5018c08972">
   <rect x="107.665625" y="21.437813" width="238.653" height="262.856562"/>
  </clipPath>
  <clipPath id="p862fa5411c">
   <path d="M 361.234437 285.242631 
L 374.377266 285.242631 
L 374.377266 20.489557 
L 361.234437 20.489557 
z
"/>
  </clipPath>
 </defs>
</svg>
