<?xml version="1.0" encoding="utf-8" standalone="no"?>
<!DOCTYPE svg PUBLIC "-//W3C//DTD SVG 1.1//EN"
  "http://www.w3.org/Graphics/SVG/1.1/DTD/svg11.dtd">
<svg xmlns:xlink="http://www.w3.org/1999/xlink" width="432pt" height="360pt" viewBox="0 0 432 360" xmlns="http://www.w3.org/2000/svg" version="1.1">
 <metadata>
  <rdf:RDF xmlns:dc="http://purl.org/dc/elements/1.1/" xmlns:cc="http://creativecommons.org/ns#" xmlns:rdf="http://www.w3.org/1999/02/22-rdf-syntax-ns#">
   <cc:Work>
    <dc:type rdf:resource="http://purl.org/dc/dcmitype/StillImage"/>
    <dc:date>2025-04-13T20:31:00.978182</dc:date>
    <dc:format>image/svg+xml</dc:format>
    <dc:creator>
     <cc:Agent>
      <dc:title>Matplotlib v3.9.2, https://matplotlib.org/</dc:title>
     </cc:Agent>
    </dc:creator>
   </cc:Work>
  </rdf:RDF>
 </metadata>
 <defs>
  <style type="text/css">*{stroke-linejoin: round; stroke-linecap: butt}</style>
 </defs>
 <g id="figure_1">
  <g id="patch_1">
   <path d="M 0 360 
L 432 360 
L 432 0 
L 0 0 
z
" style="fill: #ffffff"/>
  </g>
  <g id="axes_1">
   <g id="patch_2">
    <path d="M 107.665625 284.294375 
L 346.318625 284.294375 
L 346.318625 21.437813 
L 107.665625 21.437813 
z
" style="fill: #ffffff"/>
   </g>
   <g id="matplotlib.axis_1">
    <g id="xtick_1">
     <g id="line2d_1">
      <defs>
       <path id="mec9c712cea" d="M 0 0 
L 0 3.5 
" style="stroke: #000000; stroke-width: 0.8"/>
      </defs>
      <g>
       <use xlink:href="#mec9c712cea" x="107.665625" y="284.294375" style="stroke: #000000; stroke-width: 0.8"/>
      </g>
     </g>
     <g id="text_1">
      <!-- 0 -->
      <g transform="translate(98.758125 312.57) scale(0.28 -0.28)">
       <defs>
        <path id="DejaVuSerif-30" d="M 2034 219 
Q 2513 219 2750 744 
Q 2988 1269 2988 2328 
Q 2988 3391 2750 3916 
Q 2513 4441 2034 4441 
Q 1556 4441 1318 3916 
Q 1081 3391 1081 2328 
Q 1081 1269 1318 744 
Q 1556 219 2034 219 
z
M 2034 -91 
Q 1275 -91 848 546 
Q 422 1184 422 2328 
Q 422 3475 848 4112 
Q 1275 4750 2034 4750 
Q 2797 4750 3222 4112 
Q 3647 3475 3647 2328 
Q 3647 1184 3222 546 
Q 2797 -91 2034 -91 
z
" transform="scale(0.015625)"/>
       </defs>
       <use xlink:href="#DejaVuSerif-30"/>
      </g>
     </g>
    </g>
    <g id="xtick_2">
     <g id="line2d_2">
      <g>
       <use xlink:href="#mec9c712cea" x="167.328875" y="284.294375" style="stroke: #000000; stroke-width: 0.8"/>
      </g>
     </g>
     <g id="text_2">
      <!-- $\pi/2$ -->
      <g transform="translate(145.348875 312.294375) scale(0.28 -0.28)">
       <defs>
        <path id="Cmmi10-bc" d="M 647 109 
Q 647 144 672 213 
Q 850 584 1004 942 
Q 1159 1300 1282 1639 
Q 1406 1978 1509 2363 
L 1100 2363 
Q 866 2363 662 2216 
Q 459 2069 325 1844 
Q 313 1819 288 1819 
L 213 1819 
Q 153 1819 153 1881 
Q 153 1894 166 1919 
Q 375 2275 614 2517 
Q 853 2759 1153 2759 
L 3475 2759 
Q 3541 2759 3587 2715 
Q 3634 2672 3634 2597 
Q 3634 2503 3567 2433 
Q 3500 2363 3406 2363 
L 2591 2363 
Q 2488 1859 2478 1381 
Q 2478 766 2694 269 
Q 2713 231 2713 191 
Q 2713 122 2672 62 
Q 2631 3 2567 -34 
Q 2503 -72 2431 -72 
Q 2263 -72 2200 203 
Q 2138 478 2138 738 
Q 2138 1103 2200 1442 
Q 2263 1781 2400 2363 
L 1703 2363 
Q 1197 313 1094 103 
Q 1003 -72 844 -72 
Q 766 -72 706 -20 
Q 647 31 647 109 
z
" transform="scale(0.015625)"/>
        <path id="Cmmi10-3d" d="M 359 -1472 
Q 359 -1453 366 -1447 
L 2591 4722 
Q 2603 4759 2634 4779 
Q 2666 4800 2706 4800 
Q 2763 4800 2798 4765 
Q 2834 4731 2834 4672 
L 2834 4647 
L 609 -1522 
Q 572 -1600 488 -1600 
Q 434 -1600 396 -1562 
Q 359 -1525 359 -1472 
z
" transform="scale(0.015625)"/>
        <path id="Cmr10-32" d="M 319 0 
L 319 172 
Q 319 188 331 206 
L 1325 1306 
Q 1550 1550 1690 1715 
Q 1831 1881 1968 2097 
Q 2106 2313 2186 2536 
Q 2266 2759 2266 3009 
Q 2266 3272 2169 3511 
Q 2072 3750 1880 3894 
Q 1688 4038 1416 4038 
Q 1138 4038 916 3870 
Q 694 3703 603 3438 
Q 628 3444 672 3444 
Q 816 3444 917 3347 
Q 1019 3250 1019 3097 
Q 1019 2950 917 2848 
Q 816 2747 672 2747 
Q 522 2747 420 2851 
Q 319 2956 319 3097 
Q 319 3338 409 3548 
Q 500 3759 670 3923 
Q 841 4088 1055 4175 
Q 1269 4263 1509 4263 
Q 1875 4263 2190 4108 
Q 2506 3953 2690 3670 
Q 2875 3388 2875 3009 
Q 2875 2731 2753 2481 
Q 2631 2231 2440 2026 
Q 2250 1822 1953 1562 
Q 1656 1303 1563 1216 
L 838 519 
L 1453 519 
Q 1906 519 2211 526 
Q 2516 534 2534 550 
Q 2609 631 2688 1141 
L 2875 1141 
L 2694 0 
L 319 0 
z
" transform="scale(0.015625)"/>
       </defs>
       <use xlink:href="#Cmmi10-bc"/>
       <use xlink:href="#Cmmi10-3d" transform="translate(56.982422 0)"/>
       <use xlink:href="#Cmr10-32" transform="translate(106.982422 0)"/>
      </g>
     </g>
    </g>
    <g id="xtick_3">
     <g id="line2d_3">
      <g>
       <use xlink:href="#mec9c712cea" x="226.992125" y="284.294375" style="stroke: #000000; stroke-width: 0.8"/>
      </g>
     </g>
     <g id="text_3">
      <!-- $\pi$ -->
      <g transform="translate(219.012125 312.57) scale(0.28 -0.28)">
       <use xlink:href="#Cmmi10-bc" transform="translate(0 0.890625)"/>
      </g>
     </g>
    </g>
    <g id="xtick_4">
     <g id="line2d_4">
      <g>
       <use xlink:href="#mec9c712cea" x="286.655375" y="284.294375" style="stroke: #000000; stroke-width: 0.8"/>
      </g>
     </g>
     <g id="text_4">
      <!-- $3\pi/2$ -->
      <g transform="translate(257.675375 312.294375) scale(0.28 -0.28)">
       <defs>
        <path id="Cmr10-33" d="M 609 494 
Q 759 275 1012 169 
Q 1266 63 1556 63 
Q 1928 63 2084 380 
Q 2241 697 2241 1100 
Q 2241 1281 2208 1462 
Q 2175 1644 2097 1800 
Q 2019 1956 1883 2050 
Q 1747 2144 1550 2144 
L 1125 2144 
Q 1069 2144 1069 2203 
L 1069 2259 
Q 1069 2309 1125 2309 
L 1478 2338 
Q 1703 2338 1851 2506 
Q 2000 2675 2069 2917 
Q 2138 3159 2138 3378 
Q 2138 3684 1994 3881 
Q 1850 4078 1556 4078 
Q 1313 4078 1091 3986 
Q 869 3894 738 3706 
Q 750 3709 759 3711 
Q 769 3713 781 3713 
Q 925 3713 1022 3613 
Q 1119 3513 1119 3372 
Q 1119 3234 1022 3134 
Q 925 3034 781 3034 
Q 641 3034 541 3134 
Q 441 3234 441 3372 
Q 441 3647 606 3850 
Q 772 4053 1033 4158 
Q 1294 4263 1556 4263 
Q 1750 4263 1965 4205 
Q 2181 4147 2356 4039 
Q 2531 3931 2642 3762 
Q 2753 3594 2753 3378 
Q 2753 3109 2633 2881 
Q 2513 2653 2303 2487 
Q 2094 2322 1844 2241 
Q 2122 2188 2372 2031 
Q 2622 1875 2773 1631 
Q 2925 1388 2925 1106 
Q 2925 753 2731 467 
Q 2538 181 2222 20 
Q 1906 -141 1556 -141 
Q 1256 -141 954 -26 
Q 653 88 461 316 
Q 269 544 269 863 
Q 269 1022 375 1128 
Q 481 1234 641 1234 
Q 744 1234 830 1186 
Q 916 1138 964 1050 
Q 1013 963 1013 863 
Q 1013 706 903 600 
Q 794 494 641 494 
L 609 494 
z
" transform="scale(0.015625)"/>
       </defs>
       <use xlink:href="#Cmr10-33"/>
       <use xlink:href="#Cmmi10-bc" transform="translate(50 0)"/>
       <use xlink:href="#Cmmi10-3d" transform="translate(106.982422 0)"/>
       <use xlink:href="#Cmr10-32" transform="translate(156.982422 0)"/>
      </g>
     </g>
    </g>
    <g id="xtick_5">
     <g id="line2d_5">
      <g>
       <use xlink:href="#mec9c712cea" x="346.318625" y="284.294375" style="stroke: #000000; stroke-width: 0.8"/>
      </g>
     </g>
     <g id="text_5">
      <!-- $2\pi$ -->
      <g transform="translate(331.338625 312.57) scale(0.28 -0.28)">
       <use xlink:href="#Cmr10-32" transform="translate(0 0.390625)"/>
       <use xlink:href="#Cmmi10-bc" transform="translate(50 0.390625)"/>
      </g>
     </g>
    </g>
    <g id="text_6">
     <!-- $\zeta_{\mathrm{Boozer}}$ -->
     <g transform="translate(182.792125 342.06) scale(0.34 -0.34)">
      <defs>
       <path id="Cmmi10-b3" d="M 1131 -997 
Q 1147 -922 1222 -922 
Q 1234 -922 1332 -986 
Q 1431 -1050 1542 -1098 
Q 1653 -1147 1784 -1147 
Q 1922 -1147 2014 -1019 
Q 2106 -891 2106 -744 
Q 2106 -597 2009 -494 
Q 1913 -391 1766 -341 
L 1113 -122 
Q 713 16 503 317 
Q 294 619 294 1050 
Q 294 1416 426 1831 
Q 559 2247 793 2637 
Q 1028 3028 1334 3339 
Q 1641 3650 1972 3822 
Q 1906 3953 1906 4128 
Q 1906 4475 2041 4475 
Q 2075 4475 2100 4450 
Q 2125 4425 2125 4391 
Q 2125 4344 2109 4245 
Q 2094 4147 2094 4122 
Q 2094 4006 2131 3897 
Q 2297 3963 2438 3963 
Q 3028 3963 3028 3781 
Q 3028 3566 2375 3566 
Q 2181 3566 2069 3681 
Q 1794 3525 1539 3244 
Q 1284 2963 1087 2613 
Q 891 2263 781 1906 
Q 672 1550 672 1228 
Q 672 538 1300 319 
L 1984 91 
Q 2200 25 2336 -139 
Q 2472 -303 2472 -531 
Q 2472 -716 2378 -898 
Q 2284 -1081 2125 -1197 
Q 1966 -1313 1772 -1313 
Q 1619 -1313 1375 -1211 
Q 1131 -1109 1131 -997 
z
M 2247 3763 
Q 2241 3763 2303 3738 
Q 2331 3738 2348 3736 
Q 2366 3734 2388 3731 
Q 2694 3731 2828 3769 
Q 2706 3794 2438 3794 
Q 2350 3794 2247 3763 
z
" transform="scale(0.015625)"/>
       <path id="Cmr10-42" d="M 219 0 
L 219 225 
Q 878 225 878 428 
L 878 3944 
Q 878 4147 219 4147 
L 219 4372 
L 2572 4372 
Q 2897 4372 3228 4245 
Q 3559 4119 3776 3870 
Q 3994 3622 3994 3284 
Q 3994 2894 3673 2630 
Q 3353 2366 2925 2284 
Q 3203 2284 3497 2131 
Q 3791 1978 3978 1722 
Q 4166 1466 4166 1178 
Q 4166 828 3958 559 
Q 3750 291 3419 145 
Q 3088 0 2753 0 
L 219 0 
z
M 1434 428 
Q 1434 291 1512 258 
Q 1591 225 1759 225 
L 2572 225 
Q 2822 225 3036 356 
Q 3250 488 3375 708 
Q 3500 928 3500 1178 
Q 3500 1422 3397 1655 
Q 3294 1888 3101 2038 
Q 2909 2188 2663 2188 
L 1434 2188 
L 1434 428 
z
M 1434 2356 
L 2394 2356 
Q 2588 2356 2758 2426 
Q 2928 2497 3064 2630 
Q 3200 2763 3273 2930 
Q 3347 3097 3347 3284 
Q 3347 3450 3292 3603 
Q 3238 3756 3131 3881 
Q 3025 4006 2881 4076 
Q 2738 4147 2572 4147 
L 1759 4147 
Q 1644 4147 1580 4137 
Q 1516 4128 1475 4083 
Q 1434 4038 1434 3944 
L 1434 2356 
z
" transform="scale(0.015625)"/>
       <path id="Cmr10-6f" d="M 1600 -72 
Q 1216 -72 887 123 
Q 559 319 368 647 
Q 178 975 178 1363 
Q 178 1656 283 1928 
Q 388 2200 583 2414 
Q 778 2628 1037 2748 
Q 1297 2869 1600 2869 
Q 1994 2869 2317 2661 
Q 2641 2453 2828 2104 
Q 3016 1756 3016 1363 
Q 3016 978 2825 648 
Q 2634 319 2307 123 
Q 1981 -72 1600 -72 
z
M 1600 116 
Q 2113 116 2284 487 
Q 2456 859 2456 1434 
Q 2456 1756 2422 1967 
Q 2388 2178 2272 2350 
Q 2200 2456 2089 2536 
Q 1978 2616 1854 2658 
Q 1731 2700 1600 2700 
Q 1400 2700 1220 2609 
Q 1041 2519 922 2350 
Q 803 2169 770 1951 
Q 738 1734 738 1434 
Q 738 1075 800 789 
Q 863 503 1052 309 
Q 1241 116 1600 116 
z
" transform="scale(0.015625)"/>
       <path id="Cmr10-7a" d="M 250 0 
Q 178 0 178 72 
L 178 122 
Q 178 147 197 166 
L 1984 2591 
L 1409 2591 
Q 1138 2591 961 2556 
Q 784 2522 670 2426 
Q 556 2331 504 2164 
Q 453 1997 453 1703 
L 269 1703 
L 341 2759 
L 2484 2759 
Q 2513 2759 2533 2739 
Q 2553 2719 2553 2688 
L 2553 2650 
Q 2553 2631 2541 2606 
L 750 184 
L 1363 184 
Q 1641 184 1827 218 
Q 2013 253 2144 384 
Q 2266 506 2311 712 
Q 2356 919 2381 1222 
L 2566 1222 
L 2456 0 
L 250 0 
z
" transform="scale(0.015625)"/>
       <path id="Cmr10-65" d="M 1594 -72 
Q 1203 -72 876 133 
Q 550 338 364 680 
Q 178 1022 178 1403 
Q 178 1778 348 2115 
Q 519 2453 823 2661 
Q 1128 2869 1503 2869 
Q 1797 2869 2014 2770 
Q 2231 2672 2372 2497 
Q 2513 2322 2584 2084 
Q 2656 1847 2656 1563 
Q 2656 1478 2591 1478 
L 738 1478 
L 738 1409 
Q 738 878 952 497 
Q 1166 116 1650 116 
Q 1847 116 2014 203 
Q 2181 291 2304 447 
Q 2428 603 2472 781 
Q 2478 803 2495 820 
Q 2513 838 2534 838 
L 2591 838 
Q 2656 838 2656 756 
Q 2566 394 2266 161 
Q 1966 -72 1594 -72 
z
M 744 1638 
L 2203 1638 
Q 2203 1878 2136 2125 
Q 2069 2372 1912 2536 
Q 1756 2700 1503 2700 
Q 1141 2700 942 2361 
Q 744 2022 744 1638 
z
" transform="scale(0.015625)"/>
       <path id="Cmr10-72" d="M 166 0 
L 166 225 
Q 384 225 525 259 
Q 666 294 666 428 
L 666 2175 
Q 666 2347 614 2423 
Q 563 2500 466 2517 
Q 369 2534 166 2534 
L 166 2759 
L 1081 2828 
L 1081 2203 
Q 1184 2481 1375 2654 
Q 1566 2828 1838 2828 
Q 2028 2828 2178 2715 
Q 2328 2603 2328 2419 
Q 2328 2303 2245 2217 
Q 2163 2131 2041 2131 
Q 1922 2131 1837 2215 
Q 1753 2300 1753 2419 
Q 1753 2591 1875 2663 
L 1838 2663 
Q 1578 2663 1414 2475 
Q 1250 2288 1181 2009 
Q 1113 1731 1113 1478 
L 1113 428 
Q 1113 225 1734 225 
L 1734 0 
L 166 0 
z
" transform="scale(0.015625)"/>
      </defs>
      <use xlink:href="#Cmmi10-b3" transform="translate(0 0.078125)"/>
      <use xlink:href="#Cmr10-42" transform="translate(43.701172 -16.928125) scale(0.7)"/>
      <use xlink:href="#Cmr10-6f" transform="translate(93.261719 -16.928125) scale(0.7)"/>
      <use xlink:href="#Cmr10-6f" transform="translate(128.261719 -16.928125) scale(0.7)"/>
      <use xlink:href="#Cmr10-7a" transform="translate(163.261719 -16.928125) scale(0.7)"/>
      <use xlink:href="#Cmr10-65" transform="translate(194.331055 -16.928125) scale(0.7)"/>
      <use xlink:href="#Cmr10-72" transform="translate(225.400391 -16.928125) scale(0.7)"/>
     </g>
    </g>
   </g>
   <g id="matplotlib.axis_2">
    <g id="ytick_1">
     <g id="line2d_6">
      <defs>
       <path id="mb6c9bfd43b" d="M 0 0 
L -3.5 0 
" style="stroke: #000000; stroke-width: 0.8"/>
      </defs>
      <g>
       <use xlink:href="#mb6c9bfd43b" x="107.665625" y="284.294375" style="stroke: #000000; stroke-width: 0.8"/>
      </g>
     </g>
     <g id="text_7">
      <!-- 0 -->
      <g transform="translate(82.850625 294.932187) scale(0.28 -0.28)">
       <use xlink:href="#DejaVuSerif-30"/>
      </g>
     </g>
    </g>
    <g id="ytick_2">
     <g id="line2d_7">
      <g>
       <use xlink:href="#mb6c9bfd43b" x="107.665625" y="218.580234" style="stroke: #000000; stroke-width: 0.8"/>
      </g>
     </g>
     <g id="text_8">
      <!-- $\pi/2$ -->
      <g transform="translate(56.705625 229.080234) scale(0.28 -0.28)">
       <use xlink:href="#Cmmi10-bc"/>
       <use xlink:href="#Cmmi10-3d" transform="translate(56.982422 0)"/>
       <use xlink:href="#Cmr10-32" transform="translate(106.982422 0)"/>
      </g>
     </g>
    </g>
    <g id="ytick_3">
     <g id="line2d_8">
      <g>
       <use xlink:href="#mb6c9bfd43b" x="107.665625" y="152.866094" style="stroke: #000000; stroke-width: 0.8"/>
      </g>
     </g>
     <g id="text_9">
      <!-- $\pi$ -->
      <g transform="translate(84.705625 163.503906) scale(0.28 -0.28)">
       <use xlink:href="#Cmmi10-bc" transform="translate(0 0.890625)"/>
      </g>
     </g>
    </g>
    <g id="ytick_4">
     <g id="line2d_9">
      <g>
       <use xlink:href="#mb6c9bfd43b" x="107.665625" y="87.151953" style="stroke: #000000; stroke-width: 0.8"/>
      </g>
     </g>
     <g id="text_10">
      <!-- $3\pi/2$ -->
      <g transform="translate(42.705625 97.651953) scale(0.28 -0.28)">
       <use xlink:href="#Cmr10-33"/>
       <use xlink:href="#Cmmi10-bc" transform="translate(50 0)"/>
       <use xlink:href="#Cmmi10-3d" transform="translate(106.982422 0)"/>
       <use xlink:href="#Cmr10-32" transform="translate(156.982422 0)"/>
      </g>
     </g>
    </g>
    <g id="ytick_5">
     <g id="line2d_10">
      <g>
       <use xlink:href="#mb6c9bfd43b" x="107.665625" y="21.437813" style="stroke: #000000; stroke-width: 0.8"/>
      </g>
     </g>
     <g id="text_11">
      <!-- $2\pi$ -->
      <g transform="translate(70.705625 32.075625) scale(0.28 -0.28)">
       <use xlink:href="#Cmr10-32" transform="translate(0 0.390625)"/>
       <use xlink:href="#Cmmi10-bc" transform="translate(50 0.390625)"/>
      </g>
     </g>
    </g>
    <g id="text_12">
     <!-- $\theta_{\mathrm{Boozer}}$ -->
     <g transform="translate(36.634687 197.576094) rotate(-90) scale(0.34 -0.34)">
      <defs>
       <path id="Cmmi10-b5" d="M 1031 -72 
Q 741 -72 566 140 
Q 391 353 323 653 
Q 256 953 256 1247 
L 256 1253 
Q 256 1572 317 1915 
Q 378 2259 493 2601 
Q 609 2944 744 3213 
Q 838 3400 986 3631 
Q 1134 3863 1317 4064 
Q 1500 4266 1711 4389 
Q 1922 4513 2138 4513 
L 2144 4513 
Q 2375 4513 2529 4384 
Q 2684 4256 2770 4056 
Q 2856 3856 2890 3628 
Q 2925 3400 2925 3194 
Q 2925 2709 2794 2204 
Q 2663 1700 2431 1228 
Q 2344 1050 2189 809 
Q 2034 569 1861 378 
Q 1688 188 1472 58 
Q 1256 -72 1038 -72 
L 1031 -72 
z
M 1044 97 
Q 1256 97 1451 323 
Q 1647 550 1794 873 
Q 1941 1197 2052 1536 
Q 2163 1875 2216 2113 
L 909 2113 
Q 809 1709 753 1417 
Q 697 1125 697 844 
Q 697 97 1044 97 
z
M 959 2338 
L 2272 2338 
Q 2341 2619 2381 2808 
Q 2422 2997 2450 3206 
Q 2478 3416 2478 3597 
Q 2478 4347 2138 4347 
Q 1731 4347 1436 3692 
Q 1141 3038 959 2338 
z
" transform="scale(0.015625)"/>
      </defs>
      <use xlink:href="#Cmmi10-b5" transform="translate(0 0.484375)"/>
      <use xlink:href="#Cmr10-42" transform="translate(46.923828 -16.521875) scale(0.7)"/>
      <use xlink:href="#Cmr10-6f" transform="translate(96.484375 -16.521875) scale(0.7)"/>
      <use xlink:href="#Cmr10-6f" transform="translate(131.484375 -16.521875) scale(0.7)"/>
      <use xlink:href="#Cmr10-7a" transform="translate(166.484375 -16.521875) scale(0.7)"/>
      <use xlink:href="#Cmr10-65" transform="translate(197.553711 -16.521875) scale(0.7)"/>
      <use xlink:href="#Cmr10-72" transform="translate(228.623047 -16.521875) scale(0.7)"/>
     </g>
    </g>
   </g>
   <g id="QuadContourSet_1">
    <path d="M 346.318625 284.294375 
L 346.318625 284.294375 
z
" clip-path="url(#p5aa337affc)" style="fill: none; stroke: #000080"/>
    <path d="M 260.733467 284.294375 
L 261.524313 281.373747 
L 264.115925 280.469804 
L 269.419325 278.325351 
L 274.722725 276.948923 
L 280.026125 275.455404 
L 294.737258 272.611861 
L 301.239725 271.811421 
L 309.194825 271.027351 
L 317.149925 270.499792 
L 325.105025 270.249546 
L 333.060125 270.273782 
L 341.015225 270.554492 
L 346.318625 270.858186 
M 107.665625 270.858186 
L 115.620725 271.470179 
L 127.405212 272.611861 
L 149.466344 275.53249 
L 160.699625 277.348103 
L 168.654725 278.535199 
L 179.261525 280.547511 
L 184.564925 281.51929 
L 193.250783 284.294375 
M 346.318625 34.874001 
L 338.363525 34.262008 
L 326.579038 33.120326 
L 304.517906 30.199698 
L 293.284625 28.384085 
L 285.329525 27.196989 
L 274.722725 25.184676 
L 269.419325 24.212898 
L 260.733467 21.437813 
M 193.250783 21.437813 
L 192.459937 24.358441 
L 189.868325 25.262383 
L 184.564925 27.406837 
L 179.261525 28.783265 
L 173.958125 30.276783 
L 159.246992 33.120326 
L 152.744525 33.920767 
L 144.789425 34.704837 
L 136.834325 35.232395 
L 128.879225 35.482642 
L 120.924125 35.458405 
L 112.969025 35.177695 
L 107.665625 34.874001 
L 107.665625 34.874001 
" clip-path="url(#p5aa337affc)" style="fill: none; stroke: #0000a4"/>
    <path d="M 107.665625 265.086628 
L 120.924125 266.009667 
L 136.834325 267.336026 
L 155.396225 268.927347 
L 173.958125 270.244757 
L 184.564925 270.805127 
L 195.171725 271.156174 
L 205.778525 271.291524 
L 216.385325 271.187097 
L 226.992125 270.809649 
L 234.947225 270.323828 
L 245.554025 269.429542 
L 256.160825 268.379854 
L 277.374425 266.101358 
L 287.981225 265.243436 
L 298.588025 264.613797 
L 309.194825 264.252265 
L 319.801625 264.167304 
L 330.408425 264.351435 
L 341.015225 264.791712 
L 346.318625 265.086628 
M 346.318625 40.645559 
L 333.060125 39.72252 
L 317.149925 38.396161 
L 298.588025 36.80484 
L 280.026125 35.48743 
L 269.419325 34.927061 
L 258.812525 34.576014 
L 248.205725 34.440664 
L 237.598925 34.545091 
L 226.992125 34.922538 
L 219.037025 35.408359 
L 208.430225 36.302645 
L 197.823425 37.352333 
L 176.609825 39.630829 
L 166.003025 40.488751 
L 155.396225 41.118391 
L 144.789425 41.479923 
L 134.182625 41.564883 
L 123.575825 41.380753 
L 112.969025 40.940476 
L 107.665625 40.645559 
L 107.665625 40.645559 
" clip-path="url(#p5aa337affc)" style="fill: none; stroke: #0000cd"/>
    <path d="M 107.665625 260.535274 
L 120.924125 261.364799 
L 152.744525 263.506402 
L 168.654725 264.339408 
L 179.261525 264.709426 
L 189.868325 264.893227 
L 200.475125 264.879303 
L 211.081925 264.653152 
L 221.688725 264.195539 
L 234.947225 263.349376 
L 248.205725 262.284877 
L 266.767625 260.745097 
L 280.026125 259.975272 
L 290.632925 259.580559 
L 301.239725 259.389937 
L 311.846525 259.391848 
L 325.105025 259.640837 
L 338.363525 260.139492 
L 346.318625 260.535274 
M 346.318625 45.196914 
L 333.060125 44.367389 
L 301.239725 42.225785 
L 285.329525 41.392779 
L 274.722725 41.022761 
L 264.115925 40.83896 
L 253.509125 40.852884 
L 242.902325 41.079035 
L 232.295525 41.536649 
L 219.037025 42.382811 
L 205.778525 43.447311 
L 187.216625 44.98709 
L 173.958125 45.756916 
L 163.351325 46.151629 
L 152.744525 46.34225 
L 142.137725 46.34034 
L 128.879225 46.091351 
L 115.620725 45.592696 
L 107.665625 45.196914 
L 107.665625 45.196914 
" clip-path="url(#p5aa337affc)" style="fill: none; stroke: #0000f6"/>
    <path d="M 107.665625 256.638885 
L 131.616369 258.008719 
L 150.092825 259.066909 
L 163.351325 259.613683 
L 176.609825 259.913079 
L 189.868325 259.936567 
L 200.475125 259.74251 
L 211.081925 259.351655 
L 221.688725 258.767503 
L 240.250625 257.448381 
L 258.812525 256.172245 
L 269.419325 255.618025 
L 280.026125 255.255361 
L 292.302341 255.08809 
L 303.891425 255.147214 
L 317.149925 255.426806 
L 333.060125 255.999259 
L 346.318625 256.638885 
M 346.318625 49.093303 
L 322.367881 47.723469 
L 303.891425 46.665278 
L 290.632925 46.118505 
L 277.374425 45.819109 
L 264.115925 45.79562 
L 253.509125 45.989677 
L 242.902325 46.380533 
L 232.295525 46.964684 
L 213.733625 48.283806 
L 195.171725 49.559943 
L 184.564925 50.114162 
L 173.958125 50.476827 
L 161.681909 50.644097 
L 150.092825 50.584973 
L 136.834325 50.305382 
L 120.924125 49.732928 
L 107.665625 49.093303 
L 107.665625 49.093303 
" clip-path="url(#p5aa337affc)" style="fill: none; stroke: #000cff"/>
    <path d="M 107.665625 253.0961 
L 152.744525 255.297731 
L 166.003025 255.623614 
L 176.609825 255.688694 
L 187.216625 255.569793 
L 197.823425 255.262876 
L 211.081925 254.646358 
L 226.992125 253.642118 
L 250.857425 252.080026 
L 264.115925 251.520429 
L 274.722725 251.27548 
L 287.981225 251.219346 
L 301.239725 251.397111 
L 317.149925 251.834462 
L 335.711825 252.581 
L 346.318625 253.0961 
M 346.318625 52.636088 
L 301.239725 50.434456 
L 287.981225 50.108574 
L 277.374425 50.043493 
L 266.767625 50.162395 
L 256.160825 50.469312 
L 242.902325 51.085829 
L 226.992125 52.090069 
L 203.126825 53.652161 
L 189.868325 54.211759 
L 179.261525 54.456707 
L 166.003025 54.512841 
L 152.744525 54.335077 
L 136.834325 53.897725 
L 118.272425 53.151188 
L 107.665625 52.636088 
L 107.665625 52.636088 
" clip-path="url(#p5aa337affc)" style="fill: none; stroke: #0030ff"/>
    <path d="M 107.665625 249.802063 
L 144.789425 251.475245 
L 158.047925 251.778948 
L 171.306425 251.815668 
L 181.913225 251.645099 
L 195.171725 251.192689 
L 208.430225 250.502308 
L 250.857425 248.021054 
L 264.115925 247.645127 
L 277.374425 247.553561 
L 290.632925 247.712759 
L 306.543125 248.143447 
L 327.756725 248.949237 
L 346.318625 249.802063 
M 346.318625 55.930124 
L 309.194825 54.256943 
L 295.936325 53.95324 
L 282.677825 53.91652 
L 272.071025 54.087089 
L 258.812525 54.539499 
L 245.554025 55.22988 
L 203.126825 57.711133 
L 189.868325 58.087061 
L 176.609825 58.178626 
L 163.351325 58.019428 
L 147.441125 57.588741 
L 126.227525 56.782951 
L 107.665625 55.930124 
L 107.665625 55.930124 
" clip-path="url(#p5aa337affc)" style="fill: none; stroke: #0050ff"/>
    <path d="M 107.665625 246.683031 
L 136.834325 247.901364 
L 150.092825 248.204879 
L 160.699625 248.259629 
L 173.958125 248.072396 
L 187.216625 247.618317 
L 200.475125 246.939945 
L 242.902325 244.54269 
L 253.509125 244.217815 
L 264.115925 244.073313 
L 277.374425 244.138059 
L 290.632925 244.426535 
L 309.194825 245.071569 
L 341.015225 246.442421 
L 346.318625 246.683031 
M 346.318625 59.049156 
L 317.149925 57.830824 
L 303.891425 57.527308 
L 293.284625 57.472559 
L 280.026125 57.659791 
L 266.767625 58.11387 
L 253.509125 58.792243 
L 211.081925 61.189498 
L 200.475125 61.514372 
L 189.868325 61.658875 
L 176.609825 61.594129 
L 163.351325 61.305653 
L 144.789425 60.660619 
L 112.969025 59.289766 
L 107.665625 59.049156 
L 107.665625 59.049156 
" clip-path="url(#p5aa337affc)" style="fill: none; stroke: #0074ff"/>
    <path d="M 107.665625 243.684631 
L 131.530925 244.581194 
L 144.789425 244.846392 
L 158.047925 244.84261 
L 171.306425 244.550313 
L 184.564925 244.004048 
L 200.475125 243.116251 
L 229.643825 241.456212 
L 242.902325 240.95958 
L 253.509125 240.755378 
L 266.767625 240.748958 
L 280.026125 240.987404 
L 295.936325 241.508085 
L 325.105025 242.753271 
L 346.318625 243.684631 
M 346.318625 62.047557 
L 322.453325 61.150994 
L 309.194825 60.885795 
L 295.936325 60.889578 
L 282.677825 61.181874 
L 269.419325 61.728139 
L 253.509125 62.615936 
L 224.340425 64.275976 
L 211.081925 64.772608 
L 200.475125 64.976809 
L 187.216625 64.983229 
L 173.958125 64.744783 
L 158.047925 64.224102 
L 128.879225 62.978917 
L 107.665625 62.047557 
L 107.665625 62.047557 
" clip-path="url(#p5aa337affc)" style="fill: none; stroke: #0098ff"/>
    <path d="M 107.665625 240.765499 
L 128.879225 241.45206 
L 142.137725 241.632196 
L 152.744525 241.575354 
L 163.351325 241.33155 
L 176.609825 240.794549 
L 195.171725 239.762936 
L 221.688725 238.272043 
L 234.947225 237.758567 
L 248.205725 237.505029 
L 261.464225 237.521523 
L 274.722725 237.779708 
L 290.632925 238.327812 
L 319.801625 239.625407 
L 346.318625 240.765499 
M 346.318625 64.966689 
L 325.105025 64.280128 
L 311.846525 64.099992 
L 301.239725 64.156833 
L 290.632925 64.400637 
L 277.374425 64.937638 
L 258.812525 65.969251 
L 232.295525 67.460145 
L 219.037025 67.973621 
L 205.778525 68.227159 
L 192.520025 68.210664 
L 179.261525 67.952479 
L 163.351325 67.404375 
L 134.182625 66.10678 
L 107.665625 64.966689 
L 107.665625 64.966689 
" clip-path="url(#p5aa337affc)" style="fill: none; stroke: #00bcff"/>
    <path d="M 107.665625 237.893415 
L 126.227525 238.394179 
L 139.486025 238.4895 
L 150.092825 238.359306 
L 160.699625 238.045766 
L 173.958125 237.432623 
L 200.475125 235.886139 
L 219.037025 234.941461 
L 232.295525 234.50672 
L 245.554025 234.331787 
L 258.812525 234.411533 
L 272.071025 234.717331 
L 287.981225 235.316699 
L 346.318625 237.893415 
M 346.318625 67.838772 
L 327.756725 67.338008 
L 314.498225 67.242688 
L 303.891425 67.372881 
L 293.284625 67.686421 
L 280.026125 68.299564 
L 253.509125 69.846048 
L 234.947225 70.790727 
L 221.688725 71.225468 
L 208.430225 71.400401 
L 195.171725 71.320655 
L 181.913225 71.014857 
L 166.003025 70.415489 
L 107.665625 67.838772 
L 107.665625 67.838772 
" clip-path="url(#p5aa337affc)" style="fill: none; stroke: #00e0fb"/>
    <path d="M 107.665625 235.042562 
L 123.575825 235.381568 
L 136.834325 235.393532 
L 147.441125 235.194898 
L 160.699625 234.693956 
L 176.609825 233.825288 
L 205.778525 232.154006 
L 219.037025 231.607601 
L 232.295525 231.296713 
L 245.554025 231.23587 
L 258.812525 231.416441 
L 272.071025 231.804685 
L 290.632925 232.601114 
L 338.363525 234.786694 
L 346.318625 235.042562 
M 346.318625 70.689625 
L 330.408425 70.35062 
L 317.149925 70.338656 
L 306.543125 70.537289 
L 293.284625 71.038231 
L 277.374425 71.9069 
L 248.205725 73.578182 
L 234.947225 74.124586 
L 221.688725 74.435474 
L 208.430225 74.496318 
L 195.171725 74.315747 
L 181.913225 73.927502 
L 163.351325 73.131074 
L 115.620725 70.945494 
L 107.665625 70.689625 
L 107.665625 70.689625 
" clip-path="url(#p5aa337affc)" style="fill: none; stroke: #19ffde"/>
    <path d="M 107.665625 232.191406 
L 123.575825 232.403799 
L 134.182625 232.324923 
L 144.789425 232.062061 
L 158.047925 231.483528 
L 179.261525 230.227317 
L 197.823425 229.171381 
L 211.081925 228.60618 
L 224.340425 228.26497 
L 237.598925 228.163721 
L 250.857425 228.299861 
L 264.115925 228.649414 
L 280.026125 229.294649 
L 341.015225 232.06081 
L 346.318625 232.191406 
M 346.318625 73.540782 
L 330.408425 73.328389 
L 319.801625 73.407264 
L 309.194825 73.670126 
L 295.936325 74.24866 
L 274.722725 75.504871 
L 256.160825 76.560806 
L 242.902325 77.126008 
L 229.643825 77.467218 
L 216.385325 77.568467 
L 203.126825 77.432327 
L 189.868325 77.082774 
L 173.958125 76.437539 
L 112.969025 73.671378 
L 107.665625 73.540782 
L 107.665625 73.540782 
" clip-path="url(#p5aa337affc)" style="fill: none; stroke: #33ffc4"/>
    <path d="M 107.665625 229.321045 
L 120.924125 229.409404 
L 131.530925 229.267955 
L 142.137725 228.94216 
L 155.396225 228.287711 
L 200.475125 225.727493 
L 213.733625 225.30913 
L 226.992125 225.123165 
L 240.250625 225.171648 
L 253.509125 225.439244 
L 269.419325 226.007996 
L 290.632925 227.047228 
L 322.453325 228.616766 
L 338.363525 229.160532 
L 346.318625 229.321045 
M 346.318625 76.411142 
L 333.060125 76.322783 
L 322.453325 76.464233 
L 311.846525 76.790027 
L 298.588025 77.444477 
L 253.509125 80.004695 
L 240.250625 80.423058 
L 226.992125 80.609022 
L 213.733625 80.56054 
L 200.475125 80.292943 
L 184.564925 79.724192 
L 163.351325 78.68496 
L 131.530925 77.115421 
L 115.620725 76.571655 
L 107.665625 76.411142 
L 107.665625 76.411142 
" clip-path="url(#p5aa337affc)" style="fill: none; stroke: #50ffa7"/>
    <path d="M 107.665625 226.413935 
L 120.924125 226.379655 
L 131.530925 226.125679 
L 142.137725 225.68801 
L 158.047925 224.758074 
L 184.564925 223.136306 
L 197.823425 222.552129 
L 211.081925 222.193057 
L 224.340425 222.065058 
L 237.598925 222.16184 
L 250.857425 222.467144 
L 266.767625 223.070952 
L 287.981225 224.146765 
L 317.149925 225.629878 
L 330.408425 226.108807 
L 343.666925 226.394101 
L 346.318625 226.413935 
M 346.318625 79.318252 
L 333.060125 79.352533 
L 322.453325 79.606509 
L 311.846525 80.044177 
L 295.936325 80.974113 
L 269.419325 82.595882 
L 256.160825 83.180059 
L 242.902325 83.539131 
L 229.643825 83.667129 
L 216.385325 83.570347 
L 203.126825 83.265043 
L 187.216625 82.661236 
L 166.003025 81.585423 
L 136.834325 80.102309 
L 123.575825 79.62338 
L 110.317325 79.338087 
L 107.665625 79.318252 
L 107.665625 79.318252 
" clip-path="url(#p5aa337affc)" style="fill: none; stroke: #6dff8a"/>
    <path d="M 107.665625 223.452876 
L 120.924125 223.286624 
L 131.530925 222.917915 
L 144.789425 222.210997 
L 184.564925 219.785108 
L 197.823425 219.295227 
L 211.081925 219.041074 
L 224.340425 219.013675 
L 237.598925 219.198656 
L 253.509125 219.674987 
L 269.419325 220.380574 
L 325.105025 223.128412 
L 338.363525 223.417843 
L 346.318625 223.452876 
M 346.318625 82.279311 
L 333.060125 82.445564 
L 322.453325 82.814273 
L 309.194825 83.521191 
L 269.419325 85.94708 
L 256.160825 86.43696 
L 242.902325 86.691113 
L 229.643825 86.718513 
L 216.385325 86.533532 
L 200.475125 86.0572 
L 184.564925 85.351614 
L 128.879225 82.603776 
L 115.620725 82.314344 
L 107.665625 82.279311 
L 107.665625 82.279311 
" clip-path="url(#p5aa337affc)" style="fill: none; stroke: #8aff6d"/>
    <path d="M 107.665625 220.420187 
L 120.924125 220.113807 
L 131.530925 219.623181 
L 144.789425 218.806375 
L 171.306425 217.07197 
L 184.564925 216.438307 
L 197.823425 216.049992 
L 211.081925 215.900507 
L 224.340425 215.96895 
L 237.598925 216.236132 
L 253.509125 216.792312 
L 272.071025 217.698055 
L 314.498225 219.923705 
L 327.756725 220.321411 
L 341.015225 220.464006 
L 346.318625 220.420187 
M 346.318625 85.312001 
L 333.060125 85.618381 
L 322.453325 86.109007 
L 309.194825 86.925812 
L 282.677825 88.660217 
L 269.419325 89.293881 
L 256.160825 89.682196 
L 242.902325 89.831681 
L 229.643825 89.763238 
L 216.385325 89.496056 
L 200.475125 88.939875 
L 181.913225 88.034132 
L 139.486025 85.808483 
L 126.227525 85.410777 
L 112.969025 85.268182 
L 107.665625 85.312001 
L 107.665625 85.312001 
" clip-path="url(#p5aa337affc)" style="fill: none; stroke: #a7ff50"/>
    <path d="M 107.665625 217.296981 
L 120.924125 216.835372 
L 131.530925 216.231621 
L 152.744525 214.760954 
L 168.654725 213.758584 
L 181.913225 213.16678 
L 195.171725 212.835973 
L 208.430225 212.745383 
L 221.688725 212.865021 
L 237.598925 213.25695 
L 253.509125 213.888132 
L 274.722725 215.002301 
L 306.543125 216.736577 
L 319.801625 217.216553 
L 330.408425 217.396691 
L 341.015225 217.396954 
L 346.318625 217.296981 
M 346.318625 88.435206 
L 333.060125 88.896816 
L 322.453325 89.500566 
L 301.239725 90.971233 
L 285.329525 91.973604 
L 272.071025 92.565408 
L 258.812525 92.896214 
L 245.554025 92.986804 
L 232.295525 92.867166 
L 216.385325 92.475237 
L 200.475125 91.844056 
L 179.261525 90.729887 
L 147.441125 88.995611 
L 134.182625 88.515634 
L 123.575825 88.335496 
L 112.969025 88.335233 
L 107.665625 88.435206 
L 107.665625 88.435206 
" clip-path="url(#p5aa337affc)" style="fill: none; stroke: #c4ff33"/>
    <path d="M 107.665625 214.057276 
L 120.924125 213.433744 
L 134.182625 212.537821 
L 163.351325 210.52268 
L 173.958125 210.022421 
L 184.564925 209.69501 
L 197.823425 209.522562 
L 211.081925 209.577139 
L 224.340425 209.82488 
L 240.250625 210.346713 
L 256.160825 211.08197 
L 282.677825 212.581792 
L 301.239725 213.587848 
L 314.498225 214.101296 
L 325.105025 214.310914 
L 335.711825 214.304684 
L 343.666925 214.150725 
L 346.318625 214.057276 
M 346.318625 91.674911 
L 333.060125 92.298443 
L 319.801625 93.194367 
L 290.632925 95.209507 
L 280.026125 95.709766 
L 269.419325 96.037177 
L 256.160825 96.209625 
L 242.902325 96.155049 
L 229.643825 95.907308 
L 213.733625 95.385475 
L 197.823425 94.650217 
L 171.306425 93.150396 
L 152.744525 92.144339 
L 139.486025 91.630891 
L 128.879225 91.421273 
L 118.272425 91.427504 
L 110.317325 91.581462 
L 107.665625 91.674911 
L 107.665625 91.674911 
" clip-path="url(#p5aa337affc)" style="fill: none; stroke: #deff19"/>
    <path d="M 107.665625 210.668645 
L 120.924125 209.889687 
L 139.486025 208.486563 
L 155.396225 207.355148 
L 168.654725 206.682241 
L 181.913225 206.303461 
L 195.171725 206.194799 
L 208.430225 206.309191 
L 224.340425 206.687417 
L 240.250625 207.294188 
L 258.812525 208.241433 
L 303.891425 210.716863 
L 314.498225 211.047965 
L 325.105025 211.173333 
L 335.711825 211.052019 
L 343.666925 210.796306 
L 346.318625 210.668645 
M 346.318625 95.063542 
L 333.060125 95.8425 
L 314.498225 97.245625 
L 298.588025 98.37704 
L 285.329525 99.049947 
L 272.071025 99.428727 
L 258.812525 99.537388 
L 245.554025 99.422997 
L 229.643825 99.044771 
L 213.733625 98.437999 
L 195.171725 97.490755 
L 150.092825 95.015325 
L 139.486025 94.684222 
L 128.879225 94.558855 
L 118.272425 94.680168 
L 110.317325 94.935881 
L 107.665625 95.063542 
L 107.665625 95.063542 
" clip-path="url(#p5aa337affc)" style="fill: none; stroke: #fbf100"/>
    <path d="M 107.665625 207.107533 
L 123.575825 205.971371 
L 150.092825 203.908798 
L 160.699625 203.335853 
L 171.306425 202.961786 
L 184.564925 202.759236 
L 197.823425 202.809113 
L 213.733625 203.130993 
L 229.643825 203.685805 
L 248.205725 204.578505 
L 280.026125 206.442153 
L 298.588025 207.401519 
L 309.194825 207.762598 
L 319.801625 207.908383 
L 327.756725 207.840921 
L 338.363525 207.532729 
L 346.318625 207.107533 
M 346.318625 98.624654 
L 330.408425 99.760817 
L 303.891425 101.82339 
L 293.284625 102.396335 
L 282.677825 102.770402 
L 269.419325 102.972952 
L 256.160825 102.923075 
L 240.250625 102.601194 
L 224.340425 102.046382 
L 205.778525 101.153683 
L 173.958125 99.290035 
L 155.396225 98.330669 
L 144.789425 97.969589 
L 134.182625 97.823805 
L 126.227525 97.891266 
L 115.620725 98.199458 
L 107.665625 98.624654 
L 107.665625 98.624654 
" clip-path="url(#p5aa337affc)" style="fill: none; stroke: #ffd000"/>
    <path d="M 107.665625 203.339215 
L 128.879225 201.549314 
L 142.137725 200.49514 
L 152.744525 199.848851 
L 163.351325 199.412932 
L 173.958125 199.187967 
L 184.564925 199.14651 
L 197.823425 199.31385 
L 213.733625 199.760942 
L 229.643825 200.412695 
L 248.205725 201.387676 
L 295.936325 204.07695 
L 306.543125 204.413503 
L 317.149925 204.511947 
L 325.105025 204.405422 
L 335.711825 204.008807 
L 343.666925 203.537853 
L 346.318625 203.339215 
M 346.318625 102.392973 
L 325.105025 104.182874 
L 311.846525 105.237047 
L 301.239725 105.883336 
L 290.632925 106.319255 
L 280.026125 106.544221 
L 269.419325 106.585677 
L 256.160825 106.418338 
L 240.250625 105.971246 
L 224.340425 105.319493 
L 205.778525 104.344512 
L 158.047925 101.655237 
L 147.441125 101.318684 
L 136.834325 101.22024 
L 128.879225 101.326765 
L 118.272425 101.72338 
L 110.317325 102.194334 
L 107.665625 102.392973 
L 107.665625 102.392973 
" clip-path="url(#p5aa337affc)" style="fill: none; stroke: #ffae00"/>
    <path d="M 107.665625 199.305968 
L 131.530925 197.111934 
L 144.789425 196.16161 
L 155.396225 195.657721 
L 166.003025 195.383883 
L 176.609825 195.321931 
L 189.868325 195.479915 
L 203.126825 195.843154 
L 219.037025 196.492803 
L 242.902325 197.754342 
L 293.284625 200.602137 
L 303.891425 200.901671 
L 314.498225 200.944943 
L 322.453325 200.790394 
L 333.060125 200.297395 
L 343.666925 199.552609 
L 346.318625 199.305968 
M 346.318625 106.426219 
L 322.453325 108.620254 
L 309.194825 109.570578 
L 298.588025 110.074467 
L 287.981225 110.348305 
L 277.374425 110.410256 
L 264.115925 110.252273 
L 250.857425 109.889033 
L 234.947225 109.239384 
L 211.081925 107.977845 
L 160.699625 105.13005 
L 150.092825 104.830516 
L 139.486025 104.787245 
L 131.530925 104.941794 
L 120.924125 105.434793 
L 110.317325 106.179578 
L 107.665625 106.426219 
L 107.665625 106.426219 
" clip-path="url(#p5aa337affc)" style="fill: none; stroke: #ff8d00"/>
    <path d="M 107.665625 194.899055 
L 123.575825 193.309499 
L 134.182625 192.390891 
L 144.789425 191.750393 
L 155.396225 191.377261 
L 166.003025 191.235098 
L 179.261525 191.335068 
L 192.520025 191.672664 
L 208.430225 192.310981 
L 226.992125 193.294521 
L 290.632925 196.939169 
L 301.239725 197.18665 
L 309.194825 197.200748 
L 317.149925 197.03892 
L 325.387466 196.675521 
L 335.711825 195.915393 
L 346.318625 194.899055 
M 346.318625 110.833133 
L 330.408425 112.422689 
L 319.801625 113.341297 
L 309.194825 113.981795 
L 298.588025 114.354926 
L 287.981225 114.497089 
L 274.722725 114.397119 
L 261.464225 114.059524 
L 245.554025 113.421207 
L 226.992125 112.437667 
L 163.351325 108.793019 
L 152.744525 108.545537 
L 144.789425 108.531439 
L 136.834325 108.693268 
L 128.596784 109.056667 
L 118.272425 109.816794 
L 107.665625 110.833133 
L 107.665625 110.833133 
" clip-path="url(#p5aa337affc)" style="fill: none; stroke: #ff6c00"/>
    <path d="M 107.665625 190.03281 
L 118.272425 188.853088 
L 128.879225 187.903034 
L 136.834325 187.357174 
L 147.441125 186.908528 
L 158.047925 186.748261 
L 168.654725 186.80881 
L 181.913225 187.137366 
L 197.823425 187.811847 
L 221.688725 189.145086 
L 280.026125 192.688469 
L 290.632925 193.058541 
L 301.239725 193.181482 
L 309.194825 193.063735 
L 317.149925 192.739037 
L 325.105025 192.208951 
L 335.711825 191.237714 
L 343.666925 190.358955 
L 346.318625 190.03281 
M 346.318625 115.699377 
L 335.711825 116.879099 
L 325.105025 117.829154 
L 317.149925 118.375013 
L 306.543125 118.823659 
L 295.936325 118.983927 
L 285.329525 118.923378 
L 272.071025 118.594822 
L 256.160825 117.92034 
L 232.295525 116.587101 
L 173.958125 113.043718 
L 163.351325 112.673647 
L 152.744525 112.550705 
L 144.789425 112.668453 
L 136.834325 112.993151 
L 128.879225 113.523237 
L 118.272425 114.494474 
L 110.317325 115.373233 
L 107.665625 115.699377 
L 107.665625 115.699377 
" clip-path="url(#p5aa337affc)" style="fill: none; stroke: #ff4e00"/>
    <path d="M 107.665625 184.477342 
L 115.620725 183.502745 
L 123.575825 182.762872 
L 131.530925 182.206984 
L 139.486025 181.866332 
L 147.441125 181.701303 
L 158.047925 181.740246 
L 168.654725 181.99479 
L 184.564925 182.651066 
L 200.475125 183.557531 
L 226.992125 185.375187 
L 264.115925 187.827887 
L 274.722725 188.338118 
L 285.329525 188.675145 
L 293.284625 188.770262 
L 301.239725 188.69216 
L 309.194825 188.406865 
L 317.149925 187.900771 
L 325.105025 187.12491 
L 341.015225 185.199447 
L 346.318625 184.477342 
M 346.318625 121.254846 
L 338.363525 122.229442 
L 330.408425 122.969316 
L 322.453325 123.525204 
L 314.498225 123.865855 
L 306.543125 124.030885 
L 295.936325 123.991942 
L 285.329525 123.737398 
L 269.419325 123.081121 
L 253.509125 122.174657 
L 226.992125 120.357 
L 189.868325 117.904301 
L 179.261525 117.394069 
L 168.654725 117.057042 
L 160.699625 116.961926 
L 152.744525 117.040028 
L 144.789425 117.325323 
L 136.834325 117.831416 
L 128.879225 118.607278 
L 112.969025 120.53274 
L 107.665625 121.254846 
L 107.665625 121.254846 
" clip-path="url(#p5aa337affc)" style="fill: none; stroke: #ff2d00"/>
    <path d="M 107.665625 177.753187 
L 112.969025 177.069556 
L 120.924125 176.349179 
L 128.879225 175.848508 
L 136.834325 175.629593 
L 144.789425 175.633094 
L 155.396225 175.904334 
L 168.654725 176.51584 
L 184.564925 177.506702 
L 203.126825 178.926912 
L 226.992125 180.790538 
L 248.205725 182.345017 
L 264.115925 183.235419 
L 274.722725 183.647333 
L 285.329525 183.823851 
L 293.284625 183.744719 
L 301.239725 183.444147 
L 309.194825 182.893555 
L 317.38479 182.072378 
L 325.105025 180.995295 
L 346.318625 177.753187 
M 346.318625 127.979 
L 341.015225 128.662632 
L 333.060125 129.383008 
L 325.105025 129.88368 
L 317.149925 130.102595 
L 309.194825 130.099094 
L 298.588025 129.827853 
L 285.329525 129.216348 
L 269.419325 128.225486 
L 250.857425 126.805276 
L 226.992125 124.94165 
L 205.778525 123.38717 
L 189.868325 122.496768 
L 179.261525 122.084855 
L 168.654725 121.908337 
L 160.699625 121.987469 
L 152.744525 122.288041 
L 144.789425 122.838633 
L 136.59946 123.659809 
L 128.879225 124.736892 
L 107.665625 127.979 
L 107.665625 127.979 
" clip-path="url(#p5aa337affc)" style="fill: none; stroke: #f60b00"/>
    <path d="M 107.665625 168.497474 
L 112.969025 167.863649 
L 118.859777 167.469236 
L 123.575825 167.284605 
L 128.879225 167.249047 
L 136.834325 167.495111 
L 147.441125 168.096143 
L 158.047925 168.93688 
L 173.958125 170.449252 
L 195.171725 172.516164 
L 213.733625 174.30873 
L 235.762632 176.231122 
L 250.857425 177.210574 
L 261.464225 177.717154 
L 272.071025 178.001443 
L 280.026125 178.005844 
L 287.981225 177.793562 
L 295.936325 177.303818 
L 303.891425 176.530419 
L 309.194825 175.782848 
L 317.149925 174.368968 
L 322.639724 173.310493 
L 333.060125 170.975796 
L 346.318625 168.497474 
M 346.318625 137.234713 
L 341.015225 137.868538 
L 335.124473 138.262951 
L 330.408425 138.447583 
L 325.105025 138.48314 
L 317.149925 138.237077 
L 306.543125 137.636045 
L 295.936325 136.795307 
L 280.026125 135.282936 
L 258.812525 133.216024 
L 240.250625 131.423457 
L 218.221618 129.501066 
L 203.126825 128.521613 
L 192.520025 128.015034 
L 181.913225 127.730745 
L 173.958125 127.726343 
L 166.003025 127.938626 
L 158.047925 128.42837 
L 150.092825 129.201769 
L 144.789425 129.94934 
L 136.834325 131.363219 
L 131.344526 132.421694 
L 120.924125 134.756391 
L 107.665625 137.234713 
L 107.665625 137.234713 
" clip-path="url(#p5aa337affc)" style="fill: none; stroke: #cd0000"/>
    <path d="M 253.509125 170.468528 
L 256.160825 170.535723 
L 258.812525 170.580877 
L 261.464225 170.603061 
L 264.115925 170.601889 
L 266.767625 170.576179 
L 269.419325 170.523209 
L 272.071025 170.439306 
L 273.195493 170.389865 
L 274.722725 170.304468 
L 277.374425 170.112621 
L 280.026125 169.875632 
L 282.677825 169.592633 
L 285.329525 169.260616 
L 287.981225 168.875636 
L 290.632925 168.435484 
L 293.284625 167.941432 
L 295.59189 167.469236 
L 295.936325 167.372208 
L 298.588025 166.574833 
L 301.239725 165.724221 
L 303.891425 164.826693 
L 304.681803 164.548608 
L 306.543125 163.552457 
L 309.194825 162.119076 
L 310.11026 161.627979 
L 311.846525 159.854493 
L 313.038082 158.707351 
L 313.405007 155.786722 
L 311.846525 154.062129 
L 310.708228 152.866094 
L 309.194825 152.13682 
L 306.543125 150.898919 
L 304.423216 149.945465 
L 303.891425 149.788341 
L 301.239725 149.007932 
L 298.588025 148.243903 
L 295.936325 147.493964 
L 294.260355 147.024837 
L 293.284625 146.818819 
L 290.632925 146.260395 
L 287.981225 145.707161 
L 285.329525 145.15828 
L 282.677825 144.613212 
L 280.188655 144.104208 
L 280.026125 144.077377 
L 277.374425 143.639985 
L 274.722725 143.204716 
L 272.071025 142.77092 
L 269.419325 142.338248 
L 266.767625 141.906702 
L 264.115925 141.476508 
L 262.302209 141.18358 
L 261.464225 141.070386 
L 258.812525 140.715422 
L 256.160825 140.363149 
L 253.509125 140.013419 
L 250.857425 139.666687 
L 248.205725 139.323845 
L 245.554025 138.985633 
L 242.902325 138.652187 
L 240.250625 138.323094 
L 239.755542 138.262951 
L 237.598925 138.040568 
L 234.947225 137.773467 
L 232.295525 137.513689 
L 229.643825 137.262502 
L 226.992125 137.020275 
L 224.340425 136.786762 
L 221.688725 136.562081 
L 219.037025 136.347269 
L 216.385325 136.144117 
L 213.733625 135.954574 
L 211.081925 135.780033 
L 208.430225 135.62108 
L 205.778525 135.478148 
L 203.126825 135.352566 
L 202.864806 135.342323 
L 200.475125 135.26366 
L 197.823425 135.196465 
L 195.171725 135.151311 
L 192.520025 135.129127 
L 189.868325 135.130298 
L 187.216625 135.156008 
L 184.564925 135.208979 
L 181.913225 135.292882 
L 180.788757 135.342323 
L 179.261525 135.42772 
L 176.609825 135.619567 
L 173.958125 135.856556 
L 171.306425 136.139555 
L 168.654725 136.471572 
L 166.003025 136.856552 
L 163.351325 137.296703 
L 160.699625 137.790755 
L 158.39236 138.262951 
L 158.047925 138.35998 
L 155.396225 139.157354 
L 152.744525 140.007966 
L 150.092825 140.905495 
L 149.302447 141.18358 
L 147.441125 142.179731 
L 144.789425 143.613112 
L 143.87399 144.104208 
L 142.137725 145.877695 
L 140.946168 147.024837 
L 140.579243 149.945465 
L 142.137725 151.670058 
L 143.276022 152.866094 
L 144.789425 153.595367 
L 147.441125 154.833268 
L 149.561034 155.786722 
L 150.092825 155.943846 
L 152.744525 156.724255 
L 155.396225 157.488285 
L 158.047925 158.238224 
L 159.723895 158.707351 
L 160.699625 158.913369 
L 163.351325 159.471792 
L 166.003025 160.025026 
L 168.654725 160.573908 
L 171.306425 161.118976 
L 173.795595 161.627979 
L 173.958125 161.65481 
L 176.609825 162.092203 
L 179.261525 162.527472 
L 181.913225 162.961267 
L 184.564925 163.393939 
L 187.216625 163.825485 
L 189.868325 164.255679 
L 191.682041 164.548608 
L 192.520025 164.661802 
L 195.171725 165.016766 
L 197.823425 165.369039 
L 200.475125 165.718769 
L 203.126825 166.0655 
L 205.778525 166.408343 
L 208.430225 166.746554 
L 211.081925 167.08 
L 213.733625 167.409094 
L 214.228708 167.469236 
L 216.385325 167.69162 
L 219.037025 167.958721 
L 221.688725 168.218499 
L 224.340425 168.469686 
L 226.992125 168.711913 
L 229.643825 168.945425 
L 232.295525 169.170106 
L 234.947225 169.384919 
L 237.598925 169.588071 
L 240.250625 169.777613 
L 242.902325 169.952154 
L 245.554025 170.111108 
L 248.205725 170.254039 
L 250.857425 170.379621 
L 251.119444 170.389865 
L 253.509125 170.468528 
z
" clip-path="url(#p5aa337affc)" style="fill: none; stroke: #a40000"/>
    <path clip-path="url(#p5aa337affc)" style="fill: none; stroke: #800000"/>
   </g>
   <g id="patch_3">
    <path d="M 107.665625 284.294375 
L 107.665625 21.437813 
" style="fill: none; stroke: #000000; stroke-width: 0.8; stroke-linejoin: miter; stroke-linecap: square"/>
   </g>
   <g id="patch_4">
    <path d="M 107.665625 284.294375 
L 346.318625 284.294375 
" style="fill: none; stroke: #000000; stroke-width: 0.8; stroke-linejoin: miter; stroke-linecap: square"/>
   </g>
  </g>
  <g id="axes_2">
   <g id="patch_5">
    <path d="M 361.234437 284.294375 
L 374.377266 284.294375 
L 374.377266 21.437813 
L 361.234437 21.437813 
z
" style="fill: #ffffff"/>
   </g>
   <g id="matplotlib.axis_3"/>
   <g id="matplotlib.axis_4">
    <g id="ytick_6">
     <g id="line2d_11">
      <defs>
       <path id="ma5e36a08ef" d="M 0 0 
L 3.5 0 
" style="stroke: #000000; stroke-width: 0.8"/>
      </defs>
      <g>
       <use xlink:href="#ma5e36a08ef" x="374.377266" y="276.28683" style="stroke: #000000; stroke-width: 0.8"/>
      </g>
     </g>
     <g id="text_13">
      <!-- 1.42 -->
      <g transform="translate(381.377266 283.125424) scale(0.18 -0.18)">
       <defs>
        <path id="DejaVuSerif-31" d="M 909 0 
L 909 331 
L 1722 331 
L 1722 4213 
L 781 3603 
L 781 4013 
L 1919 4750 
L 2350 4750 
L 2350 331 
L 3163 331 
L 3163 0 
L 909 0 
z
" transform="scale(0.015625)"/>
        <path id="DejaVuSerif-2e" d="M 603 325 
Q 603 500 722 622 
Q 841 744 1019 744 
Q 1191 744 1312 622 
Q 1434 500 1434 325 
Q 1434 153 1312 31 
Q 1191 -91 1019 -91 
Q 841 -91 722 29 
Q 603 150 603 325 
z
" transform="scale(0.015625)"/>
        <path id="DejaVuSerif-34" d="M 2234 1581 
L 2234 4063 
L 641 1581 
L 2234 1581 
z
M 3609 0 
L 1484 0 
L 1484 331 
L 2234 331 
L 2234 1247 
L 197 1247 
L 197 1588 
L 2241 4750 
L 2859 4750 
L 2859 1581 
L 3750 1581 
L 3750 1247 
L 2859 1247 
L 2859 331 
L 3609 331 
L 3609 0 
z
" transform="scale(0.015625)"/>
        <path id="DejaVuSerif-32" d="M 819 3553 
L 469 3553 
L 469 4384 
Q 803 4563 1142 4656 
Q 1481 4750 1806 4750 
Q 2534 4750 2956 4397 
Q 3378 4044 3378 3438 
Q 3378 2753 2422 1800 
Q 2347 1728 2309 1691 
L 1131 513 
L 3078 513 
L 3078 1088 
L 3444 1088 
L 3444 0 
L 434 0 
L 434 341 
L 1850 1753 
Q 2319 2222 2519 2614 
Q 2719 3006 2719 3438 
Q 2719 3909 2473 4175 
Q 2228 4441 1797 4441 
Q 1350 4441 1106 4219 
Q 863 3997 819 3553 
z
" transform="scale(0.015625)"/>
       </defs>
       <use xlink:href="#DejaVuSerif-31"/>
       <use xlink:href="#DejaVuSerif-2e" x="63.623047"/>
       <use xlink:href="#DejaVuSerif-34" x="95.410156"/>
       <use xlink:href="#DejaVuSerif-32" x="159.033203"/>
      </g>
     </g>
    </g>
    <g id="ytick_7">
     <g id="line2d_12">
      <g>
       <use xlink:href="#ma5e36a08ef" x="374.377266" y="235.318552" style="stroke: #000000; stroke-width: 0.8"/>
      </g>
     </g>
     <g id="text_14">
      <!-- 1.44 -->
      <g transform="translate(381.377266 242.157146) scale(0.18 -0.18)">
       <use xlink:href="#DejaVuSerif-31"/>
       <use xlink:href="#DejaVuSerif-2e" x="63.623047"/>
       <use xlink:href="#DejaVuSerif-34" x="95.410156"/>
       <use xlink:href="#DejaVuSerif-34" x="159.033203"/>
      </g>
     </g>
    </g>
    <g id="ytick_8">
     <g id="line2d_13">
      <g>
       <use xlink:href="#ma5e36a08ef" x="374.377266" y="194.350274" style="stroke: #000000; stroke-width: 0.8"/>
      </g>
     </g>
     <g id="text_15">
      <!-- 1.46 -->
      <g transform="translate(381.377266 201.188868) scale(0.18 -0.18)">
       <defs>
        <path id="DejaVuSerif-36" d="M 2094 219 
Q 2534 219 2771 542 
Q 3009 866 3009 1472 
Q 3009 2078 2771 2401 
Q 2534 2725 2094 2725 
Q 1647 2725 1412 2412 
Q 1178 2100 1178 1509 
Q 1178 888 1415 553 
Q 1653 219 2094 219 
z
M 1075 2569 
Q 1288 2803 1556 2918 
Q 1825 3034 2163 3034 
Q 2859 3034 3264 2615 
Q 3669 2197 3669 1472 
Q 3669 763 3233 336 
Q 2797 -91 2069 -91 
Q 1278 -91 853 498 
Q 428 1088 428 2181 
Q 428 3406 931 4078 
Q 1434 4750 2350 4750 
Q 2597 4750 2869 4703 
Q 3141 4656 3425 4563 
L 3425 3794 
L 3072 3794 
Q 3034 4109 2831 4275 
Q 2628 4441 2284 4441 
Q 1678 4441 1381 3981 
Q 1084 3522 1075 2569 
z
" transform="scale(0.015625)"/>
       </defs>
       <use xlink:href="#DejaVuSerif-31"/>
       <use xlink:href="#DejaVuSerif-2e" x="63.623047"/>
       <use xlink:href="#DejaVuSerif-34" x="95.410156"/>
       <use xlink:href="#DejaVuSerif-36" x="159.033203"/>
      </g>
     </g>
    </g>
    <g id="ytick_9">
     <g id="line2d_14">
      <g>
       <use xlink:href="#ma5e36a08ef" x="374.377266" y="153.381996" style="stroke: #000000; stroke-width: 0.8"/>
      </g>
     </g>
     <g id="text_16">
      <!-- 1.48 -->
      <g transform="translate(381.377266 160.22059) scale(0.18 -0.18)">
       <defs>
        <path id="DejaVuSerif-38" d="M 2981 1275 
Q 2981 1775 2732 2051 
Q 2484 2328 2034 2328 
Q 1584 2328 1336 2051 
Q 1088 1775 1088 1275 
Q 1088 772 1336 495 
Q 1584 219 2034 219 
Q 2484 219 2732 495 
Q 2981 772 2981 1275 
z
M 2853 3541 
Q 2853 3966 2637 4203 
Q 2422 4441 2034 4441 
Q 1650 4441 1433 4203 
Q 1216 3966 1216 3541 
Q 1216 3113 1433 2875 
Q 1650 2638 2034 2638 
Q 2422 2638 2637 2875 
Q 2853 3113 2853 3541 
z
M 2516 2484 
Q 3047 2413 3344 2092 
Q 3641 1772 3641 1275 
Q 3641 619 3225 264 
Q 2809 -91 2034 -91 
Q 1263 -91 845 264 
Q 428 619 428 1275 
Q 428 1772 725 2092 
Q 1022 2413 1556 2484 
Q 1084 2569 832 2842 
Q 581 3116 581 3541 
Q 581 4103 968 4426 
Q 1356 4750 2034 4750 
Q 2713 4750 3100 4426 
Q 3488 4103 3488 3541 
Q 3488 3116 3236 2842 
Q 2984 2569 2516 2484 
z
" transform="scale(0.015625)"/>
       </defs>
       <use xlink:href="#DejaVuSerif-31"/>
       <use xlink:href="#DejaVuSerif-2e" x="63.623047"/>
       <use xlink:href="#DejaVuSerif-34" x="95.410156"/>
       <use xlink:href="#DejaVuSerif-38" x="159.033203"/>
      </g>
     </g>
    </g>
    <g id="ytick_10">
     <g id="line2d_15">
      <g>
       <use xlink:href="#ma5e36a08ef" x="374.377266" y="112.413718" style="stroke: #000000; stroke-width: 0.8"/>
      </g>
     </g>
     <g id="text_17">
      <!-- 1.50 -->
      <g transform="translate(381.377266 119.252312) scale(0.18 -0.18)">
       <defs>
        <path id="DejaVuSerif-35" d="M 3219 4666 
L 3219 4153 
L 1081 4153 
L 1081 2816 
Q 1244 2928 1461 2984 
Q 1678 3041 1947 3041 
Q 2703 3041 3140 2622 
Q 3578 2203 3578 1478 
Q 3578 738 3136 323 
Q 2694 -91 1894 -91 
Q 1572 -91 1234 -12 
Q 897 66 544 225 
L 544 1131 
L 897 1131 
Q 925 688 1179 453 
Q 1434 219 1894 219 
Q 2388 219 2653 544 
Q 2919 869 2919 1478 
Q 2919 2084 2655 2407 
Q 2391 2731 1894 2731 
Q 1613 2731 1398 2631 
Q 1184 2531 1019 2322 
L 750 2322 
L 750 4666 
L 3219 4666 
z
" transform="scale(0.015625)"/>
       </defs>
       <use xlink:href="#DejaVuSerif-31"/>
       <use xlink:href="#DejaVuSerif-2e" x="63.623047"/>
       <use xlink:href="#DejaVuSerif-35" x="95.410156"/>
       <use xlink:href="#DejaVuSerif-30" x="159.033203"/>
      </g>
     </g>
    </g>
    <g id="ytick_11">
     <g id="line2d_16">
      <g>
       <use xlink:href="#ma5e36a08ef" x="374.377266" y="71.44544" style="stroke: #000000; stroke-width: 0.8"/>
      </g>
     </g>
     <g id="text_18">
      <!-- 1.52 -->
      <g transform="translate(381.377266 78.284034) scale(0.18 -0.18)">
       <use xlink:href="#DejaVuSerif-31"/>
       <use xlink:href="#DejaVuSerif-2e" x="63.623047"/>
       <use xlink:href="#DejaVuSerif-35" x="95.410156"/>
       <use xlink:href="#DejaVuSerif-32" x="159.033203"/>
      </g>
     </g>
    </g>
    <g id="ytick_12">
     <g id="line2d_17">
      <g>
       <use xlink:href="#ma5e36a08ef" x="374.377266" y="30.477162" style="stroke: #000000; stroke-width: 0.8"/>
      </g>
     </g>
     <g id="text_19">
      <!-- 1.54 -->
      <g transform="translate(381.377266 37.315756) scale(0.18 -0.18)">
       <use xlink:href="#DejaVuSerif-31"/>
       <use xlink:href="#DejaVuSerif-2e" x="63.623047"/>
       <use xlink:href="#DejaVuSerif-35" x="95.410156"/>
       <use xlink:href="#DejaVuSerif-34" x="159.033203"/>
      </g>
     </g>
    </g>
   </g>
   <g id="LineCollection_1"/>
   <g id="LineCollection_2">
    <path d="M 361.234437 284.294375 
L 374.377266 284.294375 
" clip-path="url(#p772114c5db)" style="fill: none; stroke: #000080"/>
    <path d="M 361.234437 275.230356 
L 374.377266 275.230356 
" clip-path="url(#p772114c5db)" style="fill: none; stroke: #0000a4"/>
    <path d="M 361.234437 266.166336 
L 374.377266 266.166336 
" clip-path="url(#p772114c5db)" style="fill: none; stroke: #0000cd"/>
    <path d="M 361.234437 257.102317 
L 374.377266 257.102317 
" clip-path="url(#p772114c5db)" style="fill: none; stroke: #0000f6"/>
    <path d="M 361.234437 248.038297 
L 374.377266 248.038297 
" clip-path="url(#p772114c5db)" style="fill: none; stroke: #000cff"/>
    <path d="M 361.234437 238.974278 
L 374.377266 238.974278 
" clip-path="url(#p772114c5db)" style="fill: none; stroke: #0030ff"/>
    <path d="M 361.234437 229.910259 
L 374.377266 229.910259 
" clip-path="url(#p772114c5db)" style="fill: none; stroke: #0050ff"/>
    <path d="M 361.234437 220.846239 
L 374.377266 220.846239 
" clip-path="url(#p772114c5db)" style="fill: none; stroke: #0074ff"/>
    <path d="M 361.234437 211.78222 
L 374.377266 211.78222 
" clip-path="url(#p772114c5db)" style="fill: none; stroke: #0098ff"/>
    <path d="M 361.234437 202.7182 
L 374.377266 202.7182 
" clip-path="url(#p772114c5db)" style="fill: none; stroke: #00bcff"/>
    <path d="M 361.234437 193.654181 
L 374.377266 193.654181 
" clip-path="url(#p772114c5db)" style="fill: none; stroke: #00e0fb"/>
    <path d="M 361.234437 184.590162 
L 374.377266 184.590162 
" clip-path="url(#p772114c5db)" style="fill: none; stroke: #19ffde"/>
    <path d="M 361.234437 175.526142 
L 374.377266 175.526142 
" clip-path="url(#p772114c5db)" style="fill: none; stroke: #33ffc4"/>
    <path d="M 361.234437 166.462123 
L 374.377266 166.462123 
" clip-path="url(#p772114c5db)" style="fill: none; stroke: #50ffa7"/>
    <path d="M 361.234437 157.398103 
L 374.377266 157.398103 
" clip-path="url(#p772114c5db)" style="fill: none; stroke: #6dff8a"/>
    <path d="M 361.234437 148.334084 
L 374.377266 148.334084 
" clip-path="url(#p772114c5db)" style="fill: none; stroke: #8aff6d"/>
    <path d="M 361.234437 139.270065 
L 374.377266 139.270065 
" clip-path="url(#p772114c5db)" style="fill: none; stroke: #a7ff50"/>
    <path d="M 361.234437 130.206045 
L 374.377266 130.206045 
" clip-path="url(#p772114c5db)" style="fill: none; stroke: #c4ff33"/>
    <path d="M 361.234437 121.142026 
L 374.377266 121.142026 
" clip-path="url(#p772114c5db)" style="fill: none; stroke: #deff19"/>
    <path d="M 361.234437 112.078006 
L 374.377266 112.078006 
" clip-path="url(#p772114c5db)" style="fill: none; stroke: #fbf100"/>
    <path d="M 361.234437 103.013987 
L 374.377266 103.013987 
" clip-path="url(#p772114c5db)" style="fill: none; stroke: #ffd000"/>
    <path d="M 361.234437 93.949968 
L 374.377266 93.949968 
" clip-path="url(#p772114c5db)" style="fill: none; stroke: #ffae00"/>
    <path d="M 361.234437 84.885948 
L 374.377266 84.885948 
" clip-path="url(#p772114c5db)" style="fill: none; stroke: #ff8d00"/>
    <path d="M 361.234437 75.821929 
L 374.377266 75.821929 
" clip-path="url(#p772114c5db)" style="fill: none; stroke: #ff6c00"/>
    <path d="M 361.234437 66.757909 
L 374.377266 66.757909 
" clip-path="url(#p772114c5db)" style="fill: none; stroke: #ff4e00"/>
    <path d="M 361.234437 57.69389 
L 374.377266 57.69389 
" clip-path="url(#p772114c5db)" style="fill: none; stroke: #ff2d00"/>
    <path d="M 361.234437 48.629871 
L 374.377266 48.629871 
" clip-path="url(#p772114c5db)" style="fill: none; stroke: #f60b00"/>
    <path d="M 361.234437 39.565851 
L 374.377266 39.565851 
" clip-path="url(#p772114c5db)" style="fill: none; stroke: #cd0000"/>
    <path d="M 361.234437 30.501832 
L 374.377266 30.501832 
" clip-path="url(#p772114c5db)" style="fill: none; stroke: #a40000"/>
    <path d="M 361.234437 21.437813 
L 374.377266 21.437813 
" clip-path="url(#p772114c5db)" style="fill: none; stroke: #800000"/>
   </g>
   <g id="patch_6">
    <path d="M 361.234437 284.294375 
L 367.805852 284.294375 
L 374.377266 284.294375 
L 374.377266 21.437813 
L 367.805852 21.437813 
L 361.234437 21.437813 
L 361.234437 284.294375 
z
" style="fill: none; stroke: #000000; stroke-width: 0.8; stroke-linejoin: miter; stroke-linecap: square"/>
   </g>
  </g>
 </g>
 <defs>
  <clipPath id="p5aa337affc">
   <rect x="107.665625" y="21.437813" width="238.653" height="262.856562"/>
  </clipPath>
  <clipPath id="p772114c5db">
   <path d="M 361.234437 285.242631 
L 374.377266 285.242631 
L 374.377266 20.489557 
L 361.234437 20.489557 
z
"/>
  </clipPath>
 </defs>
</svg>
