<?xml version="1.0" encoding="utf-8" standalone="no"?>
<!DOCTYPE svg PUBLIC "-//W3C//DTD SVG 1.1//EN"
  "http://www.w3.org/Graphics/SVG/1.1/DTD/svg11.dtd">
<svg xmlns:xlink="http://www.w3.org/1999/xlink" width="360pt" height="288pt" viewBox="0 0 360 288" xmlns="http://www.w3.org/2000/svg" version="1.1">
 <metadata>
  <rdf:RDF xmlns:dc="http://purl.org/dc/elements/1.1/" xmlns:cc="http://creativecommons.org/ns#" xmlns:rdf="http://www.w3.org/1999/02/22-rdf-syntax-ns#">
   <cc:Work>
    <dc:type rdf:resource="http://purl.org/dc/dcmitype/StillImage"/>
    <dc:date>2025-03-30T15:48:35.509904</dc:date>
    <dc:format>image/svg+xml</dc:format>
    <dc:creator>
     <cc:Agent>
      <dc:title>Matplotlib v3.9.2, https://matplotlib.org/</dc:title>
     </cc:Agent>
    </dc:creator>
   </cc:Work>
  </rdf:RDF>
 </metadata>
 <defs>
  <style type="text/css">*{stroke-linejoin: round; stroke-linecap: butt}</style>
 </defs>
 <g id="figure_1">
  <g id="patch_1">
   <path d="M 0 288 
L 360 288 
L 360 0 
L 0 0 
z
" style="fill: #ffffff"/>
  </g>
  <g id="axes_1">
   <g id="patch_2">
    <path d="M 47.288374 235.01373 
L 349.2 235.01373 
L 349.2 10.8 
L 47.288374 10.8 
z
" style="fill: #ffffff"/>
   </g>
   <g id="matplotlib.axis_1">
    <g id="xtick_1">
     <g id="line2d_1">
      <path d="M 47.288374 235.01373 
L 47.288374 10.8 
" clip-path="url(#p5ddf823dff)" style="fill: none; stroke: #b0b0b0; stroke-width: 0.8; stroke-linecap: round"/>
     </g>
     <g id="line2d_2">
      <defs>
       <path id="mc774c8e1da" d="M 0 0 
L 0 3.5 
" style="stroke: #000000; stroke-width: 0.8"/>
      </defs>
      <g>
       <use xlink:href="#mc774c8e1da" x="47.288374" y="235.01373" style="stroke: #000000; stroke-width: 0.8"/>
      </g>
     </g>
     <g id="text_1">
      <!-- 0 -->
      <g transform="translate(45.080586 247.287046) scale(0.0694 -0.0694)">
       <defs>
        <path id="DejaVuSans-30" d="M 2034 4250 
Q 1547 4250 1301 3770 
Q 1056 3291 1056 2328 
Q 1056 1369 1301 889 
Q 1547 409 2034 409 
Q 2525 409 2770 889 
Q 3016 1369 3016 2328 
Q 3016 3291 2770 3770 
Q 2525 4250 2034 4250 
z
M 2034 4750 
Q 2819 4750 3233 4129 
Q 3647 3509 3647 2328 
Q 3647 1150 3233 529 
Q 2819 -91 2034 -91 
Q 1250 -91 836 529 
Q 422 1150 422 2328 
Q 422 3509 836 4129 
Q 1250 4750 2034 4750 
z
" transform="scale(0.015625)"/>
       </defs>
       <use xlink:href="#DejaVuSans-30"/>
      </g>
     </g>
    </g>
    <g id="xtick_2">
     <g id="line2d_3">
      <path d="M 95.339101 235.01373 
L 95.339101 10.8 
" clip-path="url(#p5ddf823dff)" style="fill: none; stroke: #b0b0b0; stroke-width: 0.8; stroke-linecap: round"/>
     </g>
     <g id="line2d_4">
      <g>
       <use xlink:href="#mc774c8e1da" x="95.339101" y="235.01373" style="stroke: #000000; stroke-width: 0.8"/>
      </g>
     </g>
     <g id="text_2">
      <!-- 5 -->
      <g transform="translate(93.131314 247.287046) scale(0.0694 -0.0694)">
       <defs>
        <path id="DejaVuSans-35" d="M 691 4666 
L 3169 4666 
L 3169 4134 
L 1269 4134 
L 1269 2991 
Q 1406 3038 1543 3061 
Q 1681 3084 1819 3084 
Q 2600 3084 3056 2656 
Q 3513 2228 3513 1497 
Q 3513 744 3044 326 
Q 2575 -91 1722 -91 
Q 1428 -91 1123 -41 
Q 819 9 494 109 
L 494 744 
Q 775 591 1075 516 
Q 1375 441 1709 441 
Q 2250 441 2565 725 
Q 2881 1009 2881 1497 
Q 2881 1984 2565 2268 
Q 2250 2553 1709 2553 
Q 1456 2553 1204 2497 
Q 953 2441 691 2322 
L 691 4666 
z
" transform="scale(0.015625)"/>
       </defs>
       <use xlink:href="#DejaVuSans-35"/>
      </g>
     </g>
    </g>
    <g id="xtick_3">
     <g id="line2d_5">
      <path d="M 143.389829 235.01373 
L 143.389829 10.8 
" clip-path="url(#p5ddf823dff)" style="fill: none; stroke: #b0b0b0; stroke-width: 0.8; stroke-linecap: round"/>
     </g>
     <g id="line2d_6">
      <g>
       <use xlink:href="#mc774c8e1da" x="143.389829" y="235.01373" style="stroke: #000000; stroke-width: 0.8"/>
      </g>
     </g>
     <g id="text_3">
      <!-- 10 -->
      <g transform="translate(138.974254 247.287046) scale(0.0694 -0.0694)">
       <defs>
        <path id="DejaVuSans-31" d="M 794 531 
L 1825 531 
L 1825 4091 
L 703 3866 
L 703 4441 
L 1819 4666 
L 2450 4666 
L 2450 531 
L 3481 531 
L 3481 0 
L 794 0 
L 794 531 
z
" transform="scale(0.015625)"/>
       </defs>
       <use xlink:href="#DejaVuSans-31"/>
       <use xlink:href="#DejaVuSans-30" x="63.623047"/>
      </g>
     </g>
    </g>
    <g id="xtick_4">
     <g id="line2d_7">
      <path d="M 191.440557 235.01373 
L 191.440557 10.8 
" clip-path="url(#p5ddf823dff)" style="fill: none; stroke: #b0b0b0; stroke-width: 0.8; stroke-linecap: round"/>
     </g>
     <g id="line2d_8">
      <g>
       <use xlink:href="#mc774c8e1da" x="191.440557" y="235.01373" style="stroke: #000000; stroke-width: 0.8"/>
      </g>
     </g>
     <g id="text_4">
      <!-- 15 -->
      <g transform="translate(187.024982 247.287046) scale(0.0694 -0.0694)">
       <use xlink:href="#DejaVuSans-31"/>
       <use xlink:href="#DejaVuSans-35" x="63.623047"/>
      </g>
     </g>
    </g>
    <g id="xtick_5">
     <g id="line2d_9">
      <path d="M 239.491284 235.01373 
L 239.491284 10.8 
" clip-path="url(#p5ddf823dff)" style="fill: none; stroke: #b0b0b0; stroke-width: 0.8; stroke-linecap: round"/>
     </g>
     <g id="line2d_10">
      <g>
       <use xlink:href="#mc774c8e1da" x="239.491284" y="235.01373" style="stroke: #000000; stroke-width: 0.8"/>
      </g>
     </g>
     <g id="text_5">
      <!-- 20 -->
      <g transform="translate(235.075709 247.287046) scale(0.0694 -0.0694)">
       <defs>
        <path id="DejaVuSans-32" d="M 1228 531 
L 3431 531 
L 3431 0 
L 469 0 
L 469 531 
Q 828 903 1448 1529 
Q 2069 2156 2228 2338 
Q 2531 2678 2651 2914 
Q 2772 3150 2772 3378 
Q 2772 3750 2511 3984 
Q 2250 4219 1831 4219 
Q 1534 4219 1204 4116 
Q 875 4013 500 3803 
L 500 4441 
Q 881 4594 1212 4672 
Q 1544 4750 1819 4750 
Q 2544 4750 2975 4387 
Q 3406 4025 3406 3419 
Q 3406 3131 3298 2873 
Q 3191 2616 2906 2266 
Q 2828 2175 2409 1742 
Q 1991 1309 1228 531 
z
" transform="scale(0.015625)"/>
       </defs>
       <use xlink:href="#DejaVuSans-32"/>
       <use xlink:href="#DejaVuSans-30" x="63.623047"/>
      </g>
     </g>
    </g>
    <g id="xtick_6">
     <g id="line2d_11">
      <path d="M 287.542012 235.01373 
L 287.542012 10.8 
" clip-path="url(#p5ddf823dff)" style="fill: none; stroke: #b0b0b0; stroke-width: 0.8; stroke-linecap: round"/>
     </g>
     <g id="line2d_12">
      <g>
       <use xlink:href="#mc774c8e1da" x="287.542012" y="235.01373" style="stroke: #000000; stroke-width: 0.8"/>
      </g>
     </g>
     <g id="text_6">
      <!-- 25 -->
      <g transform="translate(283.126437 247.287046) scale(0.0694 -0.0694)">
       <use xlink:href="#DejaVuSans-32"/>
       <use xlink:href="#DejaVuSans-35" x="63.623047"/>
      </g>
     </g>
    </g>
    <g id="xtick_7">
     <g id="line2d_13">
      <path d="M 335.59274 235.01373 
L 335.59274 10.8 
" clip-path="url(#p5ddf823dff)" style="fill: none; stroke: #b0b0b0; stroke-width: 0.8; stroke-linecap: round"/>
     </g>
     <g id="line2d_14">
      <g>
       <use xlink:href="#mc774c8e1da" x="335.59274" y="235.01373" style="stroke: #000000; stroke-width: 0.8"/>
      </g>
     </g>
     <g id="text_7">
      <!-- 30 -->
      <g transform="translate(331.177165 247.287046) scale(0.0694 -0.0694)">
       <defs>
        <path id="DejaVuSans-33" d="M 2597 2516 
Q 3050 2419 3304 2112 
Q 3559 1806 3559 1356 
Q 3559 666 3084 287 
Q 2609 -91 1734 -91 
Q 1441 -91 1130 -33 
Q 819 25 488 141 
L 488 750 
Q 750 597 1062 519 
Q 1375 441 1716 441 
Q 2309 441 2620 675 
Q 2931 909 2931 1356 
Q 2931 1769 2642 2001 
Q 2353 2234 1838 2234 
L 1294 2234 
L 1294 2753 
L 1863 2753 
Q 2328 2753 2575 2939 
Q 2822 3125 2822 3475 
Q 2822 3834 2567 4026 
Q 2313 4219 1838 4219 
Q 1578 4219 1281 4162 
Q 984 4106 628 3988 
L 628 4550 
Q 988 4650 1302 4700 
Q 1616 4750 1894 4750 
Q 2613 4750 3031 4423 
Q 3450 4097 3450 3541 
Q 3450 3153 3228 2886 
Q 3006 2619 2597 2516 
z
" transform="scale(0.015625)"/>
       </defs>
       <use xlink:href="#DejaVuSans-33"/>
       <use xlink:href="#DejaVuSans-30" x="63.623047"/>
      </g>
     </g>
    </g>
    <g id="text_8">
     <!-- $\zeta$ -->
     <g transform="translate(190.544187 268.010349) scale(0.28 -0.28)">
      <defs>
       <path id="DejaVuSans-Oblique-3b6" d="M 1966 397 
Q 2378 394 2578 159 
Q 2794 -88 2722 -463 
Q 2650 -822 2372 -1072 
Q 2069 -1344 1559 -1344 
Q 1606 -1109 1650 -872 
Q 1863 -888 2022 -750 
Q 2144 -641 2166 -525 
Q 2197 -359 2125 -222 
Q 2050 -91 1872 -91 
Q -22 -91 316 1669 
Q 616 3206 2609 4284 
L 947 4284 
L 1059 4863 
L 3778 4863 
L 3666 4284 
Q 1181 3147 894 1669 
Q 647 397 1966 397 
z
" transform="scale(0.015625)"/>
      </defs>
      <use xlink:href="#DejaVuSans-Oblique-3b6" transform="translate(0 0.015625)"/>
     </g>
    </g>
   </g>
   <g id="matplotlib.axis_2">
    <g id="ytick_1">
     <g id="line2d_15">
      <path d="M 47.288374 235.01373 
L 349.2 235.01373 
" clip-path="url(#p5ddf823dff)" style="fill: none; stroke: #b0b0b0; stroke-width: 0.8; stroke-linecap: round"/>
     </g>
     <g id="line2d_16">
      <defs>
       <path id="ma9de9a62a1" d="M 0 0 
L -3.5 0 
" style="stroke: #000000; stroke-width: 0.8"/>
      </defs>
      <g>
       <use xlink:href="#ma9de9a62a1" x="47.288374" y="235.01373" style="stroke: #000000; stroke-width: 0.8"/>
      </g>
     </g>
     <g id="text_9">
      <!-- 0 -->
      <g transform="translate(35.872799 237.650388) scale(0.0694 -0.0694)">
       <use xlink:href="#DejaVuSans-30"/>
      </g>
     </g>
    </g>
    <g id="ytick_2">
     <g id="line2d_17">
      <path d="M 47.288374 199.329007 
L 349.2 199.329007 
" clip-path="url(#p5ddf823dff)" style="fill: none; stroke: #b0b0b0; stroke-width: 0.8; stroke-linecap: round"/>
     </g>
     <g id="line2d_18">
      <g>
       <use xlink:href="#ma9de9a62a1" x="47.288374" y="199.329007" style="stroke: #000000; stroke-width: 0.8"/>
      </g>
     </g>
     <g id="text_10">
      <!-- 1 -->
      <g transform="translate(35.872799 201.965665) scale(0.0694 -0.0694)">
       <use xlink:href="#DejaVuSans-31"/>
      </g>
     </g>
    </g>
    <g id="ytick_3">
     <g id="line2d_19">
      <path d="M 47.288374 163.644283 
L 349.2 163.644283 
" clip-path="url(#p5ddf823dff)" style="fill: none; stroke: #b0b0b0; stroke-width: 0.8; stroke-linecap: round"/>
     </g>
     <g id="line2d_20">
      <g>
       <use xlink:href="#ma9de9a62a1" x="47.288374" y="163.644283" style="stroke: #000000; stroke-width: 0.8"/>
      </g>
     </g>
     <g id="text_11">
      <!-- 2 -->
      <g transform="translate(35.872799 166.280941) scale(0.0694 -0.0694)">
       <use xlink:href="#DejaVuSans-32"/>
      </g>
     </g>
    </g>
    <g id="ytick_4">
     <g id="line2d_21">
      <path d="M 47.288374 127.95956 
L 349.2 127.95956 
" clip-path="url(#p5ddf823dff)" style="fill: none; stroke: #b0b0b0; stroke-width: 0.8; stroke-linecap: round"/>
     </g>
     <g id="line2d_22">
      <g>
       <use xlink:href="#ma9de9a62a1" x="47.288374" y="127.95956" style="stroke: #000000; stroke-width: 0.8"/>
      </g>
     </g>
     <g id="text_12">
      <!-- 3 -->
      <g transform="translate(35.872799 130.596218) scale(0.0694 -0.0694)">
       <use xlink:href="#DejaVuSans-33"/>
      </g>
     </g>
    </g>
    <g id="ytick_5">
     <g id="line2d_23">
      <path d="M 47.288374 92.274836 
L 349.2 92.274836 
" clip-path="url(#p5ddf823dff)" style="fill: none; stroke: #b0b0b0; stroke-width: 0.8; stroke-linecap: round"/>
     </g>
     <g id="line2d_24">
      <g>
       <use xlink:href="#ma9de9a62a1" x="47.288374" y="92.274836" style="stroke: #000000; stroke-width: 0.8"/>
      </g>
     </g>
     <g id="text_13">
      <!-- 4 -->
      <g transform="translate(35.872799 94.911494) scale(0.0694 -0.0694)">
       <defs>
        <path id="DejaVuSans-34" d="M 2419 4116 
L 825 1625 
L 2419 1625 
L 2419 4116 
z
M 2253 4666 
L 3047 4666 
L 3047 1625 
L 3713 1625 
L 3713 1100 
L 3047 1100 
L 3047 0 
L 2419 0 
L 2419 1100 
L 313 1100 
L 313 1709 
L 2253 4666 
z
" transform="scale(0.015625)"/>
       </defs>
       <use xlink:href="#DejaVuSans-34"/>
      </g>
     </g>
    </g>
    <g id="ytick_6">
     <g id="line2d_25">
      <path d="M 47.288374 56.590113 
L 349.2 56.590113 
" clip-path="url(#p5ddf823dff)" style="fill: none; stroke: #b0b0b0; stroke-width: 0.8; stroke-linecap: round"/>
     </g>
     <g id="line2d_26">
      <g>
       <use xlink:href="#ma9de9a62a1" x="47.288374" y="56.590113" style="stroke: #000000; stroke-width: 0.8"/>
      </g>
     </g>
     <g id="text_14">
      <!-- 5 -->
      <g transform="translate(35.872799 59.226771) scale(0.0694 -0.0694)">
       <use xlink:href="#DejaVuSans-35"/>
      </g>
     </g>
    </g>
    <g id="ytick_7">
     <g id="line2d_27">
      <path d="M 47.288374 20.905389 
L 349.2 20.905389 
" clip-path="url(#p5ddf823dff)" style="fill: none; stroke: #b0b0b0; stroke-width: 0.8; stroke-linecap: round"/>
     </g>
     <g id="line2d_28">
      <g>
       <use xlink:href="#ma9de9a62a1" x="47.288374" y="20.905389" style="stroke: #000000; stroke-width: 0.8"/>
      </g>
     </g>
     <g id="text_15">
      <!-- 6 -->
      <g transform="translate(35.872799 23.542047) scale(0.0694 -0.0694)">
       <defs>
        <path id="DejaVuSans-36" d="M 2113 2584 
Q 1688 2584 1439 2293 
Q 1191 2003 1191 1497 
Q 1191 994 1439 701 
Q 1688 409 2113 409 
Q 2538 409 2786 701 
Q 3034 994 3034 1497 
Q 3034 2003 2786 2293 
Q 2538 2584 2113 2584 
z
M 3366 4563 
L 3366 3988 
Q 3128 4100 2886 4159 
Q 2644 4219 2406 4219 
Q 1781 4219 1451 3797 
Q 1122 3375 1075 2522 
Q 1259 2794 1537 2939 
Q 1816 3084 2150 3084 
Q 2853 3084 3261 2657 
Q 3669 2231 3669 1497 
Q 3669 778 3244 343 
Q 2819 -91 2113 -91 
Q 1303 -91 875 529 
Q 447 1150 447 2328 
Q 447 3434 972 4092 
Q 1497 4750 2381 4750 
Q 2619 4750 2861 4703 
Q 3103 4656 3366 4563 
z
" transform="scale(0.015625)"/>
       </defs>
       <use xlink:href="#DejaVuSans-36"/>
      </g>
     </g>
    </g>
    <g id="text_16">
     <!-- $\theta$ -->
     <g transform="translate(32.049674 131.586865) rotate(-90) scale(0.28 -0.28)">
      <defs>
       <path id="DejaVuSans-Oblique-3b8" d="M 2913 2219 
L 925 2219 
Q 791 1284 928 888 
Q 1100 400 1566 400 
Q 2034 400 2391 891 
Q 2703 1322 2913 2219 
z
M 3009 2750 
Q 3094 3638 2984 3950 
Q 2813 4444 2353 4444 
Q 1875 4444 1525 3956 
Q 1250 3563 1034 2750 
L 3009 2750 
z
M 2444 4913 
Q 3194 4913 3494 4250 
Q 3794 3591 3566 2422 
Q 3341 1256 2781 594 
Q 2225 -72 1475 -72 
Q 722 -72 425 594 
Q 128 1256 353 2422 
Q 581 3591 1134 4250 
Q 1691 4913 2444 4913 
z
" transform="scale(0.015625)"/>
      </defs>
      <use xlink:href="#DejaVuSans-Oblique-3b8" transform="translate(0 0.234375)"/>
     </g>
    </g>
   </g>
   <g id="line2d_29">
    <path d="M 47.288374 213.686767 
L 52.328634 227.998282 
L 52.63105 229.120754 
L 53.235881 231.085079 
L 53.538297 232.207551 
L 54.042323 233.891259 
L 54.344739 235.01373 
L 54.445544 191.237332 
L 54.546349 191.51795 
L 60.292247 207.793791 
L 60.594662 208.916262 
L 60.695467 208.916262 
L 62.10674 212.564295 
L 62.207546 212.564295 
L 62.711572 213.686767 
L 62.913182 213.686767 
L 63.215598 214.248003 
L 63.316403 214.248003 
L 63.719624 215.089857 
L 63.820429 215.089857 
L 64.122845 215.651093 
L 64.22365 215.651093 
L 64.626871 216.492947 
L 64.727676 216.492947 
L 65.231702 217.615418 
L 65.332507 217.615418 
L 67.046196 222.666541 
L 67.348612 223.789013 
L 67.751833 225.192103 
L 68.155054 226.87581 
L 68.558274 228.2789 
L 69.062301 230.523843 
L 69.566327 232.207551 
L 69.868742 233.330023 
L 70.171158 234.452494 
L 70.271963 235.01373 
L 70.372768 189.553625 
L 70.473574 189.834243 
L 72.288067 195.165984 
L 72.691288 196.849691 
L 73.29612 198.814017 
L 73.699341 200.497724 
L 74.102561 201.900814 
L 74.505782 203.584522 
L 75.009808 205.268229 
L 75.413029 206.951937 
L 75.917055 208.635644 
L 76.219471 209.758116 
L 76.925107 212.00306 
L 77.227523 213.125531 
L 82.77181 228.840136 
L 83.074226 229.962607 
L 83.679057 231.926933 
L 84.082278 233.610641 
L 84.485499 235.01373 
L 84.586304 190.956714 
L 84.687109 191.51795 
L 84.787914 191.51795 
L 89.72737 205.548847 
L 90.029786 206.671319 
L 92.04589 212.00306 
L 92.146695 212.00306 
L 92.650721 213.125531 
L 92.751527 213.125531 
L 93.154747 213.967385 
L 93.255553 213.967385 
L 93.557968 214.528621 
L 93.658774 214.528621 
L 93.961189 215.089857 
L 94.061994 215.089857 
L 94.465215 215.931711 
L 94.566021 215.931711 
L 94.969241 216.773565 
L 95.070047 216.773565 
L 95.574073 217.896036 
L 95.674878 217.896036 
L 97.086151 222.105305 
L 97.388567 223.227777 
L 97.791788 224.630867 
L 98.195008 226.314574 
L 98.598229 227.717664 
L 99.00145 229.401372 
L 99.404671 230.804461 
L 99.807892 232.488169 
L 100.211113 233.891259 
L 100.513528 235.01373 
L 100.614334 189.553625 
L 100.715139 189.834243 
L 102.227217 194.32413 
L 102.529633 195.446601 
L 103.134464 197.410927 
L 103.537685 199.094635 
L 103.940906 200.497724 
L 104.344127 202.181432 
L 104.747348 203.584522 
L 105.150568 205.268229 
L 105.553789 206.671319 
L 105.856205 207.793791 
L 106.360231 209.477498 
L 106.662647 210.59997 
L 107.670699 213.686767 
L 107.670699 213.686767 
" clip-path="url(#p5ddf823dff)" style="fill: none; stroke: #000000; stroke-width: 3; stroke-linecap: round"/>
   </g>
   <g id="line2d_30">
    <path d="M 47.288374 168.787898 
L 47.590789 169.910369 
L 47.893205 171.032841 
L 48.094815 171.874695 
L 48.498036 173.558402 
L 48.800452 174.680874 
L 49.203673 176.364582 
L 49.606894 177.767672 
L 50.010114 179.451379 
L 50.51414 181.135087 
L 50.816556 182.257558 
L 52.83266 187.589299 
L 52.933466 187.589299 
L 53.840713 189.834243 
L 53.941518 189.834243 
L 54.344739 190.956714 
L 54.445544 144.935373 
L 54.546349 145.215991 
L 56.562454 151.108968 
L 56.965674 152.792675 
L 57.368895 154.195765 
L 58.679363 160.930595 
L 59.183389 162.053067 
L 59.385 162.053067 
L 59.687415 162.614303 
L 59.78822 162.614303 
L 60.191441 163.456157 
L 60.292247 163.456157 
L 60.594662 164.017393 
L 60.695467 164.017393 
L 61.199494 165.139864 
L 61.300299 165.139864 
L 61.804325 166.262336 
L 61.90513 166.262336 
L 62.308351 167.10419 
L 62.409156 167.10419 
L 66.239754 178.048289 
L 66.54217 179.170761 
L 70.271963 189.273007 
L 70.372768 145.496609 
L 70.473574 145.777227 
L 70.876794 147.180317 
L 71.280015 148.864024 
L 74.606587 158.405034 
L 74.909003 159.527506 
L 75.513834 161.491831 
L 75.81625 162.614303 
L 76.219471 164.017393 
L 76.521887 165.139864 
L 76.824302 166.262336 
L 77.227523 167.946044 
L 77.630744 169.349133 
L 77.93316 170.471605 
L 78.235575 171.594077 
L 78.638796 173.277785 
L 78.941212 174.400256 
L 79.344433 176.083964 
L 79.546043 176.925818 
L 79.848459 178.048289 
L 80.150874 179.170761 
L 80.554095 180.854469 
L 83.175031 187.869917 
L 83.275836 187.869917 
L 84.485499 190.956714 
L 84.586304 144.654755 
L 84.687109 145.215991 
L 86.904824 151.670204 
L 87.308045 153.353911 
L 87.610461 154.476383 
L 88.920928 161.211213 
L 89.021734 161.211213 
L 89.424954 162.053067 
L 89.52576 162.053067 
L 89.828175 162.614303 
L 89.928981 162.614303 
L 90.231396 163.175539 
L 90.332201 163.175539 
L 90.735422 164.017393 
L 90.836227 164.017393 
L 91.239448 164.859246 
L 91.340254 164.859246 
L 91.743474 165.7011 
L 91.84428 165.7011 
L 92.348306 166.823572 
L 92.449111 166.823572 
L 93.356358 169.068516 
L 93.457163 169.068516 
L 93.658774 169.910369 
L 93.759579 169.910369 
L 95.271657 174.400256 
L 95.574073 175.522728 
L 96.884541 179.451379 
L 97.186956 180.573851 
L 100.412723 189.273007 
L 100.513528 189.273007 
L 100.614334 145.777227 
L 100.715139 146.057845 
L 101.11836 147.460934 
L 101.420775 148.583406 
L 103.940906 155.879473 
L 104.142516 156.440708 
L 105.049763 159.246888 
L 105.352179 160.36936 
L 105.95701 162.333685 
L 106.360231 164.017393 
L 106.965062 165.981718 
L 107.368283 167.665426 
L 107.670699 168.787898 
L 107.670699 168.787898 
" clip-path="url(#p5ddf823dff)" style="fill: none; stroke: #000000; stroke-width: 3; stroke-linecap: round"/>
   </g>
   <g id="line2d_31">
    <path d="M 47.288374 123.047174 
L 48.598841 126.975825 
L 48.901257 128.098297 
L 49.405283 129.782005 
L 49.707699 130.904476 
L 50.51414 133.430038 
L 50.816556 134.552509 
L 51.522193 136.797453 
L 51.824608 137.919925 
L 51.925414 137.919925 
L 54.344739 144.654755 
L 54.445544 100.597739 
L 54.546349 101.158975 
L 55.050375 102.842683 
L 55.453596 104.52639 
L 56.360843 107.33257 
L 56.663259 108.455041 
L 58.780168 114.0674 
L 58.880974 114.0674 
L 59.485805 115.47049 
L 59.58661 115.47049 
L 60.090636 116.592962 
L 60.191441 116.592962 
L 60.594662 117.434815 
L 60.695467 117.434815 
L 62.005935 121.363467 
L 62.509961 123.60841 
L 62.812377 124.730882 
L 63.215598 126.414589 
L 64.122845 128.659533 
L 64.22365 128.659533 
L 64.526066 129.220769 
L 64.626871 129.220769 
L 64.828481 129.782005 
L 65.231702 130.623858 
L 65.332507 130.623858 
L 65.836534 131.74633 
L 65.937339 131.74633 
L 69.263911 141.28734 
L 69.667132 142.971048 
L 70.271963 144.935373 
L 70.372768 101.158975 
L 70.473574 101.439593 
L 74.304172 112.383693 
L 74.606587 113.506164 
L 75.110614 115.189872 
L 75.413029 116.312344 
L 76.219471 118.837905 
L 76.521887 119.960377 
L 77.630744 123.327792 
L 77.93316 124.450264 
L 78.941212 127.537061 
L 79.243627 128.659533 
L 80.050069 131.185094 
L 80.352485 132.307566 
L 80.957316 134.271892 
L 81.259732 135.394363 
L 84.485499 144.374137 
L 84.586304 100.597739 
L 84.687109 100.878357 
L 85.191135 102.562065 
L 85.594356 104.245772 
L 86.199187 106.210098 
L 86.501603 107.33257 
L 89.122539 114.348018 
L 89.223344 114.348018 
L 89.828175 115.751108 
L 89.928981 115.751108 
L 90.433007 116.87358 
L 90.533812 116.87358 
L 90.836227 117.434815 
L 90.937033 117.434815 
L 92.146695 121.082849 
L 92.751527 123.889028 
L 93.053942 125.0115 
L 93.356358 126.133971 
L 94.36441 128.659533 
L 94.465215 128.659533 
L 94.969241 129.782005 
L 95.070047 129.782005 
L 95.574073 130.904476 
L 95.674878 130.904476 
L 96.279709 132.307566 
L 96.380514 132.307566 
L 99.303866 140.726104 
L 99.606281 141.848576 
L 99.908697 142.971048 
L 100.311918 144.654755 
L 100.513528 145.215991 
L 100.614334 101.158975 
L 100.715139 101.439593 
L 100.916749 102.281447 
L 101.017554 102.281447 
L 104.243321 111.541839 
L 104.545737 112.664311 
L 105.150568 114.628636 
L 105.553789 116.312344 
L 106.561841 119.399141 
L 106.864257 120.521613 
L 107.670699 123.047174 
L 107.670699 123.047174 
" clip-path="url(#p5ddf823dff)" style="fill: none; stroke: #000000; stroke-width: 3; stroke-linecap: round"/>
   </g>
   <g id="line2d_32">
    <path d="M 47.288374 77.025833 
L 47.691594 78.70954 
L 48.094815 80.11263 
L 48.498036 81.796338 
L 49.203673 84.041281 
L 49.606894 85.724989 
L 52.83266 94.985381 
L 53.135076 96.107852 
L 53.941518 98.633414 
L 54.344739 100.317121 
L 54.445544 56.540723 
L 54.546349 56.821341 
L 59.78822 71.694092 
L 60.090636 72.816564 
L 62.207546 78.428922 
L 62.308351 78.428922 
L 62.913182 79.832012 
L 63.013987 79.832012 
L 63.518014 80.954484 
L 63.618819 80.954484 
L 64.02204 81.796338 
L 64.122845 81.796338 
L 64.526066 82.638191 
L 64.626871 82.638191 
L 65.030092 83.480045 
L 65.231702 83.480045 
L 65.534118 84.041281 
L 65.735728 84.041281 
L 66.239754 85.444371 
L 66.642975 87.969932 
L 66.743781 88.25055 
L 67.046196 89.934258 
L 67.651027 92.740437 
L 68.255859 94.704763 
L 68.558274 95.827234 
L 70.271963 100.878357 
L 70.372768 54.857016 
L 70.473574 55.137634 
L 71.481626 57.663195 
L 71.582431 57.663195 
L 72.388873 59.627521 
L 72.489678 59.627521 
L 74.404977 65.239879 
L 74.707393 66.362351 
L 75.110614 67.765441 
L 75.513834 69.449148 
L 75.81625 70.57162 
L 76.219471 72.255328 
L 76.521887 73.3778 
L 76.925107 75.061507 
L 77.227523 76.183979 
L 77.529939 77.306451 
L 77.832354 78.428922 
L 78.13477 79.551394 
L 78.437186 80.673866 
L 78.739601 81.796338 
L 79.243627 83.480045 
L 79.646848 85.163753 
L 80.755706 88.531168 
L 81.058121 89.65364 
L 83.880667 97.79156 
L 84.283888 99.475268 
L 84.485499 100.036503 
L 84.586304 56.260106 
L 84.687109 56.821341 
L 86.804019 62.4337 
L 86.904824 62.4337 
L 87.20724 63.556172 
L 87.308045 63.556172 
L 88.920928 68.326677 
L 89.223344 69.449148 
L 90.533812 73.3778 
L 90.836227 74.500271 
L 92.146695 77.867687 
L 92.247501 77.867687 
L 93.053942 79.832012 
L 93.255553 79.832012 
L 93.759579 80.954484 
L 93.860384 80.954484 
L 94.36441 82.076956 
L 94.465215 82.076956 
L 94.767631 82.638191 
L 94.868436 82.638191 
L 95.271657 83.480045 
L 95.473267 83.480045 
L 95.775683 84.041281 
L 95.876488 84.041281 
L 96.582125 86.286225 
L 96.884541 88.25055 
L 96.985346 88.531168 
L 97.287761 90.214876 
L 97.489372 91.056729 
L 97.993398 93.301673 
L 98.598229 95.265999 
L 98.900645 96.38847 
L 100.513528 100.878357 
L 100.614334 54.857016 
L 100.715139 55.137634 
L 101.723191 57.663195 
L 101.823996 57.663195 
L 103.033659 60.749992 
L 103.134464 60.749992 
L 104.444932 64.678644 
L 104.747348 65.801115 
L 105.150568 67.204205 
L 105.553789 68.887913 
L 105.856205 70.010384 
L 106.259426 71.694092 
L 106.561841 72.816564 
L 106.965062 74.500271 
L 107.267478 75.622743 
L 107.569894 76.745215 
L 107.670699 77.025833 
L 107.670699 77.025833 
" clip-path="url(#p5ddf823dff)" style="fill: none; stroke: #000000; stroke-width: 3; stroke-linecap: round"/>
   </g>
   <g id="line2d_33">
    <path d="M 47.288374 32.126963 
L 48.397231 35.494378 
L 48.699647 36.61685 
L 49.203673 38.300558 
L 49.606894 39.984265 
L 50.010114 41.387355 
L 50.413335 43.071063 
L 50.816556 44.474152 
L 51.219777 46.15786 
L 51.723803 47.841567 
L 52.127024 49.525275 
L 53.034271 52.331454 
L 53.336687 53.453926 
L 54.344739 56.260106 
L 54.445544 10.8 
L 54.546349 11.361236 
L 55.050375 13.044943 
L 55.352791 14.167415 
L 55.554401 15.009269 
L 55.957622 16.692977 
L 56.461648 18.376684 
L 56.864869 20.060392 
L 57.26809 21.463482 
L 57.671311 23.147189 
L 60.090636 29.601402 
L 60.191441 29.601402 
L 60.493857 30.162638 
L 60.594662 30.162638 
L 60.997883 31.004491 
L 61.098688 31.004491 
L 61.300299 31.285109 
L 61.401104 31.285109 
L 61.804325 32.126963 
L 61.90513 32.126963 
L 62.409156 33.249435 
L 62.509961 33.249435 
L 63.013987 34.371907 
L 63.114793 34.371907 
L 63.316403 34.933142 
L 66.138949 43.071063 
L 66.441365 44.193534 
L 70.271963 54.576398 
L 70.372768 10.8 
L 70.473574 11.080618 
L 70.775989 12.20309 
L 71.280015 13.886797 
L 71.582431 15.009269 
L 72.187262 16.973595 
L 72.489678 18.096066 
L 78.13477 34.091289 
L 78.437186 35.21376 
L 79.243627 37.739322 
L 79.646848 39.423029 
L 80.150874 41.106737 
L 80.654901 43.35168 
L 81.158927 45.035388 
L 81.562147 46.719096 
L 82.066174 48.402803 
L 82.469394 50.086511 
L 84.485499 55.979488 
L 84.586304 10.8 
L 84.687109 11.080618 
L 85.191135 12.764326 
L 85.594356 14.448033 
L 85.997577 15.851123 
L 86.501603 18.096066 
L 86.904824 19.499156 
L 87.308045 21.182864 
L 88.013681 23.427807 
L 88.316097 24.550279 
L 90.231396 29.601402 
L 90.332201 29.601402 
L 90.634617 30.162638 
L 90.735422 30.162638 
L 91.037838 30.723873 
L 91.138643 30.723873 
L 91.441059 31.285109 
L 91.541864 31.285109 
L 91.84428 31.846345 
L 91.945085 31.846345 
L 92.348306 32.688199 
L 92.449111 32.688199 
L 92.953137 33.810671 
L 93.053942 33.810671 
L 96.884541 44.75477 
L 97.086151 45.596624 
L 97.186956 45.596624 
L 100.513528 54.857016 
L 100.614334 11.080618 
L 100.715139 11.361236 
L 101.31997 13.325561 
L 101.622386 14.448033 
L 102.227217 16.412359 
L 102.529633 17.53483 
L 103.940906 21.744099 
L 104.142516 22.585953 
L 104.243321 22.585953 
L 107.670699 32.126963 
L 107.670699 32.126963 
" clip-path="url(#p5ddf823dff)" style="fill: none; stroke: #000000; stroke-width: 3; stroke-linecap: round"/>
   </g>
   <g id="line2d_34">
    <path d="M 47.288374 235.01373 
L 47.893205 234.723784 
L 48.498036 234.08805 
L 48.800452 233.479515 
L 49.102867 232.517799 
L 49.405283 230.964786 
L 49.707699 228.419948 
L 51.219777 210.479067 
L 51.824608 208.110841 
L 52.42944 207.048346 
L 53.034271 206.538099 
L 54.243934 205.819861 
L 54.848765 205.206485 
L 55.453596 204.275472 
L 56.360843 202.310947 
L 58.477753 196.916549 
L 60.292247 191.758601 
L 60.897078 190.853331 
L 61.804325 190.10954 
L 62.711572 189.444367 
L 63.316403 188.812272 
L 63.921234 187.88397 
L 64.526066 186.458755 
L 65.130897 184.291386 
L 66.34056 178.350751 
L 67.550222 171.86721 
L 68.155054 169.835608 
L 68.759885 168.681245 
L 69.364716 168.015314 
L 71.17921 166.582284 
L 71.784041 165.430087 
L 72.086457 164.470734 
L 72.691288 161.291349 
L 73.598535 153.772402 
L 74.203367 148.796904 
L 74.808198 145.976264 
L 75.413029 144.677596 
L 76.017861 143.972911 
L 77.832354 142.224073 
L 78.739601 140.77854 
L 80.25168 137.919061 
L 80.856511 137.236737 
L 81.461342 136.910898 
L 82.368589 136.804181 
L 83.275836 136.651983 
L 83.880667 136.183352 
L 84.183083 135.735657 
L 84.787914 134.201731 
L 85.392746 131.704464 
L 86.904824 124.841676 
L 87.812071 121.943286 
L 88.719318 119.810281 
L 89.928981 117.075591 
L 90.533812 115.178116 
L 91.138643 112.557384 
L 92.650721 104.679891 
L 93.255553 102.958894 
L 94.1628 101.296323 
L 94.767631 100.160024 
L 95.372462 98.483474 
L 95.977294 95.830365 
L 98.396619 82.587994 
L 99.00145 80.938213 
L 99.606281 80.131614 
L 100.211113 79.818333 
L 100.815944 79.78141 
L 102.025607 79.834114 
L 102.630438 79.560747 
L 103.235269 78.862818 
L 103.840101 77.634927 
L 104.747348 74.976824 
L 105.95701 70.888051 
L 106.561841 68.30938 
L 107.469088 63.411993 
L 47.389179 61.906388 
L 48.598841 56.857341 
L 50.413335 50.088892 
L 51.320582 47.924257 
L 52.227829 46.076448 
L 52.83266 44.296769 
L 53.437492 41.324894 
L 54.344739 35.758946 
L 54.94957 33.180873 
L 55.856817 30.543334 
L 57.06648 27.879872 
L 58.880974 24.077433 
L 59.485805 22.240576 
L 60.090636 19.683004 
L 60.997883 15.342716 
L 61.602714 13.306953 
L 62.509961 11.193416 
L 62.812377 234.753563 
L 63.417208 233.23902 
L 64.02204 231.110426 
L 65.534118 224.367878 
L 66.138949 222.719017 
L 67.046196 220.955066 
L 68.255859 218.669671 
L 69.163106 216.510375 
L 70.070353 213.64516 
L 70.675184 210.977933 
L 72.187262 202.743974 
L 72.792094 201.021208 
L 74.606587 196.984005 
L 75.513834 193.531215 
L 77.93316 183.096282 
L 79.142822 176.830436 
L 80.050069 173.520065 
L 81.259732 169.772473 
L 81.864563 168.36823 
L 82.469394 167.492858 
L 83.074226 167.082704 
L 83.679057 166.976297 
L 84.88872 166.936633 
L 85.493551 166.661641 
L 86.098382 165.972073 
L 86.703214 164.559334 
L 87.308045 161.992132 
L 89.72737 148.790588 
L 90.332201 146.89653 
L 91.239448 145.130256 
L 92.146695 143.367934 
L 92.751527 141.471191 
L 93.356358 138.528842 
L 94.263605 133.584665 
L 94.868436 131.225573 
L 95.473267 129.556679 
L 97.590177 124.789917 
L 98.497424 121.630325 
L 99.707087 116.245789 
L 100.614334 112.639286 
L 101.219165 111.279149 
L 101.823996 110.63472 
L 102.428828 110.410651 
L 103.940906 110.212143 
L 104.545737 109.805817 
L 105.150568 109.002067 
L 106.057815 107.142327 
L 106.965062 105.297435 
L 107.569894 104.395096 
L 47.489984 104.041654 
L 48.397231 103.237061 
L 49.304478 102.452041 
L 49.909309 101.520883 
L 50.211725 100.72712 
L 50.51414 99.524785 
L 50.816556 97.702046 
L 52.63105 83.32234 
L 53.235881 81.198379 
L 53.840713 80.13554 
L 54.445544 79.569643 
L 55.655207 78.716623 
L 56.260038 78.010675 
L 56.864869 76.80576 
L 57.4697 74.712395 
L 60.191441 61.566078 
L 60.796273 59.885571 
L 61.401104 58.824089 
L 62.005935 58.169137 
L 62.913182 57.612631 
L 63.820429 57.135735 
L 64.425261 56.524388 
L 65.030092 55.424564 
L 65.634923 53.771822 
L 67.147001 49.15437 
L 69.566327 43.097833 
L 70.171158 42.042169 
L 70.775989 41.342898 
L 72.590483 39.800365 
L 72.892899 39.271634 
L 73.195314 38.516806 
L 73.49773 37.416456 
L 73.800146 35.754792 
L 74.102561 33.147602 
L 75.61464 15.35587 
L 75.917055 14.00679 
L 76.521887 12.63432 
L 77.126718 12.081211 
L 78.336381 11.482296 
L 78.638796 11.192683 
L 78.941212 234.957396 
L 79.243627 234.258917 
L 79.546043 233.157552 
L 79.848459 231.365044 
L 80.150874 228.411626 
L 81.360537 212.973469 
L 81.965368 209.818854 
L 82.5702 208.494324 
L 83.175031 207.916956 
L 85.291941 206.672079 
L 85.896772 205.902825 
L 86.804019 204.226952 
L 88.316097 200.585612 
L 89.52576 197.212593 
L 90.735422 193.848525 
L 91.340254 192.790094 
L 92.247501 191.780022 
L 93.457163 190.516678 
L 94.061994 189.652647 
L 94.666826 188.430165 
L 95.271657 186.572203 
L 95.876488 183.872795 
L 98.295814 171.480345 
L 98.900645 170.016926 
L 99.505476 169.194933 
L 100.412723 168.508773 
L 101.31997 167.820238 
L 101.924801 166.926442 
L 102.227217 166.189841 
L 102.529633 165.14219 
L 103.134464 161.699117 
L 104.948958 147.939172 
L 105.553789 146.120623 
L 106.158621 145.187138 
L 107.368283 144.022428 
L 47.288374 143.722883 
L 47.288374 143.722883 
" clip-path="url(#p5ddf823dff)" style="fill: none; stroke-dasharray: 11.1,4.8; stroke-dashoffset: 0; stroke: #800080; stroke-width: 3; stroke-linecap: round"/>
   </g>
   <g id="patch_3">
    <path d="M 47.288374 235.01373 
L 47.288374 10.8 
" style="fill: none; stroke: #000000; stroke-width: 0.8; stroke-linejoin: miter; stroke-linecap: square"/>
   </g>
   <g id="patch_4">
    <path d="M 47.288374 235.01373 
L 349.2 235.01373 
" style="fill: none; stroke: #000000; stroke-width: 0.8; stroke-linejoin: miter; stroke-linecap: square"/>
   </g>
   <g id="legend_1">
    <g id="patch_5">
     <path d="M 142.31875 56.15625 
L 335.2 56.15625 
Q 339.2 56.15625 339.2 52.15625 
L 339.2 24.8 
Q 339.2 20.8 335.2 20.8 
L 142.31875 20.8 
Q 138.31875 20.8 138.31875 24.8 
L 138.31875 52.15625 
Q 138.31875 56.15625 142.31875 56.15625 
z
" style="fill: #ffffff; opacity: 0.5; stroke: #cccccc; stroke-linejoin: miter"/>
    </g>
    <g id="line2d_35">
     <path d="M 146.31875 36.996875 
L 166.31875 36.996875 
L 186.31875 36.996875 
" style="fill: none; stroke-dasharray: 11.1,4.8; stroke-dashoffset: 0; stroke: #800080; stroke-width: 3; stroke-linecap: round"/>
    </g>
    <g id="text_17">
     <!-- umbilic edge -->
     <g transform="translate(202.31875 43.996875) scale(0.2 -0.2)">
      <defs>
       <path id="DejaVuSans-75" d="M 544 1381 
L 544 3500 
L 1119 3500 
L 1119 1403 
Q 1119 906 1312 657 
Q 1506 409 1894 409 
Q 2359 409 2629 706 
Q 2900 1003 2900 1516 
L 2900 3500 
L 3475 3500 
L 3475 0 
L 2900 0 
L 2900 538 
Q 2691 219 2414 64 
Q 2138 -91 1772 -91 
Q 1169 -91 856 284 
Q 544 659 544 1381 
z
M 1991 3584 
L 1991 3584 
z
" transform="scale(0.015625)"/>
       <path id="DejaVuSans-6d" d="M 3328 2828 
Q 3544 3216 3844 3400 
Q 4144 3584 4550 3584 
Q 5097 3584 5394 3201 
Q 5691 2819 5691 2113 
L 5691 0 
L 5113 0 
L 5113 2094 
Q 5113 2597 4934 2840 
Q 4756 3084 4391 3084 
Q 3944 3084 3684 2787 
Q 3425 2491 3425 1978 
L 3425 0 
L 2847 0 
L 2847 2094 
Q 2847 2600 2669 2842 
Q 2491 3084 2119 3084 
Q 1678 3084 1418 2786 
Q 1159 2488 1159 1978 
L 1159 0 
L 581 0 
L 581 3500 
L 1159 3500 
L 1159 2956 
Q 1356 3278 1631 3431 
Q 1906 3584 2284 3584 
Q 2666 3584 2933 3390 
Q 3200 3197 3328 2828 
z
" transform="scale(0.015625)"/>
       <path id="DejaVuSans-62" d="M 3116 1747 
Q 3116 2381 2855 2742 
Q 2594 3103 2138 3103 
Q 1681 3103 1420 2742 
Q 1159 2381 1159 1747 
Q 1159 1113 1420 752 
Q 1681 391 2138 391 
Q 2594 391 2855 752 
Q 3116 1113 3116 1747 
z
M 1159 2969 
Q 1341 3281 1617 3432 
Q 1894 3584 2278 3584 
Q 2916 3584 3314 3078 
Q 3713 2572 3713 1747 
Q 3713 922 3314 415 
Q 2916 -91 2278 -91 
Q 1894 -91 1617 61 
Q 1341 213 1159 525 
L 1159 0 
L 581 0 
L 581 4863 
L 1159 4863 
L 1159 2969 
z
" transform="scale(0.015625)"/>
       <path id="DejaVuSans-69" d="M 603 3500 
L 1178 3500 
L 1178 0 
L 603 0 
L 603 3500 
z
M 603 4863 
L 1178 4863 
L 1178 4134 
L 603 4134 
L 603 4863 
z
" transform="scale(0.015625)"/>
       <path id="DejaVuSans-6c" d="M 603 4863 
L 1178 4863 
L 1178 0 
L 603 0 
L 603 4863 
z
" transform="scale(0.015625)"/>
       <path id="DejaVuSans-63" d="M 3122 3366 
L 3122 2828 
Q 2878 2963 2633 3030 
Q 2388 3097 2138 3097 
Q 1578 3097 1268 2742 
Q 959 2388 959 1747 
Q 959 1106 1268 751 
Q 1578 397 2138 397 
Q 2388 397 2633 464 
Q 2878 531 3122 666 
L 3122 134 
Q 2881 22 2623 -34 
Q 2366 -91 2075 -91 
Q 1284 -91 818 406 
Q 353 903 353 1747 
Q 353 2603 823 3093 
Q 1294 3584 2113 3584 
Q 2378 3584 2631 3529 
Q 2884 3475 3122 3366 
z
" transform="scale(0.015625)"/>
       <path id="DejaVuSans-20" transform="scale(0.015625)"/>
       <path id="DejaVuSans-65" d="M 3597 1894 
L 3597 1613 
L 953 1613 
Q 991 1019 1311 708 
Q 1631 397 2203 397 
Q 2534 397 2845 478 
Q 3156 559 3463 722 
L 3463 178 
Q 3153 47 2828 -22 
Q 2503 -91 2169 -91 
Q 1331 -91 842 396 
Q 353 884 353 1716 
Q 353 2575 817 3079 
Q 1281 3584 2069 3584 
Q 2775 3584 3186 3129 
Q 3597 2675 3597 1894 
z
M 3022 2063 
Q 3016 2534 2758 2815 
Q 2500 3097 2075 3097 
Q 1594 3097 1305 2825 
Q 1016 2553 972 2059 
L 3022 2063 
z
" transform="scale(0.015625)"/>
       <path id="DejaVuSans-64" d="M 2906 2969 
L 2906 4863 
L 3481 4863 
L 3481 0 
L 2906 0 
L 2906 525 
Q 2725 213 2448 61 
Q 2172 -91 1784 -91 
Q 1150 -91 751 415 
Q 353 922 353 1747 
Q 353 2572 751 3078 
Q 1150 3584 1784 3584 
Q 2172 3584 2448 3432 
Q 2725 3281 2906 2969 
z
M 947 1747 
Q 947 1113 1208 752 
Q 1469 391 1925 391 
Q 2381 391 2643 752 
Q 2906 1113 2906 1747 
Q 2906 2381 2643 2742 
Q 2381 3103 1925 3103 
Q 1469 3103 1208 2742 
Q 947 2381 947 1747 
z
" transform="scale(0.015625)"/>
       <path id="DejaVuSans-67" d="M 2906 1791 
Q 2906 2416 2648 2759 
Q 2391 3103 1925 3103 
Q 1463 3103 1205 2759 
Q 947 2416 947 1791 
Q 947 1169 1205 825 
Q 1463 481 1925 481 
Q 2391 481 2648 825 
Q 2906 1169 2906 1791 
z
M 3481 434 
Q 3481 -459 3084 -895 
Q 2688 -1331 1869 -1331 
Q 1566 -1331 1297 -1286 
Q 1028 -1241 775 -1147 
L 775 -588 
Q 1028 -725 1275 -790 
Q 1522 -856 1778 -856 
Q 2344 -856 2625 -561 
Q 2906 -266 2906 331 
L 2906 616 
Q 2728 306 2450 153 
Q 2172 0 1784 0 
Q 1141 0 747 490 
Q 353 981 353 1791 
Q 353 2603 747 3093 
Q 1141 3584 1784 3584 
Q 2172 3584 2450 3431 
Q 2728 3278 2906 2969 
L 2906 3500 
L 3481 3500 
L 3481 434 
z
" transform="scale(0.015625)"/>
      </defs>
      <use xlink:href="#DejaVuSans-75"/>
      <use xlink:href="#DejaVuSans-6d" x="63.378906"/>
      <use xlink:href="#DejaVuSans-62" x="160.791016"/>
      <use xlink:href="#DejaVuSans-69" x="224.267578"/>
      <use xlink:href="#DejaVuSans-6c" x="252.050781"/>
      <use xlink:href="#DejaVuSans-69" x="279.833984"/>
      <use xlink:href="#DejaVuSans-63" x="307.617188"/>
      <use xlink:href="#DejaVuSans-20" x="362.597656"/>
      <use xlink:href="#DejaVuSans-65" x="394.384766"/>
      <use xlink:href="#DejaVuSans-64" x="455.908203"/>
      <use xlink:href="#DejaVuSans-67" x="519.384766"/>
      <use xlink:href="#DejaVuSans-65" x="582.861328"/>
     </g>
    </g>
   </g>
  </g>
 </g>
 <defs>
  <clipPath id="p5ddf823dff">
   <rect x="47.288374" y="10.8" width="301.911626" height="224.21373"/>
  </clipPath>
 </defs>
</svg>
